<?xml version="1.0" encoding="utf-8"?>
<!-- Generator: Adobe Illustrator 23.1.0, SVG Export Plug-In . SVG Version: 6.00 Build 0)  -->
<svg version="1.1" id="Layer_1" xmlns="http://www.w3.org/2000/svg" xmlns:xlink="http://www.w3.org/1999/xlink" x="0px" y="0px"
	 viewBox="0 0 475 533" style="enable-background:new 0 0 475 533;" xml:space="preserve">
<style type="text/css">
	.st0{clip-path:url(#SVGID_2_);}
	.st1{clip-path:url(#SVGID_4_);}
	.st2{fill:url(#SVGID_5_);}
	.st3{clip-path:url(#SVGID_7_);}
	.st4{opacity:0.1;}
	.st5{clip-path:url(#SVGID_9_);}
	.st6{clip-path:url(#SVGID_11_);}
	.st7{clip-path:url(#SVGID_13_);}
	.st8{fill:#FFFFFF;}
	.st9{clip-path:url(#SVGID_15_);}
	.st10{fill:url(#SVGID_16_);}
	.st11{clip-path:url(#SVGID_18_);}
	.st12{fill:url(#SVGID_19_);}
	.st13{clip-path:url(#SVGID_21_);}
	.st14{fill:url(#SVGID_22_);}
	.st15{clip-path:url(#SVGID_24_);}
	.st16{fill:url(#SVGID_25_);}
	.st17{clip-path:url(#SVGID_27_);}
	.st18{fill:url(#SVGID_28_);}
	.st19{clip-path:url(#SVGID_30_);}
	.st20{fill:url(#SVGID_31_);}
	.st21{clip-path:url(#SVGID_33_);}
	.st22{fill:url(#SVGID_34_);}
	.st23{clip-path:url(#SVGID_36_);}
	.st24{fill:url(#SVGID_37_);}
	.st25{clip-path:url(#SVGID_39_);}
	.st26{fill:url(#SVGID_40_);}
	.st27{clip-path:url(#SVGID_42_);}
	.st28{fill:url(#SVGID_43_);}
	.st29{clip-path:url(#SVGID_45_);}
	.st30{fill:url(#SVGID_46_);}
	.st31{clip-path:url(#SVGID_48_);}
	.st32{fill:url(#SVGID_49_);}
	.st33{clip-path:url(#SVGID_51_);}
	.st34{fill:url(#SVGID_52_);}
	.st35{clip-path:url(#SVGID_54_);}
	.st36{fill:url(#SVGID_55_);}
	.st37{clip-path:url(#SVGID_57_);}
	.st38{fill:url(#SVGID_58_);}
</style>
<title>Artboard 1</title>
<g>
	<defs>
		<rect id="SVGID_1_" x="-47" y="-11" width="639" height="550"/>
	</defs>
	<clipPath id="SVGID_2_">
		<use xlink:href="#SVGID_1_"  style="overflow:visible;"/>
	</clipPath>
	<g class="st0">
		<g>
			<defs>
				<path id="SVGID_3_" d="M303.9,252.3c-37.8,21-67.3,50.8-88.7,88.5c-27.9,49.1-36.7,101.6-25.6,157.3c1.5,7.5,3.7,14.9,5.6,22.4
					c1.1-0.8,1.9-1.9,2.4-3.1c13.9-29,29.9-56.8,47.9-83.4c22.3-32.7,47.6-62.8,80-86c3.7-2.6,7.6-4.9,11.4-7.3
					c-2.7,2.9-5.9,5-8.8,7.4c-16.5,13.8-31.3,29.5-44,46.9c-30.7,41.5-53.2,87.5-71.8,135.6c-0.3,0.7-0.4,1.4-0.7,2.5
					c1.5-0.4,2.7-0.5,3.7-0.9c12.7-4.2,25.5-8,37.9-12.8c37.4-14.6,71.9-34.4,102.2-61.2c37-32.6,64.2-72.3,82.2-118.2
					c10.1-25.9,19.2-52.3,28.7-78.5c2-5.6,3.6-11.4,5.4-17.2c-1.9-1-3.5-1.9-5.2-2.7c-20-9.6-41.9-14.7-64.2-15h-1.9
					C366,226.5,333.9,235.6,303.9,252.3"/>
			</defs>
			<clipPath id="SVGID_4_">
				<use xlink:href="#SVGID_3_"  style="overflow:visible;"/>
			</clipPath>
			<g class="st1">
				
					<radialGradient id="SVGID_5_" cx="-668.42" cy="-2526.23" r="1" gradientTransform="matrix(118.5595 -129.249 70.1846 64.38 256879.7188 76628.9688)" gradientUnits="userSpaceOnUse">
					<stop  offset="0" style="stop-color:#FF2639"/>
					<stop  offset="0.29" style="stop-color:#EA1D2C"/>
					<stop  offset="0.9" style="stop-color:#B4040A"/>
					<stop  offset="1" style="stop-color:#AB0004"/>
				</radialGradient>
				<polygon class="st2" points="25.8,392.8 312.5,80.4 624.3,366.4 337.7,678.9 				"/>
			</g>
		</g>
		<g>
			<defs>
				<rect id="SVGID_6_" x="-1272.5" y="-2737.2" width="1920" height="5421.2"/>
			</defs>
			<clipPath id="SVGID_7_">
				<use xlink:href="#SVGID_6_"  style="overflow:visible;"/>
			</clipPath>
			<g class="st3">
				<g class="st4">
					<g>
						<defs>
							<rect id="SVGID_8_" x="-59.5" y="-11.4" width="551.3" height="467.9"/>
						</defs>
						<clipPath id="SVGID_9_">
							<use xlink:href="#SVGID_8_"  style="overflow:visible;"/>
						</clipPath>
						<g class="st5">
							<g>
								<defs>
									<rect id="SVGID_10_" x="-59.5" y="-11.4" width="551.3" height="467.9"/>
								</defs>
								<clipPath id="SVGID_11_">
									<use xlink:href="#SVGID_10_"  style="overflow:visible;"/>
								</clipPath>
								<g class="st6">
									
										<image style="overflow:visible;enable-background:new    ;" width="652" height="553" xlink:href="62AF9751.png"  transform="matrix(0.8426 0 0 0.8426 -59.52 -11.2725)">
									</image>
								</g>
							</g>
						</g>
					</g>
				</g>
			</g>
		</g>
		<g>
			<defs>
				<path id="SVGID_12_" d="M25,213.8c0,101,81.9,182.8,182.8,182.8c101,0,182.8-81.9,182.8-182.8c0-101-81.9-182.8-182.8-182.8
					C106.9,31,25,112.9,25,213.8"/>
			</defs>
			<clipPath id="SVGID_13_">
				<use xlink:href="#SVGID_12_"  style="overflow:visible;"/>
			</clipPath>
			<g class="st7">
				<rect x="-472.3" y="-331.7" class="st8" width="1310.3" height="1352.7"/>
			</g>
		</g>
		<g>
			<defs>
				<path id="SVGID_14_" d="M108.5,239.3c5.7,0.5,8.4,6,8.4,11c0,4.2-1.8,8.2-4.9,10.9c-3.4,2.6-7.6,3.9-11.9,3.5
					c-3-0.3-7.9-2.3-8.7-4.1c1.1-2.1,2-4.4,2.7-6.7c0.9-3.3,1.5-6.7,1.9-10c0.1-0.4,0.1-0.7,0.2-1.1h0.6
					C101,242.6,105,241.4,108.5,239.3 M71.5,227.6c-1.1,4.2-0.6,10,2.9,13.6c1.5,1.6,3.7,2.6,5.9,2.6h0.1c2.3,0,4.5-1,6.1-2.6
					c2-2.1,3.2-5.1,3.6-9.3c0.1-1.4-1-2.7-2.4-2.8c-1.4-0.1-2.7,0.9-2.8,2.4c-0.3,2.9-0.9,4.9-2.1,6.1c-0.6,0.6-1.5,1-2.4,1l0,0
					c-0.8,0-1.6-0.4-2.2-1c-2-2.1-2.3-5.9-1.6-8.7c2.8-11.1,16.1-18,26.8-17.4c3.2,0.1,6.3,1.5,8.5,3.9c1.8,2.1,2.6,4.8,2.3,7.5
					c-0.3,3.8-2.9,7.8-6.7,10.7c-3,2.3-6.6,3.7-10.4,3.9c0.4-2,1-4.1,1.8-6c1.4-3.3,4-7.7,8.7-9.8c1.3-0.6,2-2.1,1.4-3.4
					c-0.6-1.3-2.1-2-3.4-1.4l0,0c-6.4,2.7-9.8,8.4-11.5,12.6c-1.8,4.5-2.5,9.1-3.1,13.6c-0.4,3.2-1,6.3-1.8,9.4
					c-0.6,2.2-1.4,4.3-2.6,6.3l0,0c-0.2,0.3-0.3,0.5-0.5,0.8c-0.9,1.4-2.2,2.4-3.8,3c-1.4,0.5-2.9,0.2-4-0.9c-1-1.1-1.3-2.8-1.6-4.6
					c-0.1-0.4-0.2-0.8-0.3-1.2c-0.3-1.4-1.7-2.3-3.1-2s-2.3,1.7-2,3.1l0,0c0.1,0.4,0.2,0.7,0.2,1.1c0.5,2.3,1,5,2.9,7.1
					c1.7,1.8,4.1,2.9,6.5,2.8c1,0,2-0.2,2.9-0.4c1.7-0.5,3.2-1.4,4.4-2.6c3,3.1,8.4,4.6,11.4,5c0.7,0.1,1.3,0.1,2,0.1
					c5,0,9.8-1.7,13.8-4.8c4.4-3.7,6.9-9.2,6.9-15c0-6.1-3-12.4-8.6-15c3.2-3.2,5.3-7.3,5.9-11.8c0.4-4.1-0.9-8.3-3.6-11.4
					c-3.1-3.5-7.5-5.5-12.2-5.7c-0.5,0-1,0-1.5,0C89.8,206.3,75,214.2,71.5,227.6"/>
			</defs>
			<clipPath id="SVGID_15_">
				<use xlink:href="#SVGID_14_"  style="overflow:visible;"/>
			</clipPath>
			<g class="st9">
				
					<radialGradient id="SVGID_16_" cx="-687.95" cy="-2527.54" r="1" gradientTransform="matrix(28.9 0 0 28.9 19977.6797 73275.9531)" gradientUnits="userSpaceOnUse">
					<stop  offset="0" style="stop-color:#FF2639"/>
					<stop  offset="0.29" style="stop-color:#EA1D2C"/>
					<stop  offset="0.9" style="stop-color:#B4040A"/>
					<stop  offset="1" style="stop-color:#AB0004"/>
				</radialGradient>
				<rect x="70.5" y="206.3" class="st10" width="51.7" height="63.8"/>
			</g>
		</g>
		<g>
			<defs>
				<path id="SVGID_17_" d="M173.5,264c-2.9-0.1-5.4-1.9-6.4-4.6c4.2-5.2,7.7-11,10.5-17.1c0.2-0.4,0.4-0.8,0.7-1.3
					c0.3,1.9,0.6,3.7,1.1,5.5c0.3,1.2,0.7,2.4,1.1,3.5c1,3.1,2,5.8,1.1,8.5c-1.1,3.3-4.1,5.4-7.6,5.4H173.5 M294.8,263
					c-2.3-1.3-3.9-3.6-4.3-6.3c4.4-5.1,8.3-10.6,11.8-16.3c1,3.1,2.3,6,3.8,8.9c1.3,2.7,1.5,5.7,0.5,8.5c-0.7,2.3-2.3,4.2-4.5,5.3
					c-1.2,0.6-2.4,0.9-3.7,0.9C297.2,263.9,295.9,263.6,294.8,263 M265.6,248.4c0.7-2.5,1.8-4.9,3.3-7c1.8-2.6,5.2-5.8,8.6-5.8
					c2.4,0,4.9,1.4,4.9,3.8c0.1,2.4-1,4.6-2.9,6.1c-2.8,2.2-7.1,3.2-11,3.2C267.6,248.6,266.6,248.6,265.6,248.4 M229.8,234.9
					c-0.9,0.9-1.7,1.8-2.4,2.8c0.3-1.3,0.6-2.7,0.9-4.1c0.3-1.2,0.4-1.6,0.4-1.9c0.2-1.4-0.7-2.8-2.2-3c-1.4-0.2-2.8,0.7-3,2.2
					c0,0.2-0.2,0.9-0.3,1.6c-1.6,6.9-2.7,12.7-3.5,17.5c-1.4,4-4.1,9.2-8.7,12.1c-1.4,1.1-3.2,1.5-5,1.3c-1-0.2-1.8-0.9-2.3-1.8
					c-1.4-2.3-1.9-5.7-1.5-9.3c0.1-0.8,0.2-1.6,0.4-2.5c0-0.1,0-0.1,0-0.2c1.2-5.5,3.4-10.7,6.4-15.5c0.7-1.2,0.3-2.9-0.9-3.6
					c-1.2-0.7-2.9-0.3-3.6,0.9l0,0c-3.3,5.3-5.7,11-7,17.1c-1.9,5.5-6,10.1-11.3,12.6c0.1-0.3,0.2-0.5,0.3-0.8
					c1.4-4.3,0.1-8.3-1.1-11.8c-0.4-1.1-0.7-2.1-1-3.2c-1.1-4.3-1.6-8.7-1.5-13.1c0.1-1.4-1-2.7-2.5-2.7c0,0,0,0,0,0
					c-0.5,0-1.1,0.1-1.5,0.4c-0.7,0.3-1.2,0.8-1.5,1.5c-0.5,1.2-1.6,3.3-2.6,5.1c-0.8,1.4-1.5,2.8-2,3.8
					c-2.6,5.5-5.9,11.5-10.3,16.6c-0.2,0.2-0.4,0.4-0.6,0.7c-1.1,1.2-2.3,2.4-3.5,3.4c-1.8,1.5-5.2,3.7-7.7,1.2
					c-1.3-1.3-2.1-3-2.4-4.8c-0.3-3.5,0.1-7,1.2-10.3c1-2.3,1.9-4.7,2.8-7c0.8-1.7,1.7-3.4,2.7-5.2c0.7-1.3,0.3-2.9-1-3.6l-0.2-0.1
					c-0.3-0.2-0.6-0.4-0.9-0.5c-1.4-0.5-2.9,0.2-3.4,1.6l-0.4,1l-0.6,1.6c-0.3,1-0.7,2-1.1,3c-1.2,2.4-2.2,5-3,7.6
					c-0.8,1.8-1.6,3.5-2.5,5.1c-1.9,3.5-5.8,10.7-11,12.3c-0.4,0.2-0.8,0.2-1.2,0.1c-0.4-0.2-0.7-0.4-0.9-0.8
					c-1.2-1.7-1.6-4.1-1.3-7.4c0.7-6.1,3.3-12.9,8.1-20.8c0.8-1.2,0.5-2.8-0.7-3.6s-2.8-0.5-3.6,0.7c0,0.1-0.1,0.1-0.1,0.2
					c-5.2,8.5-8,16-8.8,22.9c-0.5,4.6,0.2,8.3,2.2,11c0.9,1.3,2.3,2.3,3.8,2.7c0.5,0.1,1.1,0.2,1.6,0.2c0.8,0,1.7-0.1,2.5-0.4
					c4.6-1.4,8.1-5.3,10.6-9c0.5,2.6,1.9,5.1,3.8,7c1.7,1.7,3.9,2.7,6.3,2.7c3.2-0.2,6.2-1.4,8.5-3.6c0.5-0.4,1-0.8,1.4-1.3
					c2.2,3.4,5.9,5.6,9.9,5.8h0.8c1.5,0,3.1-0.3,4.5-0.8c3.2-0.3,6.4-1.1,9.3-2.4c3.6-1.6,6.8-4,9.4-7c0.4,1.8,1,3.5,1.9,5.1
					c1.2,2.1,3.2,3.7,5.6,4.2c0.7,0.2,1.4,0.2,2.1,0.2c2.5-0.1,4.9-0.8,7-2.2c1.9-1.2,3.5-2.7,4.9-4.4c0,2,0.5,3.9,1.4,5.7
					c0.8,1.2,2.4,1.5,3.6,0.7c1.1-0.8,1.5-2.3,0.8-3.4c-0.4-0.9-0.6-1.9-0.7-2.8c0.1-0.2,0.2-0.5,0.2-0.7c0.8-6.9,3-16.5,9.3-22.9
					c2.7-2.8,7.3-5.5,11.8-4.6c0.8,0.1,1,0.5,1.1,0.6c0.9,1.5,0,5.3-0.5,7.4c-0.1,0.3-0.2,0.6-0.2,0.9c-0.2,0.9-0.4,1.8-0.7,2.6
					c-1.2,4.6-2.4,9.4-1.8,14.5c0.3,2.5,1.7,6.1,4.7,7.8c1,0.6,2.2,1,3.5,1c0.9,0,1.8-0.2,2.6-0.5c2.9-1.1,5.2-3.7,6.9-6.4
					c0.4,0.8,0.9,1.5,1.4,2.2c2.5,3,6.1,4.7,10,4.7c1.5,0,3-0.3,4.3-0.8c3.1-1.2,6.4-3.7,9.6-6.8c1.2,2.8,3.3,5.1,5.9,6.5
					c1.9,1,4,1.6,6.2,1.6c2.1,0,4.1-0.5,6-1.4c1.5-0.7,2.8-1.6,3.9-2.8c2.5-1.5,16.2-10,24.3-24.3c0.6,1.6,1.3,3.2,2,4.7
					c0.8,1.6,1.5,3.2,2,4.7c0.3,0.8,0.6,1.6,0.9,2.3c1.8,4.4,2.7,7.3,0.1,10.3c-1.4,1.5-3.4,2.3-5.5,2.2c-1.8,0-3.6-0.8-4.7-2.3
					c-1.3-2-1.2-4.5,0.2-6.4c0.9-1.2,0.6-2.8-0.6-3.7c-1.2-0.9-2.8-0.6-3.7,0.6c-2.8,3.7-2.9,8.9-0.2,12.7c2.1,2.7,5.3,4.3,8.8,4.4
					h0.4c3.5,0.1,6.9-1.4,9.3-4.1c4.8-5.6,2.5-11.5,0.7-15.7c-0.3-0.8-0.6-1.5-0.8-2.1c-0.6-1.7-1.4-3.4-2.2-5.1
					c-1.6-3.6-3.3-7.3-3.2-10.7c0-0.2,0-0.4,0-0.5l0,0l0,0c-0.1-0.3-0.2-0.6-0.3-0.9l0,0c0,0,0,0,0-0.1l0,0l0,0c0,0,0,0,0-0.1l0,0
					c-0.2-0.3-0.5-0.5-0.8-0.7H335l0,0c-0.2-0.1-0.3-0.2-0.5-0.2l0,0h-0.1l0,0h-0.1h-0.1h-0.1l0,0c-0.1,0-0.3,0-0.4,0h-0.1
					c-1.1,0.1-2,0.8-2.3,1.8c-4,11.1-12.6,19.4-18.7,24.3c0.3-3-0.3-6.1-1.6-8.8c-2.3-4.5-4.7-9.6-4.5-14.4c0-0.1,0-0.3,0-0.4v-0.1
					c0,0,0,0,0-0.1c0,0,0,0,0-0.1l0,0c0,0,0-0.1,0-0.1l0,0v-0.1l0,0v-0.1l0,0v-0.1l0,0v-0.1l0,0v-0.1l0,0v-0.1l0,0v-0.1v-0.1l0,0
					c0,0,0-0.1,0-0.1l0,0l-0.1-0.1l0,0c-0.1-0.1-0.2-0.2-0.3-0.4l0,0l-0.1-0.1l0,0l-0.1-0.1l0,0h0l-0.1-0.1l0,0
					c-0.2-0.1-0.4-0.2-0.6-0.3c-0.3-0.1-0.5-0.1-0.8-0.1h-0.2c-0.5,0.1-1,0.3-1.4,0.6l0,0l-0.1,0.1l0,0l-0.1,0.1l0,0l-0.1,0.1l0,0
					l-0.1,0.1l0,0c-0.1,0.2-0.3,0.4-0.3,0.6c-2.7,6.3-16.8,27.9-26.5,31.7c-3,1-6.3,0.1-8.4-2.3c-1.1-1.5-1.7-3.4-1.7-5.3
					c0-0.6,0-1.1,0-1.7c5.8,0.8,13.3-0.2,18.1-4.1c3.2-2.4,5-6.3,4.8-10.3c-0.1-5.1-4.5-9-10.1-9h-0.2c-5.5,0.1-10.2,4.2-12.9,8.1
					c-2.8,4.2-4.5,9-5,14c-1.5,4.2-4.3,9.5-7.5,10.8c-0.5,0.2-1,0.2-1.5-0.1c-1.2-1-2-2.4-2.2-4c-0.5-4.1,0.5-8.2,1.6-12.5
					c0.2-0.9,0.5-1.8,0.7-2.7c0.1-0.3,0.1-0.5,0.2-0.9c0.8-3.2,2-8.1-0.2-11.5c-1-1.6-2.7-2.6-4.5-2.9c-0.9-0.2-1.8-0.3-2.7-0.3
					c-4.8,0-9.8,2.3-13.8,6.4"/>
			</defs>
			<clipPath id="SVGID_18_">
				<use xlink:href="#SVGID_17_"  style="overflow:visible;"/>
			</clipPath>
			<g class="st11">
				
					<radialGradient id="SVGID_19_" cx="-674.5801" cy="-2522.73" r="1.0001" gradientTransform="matrix(79.9 0 0 79.9 54133.2695 201825.9375)" gradientUnits="userSpaceOnUse">
					<stop  offset="0" style="stop-color:#FF2639"/>
					<stop  offset="0.29" style="stop-color:#EA1D2C"/>
					<stop  offset="0.9" style="stop-color:#B4040A"/>
					<stop  offset="1" style="stop-color:#AB0004"/>
				</radialGradient>
				<rect x="122.1" y="228.4" class="st12" width="224.4" height="41.7"/>
			</g>
		</g>
		<g>
			<defs>
				<path id="SVGID_20_" d="M211,226.5c3.2,0,3.2-5,0-5S207.8,226.5,211,226.5"/>
			</defs>
			<clipPath id="SVGID_21_">
				<use xlink:href="#SVGID_20_"  style="overflow:visible;"/>
			</clipPath>
			<g class="st13">
				
					<radialGradient id="SVGID_22_" cx="-914.66" cy="-2609.1599" r="1" gradientTransform="matrix(2.44 0 0 2.44 2445.3201 6606.04)" gradientUnits="userSpaceOnUse">
					<stop  offset="0" style="stop-color:#FF2639"/>
					<stop  offset="0.29" style="stop-color:#EA1D2C"/>
					<stop  offset="0.9" style="stop-color:#B4040A"/>
					<stop  offset="1" style="stop-color:#AB0004"/>
				</radialGradient>
				<rect x="207.8" y="221.6" class="st14" width="6.4" height="5"/>
			</g>
		</g>
		<g>
			<defs>
				<path id="SVGID_23_" d="M160.9,188.7c-1.1,0-2.1,0.2-3.2,0.5c-0.9,0.2-1.7,0.7-2.5,1.3c-0.7,0.7-1.2,1.5-1.5,2.4
					c-0.3,0.9-0.4,1.9-0.3,2.9c0.1,1,0.4,1.9,0.9,2.7c0.5,0.8,1.3,1.5,2.2,1.9c0.5,0.2,1,0.4,1.5,0.5c0.5,0.1,1,0.2,1.6,0.3l1.6,0.1
					c0.5,0,1,0.1,1.5,0.2c0.4,0.1,0.8,0.2,1.2,0.4c0.4,0.1,0.7,0.3,1,0.6c0.3,0.2,0.5,0.5,0.6,0.8c0.2,0.4,0.2,0.8,0.2,1.3
					c0,0.6-0.2,1.2-0.5,1.6c-0.4,0.5-0.9,0.9-1.4,1.1c-0.6,0.3-1.3,0.4-2,0.5c-0.7,0-1.4-0.1-2.1-0.3c-0.5-0.2-1-0.5-1.4-0.9
					c-0.4-0.3-0.7-0.8-1-1.2c-0.1-0.3-0.3-0.5-0.5-0.7c-0.2-0.2-0.4-0.3-0.7-0.4c-0.3-0.1-0.5-0.1-0.8-0.1c-0.2,0-0.5,0-0.7,0.1
					c-0.3,0.1-0.6,0.2-0.8,0.5c-0.2,0.2-0.3,0.5-0.4,0.8c-0.1,0.3-0.1,0.6-0.1,0.9c0,0.3,0.1,0.6,0.2,0.8c0.3,0.7,0.8,1.3,1.3,1.9
					c0.5,0.6,1.1,1,1.8,1.4c1.2,0.6,2.4,1,3.7,1.1c1.4,0.1,2.7,0,4.1-0.4c1.3-0.3,2.5-0.9,3.5-1.7c1-0.8,1.7-1.8,2-3
					c0.1-0.3,0.2-0.7,0.2-1c0.1-0.8,0.1-1.5,0-2.3c0-0.3-0.1-0.7-0.2-1c-0.3-0.9-0.8-1.6-1.4-2.2c-0.7-0.6-1.5-1.1-2.4-1.5
					c-0.9-0.4-1.9-0.6-2.8-0.6c-1-0.1-1.9-0.2-2.9-0.3c-0.3,0-0.7-0.1-1-0.2c-0.3-0.1-0.6-0.2-0.9-0.4c-0.3-0.1-0.5-0.3-0.7-0.6
					c-0.2-0.2-0.3-0.5-0.3-0.9c-0.1-0.4,0-0.9,0.2-1.3c0.2-0.4,0.4-0.7,0.7-1c0.3-0.3,0.6-0.5,1-0.6c0.4-0.2,0.9-0.3,1.3-0.3
					c0.8-0.1,1.6-0.1,2.4,0.1c0.8,0.1,1.5,0.4,2.1,0.9l0.7,0.6c0.3,0.2,0.5,0.4,0.8,0.6c0.3,0.2,0.6,0.3,0.9,0.3
					c0.4,0,0.7-0.1,1-0.3c0.4-0.2,0.6-0.5,0.7-0.9c0-0.4,0-0.8-0.2-1.1c-0.2-0.4-0.4-0.8-0.6-1.1c-0.2-0.3-0.5-0.6-0.8-0.8
					c-0.4-0.3-0.9-0.6-1.4-0.8c-0.5-0.2-1.1-0.4-1.7-0.6c-0.6-0.2-1.3-0.3-1.9-0.3c-0.5,0-1-0.1-1.5-0.1L160.9,188.7"/>
			</defs>
			<clipPath id="SVGID_24_">
				<use xlink:href="#SVGID_23_"  style="overflow:visible;"/>
			</clipPath>
			<g class="st15">
				
					<radialGradient id="SVGID_25_" cx="-727.21" cy="-2541.6799" r="1" gradientTransform="matrix(10.06 0 0 10.06 7476.4302 25758.9004)" gradientUnits="userSpaceOnUse">
					<stop  offset="0" style="stop-color:#FF2639"/>
					<stop  offset="0.29" style="stop-color:#EA1D2C"/>
					<stop  offset="0.9" style="stop-color:#B4040A"/>
					<stop  offset="1" style="stop-color:#AB0004"/>
				</radialGradient>
				<rect x="153.4" y="188.7" class="st16" width="16.9" height="23"/>
			</g>
		</g>
		<g>
			<defs>
				<path id="SVGID_26_" d="M196.4,189c-0.3,0.3-0.7,0.6-0.9,0.9c-0.3,0.3-0.6,0.7-0.8,1.1c-0.2,0.4-0.4,0.7-0.6,0.9
					c-0.4,0.6-0.7,1.1-1,1.5s-0.5,0.9-0.8,1.2l-0.7,1.1c-0.2,0.3-0.4,0.7-0.6,1l-0.2,0.3c-0.1,0.1-0.2,0.3-0.3,0.4l-0.3,0.4
					c-0.1,0.1-0.1,0.2-0.2,0.3c-0.4-0.6-0.9-1.3-1.2-1.9c-0.4-0.8-0.9-1.6-1.5-2.5l-0.5-0.7l-0.5-0.9l-0.6-0.9
					c-0.2-0.2-0.3-0.5-0.5-0.7c-0.3-0.3-0.6-0.7-0.9-1.1c-0.3-0.4-0.7-0.7-1.1-0.8c-0.1,0-0.3,0-0.4,0h-0.4c-0.4,0-0.7,0.1-1,0.3
					c-0.3,0.2-0.5,0.5-0.7,0.8c-0.1,0.2-0.2,0.4-0.2,0.6c-0.1,0.2-0.1,0.4-0.1,0.7c-0.1,1.8-0.2,3.6-0.2,5.5v4.3v4.9v2.5
					c0,0.3,0,0.6,0,0.9s0,0.6,0,0.9c0,0.3,0.1,0.6,0.3,0.9c0.1,0.3,0.3,0.6,0.6,0.7c0.4,0.2,0.8,0.3,1.3,0.3c0.4,0,0.7-0.1,1-0.3
					c0.3-0.2,0.5-0.4,0.7-0.8c0.2-0.3,0.3-0.7,0.3-1c0-0.3,0.1-0.7,0.1-1c0-0.7,0-1.5,0-2.5s0-2.1,0-3.3s0-2.3,0-3.3s0-1.9,0-2.5
					s0-1,0-1c0.6,1.1,1.3,2.2,2,3.3c0.6,0.9,1.2,1.7,1.7,2.3c0.1,0.1,0.2,0.3,0.3,0.4c0.1,0.1,0.3,0.3,0.5,0.4
					c0.1,0.1,0.3,0.2,0.5,0.3c0.2,0.1,0.3,0.1,0.5,0.1c0.3,0,0.6-0.1,0.9-0.3c0.4-0.3,0.7-0.6,1-0.9c0.5-0.6,0.9-1.3,1.4-2
					c0.5-0.9,1.2-2,2.1-3.4c0,0.7,0.1,1.1,0,1.3s0,0.3,0,0.3c0,0.4,0,0.7,0,0.9s0,0.4,0,0.5v1.3v4.9v3.4c0,0.3,0,0.6,0.1,0.9
					c0.1,0.3,0.2,0.6,0.3,0.9c0.2,0.3,0.4,0.5,0.7,0.7c0.2,0.1,0.5,0.2,0.8,0.2c0.3,0,0.6,0,0.9-0.1c0.3,0,0.6-0.1,0.8-0.4
					c0.2-0.2,0.3-0.3,0.4-0.6c0.1-0.2,0.2-0.5,0.2-0.8c0-0.3,0.1-0.5,0.1-0.8c0-0.3,0-0.7,0-1c0-0.4,0-0.7,0-1c0-1.5,0-3,0-4.5
					s0-3,0-4.5c0-1.2,0-2.4,0-3.5s0-2.4,0-3.6c0-0.1,0-0.3,0-0.4s0-0.3,0-0.4c0-0.2-0.1-0.5-0.2-0.7c-0.1-0.2-0.2-0.4-0.4-0.5
					c-0.2-0.2-0.5-0.3-0.7-0.4c-0.1,0-0.3,0-0.4,0h-0.5c-0.4,0-0.7,0.1-1,0.4"/>
			</defs>
			<clipPath id="SVGID_27_">
				<use xlink:href="#SVGID_26_"  style="overflow:visible;"/>
			</clipPath>
			<g class="st17">
				
					<radialGradient id="SVGID_28_" cx="-723.56" cy="-2540.3601" r="1" gradientTransform="matrix(10.71 0 0 10.71 7937.7998 27393.7813)" gradientUnits="userSpaceOnUse">
					<stop  offset="0" style="stop-color:#FF2639"/>
					<stop  offset="0.29" style="stop-color:#EA1D2C"/>
					<stop  offset="0.9" style="stop-color:#B4040A"/>
					<stop  offset="1" style="stop-color:#AB0004"/>
				</radialGradient>
				<rect x="180.2" y="188.6" class="st18" width="19.5" height="23.2"/>
			</g>
		</g>
		<g>
			<defs>
				<path id="SVGID_29_" d="M216.3,201.4c0.3-0.6,0.6-1.3,0.8-1.9s0.6-1.3,0.9-2c0.1-0.2,0.2-0.4,0.3-0.6s0.2-0.4,0.2-0.6
					c0.1,0.2,0.2,0.4,0.3,0.6s0.2,0.4,0.3,0.6c0.3,0.7,0.6,1.4,0.9,2s0.6,1.3,0.8,1.9l0.6,1.4h-5.7L216.3,201.4z M217.5,189
					c-0.2,0.1-0.4,0.2-0.5,0.4l-0.3,0.3c-0.1,0.1-0.2,0.2-0.2,0.4c-0.1,0.2-0.2,0.5-0.3,0.7c0,0.1-0.1,0.3-0.2,0.4
					c-0.1,0.1-0.1,0.2-0.2,0.4l-0.2,0.5l-6.6,16.3l-0.1,0.3c-0.1,0.2-0.1,0.4-0.2,0.6c0,0.1,0,0.3,0,0.4s0,0.3,0,0.4
					c0,0.3,0.1,0.5,0.2,0.7c0.1,0.1,0.2,0.2,0.3,0.3c0.1,0.1,0.2,0.2,0.4,0.2c0.5,0.3,1.1,0.4,1.7,0.3c0.3-0.1,0.6-0.2,0.8-0.4
					l0.1-0.1c0,0,0,0,0.1-0.1c0,0,0.1,0,0.1-0.1c0,0,0.1-0.1,0.1-0.1c0.1-0.1,0.2-0.2,0.3-0.3c0.1-0.1,0.1-0.2,0.2-0.3l0.2-0.3
					l0.2-0.3c0-0.1,0.1-0.2,0.1-0.2c0-0.1,0.1-0.1,0.1-0.2c0-0.1,0.1-0.2,0.1-0.3c0-0.1,0-0.2,0.1-0.3l0.7-1.6c1.5,0,2.9,0,4.4,0
					h4.4l0.7,1.6c0,0.2,0.1,0.3,0.2,0.5c0,0.1,0,0.2,0.1,0.2c0,0.1,0.1,0.2,0.1,0.2s0.1,0.2,0.2,0.3c0.1,0.1,0.1,0.2,0.1,0.3
					l0.2,0.3c0.1,0.1,0.2,0.2,0.3,0.3c0,0,0.1,0,0.1,0.1l0.1,0.1c0,0,0,0.1,0.1,0.1c0,0,0.1,0,0.1,0.1c0.2,0.2,0.5,0.3,0.8,0.4
					c0.6,0.1,1.2,0,1.7-0.3c0.1-0.1,0.3-0.1,0.4-0.2c0.1-0.1,0.2-0.2,0.3-0.3c0.1-0.2,0.2-0.5,0.2-0.7c0-0.1,0-0.3,0-0.4
					s0-0.2,0-0.4s-0.1-0.4-0.2-0.6l-0.1-0.3l-6.7-16.4l-0.2-0.5c0-0.1-0.1-0.2-0.2-0.4c-0.1-0.1-0.1-0.3-0.2-0.4
					c-0.1-0.3-0.2-0.5-0.3-0.7c-0.2-0.3-0.3-0.5-0.5-0.7c-0.1-0.2-0.3-0.3-0.5-0.4c-0.3-0.1-0.7-0.2-1-0.2
					C218.3,188.8,217.9,188.8,217.5,189"/>
			</defs>
			<clipPath id="SVGID_30_">
				<use xlink:href="#SVGID_29_"  style="overflow:visible;"/>
			</clipPath>
			<g class="st19">
				
					<radialGradient id="SVGID_31_" cx="-723.65" cy="-2540.3999" r="1" gradientTransform="matrix(10.69 0 0 10.69 7953.6802 27350.0586)" gradientUnits="userSpaceOnUse">
					<stop  offset="0" style="stop-color:#FF2639"/>
					<stop  offset="0.29" style="stop-color:#EA1D2C"/>
					<stop  offset="0.9" style="stop-color:#B4040A"/>
					<stop  offset="1" style="stop-color:#AB0004"/>
				</radialGradient>
				<rect x="208.7" y="188.8" class="st20" width="19.8" height="22.9"/>
			</g>
		</g>
		<g>
			<defs>
				<path id="SVGID_32_" d="M238.7,189.2c-0.3,0.2-0.5,0.4-0.7,0.8c-0.2,0.4-0.3,0.8-0.3,1.3c0,0.2,0,0.4,0,0.6s0,0.4,0,0.6v0.2
					c0,0.7,0,1.4,0,2s0,1.3,0,2v4.3l-0.1,4.6c0,0.7,0,1.4,0,2.1c0,0.7,0,1.4,0.1,2.1c0,0.1,0,0.2,0,0.3c0,0.1,0.1,0.2,0.1,0.3
					c0.1,0.4,0.5,0.8,0.9,1c0.4,0.2,0.9,0.3,1.4,0.4c0.5,0,1,0,1.6,0c0.5,0,1,0,1.4,0c1.8,0,3.4,0,5.1,0h0.1c0.3,0,0.5-0.1,0.8-0.1
					c0.3,0,0.5,0,0.7,0c0.5,0,1-0.1,1.4-0.3c0.3-0.1,0.6-0.3,0.8-0.6c0.1-0.1,0.2-0.3,0.3-0.4c0.1-0.2,0.1-0.3,0.1-0.5v-0.5
					c0-0.2,0-0.3-0.1-0.5c-0.1-0.2-0.2-0.5-0.5-0.6c-0.2-0.2-0.4-0.3-0.6-0.3l-0.4-0.1l-0.5-0.1H250h-2l-6.3-0.1l0.1-15.1v-0.9
					c0-0.1,0-0.3,0.1-0.4c0-0.1,0-0.3,0-0.4c0-0.1,0-0.3-0.1-0.4c0-0.2-0.1-0.5-0.2-0.7c-0.1-0.2-0.2-0.4-0.4-0.5
					c-0.1-0.1-0.2-0.2-0.4-0.3c-0.1-0.1-0.2-0.1-0.4-0.1h-0.4h-0.4c-0.4,0-0.7,0.1-1,0.3"/>
			</defs>
			<clipPath id="SVGID_33_">
				<use xlink:href="#SVGID_32_"  style="overflow:visible;"/>
			</clipPath>
			<g class="st21">
				
					<radialGradient id="SVGID_34_" cx="-729.67" cy="-2542.5601" r="1" gradientTransform="matrix(9.66 0 0 9.66 7294.1499 24768.0801)" gradientUnits="userSpaceOnUse">
					<stop  offset="0" style="stop-color:#FF2639"/>
					<stop  offset="0.29" style="stop-color:#EA1D2C"/>
					<stop  offset="0.9" style="stop-color:#B4040A"/>
					<stop  offset="1" style="stop-color:#AB0004"/>
				</radialGradient>
				<rect x="237.4" y="188.9" class="st22" width="14.9" height="23"/>
			</g>
		</g>
		<g>
			<defs>
				<path id="SVGID_35_" d="M262.5,189.2c-0.3,0.2-0.5,0.4-0.7,0.8c-0.2,0.4-0.3,0.8-0.3,1.3c0,0.2,0,0.4,0,0.6s0,0.4,0,0.6v0.2
					c0,0.7,0,1.4,0,2s0,1.3,0,2v4.3l-0.1,4.6c0,0.7,0,1.4,0,2.1c0,0.7,0,1.4,0.1,2.1c0,0.1,0,0.2,0,0.3c0,0.1,0.1,0.2,0.1,0.3
					c0.1,0.4,0.5,0.8,0.9,1c0.4,0.2,0.9,0.3,1.4,0.4c0.5,0,1,0,1.6,0c0.5,0,1,0,1.4,0c1.8,0,3.5,0,5.1,0h0.1c0.3,0,0.5-0.1,0.8-0.1
					c0.3,0,0.5,0,0.7,0c0.5,0,1-0.1,1.4-0.3c0.3-0.1,0.6-0.3,0.8-0.6c0.1-0.1,0.2-0.3,0.3-0.4c0.1-0.2,0.1-0.3,0.1-0.5v-0.5
					c0-0.2,0-0.4-0.1-0.6c-0.1-0.3-0.2-0.5-0.5-0.6c-0.2-0.2-0.4-0.3-0.6-0.3l-0.4-0.1l-0.5-0.1h-0.4h-1.9l-6.3-0.1l0.1-15.1v-0.9
					c0-0.1,0-0.3,0.1-0.4c0-0.1,0-0.3,0-0.4l-0.1-0.4c0-0.2-0.1-0.5-0.2-0.7c-0.1-0.2-0.2-0.4-0.3-0.5c-0.1-0.1-0.2-0.2-0.4-0.3
					c-0.1-0.1-0.2-0.1-0.4-0.1h-0.4h-0.4C263.1,189,262.8,189.1,262.5,189.2"/>
			</defs>
			<clipPath id="SVGID_36_">
				<use xlink:href="#SVGID_35_"  style="overflow:visible;"/>
			</clipPath>
			<g class="st23">
				
					<radialGradient id="SVGID_37_" cx="-729.67" cy="-2542.5601" r="1" gradientTransform="matrix(9.66 0 0 9.66 7317.9497 24768.0801)" gradientUnits="userSpaceOnUse">
					<stop  offset="0" style="stop-color:#FF2639"/>
					<stop  offset="0.29" style="stop-color:#EA1D2C"/>
					<stop  offset="0.9" style="stop-color:#B4040A"/>
					<stop  offset="1" style="stop-color:#AB0004"/>
				</radialGradient>
				<rect x="261.2" y="188.9" class="st24" width="14.9" height="23"/>
			</g>
		</g>
		<g>
			<defs>
				<path id="SVGID_38_" d="M115.2,165.8c-0.8,0-1.5,0.2-2.2,0.4c-0.9,0.3-1.7,0.6-2.5,1c-0.9,0.4-1.7,0.9-2.6,1.5
					c-0.8,0.6-1.7,1.2-2.4,1.8c-1.3,1.1-2.5,2.3-3.5,3.6c-0.9,1.1-1.5,2.4-1.9,3.8c-0.3,1.3-0.3,2.6,0.1,3.9
					c0.6,2.3,2.5,4.1,4.9,4.5c1.3,0.2,2.7,0.1,3.9-0.5c0.7-0.3,1.4-0.6,2-1c0.6-0.4,1.3-0.8,1.9-1.2s1.3-0.9,1.9-1.3
					c0.6-0.4,1.2-0.8,1.9-1.2c0.5-0.3,1.1-0.5,1.7-0.7c0.5-0.2,1-0.3,1.5-0.3c0.4,0,0.9,0.1,1.3,0.3c1.1,0.7,1.7,1.9,1.6,3.2
					c-0.1,0.8-0.4,1.6-0.8,2.3c-0.5,0.8-1.1,1.5-1.8,2.1c-0.7,0.7-1.6,1.2-2.5,1.6c-0.7,0.2-1.4,0.3-2.1,0.4c-0.7,0.1-1.4,0-2-0.3
					c-0.3-0.1-0.7-0.2-1-0.1c-0.3,0.1-0.7,0.2-1,0.3c-0.3,0.2-0.6,0.4-0.9,0.6c-0.3,0.2-0.5,0.5-0.7,0.8c-0.3,0.3-0.4,0.8-0.5,1.2
					c0,0.4,0,0.8,0.1,1.1c0.1,0.3,0.3,0.7,0.6,0.9c0.2,0.2,0.5,0.4,0.9,0.5c0.9,0.3,1.8,0.5,2.7,0.5c1,0.1,1.9,0,2.9-0.3
					c1.7-0.5,3.2-1.2,4.6-2.3c1.5-1.1,2.8-2.3,4-3.8c1.1-1.4,2-2.9,2.6-4.5c0.6-1.5,0.7-3.1,0.3-4.6c-0.1-0.4-0.2-0.8-0.4-1.2
					c-0.4-0.8-0.8-1.6-1.4-2.3c-0.3-0.3-0.6-0.6-0.9-0.9c-0.9-0.7-2-1.1-3.1-1.1c-1.3-0.1-2.6,0.1-3.8,0.5c-1.3,0.4-2.6,1.1-3.7,1.9
					c-1.2,0.8-2.3,1.6-3.5,2.4c-0.4,0.3-0.8,0.5-1.2,0.7c-0.4,0.2-0.8,0.4-1.3,0.5c-0.4,0.1-0.8,0.2-1.2,0.1c-0.4-0.1-0.7-0.2-1-0.5
					c-0.4-0.4-0.6-0.9-0.7-1.4c-0.1-0.5-0.1-1.1,0.1-1.6c0.2-0.6,0.4-1.1,0.8-1.6c0.4-0.6,0.8-1.1,1.3-1.6c0.9-0.9,1.9-1.6,3-2.2
					c1-0.6,2.1-1,3.2-1.1l1.2-0.1c0.4,0,0.9-0.1,1.3-0.1c0.4-0.1,0.9-0.3,1.3-0.5c0.4-0.3,0.8-0.7,1-1.1c0.3-0.4,0.4-1,0.3-1.5
					c-0.2-0.4-0.5-0.8-0.9-1c-0.5-0.3-1-0.5-1.5-0.6c-0.4-0.1-0.8-0.1-1.3-0.1L115.2,165.8"/>
			</defs>
			<clipPath id="SVGID_39_">
				<use xlink:href="#SVGID_38_"  style="overflow:visible;"/>
			</clipPath>
			<g class="st25">
				
					<radialGradient id="SVGID_40_" cx="-708.5" cy="-2534.9399" r="1" gradientTransform="matrix(14.59 0 0 14.59 10451.2402 37167.1484)" gradientUnits="userSpaceOnUse">
					<stop  offset="0" style="stop-color:#FF2639"/>
					<stop  offset="0.29" style="stop-color:#EA1D2C"/>
					<stop  offset="0.9" style="stop-color:#B4040A"/>
					<stop  offset="1" style="stop-color:#AB0004"/>
				</radialGradient>
				<rect x="99.8" y="165.8" class="st26" width="28.7" height="30"/>
			</g>
		</g>
		<g>
			<defs>
				<path id="SVGID_41_" d="M149.6,144.3c-0.6,0.2-1.2,0.6-1.7,1.1c-0.3,0.4-0.6,0.8-0.7,1.3c-0.1,0.5-0.1,0.9,0,1.4
					c0.3,0.9,0.9,2.1,1.3,3.3s0.9,2.5,1.4,3.8s0.9,2.6,1.3,3.8s0.8,2.4,1,3.3c0.1,0.3,0.1,0.7,0.1,1c0.1,1.2-0.3,2.4-1,3.4
					c-0.5,0.6-1,1.2-1.7,1.6c-0.7,0.4-1.4,0.7-2.2,0.8c-0.8,0.1-1.7,0-2.4-0.4c-1-0.5-1.8-1.3-2.4-2.3c-0.7-1.2-1.4-2.4-2-3.7
					c-0.2-0.4-0.4-1-0.8-1.8s-0.7-1.6-1.1-2.6s-0.9-1.9-1.3-2.9s-0.9-1.9-1.3-2.6c-0.1-0.2-0.3-0.4-0.4-0.6
					c-0.2-0.2-0.4-0.3-0.6-0.4c-0.5-0.2-1-0.2-1.4-0.1c-0.5,0.1-1.1,0.3-1.6,0.5c-0.5,0.3-0.9,0.6-1.3,1c-0.4,0.3-0.6,0.8-0.7,1.3
					c-0.1,0.4-0.1,0.8,0,1.2c0.1,0.4,0.2,0.8,0.3,1.2c0.2,0.4,0.3,0.8,0.5,1.1s0.4,0.7,0.5,1c0.2,0.5,0.5,1,0.8,1.7s0.7,1.4,1.1,2
					s0.7,1.4,1.1,2s0.6,1.2,0.9,1.6c0.5,0.9,1,1.8,1.5,2.7c0.5,0.8,1.1,1.6,1.8,2.3c0.7,0.7,1.4,1.3,2.3,1.8
					c0.9,0.5,1.8,0.9,2.8,1.2c1.4,0.3,2.8,0.4,4.2,0.3c1.4-0.2,2.7-0.6,4-1.3c0.7-0.4,1.5-0.8,2.1-1.4c0.7-0.5,1.3-1.1,1.8-1.8
					c0.6-0.6,1-1.3,1.4-2.1c0.4-0.8,0.6-1.6,0.8-2.4c0.1-0.6,0.2-1.2,0.3-1.8c0-0.6,0.1-1.3,0.1-1.9c-0.1-1.2-0.2-2.5-0.5-3.7
					c-0.3-1.5-0.7-3-1.2-4.6s-1-3.2-1.6-4.7c-0.5-1.4-1-2.7-1.7-4c-0.3-0.4-0.6-0.7-1-0.9c-0.4-0.2-0.8-0.3-1.2-0.4
					c-0.1,0-0.3,0-0.4,0C150.4,144,149.9,144.1,149.6,144.3"/>
			</defs>
			<clipPath id="SVGID_42_">
				<use xlink:href="#SVGID_41_"  style="overflow:visible;"/>
			</clipPath>
			<g class="st27">
				
					<radialGradient id="SVGID_43_" cx="-707.8" cy="-2534.6899" r="1" gradientTransform="matrix(14.84 0 0 14.84 10648.4902 37780.3281)" gradientUnits="userSpaceOnUse">
					<stop  offset="0" style="stop-color:#FF2639"/>
					<stop  offset="0.29" style="stop-color:#EA1D2C"/>
					<stop  offset="0.9" style="stop-color:#B4040A"/>
					<stop  offset="1" style="stop-color:#AB0004"/>
				</radialGradient>
				<rect x="130" y="144" class="st28" width="28.4" height="31"/>
			</g>
		</g>
		<g>
			<defs>
				<path id="SVGID_44_" d="M174.4,147.8c-0.1-0.5-0.2-0.9-0.3-1.4c-0.2-0.8-0.4-1.6-0.5-2.4s-0.3-1.5-0.6-2.3l0.7-0.2
					c0.2,0,0.4-0.1,0.5-0.1s0.4-0.1,0.7-0.2l1-0.2l1-0.2l0.8-0.1c0.7-0.1,1.5-0.1,2.2-0.1c0.7,0,1.4,0.1,2.1,0.3
					c0.6,0.2,1.1,0.5,1.5,0.9c0.4,0.4,0.6,1,0.7,1.5c0.1,0.7-0.2,1.4-0.7,1.9c-0.5,0.6-1.1,1-1.8,1.4c-0.7,0.4-1.5,0.7-2.3,1
					c-0.8,0.3-1.6,0.5-2.3,0.6l-2.7,0.7C174.5,148.8,174.4,148.3,174.4,147.8 M181.9,135.8h-0.8c-0.3,0-0.6,0-0.8,0
					c-0.3,0-0.6,0-0.9,0.1c-0.4,0-0.8,0.1-1.1,0.1l-1.1,0.2l-1.1,0.2c-0.4,0.1-0.8,0.1-1.2,0.2c-1,0.1-2,0.4-2.9,0.6
					c-1.2,0.3-2.2,0.7-3.1,1h-0.1c-0.5,0.1-1,0.3-1.4,0.5c-0.2,0.1-0.4,0.3-0.6,0.5c-0.1,0.1-0.2,0.2-0.2,0.4
					c-0.1,0.1-0.1,0.3-0.1,0.4c0,0.2,0,0.3,0,0.5c0,0.2,0,0.3,0,0.5c0,0.2,0,0.3,0,0.5c0,0.2,0,0.3,0.1,0.5c1.8,7,3.7,13.9,5.6,20.9
					c0.1,0.4,0.2,0.7,0.4,1c0.1,0.2,0.3,0.5,0.5,0.7c0.2,0.3,0.5,0.5,0.8,0.6c0.3,0.1,0.7,0.1,1,0c0.4-0.1,0.8-0.2,1.1-0.3
					c0.4-0.1,0.7-0.3,1-0.5c0.4-0.4,0.6-0.9,0.6-1.4c0-0.5,0-1.1,0-1.6c-0.7-3.2-1.1-4.7-1.8-7.9c0.2-0.1,0.4-0.1,0.6-0.2l0.6-0.1
					l1.4-0.4l1.5-0.4c1.3-0.4,2.5-0.8,3.5-1.2c1.1-0.4,2.2-1,3.2-1.6c1.2-0.6,2.2-1.6,2.9-2.8c0.6-1.1,0.9-2.3,0.8-3.5
					c-0.1-1.3-0.4-2.6-1.1-3.6c-0.7-1.2-1.8-2.2-3-2.8c-0.5-0.2-1-0.4-1.5-0.5c-0.6-0.2-1.1-0.3-1.7-0.3c-0.3-0.1-0.5-0.1-0.8-0.1
					l0,0"/>
			</defs>
			<clipPath id="SVGID_45_">
				<use xlink:href="#SVGID_44_"  style="overflow:visible;"/>
			</clipPath>
			<g class="st29">
				
					<radialGradient id="SVGID_46_" cx="-712.37" cy="-2536.3401" r="1" gradientTransform="matrix(13.34 0 0 13.34 9682.8105 33999.8984)" gradientUnits="userSpaceOnUse">
					<stop  offset="0" style="stop-color:#FF2639"/>
					<stop  offset="0.29" style="stop-color:#EA1D2C"/>
					<stop  offset="0.9" style="stop-color:#B4040A"/>
					<stop  offset="1" style="stop-color:#AB0004"/>
				</radialGradient>
				<rect x="166.3" y="135.8" class="st30" width="23.8" height="29.4"/>
			</g>
		</g>
		<g>
			<defs>
				<path id="SVGID_47_" d="M208.7,143c0-0.5,0-1,0-1.4c0-0.8,0-1.7-0.1-2.4s0-1.5-0.1-2.3h0.7c0.2,0,0.4,0,0.5,0h0.8h1h1h0.8
					c0.7,0.1,1.5,0.2,2.2,0.4c0.7,0.2,1.3,0.4,1.9,0.8c0.5,0.3,1,0.7,1.3,1.2c0.7,1.1,0.4,2.6-0.6,3.4c-0.6,0.5-1.3,0.8-2,1
					c-0.8,0.2-1.6,0.4-2.4,0.5c-0.8,0.1-1.6,0.1-2.3,0.1c-1.1,0-1.6,0-2.7,0.1C208.7,143.9,208.7,143.4,208.7,143 M208.4,132
					c-1.2,0.1-2.3,0.2-3.2,0.3h-0.1c-0.5,0-1,0.1-1.5,0.2c-0.3,0.1-0.5,0.2-0.7,0.4c-0.1,0.1-0.2,0.2-0.3,0.3
					c-0.1,0.1-0.1,0.2-0.2,0.4c-0.1,0.1-0.1,0.3-0.1,0.4c0,0.1-0.1,0.3-0.1,0.4c0,0.1,0,0.3-0.1,0.5c0,0.2,0,0.3,0,0.5l1.3,21.6
					c0,0.4,0.1,0.8,0.2,1.1c0.1,0.3,0.2,0.5,0.3,0.8c0.1,0.3,0.4,0.6,0.7,0.7c0.3,0.1,0.7,0.2,1,0.2c0.4,0,0.8,0,1.2,0
					c0.4,0,0.7-0.1,1.1-0.3c0.5-0.3,0.8-0.7,0.9-1.2c0.1-0.5,0.2-1,0.3-1.5c-0.1-3.3-0.1-4.9-0.2-8.1c0.2,0,0.4-0.1,0.6-0.1h0.5
					c0.5,0,1-0.1,1.4-0.1l1.5-0.1c1.3-0.1,2.6-0.2,3.7-0.4c1.2-0.2,2.3-0.5,3.4-0.8c1.3-0.4,2.5-1.1,3.4-2.1c0.8-0.9,1.3-2,1.5-3.2
					c0.2-1.3,0.1-2.6-0.4-3.8c-0.5-1.3-1.3-2.5-2.4-3.4c-0.4-0.3-0.9-0.6-1.3-0.9c-0.5-0.3-1-0.5-1.6-0.7c-0.3-0.1-0.5-0.2-0.8-0.3
					l-0.8-0.2c-0.3-0.1-0.5-0.1-0.8-0.1l-0.9-0.1c-0.4-0.1-0.7-0.1-1.1-0.1l-1.1-0.1c-0.3,0-0.7,0-1.1-0.1s-0.8,0-1.2-0.1
					s-0.8,0-1.3,0S209.1,132,208.4,132"/>
			</defs>
			<clipPath id="SVGID_48_">
				<use xlink:href="#SVGID_47_"  style="overflow:visible;"/>
			</clipPath>
			<g class="st31">
				
					<radialGradient id="SVGID_49_" cx="-714.4" cy="-2537.0701" r="1" gradientTransform="matrix(12.77 0 0 12.77 9337.8604 32557.3086)" gradientUnits="userSpaceOnUse">
					<stop  offset="0" style="stop-color:#FF2639"/>
					<stop  offset="0.29" style="stop-color:#EA1D2C"/>
					<stop  offset="0.9" style="stop-color:#B4040A"/>
					<stop  offset="1" style="stop-color:#AB0004"/>
				</radialGradient>
				<rect x="202.2" y="132" class="st32" width="23" height="28"/>
			</g>
		</g>
		<g>
			<defs>
				<path id="SVGID_50_" d="M248.2,158.7c-1,0-1.9-0.3-2.7-0.8c-0.9-0.5-1.6-1.2-2.2-2.1c-0.4-0.6-0.6-1.3-0.8-2
					c-0.2-0.7-0.3-1.5-0.3-2.2c0-0.8,0-1.5,0.1-2.3c0.1-0.7,0.3-1.5,0.4-2.1c0.2-0.6,0.4-1.3,0.6-1.9c0.3-0.6,0.6-1.2,1-1.8
					c0.4-0.6,0.9-1,1.4-1.4c0.6-0.4,1.2-0.7,1.9-0.8c1-0.2,2.1-0.2,3.1,0c0.8,0.2,1.6,0.5,2.2,1.1c0.6,0.5,1.1,1.1,1.4,1.9
					c0.4,0.8,0.6,1.6,0.7,2.5c0.2,1.5,0.1,3-0.2,4.4c-0.3,1.4-0.8,2.7-1.4,3.9c-0.3,0.6-0.7,1.2-1.2,1.7c-0.9,1.2-2.4,1.9-3.9,1.9
					L248.2,158.7 M246.8,136.3c-1.3,0.1-2.6,0.5-3.7,1.2c-1.1,0.6-2,1.4-2.8,2.3c-0.8,0.9-1.5,1.8-2,2.9c-0.5,1-0.8,2-1.1,3
					c-0.2,1.1-0.4,2.2-0.5,3.3c-0.1,1.2,0,2.3,0.1,3.5c0.1,1.2,0.4,2.3,0.8,3.4c0.4,1.1,1,2.1,1.7,3c0.6,0.7,1.2,1.4,2,2
					c1.4,1.1,3.1,2,4.9,2.4c0.9,0.2,1.8,0.3,2.7,0.3c1.3,0,2.5-0.1,3.7-0.5c1.2-0.4,2.3-1,3.3-1.9c0.4-0.4,0.8-0.7,1.2-1.1
					c0.4-0.4,0.7-0.9,1-1.4c0.5-0.8,1-1.7,1.4-2.6c0.4-1,0.7-2,1-3c0.3-1.1,0.4-2.2,0.5-3.3c0.1-1.1,0-2.2-0.2-3.3
					c-0.2-1.4-0.6-2.8-1.3-4.1c-0.6-1.3-1.6-2.5-2.7-3.4c-1.2-1-2.7-1.8-4.2-2.2c-1.2-0.3-2.5-0.5-3.8-0.5
					C248.1,136.2,247.4,136.3,246.8,136.3"/>
			</defs>
			<clipPath id="SVGID_51_">
				<use xlink:href="#SVGID_50_"  style="overflow:visible;"/>
			</clipPath>
			<g class="st33">
				
					<radialGradient id="SVGID_52_" cx="-713.86" cy="-2536.8701" r="1" gradientTransform="matrix(12.92 0 0 12.92 9472.6699 32934.5703)" gradientUnits="userSpaceOnUse">
					<stop  offset="0" style="stop-color:#FF2639"/>
					<stop  offset="0.29" style="stop-color:#EA1D2C"/>
					<stop  offset="0.9" style="stop-color:#B4040A"/>
					<stop  offset="1" style="stop-color:#AB0004"/>
				</radialGradient>
				<rect x="236.7" y="136.2" class="st34" width="24.2" height="27.5"/>
			</g>
		</g>
		<g>
			<defs>
				<path id="SVGID_53_" d="M285,161c-0.5-0.1-1-0.2-1.5-0.5c-2.2-1.1-3.3-1.6-5.6-2.6l1.5-3.6c0.4-1,0.8-2,1.2-3
					c0.9,0.4,1.8,0.8,2.8,1.3s1.9,0.9,2.7,1.4c1.2,0.6,2.2,1.5,2.9,2.6c0.5,1,0.5,2.2-0.2,3.2c-0.2,0.4-0.5,0.7-0.9,0.9
					c-0.4,0.2-0.9,0.4-1.3,0.4c-0.2,0-0.5,0-0.7,0C285.5,161,285.3,161,285,161 M277.3,145.3c-0.3,0.1-0.5,0.2-0.7,0.4
					c-0.2,0.2-0.4,0.4-0.6,0.7c-0.1,0.1-0.2,0.3-0.2,0.4c-0.1,0.1-0.1,0.3-0.2,0.5c-2.5,6.9-5,13.9-7.6,20.8
					c-0.1,0.2-0.1,0.5-0.1,0.8c0,0.1,0,0.3,0,0.4c0,0.1,0,0.3,0,0.4c0,0.1,0,0.3,0.1,0.4c0,0.1,0.1,0.3,0.2,0.4
					c0.2,0.3,0.5,0.5,0.8,0.8c0.6,0.4,1.3,0.6,2,0.6c0.4-0.1,0.7-0.2,1-0.4c0.3-0.2,0.5-0.4,0.7-0.7c0.1-0.1,0.2-0.3,0.3-0.5
					l0.2-0.5c0.1-0.2,0.2-0.4,0.2-0.5s0.2-0.3,0.2-0.5c1-2.6,1.6-3.9,2.6-6.5l0.8,0.4c0.5,0.2,1,0.4,1.5,0.7c0.5,0.3,1,0.5,1.6,0.7
					l0.7,0.3l0.6,0.3c0.4,3.2,0.6,6.4,0.8,9.6c0,0.3,0,0.6,0,1s0.1,0.6,0.1,0.8c0.1,0.6,0.3,1.1,0.5,1.6c0.2,0.4,0.5,0.7,0.8,1
					c0.2,0.1,0.4,0.2,0.5,0.3l0.6,0.2c0.3,0.1,0.7,0.1,1,0.1c0.2,0,0.3,0,0.5-0.1c0.1-0.1,0.3-0.1,0.4-0.2c0.2-0.2,0.3-0.4,0.4-0.6
					c0.1-0.2,0.1-0.5,0.2-0.9c0-0.2,0-0.3,0-0.5c0-0.2,0-0.4,0-0.5s0-0.3,0-0.5c0-0.1,0-0.3,0-0.4v-0.7c0-3.3-0.1-5-0.3-8.4
					c0.1,0,0.2,0,0.2,0.1c0.1,0,0.2,0,0.3,0c2.9,0.7,5.8-0.7,7.1-3.4c0.6-1.1,0.9-2.3,0.9-3.5c0-1.4-0.3-2.7-0.8-3.9
					c-0.2-0.5-0.5-1-0.9-1.4c-0.3-0.4-0.7-0.8-1.2-1.2c-0.7-0.7-1.5-1.3-2.3-1.9c-0.9-0.6-1.7-1.1-2.6-1.6c-1.2-0.7-2.5-1.3-3.8-1.9
					l-3.9-1.8c-0.5-0.3-1.1-0.5-1.7-0.5c-0.1,0-0.2,0-0.3,0C277.8,145.2,277.6,145.2,277.3,145.3"/>
			</defs>
			<clipPath id="SVGID_54_">
				<use xlink:href="#SVGID_53_"  style="overflow:visible;"/>
			</clipPath>
			<g class="st35">
				
					<radialGradient id="SVGID_55_" cx="-706.22" cy="-2534.1201" r="1" gradientTransform="matrix(15.44 0 0 15.44 11184.7998 39278.6484)" gradientUnits="userSpaceOnUse">
					<stop  offset="0" style="stop-color:#FF2639"/>
					<stop  offset="0.29" style="stop-color:#EA1D2C"/>
					<stop  offset="0.9" style="stop-color:#B4040A"/>
					<stop  offset="1" style="stop-color:#AB0004"/>
				</radialGradient>
				<rect x="268" y="145.2" class="st36" width="27.6" height="33.9"/>
			</g>
		</g>
		<g>
			<defs>
				<path id="SVGID_56_" d="M307.3,162.4c-0.1,0.1-0.2,0.2-0.3,0.3l-0.2,0.4c-0.2,0.4-0.3,0.8-0.1,1.3c0.2,0.6,0.5,1.1,0.9,1.5
					l0.7,0.7l0.7,0.6c0.2,0.1,0.5,0.4,1,0.8l1.6,1.2c0.5,0.4,1.1,0.8,1.6,1.2l1,0.7l-11.2,16.3c-0.1,0.2-0.2,0.4-0.3,0.7
					c-0.1,0.3-0.2,0.6-0.2,0.9c-0.1,0.3-0.1,0.6,0,0.9c0.2,0.4,0.4,0.7,0.7,1c0.5,0.5,1.1,0.9,1.8,1.1c0.4,0.1,0.7,0.1,1.1-0.1
					l0.2-0.1c0,0,0.2,0,0.3-0.1c0.1-0.1,0.2-0.1,0.3-0.2c0.1-0.1,0.2-0.2,0.3-0.3c0.2-0.2,0.4-0.4,0.6-0.6c0.1-0.1,0.2-0.2,0.2-0.2
					c0.1-0.1,0.1-0.1,0.2-0.2c0.1-0.2,0.2-0.3,0.3-0.5l1.7-2.4l3.3-4.4l2.5-3.3c0.7-1,1.4-1.8,1.9-2.5s1-1.4,1.5-2.1l1.3,1.1
					c0.4,0.4,0.9,0.7,1.4,1.1l1.9,1.7l0.6,0.5c0.2,0.2,0.3,0.3,0.5,0.4l0.6,0.4c0.2,0.1,0.4,0.3,0.6,0.4c0.3,0.2,0.6,0.4,1,0.5
					c0.3,0,0.7,0,1-0.2c0.1-0.1,0.2-0.2,0.3-0.3c0.1-0.1,0.2-0.2,0.3-0.4c0.2-0.3,0.3-0.8,0.3-1.2c0-0.3-0.1-0.5-0.2-0.8
					c-0.1-0.3-0.3-0.6-0.5-0.8c-0.2-0.4-0.5-0.7-0.7-1c-0.3-0.3-0.6-0.6-0.9-0.9c-1.4-1.3-2.9-2.6-4.3-3.9s-3-2.5-4.5-3.6l-2.7-2
					c-0.8-0.6-1.7-1.3-2.7-2l-0.7-0.5c-0.2-0.2-0.4-0.3-0.7-0.4c-0.4-0.2-0.9-0.5-1.3-0.6c-0.3-0.1-0.5-0.2-0.8-0.3
					c-0.2,0-0.4-0.1-0.7-0.1H308C307.7,162.2,307.5,162.3,307.3,162.4"/>
			</defs>
			<clipPath id="SVGID_57_">
				<use xlink:href="#SVGID_56_"  style="overflow:visible;"/>
			</clipPath>
			<g class="st37">
				
					<radialGradient id="SVGID_58_" cx="-709.7" cy="-2535.3701" r="1" gradientTransform="matrix(14.18 0 0 14.18 10379.5498 36131.7305)" gradientUnits="userSpaceOnUse">
					<stop  offset="0" style="stop-color:#FF2639"/>
					<stop  offset="0.29" style="stop-color:#EA1D2C"/>
					<stop  offset="0.9" style="stop-color:#B4040A"/>
					<stop  offset="1" style="stop-color:#AB0004"/>
				</radialGradient>
				<rect x="302.3" y="162.2" class="st38" width="26.8" height="29.9"/>
			</g>
		</g>
	</g>
</g>
</svg>
