<?xml version="1.0" encoding="utf-8"?>
<!-- Generator: Adobe Illustrator 23.1.0, SVG Export Plug-In . SVG Version: 6.00 Build 0)  -->
<svg version="1.1" id="Layer_1" xmlns="http://www.w3.org/2000/svg" xmlns:xlink="http://www.w3.org/1999/xlink" x="0px" y="0px"
	 viewBox="0 0 190.2 188.8" style="enable-background:new 0 0 190.2 188.8;" xml:space="preserve">
<style type="text/css">
	.st0{clip-path:url(#SVGID_2_);}
	.st1{fill:url(#SVGID_3_);}
	.st2{fill:none;stroke:#FFFFFF;stroke-width:4.74;stroke-linecap:round;stroke-linejoin:round;}
	.st3{fill:none;stroke:#FFFFFF;stroke-width:4.74;stroke-linecap:round;stroke-linejoin:round;stroke-dasharray:1.78,8.89;}
</style>
<title>asdfghj</title>
<g>
	<g id="Layer_1-2">
		<g>
			<defs>
				<path id="SVGID_1_" d="M95.9,0C43.7-0.1,1.4,42.2,1.3,94.3c-0.1,52.1,42.2,94.5,94.3,94.5s94.5-42.2,94.5-94.3
					c0-8.4-1.1-16.8-3.3-24.9C175.6,28.6,138.4,0.2,95.9,0L95.9,0"/>
			</defs>
			<clipPath id="SVGID_2_">
				<use xlink:href="#SVGID_1_"  style="overflow:visible;"/>
			</clipPath>
			<g class="st0">
				
					<radialGradient id="SVGID_3_" cx="-1223.3341" cy="-2967.3682" r="1" gradientTransform="matrix(-124.583 33.9652 33.9652 124.583 -51472.5742 411385.125)" gradientUnits="userSpaceOnUse">
					<stop  offset="0" style="stop-color:#FF2639"/>
					<stop  offset="0.3" style="stop-color:#EA1C2C"/>
					<stop  offset="0.92" style="stop-color:#B30309"/>
					<stop  offset="1" style="stop-color:#AB0004"/>
				</radialGradient>
				<polygon class="st1" points="-59.6,13.8 186.1,-53.2 251.2,185.5 5.5,252.4 				"/>
			</g>
		</g>
		<path class="st2" d="M65.7,56.7c21.6-17.5,53.2-14.2,70.7,7.4s14.2,53.2-7.4,70.7c-21.4,17.3-52.7,14.3-70.3-6.9"/>
		<path class="st2" d="M113.4,59.8c6.4,8.5,10.4,21.4,10.4,36c0,14.8-4.2,28-10.8,36.5"/>
		<path class="st2" d="M75.3,70.8c1.5-3.9,3.5-7.6,6-11"/>
		<path class="st2" d="M81.7,132.2c-4.9-6.3-8.5-15.3-10-25.6"/>
		<line class="st2" x1="97.4" y1="55.6" x2="97.4" y2="135.9"/>
		<line class="st2" x1="75.3" y1="95.8" x2="137.5" y2="95.8"/>
		<line class="st2" x1="75.9" y1="69.3" x2="127.6" y2="69.3"/>
		<line class="st2" x1="67.1" y1="122.3" x2="127.6" y2="122.3"/>
		<path class="st2" d="M40.8,135.4c0,0-27.3-24.4-27.3-53.4c0.3-15.1,12.7-27.1,27.8-26.8C56,55.4,67.8,67.3,68.1,81.9
			C68.1,111,40.8,135.4,40.8,135.4z"/>
		<path class="st2" d="M54.2,81.9c0-7.4-6-13.4-13.4-13.4c-7.4,0-13.4,6-13.4,13.4c0,7.4,6,13.4,13.4,13.4c0,0,0,0,0,0
			C48.2,95.3,54.2,89.3,54.2,81.9z"/>
		<path class="st3" d="M49.8,47.5c26.6-26.3,69.5-26,95.8,0.6s26,69.5-0.6,95.8s-69.5,26-95.8-0.6c-1.6-1.6-3.1-3.3-4.5-5"/>
	</g>
</g>
</svg>
