<?xml version="1.0" encoding="utf-8"?>
<!-- Generator: Adobe Illustrator 23.1.0, SVG Export Plug-In . SVG Version: 6.00 Build 0)  -->
<svg version="1.1" id="Layer_1" xmlns="http://www.w3.org/2000/svg" xmlns:xlink="http://www.w3.org/1999/xlink" x="0px" y="0px"
	 viewBox="0 0 272.4 238.9" style="enable-background:new 0 0 272.4 238.9;" xml:space="preserve">
<style type="text/css">
	.st0{clip-path:url(#SVGID_2_);}
	.st1{fill:url(#SVGID_3_);}
	.st2{clip-path:url(#SVGID_5_);}
	.st3{fill:url(#SVGID_6_);}
	.st4{fill:none;stroke:#FFFFFF;stroke-width:5.23;stroke-linecap:round;stroke-linejoin:round;}
</style>
<title>aserf</title>
<g>
	<g id="Layer_1-2">
		<g>
			<defs>
				<path id="SVGID_1_" d="M211.8,23.3c-13.5,7.5-24.6,18.5-32,31.9c-10,17.1-13.3,37.4-9.3,56.8c0.5,2.7,1.4,5.4,2,8.1
					c0.4-0.3,0.7-0.7,0.9-1.1c5-10.5,10.8-20.5,17.3-30.1c8.1-11.8,17.2-22.7,28.9-31.1c1.3-0.9,2.7-1.8,4.1-2.6c-1,1-2,1.9-3.2,2.7
					c-6,5-11.3,10.7-15.9,16.9c-11.1,15-19.2,31.6-25.9,49c-0.1,0.2-0.1,0.5-0.3,0.9c0.5-0.1,0.9-0.2,1.4-0.3
					c4.6-1.5,9.2-2.9,13.7-4.6c13.5-5.1,26-12.6,36.9-22.1c13.2-11.6,23.4-26.3,29.7-42.7c3.7-9.4,7-18.9,10.4-28.4
					c0.7-2,1.3-4.1,2-6.2l0,0c-0.7-0.4-1.3-0.7-1.9-1c-7.2-3.5-15.1-5.3-23.2-5.4h-0.7C234.4,13.9,222.4,17.2,211.8,23.3"/>
			</defs>
			<clipPath id="SVGID_2_">
				<use xlink:href="#SVGID_1_"  style="overflow:visible;"/>
			</clipPath>
			<g class="st0">
				
					<radialGradient id="SVGID_3_" cx="-1229.5662" cy="-3130.8594" r="1" gradientTransform="matrix(53.6 0 0 -53.6 66125.4297 -167744.9688)" gradientUnits="userSpaceOnUse">
					<stop  offset="0" style="stop-color:#FF2639"/>
					<stop  offset="0.3" style="stop-color:#EA1C2C"/>
					<stop  offset="0.92" style="stop-color:#B30309"/>
					<stop  offset="1" style="stop-color:#AB0004"/>
				</radialGradient>
				<rect x="166.5" y="14" class="st1" width="105.9" height="110.7"/>
			</g>
		</g>
		<g>
			<defs>
				<path id="SVGID_4_" d="M22.4,49.8C-16,103.4-3.8,178,49.8,216.5s128.2,26.2,166.7-27.3s26.2-128.2-27.3-166.7
					C168.9,7.9,144.5,0,119.6,0C81.1,0,44.9,18.5,22.4,49.8"/>
			</defs>
			<clipPath id="SVGID_5_">
				<use xlink:href="#SVGID_4_"  style="overflow:visible;"/>
			</clipPath>
			<g class="st2">
				
					<radialGradient id="SVGID_6_" cx="-1218.6266" cy="-3121.3274" r="1" gradientTransform="matrix(-95.3681 132.7188 132.7188 95.3681 298268.9375 459559.0938)" gradientUnits="userSpaceOnUse">
					<stop  offset="0" style="stop-color:#FF2639"/>
					<stop  offset="0.3" style="stop-color:#EA1C2C"/>
					<stop  offset="0.92" style="stop-color:#B30309"/>
					<stop  offset="1" style="stop-color:#AB0004"/>
				</radialGradient>
				<polygon class="st3" points="-136.9,168.2 76.2,-128.5 375.9,86.8 162.7,383.5 				"/>
			</g>
		</g>
		<path class="st4" d="M149.5,137.1c0,0-50.6,63.6-59.4,59.2c-3.9-1.9-1.4-6,2-12.8c3.8-7.7,20.2-34.5,27.8-47.5"/>
		<path class="st4" d="M115.8,106.5c-9.2-10.3-20.7-21.6-25.7-19.1c-3.9,1.9-1.4,6,2,12.8c0.5,1,2.4,4.5,4.6,8.3"/>
		<path class="st4" d="M142.4,145.9h29.5c40.8,0,40.4-7.5,38.8-12c-2.8-8-24.4-18.4-43.9-18.4c-26.8,0-69.7,3.3-88.7,4.8
			c-5.9,0.4-11.7-1.5-16.1-5.4c-6.7-5.8-13.6-10.1-17-9c-3.9,1.3,3,13.3,5,16.8l-6,2.3v9.3c0,0,27,8.3,69.4,11.4"/>
		<path class="st4" d="M162.5,116.2c0.5,4,4.9,21.1,43.2,12.2"/>
		<line class="st4" x1="58.9" y1="159.9" x2="79.8" y2="159.9"/>
		<line class="st4" x1="142.6" y1="178.7" x2="169.8" y2="178.7"/>
		<line class="st4" x1="50.5" y1="174.5" x2="63.1" y2="174.5"/>
		<line class="st4" x1="123.8" y1="84.6" x2="140.5" y2="84.6"/>
		<line class="st4" x1="65.2" y1="97.1" x2="73.6" y2="97.1"/>
		<line class="st4" x1="103.3" y1="65.8" x2="128.4" y2="65.8"/>
		<line class="st4" x1="169.8" y1="164.1" x2="188.6" y2="164.1"/>
		<line class="st4" x1="107" y1="131.8" x2="108.1" y2="131.8"/>
		<line class="st4" x1="96.6" y1="131.8" x2="97.6" y2="131.8"/>
		<line class="st4" x1="86.1" y1="131.8" x2="87.2" y2="131.8"/>
		<path class="st4" d="M193,79.9c0-6-4.9-10.9-10.9-10.9c-6,0-10.9,4.9-11,10.9c0,6,4.9,10.9,10.9,10.9c0,0,0,0,0,0
			C188.1,90.8,193,85.9,193,79.9z"/>
		<line class="st4" x1="182" y1="60.3" x2="182" y2="57.6"/>
		<line class="st4" x1="182" y1="102.1" x2="182" y2="99.5"/>
		<line class="st4" x1="162.4" y1="79.9" x2="159.8" y2="79.9"/>
		<line class="st4" x1="204.3" y1="79.9" x2="201.7" y2="79.9"/>
		<line class="st4" x1="168.2" y1="66" x2="166.3" y2="64.2"/>
		<line class="st4" x1="197.8" y1="95.6" x2="195.9" y2="93.8"/>
		<line class="st4" x1="168.2" y1="93.8" x2="166.3" y2="95.6"/>
		<line class="st4" x1="197.8" y1="64.2" x2="195.9" y2="66"/>
		<path class="st4" d="M80.1,68.4c-0.8,0-1.6,0.2-2.4,0.6c-0.2-5.3-4.7-9.5-10-9.3c-4.5,0.2-8.2,3.4-9.1,7.8c-1-0.6-2.1-0.9-3.2-0.9
			c-3.4,0-6.2,2.8-6.2,6.2c0,3.4,2.8,6.2,6.2,6.2h24.7c2.9,0,5.3-2.4,5.3-5.3S83.1,68.4,80.1,68.4L80.1,68.4z"/>
	</g>
</g>
</svg>
