<svg xmlns="http://www.w3.org/2000/svg" viewBox="0 0 89.91 89.91"><defs><style>.cls-1{fill:#959595;}.cls-2{fill:#fff;}</style></defs><title>Asset 21</title><g id="Layer_2" data-name="Layer 2"><g id="Layer_1-2" data-name="Layer 1"><path class="cls-1" d="M89.91,45A45,45,0,1,1,45,0a45,45,0,0,1,45,45"/><path class="cls-2" d="M74,20.77l-.75,1.3-4.34-2.51c.26-.44.49-.85.75-1.3L74,20.77"/><path class="cls-2" d="M62.7,19.56l-4.34,2.5-.75-1.29L62,18.26l.75,1.3"/><path class="cls-2" d="M66.16,13.74a3,3,0,1,0,3.2,3,3.12,3.12,0,0,0-3.2-3m-.67,2.68c-.22.72-.77,1.19-1.23,1.06s-.64-.84-.42-1.56.77-1.2,1.22-1.06.65.83.43,1.56"/><path class="cls-2" d="M33.29,74H19.1a3.84,3.84,0,0,1-1-.1,2.42,2.42,0,0,1-1.58-3.41,29.28,29.28,0,0,1,1.44-3q4.35-8.56,8.72-17.12a2.18,2.18,0,0,0,.23-.9q0-8,0-16a.69.69,0,0,0-.35-.7,2.22,2.22,0,0,1,1.2-4.07H38.86A2.22,2.22,0,0,1,40,32.74a.55.55,0,0,0-.3.55q0,8.12,0,16.22a1.49,1.49,0,0,0,.15.62q4.9,9.63,9.82,19.27a4,4,0,0,1,.58,2.68,2.35,2.35,0,0,1-2,1.84,8.33,8.33,0,0,1-.86,0H33.29m0-1.46H47.35c.21,0,.41,0,.61,0a.89.89,0,0,0,.91-1,3.19,3.19,0,0,0-.33-1.1q-5-9.84-10-19.67a2.21,2.21,0,0,1-.23-1c0-5.67,0-11.33,0-17,0-.84,0-.85.79-1.14A.76.76,0,0,0,39,30.1a1.83,1.83,0,0,0-.47,0H28.15a3.09,3.09,0,0,0-.43,0,.78.78,0,0,0-.7.71.77.77,0,0,0,.59.8c.68.21.78.34.78,1.08q0,8.43,0,16.87a2.72,2.72,0,0,1-.3,1.22Q23.38,60,18.65,69.27a13.34,13.34,0,0,0-.8,1.72c-.31,1,.12,1.5,1.14,1.5H33.3"/><rect class="cls-2" x="58.57" y="27.46" width="1.44" height="5"/><rect class="cls-2" x="47.21" y="47.23" width="1.46" height="4.98"/><path class="cls-2" d="M51,58.91l.76-1.3,4.34,2.5-.76,1.3L51,58.91"/><path class="cls-2" d="M51.84,41.65c-.27-.45-.5-.85-.76-1.3l4.34-2.5.76,1.29-4.34,2.51"/><path class="cls-2" d="M62.35,39.32c.25-.45.49-.84.75-1.29l4.34,2.5-.76,1.3-4.33-2.51"/><path class="cls-2" d="M66.69,57.61l.74,1.3-4.33,2.5-.76-1.3,4.35-2.5"/><path class="cls-2" d="M42.49,39l2.38,1.37-.75,1.3-1.48-.86a.33.33,0,0,1-.14-.24c0-.5,0-1,0-1.57"/><path class="cls-2" d="M32.09,46.9H30.41c-.33,0-.63-.08-.62-.49s.3-.47.63-.47h3.32c.34,0,.62.08.62.49s-.31.47-.63.47Z"/><path class="cls-2" d="M32.08,41.16H30.36c-.33,0-.59-.11-.58-.48s.27-.46.6-.46h3.41c.33,0,.58.11.58.49s-.26.44-.56.45Z"/><path class="cls-2" d="M32.05,35.44H30.32c-.32,0-.53-.13-.53-.48s.23-.46.55-.45h3.45c.33,0,.57.11.57.48s-.27.46-.59.46H32.05"/><path class="cls-2" d="M31.57,44.05H30.36c-.32,0-.58-.12-.58-.49s.24-.47.55-.47q1.23,0,2.46,0c.32,0,.57.12.55.51s-.26.44-.56.45H31.57"/><path class="cls-2" d="M31.55,37.35H32.8c.31,0,.54.09.54.45s-.21.47-.53.47H30.32c-.33,0-.53-.13-.53-.47s.2-.46.51-.45Z"/><path class="cls-2" d="M36.77,20.39A3.05,3.05,0,1,0,40,23.44a3.14,3.14,0,0,0-3.2-3.05m-.68,2.68c-.22.73-.76,1.2-1.22,1.06s-.64-.83-.42-1.56.76-1.19,1.22-1.06.64.84.42,1.56"/><path class="cls-2" d="M59.38,20.39a3.05,3.05,0,1,0,3.2,3.05,3.14,3.14,0,0,0-3.2-3.05m-.68,2.68c-.22.73-.76,1.2-1.22,1.06s-.64-.83-.42-1.56.76-1.19,1.22-1.06.64.84.42,1.56"/><path class="cls-2" d="M59.38,33.43a3,3,0,1,0,3.2,3,3.13,3.13,0,0,0-3.2-3m-.68,2.68c-.22.72-.76,1.19-1.22,1.06s-.64-.84-.42-1.56.76-1.2,1.22-1.06.64.83.42,1.56"/><path class="cls-2" d="M48.07,40A3.05,3.05,0,1,0,51.28,43,3.14,3.14,0,0,0,48.07,40m-.67,2.68c-.22.72-.77,1.2-1.22,1.06s-.65-.84-.43-1.56S46.52,41,47,41.09s.65.84.43,1.56"/><path class="cls-2" d="M48.07,53.41a3.05,3.05,0,1,0,3.21,3.05,3.14,3.14,0,0,0-3.21-3.05m-.67,2.68c-.22.73-.77,1.2-1.22,1.06s-.65-.83-.43-1.56.77-1.19,1.22-1.06.65.84.43,1.56"/><path class="cls-2" d="M59.34,59.79a3,3,0,1,0,3.2,3.05,3.12,3.12,0,0,0-3.2-3.05m-.67,2.68c-.22.72-.77,1.2-1.22,1.06S56.8,62.69,57,62s.77-1.2,1.22-1.06.65.84.43,1.56"/><polygon class="cls-2" points="27.3 55.1 39.45 55.1 47.94 71.39 19.33 71.39 27.3 55.1"/></g></g></svg>