<svg xmlns="http://www.w3.org/2000/svg" viewBox="0 0 89.91 89.91"><defs><style>.cls-1{fill:#959595;}.cls-2{fill:#f3f3f3;}</style></defs><title>Asset 18</title><g id="Layer_2" data-name="Layer 2"><g id="Layer_1-2" data-name="Layer 1"><path class="cls-1" d="M89.91,45A45,45,0,1,1,45,0a45,45,0,0,1,45,45"/><polygon class="cls-2" points="36.49 74.14 32.31 66.88 24.58 70.09 36.38 35.36 48.28 39.41 36.49 74.14"/><path class="cls-1" d="M35,59.69h0a.5.5,0,0,1-.32-.64L41.9,37.77a.51.51,0,0,1,1,.33L35.63,59.38a.51.51,0,0,1-.64.31"/><polygon class="cls-2" points="53.73 74.14 57.91 66.88 65.63 70.09 53.84 35.36 41.93 39.41 53.73 74.14"/><path class="cls-1" d="M54.93,59.38,47.71,38.1a.51.51,0,0,1,.31-.64.51.51,0,0,1,.65.31l7.22,21.28a.51.51,0,0,1-.31.64.51.51,0,0,1-.65-.31"/><path class="cls-2" d="M65.58,36.12c0,1.16-2.54,2.07-2.73,3.17s1.87,2.85,1.49,3.9-3.09,1.06-3.65,2,.78,3.31.06,4.17-3.26-.06-4.13.67-.38,3.37-1.37,3.94-3-1.17-4.1-.78-1.51,3-2.64,3.24-2.43-2.15-3.59-2.15-2.49,2.34-3.58,2.15-1.59-2.86-2.64-3.24-3.13,1.35-4.1.78-.51-3.22-1.37-3.94-3.4.2-4.13-.67.63-3.19.06-4.17-3.26-1-3.65-2,1.69-2.78,1.49-3.9-2.73-2-2.73-3.17S26.81,34.06,27,33s-1.87-2.85-1.49-3.9S28.6,28,29.16,27s-.78-3.31-.06-4.17,3.26.06,4.13-.67.38-3.38,1.37-3.94,3,1.17,4.1.78,1.51-3,2.64-3.24,2.43,2.14,3.58,2.14,2.49-2.33,3.59-2.14S50.1,18.63,51.15,19s3.13-1.35,4.1-.78.51,3.22,1.37,3.94,3.4-.2,4.13.67S60.12,26,60.69,27s3.26,1,3.65,2-1.69,2.77-1.49,3.9,2.73,2,2.73,3.16"/><path class="cls-1" d="M61.93,36.12a17,17,0,1,1-17-17,17,17,0,0,1,17,17"/><path class="cls-1" d="M44.92,53.19A17.07,17.07,0,1,1,62,36.12,17.08,17.08,0,0,1,44.92,53.19m0-34A16.95,16.95,0,1,0,61.87,36.12,17,17,0,0,0,44.92,19.18"/><path class="cls-2" d="M60.05,36.12A15.13,15.13,0,1,1,44.92,21,15.12,15.12,0,0,1,60.05,36.12"/><path class="cls-1" d="M57.92,36.12a13,13,0,1,1-13-13,13,13,0,0,1,13,13"/><path class="cls-2" d="M42,43.75a1.37,1.37,0,0,1-1-.4l-4.61-4.61a1.37,1.37,0,0,1,1.94-1.93L42,40.45l9.87-9.87a1.37,1.37,0,0,1,1.93,0,1.35,1.35,0,0,1,0,1.93L43,43.35a1.37,1.37,0,0,1-1,.4"/></g></g></svg>