<svg xmlns="http://www.w3.org/2000/svg" viewBox="0 0 89.91 89.91"><defs><style>.cls-1{fill:#959595;}.cls-2{fill:#f3f3f3;}</style></defs><title>Asset 15</title><g id="Layer_2" data-name="Layer 2"><g id="Layer_1-2" data-name="Layer 1"><path class="cls-1" d="M89.91,45A45,45,0,1,1,45,0a45,45,0,0,1,45,45"/><path class="cls-2" d="M77.88,56.53a.24.24,0,0,0,0,.28c0,.13-.11.27-.16.41l-.53.05c0,.35.4.1.28.53h0l-.34.82H77a1.8,1.8,0,0,1,0,.22H77c-.19.43-.39.85-.59,1.27-.11-.06-.26-.08-.35-.17-.23-.43.53-.5.2-.76.08-.17.16-.34.23-.51.27,0,.22-.23.54-.17l0-.33-.3,0C77.2,57.1,77.61,56,78,54.8c.08.08.12.2.32.12a.37.37,0,0,0-.25-.35c.08-.27.16-.54.23-.82.06.08.08.2.25.14a.28.28,0,0,0-.2-.31c.2-.77.37-1.55.52-2.33a1,1,0,0,0,.46.38A33.81,33.81,0,0,1,78,56.51l-.08,0M57.22,12.45h0c.89.33,1.76.69,2.62,1.09h-.08c.07.21-.08.68.28.53,0-.21,0-.42-.16-.5.55.26,1.1.52,1.63.81h0l1,.52V15c.08.2.1.1.09,0a34.83,34.83,0,0,1,11,10c-.09.08.07.23.11.16l.08.12s-.06.05-.05.13h.15l.75,1.14h0l0,.33a.16.16,0,0,0,.17,0A33.06,33.06,0,0,1,76.55,30c-.13,0-.27-.06-.26.11.13-.08.27.09.36.1.21.45.41.91.61,1.37a.4.4,0,0,0,0,.12c.08.19.1.13.1,0a34.3,34.3,0,0,1,1.93,6.39c.08.4.15.79.22,1.19h0c0,.07,0,.14-.1.12l0,.23a.13.13,0,0,0,.18,0,35.59,35.59,0,0,1,.38,3.68c-.07,0-.17.19,0,.2a33.81,33.81,0,0,1-.53,7.68,2.07,2.07,0,0,0-.47-.37c.17-1,.3-2,.38-3,.33,0,.12-.19,0-.13a34.3,34.3,0,0,0-.14-6.86.42.42,0,0,0,.28-.2c-.29.15-.18-.19-.34-.21-.1-.74-.22-1.48-.37-2.22s-.38-1.75-.62-2.6c0,0,.06-.11,0-.11a33.46,33.46,0,0,0-1.55-4.31c.43.05,0-.3,0,0-.17-.38-.35-.77-.53-1.14a.18.18,0,0,0,.18-.14.21.21,0,0,1-.28-.07,34,34,0,0,0-8.66-11l.28,0c.07-.26-.29-.26-.54-.19-.89-.73-1.81-1.41-2.77-2.05l-.5-.32a1,1,0,0,0-.17-.64,1.14,1.14,0,0,0,0,.54c-.47-.3-.95-.59-1.44-.86a.19.19,0,0,1,0-.1l-.19,0c-.36-.21-.74-.41-1.11-.6a1.17,1.17,0,0,0-.24-.39l0,.28-.61-.3s0-.06-.05,0l-1-.47c0-.07,0-.43-.09-.1a.56.56,0,0,0,0,.08l-.5-.21c0-.16,0-.32-.24-.25,0,0,0,.1,0,.16l-.49-.2s0,0,0,0c-.6-.23-1.2-.45-1.81-.65,0-.14-.24-.23-.24-.49l.2-.08,1.41.49m-.56,0h0M79.51,43.72c.2.35.23-.46,0,0m.12,3.46c-.26-.06-.42.45-.18.46,0-.17.14-.29.18-.46m0-.22c.19.35.23-.46,0,0m-.18-2.9c.17.43.09-.45,0,0m.48.29c-.49-.34-.23.38,0,0m-.43-3.2c0-.14-.06-.26-.24-.2,0,.13,0,.31.14.32s0-.13.1-.12m-4-12c.17.43.08-.45,0,0m-1.88-3.28c.17.42.08-.45,0,0m-6-7.14c.17.43.09-.45,0,0m-9.54-5.55c-.06,0,.07.07,0,0M46.76,80.3l0-.22h-.28c0,.16,0,.32.25.21M82.21,40.66c0,.22.06.24.08.19a36.74,36.74,0,0,1,.06,7.77,2.44,2.44,0,0,0-.37,1l.22,0c0,.07,0,.13,0,.2-.08.6-.17,1.2-.28,1.8,0-.07-.21-.14-.2.06.11,0,.17,0,.19,0-.22,1.19-.49,2.36-.82,3.51a.84.84,0,0,0-.2.51h0c0,.13-.07.26-.11.38l-.13,0,.08.16a35.54,35.54,0,0,1-1.65,4.27v0l-.22,0c-.09,0-.1,0-.1.12a.42.42,0,0,1,.21.13c-.11.24-.22.47-.34.71,0,0-.09.06-.1.19h0l-.31.6h-.09c0,.18-.16.29-.17.49-.24.45-.5.89-.76,1.33,0-.05,0-.11,0-.16l-.23,0,0,.22.18,0c-.16.27-.32.53-.49.79l-.06.05v0c-.22.35-.46.7-.69,1l-.09,0a.38.38,0,0,0-.07.24c-.21.31-.43.62-.66.92a.21.21,0,0,0-.16-.06c0,.14-.11.21-.08.39-.5.65-1,1.28-1.54,1.9h0a.06.06,0,0,0,0,0,39,39,0,0,1-2.83,2.92c0-.14-.06-.26-.24-.2,0,.08,0,.15,0,.22a.2.2,0,0,1,.14.05c-.5.46-1,.91-1.54,1.34l0,0s0,0,0,0a36.92,36.92,0,0,1-4,2.84h0c0-.13.21-.1.19-.25a.51.51,0,0,1-.26-.42l.22,0c-.08-.16.07-.59-.16-.55,0,.1-.1.13-.09.24-.44.27-.32-.76-.49-.4.07.43-.17,0-.3.25A2.65,2.65,0,0,0,65,76.61h0a37.33,37.33,0,0,1-5.53,2.82c.08-.09.11-.23.22-.3l-.44,0,0,.34h0L58.05,80c0-.32.06-.74-.27-.65a1.56,1.56,0,0,0,.16.69A38.92,38.92,0,0,1,52.6,81.5a37.83,37.83,0,0,1-4.8.64.77.77,0,0,0-.39-.2,2,2,0,0,1,0-.59l-.56.05.06.62a.79.79,0,0,0-.22.19,36.92,36.92,0,0,1-4.83-.13.09.09,0,0,0,.05-.08c-.16,0-.2-.16-.35-.19a.24.24,0,0,0,0,.24c-.43,0-.86-.1-1.29-.15,0-.15-.08-.28-.24-.27a.79.79,0,0,1,0,.23,36,36,0,0,1-5.94-1.35c0-.05-.07-.08-.13,0l-.64-.21c0-.29-.15-.18-.2-.07a36.87,36.87,0,0,1-4.44-1.87s0-.11,0-.16l-.22,0v0l-1-.52a.33.33,0,0,0-.18-.17l0,0L27,77.42c0-.09,0-.18-.11-.07-.69-.39-1.36-.81-2-1.24.07-.09.13-.19,0,0h0l-.94-.64c0-.07.07-.1.08-.18a.51.51,0,0,1-.34-.08.22.22,0,0,0,0,.08c-.47-.34-.93-.68-1.38-1a.49.49,0,0,0-.13-.62l.57-1.74a36.54,36.54,0,0,0,3.16,2.36,35.62,35.62,0,0,0,6.06,3.24.42.42,0,0,1-.26.29c0,.25.39.58.48.29-.16-.13-.14-.32-.08-.53a34.85,34.85,0,0,0,5.13,1.65c-.06.17-.13.36.09.39,0-.08,0-.22,0-.36.73.18,1.47.32,2.22.45,0,0,0,.1.1.13a.23.23,0,0,1,0-.11,35.1,35.1,0,0,0,4.11.42v.06a.12.12,0,0,0,.2,0l.48,0a.34.34,0,0,0,.22.17.29.29,0,0,0,0-.17c.55,0,1.09,0,1.64,0a2.44,2.44,0,0,0,0,.8c.65-.42.39.26.81.37a3.72,3.72,0,0,1,.08-1.21,36.53,36.53,0,0,0,5-.63l.49-.11s0,0,0,.06c.1.26.11,0,.08-.08l.9-.2c.07.14.09.07.09,0l.55-.15.12,0V78.9l.11,0c.16.21.18.07.14,0,.28-.07.56-.15.83-.24,0,.09,0,.16.12.16s0-.13.1-.12l0-.09c.49-.15,1-.32,1.45-.49a.12.12,0,0,0,0,.11c.3,0,.2-.12.1-.13l1.07-.41c.08.18.1.07.09,0l.78-.33c.14.49.16,1.13.55,1.32-.15-.43-.22-1-.34-1.41a34,34,0,0,0,5-2.72.54.54,0,0,0,.27.5c-.06.47.33,0,0,0-.06-.18.06-.59-.18-.56a35,35,0,0,0,3.11-2.28c.11,0,.12,0,.1-.09.56-.46,1.1-1,1.63-1.44.44.38.47,1.26,1.06,1.46-.06-.43-.42-.48-.43-1,.16,0,.31,0,.32-.15-.17,0,0-.53,0-.67-.39,0-.19.58-.6.61a1,1,0,0,0-.18-.49,2.28,2.28,0,0,0,.22-.22.19.19,0,0,0,.1-.08h0a36,36,0,0,0,3.91-4.55c.21.39.39.76.54,1.09a6.76,6.76,0,0,0-.42-1.27c.22-.3.42-.59.63-.9A35.61,35.61,0,0,0,77,60s.06,0,0-.07c.14-.3.28-.61.41-.91.14.12.32.19.41,0-.11-.07-.19-.18-.3-.24a.77.77,0,0,1,.07-.16c.34,0,.63-.37.36-.51,0,.24-.1.21-.23.18A35.14,35.14,0,0,0,80,50.32a.62.62,0,0,0,.07-.5c.12-.87.21-1.75.26-2.63a.26.26,0,0,0,.18,0,.83.83,0,0,0-.16-.37c0-.27,0-.54,0-.82s.25-.7.34-1.07c.33,0-.15-.45,0,0a1.41,1.41,0,0,0-.33.38,35.27,35.27,0,0,0-.67-7.11h0v0l0,0c0-.05,0-.09,0-.14a35.19,35.19,0,0,0-2.47-7.66,1.19,1.19,0,0,0,1.08.22c-.3-.24-.8-.24-1.16-.4-.44-.93-.9-1.84-1.41-2.72,0,0,.1,0,.15-.12-.15-.1-.23-.11-.26-.07a32.35,32.35,0,0,0-1.85-2.85l.15,0c-.3-.28.09-.69-.2-.87a4.47,4.47,0,0,0-.16.6A34.83,34.83,0,0,0,67.8,18c0-.1,0-.24-.11-.09a35.14,35.14,0,0,0-2.94-2.2l-.25-.16a.41.41,0,0,0-.23-.25c0-.1,0-.11.1-.12s0-.15,0-.23c-.29-.14-.29.41-.08.35a.35.35,0,0,1,0,.12,34.73,34.73,0,0,0-3.57-2c.05-.06-.11-.17-.17-.09a36,36,0,0,0-4.27-1.73,2.18,2.18,0,0,1,.68-.5,1.64,1.64,0,0,1,0-.22c-.11,0-.14-.08-.23-.09-.07.3-.47.56-.87.67a34.19,34.19,0,0,0-6.38-1.38c.06-.09.11-.18,0,0v0C49,10,48.58,10,48.17,10c0-.11-.05-.2-.09,0a34.63,34.63,0,0,0-5.67,0c.05-.26.11-.44-.18-.65a.45.45,0,0,0,.17.65L42,10l-.25,0a.18.18,0,0,0,0-.11c-.14,0-.12-.19-.24-.2a.28.28,0,0,0,.1.32l-.29,0c-.7.08-1.4.18-2.11.31A.29.29,0,0,0,39,10.2c-.06-.26-.21-.4-.18-.77-.26,0-.42.07-.42.27.43-.12.15.64.6.5a.93.93,0,0,0,0,.24l-.36.06c0-.18,0-.33-.25-.24a.49.49,0,0,1,.08.27h0l-.37.08c0-.1,0-.39-.1-.09l.05.1c-1,.21-2,.47-3,.76a.5.5,0,0,0,0-.24c.19.07.13-.54,0-.44,0,.3-.16.24,0,.44a.16.16,0,0,0-.06.27l-.59.19A5.94,5.94,0,0,1,35,9.53h0a.47.47,0,0,0,.31-.2l.22,0,0,.34c.34.13.27-.53,0-.34,0-.14-.05-.18-.14-.19s0,0,0,0L36,8.92h0V9c.12.06.14.24.35.19a.3.3,0,0,0,.25.31c0-.23,0-.35-.25-.31s-.07-.41-.36-.3h0l.55-.14c.06.38.11.14.1,0,.44-.11.89-.21,1.34-.3.62-.12,1.23-.23,1.85-.32a.41.41,0,0,0,.23.28.52.52,0,0,0-.06-.3L41,8c0,.17.08.3.23.32a2.14,2.14,0,0,0,0-.34,37.82,37.82,0,0,1,4.62-.23s.06,0,.07,0a36.92,36.92,0,0,1,12.31,2.31c-.39.28-1.23.47-.91,1a3.4,3.4,0,0,1,1.27-.9c.62.23,1.24.49,1.84.76,0,.07,0,.07.06,0A37.86,37.86,0,0,1,69.91,17a.31.31,0,0,0-.12.1c-.13-.27-.77.1-.91-.14,0,.53.66.24.91.14a.45.45,0,0,0,0,.11.88.88,0,0,1,.31,0,37.2,37.2,0,0,1,3.61,3.71V21s0,0,.06,0c.4.47.78.94,1.15,1.43l-.07,0c0,.11,0,.22,0,.33a.15.15,0,0,0,.22-.11,34.41,34.41,0,0,1,2,2.91,1.65,1.65,0,0,0-.08.47c.2,0,.16-.14.24-.22a36.35,36.35,0,0,1,2.59,5.23s-.07,0-.11.09c.13.17.17.13.17.06a36.7,36.7,0,0,1,1.82,6l-.06,0c.06-.47-.33,0,0,0a.41.41,0,0,1,0,.11c-.26.23-.53,1.29-.2,1.36a2.63,2.63,0,0,0,.2-1.36.1.1,0,0,0,.06,0c0,.11,0,.22.08.34.19,1,.34,1.93.46,2.9a.28.28,0,0,0-.05.1m-1.2-6h0M35.11,10.36a.31.31,0,0,0-.26-.31c.13.19-.29.4,0,.44,0-.09.08-.14.21-.13m-.09.23c.38.33.14-.41,0,0m.7.38h0m-.33-1.09c.32.41.13-.38,0,0m.88-.09c-.3,0-.2.21-.44.05a.91.91,0,0,1,.08.77c.46,0,.24-.54.36-.82m.42.86c.38.33.15-.41,0,0m.72-1.75h0m0,1.79a.49.49,0,0,0-.26-.42c-.19.22.06.34.26.42m.11,0h0m.11-1.13-.22,0,0,.23.22,0,0-.22m0-.78,0,.33c.34.13.27-.53,0-.33m1.47.3C39,9.06,39,9,38.86,9s0,.2-.09.23c-.08-.15-.13,0,0,0a.45.45,0,0,1,0,.11l.33,0,0-.22m1.2.89h0m0-1.34h0m.72.49c.46.06,0-.34,0,0m0-.57c.1.67.18-.44,0,0m.35.19c.17.43.09-.45,0,0m.55,1.07c-.16-.28,0-.86-.38-.53.31,0-.06.74.38.53M41.8,8.36c.38.32.15-.42,0,0m.51.62h0m-.15-.32c.18.42.09-.46,0,0m.62.61c-.26.45.45.44,0,0m1-.1c0,.28,0,.54.28.53a.55.55,0,0,0-.28-.53m1,.23h0M45.64,9A.32.32,0,0,0,46,8.73c-.17,0-.38,0-.31.26m.57.16-.22,0c0,.12-.07.15-.08.24.17,0,.38,0,.3-.26M48,8.76h0m.31.86c.17.43.09-.45,0,0m6.25.29c.17.42.09-.46,0,0m1.27.43a1.13,1.13,0,0,0-.4-.63c-.07-.44-.48.07,0,0-.18.24.15.54.4.63m.23.09-.22,0a1.8,1.8,0,0,1,0,.22l.22,0,0-.22m.32-.14c.32.4.12-.39,0,0m1.23,1.22a.3.3,0,0,0-.25-.31.31.31,0,0,0,.25.31m.39-.6c0,.29-.15.45.26.42,0-.25-.07-.41-.26-.42m.54,1c.17.42.08-.45,0,0m0-.34c.17.43.09-.45,0,0m1.43-.14.22,0a1.64,1.64,0,0,0,0-.22l-.22,0a1.64,1.64,0,0,1,0,.22m-1-.12h0m.14.32h0m.42.85h0m.63-.39c0-.4-.15-.57-.4-.64,0,.33.06.68.4.64-.08.29-.15.9.31.86.2-.29-.21-.57-.31-.86m.84-.53c.17.42.08-.45,0,0m.57,1.28h0M61.28,12c0-.23-.06-.35-.25-.31a.3.3,0,0,0,.25.31c-.06.47.33,0,0,0m1.16,1.57a1.07,1.07,0,0,0-.43-1c.12.34,0,.94.43,1,0,.17,0,.42.15.43-.06.47.33,0,0,0-.07-.21.29-.51-.15-.43m1.1,1h0m-.26-1.43-.22,0,0,.22.22,0,0-.22m0-.23c-.14,0-.12-.18-.24-.2-.1.24.22.52.24.2m.35,1.31c.17.43.09-.45,0,0m.37-.82c.3-.08,0,.62.27.54.07-.32,0-.83-.27-.54m.83.59c0,.28,0,.54.28.54,0-.28,0-.54-.28-.54m1,1.7h0m2.64.86c.17.43.08-.45,0,0m-1.76-1h0m-.31-.86c0,.28,0,.54.28.53-.07-.2.08-.68-.28-.53m1.35,2.44-.22,0c0,.15,0,.3.05.45l.22,0c0-.14,0-.29,0-.44m-.2-2.11-.22,0a1.8,1.8,0,0,0,0,.22l.22,0a1.79,1.79,0,0,1,0-.23m1.19,2c-.19.05-.56-.05-.42.27.26,0,.42-.07.42-.27m1.88,3.29c.17.43.09-.45,0,0m.82-1h0s0,0,0,0m1.37,2.87h0m1,1h0m1,.35c.16.43.08-.45,0,0m-.6.73c.17.43.08-.45,0,0M74,22.21c.47.06,0-.33,0,0m.8,3.62c.17.42.09-.45,0,0m0-.79c-.18.56.18-.58,0,0m0-.67,0,.33c.34.13.28-.53,0-.33m.71,2.72c.17.43.09-.45,0,0m-.63-4.19c.08.19-.28.49,0,.56.06-.08.21-.55,0-.56m.86,3.16h0m-.43-2.19h0m-.16-.43c.47.06,0-.34,0,0m.73,1.71,0,.34c.34.13.27-.53,0-.34m.79,2.39h0m.32,1c.17.42.08-.45,0,0m.23-1s.08.06,0,0M77,26.28c0,.31-.16.48-.15.79.43.11.38-.69.15-.79M23.54,73.62h0m.14.32h0m.62.61c.1.67.17-.44,0,0m.17-.46-.22,0a1.64,1.64,0,0,1,0,.22l.22,0a1.64,1.64,0,0,0,0-.22m.75.82c-.23.4.34-.3,0,0m.25.31h-.11c0,.09,0,.11-.1.13a1.5,1.5,0,0,1,0,.22c.24,0,.2-.18.19-.36.16-.08,0-.13,0,0m.77,1s.08.06,0,0m-.16-.55c.17.43.08-.45,0,0m.47.29c-.05-.33-.45.15,0,0,.07.44.48-.07,0,0m1.64,2h0m3.49.44c.17.42.08-.45,0,0M28.1,76c-.3.41.44.3,0,0m.34,1.2h0m-.07-.78-.22,0a1.79,1.79,0,0,0,0,.23l.22,0a1.79,1.79,0,0,1,0-.23m.14.32h0m1.52.75c.17.43.08-.45,0,0m.28.65s.08.06,0,0m.05-.68c.31.4.12-.38,0,0m.74.82-.22,0,0,.22.22,0,0-.22m.62.61c-.15.09,0,.13,0,0,.43-.07-.07-.48,0,0m.64.83c.19.36.23-.45,0,0M33,79l0,.34c.33.13.27-.53,0-.34m2.1.82,0,0h0m.54,0c0,.07,0,.14-.09.13a1.8,1.8,0,0,0,0,.22c.29.14.28-.41.07-.35m.06-.56-.22,0,0,.22.22,0c0-.07,0-.15,0-.22m1.07.68c0,.13-.16.14-.32.14a.68.68,0,0,0,.18.77c-.28-.7.49-.45.14-.91m.26.42c.17.43.09-.45,0,0m.14.32c.47.06,0-.33,0,0m2.52.76c.32.41.13-.38,0,0m.34.08h0m-.16-1.66q-.36,0-.3.36c.31,0,.19-.25.3-.36m.25.31c.13.3-.12.3,0,.56.27.06.38-.76,0-.56m.87-.2c0,.28-.16.59.28.53a.54.54,0,0,0-.28-.53m1.83.49h0m-.87.2c-.08-.15-.13,0,0,0,.08.16.13,0,0,0m.57.17-.33,0,0,.22c0,.07,0,.13.12.1s.16-.2.18-.35m.16.43c.17.43.08-.45,0,0m.74-.41c-.41.21-.08-.49-.48-.29a.54.54,0,0,1-.08.35c.19-.09.49.28.56-.06m1,0c.08.06,0-.05,0,0m1.75.83c0-.17,0-.43-.16-.43s-.11.8.16.43c.08.16.13,0,0,0M48,80.07c-.05,0,.08.06,0,0m5.83.54c.47.06,0-.33,0,0M55,79.49c.17.42.09-.46,0,0m.31.86c-.08-.15-.13,0,0,0-.06.6.35.1,0,0m.19-.35c.17,0,.11.27.35.19.07-.24-.33-.47-.35-.19M59,77.87c.46.06,0-.34,0,0m.53.95c.18.43.09-.45,0,0m.73-.52-.33,0,0,.34c.31,0,.19-.25.3-.37M61,76.66h0m4-1.85h0m.25.31c.18.43.09-.45,0,0m-.2-1c.46.06,0-.33,0,0m1.56.07h0m1.11-1.11-.44,0c0,.28.28.25.38.41,0-.21.1-.26.06-.45m.1-.13a.57.57,0,0,1,.34.08l0-.33-.22,0c0,.11-.08.14-.09.23m.62.62-.22,0,0,.22.22,0c0-.08,0-.15,0-.22m.32-1.27c.06-.07.2-.55-.06-.55.17.26-.27.49.06.55m.32,1c-.23.4.34-.3,0,0m.43-.15c.08.06-.05,0,0,0M69.4,72c.15-.06.17-.15.33,0,0-.4-.13-.75-.52-.73a1.44,1.44,0,0,0,.36,1.42c.21-.25-.07-.43-.17-.65m.35.19c.2.35.23-.46,0,0m.86-2.55h0m-.29.48c0-.05.08.06,0,0m.32-.15c.09.22-.1.79.29.64S71,70,70.64,70m.59-.84c-.12.14-.09.4,0,.68.28,0,.47-.79,0-.68m.28-.48c0,.07,0,.14-.1.13l0,.22c.33-.16.28.15.46.18.16-.2-.1-.51-.39-.53m.83.48c.17.43.08-.45,0,0m.51-1.61-.22,0c0,.11-.08.14-.09.23.17,0,.38,0,.31-.25m.59-.73c0,.11-.45.27-.08.34,0-.11.46-.27.08-.34m.2-.25c.17.43.09-.45,0,0m.08-.34c.19.35.23-.46,0,0m.71-.63c.35.14.24-.6.06-.57.07.27-.18.26-.06.57m.7,1.39a1.54,1.54,0,0,0-.64-.84c-.12.27.3.73.64.84M75,64.87l-.22,0c0,.11-.08.14-.09.23.17,0,.38,0,.31-.25m0-.22c.17.42.08-.45,0,0m.6-.62c-.4-.3-.29.44,0,0m.43-.16A1.38,1.38,0,0,0,76,63c-.06.25-.36.82.08.88.09.16.14,0,0,0m.82-3c0,.35.32.19.28.54-.2.36-1.19,1.3-.41,1.49-.17-1.07,1.32-1.46.13-2m.86,1.93h0m0-.89c-.25-.5-.51.15,0,0m.43-1.28c-.3,0-.2.21-.44,0,0,.27.23.22.17.54l.33,0c0-.36-.25-.33-.06-.56m0-1.67c0,.41.2.34-.06.56-.27,0-.17.16,0,.12.17.47-.33.4-.25.8.46-.19.23-.43.76-.18-.3-.53.13-1.2-.46-1.3m.49.51c.38.33.15-.41,0,0m1.16-5.15h0m-.4,3.84c-.21.06-.23-.12-.35-.19a1.16,1.16,0,0,0,.2.88c-.06-.32.21-.36.15-.69m.55-.05-.22,0c-.07-.43-.48.07,0,0a.52.52,0,0,0-.07.34l.22,0c0-.09,0-.11.1-.12l0-.22m-.5-2.86c0-.08,0-.15,0-.22l-.22,0c0,.19.11.2.24.2.22.37.31-.4,0,0m.64,2h0m-.34-2.32c-.13-.3-.21-.65-.52-.73.19.37-.44.57,0,.79.13-.61.13,0,.55-.06m.52,2h0M79.84,55c.17.43.08-.45,0,0m.57,1.29h0M81,47.82c.33,0-.15-.45,0,0-.15.09,0,.14,0,0m-.25.81c.08.16.13,0,0,0,.06-.47-.33,0,0,0m-.47.83c.06-.33.15-.14.43-.15,0-.11,0-.22,0-.33-.23,0-.73.33-.39.48M81,52.87c0-.69-.58-.77-1-1a2.93,2.93,0,0,0,1,1c0,.32.3.39.5.51a.55.55,0,0,0-.5-.51m.37-.82c.31.4.12-.38,0,0m.24-2c-.21.74-.67,1.28-.91,2,.35,0,.25-.41.54-.16-.09-.72.77-1.2.37-1.83m-.78-3.39c.47.06,0-.34,0,0m.1-10.31c.47.06,0-.34,0,0m0-1.48a.21.21,0,0,1,.06-.08v0h0l0,0-.06.08m-.2-.63h0m0,.22h0m.76,5.52h0m-2.2-8.85.22,0c.07,0,.13,0,.1-.12-.37,0,.28-.56-.26-.42.12.3-.13.3-.06.56m1.92,8.21h0m0,.22C81,39.46,80.8,40,81,40c0-.22.29-.17.18-.47m-.23,1a1.79,1.79,0,0,0,0,.23l.22,0a1.5,1.5,0,0,1,0-.22l-.22,0m-.43-4.32a.3.3,0,0,0-.25-.31.51.51,0,0,1-.08.34l.33,0m-1.2-4.36c.17.43.08-.45,0,0m-.74-2.95c.47.06,0-.33,0,0m.79,3.5c-.15.09,0,.14,0,0,.37-.22-.39-.31,0,0m1.88,11.24c.37.06.12-.38.29-.48-.29,0-.26.26-.29.48m-2.16-9.53c.35.08.17-.27.18-.46s0-.14,0,0c-.36.13,0,.24-.18.46m1.51,8.58,0,.34c.33.13.27-.53,0-.34m.28,1.66c.17.42.08-.45,0,0m.16-.58c.17.43.09-.45,0,0m-1.9-9.22c0-.06,0-.13.1-.12s-.06-.26-.25-.2c0,.13,0,.32.15.32m1.3,7.6c0,.21-.1.26-.07.45.33.15.26-.5.07-.45m1,4.82c0,.17-.16.21-.19.36.25.22.35-.13.56.06.06-.37-.2-.33-.37-.42m.67-2.19c-.14.4-.19,1.29-.55,1.17.1.46-.19.59-.24.92l.55,0c-.3-.57.21-1.12.52-1.51a.54.54,0,0,0-.28-.53m.3-.36-.22,0,0,.22.22,0c0-.08,0-.15,0-.22m-1.55-9c-.07-.21-.09-.47-.38-.41,0,.29.09.47.38.41M69.28,70l.13-.14c-.08-.12-.16-.24-.25-.26a.94.94,0,0,0,.12.4m-2.53,2.2h0l-.22,0s0,.1,0,.15c-.41.33-.83.64-1.26.94,0-.11,0-.35-.1-.07a.28.28,0,0,0,0,.1,34.45,34.45,0,0,1-6,3.4,1.31,1.31,0,0,0-.29-.42.74.74,0,0,0,.13.49l-.36.15c0-.1,0-.22,0-.39-.21,0-.24.14-.43.15l0,.39c-.62.25-1.25.48-1.89.7.05-.1,0-.18-.17-.22,0,.09-.08.14-.21.13a.3.3,0,0,1,.08.19q-1.05.35-2.13.63s0,0,0-.06l-.33,0v.11c-.53.13-1.07.25-1.61.36h0a1.23,1.23,0,0,0,0-.19l-.22,0a1.5,1.5,0,0,1,0,.22l-1,.17c0-.17.27-.15.17-.43-.22,0-.37.34-.25.44q-.86.14-1.71.24c-.06-.12-.16-.23-.22-.24s-.07.2,0,.26c-.55.06-1.1.1-1.64.13,0-.18.05-.35.06-.53L48,79c0,.12,0,.26.13.27,0-.16.22-.13.2-.3a34.18,34.18,0,0,0,14.43-4.65.43.43,0,0,0,.13.14.71.71,0,0,1,.07-.26Q64,73.54,65,72.82v.08c.16.06.23-.09.23-.25l1-.76c.08.14.13,0,0,0,.88-.69,1.72-1.42,2.52-2.18a1.67,1.67,0,0,1,.1.63c-.52.49-1.07,1-1.63,1.43a.15.15,0,0,0-.12,0v.06l-.41.33m1.48-1.84h0M59.29,76.6h0M61,75.54c.17.43.09-.45,0,0M64,73.79h0m1.43-1.26c-.22.39.35-.31,0,0M81,51.64h0m-47.06-40A17.65,17.65,0,0,0,32.61,10l.72-.25a.39.39,0,0,0,.17.14c0-.06,0-.13,0-.19l1-.33a.75.75,0,0,0,.16.15,4.64,4.64,0,0,1-.79,2.12m-.06-1.78h0m0,.22c-.05.66.48,0,0,0m-.61.51c-.06,0,.07.07,0,0M17.73,59.81V58.34l-1.23-.83.7-.23,0,.06c.22.29.19,0,.11-.09l.62-.21.4-1.41.58.78a.22.22,0,0,0,0,.1H19l.15.2a.41.41,0,0,0,0,.11h.06l1.48-.05-.76,1.07c0-.14-.07-.24-.25-.17-.07.28-.13.66.28.64l.38,1.05-1.41-.45Zm2.38-3h0M18.06,58.6l.22,0,0-.22-.22,0c0,.07,0,.15,0,.22m-.48-.4c.46.06,0-.34,0,0m-2.6-6a.52.52,0,0,1,.08-.34c-.11,0-.15-.07-.25-.09v-.1l-.25-.17s0-.07-.05,0l-1.18-.8.76-.25a3.54,3.54,0,0,0,.41.26,2.15,2.15,0,0,0-.17-.34l.69-.24.5-1.72,1.06,1.44,1.56-.06a.57.57,0,0,0,.15.12l-1,1.33.23.62a8.54,8.54,0,0,1-1,.45.62.62,0,0,1,0,.18l-.33-.1-1.41,1.11V52a.27.27,0,0,0,.16.14m1.78-2.3h0m-.08.35c.47.06,0-.34,0,0m-1.22-1.11c.32.4.13-.39,0,0m.07.66a.58.58,0,0,0,.45.07c.08.15.13,0,0,0a.53.53,0,0,1-.15-.32l-.22,0c0,.09-.1.12-.08.23m0,1.12c.46.06,0-.33,0,0m-.13,1h0M46.88,79.6l-.42,0s0-.05-.05,0c-.91,0-1.82,0-2.72,0v0h-.13c-1.05,0-2.09-.15-3.13-.3,0,0,0,0,0,0a34,34,0,0,1-3.92-.79h.1l0-.22-.22,0,0,.17c-.91-.24-1.8-.52-2.69-.83.06-.26.11-.57-.22-.51.11.24,0,.33,0,.41l-1.2-.47c.1-.26.14-.5-.15-.59-.08.08-.08.28-.09.5a34.92,34.92,0,0,1-9.14-5.61l.18-.54c.34.28.68.57,1,.84h0q.82.66,1.68,1.26c0,.06,0,.14.13.13-.06.47.33,0,0,0v0l.54.37.67.43a.21.21,0,0,0-.14,0c-.08.29.42.46.47.18-.24.12-.21-.09-.27-.17l.57.35c-.16.23-.28.44.1.56a.81.81,0,0,1,.1-.44c.29.17.58.34.88.5a.53.53,0,0,0,.32.71,1.49,1.49,0,0,0-.12-.6l.37.2c-.13.26.12.22.23.12.42.22.85.43,1.29.64a.17.17,0,0,0,0,.14.51.51,0,0,0,.34.08.22.22,0,0,0,0-.09l.12,0c0,.15.05.3.24.23a.28.28,0,0,0,0-.13,34.16,34.16,0,0,0,4.73,1.7c-.16.06-.15.27-.17.45.28,0,.34-.16.3-.42a32.58,32.58,0,0,0,4.2.87h0c.16.13.21.1.21,0l.3,0h0a1.5,1.5,0,0,0,0,.22l.22,0,0-.18a33.72,33.72,0,0,0,4.51.24l.08,0a.08.08,0,0,1,0,0h.34l0,0c-.15.25,0,.06.09,0l.8,0c0,.18-.07.36-.1.53M26.06,73.26h0m3.34,2.36c.47.06,0-.33,0,0m.93.36c.17.42.08-.45,0,0m2.55,1.09h0m13.45,2.26c.17.43.08-.45,0,0m31.73-19.8a.49.49,0,0,1,0,.12c.13,0,.05-.12,0-.12m-18.22-46,0,0,0,0M71.71,67.32h.06c-.32.37-.64.74-1,1.1,0,0,0,0-.07.07-.33.36-.66.71-1,1a.51.51,0,0,0,0-.13c-.16.08-.58-.07-.54.17l-.1-.13L69.5,69c.12.19.29.33.4.15a1.17,1.17,0,0,1-.24-.33l.47-.48h0v0c.44-.48.88-1,1.3-1.47v0c.34-.13.22-.12.45.07.11-.23-.08-.34-.24-.34l.48-.61a.66.66,0,0,1,0,.14c.12,0,.14.08.24.09,0-.15,0-.32-.17-.33l.14-.18c.11.14.15-.08.12-.16q.39-.51.75-1l.29.51c-.53.73-1.08,1.44-1.65,2.14-.07,0-.16,0-.16.11m1.16-1.79c.47.06,0-.34,0,0m-2.29,2.69h0m-35-56.46c-.06.48.33,0,0,0l0,0c1-.28,1.92-.52,2.91-.71l.52-.1a.68.68,0,0,0,.41.46l-.42.08s0,0,0,0l-.35.06-1,.21a1,1,0,0,0-.29-.36.9.9,0,0,0,.11.4c-.9.22-1.79.47-2.66.75h0a34,34,0,0,0-11,6h0v0c-.35.28-.69.57-1,.87h0l-.4.36a.4.4,0,0,0-.14-.2c-.08.2-.06.3,0,.35-.62.56-1.21,1.15-1.78,1.76a3.05,3.05,0,0,1-.57-.09,1.12,1.12,0,0,0,0,.76c-.56.63-1.1,1.29-1.61,2a.4.4,0,0,0-.33-.17,1,1,0,0,0,.19.36q-.59.76-1.11,1.56l-.2.31s-.06,0-.1.13h0c-.48.75-.93,1.51-1.35,2.3,0,0,0,0,0,0-.16,0,0-.09,0-.22a.3.3,0,0,0-.31.26c-.47-.07,0,.33,0,0,.08.05.25.11.31,0-.07.12-.13.24-.19.36,0-.06-.09-.09-.2-.05s0,.23.07.29c-.4.79-.78,1.6-1.13,2.43l-.12,0a.57.57,0,0,1,0,.27,35.67,35.67,0,0,0-1.25,3.65c-.15,0,0-.49-.3-.3,0,.15.15.43.26.42l-.15.57h0c-.08-.19-.11-.46-.28-.53-.16.24.14.46.21.83q-.36,1.47-.6,3l-.13-.06c.05.14,0,.41.06.52-.13.92-.22,1.85-.28,2.79V43h0c0,.47,0,1,0,1.42-.09-.05-.15-.15-.27-.16,0,.18.08.4.27.42a31.94,31.94,0,0,0,.2,3.9l-.18-.2a1.1,1.1,0,0,0,.24.76c.1.84.24,1.68.41,2.51.06.31.13.62.2.92-.18,0-.06-.36-.35-.21s.2.28.28.53c-.13,0-.2,0-.21.13a.18.18,0,0,1,.23.09c-.13,0-.05.12,0,.11.08.16.13,0,0,0a.37.37,0,0,1,0-.11h.11l0-.09c0,.13.06.27.1.4s-.1,0-.1.13h.14c.18.69.38,1.38.6,2l-.2,0,0,.22.22,0v-.13q.4,1.25.9,2.43a.34.34,0,0,0,.09.21,33.29,33.29,0,0,0,1.58,3.23c0,.13,0,.26,0,.38a.37.37,0,0,1,.17,0c.23.42.48.82.73,1.22-.09.12-.2.23,0,.28,0,0,0-.09.06-.14.35.56.72,1.1,1.11,1.64a.2.2,0,0,0,.19.26l.29.39,0,.26a.15.15,0,0,0,.16,0,34.77,34.77,0,0,0,4.52,4.79c-.08.17-.15.35-.21.52-.78-.67-1.52-1.38-2.24-2.12.15,0,.32-.21-.06-.26a.73.73,0,0,0-.06.14,34.55,34.55,0,0,1-5.81-8.18c.39,0,0-.28,0,0a33.69,33.69,0,0,1-2.14-5.26l.07,0c-.05-.14-.08-.32-.18-.39q-.41-1.29-.69-2.64a.14.14,0,0,0,0-.07c0-.16-.07-.33-.1-.49.36,0,.12-.76-.07-.34h0a35.28,35.28,0,0,1-.6-8.09c.2-.14.3-.28.22-.38.06-.47-.34,0,0,0l-.21.09a35,35,0,0,1,.6-4.83c.05,0,.1,0,.13-.12,0,0-.06,0-.1-.06a36.13,36.13,0,0,1,1-3.84h0a.28.28,0,0,0,0-.09c.14-.42.29-.84.44-1.25a1.25,1.25,0,0,0,.29.71,1.48,1.48,0,0,0-.09-.89.16.16,0,0,1-.18.13c0-.11.08-.23.13-.35h0V32.5c.22-.57.45-1.13.7-1.68h0v0c.14-.31.29-.62.44-.93l0,0V29.8c.22-.45.44-.89.68-1.33,0,0,0,0,0-.08l.27-.49c0,.31.06.65.3.4-.28.07,0-.5-.22-.54.49-.84,1-1.66,1.56-2.46.12.14,0,.56.3.49-.09-.19-.08-.58-.23-.6.1-.14.2-.27.29-.41,0,0,0,0,0-.05.2-.28.41-.57.63-.85a.14.14,0,0,0,.09,0l0-.11.27-.34c.17,0,.16-.08.09-.12A36,36,0,0,1,21,20.23a.45.45,0,0,0,.31.32,2.94,2.94,0,0,1-.08-.54,34.38,34.38,0,0,1,12.41-7.68,1.63,1.63,0,0,1-.11.31c.25,0,.26-.23.33-.39l1.38-.44c.15.1.17,0,.32-.05m-16.29,56h0m-1.77-2.18c.17.43.09-.45,0,0m-2.63-4.22.22,0a1.64,1.64,0,0,1,0-.22l-.23,0,0,.22m-1.57-3.54c.32,0-.15-.45,0,0-.33.06.15.45,0,0m-1.56-5.66c-.47-.07,0,.33,0,0,.33-.06-.15-.45,0,0m-.6-3.86c-.05-.05.08.06,0,0m-.09-3.13h0m-.26-1.54c.32.4.12-.38,0,0M11.24,39a.58.58,0,0,0,.28.53.53.53,0,0,0-.28-.53m1.15-4.15h0m1.21-3.58c.46.06,0-.34,0,0m3-5.23c.17.43.09-.45,0,0M38.86,11.22h0m-2.62.48c.17.43.08-.45,0,0m4.12-1a.43.43,0,0,0,0,.05l.22,0v-.06l.55-.07c0,.16,0,.35.25.28a.31.31,0,0,0-.19-.29l1.13-.12c.13.15.31.21.36.06a.14.14,0,0,1-.13-.08c.67,0,1.34-.08,2-.1,0,.2.11.36.27.42a.54.54,0,0,1,.07-.35c-.09,0-.13,0-.19-.07.51,0,1,0,1.55,0l.09.53c-1,0-1.91,0-2.87,0,0,0,0-.05,0,0-.82,0-1.64.12-2.47.22a.46.46,0,0,0-.25-.43,1.67,1.67,0,0,1,0,.46l-.76.12s0-.11,0-.17.32.14.33,0-.32-.14-.33,0c-.12-.06-.14-.24-.35-.19a.75.75,0,0,1,.12.39l-.31,0a1.47,1.47,0,0,1-.12-.51l.77-.13c0,.11.17.08.19,0h.1m1.13.17c.17.42.09-.45,0,0M11.26,51.57v0h0a0,0,0,0,0,0,0M76,59.85a.36.36,0,0,0,.11.1.91.91,0,0,0,.22.44l-.16.31c0-.1,0-.17-.09,0l0,.07A1.19,1.19,0,0,1,76,61c-.12,0-.24,0-.25.13a.26.26,0,0,1,.15.07c-.49.92-1,1.82-1.58,2.69a.34.34,0,0,0-.2-.13c-.11.13-.12.33.06.34l-.53.79c-.1-.18-.19-.36-.29-.53l.3-.43.3-.47c0,.07-.08.11-.07.21.24.12.28-.26.16-.34A34.1,34.1,0,0,0,76,59.85m-1.45,3.39h0m.07-.34c.47.06,0-.34,0,0m.5-.61-.22,0c0,.07,0,.15,0,.22l.22,0c0-.08,0-.15,0-.22m0-.22c.17.42.08-.46,0,0m.73-1.64c.1.67.17-.45,0,0M34.26,18.76l-.47.21,1.14,2.57-1.47.65c0-.14,0-.38-.09-.13a1.57,1.57,0,0,0,0,.16l-.24.1-2.82-6.39,1.77-.78a4.88,4.88,0,0,1,1.16-.39,1.5,1.5,0,0,1,.72.05,1.15,1.15,0,0,1,.48.37,5.18,5.18,0,0,1,.46.86l.24.56a2.34,2.34,0,0,1,.26.95.93.93,0,0,1-.3.65,2.67,2.67,0,0,1-.87.56m-1.57,1.92h0m.92-3.63-.23-.53a.69.69,0,0,0-.3-.38.79.79,0,0,0-.49.1l.71,1.63.14-.05a.45.45,0,0,0,.28-.26.8.8,0,0,0-.11-.51m24.76,9.29a23.56,23.56,0,0,1,3.19,2.71,2.27,2.27,0,0,1-.41-.21c-.08-.15-.13,0,0,0,0,.11-.21.14-.19.31l-.23-.22c0-.15.27-.14.17-.4-.25,0-.14.23-.31.26,0-.15,0-.3,0-.45-.4,0-.54-.27-.86-.35-.47-.4-1-.78-1.46-1.13.05-.16.1-.33.14-.52M59,27c-.06,0,.08.07,0,0M55.14,12.31l.43.13a1.06,1.06,0,0,1-.06-.28.33.33,0,0,0-.37.15m0-.55a.5.5,0,0,0,.14.31c-.21,0-.23.15-.43.15,0-.08,0-.22-.13-.21s0,.12,0,.18A33.65,33.65,0,0,0,47.93,11c0-.06-.15-.11-.19,0-.39,0-.79,0-1.18-.06l-.21-.54a34.36,34.36,0,0,1,8.79,1.42M47.35,10.5c.1.67.17-.45,0,0m7.14,1.42h0m4.06,12.9a24.18,24.18,0,0,1,3.38,2.69l0,0a.34.34,0,0,0,.14.08,24.6,24.6,0,0,1,2.76,3.17A8.31,8.31,0,0,1,63.38,30a2,2,0,0,1,.19.84c-.22-.29-.45-.57-.69-.85a1.06,1.06,0,0,0-.49-.55A23.79,23.79,0,0,0,59.81,27c.06,0,0-.48-.07-.11a.3.3,0,0,0,0,.1q-.65-.53-1.32-1a2.9,2.9,0,0,0,.08-1.15m1.92,1.63c.1.67.18-.45,0,0m.12,2.35h0M47.38,14.21c0-.19,0-.35,0-.47a1.48,1.48,0,0,0-.12-.41c.06.29.11.59.16.88M37.33,71.48h.07l-.16.49.06,0a.16.16,0,0,0,0,.17.35.35,0,0,0,.23-.1l.21.07c.07.16.1.11.1,0l.56.18-.27.88a.42.42,0,0,0-.18-.11c0-.22-.06-.34-.26-.31a.31.31,0,0,0,.26.31.3.3,0,0,0,.13.26L38,73.6l-1.15-.36-.13.43h-.06s0,.09,0,.13l-.28.9,1.35.42-.08.27-.17,0a.87.87,0,0,0,.08.31l-.24.78-3.19-1,.93-3,.14,0,0-.22h0l1-3.36h0v0l0-.09.59.18a.68.68,0,0,0,0,.43.43.43,0,0,0,.27-.35l.72.23,0,.24c.17,0,.18-.11.31-.14h0q0,.36.36.3a.58.58,0,0,0,0-.19l.81.25-.41,1.34-1.23-.38-.1.31c-.37.07,0,.27-.21.46M38,69.85h0m-.69-.26h0m-.31,6a.3.3,0,0,0-.25-.31c0,.17,0,.38.25.31m-2.29-.67c0,.13-.17.27,0,.33,0-.13.17-.27,0-.33m.17-.58c-.23.4.34-.3,0,0m.25.31c-.36.52.25-.35,0,0M35,73.73c.07.06,0,0,0,0m.31-.15c.06-.47-.33,0,0,0l0,.23.22,0c0-.19-.11-.2-.25-.2M36.23,75c0,.13-.17.27,0,.33,0-.13.17-.27,0-.33m-.54-3.19c.08.06,0-.05,0,0m.44-.05h0m.1,2.12c.19.35.23-.46,0,0m-.11-1.11c.13,0,.08.12,0,.22a.51.51,0,0,1,.34.08c.09-.29-.29-.61-.36-.3M36.31,69h0m-.2.24c.47.06,0-.33,0,0m.35,1.31c0,.13-.17.27,0,.33,0-.13.17-.27,0-.33m-.23-.09c.17.43.09-.45,0,0m.92,2.6c-.48-.35-.22.38,0,0m-.58-1.4c0-.33-.44.15,0,0,0,.44.5.6.21,1,.81,0,0-.8-.21-1m.26-.81c-.37,0-.39.56,0,.44,0-.14,0-.29,0-.44m.13.21c.17.43.08-.45,0,0M55.6,16.49l1-2.18,1.09.49c0,.22.08.36.26.37a.67.67,0,0,0-.12-.31l.48.21,0,.07,0,0-2.11,4.71a2.06,2.06,0,0,0-.19.56.21.21,0,0,0,.14.2.23.23,0,0,0,.28,0,2.94,2.94,0,0,0,.32-.58l2.1-4.71.85.39a.43.43,0,0,0,0,.07c.09.17.15.07.16,0l.79.35L60,17.56l0,0a.36.36,0,0,0-.07.22l-.34.76-.05,0c.06-.47-.33,0,0,0,0,.05,0,.13,0,.21l-.75,1.67-.2.43c0-.05-.05-.08-.13-.08s-.19.36,0,.43a1.42,1.42,0,0,1-.13.22,1.48,1.48,0,0,1-.56.47,1.75,1.75,0,0,1-.86.18,2.47,2.47,0,0,1-.76-.16c0-.12-.07-.34-.21-.1l0,0-.07,0a3.41,3.41,0,0,1-.93-.61c.09-.16,0-.54-.13-.51a.32.32,0,0,1,0,.33,1.64,1.64,0,0,1-.37-.68,1.54,1.54,0,0,1,0-.77c.08-.23.27-.71.59-1.43l.64-1.43c.06.22.09,0,.08-.17m-1,3.37c0,.2.11.36.27.42,0-.19.05-.57-.27-.42M55,19c.46.06,0-.33,0,0m5-2.39c.17.42.08-.45,0,0m-.15-.33c.34.14.28-.52,0-.33l0,.33m-.54,1.29c.47.06,0-.33,0,0M59.1,17c.46.06,0-.34,0,0m.21,1c-.07.47.33,0,0,0,0-.47-.34,0,0,0m-.59-1.4h0m-.24-.2c.47.07,0-.33,0,0m0,2.46h0M58,20.75h0m-.37-1.53c-.17-.26.28-.49,0-.55-.06.07-.21.55,0,.55m-.16.58a.3.3,0,0,0,.25.31.31.31,0,0,0-.25-.31m0,.9c.17.42.09-.45,0,0m-.8-.26h0m-.84.53c-.36.52.25-.35,0,0m2-5.24c.17.43.08-.45,0,0m-.37.82h0m-.34-1.2c-.06.47.33,0,0,0,0-.49-.44,0,0,0m0,.68c.11,0,.14.08.23.09,0-.17,0-.39-.26-.31l0,.22m-.49,1.84c.17.42.08-.45,0,0m0-2.13h0m-.36-.3h0m0,1.34c.18.33,0,.44.29.65-.09-.23.1-.79-.29-.65M51.07,73.19a1.61,1.61,0,0,1,.82.23,1.24,1.24,0,0,1,.31.37,6.33,6.33,0,0,1,.21,1l.31,1.82-1.18.2s0,0,0,0v0l-.32.05c.06-.41.13-1.35-.28-1.46.11.44,0,1.15.21,1.47l-.2,0-.38-2.29a1.45,1.45,0,0,0-.21-.67c-.07-.08-.24-.09-.5,0L50.37,77l-.4.07c0-.19.06-.39-.13-.45,0,.11-.06.31-.07.48l-1.3.22-1-6.36c.14-.06.11-.41-.06-.36v0l0-.21.49-.08a.39.39,0,0,0,0,.11c.12.29.11,0,.07-.12l.81-.13c.66-.11,1.17-.18,1.52-.2a5.18,5.18,0,0,0,.44,2.18,7,7,0,0,0,.41,3.1,7.35,7.35,0,0,0-.41-3.1,4.17,4.17,0,0,0-.2-2.19h.08a1.29,1.29,0,0,1,.86.37,1.64,1.64,0,0,1,.38.67.14.14,0,0,0,.06.2c0,.12,0,.24.07.37a1.92,1.92,0,0,1,0,1.11,1.13,1.13,0,0,1-.78.47M47.69,71.7c.17.42.08-.45,0,0m1,.69c.1.67.17-.45,0,0M48,71c.34.13.28-.53,0-.33L48,71m0,.22c.17.43.08-.45,0,0m1,3.7-.22,0a1.8,1.8,0,0,0,0,.22l.22,0,0-.23m-.52-1.85,0,.34c.34.13.28-.53,0-.34m1,3c.28-.35-.29.35,0,0m-.1-1c.06-.47-.33,0,0,0,.23.18.08.82.52.74,0-.41-.26-1-.52-.74M49.15,73c.12.33-.16.34,0,.67.27,0,.46-.78,0-.67m.14-2c.09-.29-.3-.61-.37-.3.26-.07,0,.51.37.3m1,2h0m-.17-1.28c0-.22-.1-.35-.2-.41a.82.82,0,0,0-.47,0l.26,1.54a.89.89,0,0,0,.43-.16c.08-.07.09-.26,0-.56Zm1.57,4.17c.22,0,.2-.18.31-.26,0,.09.1.12.23.09-.14-.37-.12-.93-.64-.83.07.56.38.49.1,1m.12-3.26h0m-.44-1.08c.47.06,0-.33,0,0m2.13-54.41,0,0v0l-.25,1.16a5.67,5.67,0,0,1-.35,1.21,1,1,0,0,1-.42.42,1.37,1.37,0,0,1-.62.12,5.05,5.05,0,0,1-1-.14L50,19.8c0-.25,0-.48-.27-.47a1.24,1.24,0,0,1,.11.44l-1.46-.31.72-3.41.73-3.43,1.41.3a14.3,14.3,0,0,1,1.46.37c0,.15,0,.34.14.36,0-.15.09-.19.2-.23h0a1.49,1.49,0,0,1,.65.54,1.28,1.28,0,0,1,.11.24.13.13,0,0,0-.14,0l0,.33a.16.16,0,0,0,.18,0,.27.27,0,0,1,0,.09A7.76,7.76,0,0,1,53.72,16ZM49.12,19.5h0M49,18.06c.06-.47-.33,0,0,0-.06.47.33,0,0,0m.29-.47c-.05-.05.08.06,0,0m.83.58a.29.29,0,0,0,.25.31.31.31,0,0,0-.25-.31m3.64-2.59h0M53.68,15c-.07-.15.08-.58-.16-.54a.35.35,0,0,0,.16.54m-.78-1.15c.27,0,.12.52.49.4,0-.24-.33-.74-.49-.4m-.36-.3c0-.13.17-.27,0-.33,0,.13-.17.27,0,.33m-.25.81c.06-.47-.34,0,0,0a1.64,1.64,0,0,0,0,.22l.22,0c0-.19-.11-.2-.24-.2M52,13.85l.22,0,0-.22-.22,0c0,.08,0,.15,0,.23m-.6-.51h0m-.37.82c.17.43.09-.45,0,0m-.56,1.07c.1.67.17-.45,0,0m-.24.92c.46.06,0-.34,0,0m.09,1c.27,0,.42-.82.05-.67.11.33-.16.34-.05.67m.32-.14h0m.14,2.56c.32.41.13-.38,0,0m.57-1.74.15-.72a.32.32,0,0,0,.28.13,4.38,4.38,0,0,1-.19-.58l.24-1.09c.15,0,.1-.1,0-.13l.06-.27a2.44,2.44,0,0,0,.09-.6.27.27,0,0,0-.1-.22.86.86,0,0,0-.34-.14c0-.16-.09-.34-.23-.4,0,.21,0,.42.14.5l-.09.43a1.33,1.33,0,0,0-.33-.34,1.33,1.33,0,0,0,.26.66l-.51,2.39h0s0,0,0,0l-.26,1.25c.27,0,.45,0,.53-.05a2.09,2.09,0,0,0,.28-.82M52.11,16c.06-.47-.33,0,0,0,.08.16.13,0,0,0m-.63,2.64h0m-.07-.67c-.28.35.29-.35,0,0m1.84-.51c-.73.42-.5-1.14-1.12-1.24a3.33,3.33,0,0,0,.57,1.29c-.09.06-.19.12-.2.24-.19-.23-1.12.09-.75.3.07-.33.19.24.46.07a.29.29,0,0,0,.25.31.31.31,0,0,0-.25-.31c-.22-.38.36-.1.29-.37.43-.15.11.62.5.52-.25-.55.25-.48.25-.81m-.45-2.31c0,.11,0,.22,0,.33.33.13.27-.52,0-.33m.7,1.5c0-.28-.1-.46-.27-.53.06-.47-.33,0,0,0,.07.2-.08.68.27.53M46.7,69.08h-.19c0-.06,0-.13-.19-.06.32-.38-.41-.15,0,0a.14.14,0,0,0,0,.07,24,24,0,0,1-10.07-1.72c.08-.34.19-.66.27-1l.19.08h0c.08.19.1.12.1,0l.55.21a.39.39,0,0,0,.52.32l-.06-.16a23,23,0,0,0,7.6,1.23.77.77,0,0,0,.16.41l.33,0c.12.38.44.12.43-.15-.2,0-.22.16-.43.15,0-.34-.36-.14-.19-.39a23,23,0,0,0,4.09-.45l.67-.14a8.14,8.14,0,0,0,.31,1l-.79.17a24.22,24.22,0,0,1-3.13.42,1,1,0,0,0,0-.2c.32-.06-.15-.45,0,0-.19,0-.2.14-.16.21M49,68.43c.38.33.14-.41,0,0m-.79,0c0,.15,0,.3,0,.45l.33,0c0-.3-.09-.48-.38-.42m-.13-.21.22,0a1.64,1.64,0,0,0,0-.22l-.22,0,0,.22m-.48.72c0-.25.19-.85-.2-.87.09.26-.06.81.2.87m-7.35-1.29h0M38.55,68h0m-.07-.66h0m1.83.49c.19.35.23-.46,0,0m.64.83c0-.2-.11-.36-.27-.42,0,.26.07.42.27.42m.62-.39,0,.22c.12,0,.14.08.24.09,0-.18,0-.39-.26-.31m.92.24h0m.06-.45c-.38.09-.35.16-.66.06a.92.92,0,0,0,.29.65c.11-.25.26-.46.37-.71m.61.5c0-.49-.44,0,0,0-.07.53.5-.17,0,0m1.22,0c0,.29-.11.4.16.54,0-.19.3-.62-.16-.54M63.82,57.33c-.25.38-.52.76-.8,1.12a.82.82,0,0,1,.42.28,21.83,21.83,0,0,0,1.64-2.49c-.1-.16-.19-.34-.28-.52-.3.55-.63,1.09-1,1.61m.71,4.33-.66.69L65.57,64c-.32-.75-.66-1.53-1-2.31M45.19,21.84l-.07,0v0h.07M64.37,31c.15-.08,0-.13,0,0m.52,24.56a22.5,22.5,0,0,0,1.67-3.95h0v-.13c.1-.33.19-.67.28-1,.27,0,.14-.14,0-.13a21.93,21.93,0,0,0,.47-8.14c.15.33.28.65.41,1-.13-.51-.2-.85.07-1.2a22.71,22.71,0,0,1-2.63,14l-.34-.42M68,44.07h0m-.38,1.72c.47.06,0-.34,0,0m0,.22c.2.35.23-.46,0,0m.13,2.45c0-.14.17-.27,0-.34,0,.14-.18.28,0,.34m-1.29,3.82c.46.06,0-.34,0,0-.16.08,0,.13,0,0m-.95,2.78c.1.67.17-.45,0,0m8.36-23.59H74l-.85,1.21.14.4c-.06.27-.14.54-.21.8l-.83-.26-1.17.91v-1c.26.18.13-.28,0-.15V33l-1.22-.82,1.39-.47.41-1.42.88,1.19,1.2-.05s.08.05.1,0m-2.11,2.38c-.05-.05.08.06,0,0m.29-.48c.31.41.12-.38,0,0m.44-1.16-.22,0c0,.07,0,.15,0,.22l.22,0c0-.07,0-.15,0-.22m.91,1a1.82,1.82,0,0,1-.14.66l.43.13ZM64.12,60.07a6.62,6.62,0,0,0-.46-1l.16-.21c.14,0,.18-.11.16-.23.19-.26.38-.52.56-.79s.52-.81.76-1.22a5.22,5.22,0,0,0,.41.57,2.38,2.38,0,0,0-.26-.83,23.43,23.43,0,0,0,2.14-5.2c.19,0,.18.19.33.22.14-.16.13-.68-.17-.65a.21.21,0,0,1-.07.11,23.14,23.14,0,0,0,.73-6.46h0c0-.13,0-.33-.06-.42,0-.45-.06-.9-.11-1.36a.62.62,0,0,0,0-.3c-.07-.62-.17-1.23-.29-1.85q-.24-1.16-.57-2.25h0a.77.77,0,0,0-.3-.87c-.16-.47-.34-.93-.53-1.38.06,0,0-.44-.07-.16a23,23,0,0,0-2.91-4.94,2,2,0,0,1,.77.15c.29.2.64.34.95.52a24,24,0,0,1,2.94,6.09s0,0,0,.06.06.12.08.12q.23.75.42,1.53a.65.65,0,0,0-.25-.33c0,.07,0,.13-.1.12s-.13,0-.1.12c.35,0,.24.5.55.51,0,.17.07.34.11.51a23.41,23.41,0,0,1,.42,3.31c-.29-.16-.26-.72-.62-.79a1.1,1.1,0,0,1-.23,1.14c.55-.42.55.38.89.56a23.17,23.17,0,0,1-.48,5.35c-.09,0-.21.23,0,.23a24.27,24.27,0,0,1-4.77,10m5-15.33c0-.05.08.06,0,0m-.91-5.85.22,0a1.64,1.64,0,0,0,0-.22l-.22,0,0,.22m.32,2.1h0M66,34h0m.17-.57h0m2.1,7.85c.17.43.09-.45,0,0m.24,3.56h0m.16,5c.15-.08,0-.13,0,0-.47-.06,0,.34,0,0m-.36.82c.13-.15.11-.56-.17-.54-.13.15-.11.56.17.54m-1.09,2.57c.47.06,0-.33,0,0M67,54.57c.07.07-.06,0,0,0m-.49.72.22,0,0-.22-.22,0c0,.08,0,.15,0,.22m-.26.7c.07.07-.06,0,0,0m0,.22h0m3.11-12.3a.49.49,0,0,0,0,.47c0-.16,0-.31,0-.47M67.72,67.38c0,.13,0,.2-.09.23.09.19.18.36.28.53a1.81,1.81,0,0,1-.9.17,1.43,1.43,0,0,1-.72-.27c-.19-.15-.58-.5-1.15-1l-3-2.86,1.33-1.39,2.59,2.48c.21.51.4,1,.58,1.47.33.25.56.64,1.07.68m-4.16-2.73c-.09,0-.12-.1-.23-.09-.13.34.35.49.23.09.33-.05-.15-.45,0,0M63.49,64c0,.11,0,.22,0,.33.33.13.27-.53,0-.33m1.09,1.81h0l0,0m-.33-2c.33.54.25-.41,0,0m1.61,1.63h0m.08.78c.46.06,0-.33,0,0m.46.18c.17.42.08-.45,0,0m.68,1.28c.08.06,0,0,0,0m0-.34h0M46.13,74a1,1,0,0,1-.56.45,2,2,0,0,1-.74.12c-.09-.1-.27-.09-.42-.11a.37.37,0,0,0,0,.11l-.39,0-.12,2.81h-.36c.08-.07-.18-.23-.19,0L42,77.3l.12-3,.06,0c0-.17.16-.21.19-.36a.24.24,0,0,0-.24.08l0-.71a.89.89,0,0,0,.18.3c.26-.22.09-.67-.15-.94l.1-2.42.49,0a.6.6,0,0,0,.24.14c.07.26-.17.26,0,.56.41.07.38-.59,0-.56,0,0,0-.09,0-.13l1.22.05a4.68,4.68,0,0,1,1.2.17,1.32,1.32,0,0,1,.6.34,4.91,4.91,0,0,0,.23,1.94.51.51,0,0,0,.08-.18v.38q0,.18,0,.33a1.08,1.08,0,0,0-.08.42.93.93,0,0,1-.08.22m-3.77,2.23h0m-.08.34c.47.06,0-.33,0,0m2.21-5.81c.11,0,.14.08.23.09,0-.17,0-.39-.25-.31a1.64,1.64,0,0,0,0,.22m-.33,0c-.25.59.42.38,0,0m-.37.82c-.25-.18,0-1-.43-1,.07.41,0,1,.43,1m-.69.85c.17.43.08-.45,0,0m0,.79.23,0c0-.14.12-.17.07-.35l-.33,0,0,.33m.14.21a1.5,1.5,0,0,0,0,.22l.22,0a1.64,1.64,0,0,1,0-.22l-.22,0m.22,3.45a.3.3,0,0,0-.25-.31c-.14.18-.12.44.25.31m-.29-1.88c0,.21.16.23.15.44h-.11c-.09-.48-.62.18,0,0a.31.31,0,0,0,.26.31c0-.09,0-.8-.3-.76m1.17-.56c-.56-.27-.9-.8-1.74-.72a3.18,3.18,0,0,0,1.74.72m.34-2.77a.82.82,0,0,0-.49-.13l-.07,1.78h.21c0,.21.12.36.37.29a1.7,1.7,0,0,1-.11-.36s0,0,0,0a.84.84,0,0,0,.13-.5l0-.58a.63.63,0,0,0-.1-.47M45.13,74c.17.43.09-.45,0,0m0-.22c.47.06,0-.33,0,0M45,71.18l-.22,0,0,.22.22,0a1.64,1.64,0,0,0,0-.22m.89,2.26-.22,0c0,.15,0,.3,0,.45l.22,0c0-.15,0-.3,0-.45M69.59,60.16a.22.22,0,0,0,0,.1c-.46.26-.66.74-1,1.1-.12,0-.1-.21-.24-.2,0,.11-.13.1-.21.13-.08-.15-.13,0,0,0a.54.54,0,0,1-.07.19l-.11-.06a10.89,10.89,0,0,1-.94-.64,1.61,1.61,0,0,1-.45-.66,1.88,1.88,0,0,1-.08-.93,3,3,0,0,1,.41-1,3.25,3.25,0,0,1,.35-.49.22.22,0,0,0,.21.13c0-.1,0-.22,0-.31a2.24,2.24,0,0,1,.47-.37,1.52,1.52,0,0,1,1-.22,3.24,3.24,0,0,1,.67.24h-.09c0,.35.18.44.38.52l0,.22.33,0,0-.22-.33,0c-.08-.12-.07-.36-.17-.47.16.08.34.18.53.3l.57.34-1,1.65-1-.63a2.2,2.2,0,0,0-.59-.29h0a.85.85,0,0,0,0-.17.31.31,0,0,0-.35-.19s0-.07,0-.11a.18.18,0,0,1-.23-.09c.1,0,.1-.05.1-.12a.4.4,0,0,0-.39.48l.22,0c0,.28.15.18.11,0,.08,0,.09-.12.21-.13.11.33-.08.41,0,.68l.09,0a.26.26,0,0,0,0,.23,2.38,2.38,0,0,0,.56.41Zm.12-1.93c.17.42.08-.45,0,0m-.11,0c0-.28,0-.54-.28-.53a.56.56,0,0,0,.28.53m-.2.24c0,.13-.17.27,0,.33,0-.13.17-.27,0-.33m-.12-.1c-.37-.19,0-.58-.4-.63,0,.34.2,1,.4.63m-1.77-1h0m-.72,2.76h0m.29-.47h0m.74.82h0m2.61.53s0-.08,0-.11,0,.11,0,.11M15.15,42.77h0s0,0,0,0ZM67.5,58.33h.11c0-.12-.12,0-.11,0m-32.45,11,.4-.79-.25-.12a8.64,8.64,0,0,1-.15.91m33.19-7.91a.85.85,0,0,1-.06.17l.16.09c0-.12,0-.25-.1-.26m-1-20.25c0-.18-.06-.36-.1-.54a22.73,22.73,0,0,0-1.19-4s0-.08.09-.07,0-.24-.21-.21a22.06,22.06,0,0,0-4.76-7.09c.46.25.91.51,1.38.74A22.77,22.77,0,0,1,67.61,40.5c.1.47.17.93.24,1.4-.21-.26-.41-.52-.63-.76M62.9,30.8c0,.13-.17.27,0,.33,0-.13.18-.27,0-.33m2,3.38c.17.43.09-.45,0,0m2.27,6.16c.17.43.09-.45,0,0m0,.45c.08.06,0,0,0,0m1.32,26.95a.85.85,0,0,1-.24-.08,1.5,1.5,0,0,1,0,.22h0l-.13.09c-.11-.23-.24-.46-.39-.72a4.49,4.49,0,0,1-.58-.92l0,0a2.13,2.13,0,0,0,.46.37.21.21,0,0,0,.24-.07A.24.24,0,0,0,68,66.4a2.38,2.38,0,0,0-.44-.49l-1-.92a4,4,0,0,0-1.08-1.54c.45-.39-.51-1.09-.6-1.62.33-.06-.15-.45,0,0a1.61,1.61,0,0,1-.24-.36L65.2,61l2.09,2c-.18.16-.28.35-.06.56,0-.11.12-.1.21-.13.08.15.13,0,0,0l.1-.18,1,1q.27.25.45.45a.43.43,0,0,0,0,.05c.07.18.1.12.1,0a2.21,2.21,0,0,1,.23.28,1.45,1.45,0,0,1,.26.69,1.8,1.8,0,0,1-.13.87,2.63,2.63,0,0,1-.59.87,2.45,2.45,0,0,1-.34.31M65,61.26c.31.41.12-.38,0,0m1.06.68h0m0,1.69c.07.06-.06,0,0,0m.48.4c-.23.4.34-.31,0,0m.39-.6c0,.16-.17.2-.19.35.23.08.46-.33.19-.35m.39.63h0m1.43,3.22.22,0a1.64,1.64,0,0,1,0-.22l-.22,0a1.64,1.64,0,0,0,0,.22m-.16-.43h0m-.92-2.6c.18,0,.2.09.34.08.09.16.14,0,0,0a.47.47,0,0,0-.26-.42c.05.18-.09.2-.08.34m.09,3.13c.06,0,.13,0,.1-.12s-.1,0-.1.12M76.93,38s0,0,0,0l0,0ZM36,65.68c-.13,0-.08-.15,0,0,.27.19.4,0,.46-.24l-.52-.23a2.46,2.46,0,0,1-.28.41l.38.18a.56.56,0,0,0,0-.12M70.71,61.6h0M35.46,65.54a1.8,1.8,0,0,0,.15-.48,22.88,22.88,0,0,1-2.68-1.53c-.34-.22-.66-.45-1-.69-.05.16-.1.33-.16.5.42.31.84.6,1.28.87,0,0,.12,0,.12.08a21.76,21.76,0,0,0,2.27,1.25m3.72.95c-.16.26,0,.05.09,0a22.15,22.15,0,0,0,10.39.39l.67-.15a3.86,3.86,0,0,0,.09.49c-.22.06-.44.1-.66.15a22.67,22.67,0,0,1-12.08-.86.39.39,0,0,0-.31-.24.45.45,0,0,0,0,.12l-.74-.28a1.91,1.91,0,0,0,0-.53,23.37,23.37,0,0,0,2.59.91.13.13,0,0,0-.06,0m4.22,1.15c.47.06,0-.33,0,0m-12.11-3c.13-.32.26-.64.38-1l.07,0h-.06a1.79,1.79,0,0,1,0,.23.14.14,0,0,0,.22-.1l.16.11,0,.06c.26,0,.16.31.37.3a.18.18,0,0,0,.07-.08l.17.1c.15.3.25.65.7.56-.06.47.34,0,0,0,0-.08-.1-.1-.12-.19.24.14.48.29.72.42a.09.09,0,0,0,0,0c.11,0,.29.15.42.18l.74.37c0,.18,0,.34.15.33.16-.35.27.4.58.28a.45.45,0,0,0-.15-.33l.41.18a4.54,4.54,0,0,1-.11,1,24.18,24.18,0,0,1-3-1.51.2.2,0,0,0,.13,0,.3.3,0,0,0-.25-.31c0,.12,0,.27.11.31-.57-.34-1.13-.7-1.67-1.08m3.38,1.26c0-.29-.18-.35-.47-.29,0,.3.26.27.47.29M30,68l.29-.55c-.18,0-.23.28-.29.55m.79,2.47,1.7-3.39,2.38,1.19a3.44,3.44,0,0,0,0,1.39l-.07.13-1.19-.6-.06.11a.19.19,0,0,0-.12,0,.47.47,0,0,1,0,.18l-.44.88,1.07.53-.2.38c-.06,0-.14,0-.13.13h.07l-.34.68-1.06-.53-.78,1.55a.38.38,0,0,0-.14.27l-.4.8L29.4,73.3l1.31-2.62.21,0,0-.22h-.06m-.29,2c-.12-.19-.06-.6-.39-.53,0,.32.05.61.39.53m.1-1.24c.06-.48-.33,0,0,0,.08.15.13,0,0,0m2.67.07h0M33,69.22c.28.15.28-.41.07-.34,0,.07,0,.13-.09.12a1.64,1.64,0,0,0,0,.22m-.64-.83h0m0,.44c.34.13.28-.53,0-.33l0,.33m.11,2.23c.16,0,.41,0,.43-.15-.23,0-.09-.56-.48-.4l0,.55m-.71-.49c.39.14.45-.79,0-.68.11.34-.07.42,0,.68m0,1.23c.11,0,.14.08.23.09,0-.17,0-.38-.26-.31l0,.22M73,62.14a3,3,0,0,1-.52.58l-.21-.37.23,0,0-.22c-.19,0-.2.11-.2.25-.22,0-.14-.41-.37-.42.11.28.26.58.43.91l-.12.08a1.42,1.42,0,0,1-1.06.2,3.08,3.08,0,0,1-.7-.26c-.07-.16-.24-.27-.32-.16l-.26-.15c0-.12-.07-.24-.26-.17v0l-.94-.56a4.58,4.58,0,0,0,.94-1.58.39.39,0,0,0,.17,0l.23.14c-.25.34.22.78.2,1.37.36.07.2-.31.41-.37.06.43-.18.6-.25.92.39,0,.31-.56.64-.29-.18-.33,0-.32-.08-.77-.18,0-.17.12-.31.14l0-.22h.11a.93.93,0,0,0-.34-.55l.9.54a1.79,1.79,0,0,0,.61.29c.11,0,.2,0,.28-.16a.27.27,0,0,0,0-.32,1.05,1.05,0,0,0-.28-.24l0-.35c.18-.06.44-.57.15-.68-.06.24-.41.47-.15.68l-.22,0a.86.86,0,0,0,0,.17l-.07,0-.75-.45,1-1.65.23.14c.2.12.38.23.53.34-.09.21-.53.31-.16.52a1.2,1.2,0,0,0,.29-.43,3,3,0,0,1,.57.51,1.55,1.55,0,0,1,.31,1,2.52,2.52,0,0,1-.33,1.19c-.17-.26.12-.76-.23-.68l0,.33-.33,0c0,.32.32.26.51.35a.75.75,0,0,1-.07.12l-.12.19h0a.29.29,0,0,0,0,.09m.45-1.37c0-.13.18-.27,0-.33,0,.13-.17.27,0,.33M69,62h0m1.81.39c.17.42.09-.46,0,0m.35-1.05c.37.33.14-.41,0,0m.16.55c-.15.08,0,.13,0,0,.53.07-.17-.51,0,0m.34.08c0-.05.08.06,0,0m.42-2.51c.17.43.09-.45,0,0m.68,2.4-.22,0a1.64,1.64,0,0,1,0,.22l.22,0a1.64,1.64,0,0,0,0-.22m-2.3-.78c0,.09.06.1.12.1s0-.1-.12-.1M52.18,27.25l-.09.17c.24,0,.45.11.47.38l.13,0-.51-.51M20.89,66.58a3,3,0,0,1-.67-1.18,1.39,1.39,0,0,1,.06-1,3.42,3.42,0,0,1,.8-.93l.34-.3,1.18,1.34-.64.56-.19.2c-.07,0-.12,0-.15.14h0l0,0a.28.28,0,0,0,.09.28.29.29,0,0,0,.29.12.81.81,0,0,0,.38-.21,1.24,1.24,0,0,0,.49-.67,4.81,4.81,0,0,0-.12-1.09,9,9,0,0,1-.14-1.15,1.58,1.58,0,0,1,.17-.66,2.38,2.38,0,0,1,.58-.72,2.46,2.46,0,0,1,1-.61,1.41,1.41,0,0,1,.9.14,2.94,2.94,0,0,1,.93.74,3.32,3.32,0,0,1,.67,1.11,1.31,1.31,0,0,1,0,.91,2.75,2.75,0,0,1-.77.91l-.21.18L24.78,63.4l.39-.34.11-.1c.08.19.09,0,.07-.08a.54.54,0,0,0,.12-.18.24.24,0,0,0-.08-.24.28.28,0,0,0-.27-.11h0a.43.43,0,0,0-.24-.18.49.49,0,0,0,0,.28l-.12.09a1,1,0,0,0-.33.43,1.3,1.3,0,0,0,0,.69,5.68,5.68,0,0,1,.18,2,2.51,2.51,0,0,1-.9,1.23,2.41,2.41,0,0,1-.95.59,1.46,1.46,0,0,1-.92-.15,3,3,0,0,1-1-.76m4.58-2.66c.47.06,0-.34,0,0m-.66-2.18c.29.15.29-.41.08-.34,0,.07,0,.13-.1.12l0,.22m-.69,2c.14,0,.17.13.34.08a.31.31,0,0,0-.25-.31c0,.11-.08.14-.09.23m0,.34c.6.06.1-.35,0,0m-.37-1.54h0m-.11,1.13h0m-.55,1.18.22,0a1.8,1.8,0,0,1,0-.22l-.22,0a1.8,1.8,0,0,0,0,.22m-1.84-.6c.07.85.22-.39,0,0M35,24.92a1.83,1.83,0,0,0-.07-.23l.7-.34a.2.2,0,0,0,.22.15c0-.11.08-.18.09-.29a23.11,23.11,0,0,1,8.4-2,1.41,1.41,0,0,1,0,.5l-.36,0a.39.39,0,0,0-.21-.14.83.83,0,0,1,0,.15c-.38,0-.76.06-1.14.11,0-.12,0-.21-.1,0v0l-.78.11c-.07-.1-.18-.12-.2,0l-.69.13a22.16,22.16,0,0,0-8.27,3.5c-.09-.13-.2-.23-.25,0a.38.38,0,0,1,.11.11l-.67.49c0-.23,0-.45-.15-.52a22.88,22.88,0,0,1,3.11-1.94.19.19,0,0,0,.21.15m4.52-1.56h0m-8.95,39-.35-.31.1,0a.32.32,0,0,0-.26-.31.33.33,0,0,0,.07.19A22.71,22.71,0,0,1,25,55.46c.31,0,0-.24-.05-.1a22.64,22.64,0,0,1-2-5.9c-.07-.35-.13-.71-.19-1.07.12.14.39.17.42,0-.22,0-.18-.28-.45-.18v0a.33.33,0,0,0,0-.34c-.06-.49-.11-1-.13-1.47l.47-.47a21.79,21.79,0,0,0,.36,3.19c0-.05-.08-.06-.13.07.1.13.15.14.17.11a.69.69,0,0,0,0,.13,22.22,22.22,0,0,0,4.82,10c0,.16,0,.33.14.35a.5.5,0,0,1,0-.17,22.18,22.18,0,0,0,3.35,3.15l-.19.48c-.32-.24-.64-.5-.95-.76.34,0,0-.28-.06,0m-6.7-10.5c-.15,0-.12-.18-.25-.2-.1.24.23.52.25.2m7,10.62c.17.42.09-.45,0,0M28,65.19v0c.2.08.25-.12.21-.25l.55-.55,1.78,1.34c-.06.25-.13.52-.19.8.1-.2.22-.43.34-.69l.29.22-.62,1.17c-.06-.18,0-.27,0-.59-.36.12-.22-.39-.48-.4-.29.36.12.58.3.75a1.76,1.76,0,0,0-.52,1.51.05.05,0,0,1,0,0l-2,3.78a.3.3,0,0,0-.23-.19.19.19,0,0,1,0,.08l-1.36-1,.68-1.06-.55-.42-.85.94-.66-.5a.22.22,0,0,0-.09-.07l-.84-.63Zm-2.28,4c.47.06,0-.34,0,0m.45,0c0,.29.08.47.37.41,0-.28-.2-.33-.37-.41m1.58-2c.47.06,0-.34,0,0m-.6-.5c.17.42.08-.45,0,0m.13,3.57c.46.06,0-.34,0,0m.22-1.14c.31.4.12-.39,0,0m.35,1.31c.1.67.17-.45,0,0m1-4.58c.17.42.09-.45,0,0m-.62,1.52,0-.11-.22,0,0,.22h.09q-.42.42-.72.75c-.13-.23-.22.06-.16.16l-.28.31.53.4.2-.34h0v0c.37-.61.81-1.33,1.32-2.15-.28.28-.55.54-.78.78M22.74,42.92a.86.86,0,0,0-.13-.29c0-.36.08-.71.14-1.06a.3.3,0,0,0,.28-.25.32.32,0,0,0-.27.15c.12-.75.28-1.5.47-2.23a.22.22,0,0,0,.28.13.36.36,0,0,0-.23-.34l.24-.83.1,0a.56.56,0,0,0,0-.28,22.86,22.86,0,0,1,5.54-9.06c0,.15.1.27.26.26a.89.89,0,0,0-.09-.43l.57-.54s.1,0,.2,0a.53.53,0,0,1-.06-.14c.49-.44,1-.87,1.54-1.27,0,0-.13.1-.16.16.13,0,.2.2.25.4-.49.38-1,.79-1.44,1.21,0,0-.1-.06-.21,0a1.49,1.49,0,0,0,0,.21,23.05,23.05,0,0,0-1.86,2c-.05-.19.13-.32-.2-.3,0,.19,0,.32.13.38a21,21,0,0,0-1.32,1.78l0,0s0,0,0,0l0,0c-.24.36-.46.72-.67,1.08a.52.52,0,0,0-.11-.07c.06-.47-.34,0,0,0a.42.42,0,0,0,0,.24,23.06,23.06,0,0,0-1.46,3h0v0a23.12,23.12,0,0,0-1.17,4.2l-.18.17.16,0c-.11.62-.19,1.24-.24,1.87,0,.06,0,.13,0,.19-.05.7-.07,1.41-.05,2.12a1.18,1.18,0,0,1-.49.34,22.83,22.83,0,0,1,.07-2.87.31.31,0,0,0,.16,0m-.09,1.35c.17.42.09-.45,0,0m.15.32c.17.42.08-.45,0,0m7.89-17c.07.07-.06,0,0,0m-2,2h0m-1.39,1.71c.47.06,0-.34,0,0m-1.82,3h0m-1.09,2.46c.2.29.35-.2.09-.23,0,.11-.08.14-.09.23m-.15-.32h0m-.66,3.42h0m-.39.6c.18.43.09-.45,0,0M9.22,54.32c-.17-.66-.33-1.33-.46-2-.17-.85-.31-1.7-.42-2.54.15.15.16-.42,0-.12A37.32,37.32,0,0,1,8,45c.38,0,1-.28,1-.79a4.38,4.38,0,0,0,1.19-.42c0,.74,0,1.48,0,2.23,0,0-.08,0-.11.09a.44.44,0,0,0,.12.12v.15l-.09.07c-.14.25,0,.06.09,0a36.28,36.28,0,0,0,.66,5.52c.07.32.13.63.2.94-.63.42-1.85,1-1.06,1.53.38-.14.34-.73.75-.3-.07-.49.19-.71.37-1l.3,1.18a.26.26,0,0,0-.32,0c.17.17.3.4.48.56l.21.7h0c.25.81.53,1.61.84,2.39a5.56,5.56,0,0,1-1.4,1.86.54.54,0,0,0-.16-.1,36.06,36.06,0,0,1-1.79-5.22c.1-.1.32-.2,0-.26,0,.06,0,.11-.07.12m3,3.84c-.05-.19,0-.56-.27-.42,0,.26.07.42.27.42m-1.17-1.67a.54.54,0,0,1,.08-.35l-.22,0c-.11.17-.09.28.14.32m.06,2.9c0-.13.18-.27,0-.33,0,.13-.17.27,0,.33M9.5,45c0,.49.44,0,0,0,.06-.47-.33,0,0,0m-.36-.3h0M9.58,47c.33.54.25-.41,0,0m.48,2.52c0-.23-.08-1-.28-.53.3.06-.19.55.28.53m-.91,2.11c0,.09,0,.1.12.1a1.64,1.64,0,0,1,0,.22l.22,0c0-.19-.1-.2-.24-.2,0-.1,0-.1-.12-.1A.65.65,0,0,1,9,51.21l.22,0A.31.31,0,0,0,9,50.87c0,.11,0,.22,0,.34H8.89c0,.19-.06.56.26.42m-.09-.89h0m1.2,6.49c.38.33.14-.41,0,0m-.58-2.52a1.64,1.64,0,0,0,0,.22l.22,0,0-.22-.22,0m-.25-2.55c-.23.4.34-.3,0,0m.3.87h0M9,47.85a.3.3,0,0,0-.25-.31c0,.17,0,.38.25.31m.43,1c.17.43.08-.45,0,0m.2-.24h0m-.39-.52c0,.2.11.36.27.42.18-.22-.07-.34-.27-.42M9,47H9m-.48-1.52a.3.3,0,0,0-.25-.31c0,.17,0,.38.25.31m0,.79c-.33.38.4.14,0,0-.08-.2-.1-.46-.28-.54-.16.19-.1.65.28.54M9,50.53c0-.19.06-.57-.26-.42,0,.25.07.41.26.42m-.5-.62c.17.42.08-.45,0,0m54.22,8.88a1.79,1.79,0,0,1,0,.23L63,59v-.12l.15.24a22.73,22.73,0,0,1-8.07,6.43c0-.08,0-.13-.08,0A22.63,22.63,0,0,1,51,67c0-.16-.06-.33-.08-.49a22.17,22.17,0,0,0,11.8-7.74m-6.66,5.7h0m26.16-15-.06.13h0s0-.08,0-.13M70,71.08c-.08-.16-.13,0,0,0m-47.92-49,.79-.08.2.19v0h0l.42.39-.91,1,1,.89.81-.87,1,.89-.81.88,2.17,2-.54.59c-.08-.14-.13,0,0,0l-.77.84-2-1.87c0-.05,0-.1-.13-.12l-.93-.85c0-.17-.1-.27-.25-.28v.05L20.24,24l1-1.12h.06c-.06.47.34,0,0,0a.22.22,0,0,0,0-.08Zm-1.6,2.06c.17.43.09-.45,0,0m.37.3c-.06,0,.07.07,0,0m.46.18h0m1,0a.31.31,0,0,0-.25-.31c0,.17,0,.39.25.31m-.15-1.55c-.27.45.45.45,0,0m3,4.52h0M24,26.9c.17.43.08-.45,0,0m-.76-2c0-.26-.07-.42-.26-.42,0,.19-.06.56.26.42m-8,7.58c0,.14,0,.25.15.25a.68.68,0,0,1,0-.43l0,0a1.38,1.38,0,0,1,.79-.45,1.61,1.61,0,0,1,.41,0,.26.26,0,0,0,.14.3c.07.21-.09.69.27.54-.08-.2-.1-.46-.27-.54a1,1,0,0,0,0-.27,4.37,4.37,0,0,1,.62.2l.26.1-.64,1.67-.07,0c0-.09,0-.15-.09,0l-.33-.13-.05,0h0c0-.26-.23-.14-.25-.31h.11c0-.28-.28-.25-.38-.42-.09.36.2.26.27.43-.13,0-.2,0-.21.13s.14.05.19.1H16a.27.27,0,0,0-.18.18.3.3,0,0,0,0,.29.82.82,0,0,0,.35.23,1.16,1.16,0,0,0,.53.1,1.48,1.48,0,0,0,.59-.36c.23-.19.44-.35.63-.49,0,.15-.08.18-.08.32l.22,0c.1,0,.1-.06.1-.12s-.1-.19-.21-.2l.42-.29c.09.18.25.34.31.1-.11,0-.13-.09-.17-.18a2.55,2.55,0,0,1,.47-.21,2.63,2.63,0,0,1,1.51.23,3.44,3.44,0,0,1,.54.25s-.06.05-.1.14c.12.22.18,0,.15-.12a1.71,1.71,0,0,1,.37.3,1.44,1.44,0,0,1,.3.88,2.82,2.82,0,0,1-.11.89.28.28,0,0,0-.31-.09c0,.19.13.24.24.3s0,.09,0,.14a2.85,2.85,0,0,1-.74,1.13l-.19.16c0-.08-.21-.18-.21,0h-.11c0,.06-.05.1-.07.15a1.91,1.91,0,0,1-.33.06,1.93,1.93,0,0,1-.5-.07.08.08,0,0,0,0,0c-.22,0-.17-.29-.46-.18a.18.18,0,0,0,0,.11L18.69,37l-.43-.17.21-.55c0,.17,0,.33.33.38,0-.29,0-.59-.2-.71l.21-.54a.2.2,0,0,0,.07-.19l0-.06.8.31a1.09,1.09,0,0,0,.49.11.31.31,0,0,0,.21-.21.35.35,0,0,0,0-.32.84.84,0,0,0-.37-.24,2,2,0,0,0-.64-.15.49.49,0,0,1,.23-.1c0-.32-.28-.31-.28-.64.21.19.34-.06.42-.26-.28,0-.54,0-.65.17s.05.58.08.87a5.63,5.63,0,0,0-.82.55h0l-.06,0-.26.2-.17.12s-.05,0-.08.06a2.29,2.29,0,0,1-.27.17v-.07l-.38.26a1.52,1.52,0,0,1-.45.07,1.07,1.07,0,0,1-.25,0c0-.11,0-.2-.13-.2,0,.17-.12,0-.12-.1a.29.29,0,0,0-.28.17l-.13,0c-.18-.07-.33-.14-.47-.21a1.71,1.71,0,0,0-.65-1.9c0,.17-.06.23-.17.27a2.82,2.82,0,0,1,.13-.6h0a.9.9,0,0,0,.08-.25,3.77,3.77,0,0,1,.46-.85m.32,3.14c.17.43.09-.45,0,0m3.45,1.12c.17.42.08-.45,0,0m.32-1.27h0m.44,1.08c.31.41.12-.38,0,0m.6-.62h0m.19.77-.22,0c0,.07,0,.15,0,.22l.22,0a1.5,1.5,0,0,0,0-.22m1.09-2.46h0m-.4.37c-.23.4.34-.3,0,0M20.87,34h0m0,.22c.1.67.18-.44,0,0m-.71-.49c.46.06,0-.33,0,0m-.06.57c.14.32-.58.11-.17.46,0-.17.23-.1.33,0,.07-.09.22-.57-.16-.43m-.27-.53c.46.06,0-.34,0,0m-.93-.36h0m-.43.15c.38.33.15-.41,0,0m.33,1.09c.25-.6-.55-.22,0,0m-.66.06.22,0c0-.07,0-.14,0-.22l-.22,0a1.8,1.8,0,0,1,0,.22m-.38-.52h0m-.42.27a1.07,1.07,0,0,0,.53.84c-.08-.41-.2-.75-.53-.84m-.19.35h0m-.85.42h0m.25.2c.17.43.08-.45,0,0m-.39-.52c.34.13.27-.53,0-.33l0,.33m.93-1.88a.32.32,0,0,0-.26-.31c0,.17,0,.38.26.31m-1.23-1.22h0m0,.43h0m-.08.24c.2.08.22.39.48.4.07-.33-.36-.69-.48-.4m-.12,1h0m0,.9c.1.67.17-.45,0,0m4.84,2.67h-.14a.16.16,0,0,0,0,.06.3.3,0,0,0,.11-.06m-1-10.28a.89.89,0,0,1,0,.51c-.24-.07-.47.34-.19.36.06-.12.24-.14.19-.36.28.05.22-.19.18-.41l1.16.5a.61.61,0,0,0,.38.53c-.06-.13-.09-.3-.15-.43L25,29.18,23.9,30.85l-1.12-.59-.37.58,1,.77L22.54,33a.49.49,0,0,0-.34-.1c0,.18.11.23.23.28l-.08.12-.59-.5c0-.17-.1-.27-.26-.28,0,0,0,.05,0,.07L20.76,32c0-.16,0-.36-.13-.36a.63.63,0,0,0-.07.19L17,28.72l1.45-2.28a.13.13,0,0,0,.09-.05Zm3.48,5c.46.06,0-.34,0,0m1.47-1.94c-.14,0-.12-.18-.24-.2-.1.24.23.51.24.2m-.36-.3h0m-.58.84c.17.43.08-.45,0,0m-.94-1.58c.08.06,0,0,0,0m-.29-.76c.08.07-.06,0,0,0m.23,1.21c-.06.65.48,0,0,0m-.05.68c.08.06,0-.05,0,0m-.19-.77h0m-5.05-.51c.17.43.09-.45,0,0m1,.35c.08.06-.05-.05,0,0m.81.36-.22,0a1.79,1.79,0,0,1,0,.23l.22,0a1.8,1.8,0,0,0,0-.22m-.34-.07c.47.06,0-.34,0,0m-.21-2.11c0-.16,0-.32-.14-.32s-.11.64.14.32c.19.33-.2.69.08.77.12-.09.4-.83-.08-.77M20,30.76h0m-.27-1.65h0m.56,1.17c.17.43.08-.45,0,0m.7-2c.17.43.08-.45,0,0m-.21.13c-.23.4.34-.3,0,0m.15.44h0m-.55-1.07c.38.33.15-.41,0,0m-1.3.5.45.39c0,.09,0,.15.18.19v0c.71.6,1.26,1.05,1.64,1.34l.36-.56-.17-.08a.21.21,0,0,0,.12,0c0-.21-.11-.37-.27-.42,0,.19,0,.32.14.38-.52-.24-1.11-.54-1.77-.88.1-.34.2-.72-.16-.78a.75.75,0,0,1,0,.68l-.49-.26M14.34,43.4a.27.27,0,0,0,0-.12l.77-.26v.09c-.15.08,0,.13,0,0,.13,0,.08-.21.08-.35.3,0,.21-.21.09-.38l.22-.77.88,1.18,1.48,0-.77,1.07c0-.05-.06-.11-.14-.1L17,44c-.46-.06,0,.34,0,0H17l.11.3-.13,0c-.19.22.06.34.26.43a.53.53,0,0,1,0-.13l.24.66-1.4-.44a.22.22,0,0,0-.16-.07c0,.12,0,.2-.09.23,0-.19-.11-.2-.24-.2-.12-.19-.09-.55-.29-.65s-.13,0,0,0c-.08.1-.05.7.29.65a1.18,1.18,0,0,0,.06.36l-.74.58,0-1.47L14.38,44c.19,0,.33-.08.33-.27-.15-.13-.37,0-.48.17l-.55-.37.44-.15c0,.08.08.12.22,0m3-.4c-.49-.35-.23.38,0,0m-.58,2.07h0m-.27-.53c.17.42.08-.45,0,0m-.54-.95c.15.23.18.59.5.62a.56.56,0,0,0-.5-.62m-.41-.75h0m-.16.58c.23-.32.56-.48.77-.08.2-.24-.13-.47-.39-.52,0,.29-.83.32-.38.6m-.52.38c.29.09.45-.42.17-.46,0,.17-.13.29-.17.46M25.55,19l.81-.64.87,1.1-1,.79L27,21.3l.94-.75.83,1-.25.2c-.19-.08-.52,0-.77,0,0,.37.23.27.47.21l-.4.31.6.76h0l.35.45,1.11-.88.87,1.09a.24.24,0,0,0-.22.18l-2.4,1.9L25,21.8l.36,0c0-.15,0-.3,0-.45a4.24,4.24,0,0,1-.62,0l-.84-1.06,1.6-1.27c.14.16.15,0,.11-.08M30,24.29c-.09-.44.19-.7-.2-.88,0,.25-.14.68.2.88m-.52-.73c.08.06-.05,0,0,0m-.65.17h0M27.93,21h0M27.67,23c.07.86.23-.38,0,0m-1.24-3.57c.17.43.09-.45,0,0m-.85,1.54c.38.33.15-.41,0,0m-.5-.62c-.08-.16-.13,0,0,0,.08.15.13,0,0,0m1.64,2h0m0-.32v0h0m-1.06-.58c.2.41-.28.24-.17.58a2.5,2.5,0,0,0,1.73-.51,3.6,3.6,0,0,1-1.56-.07M18,52.88l-.25-.68a3.1,3.1,0,0,1-.51.44ZM14.73,35.34a1.72,1.72,0,0,0,.34.3,7.61,7.61,0,0,1-.61-1,1.29,1.29,0,0,0,.27.7M9.06,43.92c0,.09-.1.12-.09.24H8.86c0,.4-.61.36-.84.6a37.76,37.76,0,0,1,.91-8h0c.29-1.27.64-2.51,1.05-3.73.08-.08.19-.24,0-.12.05-.16.11-.33.17-.49,0,.06.05.1.19.15,0-.14,0-.4-.06-.51.15-.4.3-.8.46-1.19.11,0,.1-.08.05-.11.17-.41.34-.81.52-1.21a.38.38,0,0,0,.18,0,1.42,1.42,0,0,0-.07-.22c.33-.71.68-1.41,1-2.09l.12,0c0-.08,0-.13,0-.16.59-1.08,1.23-2.12,1.92-3.13l0,.19c.28.11.28-.32.11-.37.27-.39.55-.78.84-1.16,0,.31,0,1,.34,1.07a2.27,2.27,0,0,0-.29-1.14c.33-.43.66-.85,1-1.27a.54.54,0,0,0,.49,0c.8-.1,1.34.09,2.24,0-.66.74-1.3,1.5-1.91,2.29h0c-.47.61-.92,1.25-1.35,1.89-.3.45-.59.9-.87,1.37a.14.14,0,0,0-.11,0,1,1,0,0,0,0,.17c-.35.6-.69,1.2-1,1.81l-.15-.08c0,.07.05.16.08.24-.38.74-.74,1.5-1.06,2.27a2.93,2.93,0,0,0-.35-1.37,8.31,8.31,0,0,0,.21,1.7c-.26.61-.49,1.23-.71,1.85a.79.79,0,0,0,0,.09h0c-.37,1.08-.69,2.18-1,3.29a.33.33,0,0,0-.29-.15c0,.3.06.44.21.52a34,34,0,0,0-.72,4.52.15.15,0,0,0-.23,0c-.08-.16-.13,0,0,0l0,.33a.17.17,0,0,0,.17,0q-.06.69-.09,1.38a4.62,4.62,0,0,1-1.12.52l0-.22c.15-.08,0-.13,0,0a.11.11,0,0,0,0,.22m8.15-21.17c.17.42.08-.45,0,0m0,.33c.17.43.08-.45,0,0m-.19.36c.17.42.09-.45,0,0m-.21.13c-.23.4.34-.31,0,0m-.22-1.1a.3.3,0,0,0-.25-.31c0,.17,0,.39.25.31m0,.9c.17.42.08-.45,0,0m-.49.72c.18.42.09-.45,0,0m-1.24,3.14h0m.14-.8c.47.07,0-.33,0,0M14.86,26h0m-.19.36c-.26.45.45.44,0,0M14.16,28c-.06-.2-.08-.47-.37-.41.07.21.08.48.37.41m.19-.35c.17.42.08-.45,0,0m-.41-1.86a.32.32,0,0,0-.25-.32c0,.18,0,.39.25.32m-.24.92c.3,0,.29.38.6.39a2,2,0,0,1-.29-.91A.45.45,0,0,0,14,26c0,.07,0,.13,0,.18,0,.26-.38.2-.31.52m-.07.45c.18,0,.12.27.36.19,0-.11,0-.22,0-.33s-.31,0-.32.14m.25,1.32c-.06,0,.07.07,0,0m-.42-.86c.38.33.14-.41,0,0m.22,1.1c-.23.4.34-.3,0,0m-1.14-.22c-.15.08,0,.13,0,0,.4-.13,0-.39-.16-.55-.06.33.18.28.16.55m0,.56c.17.43.08-.45,0,0m-1.71,7.56h0m0-.44a.31.31,0,0,0-.25-.32c0,.18,0,.39.25.32m0-.9h0m.7-.85c-.05,0,.08.06,0,0m.36-.82c-.05,0,.08.06,0,0m.16-.69-.22,0a1.64,1.64,0,0,0,0,.22l.22,0a1.64,1.64,0,0,1,0-.22m.2-2.48c.47.06,0-.34,0,0m.18.76c.1.67.18-.44,0,0m.06.56c.17.42.08-.45,0,0m-.66-1.06c0-.28-.08-.57-.38-.52,0,.32,0,.61.38.52m-.36.82c.17.43.08-.45,0,0m.07.78.22,0c0-.08,0-.15,0-.23l-.22,0c0,.07,0,.14,0,.22m-.21,1.25a1.64,1.64,0,0,1,0,.22l.33,0a1.5,1.5,0,0,0,0-.22l-.33,0M10.9,32.1c.17.43.08-.45,0,0m-.05,1.8s.08.06,0,0m.31.86c-.48-.35-.22.38,0,0m-.37-.41c.08.15.13,0,0,0,0-.49-.44,0,0,0m-.42.26c0,.25.12.35.36.31,0-.31-.25-.2-.36-.31m-.28-.53c.47.06,0-.33,0,0m-.54,1.29c-.05,0,.08.06,0,0m-.15,1.8c.17.43.08-.45,0,0m.69,3.63c.17.42.08-.45,0,0m-.85-.7c.47.06,0-.33,0,0m.65.94c0,.08,0,.15,0,.22s.14.08.23.09c0-.17,0-.38-.25-.31m0-.33c.17.43.08-.45,0,0m-.8-3.62c.17.43.08-.45,0,0m.35,2.43c-.29.35.28-.35,0,0m-.64-2c.15.23.09.72.41.74-.19-.41.08-.65-.41-.74m.29,1.87c.47.07,0-.33,0,0m.4,2.88c.06.2.08.47.37.41-.07-.21-.09-.48-.37-.41M8.31,42c-.36.52.25-.35,0,0M9,43.26c-.48-.35-.22.38,0,0M22.38,21.69l.2,0-.13-.12ZM64.86,75.61a1.64,1.64,0,0,0,0,.22.11.11,0,0,0,0-.22M47.93,21c.49.06,1,.13,1.45.21l0,.08a.31.31,0,0,1,0-.08l.57.11c0,.11.06.19.24.11v-.07l.46.1c0,.08,0,.13.11.14l0-.1.57.14c0,.1,0,.18.18.22a1,1,0,0,1,0-.16l.78.22c.05.13.08.1.08,0,.75.23,1.49.51,2.21.81v0a.12.12,0,0,0,.08,0,24.28,24.28,0,0,1,3.76,2,8.11,8.11,0,0,0-.22,1.05l-.19-.13-.08,0c.07-.06-.07-.36-.17-.11a21.73,21.73,0,0,0-2.49-1.4s0,0,0,0h0a22.92,22.92,0,0,0-4-1.52h0a22.65,22.65,0,0,0-6-.8c.08-.1,0-.34-.24,0l-.45.05h-.18a.35.35,0,0,1-.26-.08l0,.09-.31,0c.22-.18,0-.83-.23-.84a.22.22,0,0,0,0-.15,25,25,0,0,1,3,0s0,.08.14.08c0,.26-.52.12-.4.49-.25,0-.41.06-.42.26a.26.26,0,0,0,.42-.26c.19.12.73-.08.62-.51l-.22,0v-.07l.33,0v0h.11l.38,0a.38.38,0,0,0,.29,0m-1.75.27c.43-.08-.07-.49,0,0-.15.08,0,.13,0,0m.72.59h0c.05,0,0,0,0,0m.85-.41c-.29.4.44.29,0,0m10,3.6L58,25a1.64,1.64,0,0,1,0-.22l-.22,0,0,.22m-.92-.24c.47.06,0-.34,0,0m-1.24-1.34c.47.06,0-.33,0,0m-3.18-.69c.34.13.27-.53,0-.33l0,.33m-2.2-.9c.08.06-.05-.05,0,0M76.86,45.48,76,46.69v0a.86.86,0,0,0-.05.47.58.58,0,0,1,.24,0l.3.84-1.4-.44-.28.22a8.36,8.36,0,0,0-.69-1.14c0,.6.24.91.27,1.46l-.46.37,0-1.48-1.22-.82.69-.23a.5.5,0,0,0,.39.51c.16-.2,0-.46-.21-.58l.53-.17.4-1.42.88,1.19h.22c0,.06.06,0,.06,0Zm-2.2,1,.22,0a1.8,1.8,0,0,0,0-.22l-.22,0a1.8,1.8,0,0,1,0,.22m.46.07-.23,0,0,.23.22,0a1.5,1.5,0,0,1,0-.22m.43,1.08c-.15.08,0,.13,0,0,.33-.06-.15-.45,0,0m1-1.66h0M64.66,70.76a.33.33,0,0,1,0-.29l-.33,0c0,.18,0,.37,0,.55h0l0,.06-.22.2-.19,0v.11l-.39.29c0-.1-.09-.18-.26-.12a.42.42,0,0,0,.07.24l-.35.24h0l-1.51,1-2-3a.88.88,0,0,1,.08-.26.29.29,0,0,1-.23,0l-1.73-2.57,1.19-.81a11.84,11.84,0,0,1,1.48-.88c0,.25.08.1.09,0l.07,0a1.4,1.4,0,0,1,.84-.09,1.3,1.3,0,0,1,.61.33,8.57,8.57,0,0,1,.8,1.07l1.36,2a5.69,5.69,0,0,1,.63,1.1.92.92,0,0,1,0,.59,1.34,1.34,0,0,1-.07.18m-5.85-2.39c.2.35.23-.46,0,0m2.57-2.16.22,0a1.8,1.8,0,0,1,0-.22l-.22,0a1.64,1.64,0,0,0,0,.22m-.68-.16c.38.33.14-.41,0,0m-.33,0c.19.35.23-.46,0,0m-.59.84c.1.67.18-.45,0,0m.53,4.2c-.06,0,.07.06,0,0m.18-.36c.1.68.18-.44,0,0m.39-1.71a1.8,1.8,0,0,1,0-.22l-.22,0c0,.07,0,.15,0,.22l.22,0m.59,2.63c.26-.56-.39-.24,0,0m-.17-1.78c.06.86.22-.38,0,0m1.13,0L60.91,67.6a3.46,3.46,0,0,0-.36-.48.31.31,0,0,0-.23-.09,1.22,1.22,0,0,0-.4.19l.78,1.15a.12.12,0,0,0,.06.1L62,70.25c-.06.13-.15.38.07.37a.89.89,0,0,0,.07-.16l.39.58c.23-.16.34-.3.34-.42a2.25,2.25,0,0,0-.4-.76m.89,1.42-.22,0,0,.22.22,0a1.64,1.64,0,0,0,0-.22m-.58-2.52c.17.43.08-.45,0,0m.35,1.31h0m-.17-1.77-.22,0a1.64,1.64,0,0,0,0,.22l.22,0a1.64,1.64,0,0,1,0-.22m.34.08c.17.42.08-.45,0,0m.89,1.14c0-.15,0-.3,0-.44l-.23,0c0,.15,0,.29,0,.44l.22,0m.14.32c0,.07,0,.13-.1.12a1.79,1.79,0,0,1,0,.23c.29.14.29-.41.08-.35M76.11,55.07l-.66,1.81-1.14-.41-.08,0L70.77,55.2a2.68,2.68,0,0,0,.36-.58c-.3.08-.42.33-.65.47l-.29-.1-.24.69s0,0,0,0a.43.43,0,0,0,0,.07l-.13.37-1.32-.48.33-.93c.14.39.43.68.59.57-.34-.1,0-.43.06-.56-.29,0-.4-.16-.53-.32l1-2.72,1.32.47L70.9,53c-.06,0-.07-.16-.16-.18-.08.18.07.36.17.34l.78.28a1.37,1.37,0,0,0,0,.19c.12,0,.17,0,.18-.11l1.91.68-.15,0,0,.22.22,0,0-.19ZM69.6,53.76h0M70,55.4c-.11,0-.27-.46-.34-.08.11,0,.27.46.34.08M69.74,54l-.22,0,0,.22.22,0,0-.22m.37.41h0m.78-2.2c.2.35.23-.46,0,0m-.45,1h0m.08-.34s.08.06,0,0m.3-.37c.08.16.13,0,0,0,.06-.53-.51.17,0,0m.54,2.19c.17.42.09-.45,0,0m0-.56c0,.13-.17.27,0,.33,0-.13.17-.27,0-.33m.09-.23c-.22,0-.13-.42-.48-.29-.08-.15-.13,0,0,0,0,.19.4.57.48.29m1.67,1.18c0,.07,0,.13-.1.12s0,.15,0,.22c.29.15.29-.41.08-.34M73,54.32c.17.43.09-.45,0,0m.73.6-.33,0c.07-.1.14-.33,0-.34s-.14,0,0,0c-.07.1-.15.32,0,.34,0,.07,0,.14,0,.22a.31.31,0,0,0,.31-.26m.7,1.29,0,0h0m.66-1c.1,0,.1-.06.1-.13s.11-.34,0-.33,0,.18,0,.33c-.09,0-.1.06-.1.13H75c0,.21-.21.3-.16.57.34,0,.19-.38.27-.58m.39,1.54h0l0,0m0-.47-.22,0a1.79,1.79,0,0,1,0,.23l.22,0a1.8,1.8,0,0,0,0-.22m1.18,2-.06.16c.06,0,.06-.09.06-.16M55,74.9c.2-.07.47-.09.4-.38-.15,0-.31,0-.34-.08.16-.08,0-.13,0,0-.22-.19-.32.06-.49,0-.13-.27-.29-.66-.5-1.17l-.44-1.12a13,13,0,0,1-.5-1.4,1.63,1.63,0,0,1,0-.73.35.35,0,0,0,.2.13l-.06-.55a2,2,0,0,1,.38-.51,2.85,2.85,0,0,1,1-.59,3.17,3.17,0,0,1,1-.22.24.24,0,0,0,.23.17.75.75,0,0,1,0-.16,1.64,1.64,0,0,1,1.39.84,12.07,12.07,0,0,1,.61,1.38l.44,1.11q.39,1,.51,1.41a1.67,1.67,0,0,1,0,.86,1.87,1.87,0,0,1-.49.8,2.94,2.94,0,0,1-.95.58,3.07,3.07,0,0,1-1.06.23,1.87,1.87,0,0,1-.92-.23,1.72,1.72,0,0,1-.61-.62l0,0c.17,0,.4,0,.34.3m3.52-1.47c.47.06,0-.33,0,0m-.77-2.16c.17.42.09-.45,0,0m-.19.35,0,.22.22,0a1.64,1.64,0,0,1,0-.22l-.23,0m-.3-.86c.19.35.23-.46,0,0M58,74.38c-.06.66.48,0,0,0M57.8,74c0-.39,0,.7,0,0m-4-3.3c.32.4.13-.39,0,0m.59,2.63c.17.42.09-.45,0,0m-.06-.67c-.3.41.44.3,0,0m.07-2.69c-.18,0-.12-.28-.36-.19s0,.52.18.65c-.16-.33.15-.28.18-.46m1.29,3c.38.33.15-.41,0,0m.84,1.71c-.12-.18-.06-.59-.39-.52,0,.28.08.57.39.52m.9-1c.17.42.08-.45,0,0M56.3,68.84c.47.06,0-.34,0,0m.14,1.44c.48.47.16,1.74.78,2.27-.24-.7-.24-2.35-.78-2.27m.21,2.1c.38.33.15-.41,0,0m-.44-2.19c.17.42.09-.45,0,0m0-.33c.08.06,0,0,0,0M56,69.42c0-.38-.05-.77-.31-.86a1.12,1.12,0,0,0,.31.86m.33,2.32c-.07-.21.09-.68-.27-.53,0,.27,0,.54.27.53M55.1,69.07c.38.32.15-.42,0,0m-.19,1c0,.09.07.2.12.32l1.2,3a2.73,2.73,0,0,0,.33.68c.06.08.16.09.28,0a.22.22,0,0,0,.17-.24,3.54,3.54,0,0,0-.24-.75l-1.18-3a2,2,0,0,0-.29-.56.24.24,0,0,0-.27,0,.28.28,0,0,0-.17.18h0a.51.51,0,0,0,.07.33m.47,3c0-.07,0-.13.1-.12,0-.14-.06-.26-.24-.2,0,.12,0,.31.14.32M63,58.56l-.09.11.13.21,0-.33h0m-45.75-38c.34-.39.68-.77,1-1.14a.57.57,0,0,1,0,.48c.27-.07.27-.35.16-.67l.82-.83c.1.34.15,1.23.41.91-.34,0,0-1-.34-1a36.88,36.88,0,0,1,11-7.41s0,0,0,.06c.15,0,.2.18.36.19s.13,0,0,0a.28.28,0,0,0-.21-.31q.81-.35,1.62-.66l-.06.05c-.17.3.1,0,.11-.07l.21-.08a9.94,9.94,0,0,0,1.62,1.68,34.63,34.63,0,0,0-10.88,6c0-.07-.21-.17-.2,0a.32.32,0,0,0,.14,0c-.64.53-1.26,1.07-1.86,1.64a.87.87,0,0,0-.27-.33c0,.17,0,.35.07.53-.46.44-.91.89-1.34,1.36a1,1,0,0,0-1,0c-.32-.54-.85-.35-1.34-.48l-.05-.06m16.06-8.63c-.06,0,.07.07,0,0M31.9,10.56c.47.06,0-.34,0,0m-1,.88h0m-10,7.48h0m1.33-1.14c.15,0,.12.19.25.2.25-.15-.18-.51-.25-.2m-.25-.31c.38.33.15-.41,0,0m-.17.47c-.06.47.33,0,0,0,0-.28.17-.37-.16-.43,0,.17,0,.42.16.43m-.51-.62c.11,0,.14.07.23.09,0-.18,0-.39-.25-.32a1.79,1.79,0,0,0,0,.23m-.41.37c-.21,0-.11-.36-.36-.3-.09.29.29.61.36.3m-1.24,2c.17.42.08-.45,0,0m.28.64c0-.25-.07-.41-.26-.42,0,.25.07.41.26.42m-2-.37h0M43.71,21c.08.38.21.51.1.85h-.24c0-.18.06-.53-.15-.49a.37.37,0,0,0,0,.5,25.76,25.76,0,0,0-2.72.38,23.34,23.34,0,0,0-6,2.08c-.07-.09-.16-.11-.25,0a.16.16,0,0,1,.12,0,22.48,22.48,0,0,0-2,1.18c0-.15-.05-.28-.24-.22a1.8,1.8,0,0,1,0,.22.2.2,0,0,1,.14.05c-.37.24-.73.5-1.09.76,0-.14,0-.4-.09-.14a.48.48,0,0,0,0,.18c-.5.38-1,.78-1.45,1.19l-.14-.1a.56.56,0,0,1,0,.2c-.42.37-.82.76-1.21,1.16,0-.19-.19-.39-.25-.1.18,0,.1.23,0,.33h0a23.05,23.05,0,0,0-2.39,3c-.33.5-.65,1-.94,1.55a.21.21,0,0,0-.12,0l0,.15c-.35.64-.68,1.31-1,2-.06,0-.12,0-.16.1a.09.09,0,0,1,.1,0c-.2.48-.38,1-.55,1.44a.85.85,0,0,0-.44-.39c.12.25.18.57.3.82a23.63,23.63,0,0,0-1,4.52h0l0,.05a23,23,0,0,0-.12,3.33h0c0,.78-.84.8-.61,1.74a3.88,3.88,0,0,1,.67-.83c0,.29.05.59.08.88H22.2l.1.15c.07.61.16,1.22.29,1.82.06.29.12.58.19.87,0,0-.07,0-.07.13h.1a23.05,23.05,0,0,0,5.64,10.33c-.06.17,0,.39.21.38a.68.68,0,0,1,0-.19,23.19,23.19,0,0,0,2.79,2.45c-.13.32-.26.63-.39,1a24.2,24.2,0,0,1-6.77-7.59c.37,0,0-.28,0-.06a24.2,24.2,0,0,1-2.62-7.09c-.1-.5-.18-1-.25-1.5a.81.81,0,0,0,.2-.39l-.24.1a23.94,23.94,0,0,1,.11-6.77,1.13,1.13,0,0,0,.31.61c.24-.48-.36-.78-.13-1.33h-.05c.11-.61.25-1.2.41-1.79a.63.63,0,0,0,.32-.41.54.54,0,0,0-.22.05l.18-.59h0c.15-.46.31-.92.48-1.37a.34.34,0,0,0,.15.06,1.27,1.27,0,0,0-.06-.28,24.22,24.22,0,0,1,5.24-8.07h0a.29.29,0,0,0,.24.2c0,.49.43,0,0,0,0-.19-.11-.2-.24-.2h0c.42-.43.87-.85,1.33-1.25a.27.27,0,0,0,.23.21c-.06.47.33,0,0,0,0-.17,0-.27-.13-.3l.6-.51c0,.25.08.4.27.41,0-.08.23-.46-.05-.45,0,.13-.1.09-.2,0a24.85,24.85,0,0,1,3-2.1h0a24.17,24.17,0,0,1,7.35-2.78l.14,0,0,.05c.06.69.17,0,.09-.06.67-.13,1.33-.23,2-.3a.88.88,0,0,0-.06.5c.21-.05.28-.31.23-.52l.58-.05c0,.12.11.24.25.13M27.13,60.4c-.05,0,.08.06,0,0m-1-2.26h0m.23,1.21h0M26,59.16h0m-1.22-2.23c.07.16-.08.59.16.54s0-.42-.16-.54m-.33-1.09.22,0a1.64,1.64,0,0,1,0-.22l-.22,0a1.5,1.5,0,0,0,0,.22m-2-3.16h0m.82,1.6c.47.06,0-.34,0,0m.07-.46h0m-.16-.54c-.49-.35-.23.38,0,0m-1.14-3.69c.33.13.27-.53,0-.34,0,.11,0,.23,0,.34m-.33-1.09h0m-.1.12a1.64,1.64,0,0,0,0,.22l.22,0a1.64,1.64,0,0,1,0-.22l-.22,0m0-2.35c-.07-.21-.09-.47-.38-.41-.08-.15-.13,0,0,0s0,.54.38.41m.11,0h0m-.51-1.74c.38.33.15-.41,0,0m.3-1.49a.49.49,0,0,0-.26-.42c0,.26.07.42.26.42m-.05.57c.11,0,.14.08.23.09,0-.18,0-.39-.25-.31l0,.22m.45,1.19c.17.42.08-.45,0,0M21.54,42c.47.07,0-.33,0,0m.42-.26.06.55c.35.14.26-.75-.06-.55m0-1c.07.16-.08.59.16.54,0-.16.16-.59-.16-.54m0-1.23h0m.49.51h-.11c.1-.24-.22-.51-.24-.2.12,0,.09.22.24.2,0,.13.12.05.11,0,.47.06,0-.33,0,0m-.09-2c.47.06,0-.34,0,0m1.32-2.48c.38.32.14-.42,0,0m.36-.82-.22,0c-.08-.16-.13,0,0,0,0,.15,0,.29,0,.44l.22,0c0-.15,0-.3,0-.44m1.24-2.14c0-.28-.24-.37-.39-.52,0,.28.08.57.39.52M26,30.84c.17.43.09-.45,0,0m1-.1c-.38-.25,0-.74-.52-.84.15.24.24,1.19.52.84m.55-1.28a1.64,1.64,0,0,0,0,.22c.11,0,.14.08.23.09,0-.17,0-.39-.25-.31m.08-.23c.17.42.09-.45,0,0M29,27.29h0l0,0,0,0m-.17.48c.08.06,0-.05,0,0m0,.22c.1.67.17-.45,0,0m.19-.25c.17.43.09-.45,0,0m.64-.28h0M30.75,26l0,.22c.12,0,.14.08.24.09,0-.17,0-.39-.26-.31m2.13-1c-.15,0-.12-.19-.24-.2-.11.24.22.51.24.2m.54-.17h0m.28-.48c.38.33.15-.41,0,0m.63-.39c.38.33.15-.41,0,0m.93-.77h0m1.54-.15c.47.06,0-.33,0,0m5-1.16h0m.52-.39h0m.46.18c.31.41.12-.38,0,0M63.87,60.38a24.11,24.11,0,0,1-10,7.16s-.08,0-.16,0,0,0,0,.07a23.21,23.21,0,0,1-2.49.78c0-.32-.11-.66-.16-1a23,23,0,0,0,9.16-4.75c0,.35.18.44.38.52-.12-.18-.05-.59-.37-.52a23.72,23.72,0,0,0,3.08-3.18c.18.31.36.62.53.93M53.08,67.7a1,1,0,0,0-.5-.51c.09.26.15.56.5.51m1.33-1.14c0,.16,0,.41.15.43s.22-.57-.15-.43m1.64-.27c.17.42.09-.45,0,0m4.18-2.77c.17.43.08-.45,0,0m1.47-1.93h0M50.26,22.75a.39.39,0,0,0,0,.11c.11.29.11,0,.07-.1a22.51,22.51,0,0,1,6.52,2.59c0,.27.1.54.37.52a1.64,1.64,0,0,1-.08-.35c.38.23.75.47,1.12.72,0,.19-.06.37-.1.55l-.5-.35a22.92,22.92,0,0,0-2.77-1.57h0c0-.16,0-.41-.15-.43a.29.29,0,0,0,0,.35,21.77,21.77,0,0,0-3.77-1.37c-.12-.23-.43-.47-.55-.23a.22.22,0,0,1,.22.15,22.54,22.54,0,0,0-4.28-.62c.18,0,.16-.42,0-.37,0,.07,0,.14-.1.13s0,.14,0,.22l.07,0c-.46,0-.92,0-1.38,0,.19-.19.52-.29.47-.5a22,22,0,0,1,4.89.55M56,25.21c-.05-.05.08.06,0,0m-5-1.87h0M29.58,48.58l7.2-8.45h0v0l.58-.69,2.38,2.8a.31.31,0,0,0,0,.12c.1.26.11,0,.08-.07L41,43.68a1.4,1.4,0,0,0,.58,1q-.08-.24-.12-.45l3.62,4.26.2-1a.87.87,0,0,0,.16.17,1,1,0,0,0-.06-.62c0-.11,0-.22.08-.34,0,.18.12.29.22.06-.34,0,0-.49-.11-.54.27-1.15.65-2.67,1.15-4.44,0,0,0,0,0-.11a93.05,93.05,0,0,1,3.08-9.15l.18,0,0-.22H49.9c.62-1.52,1.29-3.05,2-4.55a1.16,1.16,0,0,0,.44.17c0-.11.12-.1.2-.13a.54.54,0,0,0,.27.52.32.32,0,0,1,.18-.24v0a.73.73,0,0,0,.45.44,34,34,0,0,0,6.89,4.73,38.54,38.54,0,0,0-2.47,3.48h0c0-.13,0-.19-.12-.21s-.06-.1-.12-.1c.06-.45-.33,0,0,0,0,.1,0,.1.12.1-.13.19-.1.45.12.21h0c-.82,1.35-1.66,2.9-2.5,4.58,0-.09-.12-.17-.19,0-.32,0,.15.44,0,0a.29.29,0,0,0,.14.08c-.4.8-.79,1.63-1.18,2.47a7.14,7.14,0,0,1-1.36-1.66c-.06.31.18.26.16.53-.51-.07.17.49,0,0a3.23,3.23,0,0,0,1.11,1.34l-.39.86s-.06,0-.06.13c-.48,1.09-1,2.2-1.4,3.32v0c-.07-.28-.32-.34-.58-.38,0,.3.23.44.58.38v0c-.37.91-.73,1.83-1.07,2.74,0,0,0,0-.07,0,.06-.51-.49.17,0,0,0,.06,0,.07.07.06l-.27.73a.55.55,0,0,0-.24.24l.16,0a75.41,75.41,0,0,0-2.68,8.89c-.3-.29-.59-.59-.89-.87,0-.16-.11-.31-.24-.24a69.67,69.67,0,0,0-5.26-4.61,8.34,8.34,0,0,0-.34-2.57c0,.23-.15.25-.31.14a7.61,7.61,0,0,1,.08,2l-.1-.08c0-.12,0-.21-.21-.16-.8-.61-1.6-1.18-2.38-1.72,0-.09,0-.17-.08,0-.36-.25-.73-.49-1.09-.72,0-.1,0-.37-.09-.08l0,0c-.67-.42-1.31-.81-1.94-1.16a.25.25,0,0,0,.19,0c-.12-.18-.09-.53-.28-.62a.5.5,0,0,0,0,.6,21.71,21.71,0,0,0-5.65-2.34M58.12,33.79c.17.42.09-.44,0,0m-.17.45c.46.06,0-.32,0,0m.18,1.84c.32-.06-.14-.44,0,0-.42.07.07.47,0,0m-3.32-1.86c.31.4.12-.37,0,0m1.27-.34h0m.64-.06h0m.22,2.27c.07.83.22-.38,0,0M57,37.93c.45.06,0-.32,0,0M56,33.68c.45.06,0-.33,0,0m-1.84-4.4h0m.22,3.36c.19,0,.24.11.44.06-.26-.24-.12-.42-.28-.62,0,.21-.2.29-.16.56-.15.08,0,.13,0,0m.94,6.23c.45.05,0-.33,0,0m-2.06-7.76c.45.06,0-.32,0,0m.51,3h0m1.07,5.35h0m-1-3.82c.19.34.23-.45,0,0M52.4,29.45l.21,0,0-.22-.22,0,0,.22m.26,1.61h0m1.44,9.12c.17.41.08-.44,0,0m-2.16-12.1h0m-.09.23c.17.41.08-.44,0,0m.37,1.59c.15-.08,0-.13,0,0-.46.09.18.62,0,0m1,8.18c.46.06,0-.32,0,0m-1.13-4.9h0m-.86-3.29c.17.41.08-.44,0,0m1.93,9.73c.12.17,0,.57.37.5-.06.46.33,0,0,0,0-.27-.07-.55-.37-.5m-.81-.47c0,.29,0,.64.28.63.14-.17,0-.66-.28-.63m-.24-1.39c.32-.06-.15-.44,0,0-.15.08,0,.13,0,0M52.58,39c-.08-.35-.16-.69-.5-.71,0,.4.12.74.5.71M49.37,43.8a.3.3,0,0,0-.25-.3c0,.17,0,.38.25.3m1.09,2.29c.37.32.14-.4,0,0m-.37-3.77c-.13-.53-.27-1-.66-1.25a2.93,2.93,0,0,0,.66,1.25m1,3.93s.08.06,0,0m0-.54a.31.31,0,0,0-.24-.31.3.3,0,0,0,.24.31m-.45-2.36c.17.42.09-.44,0,0M51,44.63h0m.43,2.24.22,0,0-.21-.22,0a1.49,1.49,0,0,1,0,.21m.37.4c-.46.09.17.62,0,0,.15-.08,0-.13,0,0m0-2.61c.16.42.08-.44,0,0m-.42-2c.17.42.08-.44,0,0m.82,2.86h0m.28.63c.17.41.08-.44,0,0M52,43.32c.16.42.08-.44,0,0m.32,1.06c-.05,0,.07.07,0,0m.34.19c-.13.15-.11.54.16.53-.07-.16.07-.57-.16-.53M52.53,44h0m-.1-2.17c.16.41.08-.44,0,0m-.89-5.69h0m-1.22,3c-.46-.06,0,.33,0,0a1,1,0,0,0,.81-.51c.2-.07.46-.09.4-.37.29-.07.14.39.36.4.19-.21-.15-.3.06-.55-.17,0-.42,0-.42.15-.18,0-.17.12-.31.14,0-.15,0-.31-.14-.31a.41.41,0,0,0,.05.54.8.8,0,0,0-.81.51M49.68,37c.4.35.26,1.37.9,1.43-.16-.57-.52-1.53-.9-1.43M51,44.29c.17.42.08-.44,0,0m-.4-1.92c.07.07,0,0,0,0m-1-4.69c.08.06,0,0,0,0m.28,1.71c-.22.39.33-.29,0,0m-.66-2.33a.3.3,0,0,0,.25.3.3.3,0,0,0-.25-.3c0-.34,0-.84-.4-.72,0,.38.14.64.4.72m-.36,3c.1.44.23.84.63.91-.24-.26-.24-.82-.63-.91m1.22,5.76a2.65,2.65,0,0,0,.67,1.35,2.34,2.34,0,0,0-.67-1.35c0-.25-.07-.4-.26-.41,0,.25.07.4.26.41m-.48-.5c.19.35.22-.44,0,0m-1.12-4.79c.45.06,0-.33,0,0m1.26,7.39c.08.19.1.45.27.52.1-.11,0-.56-.27-.52m-.05,5c.2.34.23-.45,0,0m.62-1.48c.07.07-.05,0,0,0m0,.88c.46.06,0-.33,0,0m-.06-.65c0-.25-.06-.4-.26-.41,0,.25.07.4.26.41M48.42,44c.16.41.08-.44,0,0M50,52.67h0m-.72-1.89c.18.07,0,.53.36.4-.06-.2-.08-.46-.36-.4,0,0,0-.07,0-.1.28.14.28-.4.07-.34,0,.17-.08.2-.07.34s0,.11,0,.1m-1.75,5.3h0m.91,2.74c.46.06,0-.33,0,0M49,56.05l0-.22c-.36,0-.18.56-.52.27,0-.32-.43.15,0,0q0,.51.48.39a.41.41,0,0,0,0,.11c.09,0,.1,0,.11.1l.22,0c0-.23-.18-.19-.34-.18s-.19-.39.06-.44c-.07.52.49-.17,0,0m-.46-1.37c.46.06,0-.33,0,0m-.08-.87a1.64,1.64,0,0,0,0,.22l.21,0,0-.22-.21,0m-.61-2.88h0M48,52.32c0-.37-.25-.33-.37-.5,0,.34.18.42.37.5m-.17.46c0,.63.47,0,0,0M47.17,50c-.05,0,.07.07,0,0m.77,4.61c.07.2.09.46.37.4,0,.48.42,0,0,0-.12-.13-.14-.39-.37-.4m.07.65c-.19.22,0,.56.28.63a.93.93,0,0,0-.28-.63m-.4-.72c.46.05,0-.33,0,0m0,.32c.17.41.09-.44,0,0m-1.55-5.95c.37.32.14-.4,0,0m.63,9.74c.16.42.08-.43,0,0m-1.53-7.8c.1.65.17-.43,0,0m2.26,6.42h0m-.3-1.93a.3.3,0,0,0-.25-.3c0,.17,0,.38.25.3m-.39-1.81c-.23.39.33-.3,0,0m-.51-1.8c-.22.38.34-.3,0,0m1.07,6.43c.37.32.14-.4,0,0M46.89,56h0m-.56-1.36c.05,1,.25-.29,0,0m-.4-1.81c0,1,.25-.29,0,0m-.32-1.06c.19.34.23-.45,0,0M45,49c.31.39.13-.38,0,0m1.2,6.63c0,.2.1.36.25.41,0-.25-.06-.4-.25-.41M45,50.11l0,.22c.11,0,.14.08.23.09,0-.17,0-.38-.25-.31m-.26-.51A.47.47,0,0,0,45,50c0-.19.06-.55-.25-.41m.89,4.7h0m-.38-.61c0,.18-.25.57.06.64,0-.16.32-.77-.06-.64m-1-4.92c.31.4.12-.37,0,0m-.14-.31-.21,0,0,.22.21,0a1.64,1.64,0,0,0,0-.22m-.39-.72.21,0,0-.22-.21,0,0,.22m1.2,8.92c-.2,0-.11-.35-.35-.29s.26.6.35.29m-.37.69c.17.42.09-.44,0,0M43,50.75h0m.68,3.63h0m0,.22h0m-2.88-5.16h0m2.54,7.16c.45,0,0-.33,0,0m-1.22-6.86a1.5,1.5,0,0,0-.29-.84c.11.26-.12,1,.29.84m-.41-.94a5.18,5.18,0,0,0-.67-3.53,16.29,16.29,0,0,0,.67,3.53m.13,1.4c0,.2.11.36.26.41a.26.26,0,0,0-.26-.41m.4,2.91c.16.41.08-.44,0,0m-.91-3.73h0m.51,3c0,.27,0,.53.27.52,0-.28,0-.87-.27-.52,0-.75,0-1.89-.55-2.34a2.78,2.78,0,0,0,.55,2.34m-1.37-4.11c0-.07,0-.13.09-.12s-.06-.25-.23-.19c0,.12,0,.3.14.31m.27,2.81c.19.34.23-.45,0,0m-.24,2h0m-.77-3.41c.28.14.28-.4.08-.34,0,.07,0,.13-.1.12l0,.22M40,51h0m-.24-.19h0m-.34-.19h0m.2,2.05c-.29.4.43.29,0,0m-1.06-4.25h0M38.28,51h0m-.48-1.58c.37.32.15-.4,0,0m-.66-6.8c.16.25-.27.48,0,.54.05-.07.2-.54,0-.54m-.58-1.47c.45.06,0-.33,0,0M37,44.58c.32,0,.26-1.17,0-1a2.26,2.26,0,0,1,0,1m0,.22c-.41.69.39,1,0,0m.65,6.69c.17.41.09-.44,0,0m-1.54-9.11c.17.41.08-.44,0,0m0,.32h0m.32,2.15c.17.41.08-.44,0,0M37,47.31h0m.5,4c.19.35.22-.44,0,0M37.31,51c.16.41.08-.44,0,0m-2.19-1.31s.08.06,0,0m1.75,1.24c.17.42.08-.43,0,0M36,48.17c.28.14.28-.4.08-.33,0,.06,0,.13-.1.12s0,.14,0,.21m.24,1.29.21,0,0-.22-.22,0,0,.22m.22,1.17c.45.06,0-.32,0,0m-1.07-3.16c.17.41.08-.44,0,0m.59,3.76h0m-1.77-5.82c.46.05,0-.33,0,0m-1.24-.54c.46.06,0-.32,0,0m-1.6,3.54c0,.17,0,.37.25.3a.3.3,0,0,0-.25-.3M59.37,22.13a.83.83,0,0,0,.18.6,4.92,4.92,0,0,1,0-1,7.22,7.22,0,0,1,.49-.74l1.2-1.65a8,8,0,0,1,.72-.88,1.58,1.58,0,0,1,.69-.4,1.77,1.77,0,0,1,.94,0,2.85,2.85,0,0,1,1,.49,2.79,2.79,0,0,1,1,1.08,1.48,1.48,0,0,1,.13,1.05A4.58,4.58,0,0,1,65,22l-.13.17a.18.18,0,0,0-.15,0,1.25,1.25,0,0,0,0,.19l-.14.19-1.56-1.14.72-1a2.21,2.21,0,0,0,.34-.57.27.27,0,0,0-.14-.27.3.3,0,0,0-.34-.05,2.15,2.15,0,0,0-.46.52l-1.92,2.62a2.33,2.33,0,0,0-.34.57.29.29,0,0,0,.14.3.28.28,0,0,0,.32,0,2.43,2.43,0,0,0,.49-.55l.52-.71,1.55,1.14-.16.22a5.07,5.07,0,0,1-1,1.14,1.58,1.58,0,0,1-1,.22,2.55,2.55,0,0,1-1.31-.53,3.26,3.26,0,0,1-.86-.89c0-.14,0-.31-.1-.18a1.5,1.5,0,0,1-.11-1.07c0-.06.05-.12.07-.19m2.21,2c.17.43.08-.45,0,0m2.87-4.65c.59.25.38-.43,0,0m-1.42-1c.19.35.23-.46,0,0m0,1.23c.18.43.09-.45,0,0m-.72-.6c.17.43.08-.45,0,0m.09.89c.36.12.21-.69,0-.68a1,1,0,0,0,0,.68m-1-.8h0m.22,2.22c.34.13.23-.61.05-.57a.75.75,0,0,1-.05.57M61,20.8c-.14,1.07.08-.59,0,0m-.12,3.25c.17.43.08-.45,0,0m-.72-2.72c.08.06,0,0,0,0m0,2.12h0m-.69-.26c.08.06-.05-.05,0,0M22.18,72.3a11.92,11.92,0,0,1-.37,1.2.57.57,0,0,0-.13,0,.48.48,0,0,0-.22.12A37.16,37.16,0,0,1,11.33,60.33a.42.42,0,0,0,0-.27,6.28,6.28,0,0,0,1.41-1.75l.18.44A.78.78,0,0,0,13,59l.07,0a.69.69,0,0,0,0,.13c0,.1-.07.13-.08.22l.17,0a33.87,33.87,0,0,0,3.11,5.56.35.35,0,0,0-.18,0c0,.3.08.48.37.42L16.43,65a35.06,35.06,0,0,0,6,6.6c-.08.22-.16.44-.22.66-.08-.16-.13,0,0,0M12,61.1h0m.15.43.22,0a1.64,1.64,0,0,0,0-.22l-.22,0a1.8,1.8,0,0,1,0,.22m.53.85a.5.5,0,0,0-.26-.43.27.27,0,0,0,.26.43m.12.1s.08.06,0,0m0-.45c.17.43.08-.45,0,0m0-.33c.17.43.08-.45,0,0m.53-1.39h0m.14,2.56c.17.42.08-.45,0,0m-.17-.55c.17.43.09-.45,0,0m.45,1.19a.3.3,0,0,0-.25-.31c0,.18.12.18.14.32-.15.08,0,.13,0,0h.11m.19-.35c0-.15.18-.2.19-.36l-.33,0c0,.16,0,.32.14.33-.13.16-.11.42.15.43a.61.61,0,0,0,.07-.46l-.22,0m.38-.6c.14-.67-.46-.42-.42-1l-.33,0a1.36,1.36,0,0,0,.75.93m.58,1.28h0m0-.33c-.2.05-.25-.1-.45-.07-.14.33.51.26.45.07m.4,1.75c.17.43.08-.45,0,0m.2-.24h0m.15-.69c-.11-.33-.1-.2,0-.55-.14,0-.17-.13-.34-.08.16.17,0,.71.39.63m.82,3.84h0m.68.16h0m.17.54h0m2,1.48c.38.33.15-.41,0,0m1.49,1.53c0,.3.09.48.37.42,0-.28-.2-.33-.37-.42m.92.36c-.13,0-.31,0-.32.14.16,0,.21.17.36.19,0-.11,0-.22,0-.33M63.52,27l4.13-3.77-.64-.7a1.57,1.57,0,0,0,0-.24l.93-.85,2.84,3.11-1,.94L69,24.61l-2.36,2.15a.15.15,0,0,0-.19,0c0,.06,0,.11,0,.17l-1.59,1.45Zm5.08-3.77c0-.05.08.06,0,0m-.81-1.49h0m-.32,3.5c.3,0,.38-.69.14-.8a3.92,3.92,0,0,0-.14.8m0,.33h0m-.52.39c.08.15.13,0,0,0-.09-.54-.51,0,0,0m-.5.61h0m-1.4-.76c.07.07-.06,0,0,0m0,1.8c0-.05.08.06,0,0M64.3,27l0,.22.22,0,0-.23-.22,0M76.74,38a.15.15,0,0,0,0,.07.48.48,0,0,0,.19,0l-1,1.39.61,1.69-1.71-.54-.26.21c0-.14,0-.27-.14-.27,0,.31-.33-.24-.2.24-.47-.06,0,.33,0,0a.57.57,0,0,0,.27.08l-.25.19a.1.1,0,0,0-.11,0c0,.07,0,.13-.1.12s0,.06,0,.08l-.63.49V39.9l-1.49-1,1.19-.4c0,.17.11.22.15.35-.49.12.22.65.41.74.07-.5-.34-.41-.41-.74h.11c0-.13,0-.32,0-.41l.3-.1.22-.77h.07a.39.39,0,0,1,0-.16l.22-.78,1.07,1.44.53,0a.31.31,0,0,0,.14,0v0Zm-2.18,1.74h0m0,.11c.08.33-.23.59.18.65-.2-.32.26-.76-.18-.65m.25.31h0m-.12-1.22c.18.43.09-.45,0,0m.83.48c.17.42.08-.45,0,0m.35,1.31h0M39.44,13a1.29,1.29,0,0,1,.35,0c0,.07,0,.14.05.23.46-.06.27,0,.13.21.24.16.14,0,.44,0a3.6,3.6,0,0,0,.35.61,2.77,2.77,0,0,1,.13.48,1.93,1.93,0,0,1,0,1.12,1.21,1.21,0,0,1-.76.51h.11a.46.46,0,0,0,0,.09c.11.27.11,0,.08-.09a1.31,1.31,0,0,1,.67.18,1.17,1.17,0,0,1,.33.35,7.93,7.93,0,0,1,.26,1L42,19.48l-.09,0c0-.08-.05-.13-.08,0l-1.11.24c0-.08,0-.13-.1,0l-.37.08-.49-2.27a1.48,1.48,0,0,0-.24-.66q-.12-.12-.51,0L39.65,20l-1.88.41-1.48-6.83,1.33-.29a12.39,12.39,0,0,1,1.82-.3m-2.33,4.24h0m-.44-2.31c.07.07-.06,0,0,0m1.52.86c.17.43.09-.45,0,0m.08-.34c.2.35.23-.46,0,0m.92-.32-.08-.38c0-.21-.12-.35-.22-.4a.73.73,0,0,0-.47,0l.33,1.52a1,1,0,0,0,.43-.18c.07-.07.08-.26,0-.56m2.19,2.59c.18.42.09-.45,0,0m-.2-1h0m.18,1.89c.08.06,0-.05,0,0m-.54-2.08h0m-.09-1c.19.36.23-.46,0,0m-1.22.11h0m.14.22h0m.56,2.3c-.25.59.42.37,0,0m-.11-2.23-.22,0c0,.08,0,.15,0,.22l.22,0,0-.22m26.78,6.43,0,0v-.07ZM42.94,16.2v-.95l.1,0c0-.07-.07-.12-.1-.18A13.17,13.17,0,0,1,43,13.78a1.53,1.53,0,0,1,.33-.8,1.15,1.15,0,0,1,.14-.17c0,.35.11.09.1-.09a2.07,2.07,0,0,1,.5-.3,2.88,2.88,0,0,1,1.1-.2,3,3,0,0,1,1.07.18,1.52,1.52,0,0,1,.38.2,39.61,39.61,0,0,0,.79,4c0,.29,0,.55,0,.77a2.16,2.16,0,0,0-.13,1,2.18,2.18,0,0,1-.23.42,1.83,1.83,0,0,1-.75.55,2.83,2.83,0,0,1-1,.2c-.05-.09-.12-.12-.16,0a2.88,2.88,0,0,1-.81-.11c0-.1,0-.19-.14-.19a.16.16,0,0,1,0,.15l-.1,0a1.7,1.7,0,0,1-.76-.55A1.65,1.65,0,0,1,43,18c0-.29,0-.8,0-1.52v-.09c.11.23.06-.32,0-.17m3.93-.39c0-.05.08.06,0,0m.16.54c-.12-.2.3-.4,0-.44,0,.07-.23.45,0,.44m-1,2.22h0m-.22-1.09c0,.16,0,.41.15.43.13-.16,0-.34-.15-.43m-.1-1c.47.06,0-.34,0,0m.78,2.27a.31.31,0,0,0-.25-.31c0,.18,0,.39.25.31m.27-.69s.08.06,0,0m-.59-3.75c0,1,.25-.3,0,0m-.29-.65c.17.43.08-.45,0,0m.46,2.42c.47.06,0-.33,0,0m-.14-.32h0m.07,1.89c.17.43.09-.45,0,0m0,.45a1.64,1.64,0,0,0,0,.22c.11,0,.14.08.23.09,0-.17,0-.39-.25-.31m-1.69-4.76a1.64,1.64,0,0,0,0,.22c.28.15.28-.41.07-.34,0,.07,0,.13-.09.12m-.08.34c0,.66.48,0,0,0M44.26,13c.35.14.24-.6.06-.57.12.31-.13.31-.06.57m.46,2.42c.1.67.18-.45,0,0m.15,2a3.21,3.21,0,0,0,.06.75.24.24,0,0,0,.24.14.25.25,0,0,0,.26-.17,3.82,3.82,0,0,0,0-.78V14.16a2,2,0,0,0-.06-.62.24.24,0,0,0-.24-.14.28.28,0,0,0-.23.11,1.56,1.56,0,0,0-.08.65Zm-.7-3h0M43.81,13c.32.55.25-.41,0,0m.87,4.28h0m-.33,0c.46.07,0-.33,0,0m0-.67h0m-.68-2.4a1.8,1.8,0,0,1,0,.22c.11,0,.14.08.23.09,0-.17,0-.38-.25-.31m-.3-.75c.47.06,0-.34,0,0m-.14-.32c.17.42.09-.45,0,0M44,16.65c.2.35.23-.46,0,0m0,.45c.17.42.09-.46,0,0m-.49-1.64h0m0,.56c.18.42.09-.45,0,0m-.12,1c.17.42.09-.45,0,0m-.24-1.32a1.64,1.64,0,0,1,0,.22l.22,0a1.64,1.64,0,0,0,0-.22l-.22,0m-.13-.21c.17.42.08-.45,0,0m.13,1.33h0"/></g></g></svg>