<svg xmlns="http://www.w3.org/2000/svg" viewBox="0 0 89.91 89.91"><defs><style>.cls-1{fill:#959595;}.cls-2{fill:#fff;}.cls-3{fill:#e0dede;}</style></defs><title>Asset 19</title><g id="Layer_2" data-name="Layer 2"><g id="Layer_1-2" data-name="Layer 1"><path class="cls-1" d="M89.91,45A45,45,0,1,1,45,0a45,45,0,0,1,45,45"/><path class="cls-2" d="M27.5,28.67l12.08,7.62L45,26.06a2.4,2.4,0,0,0,.19-1.78,7.55,7.55,0,0,0-8-5.76c-4.11.36-5.43,3.1-5.43,3.1Z"/><path class="cls-3" d="M40,18.39a8.18,8.18,0,0,1,5,4.12c.41.72,6,11.07,6,11.07l-4.67,2.64,14.51,0L67,24.31l-3.46,2.38-4.72-7.36a4.08,4.08,0,0,0-2.94-1.06Z"/><path class="cls-2" d="M68.36,35.83,56.21,43.34,63,52.71a2.42,2.42,0,0,0,1.51.95A7.55,7.55,0,0,0,73.22,49c1.49-3.85-.39-6.24-.39-6.24Z"/><path class="cls-3" d="M72.14,51.53a8.23,8.23,0,0,1-5.9,2.66c-.81.06-12.58.56-12.58.56l-.32-5.36L47,62.43l8,10.84-.63-4.14,8.68-1a4.06,4.06,0,0,0,2.25-2.17Z"/><path class="cls-2" d="M40.18,69.26,41.26,55H29.68a2.41,2.41,0,0,0-1.66.66,7.56,7.56,0,0,0-1.35,9.77C28.91,68.91,32,68.8,32,68.8Z"/><path class="cls-3" d="M25.26,63.07a8.29,8.29,0,0,1,1.32-6.32c.44-.69,7-10.5,7-10.5l4.52,2.89L31.28,36.3l-13.46.07,3.72,1.93-4.29,7.62a4.1,4.1,0,0,0,.43,3.1Z"/></g></g></svg>