<svg xmlns="http://www.w3.org/2000/svg" viewBox="0 0 222.83 103.42"><defs><style>.cls-1{fill:#fff;}.cls-2{fill:#ab0004;}</style></defs><title>Asset 1</title><g id="Layer_2" data-name="Layer 2"><g id="Layer_1-2" data-name="Layer 1"><path d="M67.13,85.22c-.67-1.67-2.14-2.68-3.5-3.76-2.6-2.06-3.81-4.73-5.8-7.37C54,69,50.25,68.27,44.23,68.17c-3.19.48-5.54.11-8.35,2.2a32.17,32.17,0,0,0-6.31,7,64.51,64.51,0,0,1-4.95,5.36c-6,6.56.75,19.1,8.53,20.59a9.78,9.78,0,0,0,7.11-1.72c.91-.58,3.63-4,4.47-4.1.49,0,1.06.76,1.62,1.28a18.73,18.73,0,0,0,6.07,3.86c8.67,3.11,18-9.21,14.71-17.38"/><path class="cls-1" d="M65.78,92.47c-2.68,5.11-6.82,9.61-13,7.65a16.89,16.89,0,0,1-5-2.73c-.46-.35-2.3-2.53-2.85-2.57-.8-.08-4,3.69-5.12,4.35-4.82,2.9-9.51,1.45-13-2.69-1.79-2.09-4.91-5.93-3.83-8.94.55-1.52,2.05-2.68,3.19-3.75,3.82-3.56,6.07-8.65,10.61-11.45,2.5-1.55,4.69-1.15,7.41-1.56,3.48.06,6.89-.16,9.85,2,3.85,2.79,5.13,7.66,8.65,10.64a27.56,27.56,0,0,1,3.1,2.5c1.91,2.11,1.16,4.27,0,6.57"/><path d="M88.65,11.08C86.57,1.86,74.27-2.3,66.51,1.67,54.37,7.88,49.27,19.76,45,31.9a1.65,1.65,0,0,0-.07-.32C41.3,20.94,37,10.91,27.27,4.44c-5.12-3.42-10.75-6-16.8-3.38A21,21,0,0,0,2,7.84c-4.24,6-1,16.31,1.89,22.1,3.42,6.94,10,12.21,15.55,17.43,8,7.56,16.08,15,24.38,22.18,0,.39.06.68.13.68s.09-.19.11-.46l.44.38s0,.08,0,.1l.08-.07.19.17s-.06-.15-.06-.29l.44-.38c0,.38.07.66.13.66s.13-.4.14-.9c7.21-6.24,14.26-12.68,21.22-19.2,5.72-5.36,12.68-10.8,17-17.42,3.91-5.94,6.61-14.57,5-21.74"/><path class="cls-1" d="M87.41,22a30.71,30.71,0,0,1-5.26,10.23c-4.85,5.86-10.78,11-16.33,16.16-7,6.51-14,13-21.25,19.19-12.41-10.7-25-21.68-36.14-33.75C3.16,28.08-2.87,16.07,3,9.3a20.47,20.47,0,0,1,8.37-6c5.37-1.88,10.25.2,14.81,3.06,10,6.27,14.62,16.12,18.37,26.83-.1.27-.19.55-.29.82-.24.71.21,2.11.07,2.52C47.79,26.56,51.3,16.13,59.53,9c4-3.45,9.27-6.94,14.74-6.56C78.35,2.71,82,5,84.84,7.75c4.17,4,4.32,8.76,2.57,14.24"/><path d="M33.09,91.88c.07,0,.16,1.45,0,1.46a33.38,33.38,0,0,0-11.35,3c-1.92,1-4.79,2.23-5.67,4.35.09-.2-.2-1,0-1.41.79-1.89,3.19-3.16,4.92-4a35.44,35.44,0,0,1,12.14-3.4m41.63,7.45c-.81-1.92-3.19-3.09-4.92-4a32.94,32.94,0,0,0-12.14-3.4c-.06,0-.15,1.44,0,1.46a36.26,36.26,0,0,1,11.35,3c1.92.87,4.79,2.27,5.67,4.35-.08-.2.2-1,0-1.41M32.65,91.07a3.27,3.27,0,0,0,0-1.46,35.5,35.5,0,0,0-12.55,1.5c-1.84.58-4.35,1.47-5.43,3.2-.21.34.13,1.26,0,1.41,1.23-2,4.25-2.79,6.3-3.43a33.63,33.63,0,0,1,11.64-1.22m44.27,3c-1.1-1.78-3.58-2.55-5.43-3.2A33,33,0,0,0,58.93,89.4a3.42,3.42,0,0,0,0,1.46,36.82,36.82,0,0,1,11.64,1.22c2,.56,5.11,1.5,6.31,3.43-.1-.15.24-1.07,0-1.4M48,88h0c-1,0-2.48,1.37-3.06,1.92-.54-.52-1.91-1.76-3-1.7a1.1,1.1,0,0,0-.83.4,1,1,0,0,0-.23.87c.2,1.06,2,2.14,2.54,2.46,0,.77.21,3,1,3.64a.74.74,0,0,0,.47.17H45c1.17-.19,1.3-2.93,1.31-3.82.58-.35,2.44-1.56,2.61-2.72a1.1,1.1,0,0,0-.29-1A.82.82,0,0,0,48,88M37.78,77.15c-.79,0-1.41,1.25-1.41,2.85s.61,2.85,1.41,2.85S39.21,81.6,39.21,80s-.63-2.85-1.43-2.85m13.14,0c-.79,0-1.42,1.25-1.42,2.84s.61,2.86,1.42,2.86,1.41-1.23,1.41-2.86-.62-2.84-1.41-2.84"/><path class="cls-2" d="M8,11.44C-5.26,20.1,40.94,62.36,44.87,62.36S94.49,21.59,80.22,9.94C62-4.91,44.27,47.73,44.27,47.73S29.51-3.9,8,11.44"/><path d="M116.86,25.81h-9.11V24.5a6.18,6.18,0,0,0,1.68-.16.73.73,0,0,0,.53-.78,2.53,2.53,0,0,0-.17-.87l-.91-2.28H102.6l-.47,1.25a5.32,5.32,0,0,0-.4,1.53,1,1,0,0,0,.67,1.08,4.5,4.5,0,0,0,1.54.23v1.31H97.29V24.5a2.81,2.81,0,0,0,1.35-.3,3,3,0,0,0,1.06-1.13,15.06,15.06,0,0,0,1.09-2.36l5.58-14.6h1.35l5.89,15.06c.43,1.06.74,1.78.94,2.16a2.17,2.17,0,0,0,.83.87,3,3,0,0,0,1.48.3Zm-8.5-6.8-2.66-6.74L103.16,19Z"/><path d="M139.72,7.8a5.25,5.25,0,0,0-2,.27,1.29,1.29,0,0,0-.74.82,8.06,8.06,0,0,0-.14,1.77V26h-1.31L122.89,11V21.61a7.37,7.37,0,0,0,.15,1.76,1.32,1.32,0,0,0,.77.84,4.84,4.84,0,0,0,2,.29v1.31H118.6V24.5a4.27,4.27,0,0,0,1.86-.29,1.27,1.27,0,0,0,.72-.84,8.24,8.24,0,0,0,.13-1.76V11.74c0-.79,0-1.39-.06-1.79a2.81,2.81,0,0,0-.31-1,1.76,1.76,0,0,0-.79-.73,4.38,4.38,0,0,0-1.52-.37V6.48h5.63l11,13V10.66A7,7,0,0,0,135.12,9a1.38,1.38,0,0,0-.74-.89,4.23,4.23,0,0,0-1.88-.31V6.48h7.22Z"/><path d="M151.41,25.81H141.6V24.5a5.82,5.82,0,0,0,1.86-.23,1.37,1.37,0,0,0,.82-.71,3.85,3.85,0,0,0,.19-1.34V10.08A2.42,2.42,0,0,0,144,8.31a3.62,3.62,0,0,0-2.35-.51V6.48h9.81V7.8a5.44,5.44,0,0,0-1.85.24,1.33,1.33,0,0,0-.82.7,3.63,3.63,0,0,0-.19,1.34V22.22a3.79,3.79,0,0,0,.18,1.3,1.4,1.4,0,0,0,.79.73,5.26,5.26,0,0,0,1.89.25Z"/><path d="M180.46,25.81h-9.7V24.5a4.92,4.92,0,0,0,1.84-.25,1.29,1.29,0,0,0,.76-.72,3.85,3.85,0,0,0,.18-1.31V10.1l-7.3,15.71h-.87L158,10.1V21.61A12,12,0,0,0,158,23a1.62,1.62,0,0,0,.33.83,1.52,1.52,0,0,0,.83.51,6,6,0,0,0,1.58.16v1.31h-7.15V24.5a5.56,5.56,0,0,0,1.59-.17,1.53,1.53,0,0,0,.82-.51,1.7,1.7,0,0,0,.31-.82,12,12,0,0,0,.06-1.39V10.66a8.94,8.94,0,0,0-.13-1.77,1.22,1.22,0,0,0-.71-.82,5,5,0,0,0-1.94-.27V6.48h7.07l6.41,13.65,6.43-13.65h6.92V7.8a3.54,3.54,0,0,0-2.31.51,2.49,2.49,0,0,0-.52,1.77V22.22a4,4,0,0,0,.17,1.27,1.35,1.35,0,0,0,.8.75,5.11,5.11,0,0,0,1.86.26Z"/><path d="M201.87,25.81h-9.11V24.5a6.31,6.31,0,0,0,1.69-.16.72.72,0,0,0,.52-.78,2.32,2.32,0,0,0-.17-.87l-.91-2.28h-6.27l-.47,1.25a5,5,0,0,0-.4,1.53,1,1,0,0,0,.66,1.08,4.56,4.56,0,0,0,1.55.23v1.31H182.3V24.5a2.81,2.81,0,0,0,1.35-.3,3,3,0,0,0,1.07-1.13,16,16,0,0,0,1.09-2.36l5.57-14.6h1.35l5.89,15.06c.43,1.06.74,1.78.94,2.16a2.24,2.24,0,0,0,.83.87,3,3,0,0,0,1.48.3ZM193.38,19l-2.67-6.74L188.17,19Z"/><path d="M221.05,19.36l-.13,6.45H203.7V24.5A3.49,3.49,0,0,0,206,24a2.46,2.46,0,0,0,.51-1.77V10.08a4.07,4.07,0,0,0-.17-1.31,1.29,1.29,0,0,0-.79-.72,5.12,5.12,0,0,0-1.85-.25V6.48h9.73V7.8a5.41,5.41,0,0,0-1.84.24,1.34,1.34,0,0,0-.81.7,3.63,3.63,0,0,0-.19,1.34V21.19a9.3,9.3,0,0,0,.13,1.89,1.23,1.23,0,0,0,.69.86,4.48,4.48,0,0,0,1.87.29,14.32,14.32,0,0,0,2.87-.25,4.46,4.46,0,0,0,2.29-1.32,5.58,5.58,0,0,0,1.3-3.3Z"/><path d="M122.06,78.54a5,5,0,0,0-1.37.22,2.23,2.23,0,0,0-1,.61,5.62,5.62,0,0,0-.75,1.14c-.25.48-.6,1.23-1,2.26l-7.24,16.89h-1.52L101.6,81.94a17.74,17.74,0,0,0-1.1-2.28,2,2,0,0,0-1-.87,5.89,5.89,0,0,0-2-.25V77h11.31v1.5a10.14,10.14,0,0,0-2.23.27.91.91,0,0,0-.62,1,3.7,3.7,0,0,0,.39,1.57l5.11,11.88,4.72-11.09a6.45,6.45,0,0,0,.6-2c0-.71-.24-1.16-.73-1.33a7.58,7.58,0,0,0-2.21-.3V77h8.22Z"/><path d="M144.3,91.94l-.18,7.31H124.33V97.74a3.92,3.92,0,0,0,2.63-.59,2.78,2.78,0,0,0,.6-2v-14a4.82,4.82,0,0,0-.19-1.49,1.5,1.5,0,0,0-.89-.83,5.71,5.71,0,0,0-2.15-.31V77h18.43l.29,5.76h-1.51a7.42,7.42,0,0,0-1.17-2.74,2.73,2.73,0,0,0-1.49-1,12.61,12.61,0,0,0-2.48-.18h-4.16V86.7h2.26a5.77,5.77,0,0,0,1.74-.2,1.31,1.31,0,0,0,.8-.78,6.27,6.27,0,0,0,.31-1.8h1.57v7.39h-1.5a5.74,5.74,0,0,0-.33-1.82,1.4,1.4,0,0,0-.83-.77,5.65,5.65,0,0,0-1.73-.2h-2.29v5.23c0,.87,0,1.51.06,1.91a2.17,2.17,0,0,0,.36,1,1.61,1.61,0,0,0,.93.58,7.26,7.26,0,0,0,1.84.18h1.79a8,8,0,0,0,2.15-.28,4.22,4.22,0,0,0,2-1.48,7.73,7.73,0,0,0,1.38-3.73Z"/><path d="M172.26,90.49a4.93,4.93,0,0,0-1.43.3,1.17,1.17,0,0,0-.66.7A4.94,4.94,0,0,0,170,93v5.21a23.88,23.88,0,0,0-5.15.62c-1.33.3-2.33.5-3,.62a14.73,14.73,0,0,1-2.36.17A11,11,0,0,1,153.31,98a10.74,10.74,0,0,1-3.86-4.34,12.48,12.48,0,0,1-1.28-5.45,11.58,11.58,0,0,1,1.52-5.86,11.26,11.26,0,0,1,9.83-5.68,10.38,10.38,0,0,1,6.86,2.61,6.75,6.75,0,0,0,.61-1.93h1.59l.16,7.27h-1.5a8.18,8.18,0,0,0-1.3-3,7.06,7.06,0,0,0-2.37-2.18,6.14,6.14,0,0,0-3.12-.8A7.09,7.09,0,0,0,158,79a5.93,5.93,0,0,0-2.23,1.51,7.58,7.58,0,0,0-1.67,2.92,14.34,14.34,0,0,0-.64,4.57,20,20,0,0,0,.5,4.48,7.48,7.48,0,0,0,2,3.68,5.65,5.65,0,0,0,4.25,1.54A6.39,6.39,0,0,0,163.5,97,3.18,3.18,0,0,0,165,95.37a6.91,6.91,0,0,0,.34-2.2,5.61,5.61,0,0,0-.18-1.67,1.25,1.25,0,0,0-.8-.77,5.83,5.83,0,0,0-1.94-.24V89h9.89Z"/><path d="M196.19,99.25H185.72V97.74a6.86,6.86,0,0,0,1.93-.19.82.82,0,0,0,.61-.89,2.62,2.62,0,0,0-.2-1L187,93h-7.2l-.54,1.44a5.7,5.7,0,0,0-.46,1.76,1.15,1.15,0,0,0,.76,1.24,5.34,5.34,0,0,0,1.78.26v1.51H173.7V97.74a3.2,3.2,0,0,0,1.55-.34,3.36,3.36,0,0,0,1.22-1.3,17.81,17.81,0,0,0,1.26-2.71l6.4-16.78h1.56l6.76,17.3c.5,1.22.86,2,1.09,2.48a2.39,2.39,0,0,0,.94,1,3.41,3.41,0,0,0,1.71.35Zm-9.76-7.81-3.07-7.75-2.91,7.75Z"/><path d="M222.45,78.54a5.86,5.86,0,0,0-2.27.32,1.42,1.42,0,0,0-.85,1,8.69,8.69,0,0,0-.17,2V99.45h-1.51L203.12,82.18V94.42a8.07,8.07,0,0,0,.18,2,1.5,1.5,0,0,0,.87,1,5.76,5.76,0,0,0,2.28.33v1.51h-8.26V97.74a5.09,5.09,0,0,0,2.14-.33,1.48,1.48,0,0,0,.82-1,9.47,9.47,0,0,0,.16-2V83.08a20.47,20.47,0,0,0-.08-2.06,3.23,3.23,0,0,0-.35-1.21A2,2,0,0,0,200,79a5.22,5.22,0,0,0-1.74-.44V77h6.47L217.34,92V81.84a7.81,7.81,0,0,0-.17-1.91,1.62,1.62,0,0,0-.85-1,4.83,4.83,0,0,0-2.16-.36V77h8.29Z"/><path d="M110.47,38.46h-1a4.31,4.31,0,0,0-.59-2,1.92,1.92,0,0,0-1-.79,4.4,4.4,0,0,0-1.21-.15h-1.85V46.19a2.82,2.82,0,0,0,.13,1,1,1,0,0,0,.6.55,4.09,4.09,0,0,0,1.39.19v1H99.62v-1a2.59,2.59,0,0,0,1.73-.39,1.84,1.84,0,0,0,.39-1.33V35.52h-1.55a7.15,7.15,0,0,0-1.52.14,1.81,1.81,0,0,0-1,.8,3.84,3.84,0,0,0-.53,2h-1V34.32h14.4Z"/><path d="M125.35,44.1l-.12,4.8h-13v-1a2.59,2.59,0,0,0,1.73-.39,1.84,1.84,0,0,0,.39-1.33V37a2.8,2.8,0,0,0-.13-1,1,1,0,0,0-.58-.55,3.76,3.76,0,0,0-1.41-.2v-1h12.09l.19,3.79h-1a5.15,5.15,0,0,0-.77-1.8,1.78,1.78,0,0,0-1-.67,8.18,8.18,0,0,0-1.63-.12h-2.73v5.15h1.48a3.56,3.56,0,0,0,1.14-.14.86.86,0,0,0,.53-.51,4,4,0,0,0,.2-1.18h1v4.85h-1a3.39,3.39,0,0,0-.22-1.19.85.85,0,0,0-.54-.51,3.59,3.59,0,0,0-1.13-.13h-1.51v3.43c0,.57,0,1,0,1.25a1.3,1.3,0,0,0,.24.66,1,1,0,0,0,.61.39,4.72,4.72,0,0,0,1.21.11h1.17a5.45,5.45,0,0,0,1.41-.18,2.78,2.78,0,0,0,1.32-1,5,5,0,0,0,.9-2.45Z"/><path d="M138.48,44.72a3.86,3.86,0,0,1-.3,1.43,4.87,4.87,0,0,1-.87,1.45,4.32,4.32,0,0,1-1.48,1.13,4.63,4.63,0,0,1-2.06.44,5.68,5.68,0,0,1-2.31-.51,5.16,5.16,0,0,1-1.94-1.5,6,6,0,0,0-.44,1.47h-1v-5h1a10.11,10.11,0,0,0,.74,2,4.89,4.89,0,0,0,1.34,1.63,3.37,3.37,0,0,0,2.13.68,2.5,2.5,0,0,0,1.75-.6,2,2,0,0,0,.66-1.51,2,2,0,0,0-.2-.91,2.24,2.24,0,0,0-.59-.69,7.74,7.74,0,0,0-1.06-.66c-.45-.23-1-.47-1.53-.73a13,13,0,0,1-2.17-1.26,5.91,5.91,0,0,1-1.29-1.23,3.9,3.9,0,0,1-.6-1.13,3.7,3.7,0,0,1-.17-1.09,4,4,0,0,1,.53-1.93,4.26,4.26,0,0,1,1.54-1.56,4.54,4.54,0,0,1,2.35-.6,4.42,4.42,0,0,1,2,.45,5.14,5.14,0,0,1,1.6,1.26,6.16,6.16,0,0,0,.35-1.27h1v4.06h-1q-1.07-3.32-3.74-3.32a2.28,2.28,0,0,0-1.55.51,1.67,1.67,0,0,0-.59,1.32,1.76,1.76,0,0,0,.37,1.1,3.06,3.06,0,0,0,1,.8c.4.22,1,.54,1.93,1a26.74,26.74,0,0,1,2.52,1.33,5.43,5.43,0,0,1,1.54,1.4,3.36,3.36,0,0,1,.63,2.06"/><path d="M155.08,38.46h-1a4.31,4.31,0,0,0-.59-2,1.92,1.92,0,0,0-1-.79,4.4,4.4,0,0,0-1.21-.15h-1.85V46.19a2.82,2.82,0,0,0,.13,1,1,1,0,0,0,.6.55,4.09,4.09,0,0,0,1.39.19v1h-7.31v-1a2.59,2.59,0,0,0,1.73-.39,1.84,1.84,0,0,0,.39-1.33V35.52H144.8a7.15,7.15,0,0,0-1.52.14,1.81,1.81,0,0,0-1.05.8,3.84,3.84,0,0,0-.53,2h-1V34.32h14.4Z"/><rect x="155.6" y="43.39" width="5.81" height="2.16"/><path d="M175.52,38.11h-1a4.64,4.64,0,0,0-.71-1.78,1.79,1.79,0,0,0-1-.68,6.87,6.87,0,0,0-1.54-.13h-2.61v5.15H170a1.91,1.91,0,0,0,1.31-.34,2.31,2.31,0,0,0,.41-1.47h1v4.85h-1a4.44,4.44,0,0,0-.2-1.21.85.85,0,0,0-.5-.5,2.79,2.79,0,0,0-1-.14h-1.33v4.33a2,2,0,0,0,.35,1.3c.24.28.79.42,1.67.42h.3v1h-7.48v-1a2.54,2.54,0,0,0,1.71-.39,1.92,1.92,0,0,0,.38-1.33V37a2.8,2.8,0,0,0-.13-1,1,1,0,0,0-.58-.55,3.72,3.72,0,0,0-1.38-.2v-1h11.92Z"/><path d="M193,48.9h-3.9a6.59,6.59,0,0,1-.53-.69c-.22-.3-.45-.65-.7-1.06l-.62-1-1-1.64a14.38,14.38,0,0,0-1-1.5,1.54,1.54,0,0,0-.78-.51,6.27,6.27,0,0,0-1.48-.12h-.54v3.81a3.24,3.24,0,0,0,.12,1,1,1,0,0,0,.61.56,4.13,4.13,0,0,0,1.39.19v1h-7.3v-1a2.54,2.54,0,0,0,1.71-.39,1.89,1.89,0,0,0,.38-1.33V37a1.92,1.92,0,0,0-.37-1.33,2.54,2.54,0,0,0-1.72-.39v-1l3.37-.11.89,0h.93l1.1,0c.73,0,1.4.07,2,.13a9.25,9.25,0,0,1,1.5.25,5,5,0,0,1,1.53.67,3.82,3.82,0,0,1,1.18,1.25,3.44,3.44,0,0,1,.46,1.8,3.34,3.34,0,0,1-.32,1.41,3.27,3.27,0,0,1-1,1.23,5.39,5.39,0,0,1-1.85.85,5.05,5.05,0,0,1,1.33,1.14c.36.46.94,1.3,1.72,2.51A16.52,16.52,0,0,0,191.24,47a2.18,2.18,0,0,0,1.75,1Zm-6-10.7a2.37,2.37,0,0,0-1.06-2.31,5.85,5.85,0,0,0-2.77-.57h-.67v5.86h.67a6.36,6.36,0,0,0,2.73-.52c.73-.36,1.1-1.18,1.1-2.47"/><path d="M207.28,44.1l-.12,4.8h-13v-1a2.61,2.61,0,0,0,1.73-.39,1.89,1.89,0,0,0,.38-1.33V37a3.1,3.1,0,0,0-.12-1,1,1,0,0,0-.58-.55,3.83,3.83,0,0,0-1.41-.2v-1h12.09l.19,3.79h-1a5,5,0,0,0-.77-1.8,1.75,1.75,0,0,0-1-.67,8.07,8.07,0,0,0-1.62-.12h-2.73v5.15h1.48a3.56,3.56,0,0,0,1.14-.14.82.82,0,0,0,.52-.51,3.91,3.91,0,0,0,.21-1.18h1v4.85h-1a3.69,3.69,0,0,0-.21-1.19A.89.89,0,0,0,202,42a3.51,3.51,0,0,0-1.13-.13h-1.5v3.43c0,.57,0,1,0,1.25a1.3,1.3,0,0,0,.23.66,1.08,1.08,0,0,0,.61.39,4.82,4.82,0,0,0,1.21.11h1.17a5.47,5.47,0,0,0,1.42-.18,2.8,2.8,0,0,0,1.31-1,5.13,5.13,0,0,0,.91-2.45Z"/><path d="M222.37,44.1l-.12,4.8h-13v-1a2.61,2.61,0,0,0,1.73-.39,1.84,1.84,0,0,0,.39-1.33V37a3.06,3.06,0,0,0-.13-1,1,1,0,0,0-.58-.55,3.76,3.76,0,0,0-1.41-.2v-1h12.09l.19,3.79h-1a5,5,0,0,0-.77-1.8,1.76,1.76,0,0,0-1-.67,8.25,8.25,0,0,0-1.63-.12h-2.73v5.15h1.48a3.56,3.56,0,0,0,1.14-.14.86.86,0,0,0,.53-.51,4,4,0,0,0,.2-1.18h1v4.85h-1a3.43,3.43,0,0,0-.21-1.19.88.88,0,0,0-.54-.51,3.62,3.62,0,0,0-1.14-.13h-1.5v3.43c0,.57,0,1,0,1.25a1.4,1.4,0,0,0,.23.66,1.08,1.08,0,0,0,.62.39,4.69,4.69,0,0,0,1.2.11h1.18a5.45,5.45,0,0,0,1.41-.18,2.76,2.76,0,0,0,1.31-1,4.93,4.93,0,0,0,.91-2.45Z"/><path d="M152.1,57.45c-.36,0-3.22,0-3.22,0l-2.66,9.91h2.21l.93-3.35h0c1.48.13,4.74.17,5.21-3.46a2.46,2.46,0,0,0-2.49-3.11m-.38,4.15a2.12,2.12,0,0,1-1.8.45l.29-1.1.41-1.47c.15,0,1.22-.13,1.53.12s.08,1.52-.43,2m8.86-4c-1.89-.6-3.44.82-4.52,2.17a8.32,8.32,0,0,0-1.77,4.9c.05,1.06.31,2.23,1.42,2.65,1.75.43,3-.94,4-2.16.05-.07.23-.34.38-.59h0l-.23-.15a7.47,7.47,0,0,1-.67.84,2.58,2.58,0,0,1-2.33.86c-.92-.21-1.1-1.87-1-2.57a5,5,0,0,1,.31-1.13c.45-.09,4-.85,4.91-2.23a2,2,0,0,0,.19-2,1.51,1.51,0,0,0-.74-.58M158,61.42a10.94,10.94,0,0,1-1.55.43l0-.09c.15-.42,1.62-4.47,3.13-4s.44,3-1.61,3.62m12.81-4-4.72,9.94h2.46l.72-1.58h2.22v1.58h2.16V57.43Zm.68,6.37h-1.32l1.31-2.88V63.8Zm-5.12-4.24-2.17,7.81h-2.4l2.09-7.81h-2l.61-2.13h6.54l-.57,2.13Z"/><polygon class="cls-2" points="141.31 62.26 141.31 63.38 132.28 63.38 104.81 63.38 95.79 63.38 95.79 62.26 104.81 62.26 132.28 62.26 141.31 62.26"/><polygon class="cls-2" points="222.83 62.26 222.83 63.38 213.81 63.38 186.33 63.38 177.31 63.38 177.31 62.26 186.33 62.26 213.81 62.26 222.83 62.26"/></g></g></svg>