<svg xmlns="http://www.w3.org/2000/svg" viewBox="0 0 89.91 89.91"><defs><style>.cls-1{fill:#959595;}.cls-2{fill:#fff;}</style></defs><title>Asset 17</title><g id="Layer_2" data-name="Layer 2"><g id="Layer_1-2" data-name="Layer 1"><path class="cls-1" d="M89.91,45A45,45,0,1,1,45,0a45,45,0,0,1,45,45"/><path class="cls-2" d="M63.05,33.89C61,29.83,56.47,27,53.59,26.53c0-.12,0-.24,0-.37.19-4.76-4.57-15.92-5.37-11.9a20.07,20.07,0,0,0-.79,7.81c-2.64-4.21-6.55-8.23-6.3-5.3.08.83-.13,5.39,2.18,9.14a14.72,14.72,0,0,0,3.82,4,9,9,0,0,0-.74,3.48h0c0,.06,0,.11,0,.17s0,.24,0,.36a6,6,0,0,0,.06.86c-.14,4-3.3,5.56-5.43,6.14-.64.08-1.26.2-1.88.33h0a17.18,17.18,0,0,0-8.48,4.21,18,18,0,0,0-3.08,21.23,3.94,3.94,0,1,0-2.15,7.25,8.49,8.49,0,0,0,6.18-2.76l.67.11a.91.91,0,0,0-.2.19c-1.8,2.46,1.61,2.46,1.61,2.46H49.79s3.18-1.36,0-3.48c-1.55-1-3.93-.94-6-.57a10.08,10.08,0,0,0,4.49-6.67c.57-.59,1.11-1.18,1.64-1.78A59.41,59.41,0,0,0,54.2,72.66c.7,1.54,1.31,1.24,1.31,1.24h4.15c2.17-.53-.88-3.4-1.53-4s-2.22-7-2.58-9.78,1.45-6.44,1.56-6.67h0s1.69-1.36,1.64-4.86v0s0,0,0,0a15.49,15.49,0,0,0-1.07-5.07c-1.14-3.09,0-3.3.47-3.27h0l.69.1s8,0,4.19-6.36v0M46.23,56.57c-1.43,3.09-5.08,6-6.75,7.24a1.46,1.46,0,0,1-1.73,0c-1.68-1.24-5.32-4.17-6.73-7.26A7.63,7.63,0,0,1,30.36,54a4.34,4.34,0,0,1,4.14-4.52,4.22,4.22,0,0,1,4,3.53.11.11,0,0,0,.21,0,4.22,4.22,0,0,1,4-3.52,4.35,4.35,0,0,1,4.13,4.53,7.82,7.82,0,0,1-.66,2.51"/></g></g></svg>