<svg xmlns="http://www.w3.org/2000/svg" viewBox="0 0 89.91 89.99"><defs><style>.cls-1{fill:#959595;}.cls-2{fill:#fff;}.cls-3{fill:#828181;}.cls-4{fill:#f3f3f3;}.cls-5{fill:none;}</style></defs><title>Asset 22</title><g id="Layer_2" data-name="Layer 2"><g id="Layer_1-2" data-name="Layer 1"><path class="cls-1" d="M45,0A45,45,0,0,0,43.2,89.87,47.29,47.29,0,0,0,48,89.81c.42-.06.83-.14,1.25-.22a.37.37,0,0,1,.15,0h.15c.27,0,.53-.07.8-.1s.76-.09,1.15-.14l2.1-.27c.33,0,.66-.1,1-.17l.45-.1c.21-.05.42-.09.63-.15A19.38,19.38,0,0,1,57.56,88c.09,0,.18-.07.27-.09a1.86,1.86,0,0,1,.34-.06l.28-.07h0A44.94,44.94,0,0,0,45,0Z"/><path class="cls-2" d="M26.41,61.77s-5.26-9.31-6-10.52-1.9-3-2.65-2.14c0,0-1.61-3.45-2.89-3S14,48.62,14,48.62l4.66,12Z"/><path class="cls-2" d="M63.5,61.77s5.26-9.31,6-10.52,1.9-3,2.65-2.14c0,0,1.61-3.45,2.89-3s.85,2.56.85,2.56l-4.66,12Z"/><path class="cls-3" d="M71.81,42.06A26.83,26.83,0,0,1,47.63,68.79a26.29,26.29,0,0,1-2.68.13,26.72,26.72,0,0,1-15.54-5A27.18,27.18,0,0,1,27,62c-.37-.33-.74-.67-1.09-1a26.85,26.85,0,0,1-.43-37.34A26.45,26.45,0,0,1,30,19.77h0a26.87,26.87,0,0,1,29-.59c.58.35,1.15.73,1.7,1.13a27.6,27.6,0,0,1,2.44,2A26.77,26.77,0,0,1,71.79,41c0,.34,0,.69,0,1"/><path class="cls-2" d="M42,29.34c-.17,1.94-3.54,3-5.16,4.5-1.4,1.33-2.33,3.07-.87,3.52s2.81-.77,3.6-.19,1,3.88-.08,5.43a4.27,4.27,0,0,1-5.38,1.69c-2.53-.93-3.7-.88-4.17-.37a1.79,1.79,0,0,0-.2,2.33c.31.72-.12,1,.12,1.84s2.6.67,4.06,1.55,2.56,2.56.76,4.14-2.79,2.08-3.38,3.91-1.61,4-2.65,3c-1.31-1.19.4-2.56.59-4.17s.08-2.92-1.72-4S25.19,50,26.49,48.91s1.63-1.44,1.77-3.3S28.09,43.19,27,42.8a13.87,13.87,0,0,1-4.65-3.89c-1.05-1.76-1.61-4.28.27-5.52s4.12-2.75,4.4-4.78.6-4.16-1.55-5A26.45,26.45,0,0,1,30,19.77h0a3.33,3.33,0,0,1,2.76,1.86c.7,1.74,1.63,3.8,3.66,4.84s5.8.93,5.63,2.87"/><path class="cls-2" d="M41.88,34c.33.47,1.59-.78,2.32-1.14s2.56-.06,2.91-.64.55-2.06-.58-2.48-3.1-1.2-3.23,0,.3,1.32-.41,2.18-1.46,1.46-1,2.08"/><path class="cls-2" d="M71.81,42.06a26.77,26.77,0,0,1-1.92,10,5.64,5.64,0,0,0-2.64-1.74c-1.33-.24-1.91,1.54-2.31,2.35s-1.27.9-1.37.09,1.33-3.71.32-3.94-1,1.84-1.71,3.12-2.78,1.84-4.09,2.14-2,.71-2.71,2.66-2.32,3.19-3.07,1.88.49-3.27.86-5.42-.63-3.14.27-4.72,1.8-4.76-.38-6.79-2.74-3.57-2.51-5.22,6.57-2.78,9.68,0,6.16,2.44,8.3,2.93A7,7,0,0,1,71.79,41c0,.34,0,.69,0,1"/><path class="cls-4" d="M39.94,89.89l0,0c-.08-.06,0,0,.07,0h.57c.4,0,.8,0,1.21,0,.62,0,1.24,0,1.86,0,.15-3.56.43-9.45.66-12.17.35-4-.39-13.3-4.5-15.4s-9.45-4.77-10.94-5.68-3.37-1.62-4.11-.92,1.53,3.63,3.11,4.63a50.55,50.55,0,0,1,6.34,5.25c.17.44-6.69-3.36-8-4.59s-5.86-3.81-6.73-3.76c0,0-1.62-5.65-4-7.05,0,0-1.71-4.72-3.55-5.2s-2.14.48-2.1.92,6.21,15.27,6.87,15.83S27.81,68.37,29.87,73.8c1.28,3.39,2.34,10,3,14.47a4.46,4.46,0,0,1,.5.22,5.37,5.37,0,0,0,.8.27c.6.17,1.19.3,1.8.44a23.06,23.06,0,0,0,3.71.55A.5.5,0,0,1,39.94,89.89Z"/><path class="cls-4" d="M77.94,45.1c-1.84.48-3.55,5.2-3.55,5.2-2.36,1.4-4,7.05-4,7.05-.87-.05-5.42,2.54-6.74,3.76s-8.18,5-8,4.59A49.83,49.83,0,0,1,62,60.45c1.58-1,3.85-3.93,3.11-4.63s-2.63,0-4.11.92-7.07,3.17-10.94,5.68c-3.71,2.41-4.86,11.38-4.51,15.4.24,2.71.51,8.59.67,12.15a18.81,18.81,0,0,0,3-.38.37.37,0,0,1,.15,0h.15c.27,0,.53-.07.8-.1s.76-.09,1.15-.14l2.1-.27a16,16,0,0,0,2.06-.42c.5-.14,1-.34,1.47-.48.62-4.47,1.67-11,2.94-14.33,2.06-5.43,12.47-11.38,13.13-11.95S80,46.45,80,46,79.77,44.62,77.94,45.1Z"/><path class="cls-5" d="M53,89.06C79.42,83.87,96.87,54,86.86,28.7,77.44,4.88,47.11-6.82,24.28,5A45.8,45.8,0,0,0,0,45"/><path class="cls-5" d="M33.36,88.4A43.73,43.73,0,0,0,48.3,89.72"/><path class="cls-5" d="M0,45A45.36,45.36,0,0,0,32,88"/></g></g></svg>