<svg xmlns="http://www.w3.org/2000/svg" viewBox="0 0 89.91 89.91"><defs><style>.cls-1{fill:#959595;}.cls-2{fill:#f3f3f3;}</style></defs><title>Asset 14</title><g id="Layer_2" data-name="Layer 2"><g id="Layer_1-2" data-name="Layer 1"><path class="cls-1" d="M89.91,45A45,45,0,1,1,45,0a45,45,0,0,1,45,45"/><path class="cls-2" d="M22.59,22.91a28.14,28.14,0,0,1,13.71,15c2.56,6.59,4.29,13.5,6.4,20.27a7.39,7.39,0,0,0,1.61,2.94c.42-1,.9-1.89,1.26-2.87,2.25-6.12,4.2-12.38,6.81-18.35,1.57-3.56,4.17-6.66,6.31-10,.34-.52.7-1,1.1-1.59-2.86-.58-5.39,1.58-9.61,8-.69-5,2.43-10.79,7.16-12.37,3.93-1.31,8.07-2,12.46-3-.62,3.88-.79,7.54-1.86,10.91-1.37,4.34-5.17,6.36-9.39,7.07A6.12,6.12,0,0,0,53.47,43,95.08,95.08,0,0,0,47.1,67a9.19,9.19,0,0,1-.56,3.06c-.49.91-1.48,2.12-2.29,2.14a3.25,3.25,0,0,1-2.38-2C40.52,65.17,39.56,60,38.24,55c-2.56-9.8-5.66-19.38-12-27.53-1.19-1.52-2.41-3-3.62-4.51"/></g></g></svg>