<?xml version="1.0" encoding="utf-8"?>
<!-- Generator: Adobe Illustrator 23.1.0, SVG Export Plug-In . SVG Version: 6.00 Build 0)  -->
<svg version="1.1" id="Layer_1" xmlns="http://www.w3.org/2000/svg" xmlns:xlink="http://www.w3.org/1999/xlink" x="0px" y="0px"
	 viewBox="0 0 142.3 149.6" style="enable-background:new 0 0 142.3 149.6;" xml:space="preserve">
<style type="text/css">
	.st0{clip-path:url(#SVGID_2_);}
	.st1{fill:#3B2110;}
	.st2{fill:#EEA978;}
	.st3{fill:#6E3B34;}
	.st4{fill:#5E3126;}
	.st5{fill:#D39163;}
	.st6{fill:#F9F0EB;}
	.st7{fill:#FFFFFF;}
	.st8{fill:#DE8165;}
	.st9{fill:#F4DDC7;}
	.st10{fill:#4C3029;}
	.st11{fill:#E87D4F;}
	.st12{fill:#F6C39D;}
	.st13{fill:#472816;}
	.st14{fill:#EDB057;}
	.st15{fill:#E5AD88;}
	.st16{fill:#C15C38;}
</style>
<title>Asset 10</title>
<g>
	<g id="Layer_1-2">
		<g>
			<defs>
				<path id="SVGID_1_" d="M-9.1,67.7c0,45.2,36.7,81.9,81.9,81.9s81.9-36.7,81.9-81.9s-36.7-81.9-81.9-81.9S-9.1,22.4-9.1,67.7
					C-9.1,67.7-9.1,67.7-9.1,67.7"/>
			</defs>
			<clipPath id="SVGID_2_">
				<use xlink:href="#SVGID_1_"  style="overflow:visible;"/>
			</clipPath>
			<g class="st0">
				<path class="st1" d="M66.8,19c-0.1-1.5,24-18.7,26.1-19s28.1,17.2,28,19c-0.1,0.8-26.9,15.3-28,15.6S66.9,21.1,66.8,19"/>
				<path class="st2" d="M109,63.1c1.4-2.2-6.3-6.7-7.6-9.5s-0.9-4.7-0.8-8.3c0,0.1-11-0.1-14.8,0.1c0.1,3.8,0.9,6.9-2,10.3
					c-2.5,3-6.8,5.3-4.9,8.7C81.1,68.1,105,69.4,109,63.1"/>
				<path class="st1" d="M128.3,261.5c-1.5-2-6.7-6.2-9.9-15.9c-0.5-1.6-1.3-5.9-1.7-7c-0.1-0.2-14.6,0.9-14.6,1.1
					c0.4,1.4,0.4,2.9,1.2,4.4c-0.2,2.4-1.6,5.9-1,8.2c0,0.2,0.1,0.4,0.2,0.6c0.1,1.8,0.4,3.5,1,5.2c0.3,0.4,5.2,2.8,5.3,2.2
					c0.2-1.4,4,2.8,4.8,3.5c3,2.5,6.3,4.6,9.9,6.3c2.3,0.5,4.7,0.2,6.8-0.9C132.3,268,131.1,265.2,128.3,261.5"/>
				<path class="st1" d="M88.4,250.6c0-0.6-0.4-5.2-0.4-5.4c-0.2-0.6-12.8-0.5-12.7-0.3c0.3,1,0.4,2.1,0.3,3.2
					c-0.3,1.6,0.5,3.2,0.4,4.9c-0.3,3.8-2.4,8.8-4.1,12.9c-0.5,1.2-0.2,5.2,0.4,7.3c1.1,3.7,2.9,3.7,4.8,4.2
					c1.6,0.2,3.3-0.2,4.5-1.3c1.5-1.1,2.8-2.4,3.9-4c0.3-0.3,0.5-0.7,0.6-1.1c0.1-0.4,0.2-0.8,0.2-1.2c0.1-1.5,0.5-3.1,0.6-4.7
					c0.1-1.4,1.1-4.5,1.3-7.8c0.1-1.4,0-3.7,0-5.2C88.3,251.7,88.4,251.2,88.4,250.6"/>
				<path class="st3" d="M119.5,188.6c0.1-4.3,0.9-8.8,0.8-13.1c-0.2-8.6,1.8-16.6,1.3-25.2c-0.4-7.2-1.9-14.7-3.2-21.7
					c-0.4-2.2-3.5-11.7-4.8-11c-1.9,1-9.4,3.1-20.8,3.6c-6.8,0.2-16.6-3.6-18.3-3.4c-1.1,0.1-3.3,10.6-3.9,13.6
					c-1.9,9.2-2.9,18.5-2.8,27.9c0,5.4,0.3,10.8,1,16.1c0.6,3.8,1,7.6,1.1,11.4c-0.2,2-0.2,4,0,6c0.3,1.8,0.9,3.6,1.2,5.4
					c0.2,1.5,0.2,13.1,1,17.3c0.5,3.5,0.7,7,0.6,10.5c0,6,0.5,11.9,0.3,17.9c-0.1,1.7,0.9,3.1,1,4.7c0.2,0.7,0.2,1.5,0.1,2.3
					c-0.2,0.5-0.4,1.1-0.3,1.7c0.1,0.7,0.7,1.2,1.3,1.2c0.6-0.1,1.2-0.3,1.8-0.6c0.8-0.1,1.6-0.2,2.4-0.1c1,0.2,2,0.5,3,0.9
					c1.1,0.2,2.2,0.3,3.2,0.2c1.6-0.1,3.3,0,4.9,0s1.7-1.5,1.7-2.9c-0.1-0.8-0.3-1.6-0.6-2.3c-0.2-1-0.3-2-0.2-3
					c0.6-5.3,1.7-10.4,1.8-15.7c0-2.7-0.3-5.5-0.3-8.2c0-3.1,0.4-6.1,0.4-9.2c0-1.6-1.3-13.4-1-15.2c0.2-1.6,1.6-3.4,1.8-5
					c1-7,1.8-29.1,1.4-32.1c1.6,0.4,0.4,24.4,1.7,29.1c0.7,2.2,1.3,4.5,1.6,6.8c0.2,2.2-1.8,13.6-1.8,15.6c0,3.1-0.2,6-0.1,9.1
					c0.2,3.7,1.7,7.2,2.1,10.9c0.3,2.9-1.2,6-0.7,8.9c0.5,2.6,1.2,5.2,1.4,7.9c0.1,1.1-0.3,2.7,1,3c1.7,0.4,3.8-0.4,5.6-0.4
					c2.3-0.1,4,0.2,6.3-0.7c1.7-0.6,3.2-1.6,4.9-2c1-0.2,0.8-0.1,1.6-0.8c1.1-1,1.1-2.5,1-3.9c-0.1-1.7-1.5-3.1-0.8-4.7
					c0.3-1,0.4-2.2,0.3-3.3c0-1.4,0.1-2.6,0-5.4c-0.1-4.3-1.6-6.1-1.6-10.4c0.1-5.5,1.9-29.2,2-31.4"/>
				<path class="st4" d="M80.9,29.1c0.4,3.6,2.9,5.9,2.4,9.5c-0.7,4.9,20.2,3.4,20.1,1.2c-0.4-5.2,3.6-8.1,2.7-12.1
					C104.6,20.7,80,19.9,80.9,29.1"/>
				<path class="st2" d="M86.5,23.8c-2.2,1-3.1,3-3.4,7.4c0.3,5.1-0.1,11.2,1.6,14c1.3,2.1,5.7,6.2,8.6,6.1c3.5-0.1,7.8-3.9,9-6.5
					c1-2.2,1.2-8.9,1.2-10.9c-0.1-6-1.3-10.7-6.2-11.1C93.7,22.6,90,22.2,86.5,23.8"/>
				<path class="st2" d="M105,33.3c0.1,0,0.2,0,0.3,0c0.1,0.1,0.2,0.2,0.2,0.3c0.2,0.7,0.2,1.3,0.1,2c-0.3,1.8-0.8,3.5-1.6,5.1
					c-0.3,0.6-0.7,1.2-1.3,1.3c-0.1,0-0.2,0-0.3-0.1c-0.1-0.1-0.1-0.3-0.1-0.4c0.1-1.9,0.3-3.7,0.6-5.5
					C103,34.5,103.3,33.6,105,33.3"/>
				<path class="st2" d="M81.9,33.3c-0.1,0-0.2,0-0.3,0c-0.1,0.1-0.2,0.2-0.2,0.3c-0.2,0.7-0.2,1.3-0.1,2c0.2,1.8,0.8,3.5,1.5,5.1
					c0.3,0.6,0.7,1.2,1.3,1.3c0.1,0,0.2,0,0.3-0.1c0.1-0.1,0.1-0.3,0.1-0.4c-0.1-1.9-0.3-3.7-0.6-5.5C83.8,34.5,83.6,33.6,81.9,33.3
					"/>
				<path class="st5" d="M94.6,39.8c0.2,0.2,0.3,0.5,0.3,0.7c-0.1,0.3-0.2,0.5-0.5,0.6c-0.7,0.3-1.5,0.3-2.3,0.1
					c-0.1,0-0.2-0.1-0.3-0.1c-0.1-0.2,0-0.3,0.2-0.5c0.2-0.1,0.4-0.2,0.6-0.3c0.1,0,0.2,0,0.3-0.1C93,40,93,39.9,93,39.7
					c0-0.3-0.2-2.8,0.4-2.6c0.3,0.1,0.4,1,0.5,1.3C94.1,38.9,94.3,39.3,94.6,39.8"/>
				<path class="st4" d="M88.8,35.6c0,0.5-0.3,0.9-0.7,0.9s-0.7-0.4-0.7-0.9c-0.1-0.4,0.1-0.8,0.5-0.9c0.4-0.1,0.8,0.1,0.9,0.5
					C88.8,35.4,88.8,35.5,88.8,35.6"/>
				<path class="st4" d="M99.3,35.6c0,0.5-0.3,0.9-0.7,0.9S98,36.1,98,35.6c-0.1-0.4,0.2-0.8,0.7-0.9C99,34.8,99.3,35.1,99.3,35.6"
					/>
				<path class="st4" d="M86.4,35.8c0.7-0.9,2-1.2,2.9-0.5c0.2,0.2,0.4,0.4,0.6,0.6c0.1,0.2,0.4,0,0.3-0.2c-0.7-1.1-2.2-1.5-3.3-0.8
					c-0.3,0.2-0.5,0.4-0.7,0.7C86,35.8,86.3,36,86.4,35.8"/>
				<path class="st4" d="M100.7,35.7c-0.7-1.1-2.2-1.4-3.3-0.7c-0.3,0.2-0.5,0.4-0.7,0.7c-0.1,0.2,0.2,0.3,0.3,0.2
					c0.6-1,1.9-1.3,2.9-0.6c0.2,0.1,0.4,0.3,0.6,0.6C100.5,36,100.8,35.8,100.7,35.7"/>
				<path class="st4" d="M98.5,32.8c-0.7,0-1.4,0.2-2,0.4c-0.3,0.2-0.1,1.1,0,1c0.7-0.3,1.4-0.4,2.1-0.4c0.6,0,1.7,0.6,2.4,0.6
					c0.2,0,1.6,0,1.1-0.4C100.9,33.5,99.7,33.1,98.5,32.8"/>
				<path class="st4" d="M88,32.8c0.7,0,1.4,0.2,2,0.4c0.3,0.2,0.1,1.1,0,1c-0.7-0.3-1.4-0.4-2.1-0.4c-0.6,0-1.7,0.6-2.4,0.6
					c-0.2,0-1.6,0-1.1-0.4C85.6,33.5,86.8,33.1,88,32.8"/>
				<path class="st5" d="M90,44.3c0.8,0.5,1.7,0.8,2.7,0.8c1,0.1,2,0,2.9-0.3c0.4-0.1,0.8-0.4,1.2-0.6c0.1-0.1-0.1-0.3-0.2-0.2
					c-0.6,0.5-1.4,0.8-2.2,0.8c-1,0.1-1.9,0.1-2.8-0.2c-0.5-0.1-0.9-0.3-1.3-0.6C90,43.9,89.9,44.2,90,44.3"/>
				<path class="st5" d="M93,46.2h0.2h0.2c0.1,0,0.3,0,0.4,0c0.1,0,0.2-0.1,0.2-0.2c0-0.1-0.1-0.2-0.2-0.2l0,0c-0.3,0-0.6,0-0.9,0.1
					c-0.1,0-0.1,0.1-0.1,0.2C92.8,46.2,92.9,46.3,93,46.2"/>
				<path class="st5" d="M90.3,50.5c1.8,1.4,4.3,1.5,6.2,0.3c0.2-0.1,0-0.4-0.2-0.3c-1.8,1.2-4.1,1.1-5.8-0.2
					C90.3,50.1,90.1,50.4,90.3,50.5"/>
				<path class="st4" d="M82,20.1c0.7-1.5,2-2.7,3.6-3.3c1.4-0.5,2.9-0.1,4.3-0.4s2.7-1.4,4.1-1.9c1.7-0.5,3.5-0.5,5.1,0.2
					c6.5,2.3,7.1,7.4,7,9.8c-0.1,2.3-1.4,4.4-3.4,5.5c-2,1.1-4.3,1.4-6.5,0.9c-2.2-0.5-4.3-1.5-6-3c-0.6-0.5-1.2-1-1.9-1.4
					c-0.7-0.5-1.5-0.6-2.3-0.3c-1.5,0.9-1.1,2.7,0.4,3.5c-0.7,0.6-2.9-0.3-4-1.5C81.7,27.7,79.7,25.5,82,20.1"/>
				<path class="st4" d="M103.7,39.5c-0.1-1.1-0.2-2.3-0.3-3.4c0-0.3-0.1-0.5-0.3-0.7c-0.4-0.3-0.9,3.6-1.7,6.9
					c-0.4,1.8-1.3,2.1-2.8,0.8c-1-0.9-3.7-1.2-5.2-1.2S89.1,42,88.2,43c-1.7,1.8-2.5,0.7-2.8-0.8c-0.7-3.3-1.3-7.2-1.7-6.9
					c-0.2,0.2-0.3,0.4-0.3,0.7c-0.1,1.1-0.2,2.3-0.3,3.4c-0.3,2.5-0.4,5-0.3,7.5c0,1.4,0.4,2.7,1.2,3.8c0.8,0.9,1.8,1.5,3,1.8
					c1.2,0.3,2.4,0.4,3.6,0.4c1,0,1.9-0.2,2.9-0.2s1.9,0.2,2.9,0.2c1.2,0,2.4-0.1,3.6-0.4c1.2-0.3,2.2-0.9,3-1.8
					c0.8-1.1,1.2-2.4,1.2-3.7c0.1-2.5,0-5-0.3-7.5"/>
				<path class="st6" d="M90.3,44c1.1-0.1,2.1,0,3.2,0c1-0.1,2-0.1,3,0c0.1,0.2-0.4,1.9-2.9,2S90.1,44.2,90.3,44"/>
				<path class="st1" d="M78.5,59c0.7-0.3,10.9,5,13.7,10c0.5,0.9,14.5-11.1,16.4-10.4c5.7,2.2,6.7,34.1,6.7,34.1
					c0.1,3.4,6.1,32.4,6.4,37.4c0.2,2.9,1.8,12.5,2,14.1c0.8,6.2,2.6,60.2,1.7,60.8c-10.6,7.9-67.8,2.5-67.2-0.3
					c0.3-1.5,0.3-35.6,4.7-53.3c0.9-3.6,4-17.1,6.7-33.5c0.8-4.8,3.8-13,3-17.8"/>
				<path class="st7" d="M112.9,89.4c1.3,0.3-0.6,46.7,3.5,48.7s-30.2,8-32.5,7.7s-4.9-46.2-3.6-47.6S109.8,88.6,112.9,89.4"/>
				<path class="st8" d="M111.4,134.8c0.5-0.9,0.2-2.1-0.8-2.6c-0.9-0.5-2.1-0.2-2.6,0.8c-0.2,0.3-0.2,0.6-0.2,0.9
					c0,0.6,0.3,1.1,0.7,1.5c-0.5,0.7-0.9,1.4-1.2,2.2c0.2,0,0.4,0,0.6,0c0.2,0.1,0.6,0.5,0.9,0.4s0.7-1.2,0.8-1.5
					c0.1-0.1,0.2-0.4,0.3-0.5c0.6-0.4,1,1.5,1.5,1.7s1.1-1.1,1.6-1.1C112.4,135.9,111.9,135.3,111.4,134.8"/>
				<path class="st9" d="M83.7,107.4c2-2.4,3.4-5.2,4-8.3c0-0.1,0-0.2-0.1-0.2c-0.1,0-0.2,0-0.2,0.1c-1,1.7-2.5,4.5-0.4,6
					c0.8,0.6,1.8,0.6,2.6,0c0.6-0.4,1.4-1,2-0.1c0.2,0.5,0.4,0.9,0.7,1.4c0.6,0.6,1.5,0.8,2.3,0.5c1-0.4,1.5-1.4,2-2.3
					c0.2-0.4,0.5-0.7,0.9-0.8c0.7-0.2,1,0.1,1.2,0.7c0.1,0.4,0.3,0.7,0.6,0.9c0.7,0.4,1.6,0.3,2.2-0.3c0.5-0.4,0.9-0.9,1.3-1.4
					c0.3-0.4,0.7-0.6,1.2-0.8c0.6-0.1,1.2,0,1.6,0.5c1,0.9,2.1,0.4,3.1-0.4c0.1-0.1,0-0.3-0.2-0.2c-0.5,0.4-1.1,0.7-1.7,0.8
					c-0.8,0-1.1-0.7-1.8-1c-0.8-0.2-1.7,0.1-2.3,0.7c-0.8,0.8-1.6,2.2-3,1.9c-0.3-0.1-0.5-0.2-0.7-0.5c-0.2-0.3-0.1-0.6-0.2-0.8
					c-0.1-0.3-0.4-0.5-0.6-0.5c-0.7-0.1-1.4,0.2-1.7,0.9c-0.7,1-1.1,2.3-2.5,2.5c-0.7,0.1-1.4-0.3-1.6-0.9c-0.1-0.4-0.3-0.8-0.5-1.1
					c-0.5-0.6-1.2-0.5-1.8-0.1c-0.6,0.4-1.2,0.9-2,0.6c-0.8-0.2-1.4-0.8-1.5-1.6c-0.4-1.6,0.5-3.1,1.3-4.4L87.4,99
					c-0.6,3-1.9,5.8-3.9,8.1c-0.1,0.1,0.1,0.3,0.2,0.2"/>
				<path class="st9" d="M108.9,105.8l-16.9,4c-0.1,0-0.1,0.1-0.1,0.2c0,0.1,0.1,0.1,0.2,0.1l0,0l16.9-4
					C109.2,106.1,109.1,105.7,108.9,105.8"/>
				<path class="st9" d="M106.2,109l-18.5,3.8c-0.2,0-0.1,0.3,0.1,0.3l18.5-3.8C106.4,109.3,106.4,109,106.2,109"/>
				<path class="st2" d="M111.4,113.3c0.8-0.1,1.6-0.3,2.4-0.7c0.7-0.4,1.4-0.7,2.1-0.9c0.6-0.2,1.2-0.2,1.8,0
					c0.7,0.2,1.5,0.2,2.2,0.1c1.2-0.8,2.2-2.3,3.4-3.1c1.9-1.3,6.4,4.3,4.5,7c-1.4,1.9-2.8,1.4-4.7,2.8c-1.3,0.9-2.6,1.8-3.8,2.9
					c-1.2,1.1-2.4,2-3.8,2.8c-1.2,0.6-5.4,0.8-8,0.3l-1.2-0.2c-0.3,0-0.5-0.1-0.7-0.3c-0.2-0.2-0.2-0.6,0.1-0.6
					c-0.8,0-1.6-0.2-2.3-0.4c-0.5-0.2-1.2-0.6-1.1-1.1s1.6-0.2,2-1c-0.5-0.1-1-0.5-1.3-0.9c-0.1-0.1-0.1-0.2-0.1-0.3
					c0-0.2,0.3-0.4,0.5-0.4c1.3-0.3,2.5-1,3.8-1.3c0.5-0.1,2.9-0.4,3.4-0.5c1-0.4,1.9-0.9,2.6-1.7l0.4-0.3c-0.9,0.2-1.8,0.1-2.5-0.4
					c-0.3-0.2-0.5-0.6-0.4-1C110.7,113.3,110.8,113.4,111.4,113.3"/>
				<path class="st1" d="M108.7,58.1c1.3,0.9,8,2.8,9.2,3.3c2,1,4.4,1.6,5.6,3.5c1.8,2.8,2.5,6.3,3.4,9.4c0.6,2.2,6.2,9.9,6.5,11.2
					c1.1,4.8,5,6,5.9,10.8c0.4,1.9,3,6.4,3.1,8.8c0.3,5.8-11.2,15.8-16.8,16.2c-1.4-3.2-1-5.6-1.8-7.9c-1.3-3.6-2.4-6.5-4.1-6.7
					c-0.8-0.1-2-2.4-3.3-5.6c-1.7-4-1.6-10.7-2.6-14c-1.4-4.5-0.8-3.3-2-7.8s-3-9-4.5-13.6c-0.7-2-1.3-3.9,0-5.7
					C107.6,59.6,108.2,58.3,108.7,58.1"/>
				<path class="st2" d="M82.7,128.5l-3-0.1c-3.3-0.1-6.6-0.4-9.8-1c-8.4-1.9-2.1-11.3,0.7-8.9c0.9,0.8,1.9,1.4,3,1.8
					c1.1,0.4,2.3,0.3,3.4-0.2c0.2-0.6,0.8-1,1.2-1.4s2.2-0.9,3.8-3.1c0.2-0.3,0.5-0.6,0.7-0.8c0.2-0.2,0.4-0.2,0.6-0.2
					c0.3,0,0.5,0.4,0.6,0.7c0.1,0.8,0,1.5-0.4,2.2c-0.5,0.7-0.9,1.4-1.3,2.2c0.4,0.3,1.4,0.1,2,0c2.8-0.5,5.4-1.5,7.8-2.9
					c0.1-0.1,0.3-0.2,0.5-0.2c0.3,0,0.5,0.3,0.6,0.6c0.1,0.1,0.1,0.3,0.1,0.5c0,0.1-0.1,0.2-0.2,0.3c-0.9,1.3-2,2.3-3.4,3
					c0.5,0,1,0,1.5-0.1c1.3-0.3,2.5-0.5,3.8-0.6c0.1,0,0.2,0,0.3,0c0,0,0.1,0.1,0.1,0.2c0,0.5-0.2,1-0.6,1.3
					c-0.4,0.4-0.8,0.8-1.2,1.1c-0.1,0.1-0.3,0.2-0.4,0.3c-0.1,0.2-0.3,0.3-0.4,0.5c-0.4,0.7-1,1.2-1.7,1.6c-0.2,0.1-0.3,0.2-0.4,0.3
					c-0.1,0.1-0.1,0.2-0.2,0.4c-0.3,0.8-0.8,1.5-1.6,1.9c-0.4,0.2-0.8,0.3-1.3,0.4l-1.7,0.4c-0.5,0.1-1,0.2-1.4,0.1
					C84,128.8,83.2,128.6,82.7,128.5"/>
				<path class="st10" d="M80.8,26.3c-0.1-2.9,0.1-5.7,0.4-8.5c0.2-0.9,3.1-5.9,12-6s12.3,5.2,12.4,5.9s0.8,8.8,0.4,8.7
					s-2.7-5.7-13.2-5.6C86,20.8,81,26.8,80.8,26.3"/>
				<path class="st1" d="M69.2,106.6c0-1.5,1.6-2.9,1.7-4.4c0.1-1.7,0.6-3.3,1.4-4.7C80.4,85.5,78.9,59,78.9,59
					c-0.4,0.2-9.7,3-11.8,4.8c-2.5,2.3-4.6,4.9-6.3,7.8c-4.1,7.3-4.7,12.7-6.4,16.8c-0.8,1.9-0.6,2.4-1.8,4.2
					c-1.4,2.1-1.7,5-2.6,7.3c-0.6,1.7-1.6,3.2-2.3,4.9c-1,2.6,0.9,4.7,2.1,7c2.8,5.7,7.6,12.8,12.6,16.5c2,1.5,4.2,2.6,6.7,3.2
					c1.1,0.1,2.1,0.4,3.1,0.8c0.6-0.6,1.9-4.2,2.1-5.1c0.9-4,1.1-7.3,2.7-10.9C75.4,114.4,69.2,108.5,69.2,106.6"/>
				<path class="st6" d="M109.4,58.2c-0.2-0.3-0.5-0.5-0.9-0.6c-0.7-0.3-1.2-0.1-1.9-0.5c-1.2-0.8-2.8-3.6-3.8-2.7
					c-1.2,1.2-6.7,6.9-9.5,12c-0.5,0.9-1.4-2.8-2.7-4.9c-1.8-3.1-6.7-6.4-7.4-6.5c-0.3,0-2.7,0.3-3.1,1.8c-0.4,1.2-1.8,1.4-2.7,2
					c-1.3,0.9,10.9,18.2,16.7,17.2C98.4,75.1,112.1,58.9,109.4,58.2"/>
				<path class="st11" d="M113.3,30.9c0.4-0.5,0.1-1.1,0-1.6s-0.1-1.2-0.2-1.8c-0.3-1.5-0.6-3-0.7-4.5c-0.1-0.9-0.3-1.9-0.6-2.7
					c-0.3-0.6-0.7-0.9-1-0.1c-0.4,1.2-0.2,2.4-0.6,3.6c-0.2,0.5-0.4,1.1-0.6,1.6c-0.2,0.6-0.3,1.1-0.4,1.7c-0.1,0.6-0.2,1.2-0.3,1.7
					c-0.1,0.3-0.1,0.7-0.1,1c0.1,0.4,0.4,0.8,0.8,1c0.4,0,0.7,0,1.1,0c0.4,0,0.8,0.2,1.3,0.2C112.5,31.1,112.9,31,113.3,30.9"/>
				<path class="st11" d="M111.4,20.1c0.1-2.5,0-5.1-0.2-7.6c0.1-1-0.2-2-0.6-2.9c-0.7-0.7-1.6-1.2-2.6-1.2c-0.3,0-0.4,0.4-0.1,0.4
					c1.1,0.2,2.3,0.4,2.7,1.6c0.2,1,0.3,2.1,0.3,3.2c0.2,2.2,0.2,4.3,0.2,6.5c0,0.1,0.1,0.2,0.2,0.2
					C111.3,20.4,111.4,20.3,111.4,20.1"/>
				<path class="st10" d="M68.8,106.8c1.1,2.1,2.6,4,4.3,5.7c0.4,0.4,0.9,0.9,1.4,1.3c0.5,0.4,1.2,0.9,1.3,1.8c0,1.3,0,2.7-0.3,4
					c-0.4,2.9-1,5.7-1.8,8.4c-0.2,0.7-0.4,1.3-0.6,2l-0.3,1c-0.1,0.4-0.1,0.9-0.7,1c-0.8,0-1.5-0.2-2.2-0.5
					c-0.6-0.2-1.2-0.4-1.8-0.5c-0.2,0-0.2,0.3,0,0.4c1.6,0.2,2.9,1.2,4.6,0.9c0.1,0,0.1-0.1,0.1-0.1c0.8-2.5,1.7-5,2.3-7.6
					c0.6-2.4,0.9-4.9,1.1-7.4c0.2-0.9,0.1-1.9-0.3-2.7c-0.4-0.4-0.8-0.7-1.2-1c-0.4-0.4-0.8-0.7-1.2-1.1c-1.7-1.7-3.1-3.5-4.2-5.6
					c0-0.1-0.2-0.1-0.2-0.1C68.8,106.6,68.8,106.7,68.8,106.8"/>
				<path class="st5" d="M83.6,126.8c2,0.4,4,0.3,5.9-0.2c0.2-0.1,0.1-0.4-0.1-0.3c-1.9,0.5-3.8,0.6-5.7,0.2
					C83.5,126.4,83.4,126.7,83.6,126.8"/>
				<path class="st5" d="M104.6,121.2c1.9-0.1,3.7-0.2,5.6-0.4c0.7-0.1,1.4-0.2,2-0.5c0.3-0.1,0.6-0.3,0.8-0.5
					c0.3-0.3,0.6-0.7,1-0.8c0.2-0.1,0.1-0.4-0.1-0.3c-0.6,0.2-1,0.9-1.6,1.2c-0.7,0.3-1.5,0.5-2.3,0.6c-1.8,0.2-3.6,0.3-5.4,0.4
					c-0.1,0-0.2,0.1-0.1,0.2C104.5,121.1,104.5,121.1,104.6,121.2"/>
				<path class="st5" d="M106.6,123.3c1.4,0.1,2.9,0.1,4.3,0c1.3,0,2.5-0.4,3.5-1.1c0.2-0.1,0-0.4-0.2-0.3c-1.1,0.7-2.3,1.1-3.6,1.1
					c-1.3,0-2.7,0-4,0C106.4,123,106.4,123.3,106.6,123.3"/>
				<path class="st5" d="M113.7,124.4c0.6-0.2,1.1-0.5,1.6-0.9c0.2-0.1,0-0.4-0.2-0.3l-0.8,0.5c-0.2,0.2-0.5,0.3-0.8,0.4
					c-0.1,0-0.1,0.1-0.1,0.2C113.5,124.3,113.6,124.4,113.7,124.4"/>
				<path class="st5" d="M84.3,124.2c1.4,0.4,2.8,0.6,4.2,0.6c0.3,0,0.5,0,0.8-0.1c0.3-0.1,0.6-0.2,0.8-0.4l2.1-0.9
					c0.2-0.1,0-0.4-0.2-0.3l-1.8,0.8l-1,0.4c-0.3,0.1-0.6,0.1-0.9,0.1c-1.3-0.1-2.6-0.3-3.9-0.6C84.2,123.8,84.1,124.2,84.3,124.2"
					/>
				<path class="st5" d="M84.7,121.9c0.8,0.3,1.7,0.4,2.5,0.5c0.3,0,0.7-0.2,0.9-0.4c0.3-0.2,0.7-0.4,1.1-0.5c0.1,0,0.1-0.2,0.1-0.2
					c0-0.1-0.1-0.1-0.2-0.1c-0.4,0.1-0.7,0.3-1,0.4c-0.3,0.2-0.6,0.5-0.9,0.5c-0.4,0-0.8-0.1-1.2-0.2c-0.4-0.1-0.8-0.2-1.2-0.3
					c-0.1,0-0.2,0-0.2,0.1C84.5,121.8,84.6,121.9,84.7,121.9"/>
				<path class="st10" d="M117.2,102.4c0.9-1.8,2.2-3.4,3.7-4.7c0.7-0.6,1.4-1.2,1.9-2c0.5-0.8,0.7-1.7,0.7-2.7
					c0-0.1-0.1-0.2-0.2-0.1c-0.1,0-0.1,0.1-0.1,0.1c0,1-0.3,2.1-0.9,2.9c-0.6,0.7-1.3,1.4-2.1,2c-1.4,1.2-2.5,2.7-3.3,4.4
					C116.8,102.5,117.1,102.6,117.2,102.4"/>
				<path class="st12" d="M37.8,207c-1,11.8-5,18.2-7.9,29.6c-1.5,5.9-4,16.5-4.3,22.6c-0.3,5.1-1.4,10.1-3,14.9
					c-0.6,1.7-1.3,3.8-3,4c-1.4,0-2.6-0.8-3.1-2.1c-2.3-4.2,0.3-9.2,1.7-13.8c4.4-14.2,1.1-30.2,2.2-45c0.7-9.3-0.2-41,2.2-50
					s16.1-5.6,17.5,0.4C42.8,180.5,38.7,197,37.8,207"/>
				<path class="st12" d="M45.9,165.3c2.7,10.6,0.3,19.8-1,29.7c-0.8,6-2.8,13.8-2.3,19.9s4.6,19.3,4.4,38.3c0,1.4-1.1,3.3-1.4,4.9
					c-0.2,0.6-0.3,1.2-0.4,1.8c-0.2,1.6,3.4,4.5,4.1,5.2c0.6,0.7,1.9,5.8,2.7,7.3c1,2.4,3.3,3.9,5.8,4c1.4,0.1,2.7-0.9,2.4-1.7
					c-0.6-1.7-1.7-3.9-3-7.6c-0.9-2.4-1.6-4.9-2-7.4c-0.3-1.7-0.6-3-0.8-4.7c0.1-3.9,5.2-55.6,5.9-76.7
					C60.8,158.4,44.2,158.5,45.9,165.3"/>
				<path class="st12" d="M21.6,144.6c0.4-2.1,0.9-4.2,1.5-6.2c2.9-8.5,5.5-15.5,8.3-18.3c1.1-1.1,6.4-1.9,10.8-1.9
					c4.4,0,9.6,0.7,10.8,1.9c2.8,2.8,7.6,24.6,8.6,33.6c1.6,13.9,0.4,39.8-1.9,49.5c-1.4,5.9-9.1,9.6-12.2,7.8
					c-2.7-1.6-2.6-22-3.1-37.1c-0.3-8.4-1.1-19.9-2.1-21.3c0,0-0.1-0.2-0.2-0.2c-0.1,0-0.2,0.2-0.2,0.2c-0.9,1.5-1.8,12.9-2.1,21.3
					c-0.5,15.1-17.7,22.6-18.2,19.5c-0.5-3.5-1.3-6.8-1.8-10.4C19.7,180.3,18.6,159.8,21.6,144.6"/>
				<path class="st2" d="M42.2,151.4c1.7,0,14-24.8,13.7-25.3s-6.4,5.1-13,5.1c-6.9,0-14.2-5.4-14.4-5.1
					C28.1,126.7,41.4,151.4,42.2,151.4"/>
				<path class="st1" d="M70.3,38c0.1-1.6-24.5-19.1-26.6-19.4C41.5,18.3,15,36.2,15.1,38c0,0.8,27.5,15.6,28.6,15.9
					C44.8,54.1,70.2,40.2,70.3,38"/>
				<path class="st13" d="M20.8,129.4c0.7-2.1,6-24.7,4.8-27.3c-1.7-14.1-8-20.6-5.8-22.7c3.2-3.3,6.7-6.3,10.5-8.9
					c6.8-4.4,17.7-4.1,23.7,1c3.1,2.6,5.8,4.2,9.4,7.9c1.7,1.7,0.3,9.8-3.7,26.7c-1.2,5,4.6,29.2,5.5,36.1c1.1,9,1.4,18,0.9,27
					c-0.2,4.9-1.5,43.1-0.3,54.3c0.1,1-17.6-3.6-31.5,2.3c-10.6,4.4-21.8,5.2-25.7,0.3c-3.4-4.3-9.4-6-8.5-7.2
					c5.2-7.7,10.1-40.2,12.2-51.8C14.1,157.2,15.3,146.3,20.8,129.4"/>
				<path class="st7" d="M60.9,154c-4.3-3.7-36.6-22.1-37.5-22c-3,0.4-4.6,4.7-2.8,7.6c5.8-0.7,33.9,16.2,35.2,21.7
					C58.1,160.4,61.9,154.8,60.9,154"/>
				<path class="st8" d="M43.1,142.8c0.8-0.3-3.9-2.8-4.3-2.8c-1.2,0.1-4.1,4.8-3.2,5.6c0.5,0.4,4.8,2.9,4.7,2.6
					C39.6,147,41.1,143.6,43.1,142.8"/>
				<path class="st9" d="M56,160.3c1,0.1,2.2-1.6,3.3-3.2s1.4-3,0.8-3.6s-2.1,0.5-2.5,2.5C57.3,157.6,58.3,158.6,56,160.3"/>
				<path class="st14" d="M54.9,71.1c-3.4-3.7-8.3-4.6-12.9-4.6c-4.9-0.1-10.9,0.3-14.2,5.3c-2.1,3.2,11,27.4,10.8,27.7
					c-0.4,1.1-2.2,7.1-2.7,9.1c-1.9,6.4-2.8,9.1-3.3,12c-0.7,4-1.5,5.4-0.1,6c0.5-0.4,3.7-0.4,4.3-0.3c2.4,0.6,4.2,1,4.9,0.5
					c0.9-0.6,0.1-6.8,0.2-8.4c0.2-2.5-0.9-7.5,1.1-10.4c0,4.6,0.4,9.3,1.2,13.8c0.7,2.8,1.1,6.6,1.9,6.2s2.1-2.2,2.9-2.3
					c1.1-0.1,1.4,0.5,2.2,0c1.4-0.8-2.4-18.7-4.4-25.5C46.5,99.1,60.1,76.8,54.9,71.1 M31.9,71.1c2.6-4.7,18.2-3.1,19.6-0.2
					c1.9,3.7-4.5,13.1-9.2,19.8C38.2,85.9,30.4,73.8,31.9,71.1"/>
				<path class="st7" d="M33.4,71.2c0,2.3,3.8,5.7,8.4,5.7c4.7,0,8.5-3.4,8.5-5.7S46.6,67,41.9,67C37.3,67,33.5,68.9,33.4,71.2"/>
				<path class="st12" d="M36.1,69.2c0.2-1.4,1.3-4.2,1.2-6c-2.2-1.9-3.8-4.5-4.4-7.4l0,0c-1-0.2-0.8-1.6-1.4-2.5
					c-0.4-0.7-0.8-2.6,0.5-2.8h0.3c-0.1-4,0.6-5.4,2.4-7.7c1.3-1.6,4.3-2.7,7.4-2.8c3.1,0.1,6.1,1.1,7.4,2.8
					c1.9,2.4,2.6,3.8,2.4,7.7h0.3c1.2,0.2,0.8,2.1,0.4,2.8c-0.5,0.8-0.3,2.3-1.4,2.5l0,0c-0.6,2.9-2.1,5.5-4.3,7.4c0,2,0.2,4,0.7,6
					c0.4,1.5-2.3,4.1-5.5,4.1C39,73.3,35.9,70.8,36.1,69.2"/>
				<path class="st15" d="M46.2,63.4c-1.2,1-2.7,1.6-4.3,1.8c-1.6-0.2-3-0.8-4.2-1.8c-0.2-0.1,0-0.3,0.1-0.2c1.1,1,2.6,1.6,4.1,1.8
					c1.5-0.1,2.9-0.7,4.1-1.7C46.2,63.1,46.4,63.3,46.2,63.4"/>
				<path class="st7" d="M38.9,58c0.3,0.6,0.7,1.2,1.2,1.6c1.1,1.1,2.8,1,3.9-0.1c0.1-0.1,0.2-0.2,0.3-0.4c0.4-0.5,0.6-1,0.8-1.1
					C43,58.3,41,58.3,38.9,58"/>
				<path class="st4" d="M37.6,48.5c0.3,0,0.6,0,0.9,0.2c0.3,0.2,0.4,0.5,0.2,0.8c-0.6-0.2-1.2-0.4-1.8-0.5
					c-0.5-0.1-0.9-0.1-1.3-0.2c-0.2,0-1.1-0.2-0.7-0.4c0.2,0,0.4,0,0.7,0h0.7L37.6,48.5"/>
				<path class="st4" d="M46.4,48.5c-0.3,0-0.6,0.1-0.8,0.3c-0.3,0.2-0.3,0.5-0.1,0.8c0,0,0,0,0,0c0.6-0.3,1.2-0.5,1.8-0.6
					c0.4-0.1,0.9-0.2,1.3-0.3c0.2,0,1.1-0.3,0.7-0.5c-0.1-0.1-0.5,0-0.7,0.1l-0.7,0.1L46.4,48.5"/>
				<path class="st15" d="M41.2,54.7C41.1,54.8,41,55,41,55.2c0,0.2,0.2,0.3,0.3,0.4c0.5,0.2,1,0.2,1.5,0c0.1,0,0.1,0,0.2-0.1
					c0.1-0.1,0-0.2-0.1-0.3c-0.1-0.1-0.3-0.2-0.4-0.2c-0.1,0-0.1,0-0.2,0c-0.1-0.1-0.1-0.2-0.1-0.3c0-0.2,0.2-1.8-0.3-1.7
					c-0.2,0-0.3,0.7-0.3,0.8C41.5,54.1,41.4,54.4,41.2,54.7"/>
				<path class="st4" d="M46.3,51.6c0.1,0.4,0.4,0.7,0.7,0.6c0.3-0.1,0.5-0.5,0.4-0.9c-0.1-0.4-0.4-0.7-0.7-0.6
					C46.4,50.9,46.2,51.2,46.3,51.6"/>
				<path class="st4" d="M36.4,51.3c-0.1,0.3,0.1,0.7,0.4,0.9c0.3,0.1,0.6-0.2,0.7-0.6c0.1-0.3-0.1-0.7-0.4-0.9
					C36.8,50.6,36.5,50.9,36.4,51.3"/>
				<path class="st4" d="M48.3,51.3c-0.4-0.4-1.1-0.5-1.6-0.4c-0.5,0.1-1,0.6-1.2,1.1c-0.1,0.2-0.4,0.1-0.4-0.1
					c0.2-0.7,0.8-1.2,1.4-1.3c0.7-0.2,1.5,0,2,0.5C48.8,51.2,48.5,51.5,48.3,51.3"/>
				<path class="st4" d="M35.3,51.1c0.8-0.8,2.2-0.8,3,0.1c0.2,0.2,0.4,0.5,0.5,0.7c0.1,0.2-0.3,0.3-0.4,0.1c-0.3-0.9-1.3-1.3-2.2-1
					c-0.2,0.1-0.4,0.2-0.6,0.4C35.4,51.5,35.1,51.3,35.3,51.1"/>
				<path class="st16" d="M28.6,54c-0.3-2.9-0.1-5.9,0.6-8.8c0.4-1.6,0.7-4.5,2.4-6.6c1.6-1.8,3.9-2.9,6.4-3c1.9,0,3.8,1.3,5.5,0.8
					c2.3-0.6,4.7-0.2,6.7,1.1c5.4,3.9,5,6.4,5.3,7.7c1.1,5-1.1,10.1-3.3,13.4c-1.6,2.3,2,6,1.1,5.9c-2.3-0.4-4-2.3-4.2-4.7
					c-0.2-1.4,0.5-2.7,0.8-4.1c0.5-2.7,0-5.5-1.4-7.9c-0.7-1.2-2.3-1.9-3.3-3s0.1,1.1,2.4,3.2c0.9,0.8-5.9-1.7-7.1-5.5
					c-0.4-1.4-3.8,5.8-3.7,4.4c0.2-4.1,0.1,0.1-2.9,3.2c-1.7,1.5-2.7,3.7-2.6,6c-0.1,2,2.2,4.5,2,5S29.1,59.7,28.6,54"/>
				<path class="st14" d="M64,51c0.4-0.5,0.2-1.1,0-1.7s-0.1-1.2-0.2-1.8c-0.3-1.5-0.6-3-0.8-4.6c-0.1-1-0.3-1.9-0.6-2.8
					c-0.3-0.7-0.7-1-1-0.1c-0.4,1.2-0.2,2.5-0.6,3.6c-0.2,0.6-0.4,1.1-0.6,1.6c-0.2,0.6-0.3,1.2-0.3,1.8c-0.1,0.6-0.2,1.2-0.3,1.8
					c-0.1,0.3-0.1,0.7-0.1,1c0.1,0.4,0.4,0.8,0.8,1c0.4,0,0.7,0,1.1,0c0.4,0,0.8,0.2,1.3,0.2C63.2,51.1,63.6,51,64,51"/>
				<path class="st14" d="M61.6,39.7c0-2.2,0-4.4-0.2-6.7c0-1.1-0.1-2.2-0.3-3.2c-0.3-1.3-1.6-1.5-2.7-1.7c-0.3,0-0.2-0.5,0.1-0.5
					c1,0,2,0.5,2.7,1.2c0.5,0.9,0.7,2,0.6,3c0.2,2.6,0.3,5.2,0.3,7.8C62.1,40,61.6,40,61.6,39.7"/>
				<path class="st10" d="M55.6,45.3c0.1-3-0.1-6-0.5-9c-0.2-1-3.3-6.2-12.6-6.3S30,35.5,29.9,36.2s-1.4,9.2-0.9,9.1s2.9-6,13.9-5.9
					C50.2,39.5,55.4,45.9,55.6,45.3"/>
				<path class="st10" d="M46.5,255.3c0.8,3,1.9,5.9,3.2,8.7c3.3,7.2,8.5,6.3,7.6,3.3c0.7,2.5,3,5.4,3.5,6.7s1.9,3.8,0.6,4.5
					s-6.3-1.7-8.4-3.1c-2.8-1.8-2.9-5.1-3.9-8.8c-0.2-0.7-0.6-1.3-1.1-1.8c0,0.9,0.1,1.9,0.3,2.8c0.1,0.3,0.3,0.8-0.1,0.9
					c-0.2,0-0.4,0-0.6,0c-0.3,0-0.7,0-1-0.2c-0.2-0.2,0-0.8,0-1.1c0.1-0.8,0-1.7-0.1-2.5c-0.2-0.8-0.5-1.5-0.8-2.2
					c-0.5-0.6-0.9-1.2-1.2-2C44.3,259.5,45.7,255.9,46.5,255.3"/>
				<path class="st10" d="M17.1,267.2c0,0.8,0.2,1.5,0.5,2.3c0.3,0.7,0.9,1.3,1.6,1.6c1.1,0.3,2.2,0,3-0.7c1-0.9,1.8-2.1,2.4-3.3
					c0.3-0.7,0,5.7-2.5,9.6c-0.8,1.2-3.2,4.3-4.5,4c-2.1-0.4-2.1-7-2-8.8c0.1-4.8,1.7-7.4,2-7.4S17.1,266.1,17.1,267.2"/>
				<path class="st12" d="M38.4,139.3c-0.2,0-0.4-0.1-0.5-0.1c-0.4-0.1-0.7-0.2-1.1-0.4c-0.5-0.4-0.9-0.9-1.5-1.3
					c-0.2-0.1-1.8-0.9-2.4-1.1c-6.6-2.8-7.1-16.9-7.3-18.1s-0.8-4.8-2.2-6.5c-1.2-1.4-3.1-2.6-6.5-2.2c-1.2,0.1-2,1.7-2.4,2.9
					c-0.9,2.8,0.9,7,2.3,11.1c1.2,3.4,4.9,8.9,7.2,13c1,1.9,3.1,6.4,3.6,7.1s0.7,1.4,1.1,2.1c0.5,1.1,1.2,2.1,2.1,2.9
					c0.6,0.5,1.3,1,2,1.2c0.5,0.2,1.7,0.6,0.9-0.3c-1.1-1.3-1.6-1.4-1.8-1.7c-0.3-0.7-0.6-1.5-0.7-2.4c0.5,0.1,1.9,2,2.2,2.4
					c0.5,0.6,1.1,1.1,1.7,1.6c0.4,0.2,1.3,0.9,1.5,0.6c0.2-0.2,0.1-0.5-0.2-1c-0.6-0.9-2-3.1-2-3.6c0.6,0.6,2.2,2.9,2.8,3.5
					c0.4,0.4,0.8,0.7,1.3,0.9c0.3,0.1,0.5,0.1,0.6-0.1c0.2-0.2-0.6-1.4-1-2c-0.4-0.7-2.1-4.3-2.1-4.4c0.4-0.4,1.3,0.9,2,2.6
					c0.5,1.2,1,2.3,1.7,3.3c0.2,0.1,0.5,0.2,0.6,0c0.4-0.8-0.1-1.9-0.3-2.6c-0.2-0.8-0.5-1.5-0.7-2.1c-0.6-1.4-1.4-2.7-2.3-3.8
					l-0.2-0.2c0.2,0,0.4,0,0.6-0.1c0.2,0,0.4-0.1,0.6-0.2c0.4-0.2,0.9-0.4,0.9-0.8C38.8,139.4,38.6,139.3,38.4,139.3"/>
				<path class="st12" d="M42.5,142.3c0.2,0,0.4-0.1,0.5-0.1c0.4-0.1,0.7-0.2,1.1-0.4c0.6-0.4,0.9-1,1.5-1.3
					c0.2-0.1,1.8-0.9,2.4-1.1c6.6-2.8,7.1-16.8,7.3-18.1s0.8-4.8,2.2-6.5c1.2-1.4,3.1-2.6,6.6-2.2c1.2,0.2,2,1.7,2.4,2.9
					c0.9,2.8-0.9,7-2.3,11.1c-1.2,3.4-4.9,8.9-7.2,12.9c-1,1.9-3.1,6.4-3.6,7.1c-0.4,0.7-0.8,1.4-1.1,2.1c-0.5,1.1-1.2,2.1-2.1,2.9
					c-0.6,0.5-1.3,0.9-2,1.2c-0.5,0.2-1.7,0.6-0.9-0.3c1.1-1.3,1.6-1.4,1.8-1.7c0.4-0.8,0.6-1.5,0.7-2.4c-0.5,0.1-1.9,2.1-2.2,2.4
					c-0.5,0.6-1.1,1.1-1.7,1.6c-0.4,0.2-1.3,0.9-1.5,0.6s-0.1-0.5,0.2-1c0.6-0.9,2-3.1,2-3.7c-0.6,0.6-2.2,2.9-2.8,3.5
					c-0.4,0.4-0.8,0.7-1.3,0.9c-0.3,0.1-0.4,0.1-0.6-0.1s0.6-1.4,1-2c0.4-0.7,2.1-4.4,2.1-4.4c-0.4-0.4-1.3,0.9-2,2.6
					c-0.5,1.2-1,2.3-1.7,3.3c-0.2,0.1-0.5,0.2-0.6,0c-0.4-0.8,0.1-1.9,0.3-2.6c0.2-0.8,0.5-1.5,0.7-2.1c0.6-1.3,1.4-2.6,2.3-3.8
					c0.1-0.1,0.1-0.1,0.2-0.2c-0.2,0-0.4,0-0.6-0.1c-0.2,0-0.4-0.1-0.6-0.2c-0.4-0.1-0.9-0.4-0.9-0.8
					C42,142.4,42.3,142.3,42.5,142.3"/>
				<path class="st13" d="M59.8,76.2c1.5,1.1,2.9,2.3,4.1,3.6c1.7,1.8,2.1,4.8,2.6,7.1c1.8,7.6,2,15.3,3.8,22.9
					c0.9,3.8,0.9,6.3-1,9.8c-2.7,5-2.6,5.3-4.8,10.5c-0.9,2.5-2,5-3.3,7.4c-0.9,0.4-3.4-1.6-4.4-2.1c-1.5-0.8-3.2-1.8-4.6-2.7
					c-0.6-0.4-2.9-1.6-3-2.4s2.5-3.6,3.1-5.4c0.8-2.5,4.6-14,3.7-16.5c-1.3-3.7-2.2-19.1-1.4-23.1c0.5-2.6,2-4.3,3.3-6.4
					C58.1,78.1,58.9,76.3,59.8,76.2"/>
				<path class="st13" d="M23.1,76.2c-1.5,1.1-2.8,2.3-4.1,3.6c-1.7,1.8-2.1,4.8-2.6,7.1c-1.8,7.6-2,15.3-3.8,22.9
					c-0.9,3.8-0.9,6.3,1,9.8c2.7,5,2.6,5.3,4.9,10.5c0.9,2.5,2.1,5,3.4,7.4c1,0.4,3.4-1.6,4.4-2.1c1.6-0.8,3.1-1.8,4.6-2.7
					c0.6-0.4,2.9-1.6,3-2.4s-2.4-3.6-3-5.4c-0.8-2.5-4.6-14-3.7-16.5c1.3-3.7,2.2-19.1,1.4-23.1c-0.5-2.6-2-4.3-3.3-6.4
					C25,78.2,24.1,76.4,23.1,76.2"/>
				<path class="st10" d="M63.2,133c-0.7,1.6-1.5,3.2-2.2,4.8c0,0.1-0.1,0.1-0.2,0.1c0,0,0,0,0,0c-2.8-1.6-5.5-3.1-8.3-4.8
					c-2.4-1.5-0.4-4,0.6-5.8c1.5-2.7,3-5.4,4.2-8.2c0.7-1.5,1-3.1,0.9-4.7c-0.1-1.6-0.4-3.2-0.6-4.8c-0.5-3.4-0.7-7-1.9-10.2
					c-0.1-0.2,0.3-0.3,0.3-0.1c0.9,2.8,1.4,5.6,1.7,8.5c0.2,1.6,0.4,3.1,0.6,4.7c0.2,1.3,0.3,2.5,0.1,3.8c-0.3,1.3-0.7,2.6-1.3,3.9
					c-0.7,1.3-1.3,2.7-2,4c-0.7,1.3-1.4,2.6-2.2,3.9c-0.6,1.1-1.9,2.8-1,4c0.7,0.6,1.4,1.1,2.3,1.5l2.2,1.2l4.6,2.6l-0.2,0.1
					l2.1-4.8C63,132.6,63.3,132.8,63.2,133"/>
				<path class="st10" d="M19.3,131.3c0.6,1.7,1.3,3.4,2.3,5c0.2,0.4,0.2,0.4,0.6,0.6s0.5,0.1,1-0.1c0.4-0.2,0.7-0.3,1.1-0.5
					c0.7-0.4,1.5-0.8,2.2-1.2c1.4-0.9,2.8-1.9,4-3.1c0.6-0.5,1.1-1.1,1.7-1.7c0.5-0.6,0.8-0.8,0.3-1.4c-0.3-0.3-0.6-0.6-0.9-0.9
					c-0.8-1.1-1.5-2.4-2-3.7c-0.7-1.4-1.6-2.7-2.3-4.2c-0.7-1.5-1.2-3.1-1.7-4.7c-0.6-1.6-0.8-3.3-0.8-5c0.2-2,0.6-4,1.2-5.9
					c0.5-2.1,1-4.3,1.6-6.5c0-0.1,0.2-0.1,0.2-0.1c0.1,0,0.1,0.1,0.1,0.2c-0.5,2.1-1,4.1-1.5,6.2c-0.6,2-1,4-1.3,6.1
					c0,2.1,0.4,4.1,1.2,6.1c0.5,1.8,1.3,3.5,2.2,5.1c0.4,0.7,0.9,1.4,1.2,2.1s0.7,1.6,1.1,2.3c0.3,0.7,0.8,1.4,1.3,2
					c0.4,0.4,1.1,0.8,1,1.5c-0.1,0.6-0.9,1.2-1.2,1.5c-0.7,0.7-1.4,1.3-2.1,1.9c-1.3,1.1-2.7,2-4.1,2.9c-0.9,0.5-1.8,1-2.8,1.4
					c-0.5,0.2-0.9,0.3-1.3-0.2c-0.6-0.9-1.1-1.8-1.5-2.9c-0.4-0.9-0.8-1.9-1.1-2.9C18.9,131.2,19.2,131.1,19.3,131.3"/>
			</g>
		</g>
	</g>
</g>
</svg>
