<svg xmlns="http://www.w3.org/2000/svg" viewBox="0 0 89.91 89.43"><defs><style>.cls-1{fill:#959595;}.cls-2{fill:#828181;}.cls-3{fill:#f28456;}.cls-4{fill:#f3f3f3;}.cls-5{fill:#fff;}.cls-6{fill:none;}</style></defs><title>Asset 16</title><g id="Layer_2" data-name="Layer 2"><g id="Layer_1-2" data-name="Layer 1"><path class="cls-1" d="M45,0a45,45,0,0,0-9.21,89l.93.14,2.13,0c1,0,1.92.2,2.89.28a18.42,18.42,0,0,0,3-.15c2-.13,4,0,5.92-.08a20.28,20.28,0,0,0,3-.25c1-.17,1.9-.49,2.85-.74,1.11-.29,2.22-.51,3.33-.79A45,45,0,0,0,45,0Z"/><path class="cls-2" d="M35.41,70.5a24.29,24.29,0,0,1,1.31,5.33l2,8.39c.17,2,0-1.57,2-1.82L52.34,81a3.63,3.63,0,0,0,3.19-3.66l-.33-1.63c.21-1.9,2.12-5.15,3.44-6.51C63.77,63.94,65.89,55.8,63,43a26.35,26.35,0,0,0-1.21-4,14,14,0,0,1-.53-6.55,1.65,1.65,0,0,0-1.87-1.82c-1.79.24-3,2-3.56,5.58a14.3,14.3,0,0,0,.89,6.26c.13.34.28.66.43,1h0a2.22,2.22,0,0,0,2,.19c.23-.1.39.27.15.36a2.57,2.57,0,0,1-1.91,0,9.82,9.82,0,0,1,.72,1.89,14.12,14.12,0,0,1,.18,3.84,10.79,10.79,0,0,1-.78,3.85,10.28,10.28,0,0,1,2.18,2.64c.13.22-.24.37-.36.15a10,10,0,0,0-2.17-2.58.2.2,0,0,1-.07-.24,9.86,9.86,0,0,0,.79-3.59A14,14,0,0,0,57.79,46a29.2,29.2,0,0,0-1.46-3.58,15.7,15.7,0,0,1-.87-6.26c-3.21-8.9-6.68-18.74-8.74-23.61a2.09,2.09,0,0,0-3.57-.19A63.52,63.52,0,0,0,45,21.7c.73,3.12,1.41,6.25,2.11,9.38q.57,2.51,1.17,5a8.35,8.35,0,0,1,2.39.2c.24.06.19.46,0,.4a8.21,8.21,0,0,0-2.37-.2.22.22,0,0,1-.18,0,15.15,15.15,0,0,0-3,.55c-.24.07-.29-.33-.05-.39a16,16,0,0,1,2.85-.55c-.73-3-1.39-6-2.07-9s-1.45-6.24-2.17-9.36a37.55,37.55,0,0,1-.85-4.81l-.73-2.05a2,2,0,0,0-1.81-1.3h-.13a2,2,0,0,0-1.85,1.92l-.06,2.86h0c.6,6,1.17,12,1.87,17.93.2,1.7.41,3.39.63,5.09.41-.12.83-.22,1.25-.3.25,0,.3.34,0,.39a11.74,11.74,0,0,0-1.3.32.22.22,0,0,1-.23.07,13.26,13.26,0,0,0-1.58.62c-.23.11-.39-.26-.16-.37a15.31,15.31,0,0,1,1.59-.61c-.81-6.17-1.44-12.36-2.06-18.55l-.48-4.81c-1.85-.86-3.56-.5-3.73,1.4L33.65,21a146.59,146.59,0,0,1,.44,18.63,6.41,6.41,0,0,1,1.3-.28.2.2,0,0,1,.06.39,6.24,6.24,0,0,0-3.09,1.23c-.2.15-.45-.16-.24-.31a6.67,6.67,0,0,1,1.58-.89v0a147,147,0,0,0-.47-19A2.19,2.19,0,0,0,30,22c-1.22,5.34-1.84,13.17-2.51,20.73a43,43,0,0,0,2.28,13.84,79.18,79.18,0,0,0,5.6,14m12-10.07A9.14,9.14,0,0,1,52,55.1a.2.2,0,0,1,.16.37,8.72,8.72,0,0,0-4.46,5.22,15.42,15.42,0,0,0-.15,8.2c0,.25-.34.31-.39.06a15.8,15.8,0,0,1,.21-8.52"/><path class="cls-3" d="M48.08,36.5h.18a.22.22,0,0,1-.18,0"/><path class="cls-4" d="M45,21.7c.73,3.12,1.41,6.25,2.11,9.37q.57,2.52,1.17,5l-.4,0c-.73-3-1.39-6-2.07-9s-1.45-6.24-2.17-9.36a37.55,37.55,0,0,1-.85-4.81l0,.07a2.23,2.23,0,0,1,.32-.61A64.88,64.88,0,0,0,45,21.7"/><path class="cls-4" d="M40.71,37.35l-.39.12c-.8-6.17-1.43-12.36-2-18.55l-.48-4.81.42.22c.6,6,1.17,12,1.87,17.93.2,1.7.41,3.39.63,5.09"/><path class="cls-4" d="M40.48,37.83l.23-.07a.22.22,0,0,1-.23.07"/><path class="cls-4" d="M33.7,39.73v0a145.18,145.18,0,0,0-.47-19,1.84,1.84,0,0,1,.41.38V21a146.59,146.59,0,0,1,.44,18.63l-.39.14"/><path class="cls-3" d="M48.08,36.5a14.92,14.92,0,0,0-3,.55c-.25.07-.3-.33-.06-.39a16,16,0,0,1,2.85-.55l.06.24a.2.2,0,0,0,.13.15"/><path class="cls-3" d="M48.34,36.3c0-.07,0-.14-.05-.21a8,8,0,0,1,2.39.21c.24.05.2.45,0,.39a8.21,8.21,0,0,0-2.37-.2.17.17,0,0,0,.08-.19"/><path class="cls-3" d="M48.34,36.3a.17.17,0,0,1-.08.19h-.18a.2.2,0,0,1-.13-.15l-.06-.24.4,0c0,.07,0,.14.05.21"/><path class="cls-4" d="M40.71,37.35a12.65,12.65,0,0,1,1.25-.3c.25,0,.3.34,0,.39a11.74,11.74,0,0,0-1.3.32.16.16,0,0,0,0-.14l0-.27"/><path class="cls-4" d="M40.48,37.83a13.26,13.26,0,0,0-1.58.62c-.23.11-.39-.26-.15-.37a14.33,14.33,0,0,1,1.58-.61,1.49,1.49,0,0,0,0,.21.18.18,0,0,0,.13.15"/><path class="cls-4" d="M40.74,37.62a.2.2,0,0,1,0,.14l-.23.07a.18.18,0,0,1-.13-.15,1.49,1.49,0,0,1,0-.21l.38-.12,0,.27"/><path class="cls-4" d="M34.09,39.76v-.17a6.41,6.41,0,0,1,1.3-.28.2.2,0,0,1,.06.39,6.24,6.24,0,0,0-3.09,1.23c-.2.15-.45-.16-.24-.31a6.67,6.67,0,0,1,1.58-.89c0,.23.38.28.39,0"/><path class="cls-4" d="M34.09,39.76c0,.25-.38.2-.39,0l.39-.14v.17"/><path class="cls-4" d="M56.75,42.43c.13.34.28.66.43,1-.2-.08-.41.2-.2.33a2.92,2.92,0,0,0,.47.23,9.17,9.17,0,0,1,.71,1.89,13.73,13.73,0,0,1,.19,3.84,10.92,10.92,0,0,1-.78,3.84l-.12-.1c0,.08,0,.16.07.23a.5.5,0,0,0,0-.13,10.5,10.5,0,0,1,2.18,2.65c.13.22-.24.37-.36.15a10,10,0,0,0-2.17-2.58.21.21,0,0,1-.07-.24,9.86,9.86,0,0,0,.79-3.59A14,14,0,0,0,57.79,46a27.76,27.76,0,0,0-1.47-3.58,15.31,15.31,0,0,1-.76-3.21,14.12,14.12,0,0,1-.09-3.05c.09.27.19.54.28.8,0-.27.07-.53.11-.79a14.3,14.3,0,0,0,.89,6.26"/><path class="cls-4" d="M57.45,53.45a.63.63,0,0,1,.12.11.61.61,0,0,1,0,.12c0-.07,0-.15-.07-.23"/><path class="cls-4" d="M57.22,43.43a2.22,2.22,0,0,0,2,.19c.23-.1.39.27.15.36a2.57,2.57,0,0,1-1.91,0l-.27-.56h0"/><path class="cls-4" d="M57.18,43.42l.27.56a2.27,2.27,0,0,1-.47-.23c-.21-.13,0-.41.2-.33"/><path class="cls-4" d="M52,55.1a.2.2,0,0,1,.16.37,8.72,8.72,0,0,0-4.46,5.22,15.42,15.42,0,0,0-.15,8.2c0,.25-.34.31-.39.06a15.8,15.8,0,0,1,.21-8.52A9.14,9.14,0,0,1,52,55.1"/><path class="cls-5" d="M37.81,40.61A5.65,5.65,0,0,1,44.58,42,5.59,5.59,0,0,1,45,35.38a8.09,8.09,0,0,1,11.3-1.31,22.71,22.71,0,0,0-.57,4.28,10.32,10.32,0,0,0,1,4,18.07,18.07,0,0,1,1.58,6.71,2.72,2.72,0,0,1-.11.85c-.64,2.31-1.65,5-2.34,7.3l0,0h0c-6.73,0-13.68.38-18.74-2.67-5.5-3.31-5.23-11.49.69-14"/><path class="cls-4" d="M32.67,88.5h0a12.77,12.77,0,0,1,1.94.28c.68.13,1.37.23,2.05.32l2.13,0c1,0,1.92.2,2.89.28a18.42,18.42,0,0,0,3-.15c2-.13,4,0,5.92-.08a20.28,20.28,0,0,0,3-.25c1-.17,1.9-.49,2.85-.74,1.52-.39,3.06-.67,4.55-1.13-.41-2.73-.83-5.44-1.25-8.09a2.77,2.77,0,0,0-2.89-2.35,174.86,174.86,0,0,1-20.94,0,2.17,2.17,0,0,0-2.29,2c-.32,3.27-.66,6.6-1,10h0Z"/><path class="cls-6" d="M60.83,87C85.89,77.55,97.28,47.2,84.52,23.6,71.87.21,40.62-7.14,18.92,8.3A45.26,45.26,0,0,0,0,45"/><path class="cls-6" d="M0,45A45.37,45.37,0,0,0,34,88.56"/></g></g></svg>