<svg xmlns="http://www.w3.org/2000/svg" viewBox="0 0 89.91 89.91"><defs><style>.cls-1{fill:#959595;}.cls-2{fill:#fff;}</style></defs><title>Asset 20</title><g id="Layer_2" data-name="Layer 2"><g id="Layer_1-2" data-name="Layer 1"><path class="cls-1" d="M89.91,45A45,45,0,1,1,45,0a45,45,0,0,1,45,45"/><path class="cls-2" d="M55,56.31c-.25.31-.49.61-.74.9s-.42.48-.64.71-.49.54-.73.79A34.24,34.24,0,0,1,49.34,62c-.64.51-1.28,1-1.91,1.41L47,63.7c-.52.34-1,.65-1.53,1a31,31,0,0,1-6.58,2.86c-5,1.52-7.17.62-7.17.62a36.77,36.77,0,0,1,.64-12.07c.15-.69.34-1.39.55-2.09.09-.3.18-.6.28-.91.31-.91.67-1.83,1.09-2.75a23.14,23.14,0,0,1,3-4.89,3.88,3.88,0,0,1,.26-.31l.35-.43.61-.7.7-.81c1.8-2.05,3.46-3.8,5-5.41l1.39-1.4c1.54-1.53,3-3,4.51-4.47.48-.48,1-1,1.44-1.47,1.35-1.39,2.72-2.88,4.18-4.57.48-.56,1-1.14,1.47-1.75l.22-.27a43.9,43.9,0,0,1,4.29-4.6c.58-.53,1.13-1,1.66-1.39,4.18-3.15,7-2.49,6.62,3.76a2,2,0,0,1,0,.25c0,.59-.11,1.2-.19,1.82a45.6,45.6,0,0,1-1.49,6.58c-.19.62-.39,1.26-.6,1.9-.8,2.41-1.78,4.9-2.88,7.37q-.42.93-.84,1.83c-1,2-2,4-3.06,5.95-.33.59-.67,1.17-1,1.75q-1.21,2.06-2.47,4c-.8,1.2-1.61,2.3-2.44,3.31"/><path class="cls-1" d="M69.82,23.67,62.3,27.4a.78.78,0,0,1-.78,0l-.06,0a.79.79,0,0,1-.28-.66l.57-7.42c.58-.53,1.13-1,1.66-1.39l-.58,7.57L70,21.85c0,.59-.11,1.2-.19,1.82"/><path class="cls-1" d="M56.2,35.58l-.43-9.73c.48-.56,1-1.14,1.47-1.75l.46,10.33,10.63-4.18c-.19.62-.39,1.26-.6,1.9L57.26,36.26a.77.77,0,0,1-1.06-.68"/><path class="cls-1" d="M64,41.35l-12,3.21a.79.79,0,0,1-.65-.11.83.83,0,0,1-.32-.57l-.94-12c.48-.48,1-1,1.44-1.47l1,12.41,12.28-3.31c-.27.62-.55,1.23-.83,1.83"/><path class="cls-1" d="M45.83,50.71l-1.58-13,1.39-1.4,1.63,13.35L61,47.3c-.33.59-.67,1.17-1,1.75L46.73,51.38a.73.73,0,0,1-.59-.14.81.81,0,0,1-.31-.53"/><path class="cls-1" d="M49.34,62c-.64.51-1.28,1-1.91,1.41L47,63.7l-10.2.47a.94.94,0,0,1-.6-.21,1,1,0,0,1-.37-.53L33.17,53.06a28.54,28.54,0,0,1,1.09-2.75l3.1,12.22Z"/><path class="cls-1" d="M55,56.31c-.25.31-.49.61-.74.9s-.42.48-.64.71L42,57.56a.83.83,0,0,1-.77-.61L37.9,44.68l.61-.7.7-.81,3.42,12.76Z"/><path class="cls-2" d="M49.29,45.54C40.59,58.19,24.6,76.08,22.58,78.32c1.18-.5,2.35-1,3.49-1.59,5.24-5.93,17.32-19.88,24.49-30.31C59.86,32.9,66.06,22,66.13,21.87a.79.79,0,0,0-.2-1l-.1-.07a.76.76,0,0,0-1,.3c-.06.1-6.25,11-15.49,24.43"/></g></g></svg>