<svg xmlns="http://www.w3.org/2000/svg" viewBox="0 0 63.49 63.49"><defs><style>.cls-1{fill:#fff;}</style></defs><title>calender</title><g id="Layer_2" data-name="Layer 2"><g id="Layer_1-2" data-name="Layer 1"><path class="cls-1" d="M34.37,57.14H5.61a3.2,3.2,0,0,1-3.49-3.49V21.22H61.37V38.93c0,.79.39,1.26,1,1.28s1.08-.47,1.08-1.29,0-1.76,0-2.64q0-12.13,0-24.27a5.3,5.3,0,0,0-5.67-5.65h-4.3c-.19,0-.38,0-.61,0,0-.69,0-1.33,0-2A6.29,6.29,0,0,0,52.7,3a4.22,4.22,0,0,0-8.25,1.12c0,.74,0,1.48,0,2.21H36c0-.69,0-1.34,0-2a4.23,4.23,0,1,0-8.46,0v2H19c0-.71,0-1.37,0-2a4.23,4.23,0,1,0-8.46,0c0,.68,0,1.36,0,2.1H5.71A5.31,5.31,0,0,0,0,12V53.57a5.31,5.31,0,0,0,5.7,5.69H34.4c1.07,0,1.58-.35,1.57-1.07s-.51-1-1.6-1m14.3-55a2.12,2.12,0,0,1,2.11,2.23c0,2.05,0,4.1,0,6.15a2.11,2.11,0,1,1-4.22,0c0-1,0-2.07,0-3.11s0-2,0-3a2.11,2.11,0,0,1,2.11-2.22m-19,2.25a2.11,2.11,0,1,1,4.22,0q0,3.07,0,6.15a2.11,2.11,0,1,1-4.22,0c0-1,0-2,0-3s0-2,0-3m-16.93,0a2.12,2.12,0,1,1,4.23,0c0,1,0,2.07,0,3.1s0,2,0,3a2.12,2.12,0,1,1-4.23,0q0-3.08,0-6.15M2.14,11.43A3,3,0,0,1,5,8.51c1.84-.08,3.7,0,5.62,0v2a4.23,4.23,0,1,0,8.46,0c0-.65,0-1.31,0-2h8.47v1.88a4.23,4.23,0,1,0,8.46,0c0-.61,0-1.22,0-1.88h8.47c0,.7,0,1.38,0,2.06a4.23,4.23,0,1,0,8.46,0c0-.66,0-1.32,0-2.08h1.46c1.3,0,2.6,0,3.9,0a3.09,3.09,0,0,1,3.08,2.95c.06,2.51,0,5,0,7.58H2.12c0-2.56,0-5.07,0-7.58"/><path class="cls-1" d="M49.9,36A13.75,13.75,0,1,0,63.48,49.77,13.76,13.76,0,0,0,49.9,36m-.1,25.39A11.64,11.64,0,1,1,61.37,49.79,11.66,11.66,0,0,1,49.8,61.38"/><path class="cls-1" d="M16.92,28.53a2.09,2.09,0,0,0-2.08-2.06h-.52c-.53,0-1.06,0-1.59,0s-1.09,0-1.64,0h-.54a2.08,2.08,0,0,0-2.08,2.06c0,1.1,0,2.2,0,3.3a2.09,2.09,0,0,0,2,2c1.45,0,2.91,0,4.36,0a2.07,2.07,0,0,0,2-2q0-1.65,0-3.3M14.78,31.7H10.61V28.61h4.17Z"/><path class="cls-1" d="M29.62,28.59a2.08,2.08,0,0,0-2.15-2.12q-2.09,0-4.17,0a2.08,2.08,0,0,0-2.13,2.13c0,1,0,2.07,0,3.11a2.1,2.1,0,0,0,2.18,2.15c.66,0,1.32,0,2,0s1.1,0,1.64,0h.55a2.09,2.09,0,0,0,2.1-2.1c0-1.06,0-2.12,0-3.17m-2.16,3.13H23.31V28.63h4.15Z"/><path class="cls-1" d="M42.32,31.69c0-1,0-2,0-3a2.1,2.1,0,0,0-2.16-2.18c-1.39,0-2.78,0-4.16,0a2.08,2.08,0,0,0-2.14,2.13c0,1,0,2.08,0,3.11a2.12,2.12,0,0,0,2.19,2.16c.69,0,1.37,0,2.05,0s1.37,0,2,0a2.1,2.1,0,0,0,2.17-2.17m-2.16,0H36v-3.1h4.15Z"/><path class="cls-1" d="M52.92,26.47c-1.41,0-2.82,0-4.23,0a2.08,2.08,0,0,0-2.13,2.14c0,1,0,2.07,0,3.11a2.1,2.1,0,0,0,2.13,2.14H50.8c.53,0,1.06,0,1.59,0h.53A2.09,2.09,0,0,0,55,31.75c0-1.06,0-2.12,0-3.17a2.08,2.08,0,0,0-2.09-2.11m-.05,5.25H48.72v-3.1h4.15Z"/><path class="cls-1" d="M10.61,43.39h4.16a2.11,2.11,0,0,0,2.15-2.13c0-1.06,0-2.11,0-3.17a2.08,2.08,0,0,0-2.1-2.1q-2.12,0-4.23,0a2.09,2.09,0,0,0-2.12,2.15c0,1,0,2.07,0,3.11a2.11,2.11,0,0,0,2.14,2.14m0-5.26h4.17v3.1H10.62Z"/><path class="cls-1" d="M27.52,36q-2.11,0-4.23,0a2.08,2.08,0,0,0-2.12,2.14c0,1,0,2.07,0,3.11a2.11,2.11,0,0,0,2.13,2.15h4.16a2.11,2.11,0,0,0,2.16-2.12c0-1.06,0-2.11,0-3.17A2.09,2.09,0,0,0,27.52,36m-4.19,2.15h4.12v3.12H23.33Z"/><path class="cls-1" d="M8.47,50.81a2.11,2.11,0,0,0,2.11,2.1c.68,0,1.37,0,2.05,0s1.5,0,2.25,0a2.07,2.07,0,0,0,2-2c0-1.1,0-2.21,0-3.31a2.09,2.09,0,0,0-2.08-2.06q-2.14,0-4.29,0a2.07,2.07,0,0,0-2.08,2.06q0,1.62,0,3.24m2.14-3.15h4.17v3.08H10.61Z"/><path class="cls-1" d="M21.17,50.84a2.08,2.08,0,0,0,2.08,2.06q2.14,0,4.29,0a2.08,2.08,0,0,0,2.08-2.06c0-1.08,0-2.16,0-3.23a2.1,2.1,0,0,0-2.11-2.1H23.28a2.08,2.08,0,0,0-2.11,2.1c0,1.08,0,2.16,0,3.23m2.15-3.18h4.16v3.09H23.32Z"/><path class="cls-1" d="M40.09,38.09a1.05,1.05,0,1,0,0-2.1c-1.41,0-2.82,0-4.23,0a2.06,2.06,0,0,0-2,2c0,1.14,0,2.29,0,3.44a2.09,2.09,0,0,0,2,2A1,1,0,0,0,37,42.6a1,1,0,0,0-.61-1.24L36,41.22V38.1c1.41,0,2.75,0,4.09,0"/><path class="cls-1" d="M56.69,45a1.79,1.79,0,0,0-1.07.51c-2,2-4,3.94-5.95,5.93-.66.67-1.31,1.35-2,2.1-1.28-1.3-2.45-2.49-3.64-3.66a1.07,1.07,0,1,0-1.49,1.5l4.06,4.06c.83.83,1.27.82,2.11,0L57,47.1a2.45,2.45,0,0,0,.46-.56,1,1,0,0,0-.81-1.5"/></g></g></svg>