<svg xmlns="http://www.w3.org/2000/svg" viewBox="0 0 1920 988.41"><defs><style>.cls-1{fill:#f3f3f3;}.cls-2{fill:#fff;}</style></defs><title>Asset 13</title><g id="Layer_2" data-name="Layer 2"><g id="Layer_1-2" data-name="Layer 1"><rect class="cls-1" width="1920" height="988.41"/><path class="cls-2" d="M81,128.4c.07-.26.1-.43.16-.59,4.44-11.54,9.85-22.57,17.21-32.53A63.93,63.93,0,0,1,108.89,84,20.71,20.71,0,0,0,111,82.25c-.91.58-1.85,1.12-2.73,1.75-7.77,5.58-13.82,12.79-19.18,20.64a153.08,153.08,0,0,0-11.49,20,1.85,1.85,0,0,1-.59.75c-.45-1.8-1-3.57-1.34-5.38a53.17,53.17,0,0,1,6.15-37.73A54.78,54.78,0,0,1,103.1,61.08a46.86,46.86,0,0,1,23.61-6.19,36.64,36.64,0,0,1,15.4,3.59c.39.19.78.4,1.24.64-.43,1.4-.81,2.78-1.29,4.13-2.27,6.28-4.44,12.6-6.87,18.82a72.52,72.52,0,0,1-19.71,28.36A81.47,81.47,0,0,1,91,125.1c-3,1.16-6.06,2.06-9.09,3.08-.27.09-.54.13-.9.22"/><path class="cls-2" d="M1050.76,131c.08-.28.11-.46.18-.63,4.76-12.37,10.55-24.19,18.44-34.86a68.35,68.35,0,0,1,11.3-12.06,20.23,20.23,0,0,0,2.26-1.91c-1,.63-2,1.21-2.93,1.88-8.32,6-14.8,13.71-20.55,22.12A165.47,165.47,0,0,0,1047.15,127a2,2,0,0,1-.62.8c-.49-1.92-1.06-3.82-1.45-5.76a57,57,0,0,1,6.59-40.43,58.7,58.7,0,0,1,22.81-22.73,50.16,50.16,0,0,1,25.3-6.63,39.21,39.21,0,0,1,16.49,3.85c.43.2.85.43,1.34.68-.47,1.5-.87,3-1.39,4.43-2.42,6.73-4.75,13.5-7.36,20.16a77.55,77.55,0,0,1-21.12,30.39,87.05,87.05,0,0,1-26.27,15.72c-3.19,1.25-6.49,2.22-9.75,3.31-.28.09-.57.14-1,.23"/><path class="cls-2" d="M1692.44,883.7c.16-.57.23-1,.36-1.3,9.77-25.39,21.66-49.66,37.87-71.57a139.55,139.55,0,0,1,23.2-24.75,40.54,40.54,0,0,0,4.63-3.92c-2,1.28-4.07,2.48-6,3.86-17.09,12.28-30.4,28.14-42.19,45.41a338.32,338.32,0,0,0-25.28,44,4,4,0,0,1-1.29,1.64c-1-3.93-2.17-7.84-3-11.82-5.82-29.36-1.2-57.07,13.53-83a120.73,120.73,0,0,1,46.82-46.68c16.12-9,33.39-13.78,51.95-13.6a80.61,80.61,0,0,1,33.85,7.89c.88.41,1.73.89,2.74,1.41-1,3.07-1.77,6.12-2.84,9.08-5,13.82-9.76,27.73-15.12,41.4a159.28,159.28,0,0,1-43.34,62.39c-16,14.1-34.19,24.56-53.95,32.27-6.55,2.56-13.33,4.55-20,6.78-.58.2-1.19.3-2,.49"/><path class="cls-2" d="M84.15,745.55c.1-.39.15-.65.24-.89C91,727.4,99.12,710.9,110.14,696a94.94,94.94,0,0,1,15.78-16.82,30.29,30.29,0,0,0,3.15-2.67c-1.36.87-2.77,1.69-4.09,2.63-11.62,8.34-20.67,19.13-28.69,30.87A231,231,0,0,0,79.1,739.93a2.61,2.61,0,0,1-.87,1.12c-.68-2.68-1.48-5.33-2-8a79.56,79.56,0,0,1,9.2-56.44,82.11,82.11,0,0,1,31.84-31.74,70.23,70.23,0,0,1,35.32-9.25,55,55,0,0,1,23,5.37c.6.28,1.18.6,1.86,1-.64,2.09-1.2,4.16-1.93,6.17-3.39,9.4-6.64,18.86-10.28,28.16a108.26,108.26,0,0,1-29.48,42.42A121.59,121.59,0,0,1,99.09,740.6c-4.45,1.74-9.06,3.1-13.6,4.62-.39.13-.81.2-1.34.33"/><path class="cls-2" d="M1221.94,864.84c.08-.3.12-.5.19-.68,5.08-13.2,11.26-25.82,19.69-37.21a72.49,72.49,0,0,1,12.06-12.87,21,21,0,0,0,2.41-2c-1,.67-2.12,1.29-3.12,2-8.89,6.38-15.81,14.63-21.94,23.61a175.75,175.75,0,0,0-13.14,22.88,2.11,2.11,0,0,1-.67.86c-.52-2-1.13-4.08-1.54-6.15a60.86,60.86,0,0,1,7-43.15,62.77,62.77,0,0,1,24.35-24.27,53.68,53.68,0,0,1,27-7.08,41.9,41.9,0,0,1,17.6,4.11c.46.21.9.46,1.43.73-.5,1.6-.92,3.18-1.48,4.72-2.59,7.19-5.08,14.42-7.86,21.53a83,83,0,0,1-22.54,32.44,93.22,93.22,0,0,1-28.05,16.78c-3.41,1.33-6.93,2.36-10.4,3.52-.3.1-.62.16-1,.26"/><path class="cls-2" d="M1233.27,322.69a8.41,8.41,0,0,1,.24-.88c6.65-17.27,14.73-33.77,25.75-48.67A95.35,95.35,0,0,1,1275,256.31a29,29,0,0,0,3.15-2.66c-1.36.87-2.77,1.68-4.09,2.62-11.62,8.35-20.67,19.13-28.68,30.88a231.59,231.59,0,0,0-17.2,29.92,2.61,2.61,0,0,1-.87,1.12c-.67-2.67-1.47-5.33-2-8a79.54,79.54,0,0,1,9.2-56.43A82,82,0,0,1,1266.38,222a70.13,70.13,0,0,1,35.32-9.25,54.76,54.76,0,0,1,23,5.37c.6.28,1.18.6,1.86,1-.64,2.09-1.2,4.17-1.93,6.18-3.38,9.4-6.64,18.85-10.28,28.15a108.2,108.2,0,0,1-29.47,42.42,121.67,121.67,0,0,1-36.69,21.95c-4.45,1.74-9.06,3.09-13.6,4.61-.39.13-.81.2-1.34.33"/><path class="cls-2" d="M1788.13,121.57c.06-.21.09-.35.14-.48a110.92,110.92,0,0,1,14-26.49,52.52,52.52,0,0,1,8.59-9.16,15.54,15.54,0,0,0,1.72-1.45c-.75.48-1.51.92-2.23,1.43-6.32,4.54-11.25,10.41-15.61,16.81a125.15,125.15,0,0,0-9.36,16.29,1.58,1.58,0,0,1-.48.61c-.36-1.46-.8-2.91-1.09-4.38a43.25,43.25,0,0,1,5-30.72,44.63,44.63,0,0,1,17.33-17.28,38.17,38.17,0,0,1,19.22-5,29.9,29.9,0,0,1,12.54,2.92c.32.15.64.33,1,.52-.35,1.14-.66,2.27-1,3.36-1.85,5.12-3.62,10.27-5.6,15.33a59,59,0,0,1-16,23.09,66.55,66.55,0,0,1-20,12c-2.43.94-4.93,1.68-7.41,2.51-.21.07-.43.1-.73.17"/></g></g></svg>