<?xml version="1.0" encoding="utf-8"?>
<!-- Generator: Adobe Illustrator 23.1.0, SVG Export Plug-In . SVG Version: 6.00 Build 0)  -->
<svg version="1.1" id="Layer_1" xmlns="http://www.w3.org/2000/svg" xmlns:xlink="http://www.w3.org/1999/xlink" x="0px" y="0px"
	 viewBox="0 0 423.8 585.5" style="enable-background:new 0 0 423.8 585.5;" xml:space="preserve">
<style type="text/css">
	.st0{fill:#F5F5F5;}
	.st1{fill:none;}
	.st2{clip-path:url(#SVGID_2_);}
	.st3{fill:url(#SVGID_3_);}
	.st4{clip-path:url(#SVGID_5_);}
	.st5{fill:url(#SVGID_6_);}
	.st6{clip-path:url(#SVGID_8_);}
	.st7{fill:url(#SVGID_9_);}
	.st8{clip-path:url(#SVGID_11_);}
	.st9{fill:url(#SVGID_12_);}
	.st10{clip-path:url(#SVGID_14_);}
	.st11{fill:url(#SVGID_15_);}
	.st12{clip-path:url(#SVGID_17_);}
	.st13{fill:url(#SVGID_18_);}
	.st14{clip-path:url(#SVGID_20_);}
	.st15{fill:url(#SVGID_21_);}
	.st16{clip-path:url(#SVGID_23_);}
	.st17{fill:url(#SVGID_24_);}
	.st18{clip-path:url(#SVGID_26_);}
	.st19{fill:url(#SVGID_27_);}
	.st20{clip-path:url(#SVGID_29_);}
	.st21{fill:url(#SVGID_30_);}
	.st22{clip-path:url(#SVGID_32_);}
	.st23{fill:url(#SVGID_33_);}
	.st24{clip-path:url(#SVGID_35_);}
	.st25{fill:url(#SVGID_36_);}
	.st26{clip-path:url(#SVGID_38_);}
	.st27{fill:url(#SVGID_39_);}
	.st28{clip-path:url(#SVGID_41_);}
	.st29{fill:url(#SVGID_42_);}
	.st30{clip-path:url(#SVGID_44_);}
	.st31{fill:url(#SVGID_45_);}
	.st32{clip-path:url(#SVGID_47_);}
	.st33{fill:url(#SVGID_48_);}
	.st34{clip-path:url(#SVGID_50_);}
	.st35{fill:url(#SVGID_51_);}
	.st36{clip-path:url(#SVGID_53_);}
	.st37{fill:url(#SVGID_54_);}
	.st38{clip-path:url(#SVGID_56_);}
	.st39{fill:url(#SVGID_57_);}
	.st40{clip-path:url(#SVGID_59_);}
	.st41{fill:url(#SVGID_60_);}
	.st42{clip-path:url(#SVGID_62_);}
	.st43{fill:url(#SVGID_63_);}
	.st44{clip-path:url(#SVGID_65_);}
	.st45{fill:url(#SVGID_66_);}
	.st46{clip-path:url(#SVGID_68_);}
	.st47{fill:url(#SVGID_69_);}
	.st48{clip-path:url(#SVGID_71_);}
	.st49{fill:url(#SVGID_72_);}
	.st50{clip-path:url(#SVGID_74_);}
	.st51{fill:url(#SVGID_75_);}
	.st52{clip-path:url(#SVGID_77_);}
	.st53{fill:url(#SVGID_78_);}
	.st54{clip-path:url(#SVGID_80_);}
	.st55{fill:url(#SVGID_81_);}
	.st56{clip-path:url(#SVGID_83_);}
	.st57{fill:url(#SVGID_84_);}
	.st58{clip-path:url(#SVGID_86_);}
	.st59{fill:url(#SVGID_87_);}
	.st60{clip-path:url(#SVGID_89_);}
	.st61{fill:url(#SVGID_90_);}
	.st62{clip-path:url(#SVGID_92_);}
	.st63{fill:url(#SVGID_93_);}
	.st64{clip-path:url(#SVGID_95_);}
	.st65{fill:url(#SVGID_96_);}
</style>
<title>Asset 5</title>
<g>
	<g id="Layer_1-2">
		<path class="st0" d="M211.9,0L211.9,0C94.9,0,0,94.9,0,211.9v373.6c0,0.9,0.7,0,1.6,0h420.5c0.9,0,1.6,0.9,1.6,0V211.9
			C423.8,94.9,328.9,0,211.9,0"/>
		<path class="st1" d="M211.9,0C94.9,0,0,94.9,0,211.9v373.6c0,0.9,0.7,0,1.6,0h420.5c0.9,0,1.6,0.9,1.6,0V211.9
			C423.8,94.9,328.9,0,211.9,0z"/>
		<g>
			<defs>
				<path id="SVGID_1_" d="M421.1,585.4l-0.1,0.1h1.2c0.9,0,1.6,0.9,1.6,0v-2.1C422.8,584,421.9,584.7,421.1,585.4"/>
			</defs>
			<clipPath id="SVGID_2_">
				<use xlink:href="#SVGID_1_"  style="overflow:visible;"/>
			</clipPath>
			<g class="st2">
				
					<radialGradient id="SVGID_3_" cx="-1138.3741" cy="-2535.4319" r="1" gradientTransform="matrix(12.36 0 0 12.36 14489.4307 31938.5703)" gradientUnits="userSpaceOnUse">
					<stop  offset="0" style="stop-color:#FF2639"/>
					<stop  offset="0.29" style="stop-color:#EA1D2C"/>
					<stop  offset="0.9" style="stop-color:#B4040A"/>
					<stop  offset="1" style="stop-color:#AB0004"/>
				</radialGradient>
				<rect x="421" y="583.4" class="st3" width="2.9" height="3"/>
			</g>
		</g>
		<g>
			<defs>
				<path id="SVGID_4_" d="M376,570l1.5,10.1l4.7,3.7l-1-6.8l2.3,2.1l3.7,3.5l0.5,0.5l-2.2,2.3h36.7c0.6,0,1.2,0.4,1.4,0.4
					c-7.4-6.6-18.5-6.8-26.2-0.5l-2.4-2.3l4.4-4.5l-3.7-3.5l-4.4,4.5l-0.5-0.5l-3.7-3.5l-2.1-2l6.8,1.5l-3.1-4.9l-10.2-2.3l-2.7-0.6
					L376,570z"/>
			</defs>
			<clipPath id="SVGID_5_">
				<use xlink:href="#SVGID_4_"  style="overflow:visible;"/>
			</clipPath>
			<g class="st4">
				
					<radialGradient id="SVGID_6_" cx="-1165.5128" cy="-2479.9756" r="1" gradientTransform="matrix(24.47 0 0 24.47 28922.0313 61286.6406)" gradientUnits="userSpaceOnUse">
					<stop  offset="0" style="stop-color:#FF2639"/>
					<stop  offset="0.29" style="stop-color:#EA1D2C"/>
					<stop  offset="0.9" style="stop-color:#B4040A"/>
					<stop  offset="1" style="stop-color:#AB0004"/>
				</radialGradient>
				<rect x="375.6" y="567.3" class="st5" width="48" height="18.6"/>
			</g>
		</g>
		<path class="st1" d="M211.9,0C94.9,0,0,94.9,0,211.9v373.6c0,0.9,0.7,0,1.6,0h420.5c0.9,0,1.6,0.9,1.6,0V211.9
			C423.8,94.9,328.9,0,211.9,0z"/>
		<g>
			<defs>
				<path id="SVGID_7_" d="M209.4,585.4l-0.1,0.1h26.9C228.5,578.8,217,578.7,209.4,585.4 M256.8,569.6l-10.2,0.6l-4.1,4.3l6.9-0.4
					l-2.3,2.1l-3.9,3.3l-6.9,6h7.8l2.5-2.1l3.8-3.4l2.2-1.9l-2.2,6.6l5.2-2.7l3.3-10l0.8-2.6L256.8,569.6z"/>
			</defs>
			<clipPath id="SVGID_8_">
				<use xlink:href="#SVGID_7_"  style="overflow:visible;"/>
			</clipPath>
			<g class="st6">
				
					<radialGradient id="SVGID_9_" cx="-1167.4257" cy="-2476.0776" r="1" gradientTransform="matrix(26.28 0 0 26.28 30913.0703 65674.3594)" gradientUnits="userSpaceOnUse">
					<stop  offset="0" style="stop-color:#FF2639"/>
					<stop  offset="0.29" style="stop-color:#EA1D2C"/>
					<stop  offset="0.9" style="stop-color:#B4040A"/>
					<stop  offset="1" style="stop-color:#AB0004"/>
				</radialGradient>
				<rect x="209.2" y="569.5" class="st7" width="50.3" height="16.1"/>
			</g>
		</g>
		<g>
			<defs>
				<path id="SVGID_10_" d="M164.3,570l1.5,10.1l4.7,3.7l-1-6.8l2.3,2.1l3.7,3.5l0.5,0.5l-2.2,2.3h37.7c-7.4-6.2-18.2-6.3-25.8-0.1
					l-2.4-2.3l4.4-4.5l-3.7-3.5l-4.4,4.5L179,579l-3.7-3.5l-2.1-2l6.8,1.6l-3.1-4.9l-10.2-2.3l-2.7-0.6L164.3,570z"/>
			</defs>
			<clipPath id="SVGID_11_">
				<use xlink:href="#SVGID_10_"  style="overflow:visible;"/>
			</clipPath>
			<g class="st8">
				
					<radialGradient id="SVGID_12_" cx="-1167.3037" cy="-2476.3228" r="1" gradientTransform="matrix(26.16 0 0 26.16 30728.2793 65374.1367)" gradientUnits="userSpaceOnUse">
					<stop  offset="0" style="stop-color:#FF2639"/>
					<stop  offset="0.29" style="stop-color:#EA1D2C"/>
					<stop  offset="0.9" style="stop-color:#B4040A"/>
					<stop  offset="1" style="stop-color:#AB0004"/>
				</radialGradient>
				<rect x="163.9" y="567.3" class="st9" width="47.5" height="18.2"/>
			</g>
		</g>
		<path class="st1" d="M211.9,0C94.9,0,0,94.9,0,211.9v373.6c0,0.9,0.7,0,1.6,0h420.5c0.9,0,1.6,0.9,1.6,0V211.9
			C423.8,94.9,328.9,0,211.9,0z"/>
		<g>
			<defs>
				<path id="SVGID_13_" d="M0,583.7v1.9c0,0.9,0.7,0,1.6,0h22.7C17.6,579.5,7.6,578.8,0,583.7 M45.1,569.6l-10.2,0.6l-4.1,4.3
					l6.9-0.4l-2.3,2.1l-3.9,3.3l-6.9,6h7.8l2.5-2.1l3.9-3.4l2.2-1.9l-2.2,6.6l5.2-2.7l3.3-9.9l0.8-2.6L45.1,569.6z"/>
			</defs>
			<clipPath id="SVGID_14_">
				<use xlink:href="#SVGID_13_"  style="overflow:visible;"/>
			</clipPath>
			<g class="st10">
				
					<radialGradient id="SVGID_15_" cx="-1164.7853" cy="-2481.4626" r="1" gradientTransform="matrix(23.84 0 0 23.84 27795.3398 59764.5977)" gradientUnits="userSpaceOnUse">
					<stop  offset="0" style="stop-color:#FF2639"/>
					<stop  offset="0.29" style="stop-color:#EA1D2C"/>
					<stop  offset="0.9" style="stop-color:#B4040A"/>
					<stop  offset="1" style="stop-color:#AB0004"/>
				</radialGradient>
				<rect y="569.5" class="st11" width="47.8" height="17"/>
			</g>
		</g>
		<path class="st1" d="M0.7,586.4c-0.2-0.2-0.5-0.4-0.7-0.6v8.3"/>
		<path class="st1" d="M211.9,0C94.9,0,0,94.9,0,211.9v373.6c0,0.9,0.7,0,1.6,0h420.5c0.9,0,1.6,0.9,1.6,0V211.9
			C423.8,94.9,328.9,0,211.9,0z"/>
		<g>
			<defs>
				<path id="SVGID_16_" d="M302.3,517.3c0-8.3,6.7-15,15-15s15,6.7,15,15c0,8.3-6.7,15-15,15l0,0
					C309,532.3,302.3,525.6,302.3,517.3 M297,517.3c0,10.2,7.6,18.8,17.7,20.1v8.3h-8.9v5.1h8.9v10h5.1v-10h8.9v-5.1h-8.9v-8.3
					c11.1-1.4,19-11.5,17.6-22.6s-11.5-19-22.6-17.6C304.6,498.5,297,507.1,297,517.3"/>
			</defs>
			<clipPath id="SVGID_17_">
				<use xlink:href="#SVGID_16_"  style="overflow:visible;"/>
			</clipPath>
			<g class="st12">
				
					<radialGradient id="SVGID_18_" cx="-1167.8568" cy="-2475.1926" r="1" gradientTransform="matrix(26.73 0 0 26.73 31533.6895 66689.5391)" gradientUnits="userSpaceOnUse">
					<stop  offset="0" style="stop-color:#FF2639"/>
					<stop  offset="0.29" style="stop-color:#EA1D2C"/>
					<stop  offset="0.9" style="stop-color:#B4040A"/>
					<stop  offset="1" style="stop-color:#AB0004"/>
				</radialGradient>
				<rect x="297" y="497" class="st13" width="40.5" height="63.8"/>
			</g>
		</g>
		<g>
			<defs>
				<path id="SVGID_19_" d="M317.2,504.6c-5.4-6.2-4.8-15.7,1.5-21.2s15.7-4.8,21.2,1.5c5.4,6.2,4.8,15.7-1.5,21.2
					c-2.7,2.4-6.2,3.7-9.9,3.7C324.2,509.8,320.1,507.9,317.2,504.6 M362.7,463.7l-10.2,0.6l-4.1,4.3l6.9-0.4l-2.3,2.1l-3.8,3.4
					l-7,6c-8.3-7.4-21.1-6.7-28.6,1.6s-6.7,21.1,1.6,28.6c8.3,7.4,21.1,6.7,28.6-1.6c6.1-6.9,6.9-17.1,1.7-24.7l7-6l3.9-3.4l2.2-1.9
					l-2.2,6.6l5.2-2.6l3.3-10l0.8-2.6L362.7,463.7z"/>
			</defs>
			<clipPath id="SVGID_20_">
				<use xlink:href="#SVGID_19_"  style="overflow:visible;"/>
			</clipPath>
			<g class="st14">
				
					<radialGradient id="SVGID_21_" cx="-1168.2837" cy="-2474.3171" r="0.9998" gradientTransform="matrix(27.19 0 0 27.19 32101.291 67760.8828)" gradientUnits="userSpaceOnUse">
					<stop  offset="0" style="stop-color:#FF2639"/>
					<stop  offset="0.29" style="stop-color:#EA1D2C"/>
					<stop  offset="0.9" style="stop-color:#B4040A"/>
					<stop  offset="1" style="stop-color:#AB0004"/>
				</radialGradient>
				<rect x="305.9" y="463.6" class="st15" width="59.5" height="53.8"/>
			</g>
		</g>
		<g>
			<defs>
				<path id="SVGID_22_" d="M294,506.1c-6-5.7-6.3-15.2-0.6-21.2s15.2-6.3,21.2-0.6c6,5.7,6.3,15.2,0.6,21.2
					c-2.8,3-6.8,4.7-10.9,4.7C300.5,510.2,296.8,508.7,294,506.1 M270.1,464.2l1.5,10.1l4.7,3.7l-1-6.8l2.3,2.1l3.7,3.5l0.5,0.5
					l-4.3,4.4l3.7,3.5l4.3-4.5l2.5,2.4c-6.6,9-4.7,21.7,4.4,28.3c9,6.6,21.7,4.7,28.3-4.4s4.7-21.7-4.4-28.3
					c-7.4-5.4-17.6-5.2-24.8,0.7l-2.4-2.3l4.4-4.5l-3.7-3.5l-4.4,4.6l-0.5-0.5l-3.7-3.5l-2.1-2l6.8,1.5l-3.1-4.9l-10.2-2.3l-2.7-0.6
					L270.1,464.2z"/>
			</defs>
			<clipPath id="SVGID_23_">
				<use xlink:href="#SVGID_22_"  style="overflow:visible;"/>
			</clipPath>
			<g class="st16">
				
					<radialGradient id="SVGID_24_" cx="-1168.307" cy="-2474.2793" r="1" gradientTransform="matrix(27.21 0 0 27.21 32086.4883 67812.7734)" gradientUnits="userSpaceOnUse">
					<stop  offset="0" style="stop-color:#FF2639"/>
					<stop  offset="0.29" style="stop-color:#EA1D2C"/>
					<stop  offset="0.9" style="stop-color:#B4040A"/>
					<stop  offset="1" style="stop-color:#AB0004"/>
				</radialGradient>
				<rect x="269.8" y="461.5" class="st17" width="56.9" height="56.2"/>
			</g>
		</g>
		<g>
			<defs>
				<path id="SVGID_25_" d="M90.5,517.3c0-8.3,6.7-15,15-15s15,6.7,15,15c0,8.3-6.7,15-15,15l0,0C97.2,532.3,90.5,525.6,90.5,517.3
					 M85.3,517.3c0,10.2,7.6,18.8,17.8,20.1v8.3h-8.9v5.1h8.9v10h5.1v-10h8.9v-5.1h-8.9v-8.3c11.1-1.4,18.9-11.6,17.5-22.6
					s-11.6-18.9-22.6-17.5C92.9,498.5,85.3,507.1,85.3,517.3"/>
			</defs>
			<clipPath id="SVGID_26_">
				<use xlink:href="#SVGID_25_"  style="overflow:visible;"/>
			</clipPath>
			<g class="st18">
				
					<radialGradient id="SVGID_27_" cx="-1167.8568" cy="-2475.1926" r="1" gradientTransform="matrix(26.73 0 0 26.73 31321.959 66689.5391)" gradientUnits="userSpaceOnUse">
					<stop  offset="0" style="stop-color:#FF2639"/>
					<stop  offset="0.29" style="stop-color:#EA1D2C"/>
					<stop  offset="0.9" style="stop-color:#B4040A"/>
					<stop  offset="1" style="stop-color:#AB0004"/>
				</radialGradient>
				<rect x="85.3" y="497" class="st19" width="40.5" height="63.8"/>
			</g>
		</g>
		<g>
			<defs>
				<path id="SVGID_28_" d="M105.5,504.6c-5.4-6.2-4.8-15.7,1.5-21.2c6.2-5.4,15.7-4.8,21.2,1.5c5.4,6.2,4.8,15.7-1.5,21.2
					c-2.7,2.4-6.2,3.7-9.9,3.7C112.5,509.8,108.3,507.9,105.5,504.6 M150.9,463.7l-10.2,0.6l-4.1,4.3l6.9-0.4l-2.3,2.1l-3.9,3.4
					l-6.9,6c-8.3-7.4-21.1-6.7-28.6,1.6c-7.4,8.3-6.7,21.1,1.6,28.6c8.3,7.4,21.1,6.7,28.6-1.6c6.1-6.9,6.8-17.1,1.7-24.7l7-6
					l3.9-3.4l2.2-1.9l-2.2,6.6l5.2-2.6l3.3-10l0.8-2.6L150.9,463.7z"/>
			</defs>
			<clipPath id="SVGID_29_">
				<use xlink:href="#SVGID_28_"  style="overflow:visible;"/>
			</clipPath>
			<g class="st20">
				
					<radialGradient id="SVGID_30_" cx="-1168.2841" cy="-2474.3171" r="0.9999" gradientTransform="matrix(27.19 0 0 27.19 31889.5703 67760.8828)" gradientUnits="userSpaceOnUse">
					<stop  offset="0" style="stop-color:#FF2639"/>
					<stop  offset="0.29" style="stop-color:#EA1D2C"/>
					<stop  offset="0.9" style="stop-color:#B4040A"/>
					<stop  offset="1" style="stop-color:#AB0004"/>
				</radialGradient>
				<rect x="94.2" y="463.6" class="st21" width="59.5" height="53.8"/>
			</g>
		</g>
		<g>
			<defs>
				<path id="SVGID_31_" d="M82.3,506.1c-6-5.7-6.3-15.2-0.6-21.2s15.2-6.3,21.2-0.6c6,5.7,6.3,15.2,0.6,21.2
					c-2.8,3-6.8,4.7-10.9,4.7C88.8,510.2,85.1,508.7,82.3,506.1 M58.4,464.2l1.6,10.1l4.6,3.7l-1-6.8l2.3,2.1l3.7,3.5l0.5,0.5
					l-4.3,4.4l3.7,3.5l4.3-4.5l2.5,2.4c-6.6,9-4.6,21.7,4.4,28.3c9,6.6,21.7,4.6,28.3-4.4c6.6-9,4.6-21.7-4.4-28.3
					c-7.4-5.4-17.6-5.2-24.7,0.7l-2.4-2.3l4.4-4.5l-3.7-3.5l-4.4,4.6l-0.5-0.5l-3.7-3.5l-2.1-2l6.8,1.5l-3.1-4.8L60.7,462l-2.7-0.6
					L58.4,464.2z"/>
			</defs>
			<clipPath id="SVGID_32_">
				<use xlink:href="#SVGID_31_"  style="overflow:visible;"/>
			</clipPath>
			<g class="st22">
				
					<radialGradient id="SVGID_33_" cx="-1168.307" cy="-2474.2793" r="1" gradientTransform="matrix(27.21 0 0 27.21 31874.7695 67812.7578)" gradientUnits="userSpaceOnUse">
					<stop  offset="0" style="stop-color:#FF2639"/>
					<stop  offset="0.29" style="stop-color:#EA1D2C"/>
					<stop  offset="0.9" style="stop-color:#B4040A"/>
					<stop  offset="1" style="stop-color:#AB0004"/>
				</radialGradient>
				<rect x="58" y="461.5" class="st23" width="56.9" height="56.2"/>
			</g>
		</g>
		<g>
			<defs>
				<path id="SVGID_34_" d="M402.8,411.4c0,10.2,7.6,18.8,17.7,20.1v8.4h-8.9v5.1h8.9v10h3.3v-28.6c-0.2,0-0.5,0-0.7,0
					c-8.3,0.6-15.4-5.7-16-13.9c-0.6-8.3,5.7-15.4,13.9-16c0.7,0,1.4,0,2,0c0.2,0,0.5,0,0.7,0v-5.2c-0.2,0-0.5,0-0.7,0
					C411.9,391.2,402.8,400.3,402.8,411.4C402.8,411.5,402.8,411.5,402.8,411.4"/>
			</defs>
			<clipPath id="SVGID_35_">
				<use xlink:href="#SVGID_34_"  style="overflow:visible;"/>
			</clipPath>
			<g class="st24">
				
					<radialGradient id="SVGID_36_" cx="-1164.6888" cy="-2481.6804" r="1" gradientTransform="matrix(23.76 0 0 23.76 28083.3496 59375.0391)" gradientUnits="userSpaceOnUse">
					<stop  offset="0" style="stop-color:#FF2639"/>
					<stop  offset="0.29" style="stop-color:#EA1D2C"/>
					<stop  offset="0.9" style="stop-color:#B4040A"/>
					<stop  offset="1" style="stop-color:#AB0004"/>
				</radialGradient>
				<rect x="402.8" y="391.2" class="st25" width="21" height="63.8"/>
			</g>
		</g>
		<g>
			<defs>
				<path id="SVGID_37_" d="M421.1,373.7c-8.4,7.3-9.3,20.1-2,28.6c1.4,1.6,2.9,2.9,4.7,4v-6.7c-0.2-0.3-0.5-0.5-0.7-0.8
					c-5.1-5.9-4.8-14.8,0.7-20.4v-6.7C422.8,372.3,421.9,373,421.1,373.7"/>
			</defs>
			<clipPath id="SVGID_38_">
				<use xlink:href="#SVGID_37_"  style="overflow:visible;"/>
			</clipPath>
			<g class="st26">
				
					<radialGradient id="SVGID_39_" cx="-1139.7538" cy="-2532.6377" r="1" gradientTransform="matrix(12.68 0 0 12.68 14868.2705 32489.9512)" gradientUnits="userSpaceOnUse">
					<stop  offset="0" style="stop-color:#FF2639"/>
					<stop  offset="0.29" style="stop-color:#EA1D2C"/>
					<stop  offset="0.9" style="stop-color:#B4040A"/>
					<stop  offset="1" style="stop-color:#AB0004"/>
				</radialGradient>
				<rect x="411.8" y="371.7" class="st27" width="12" height="34.5"/>
			</g>
		</g>
		<g>
			<defs>
				<path id="SVGID_40_" d="M376,358.3l1.5,10.1l4.7,3.7l-1-6.8l2.3,2.1l3.7,3.5l0.5,0.5l-4.3,4.4l3.7,3.5l4.3-4.5l2.5,2.4
					c-6.7,9-4.8,21.6,4.1,28.3c7.8,5.8,18.6,5.3,25.8-1.3v-8.8c-3.4,7.5-12.2,10.9-19.7,7.5c-1.5-0.7-3-1.7-4.2-2.8
					c-6.1-5.6-6.4-15.1-0.8-21.2c5.6-6.1,15.1-6.4,21.2-0.8c1.5,1.4,2.7,3.1,3.5,4.9v-8.8c-7.4-6.7-18.6-7.1-26.4-0.7l-2.4-2.4
					l4.4-4.5l-3.7-3.5l-4.4,4.6l-0.5-0.5l-3.7-3.5l-2.1-2l6.8,1.5l-3.1-4.9l-10.2-2.3l-2.7-0.6L376,358.3z"/>
			</defs>
			<clipPath id="SVGID_41_">
				<use xlink:href="#SVGID_40_"  style="overflow:visible;"/>
			</clipPath>
			<g class="st28">
				
					<radialGradient id="SVGID_42_" cx="-1166.7235" cy="-2477.4995" r="1" gradientTransform="matrix(25.59 0 0 25.59 30255.5313 63778.832)" gradientUnits="userSpaceOnUse">
					<stop  offset="0" style="stop-color:#FF2639"/>
					<stop  offset="0.29" style="stop-color:#EA1D2C"/>
					<stop  offset="0.9" style="stop-color:#B4040A"/>
					<stop  offset="1" style="stop-color:#AB0004"/>
				</radialGradient>
				<rect x="375.6" y="355.6" class="st29" width="48.2" height="55.8"/>
			</g>
		</g>
		<g>
			<defs>
				<path id="SVGID_43_" d="M0,396.5c8.1,0.2,14.6,6.9,14.6,15c0,8.1-6.5,14.7-14.6,14.9V455h2.2v-10h8.9v-5.1H2.2v-8.4
					c10.1-1.3,17.7-9.9,17.7-20.1c0-11-8.8-20-19.9-20.2V396.5z"/>
			</defs>
			<clipPath id="SVGID_44_">
				<use xlink:href="#SVGID_43_"  style="overflow:visible;"/>
			</clipPath>
			<g class="st30">
				
					<radialGradient id="SVGID_45_" cx="-1164.53" cy="-2481.9807" r="1" gradientTransform="matrix(23.63 0 0 23.63 27530.6289 59084.8008)" gradientUnits="userSpaceOnUse">
					<stop  offset="0" style="stop-color:#FF2639"/>
					<stop  offset="0.29" style="stop-color:#EA1D2C"/>
					<stop  offset="0.9" style="stop-color:#B4040A"/>
					<stop  offset="1" style="stop-color:#AB0004"/>
				</radialGradient>
				<rect y="391.2" class="st31" width="19.9" height="63.8"/>
			</g>
		</g>
		<g>
			<defs>
				<path id="SVGID_46_" d="M45.1,357.9l-10.2,0.6l-4.1,4.3l6.9-0.4l-2.3,2.1l-3.9,3.4l-6.9,6c-6.8-6-16.8-6.8-24.4-1.9v6.8
					c0.3-0.4,0.7-0.7,1.1-1.1c6.2-5.5,15.7-4.8,21.2,1.4s4.8,15.7-1.4,21.2c-6.1,5.3-15.3,4.9-20.9-1.1v6.9c9.4,6,21.9,3.3,28-6.1
					c4.4-6.8,4.3-15.5-0.2-22.2l7-6l3.9-3.4l2.2-1.9l-2.2,6.6l5.2-2.7l3.3-10l0.8-2.6L45.1,357.9z"/>
			</defs>
			<clipPath id="SVGID_47_">
				<use xlink:href="#SVGID_46_"  style="overflow:visible;"/>
			</clipPath>
			<g class="st32">
				
					<radialGradient id="SVGID_48_" cx="-1165.9288" cy="-2479.1479" r="1" gradientTransform="matrix(24.84 0 0 24.84 28983.0117 61954.4336)" gradientUnits="userSpaceOnUse">
					<stop  offset="0" style="stop-color:#FF2639"/>
					<stop  offset="0.29" style="stop-color:#EA1D2C"/>
					<stop  offset="0.9" style="stop-color:#B4040A"/>
					<stop  offset="1" style="stop-color:#AB0004"/>
				</radialGradient>
				<rect y="357.7" class="st33" width="47.8" height="53"/>
			</g>
		</g>
		<g>
			<defs>
				<path id="SVGID_49_" d="M0,382.4c2.3,4.3,2.3,9.5,0,13.8v8.4c0.5-0.4,1-0.9,1.4-1.3c7.7-8.1,7.4-20.9-0.7-28.6c0,0,0,0,0,0
					c-0.2-0.2-0.5-0.4-0.7-0.6V382.4z"/>
			</defs>
			<clipPath id="SVGID_50_">
				<use xlink:href="#SVGID_49_"  style="overflow:visible;"/>
			</clipPath>
			<g class="st34">
				
					<radialGradient id="SVGID_51_" cx="-1132.0995" cy="-2548.2654" r="1" gradientTransform="matrix(11.09 0 0 11.09 12557.9199 28647.1973)" gradientUnits="userSpaceOnUse">
					<stop  offset="0" style="stop-color:#FF2639"/>
					<stop  offset="0.29" style="stop-color:#EA1D2C"/>
					<stop  offset="0.9" style="stop-color:#B4040A"/>
					<stop  offset="1" style="stop-color:#AB0004"/>
				</radialGradient>
				<rect y="374.1" class="st35" width="9.1" height="30.6"/>
			</g>
		</g>
		<g>
			<defs>
				<path id="SVGID_52_" d="M196.4,124.7c0-8.3,6.7-15,15-15s15,6.7,15,15s-6.7,15-15,15S196.4,133,196.4,124.7L196.4,124.7
					 M191.1,124.7c0,10.2,7.6,18.8,17.7,20.1v8.3h-8.9v5.1h8.9v10h5.1v-10h8.9v-5.1h-8.9v-8.3c11.1-1.4,18.9-11.6,17.5-22.6
					c-1.4-11.1-11.6-18.9-22.6-17.5C198.7,105.9,191.1,114.5,191.1,124.7"/>
			</defs>
			<clipPath id="SVGID_53_">
				<use xlink:href="#SVGID_52_"  style="overflow:visible;"/>
			</clipPath>
			<g class="st36">
				
					<radialGradient id="SVGID_54_" cx="-1167.8568" cy="-2475.1926" r="1" gradientTransform="matrix(26.73 0 0 26.73 31427.8301 66296.9531)" gradientUnits="userSpaceOnUse">
					<stop  offset="0" style="stop-color:#FF2639"/>
					<stop  offset="0.29" style="stop-color:#EA1D2C"/>
					<stop  offset="0.9" style="stop-color:#B4040A"/>
					<stop  offset="1" style="stop-color:#AB0004"/>
				</radialGradient>
				<rect x="191.1" y="104.4" class="st37" width="40.5" height="63.8"/>
			</g>
		</g>
		<g>
			<defs>
				<path id="SVGID_55_" d="M211.4,112.1c-5.4-6.2-4.8-15.7,1.4-21.2s15.7-4.8,21.2,1.4s4.8,15.7-1.4,21.2c-2.7,2.4-6.2,3.7-9.9,3.7
					C218.3,117.2,214.2,115.3,211.4,112.1 M256.8,71.1l-10.2,0.6l-4.2,4.3l6.9-0.4l-2.3,2.1l-3.9,3.3l-7,6.1
					c-8.3-7.5-21.1-6.8-28.6,1.5s-6.8,21.1,1.5,28.6c8.3,7.5,21.1,6.8,28.6-1.5c6.2-6.9,6.9-17,1.8-24.7l7-6l3.9-3.3l2.2-1.9
					l-2.2,6.6l5.2-2.7l3.3-10l0.8-2.6L256.8,71.1z"/>
			</defs>
			<clipPath id="SVGID_56_">
				<use xlink:href="#SVGID_55_"  style="overflow:visible;"/>
			</clipPath>
			<g class="st38">
				
					<radialGradient id="SVGID_57_" cx="-1168.2838" cy="-2474.3171" r="0.9998" gradientTransform="matrix(27.19 0 0 27.19 31995.4316 67368.2891)" gradientUnits="userSpaceOnUse">
					<stop  offset="0" style="stop-color:#FF2639"/>
					<stop  offset="0.29" style="stop-color:#EA1D2C"/>
					<stop  offset="0.9" style="stop-color:#B4040A"/>
					<stop  offset="1" style="stop-color:#AB0004"/>
				</radialGradient>
				<rect x="200" y="71" class="st39" width="59.5" height="53.8"/>
			</g>
		</g>
		<g>
			<defs>
				<path id="SVGID_58_" d="M188.1,113.5c-6-5.7-6.3-15.2-0.6-21.2c5.7-6,15.2-6.3,21.2-0.6c6,5.7,6.3,15.2,0.6,21.2
					c-2.8,3-6.8,4.7-10.9,4.7C194.6,117.6,190.9,116.1,188.1,113.5 M164.3,71.6l1.5,10.1l4.7,3.7l-1-6.8l2.3,2.1l3.7,3.5l0.5,0.5
					l-4.3,4.4l3.7,3.6l4.3-4.4l2.5,2.4c-6.6,9-4.7,21.7,4.3,28.3c9,6.6,21.7,4.7,28.3-4.3s4.7-21.7-4.3-28.3
					c-7.4-5.5-17.6-5.2-24.8,0.6l-2.4-2.3l4.4-4.5l-3.7-3.6l-4.4,4.6l-0.5-0.5l-3.7-3.5l-2.1-2l6.8,1.6l-3.1-4.9l-10.3-2.3l-2.7-0.6
					L164.3,71.6z"/>
			</defs>
			<clipPath id="SVGID_59_">
				<use xlink:href="#SVGID_58_"  style="overflow:visible;"/>
			</clipPath>
			<g class="st40">
				
					<radialGradient id="SVGID_60_" cx="-1168.307" cy="-2474.2793" r="1" gradientTransform="matrix(27.21 0 0 27.21 31980.6289 67420.1797)" gradientUnits="userSpaceOnUse">
					<stop  offset="0" style="stop-color:#FF2639"/>
					<stop  offset="0.29" style="stop-color:#EA1D2C"/>
					<stop  offset="0.9" style="stop-color:#B4040A"/>
					<stop  offset="1" style="stop-color:#AB0004"/>
				</radialGradient>
				<rect x="163.9" y="68.9" class="st41" width="56.9" height="56.2"/>
			</g>
		</g>
		<g>
			<defs>
				<path id="SVGID_61_" d="M1.7,184.9c7.4,1,12.9,7.4,12.9,14.8c0,8.1-6.5,14.8-14.6,15v28.6h2.2v-10.1h8.9v-5.1H2.2v-8.3
					c10.1-1.3,17.7-9.9,17.7-20.1c0-10.1-7.4-18.7-17.5-20.1C2.2,181.4,1.9,183.1,1.7,184.9"/>
			</defs>
			<clipPath id="SVGID_62_">
				<use xlink:href="#SVGID_61_"  style="overflow:visible;"/>
			</clipPath>
			<g class="st42">
				
					<radialGradient id="SVGID_63_" cx="-1167.8568" cy="-2475.1926" r="1" gradientTransform="matrix(26.73 0 0 26.73 31216.0996 66371.9531)" gradientUnits="userSpaceOnUse">
					<stop  offset="0" style="stop-color:#FF2639"/>
					<stop  offset="0.29" style="stop-color:#EA1D2C"/>
					<stop  offset="0.9" style="stop-color:#B4040A"/>
					<stop  offset="1" style="stop-color:#AB0004"/>
				</radialGradient>
				<rect y="179.6" class="st43" width="19.9" height="63.6"/>
			</g>
		</g>
		<g>
			<defs>
				<path id="SVGID_64_" d="M45.1,146.1l-10.2,0.6l-4.1,4.3l6.9-0.4l-2.3,2.1l-3.9,3.4l-6.9,6.1c-4.7-4.2-11.1-6-17.3-4.8
					c-0.5,1.9-1,3.9-1.5,5.9c7.7-3,16.4,0.9,19.4,8.6s-0.9,16.4-8.6,19.4c-5.1,2-10.9,1-15.1-2.6c-0.2,2-0.4,4-0.6,6
					c9.7,5.6,22.1,2.3,27.7-7.4c3.8-6.6,3.6-14.9-0.6-21.3l7-6l3.9-3.4l2.2-2l-2.2,6.6l5.2-2.7l3.3-10l0.8-2.6L45.1,146.1z"/>
			</defs>
			<clipPath id="SVGID_65_">
				<use xlink:href="#SVGID_64_"  style="overflow:visible;"/>
			</clipPath>
			<g class="st44">
				
					<radialGradient id="SVGID_66_" cx="-1168.2843" cy="-2474.3171" r="1" gradientTransform="matrix(27.19 0 0 27.19 31783.7012 67443.2891)" gradientUnits="userSpaceOnUse">
					<stop  offset="0" style="stop-color:#FF2639"/>
					<stop  offset="0.29" style="stop-color:#EA1D2C"/>
					<stop  offset="0.9" style="stop-color:#B4040A"/>
					<stop  offset="1" style="stop-color:#AB0004"/>
				</radialGradient>
				<rect x="0.7" y="146" class="st45" width="47.1" height="53"/>
			</g>
		</g>
		<g>
			<defs>
				<path id="SVGID_67_" d="M0.9,192.1c0.2-0.2,0.3-0.3,0.5-0.5c6-6.4,7.3-15.9,3.1-23.6C2.9,176,1.7,184,0.9,192.1"/>
			</defs>
			<clipPath id="SVGID_68_">
				<use xlink:href="#SVGID_67_"  style="overflow:visible;"/>
			</clipPath>
			<g class="st46">
				
					<radialGradient id="SVGID_69_" cx="-1168.307" cy="-2474.2793" r="1" gradientTransform="matrix(27.21 0 0 27.21 31768.8984 67495.1797)" gradientUnits="userSpaceOnUse">
					<stop  offset="0" style="stop-color:#FF2639"/>
					<stop  offset="0.29" style="stop-color:#EA1D2C"/>
					<stop  offset="0.9" style="stop-color:#B4040A"/>
					<stop  offset="1" style="stop-color:#AB0004"/>
				</radialGradient>
				<rect x="0.9" y="168" class="st47" width="7.7" height="24.1"/>
			</g>
		</g>
		<g>
			<defs>
				<path id="SVGID_70_" d="M402.8,199.7c0,10.2,7.6,18.8,17.7,20.1v8.3h-8.9v5.1h8.9v10.1h3.3v-28.6h-0.7
					c-8.3-0.3-14.7-7.3-14.4-15.6c0.3-7.4,6-13.5,13.4-14.3c-0.2-1.8-0.5-3.5-0.7-5.3C410.9,180.4,402.9,189.2,402.8,199.7"/>
			</defs>
			<clipPath id="SVGID_71_">
				<use xlink:href="#SVGID_70_"  style="overflow:visible;"/>
			</clipPath>
			<g class="st48">
				
					<radialGradient id="SVGID_72_" cx="-1167.8568" cy="-2475.1926" r="1" gradientTransform="matrix(26.73 0 0 26.73 31639.5488 66371.9531)" gradientUnits="userSpaceOnUse">
					<stop  offset="0" style="stop-color:#FF2639"/>
					<stop  offset="0.29" style="stop-color:#EA1D2C"/>
					<stop  offset="0.9" style="stop-color:#B4040A"/>
					<stop  offset="1" style="stop-color:#AB0004"/>
				</radialGradient>
				<rect x="402.8" y="179.5" class="st49" width="21" height="63.8"/>
			</g>
		</g>
		<g>
			<defs>
				<path id="SVGID_73_" d="M419.1,190.5c1.2,1.3,2.5,2.5,4,3.5c-0.2-2.7-0.5-5.4-0.8-8.1c-2.8-3.9-3.6-8.9-2.1-13.4
					c-0.5-2.6-1-5.3-1.6-7.9C412.5,172.3,412.7,183.2,419.1,190.5"/>
			</defs>
			<clipPath id="SVGID_74_">
				<use xlink:href="#SVGID_73_"  style="overflow:visible;"/>
			</clipPath>
			<g class="st50">
				
					<radialGradient id="SVGID_75_" cx="-1168.2843" cy="-2474.3171" r="1" gradientTransform="matrix(27.19 0 0 27.19 32207.1504 67443.2891)" gradientUnits="userSpaceOnUse">
					<stop  offset="0" style="stop-color:#FF2639"/>
					<stop  offset="0.29" style="stop-color:#EA1D2C"/>
					<stop  offset="0.9" style="stop-color:#B4040A"/>
					<stop  offset="1" style="stop-color:#AB0004"/>
				</radialGradient>
				<rect x="412.6" y="164.6" class="st51" width="10.5" height="29.4"/>
			</g>
		</g>
		<g>
			<defs>
				<path id="SVGID_76_" d="M376,146.6l1.5,10.1l4.7,3.7l-1-6.8l2.3,2.1l3.7,3.5l0.5,0.5l-4.3,4.4l3.7,3.5l4.3-4.4l2.5,2.4
					c-6.6,9-4.6,21.7,4.4,28.3c7.4,5.4,17.6,5.2,24.7-0.6c-0.2-2.3-0.4-4.6-0.7-6.9c-0.4,0.5-0.8,1.1-1.3,1.5
					c-5.7,6-15.2,6.3-21.2,0.6c-6-5.7-6.3-15.2-0.6-21.2c5.1-5.4,13.3-6.2,19.4-2c-0.5-2.2-1.1-4.5-1.6-6.7
					c-6.7-2.4-14.1-1.1-19.6,3.4l-2.4-2.4l4.4-4.5l-3.7-3.5l-4.4,4.6l-0.5-0.5l-3.7-3.5l-2.1-2l6.8,1.5l-3.1-4.9l-10.2-2.3l-2.7-0.6
					L376,146.6z"/>
			</defs>
			<clipPath id="SVGID_77_">
				<use xlink:href="#SVGID_76_"  style="overflow:visible;"/>
			</clipPath>
			<g class="st52">
				
					<radialGradient id="SVGID_78_" cx="-1168.307" cy="-2474.2793" r="1" gradientTransform="matrix(27.21 0 0 27.21 32192.3496 67495.1797)" gradientUnits="userSpaceOnUse">
					<stop  offset="0" style="stop-color:#FF2639"/>
					<stop  offset="0.29" style="stop-color:#EA1D2C"/>
					<stop  offset="0.9" style="stop-color:#B4040A"/>
					<stop  offset="1" style="stop-color:#AB0004"/>
				</radialGradient>
				<rect x="375.6" y="143.9" class="st53" width="47.4" height="55.8"/>
			</g>
		</g>
		<g>
			<defs>
				<path id="SVGID_79_" d="M302.3,71.3c0-8.3,6.7-15,15-15s15,6.7,15,15s-6.7,15-15,15l0,0C309,86.3,302.3,79.6,302.3,71.3
					 M297,71.3c0,10.2,7.6,18.8,17.7,20.1v8.3h-8.9v5.1h8.9v10h5.1v-10h8.9v-5.1h-8.9v-8.3c11.1-1.4,19-11.5,17.6-22.6
					s-11.5-19-22.6-17.6C304.6,52.5,297,61.1,297,71.3"/>
			</defs>
			<clipPath id="SVGID_80_">
				<use xlink:href="#SVGID_79_"  style="overflow:visible;"/>
			</clipPath>
			<g class="st54">
				
					<radialGradient id="SVGID_81_" cx="-1167.8568" cy="-2475.1926" r="1" gradientTransform="matrix(26.73 0 0 26.73 31533.6895 66243.5781)" gradientUnits="userSpaceOnUse">
					<stop  offset="0" style="stop-color:#FF2639"/>
					<stop  offset="0.29" style="stop-color:#EA1D2C"/>
					<stop  offset="0.9" style="stop-color:#B4040A"/>
					<stop  offset="1" style="stop-color:#AB0004"/>
				</radialGradient>
				<rect x="297" y="51.1" class="st55" width="40.5" height="63.8"/>
			</g>
		</g>
		<g>
			<defs>
				<path id="SVGID_82_" d="M315.2,33.6c-8.4,7.3-9.3,20.1-2,28.6s20.1,9.3,28.6,2c4.1-3.6,6.6-8.6,6.9-14c-1.8-1.6-3.7-3.1-5.6-4.6
					c1.9,8.1-3.1,16.1-11.2,18c-8.1,1.9-16.1-3.1-18-11.2c-1.9-8.1,3.1-16.1,11.2-18c0.6-0.1,1.3-0.3,1.9-0.3
					c-2-1.3-4.1-2.6-6.2-3.9C318.8,31,316.9,32.2,315.2,33.6"/>
			</defs>
			<clipPath id="SVGID_83_">
				<use xlink:href="#SVGID_82_"  style="overflow:visible;"/>
			</clipPath>
			<g class="st56">
				
					<radialGradient id="SVGID_84_" cx="-1168.2843" cy="-2474.3171" r="1" gradientTransform="matrix(27.19 0 0 27.19 32101.291 67314.9219)" gradientUnits="userSpaceOnUse">
					<stop  offset="0" style="stop-color:#FF2639"/>
					<stop  offset="0.29" style="stop-color:#EA1D2C"/>
					<stop  offset="0.9" style="stop-color:#B4040A"/>
					<stop  offset="1" style="stop-color:#AB0004"/>
				</radialGradient>
				<rect x="305.9" y="30.1" class="st57" width="42.8" height="41.4"/>
			</g>
		</g>
		<g>
			<defs>
				<path id="SVGID_85_" d="M294,60.1c-6-5.7-6.3-15.2-0.6-21.2s15.2-6.3,21.2-0.6s6.3,15.2,0.6,21.2c-2.8,3-6.8,4.7-10.9,4.7
					C300.5,64.2,296.8,62.8,294,60.1 M270.1,18.2l1.5,10.1l4.7,3.7l-1-6.8l2.3,2.1l3.7,3.5l0.5,0.5l-4.3,4.4l3.7,3.5l4.3-4.4
					l2.4,2.4c-6.6,9-4.7,21.7,4.3,28.3c9,6.6,21.7,4.7,28.3-4.3c6.6-9,4.7-21.7-4.3-28.3c-7.4-5.5-17.6-5.2-24.8,0.6l-2.4-2.3
					l4.4-4.5l-3.7-3.5l-4.4,4.5l-0.5-0.5l-3.7-3.5l-2.1-2l6.8,1.5l-3.1-4.9L272.4,16l-2.7-0.6L270.1,18.2z"/>
			</defs>
			<clipPath id="SVGID_86_">
				<use xlink:href="#SVGID_85_"  style="overflow:visible;"/>
			</clipPath>
			<g class="st58">
				
					<radialGradient id="SVGID_87_" cx="-1168.307" cy="-2474.2793" r="1" gradientTransform="matrix(27.21 0 0 27.21 32086.4883 67366.8125)" gradientUnits="userSpaceOnUse">
					<stop  offset="0" style="stop-color:#FF2639"/>
					<stop  offset="0.29" style="stop-color:#EA1D2C"/>
					<stop  offset="0.9" style="stop-color:#B4040A"/>
					<stop  offset="1" style="stop-color:#AB0004"/>
				</radialGradient>
				<rect x="269.8" y="15.5" class="st59" width="56.9" height="56.2"/>
			</g>
		</g>
		<g>
			<defs>
				<path id="SVGID_88_" d="M90.5,71.3c0-8.3,6.7-15,15-15s15,6.7,15,15s-6.7,15-15,15l0,0C97.2,86.3,90.5,79.6,90.5,71.3
					 M85.3,71.3c0,10.2,7.6,18.8,17.8,20.1v8.3h-8.9v5.1h8.9v10h5.1v-10h8.9v-5.1h-8.9v-8.3c11.1-1.4,18.9-11.6,17.5-22.7
					c-1.4-11.1-11.6-18.9-22.7-17.5C92.8,52.6,85.3,61.1,85.3,71.3"/>
			</defs>
			<clipPath id="SVGID_89_">
				<use xlink:href="#SVGID_88_"  style="overflow:visible;"/>
			</clipPath>
			<g class="st60">
				
					<radialGradient id="SVGID_90_" cx="-1167.8568" cy="-2475.1926" r="1" gradientTransform="matrix(26.73 0 0 26.73 31321.959 66243.5781)" gradientUnits="userSpaceOnUse">
					<stop  offset="0" style="stop-color:#FF2639"/>
					<stop  offset="0.29" style="stop-color:#EA1D2C"/>
					<stop  offset="0.9" style="stop-color:#B4040A"/>
					<stop  offset="1" style="stop-color:#AB0004"/>
				</radialGradient>
				<rect x="85.3" y="51.1" class="st61" width="40.5" height="63.8"/>
			</g>
		</g>
		<g>
			<defs>
				<path id="SVGID_91_" d="M105.5,58.7c-5.4-6.2-4.8-15.7,1.4-21.2s15.7-4.8,21.2,1.4c5.4,6.2,4.8,15.7-1.4,21.2
					c-2.7,2.4-6.2,3.7-9.9,3.7C112.5,63.8,108.3,61.9,105.5,58.7 M150.9,17.8l-10.2,0.6l-4.1,4.3l6.9-0.4l-2.3,2.1l-3.9,3.4l-6.9,6
					c-8.3-7.4-21.1-6.7-28.6,1.6c-7.4,8.3-6.7,21.1,1.6,28.6s21.1,6.7,28.6-1.6c6.1-6.9,6.8-17.1,1.7-24.7l7-6l3.9-3.4l2.2-1.9
					l-2.2,6.6l5.2-2.7l3.3-10l0.8-2.6L150.9,17.8z"/>
			</defs>
			<clipPath id="SVGID_92_">
				<use xlink:href="#SVGID_91_"  style="overflow:visible;"/>
			</clipPath>
			<g class="st62">
				
					<radialGradient id="SVGID_93_" cx="-1168.2841" cy="-2474.3171" r="0.9999" gradientTransform="matrix(27.19 0 0 27.19 31889.5703 67314.9219)" gradientUnits="userSpaceOnUse">
					<stop  offset="0" style="stop-color:#FF2639"/>
					<stop  offset="0.29" style="stop-color:#EA1D2C"/>
					<stop  offset="0.9" style="stop-color:#B4040A"/>
					<stop  offset="1" style="stop-color:#AB0004"/>
				</radialGradient>
				<rect x="94.2" y="17.6" class="st63" width="59.5" height="53.8"/>
			</g>
		</g>
		<g>
			<defs>
				<path id="SVGID_94_" d="M95.8,34.6c8.1,1.7,13.3,9.7,11.5,17.8S97.6,65.7,89.5,64c-7.4-1.6-12.5-8.5-11.8-16.1
					c-1.7,1.4-3.4,2.9-5.1,4.3c1.7,11.1,12,18.7,23,17c11.1-1.7,18.7-12,17-23c-0.7-4.5-2.8-8.6-6.1-11.7c-1.5-1.5-3.2-2.7-5.1-3.6
					C99.5,32.2,97.6,33.4,95.8,34.6"/>
			</defs>
			<clipPath id="SVGID_95_">
				<use xlink:href="#SVGID_94_"  style="overflow:visible;"/>
			</clipPath>
			<g class="st64">
				
					<radialGradient id="SVGID_96_" cx="-1168.307" cy="-2474.2793" r="1" gradientTransform="matrix(27.21 0 0 27.21 31874.7695 67366.8125)" gradientUnits="userSpaceOnUse">
					<stop  offset="0" style="stop-color:#FF2639"/>
					<stop  offset="0.29" style="stop-color:#EA1D2C"/>
					<stop  offset="0.9" style="stop-color:#B4040A"/>
					<stop  offset="1" style="stop-color:#AB0004"/>
				</radialGradient>
				<rect x="72.6" y="31" class="st65" width="42.4" height="40.6"/>
			</g>
		</g>
	</g>
</g>
</svg>
