
<svg width="875" height="822" viewBox="0 0 875 822" fill="none" xmlns="http://www.w3.org/2000/svg">
<path d="M81.5335 822C82.453 819.093 82.8575 817.175 83.639 815.386C140.114 686.332 208.833 562.998 302.558 451.6C341.671 405.109 386.007 362.72 436.717 325.83C445.645 319.333 455.36 313.686 463.507 305.884C451.906 312.409 439.938 318.473 428.764 325.526C329.945 387.896 253 468.519 184.833 556.299C129.556 627.476 81.2914 702.294 38.6568 780C37.1061 782.825 35.4603 785.606 31.2461 788.383C25.4843 768.358 18.6804 748.519 14.12 728.285C-19.5561 579.033 7.19353 438.192 92.3554 306.418C157.669 205.365 247.864 125.577 363.067 69.1605C456.274 23.5387 556.137 -0.888547 663.409 0.0247092C732.171 0.60932 797.117 14.561 859.176 40.1574C864.249 42.2526 869.162 44.6542 875 47.2992C869.483 62.9035 864.754 78.4194 858.579 93.4739C829.77 163.728 802.119 234.394 771.167 303.905C716.307 427.129 633.398 533.575 520.53 621.017C428.019 692.684 322.85 745.868 208.628 785.059C170.735 798.063 131.576 808.162 92.9714 819.526C89.6307 820.508 86.1123 821.024 81.5427 821.994" fill="black" fill-opacity="0.1"/>
</svg>
