<svg xmlns="http://www.w3.org/2000/svg" xmlns:xlink="http://www.w3.org/1999/xlink" viewBox="0 0 410.65 410.68"><defs><style>.cls-1{fill:none;}.cls-2{clip-path:url(#clip-path);}.cls-3{fill:url(#radial-gradient);}</style><clipPath id="clip-path"><path class="cls-1" d="M190.79,117.9a157,157,0,0,0-60.88,60.69c-19.15,33.71-25.17,69.73-17.59,107.91,1,5.18,2.55,10.25,3.85,15.38a5.15,5.15,0,0,0,1.66-2.15,442,442,0,0,1,32.88-57.22c15.32-22.45,32.63-43.08,54.85-59,2.51-1.81,5.2-3.36,7.81-5a55.39,55.39,0,0,1-6,5.11,181.47,181.47,0,0,0-30.17,32.17c-21.08,28.49-36.53,60-49.23,93-.18.46-.27,1-.47,1.69,1-.24,1.81-.38,2.57-.63,8.68-2.9,17.48-5.49,26-8.81,25.69-10,49.34-23.63,70.14-42,25.39-22.36,44-49.59,56.37-81.11,7-17.78,13.17-35.86,19.65-53.83,1.39-3.85,2.46-7.82,3.7-11.81-1.32-.68-2.42-1.29-3.56-1.83a105,105,0,0,0-44-10.27H257c-23.63,0-45.66,6.23-66.24,17.69"/></clipPath><radialGradient id="radial-gradient" cx="-465.19" cy="2924.67" r="1" gradientTransform="matrix(120.34, 0, 0, -65.35, 56187.64, 191329.19)" gradientUnits="userSpaceOnUse"><stop offset="0" stop-color="#ff2639"/><stop offset="0.29" stop-color="#ea1d2c"/><stop offset="0.9" stop-color="#b4040a"/><stop offset="1" stop-color="#ab0004"/></radialGradient></defs><title>Asset 2</title><g id="Layer_2" data-name="Layer 2"><g id="Layer_1-2" data-name="Layer 1"><g class="cls-2"><rect class="cls-3" x="59.86" y="60.15" width="290.93" height="290.38" transform="translate(-84.79 217.83) rotate(-47.47)"/></g></g></g></svg>