<svg xmlns="http://www.w3.org/2000/svg" xmlns:xlink="http://www.w3.org/1999/xlink" viewBox="0 0 311.64 311.67"><defs><style>.cls-1{fill:none;}.cls-2{clip-path:url(#clip-path);}.cls-3{fill:url(#radial-gradient);}</style><clipPath id="clip-path"><path class="cls-1" d="M144.79,89.48a119.06,119.06,0,0,0-46.2,46.06c-14.54,25.57-19.1,52.92-13.35,81.89.78,3.93,1.94,7.78,2.92,11.67a3.86,3.86,0,0,0,1.26-1.63,336,336,0,0,1,25-43.43c11.63-17,24.77-32.69,41.63-44.8,1.91-1.36,3.95-2.54,5.93-3.81a43.55,43.55,0,0,1-4.57,3.87,137.68,137.68,0,0,0-22.9,24.42c-16,21.62-27.72,45.56-37.36,70.62-.13.34-.2.72-.36,1.28.78-.19,1.38-.29,2-.48,6.59-2.2,13.27-4.16,19.74-6.69,19.49-7.61,37.44-17.93,53.23-31.84a157.18,157.18,0,0,0,42.77-61.56c5.28-13.5,10-27.22,14.92-40.85,1.06-2.93,1.86-5.94,2.8-9-1-.51-1.83-1-2.7-1.38A79.65,79.65,0,0,0,196,76.05h-1a101.88,101.88,0,0,0-50.26,13.43"/></clipPath><radialGradient id="radial-gradient" cx="-627.86" cy="3052.98" r="1" gradientTransform="matrix(91.33, 0, 0, -49.59, 57497.71, 151564.79)" gradientUnits="userSpaceOnUse"><stop offset="0" stop-color="#ff2639"/><stop offset="0.29" stop-color="#ea1d2c"/><stop offset="0.9" stop-color="#b4040a"/><stop offset="1" stop-color="#ab0004"/></radialGradient></defs><title>Asset 3</title><g id="Layer_2" data-name="Layer 2"><g id="Layer_1-2" data-name="Layer 1"><g class="cls-2"><rect class="cls-3" x="45.43" y="45.65" width="220.79" height="220.37" transform="translate(-64.35 165.31) rotate(-47.47)"/></g></g></g></svg>