<svg xmlns="http://www.w3.org/2000/svg" xmlns:xlink="http://www.w3.org/1999/xlink" viewBox="0 0 542.55 542.59"><defs><style>.cls-1{fill:none;}.cls-2{clip-path:url(#clip-path);}.cls-3{fill:url(#radial-gradient);}</style><clipPath id="clip-path"><path class="cls-1" d="M252.07,155.77c-34.23,19.07-61,46-80.44,80.19-25.3,44.53-33.24,92.12-23.24,142.57,1.36,6.83,3.38,13.54,5.09,20.31a6.81,6.81,0,0,0,2.2-2.84,584.31,584.31,0,0,1,43.43-75.6c20.25-29.66,43.11-56.91,72.47-78,3.32-2.38,6.88-4.43,10.33-6.64-2.42,2.64-5.31,4.55-8,6.74A240.06,240.06,0,0,0,234.09,285C206.24,322.67,185.82,364.35,169,408c-.23.61-.35,1.25-.62,2.24,1.36-.33,2.4-.5,3.39-.84,11.47-3.84,23.11-7.25,34.37-11.65,33.93-13.24,65.18-31.21,92.66-55.43,33.54-29.56,58.17-65.53,74.47-107.18,9.2-23.49,17.41-47.37,26-71.11,1.84-5.09,3.24-10.33,4.88-15.61-1.74-.89-3.19-1.7-4.7-2.41a138.63,138.63,0,0,0-58.17-13.57h-1.72c-31.22,0-60.32,8.23-87.5,23.37"/></clipPath><radialGradient id="radial-gradient" cx="-275.09" cy="2777.07" r="1" gradientTransform="matrix(158.99, 0, 0, -86.34, 44010.46, 240038.76)" gradientUnits="userSpaceOnUse"><stop offset="0" stop-color="#ff2639"/><stop offset="0.29" stop-color="#ea1d2c"/><stop offset="0.9" stop-color="#b4040a"/><stop offset="1" stop-color="#ab0004"/></radialGradient></defs><title>Asset 4</title><g id="Layer_2" data-name="Layer 2"><g id="Layer_1-2" data-name="Layer 1"><g class="cls-2"><rect class="cls-3" x="79.09" y="79.47" width="384.38" height="383.64" transform="translate(-112.03 287.8) rotate(-47.47)"/></g></g></g></svg>