<?xml version="1.0" encoding="utf-8"?>
<!-- Generator: Adobe Illustrator 23.1.0, SVG Export Plug-In . SVG Version: 6.00 Build 0)  -->
<svg version="1.1" id="Layer_1" xmlns="http://www.w3.org/2000/svg" xmlns:xlink="http://www.w3.org/1999/xlink" x="0px" y="0px"
	 viewBox="0 0 155.3 165.9" style="enable-background:new 0 0 155.3 165.9;" xml:space="preserve">
<style type="text/css">
	.st0{clip-path:url(#SVGID_2_);}
	.st1{fill:url(#SVGID_3_);}
</style>
<title>leaf1</title>
<g>
	<g id="Layer_1-2">
		<g>
			<defs>
				<path id="SVGID_1_" d="M116.8,0C98.2,0,80.8,4.9,64.5,14C44.3,25.2,27.7,41.7,16.4,61.9C1.3,88.5-3.5,116.9,2.5,147.1
					c0.8,4.1,2,8.1,3,12.1c0.6-0.4,1-1,1.3-1.7c7.5-15.7,16.2-30.8,26-45.2c12.1-17.7,25.8-34,43.3-46.6c2-1.4,4.1-2.6,6.2-4
					c-1.5,1.4-3.1,2.8-4.8,4c-8.9,7.5-16.9,16-23.8,25.4c-16.6,22.5-28.8,47.4-38.9,73.5c-0.1,0.4-0.2,0.8-0.4,1.3
					c0.8-0.2,1.4-0.3,2-0.5c6.9-2.3,13.8-4.3,20.5-7c20.3-7.9,39-18.7,55.4-33.1c19.8-17.4,35-39.4,44.5-64
					c5.5-14,10.4-28.3,15.5-42.5c1.1-3,1.9-6.2,2.9-9.3c-1-0.5-1.9-1-2.8-1.4c-10.9-5.2-22.7-7.9-34.7-8L116.8,0"/>
			</defs>
			<clipPath id="SVGID_2_">
				<use xlink:href="#SVGID_1_"  style="overflow:visible;"/>
			</clipPath>
			<g class="st0">
				
					<radialGradient id="SVGID_3_" cx="-972.1974" cy="-971.9816" r="1" gradientTransform="matrix(64.238 -70.0298 -38.0253 -34.8804 25560.7305 -101910.0391)" gradientUnits="userSpaceOnUse">
					<stop  offset="0" style="stop-color:#FF2639"/>
					<stop  offset="0.3" style="stop-color:#EA1C2C"/>
					<stop  offset="0.92" style="stop-color:#B30309"/>
					<stop  offset="1" style="stop-color:#AB0004"/>
				</radialGradient>
				<polygon class="st1" points="-86.2,90.2 69.1,-79.1 238.1,75.9 82.8,245.2 				"/>
			</g>
		</g>
	</g>
</g>
</svg>
