<svg xmlns="http://www.w3.org/2000/svg" viewBox="0 0 181.39 81.78"><defs><style>.cls-1{fill:#050708;}</style></defs><title>Asset 4</title><g id="Layer_2" data-name="Layer 2"><g id="Layer_1-2" data-name="Layer 1"><path class="cls-1" d="M11.48,78.05C9.2,78,7.38,78,6,78V37.23c.23,0,1.48,0,3.76-.13S13.66,37,14.62,37q11.61,0,16.43,4.47T35.87,56.7a27.87,27.87,0,0,1-2.19,11.55A16.07,16.07,0,0,1,26,76.31a14.5,14.5,0,0,1-4.71,1.51,49.34,49.34,0,0,1-6.36.34l-3.48-.11m4-43.55H0V81H13.32q8.88,0,13.29-1.34A19.77,19.77,0,0,0,34,75.83a24.74,24.74,0,0,0,6.21-8.19,28.25,28.25,0,0,0,2.4-12,25.42,25.42,0,0,0-1.82-9.57,18.27,18.27,0,0,0-5.5-7.51,15.83,15.83,0,0,0-5.32-3,33.32,33.32,0,0,0-9.78-1.09Z"/><path class="cls-1" d="M67.85,42.49l7.54,17.43h-15Zm.88-9L47.42,81.23l2.39-.2,2.52.2c.87-3,1.64-5.35,2.33-7.17q.48-1.36,4.44-11.28H76.45q1.92,4.38,3,7.11,1.71,4.31,4.17,11.34l3.62-.2,3.55.27L70.3,33.47Z"/><path class="cls-1" d="M104.05,36.89h6.52a27.18,27.18,0,0,1,3.57.2q7.55,1.23,7.54,8.58A8.79,8.79,0,0,1,119.21,52a12,12,0,0,1-6.31,3.37,16.18,16.18,0,0,1-2.54.34c-.86,0-1.8.07-2.81.07h-3.5ZM98,34.5V81.3l3-.27,3,.2V58.34h2.59l5.51,6.46,8,10.49,4.34,6,3.88-.25,4,.2-1.29-1.72-3.32-3.84-14-17.8a21.36,21.36,0,0,0,9.63-4,11,11,0,0,0,4.37-9q0-5.25-3.69-7.82T112.53,34.5Z"/><path class="cls-1" d="M139.72,34.5V81h24.66l-.2-2,.2-2q-2.59.41-3.48.51a26.88,26.88,0,0,1-2.8.1l-5.23.14q-5,.13-7.14.14V57.87h10.59c.32,0,1.21.06,2.66.2s2.6.21,3.42.21l-.2-1.92.2-1.77c-.32,0-1.2,0-2.63.13s-2.59.14-3.45.14H145.73V37.71h12.09a22.17,22.17,0,0,1,2.8.17c.87.12,2,.31,3.35.58l-.2-2,.2-2Z"/><path class="cls-1" d="M174.42,74.81a3.94,3.94,0,0,0-1.23,2.87,3.89,3.89,0,0,0,1.23,2.94,4.15,4.15,0,0,0,2.94,1.16,3.78,3.78,0,0,0,2.87-1.23,4,4,0,0,0,1.16-2.87,3.94,3.94,0,0,0-1.23-2.87,3.85,3.85,0,0,0-2.8-1.23,4,4,0,0,0-2.94,1.23"/><path class="cls-1" d="M23.28,6.47a6.2,6.2,0,0,1-.68.07A3.45,3.45,0,0,1,22,6.48l-.79-.11c-.55,1.21-1.4,3-2.57,5.39-.82,1.66-1.68,3.37-2.57,5.1Q15,18.93,13.67,21.63c-.87-1.69-1.72-3.39-2.57-5.1s-1.68-3.41-2.5-5.1Q7,8.16,6.2,6.37l-.57.1a4.58,4.58,0,0,1-.8.07,3.15,3.15,0,0,1-.55-.06L3.5,6.37q-.39,2.79-1.12,8.08T1.32,21.79C1,24.24.58,26.52.19,28.65c.24,0,.46-.08.68-.11a6,6,0,0,1,.81-.05,5.58,5.58,0,0,1,.64.05l.89.11q0-2,.18-4.38c.12-1.56.28-3.24.5-5q.19-1.69.68-5.36c.83,1.69,1.66,3.37,2.5,5.06.67,1.37,1.48,3,2.41,4.91l2.21,4.64a2.77,2.77,0,0,1,.45-.06,7.59,7.59,0,0,1,.78.06q1.53-3.34,2.34-5,1.2-2.48,2.42-5l2.45-5c.28,2.51.59,5.15.91,7.9a64.06,64.06,0,0,1,.49,7.23c.15,0,.53,0,1.15-.08s1.11-.08,1.48-.08c.17,0,.58,0,1.23.08s1.14.08,1.46.08c-.41-2.47-.75-4.71-1-6.73q-.12-.9-.87-7.34c-.33-2.73-.64-5.46-.94-8.21l-.72.1"/><rect class="cls-1" x="30.23" y="12.9" width="4.48" height="15.75"/><path class="cls-1" d="M34.61.94a8.3,8.3,0,0,0-3.26,3.23,8.05,8.05,0,0,0-1,5.74c.06.28.14.55.21.82a.29.29,0,0,0,.09-.11,22.55,22.55,0,0,1,1.76-3A12.37,12.37,0,0,1,35.4,4.43l.42-.27a2,2,0,0,1-.32.27,9.78,9.78,0,0,0-1.62,1.72,20.48,20.48,0,0,0-2.64,4.95.92.92,0,0,1,0,.09l.14,0c.47-.15.94-.29,1.4-.46a12.71,12.71,0,0,0,3.76-2.24,11,11,0,0,0,3-4.31c.37-.95.71-1.91,1-2.87a5.8,5.8,0,0,0,.2-.63L40.59.55A5.67,5.67,0,0,0,38.23,0h-.07a7.22,7.22,0,0,0-3.55.94"/><path class="cls-1" d="M168.91,31.3c-.79,0-1.53,0-2.23,0,0,.1,0,.21,0,.3s0,.17,0,.26a9.37,9.37,0,0,1,1.71-.11h.26v1.56c0,1.37,0,2.85-.05,4.39l.45,0a2.77,2.77,0,0,1,.42,0c0-1.72,0-3,0-3.85s0-1.49,0-2.1h.27a9,9,0,0,1,1.66.11c0-.1,0-.19,0-.28a2.4,2.4,0,0,1,0-.28l-2.49,0"/><path class="cls-1" d="M178.4,31.15c-1,1.78-1.87,3.48-2.78,5.09-.88-1.61-1.73-3.3-2.62-5.09h-.16c-.4,3.15-.7,5.33-1,6.52a1.54,1.54,0,0,1,.37,0,1.27,1.27,0,0,1,.34,0,40.08,40.08,0,0,1,.46-4.67l1.46,2.7a10.2,10.2,0,0,1,.9,2h.13A29.23,29.23,0,0,1,177.93,33a46.18,46.18,0,0,1,.48,4.68,2.08,2.08,0,0,1,.43,0,2,2,0,0,1,.42,0c-.28-2.35-.54-4.54-.74-6.52Z"/></g></g></svg>