<svg width="182" height="82" viewBox="0 0 182 82" fill="none" xmlns="http://www.w3.org/2000/svg">
<g clip-path="url(#clip0_1_2)">
<path d="M11.48 78.05C9.2 78 7.38 78 6 78V37.23C6.23 37.23 7.48 37.23 9.76 37.1C12.04 36.97 13.66 37 14.62 37C22.36 37 27.8367 38.49 31.05 41.47C34.2633 44.45 35.87 49.5266 35.87 56.7C35.9695 60.6619 35.2229 64.5995 33.68 68.25C32.1622 71.7659 29.4386 74.6242 26 76.31C24.5281 77.0793 22.9349 77.5901 21.29 77.82C19.1795 78.0702 17.0551 78.1837 14.93 78.16L11.45 78.05M15.45 34.5H0V81H13.32C19.24 81 23.67 80.5533 26.61 79.66C29.3172 78.9222 31.8364 77.6166 34 75.83C36.6205 73.5648 38.7362 70.7746 40.21 67.64C41.8772 63.8634 42.6964 59.7673 42.61 55.64C42.626 52.3625 42.008 49.1128 40.79 46.07C39.6358 43.1337 37.741 40.5464 35.29 38.56C33.7282 37.2241 31.9213 36.2052 29.97 35.56C26.7819 34.7146 23.486 34.3473 20.19 34.47L15.45 34.5Z" fill="white"/>
<path d="M67.85 42.49L75.39 59.92H60.39L67.85 42.49ZM68.73 33.49L47.42 81.23L49.81 81.03L52.33 81.23C53.2 78.23 53.97 75.88 54.66 74.06C54.98 73.1533 56.46 69.3933 59.1 62.78H76.45C77.73 65.7 78.73 68.07 79.45 69.89C80.59 72.7633 81.98 76.5433 83.62 81.23L87.24 81.03L90.79 81.3L70.3 33.47L68.73 33.49Z" fill="white"/>
<path d="M104.05 36.89H110.57C111.763 36.8782 112.956 36.945 114.14 37.09C119.173 37.91 121.687 40.77 121.68 45.67C121.709 46.8362 121.505 47.9965 121.081 49.0833C120.657 50.1701 120.021 51.1616 119.21 52C117.498 53.7387 115.297 54.9143 112.9 55.37C112.064 55.5503 111.214 55.664 110.36 55.71C109.5 55.71 108.56 55.78 107.55 55.78H104.05V36.89ZM98 34.5V81.3L101 81.03L104 81.23V58.34H106.59L112.1 64.8L120.1 75.29L124.44 81.29L128.32 81.04L132.32 81.24L131.03 79.52L127.71 75.68L113.71 57.88C117.201 57.3627 120.51 55.9884 123.34 53.88C124.728 52.8321 125.848 51.47 126.607 49.9056C127.367 48.3411 127.745 46.6188 127.71 44.88C127.71 41.38 126.48 38.7733 124.02 37.06C121.56 35.3466 117.73 34.4933 112.53 34.5H98Z" fill="white"/>
<path d="M139.72 34.5V81H164.38L164.18 79L164.38 77C162.653 77.2734 161.493 77.4434 160.9 77.51C159.969 77.592 159.034 77.6254 158.1 77.61L152.87 77.75C149.537 77.8367 147.157 77.8834 145.73 77.89V57.87H156.32C156.64 57.87 157.53 57.93 158.98 58.07C160.43 58.21 161.58 58.28 162.4 58.28L162.2 56.36L162.4 54.59C162.08 54.59 161.2 54.59 159.77 54.72C158.34 54.85 157.18 54.86 156.32 54.86H145.73V37.71H157.82C158.756 37.7075 159.691 37.7643 160.62 37.88C161.49 38 162.62 38.19 163.97 38.46L163.77 36.46L163.97 34.46L139.72 34.5Z" fill="white"/>
<path d="M174.42 74.81C174.03 75.1793 173.72 75.6244 173.509 76.118C173.297 76.6115 173.189 77.1431 173.19 77.68C173.176 78.2291 173.278 78.775 173.49 79.2818C173.702 79.7885 174.019 80.2446 174.42 80.62C175.209 81.3793 176.265 81.7963 177.36 81.78C177.898 81.7913 178.433 81.6873 178.928 81.4752C179.423 81.2631 179.867 80.9476 180.23 80.55C180.604 80.1727 180.9 79.7245 181.099 79.2318C181.298 78.739 181.397 78.2115 181.39 77.68C181.391 77.1431 181.283 76.6115 181.071 76.118C180.86 75.6244 180.55 75.1793 180.16 74.81C179.802 74.4246 179.369 74.1166 178.887 73.9051C178.406 73.6935 177.886 73.5829 177.36 73.58C176.812 73.5726 176.268 73.678 175.762 73.8896C175.256 74.1012 174.8 74.4145 174.42 74.81" fill="white"/>
<path d="M23.2799 6.47C23.0547 6.50582 22.8277 6.52918 22.5999 6.54C22.3986 6.53755 22.1978 6.51747 21.9999 6.48L21.2099 6.37C20.6599 7.58 19.8099 9.37 18.6399 11.76C17.8199 13.42 16.9599 15.13 16.0699 16.86C15.3566 18.24 14.5566 19.83 13.6699 21.63C12.7999 19.94 11.9499 18.24 11.0999 16.53C10.2499 14.82 9.41994 13.12 8.59994 11.43C7.53328 9.25 6.73327 7.56333 6.19994 6.37L5.62994 6.47C5.36584 6.51671 5.09814 6.54013 4.82994 6.54C4.6452 6.53617 4.46116 6.51609 4.27994 6.48L3.49994 6.37C3.23994 8.23 2.86661 10.9233 2.37994 14.45C1.89327 17.9767 1.53994 20.4233 1.31994 21.79C0.999942 24.24 0.579941 26.52 0.189941 28.65C0.429941 28.65 0.649941 28.57 0.869941 28.54C1.1385 28.5051 1.40912 28.4884 1.67994 28.49C1.89406 28.4944 2.10774 28.5111 2.31994 28.54L3.20994 28.65C3.20994 27.3167 3.26994 25.8567 3.38994 24.27C3.50994 22.71 3.66994 21.03 3.88994 19.27C4.01661 18.1433 4.24327 16.3567 4.56994 13.91C5.39994 15.6 6.22994 17.28 7.06994 18.97C7.73994 20.34 8.54994 21.97 9.47994 23.88L11.6899 28.52C11.838 28.4877 11.9886 28.4676 12.1399 28.46C12.4008 28.4666 12.6611 28.4866 12.9199 28.52C13.9399 26.2933 14.7199 24.6267 15.2599 23.52C16.0599 21.8667 16.8666 20.2 17.6799 18.52L20.1299 13.52C20.4099 16.03 20.7199 18.67 21.0399 21.42C21.3396 23.8188 21.5032 26.2327 21.5299 28.65C21.6799 28.65 22.0599 28.65 22.6799 28.57C23.2999 28.49 23.7899 28.49 24.1599 28.49C24.3299 28.49 24.7399 28.49 25.3899 28.57C26.0399 28.65 26.5299 28.65 26.8499 28.65C26.4399 26.18 26.0999 23.94 25.8499 21.92C25.7699 21.32 25.4799 18.8733 24.9799 14.58C24.6499 11.85 24.3399 9.12 24.0399 6.37L23.3199 6.47" fill="white"/>
<path d="M34.71 12.9H30.23V28.65H34.71V12.9Z" fill="white"/>
<path d="M34.61 0.94C33.2414 1.68888 32.1115 2.80834 31.35 4.17C30.3116 5.89135 29.9549 7.93892 30.35 9.91C30.41 10.19 30.49 10.46 30.56 10.73C30.5987 10.7014 30.6296 10.6636 30.65 10.62C31.1586 9.57618 31.747 8.5732 32.41 7.62C33.2093 6.38757 34.2218 5.30736 35.4 4.43L35.82 4.16C35.7231 4.26095 35.6158 4.35144 35.5 4.43C34.8925 4.93576 34.3485 5.5133 33.88 6.15C32.7771 7.67109 31.8888 9.33671 31.24 11.1C31.2415 11.13 31.2415 11.16 31.24 11.19H31.38C31.85 11.04 32.32 10.9 32.78 10.73C34.1534 10.2064 35.4256 9.44846 36.54 8.49C37.8733 7.3166 38.9026 5.83779 39.54 4.18C39.91 3.23 40.25 2.27 40.54 1.31C40.6186 1.10397 40.6854 0.893631 40.74 0.68L40.59 0.55C39.8522 0.198742 39.0471 0.0111245 38.23 0L38.16 0C36.9154 0.00212391 35.6925 0.325932 34.61 0.94" fill="white"/>
<path d="M168.91 31.3C168.12 31.3 167.38 31.3 166.68 31.3C166.68 31.4 166.68 31.51 166.68 31.6C166.68 31.69 166.68 31.77 166.68 31.86C167.245 31.7712 167.818 31.7343 168.39 31.75H168.65V33.31C168.65 34.68 168.65 36.16 168.6 37.7H169.05C169.19 37.6894 169.33 37.6894 169.47 37.7C169.47 35.98 169.47 34.7 169.47 33.85C169.47 33 169.47 32.36 169.47 31.75H169.74C170.295 31.7353 170.851 31.7721 171.4 31.86C171.4 31.76 171.4 31.67 171.4 31.58C171.394 31.4867 171.394 31.3932 171.4 31.3H168.91" fill="white"/>
<path d="M178.4 31.15C177.4 32.93 176.53 34.63 175.62 36.24C174.74 34.63 173.89 32.94 173 31.15H172.84C172.44 34.3 172.14 36.48 171.84 37.67C171.963 37.6552 172.087 37.6552 172.21 37.67C172.323 37.6548 172.437 37.6548 172.55 37.67C172.612 36.1057 172.766 34.5464 173.01 33L174.47 35.7C174.841 36.3324 175.143 37.003 175.37 37.7H175.5C176.166 36.0631 176.98 34.49 177.93 33C178.169 34.5509 178.33 36.1129 178.41 37.68C178.553 37.6652 178.697 37.6652 178.84 37.68C178.98 37.6653 179.12 37.6653 179.26 37.68C178.98 35.33 178.72 33.14 178.52 31.16L178.4 31.15Z" fill="white"/>
</g>
<defs>
<clipPath id="clip0_1_2">
<rect width="181.39" height="81.78" fill="white"/>
</clipPath>
</defs>
</svg>
