<svg xmlns="http://www.w3.org/2000/svg" viewBox="0 0 15.96 14.86"><defs><style>.cls-1{fill:#fff;}</style></defs><title>mileaf</title><g id="Layer_2" data-name="Layer 2"><g id="Layer_1-2" data-name="Layer 1"><path class="cls-1" d="M1.94,14.86a.7.7,0,0,0,0-.12A24,24,0,0,1,5.6,8.22,13.84,13.84,0,0,1,8,5.89a4.37,4.37,0,0,0,.48-.37c-.21.13-.43.24-.63.38a16.81,16.81,0,0,0-4.32,4.25,28.6,28.6,0,0,0-2.46,4,.35.35,0,0,1-.13.16c-.14-.34-.3-.68-.42-1a8.38,8.38,0,0,1,.84-7.38,11.87,11.87,0,0,1,4.82-4.4A13.77,13.77,0,0,1,11.82,0a11.46,11.46,0,0,1,3.83.48L16,.6c-.08.27-.15.54-.24.81-.44,1.25-.86,2.5-1.35,3.73a13.85,13.85,0,0,1-4.31,5.76,20.71,20.71,0,0,1-5.73,3.18c-.71.27-1.45.48-2.17.73l-.22,0"/></g></g></svg>