<svg width="892" height="582" viewBox="0 0 892 582" fill="none" xmlns="http://www.w3.org/2000/svg">
<g clip-path="url(#clip0_9_2306)">
<path d="M838.69 0H52.5C23.5051 0 0 23.5051 0 52.5V529.48C0 558.475 23.5051 581.98 52.5 581.98H838.69C867.685 581.98 891.19 558.475 891.19 529.48V52.5C891.19 23.5051 867.685 0 838.69 0Z" fill="#F3F3F3"/>
<g clip-path="url(#clip1_9_2306)">
<path d="M410.27 291.4V240.35L454.48 265.88L498.69 291.4L454.48 316.93L410.27 342.45V291.4Z" fill="url(#paint0_linear_9_2306)"/>
<path d="M445.4 379.81C427.914 379.81 410.821 374.625 396.282 364.91C381.743 355.196 370.411 341.388 363.72 325.233C357.028 309.078 355.277 291.302 358.689 274.152C362.1 257.002 370.52 241.249 382.885 228.885C395.249 216.52 411.002 208.1 428.152 204.689C445.302 201.277 463.078 203.028 479.233 209.72C495.388 216.411 509.196 227.743 518.91 242.282C528.625 256.821 533.81 273.914 533.81 291.4C533.784 314.84 524.46 337.312 507.886 353.886C491.312 370.46 468.84 379.784 445.4 379.81ZM445.4 206.42C428.589 206.42 412.155 211.405 398.177 220.745C384.198 230.085 373.304 243.36 366.87 258.892C360.437 274.424 358.754 291.514 362.033 308.003C365.313 324.491 373.408 339.637 385.296 351.524C397.183 363.412 412.329 371.507 428.817 374.787C445.306 378.067 462.396 376.383 477.928 369.95C493.46 363.516 506.735 352.622 516.075 338.643C525.415 324.665 530.4 308.231 530.4 291.42C530.381 268.882 521.42 247.273 505.484 231.336C489.547 215.4 467.938 206.439 445.4 206.42V206.42Z" fill="url(#paint1_linear_9_2306)"/>
</g>
</g>
<defs>
<linearGradient id="paint0_linear_9_2306" x1="410.27" y1="291.4" x2="498.69" y2="291.4" gradientUnits="userSpaceOnUse">
<stop stop-color="#EE3541"/>
<stop offset="0.36" stop-color="#D92E38"/>
<stop offset="1" stop-color="#AA1E23"/>
</linearGradient>
<linearGradient id="paint1_linear_9_2306" x1="357" y1="291.4" x2="533.81" y2="291.4" gradientUnits="userSpaceOnUse">
<stop stop-color="#EE3541"/>
<stop offset="0.36" stop-color="#D92E38"/>
<stop offset="1" stop-color="#AA1E23"/>
</linearGradient>
<clipPath id="clip0_9_2306">
<rect width="891.19" height="581.98" fill="white"/>
</clipPath>
<clipPath id="clip1_9_2306">
<rect width="176.81" height="176.81" fill="white" transform="translate(357 203)"/>
</clipPath>
</defs>
</svg>
