<svg width="200" height="247" viewBox="0 0 200 247" fill="none" xmlns="http://www.w3.org/2000/svg">
<g clip-path="url(#clip0_14_2405)">
<path d="M155.745 246.896L100.004 216.945L44.2551 246.896V171.613H155.745V246.896Z" fill="#333333"/>
<path d="M200 100.004C200 112.545 183.52 121.781 178.99 132.714C174.291 144.052 179.256 162.17 170.713 170.713C162.17 179.256 144.052 174.291 132.714 178.99C121.781 183.52 112.574 200 100.004 200C87.4331 200 78.197 183.52 67.2863 178.99C55.9551 174.291 37.8297 179.256 29.287 170.713C20.7443 162.17 25.7165 144.052 21.0173 132.714C16.4804 121.781 0 112.574 0 100.004C0 87.4331 16.4804 78.197 21.0173 67.2863C25.7165 55.9551 20.7443 37.8297 29.287 29.287C37.8297 20.7443 55.9551 25.7165 67.2863 21.0173C78.197 16.4804 87.4258 0 100.004 0C112.582 0 121.781 16.4804 132.714 21.0173C144.052 25.7165 162.17 20.7517 170.713 29.287C179.256 37.8223 174.291 55.9551 178.99 67.2863C183.52 78.2192 200 87.4258 200 100.004Z" fill="black"/>
<path d="M75.9839 31.0649C75.5687 30.7108 75.0524 30.4966 74.5085 30.4526C73.9122 30.4004 73.3122 30.4941 72.7601 30.7256C72.2759 30.8971 71.8338 31.1702 71.4636 31.5264C71.0934 31.8826 70.8035 32.3138 70.6134 32.7911C70.2522 33.8331 70.305 34.9739 70.761 35.978C70.9395 36.5193 71.2229 37.02 71.5951 37.4516C71.9672 37.8833 72.4208 38.2374 72.9298 38.4936C73.4366 38.7077 73.9824 38.8137 74.5324 38.8048C75.0824 38.7959 75.6245 38.6723 76.1241 38.442C76.8674 38.1764 77.5026 37.6735 77.9315 37.0108C78.3391 36.3349 78.5225 35.5473 78.4553 34.7608L74.2724 36.4133L73.3134 33.9862L80.4766 31.1461L81.6938 34.2149C81.7696 35.1554 81.6542 36.1015 81.3544 36.9961C81.0328 37.9622 80.5069 38.8479 79.8126 39.5928C79.0347 40.4142 78.0815 41.0497 77.0241 41.4518C75.7867 41.9663 74.4366 42.1494 73.1069 41.983C71.8542 41.823 70.6725 41.3115 69.6987 40.5076C68.6672 39.6548 67.8784 38.5455 67.4118 37.2912C66.8951 36.0544 66.7095 34.7043 66.8732 33.3739C67.0332 32.1213 67.5448 30.9396 68.3487 29.9657C69.2049 28.938 70.3131 28.15 71.5651 27.6788C72.9993 27.0513 74.596 26.8963 76.1241 27.2362C77.5642 27.5611 78.8303 28.4139 79.6725 29.6264L75.9839 31.0649Z" fill="white"/>
<path d="M88.4586 37.1584C87.2624 36.6723 86.2199 35.8719 85.4413 34.842C84.6436 33.7607 84.1383 32.4919 83.9742 31.1583C83.8101 29.8247 83.9927 28.4712 84.5045 27.2288C85.0184 26.0506 85.8386 25.0317 86.8799 24.278C87.9491 23.5177 89.1909 23.0359 90.4932 22.8762C91.7954 22.7165 93.1168 22.8839 94.3381 23.3632C95.5296 23.8432 96.5658 24.6421 97.3332 25.6723C98.1207 26.7585 98.6186 28.0275 98.7799 29.3594C98.9412 30.6914 98.7607 32.0425 98.2553 33.2854C97.7579 34.465 96.9465 35.4856 95.9094 36.2362C94.8484 37.0076 93.6055 37.4905 92.302 37.6379C91.0003 37.8074 89.6769 37.6397 88.4586 37.151M94.5373 32.9387C95.1517 32.0033 95.3889 30.8698 95.2012 29.7665C95.1235 28.6381 94.6167 27.5822 93.7848 26.8157C93.3895 26.4783 92.9251 26.2316 92.4243 26.0926C91.9234 25.9537 91.3983 25.9261 90.8856 26.0116C90.3636 26.0506 89.8563 26.2028 89.3989 26.4576C88.9416 26.7124 88.5452 27.0636 88.2373 27.487C87.6091 28.4222 87.3709 29.5657 87.5733 30.6739C87.6491 31.8013 88.1532 32.857 88.9823 33.6247C89.3872 33.9633 89.8607 34.2099 90.3702 34.3474C90.8797 34.485 91.413 34.5102 91.9332 34.4215C92.452 34.3818 92.9559 34.2291 93.4095 33.9743C93.8631 33.7194 94.2556 33.3685 94.5594 32.9461" fill="white"/>
<path d="M104.828 36.2952C103.793 35.5263 102.984 34.4913 102.49 33.3001C101.978 32.0517 101.809 30.6888 102.003 29.3534C102.15 28.0125 102.66 26.7372 103.478 25.6648C104.267 24.6461 105.317 23.8608 106.518 23.3927C107.745 22.9274 109.068 22.7749 110.369 22.9487C111.67 23.1226 112.907 23.6174 113.969 24.3886C114.997 25.1427 115.8 26.1629 116.292 27.3394C116.777 28.5912 116.936 29.9453 116.755 31.2753C116.575 32.6053 116.06 33.8679 115.26 34.9452C114.48 35.9652 113.437 36.7534 112.242 37.2247C111.026 37.6928 109.712 37.8529 108.419 37.6908C107.125 37.5286 105.892 37.0492 104.828 36.2952ZM111.77 33.7575C112.614 33.0116 113.141 31.9722 113.246 30.8509C113.448 29.7475 113.224 28.6085 112.619 27.664C111.974 26.8397 111.032 26.3007 109.995 26.1628C108.958 26.0249 107.908 26.299 107.071 26.9263C106.226 27.674 105.698 28.7164 105.596 29.8402C105.395 30.9446 105.622 32.0837 106.23 33.0271C106.868 33.8575 107.81 34.4013 108.848 34.5396C109.886 34.6778 110.937 34.3993 111.77 33.7648" fill="white"/>
<path d="M131.57 30.1206C132.387 31.0735 132.912 32.2413 133.082 33.4846C133.221 34.8009 133.035 36.131 132.541 37.3589C132.047 38.5869 131.261 39.6754 130.25 40.5297C129.263 41.3148 128.068 41.7943 126.812 41.9092C125.427 42.0335 124.032 41.8104 122.755 41.26L117.701 39.2313L123.123 25.7386L128.177 27.7747C129.485 28.2631 130.651 29.0693 131.57 30.1206M126.996 38.4789C127.515 38.2427 127.979 37.9019 128.36 37.4779C128.741 37.0539 129.03 36.5559 129.21 36.0149C129.456 35.4994 129.594 34.9389 129.615 34.368C129.637 33.7972 129.541 33.2279 129.335 32.6952C129.092 32.1785 128.747 31.7161 128.321 31.3359C127.895 30.9556 127.397 30.6652 126.856 30.4821L125.3 29.8624L122.142 37.6969L123.699 38.3239C124.213 38.5693 124.771 38.7088 125.34 38.7341C125.909 38.7595 126.477 38.6702 127.011 38.4715" fill="white"/>
<path d="M57.8289 157.434C57.0397 157.714 56.186 157.758 55.3724 157.56C54.3717 157.296 53.4517 156.79 52.6945 156.084L51.0273 154.653L47.6264 158.607L44.9412 156.306L54.406 145.24L58.7584 148.98C59.5488 149.616 60.1802 150.426 60.6027 151.348C60.9417 152.11 61.042 152.956 60.8904 153.775C60.714 154.597 60.3277 155.36 59.7691 155.988C59.2517 156.606 58.5833 157.078 57.8289 157.361M55.7781 154.336C56.0238 154.314 56.2622 154.241 56.4781 154.121C56.694 154.002 56.8827 153.839 57.0322 153.642C57.2042 153.464 57.3376 153.252 57.4239 153.02C57.5102 152.788 57.5477 152.54 57.5338 152.292C57.4393 151.752 57.1375 151.271 56.6929 150.95L55.2174 149.696L52.842 152.462L54.3174 153.716C54.5098 153.912 54.7393 154.068 54.9927 154.175C55.246 154.281 55.5181 154.336 55.7928 154.336" fill="white"/>
<path d="M63.974 169.909V163.638L63.2363 163.233L60.6027 168.043L57.4969 166.346L64.483 153.591L69.6986 156.453C70.5979 156.912 71.3782 157.574 71.9782 158.386C72.4722 159.06 72.7501 159.867 72.7749 160.702C72.7854 161.518 72.5819 162.321 72.1847 163.033C71.7499 163.853 71.0616 164.511 70.2224 164.907C69.3161 165.321 68.2958 165.412 67.3306 165.165L67.5003 171.805L63.974 169.909ZM64.424 161.056L66.3494 162.111C66.7851 162.396 67.3144 162.499 67.8249 162.399C68.0593 162.321 68.2756 162.197 68.4607 162.033C68.6459 161.87 68.7959 161.671 68.9019 161.447C69.0286 161.245 69.1117 161.019 69.146 160.782C69.1803 160.546 69.165 160.305 69.1011 160.075C69.0084 159.828 68.8675 159.601 68.6864 159.409C68.5052 159.216 68.2876 159.062 68.0462 158.954L66.1576 157.87L64.424 161.056Z" fill="white"/>
<path d="M81.8856 173.915L76.6626 172.439L75.1282 174.652L71.5577 173.664L80.5725 161.123L84.5192 162.237L85.6331 177.662L82.0258 176.644L81.8856 173.915ZM81.7528 171.038L81.4651 165.424L78.3003 170.056L81.7528 171.038Z" fill="white"/>
<path d="M91.3504 167.216C91.9893 166.132 92.9231 165.252 94.043 164.679C95.2184 164.078 96.5314 163.798 97.8496 163.867C99.4367 163.876 100.977 164.407 102.232 165.379C103.433 166.339 104.26 167.688 104.57 169.193L100.675 169.061C100.434 168.476 100.023 167.977 99.4947 167.629C98.957 167.291 98.3373 167.105 97.702 167.091C97.2037 167.056 96.7039 167.132 96.2384 167.313C95.7729 167.494 95.3532 167.776 95.0094 168.138C94.319 168.993 93.9255 170.049 93.8883 171.147C93.851 172.245 94.172 173.325 94.8028 174.225C95.1201 174.61 95.5188 174.92 95.9703 175.134C96.4219 175.347 96.915 175.457 97.4143 175.456C98.0479 175.487 98.6778 175.344 99.2365 175.043C99.7904 174.733 100.238 174.262 100.52 173.693L104.408 173.834C104 175.311 103.083 176.596 101.818 177.463C100.497 178.342 98.9244 178.764 97.3405 178.666C96.0185 178.641 94.7261 178.27 93.593 177.588C92.5206 176.94 91.6536 176.001 91.0922 174.881C90.5191 173.676 90.2435 172.351 90.2884 171.017C90.3333 169.684 90.6975 168.38 91.3504 167.216" fill="white"/>
<path d="M117.259 161.971L117.775 164.767L113.983 165.468L116.108 176.976L112.626 177.618L110.501 166.11L106.717 166.811L106.2 164.015L117.259 161.971Z" fill="white"/>
<path d="M122.661 159.974L119.315 161.133L124.076 174.872L127.422 173.713L122.661 159.974Z" fill="white"/>
<path d="M127.387 162.008C127.371 160.751 127.711 159.516 128.369 158.445C129.064 157.321 130.044 156.4 131.209 155.774C132.573 154.962 134.168 154.622 135.746 154.808C137.269 155.003 138.674 155.729 139.715 156.859L136.314 158.755C135.805 158.381 135.196 158.171 134.565 158.15C133.942 158.136 133.327 158.295 132.787 158.607C132.344 158.835 131.956 159.158 131.653 159.553C131.349 159.949 131.137 160.407 131.032 160.894C130.883 161.98 131.09 163.086 131.622 164.045C132.154 165.003 132.982 165.764 133.983 166.213C134.764 166.451 135.602 166.423 136.366 166.133C137.129 165.843 137.775 165.308 138.202 164.612C138.515 164.061 138.654 163.429 138.601 162.797L142.001 160.901C142.411 162.371 142.291 163.938 141.662 165.328C140.988 166.764 139.861 167.938 138.453 168.67C137.314 169.338 136.019 169.692 134.698 169.695C133.443 169.693 132.214 169.341 131.15 168.677C130.023 167.958 129.098 166.962 128.464 165.785C127.789 164.629 127.426 163.317 127.41 161.979" fill="white"/>
<path d="M143.551 150.795L145.491 153.008L149.054 149.873L150.854 151.931L147.291 155.059L149.401 157.456L153.428 153.915L155.302 156.047L148.611 161.927L139.014 151.001L145.705 145.122L147.578 147.254L143.551 150.795Z" fill="white"/>
<path d="M38.5969 132.633L40.0207 137.022H44.6313L40.8985 139.729L42.3297 144.119L38.5969 141.404L34.8641 144.119L36.2879 139.729L32.5624 137.022H37.1731L38.5969 132.633Z" fill="white"/>
<path d="M161.403 132.633L162.834 137.022H167.445L163.712 139.729L165.136 144.119L161.403 141.404L157.678 144.119L159.101 139.729L155.369 137.022H159.979L161.403 132.633Z" fill="white"/>
<path d="M73.52 111.32C73.7538 110.898 74.1015 110.551 74.5233 110.317C74.995 110.062 75.5261 109.938 76.0617 109.958C76.5973 109.977 77.118 110.139 77.57 110.428C78.0325 110.744 78.3755 111.206 78.5438 111.741H77.2749C77.1568 111.496 76.9696 111.29 76.7364 111.15C76.4934 111.014 76.2183 110.945 75.9397 110.951C75.6386 110.946 75.342 111.025 75.0839 111.18C74.8325 111.331 74.6301 111.551 74.5011 111.814C74.3602 112.116 74.2871 112.444 74.2871 112.777C74.2871 113.11 74.3602 113.438 74.5011 113.74C74.6267 114.007 74.8298 114.231 75.0839 114.382C75.3439 114.531 75.6397 114.608 75.9397 114.603C76.2183 114.609 76.4934 114.54 76.7364 114.404C76.9716 114.263 77.1591 114.055 77.2749 113.806H78.5438C78.3794 114.343 78.0389 114.808 77.5774 115.127C77.1243 115.415 76.6023 115.578 76.0654 115.597C75.5285 115.617 74.9961 115.493 74.5233 115.237C74.1029 115.002 73.7557 114.654 73.52 114.234C73.2779 113.787 73.1511 113.286 73.1511 112.777C73.1511 112.268 73.2779 111.768 73.52 111.32" fill="white"/>
<path d="M82.4979 110.922V112.301H84.3643V113.187H82.4979V114.647H84.6003V115.547H81.3913V110.014H84.6003V110.922H82.4979Z" fill="white"/>
<path d="M90.3471 115.547L89.1298 113.393H88.6061V115.547H87.4995V110.029H89.5725C89.9485 110.019 90.322 110.094 90.6643 110.25C90.9475 110.381 91.1842 110.594 91.343 110.863C91.495 111.122 91.574 111.418 91.5717 111.719C91.5718 112.073 91.4609 112.419 91.2544 112.707C91.0182 113.011 90.6849 113.224 90.3102 113.312L91.6307 115.525L90.3471 115.547ZM88.6061 112.596H89.5356C89.6566 112.606 89.7784 112.592 89.8937 112.554C90.009 112.516 90.1155 112.455 90.2069 112.375C90.2835 112.295 90.3427 112.2 90.3808 112.096C90.4189 111.992 90.435 111.881 90.4282 111.77C90.4343 111.662 90.4178 111.553 90.3797 111.452C90.3416 111.35 90.2827 111.258 90.2069 111.18C90.0184 111.027 89.7777 110.953 89.5356 110.973H88.6061V112.596Z" fill="white"/>
<path d="M98.2332 110.029V110.922H96.7578V115.547H95.6512V110.922H94.1758V110.029H98.2332Z" fill="white"/>
<path d="M102.04 110.029H100.933V115.555H102.04V110.029Z" fill="white"/>
<path d="M108.443 110.029V110.922H106.141V112.338H107.905V113.216H106.141V115.547H105.035V110.029H108.443Z" fill="white"/>
<path d="M112.235 110.029H111.128V115.555H112.235V110.029Z" fill="white"/>
<path d="M116.329 110.922V112.301H118.188V113.187H116.329V114.647H118.432V115.547H115.223V110.014H118.432V110.922H116.329Z" fill="white"/>
<path d="M124.791 110.368C125.221 110.581 125.578 110.918 125.816 111.335C126.063 111.787 126.188 112.295 126.178 112.81C126.191 113.325 126.066 113.835 125.816 114.286C125.574 114.697 125.218 115.031 124.791 115.245C124.317 115.481 123.793 115.597 123.264 115.584H121.331V110.066H123.264C123.793 110.053 124.317 110.169 124.791 110.405M124.569 114.168C124.734 113.989 124.861 113.778 124.942 113.548C125.023 113.319 125.057 113.075 125.041 112.832C125.057 112.587 125.023 112.342 124.942 112.11C124.861 111.878 124.734 111.665 124.569 111.482C124.391 111.314 124.18 111.183 123.949 111.099C123.718 111.016 123.472 110.98 123.227 110.995H122.46V114.684H123.197C123.442 114.698 123.687 114.663 123.917 114.581C124.148 114.499 124.36 114.371 124.54 114.205" fill="white"/>
<path d="M78.0864 79.1635C77.6731 78.3937 77.0349 77.7683 76.2569 77.3709C75.3906 76.9353 74.4303 76.72 73.4609 76.7438C72.635 76.7125 71.812 76.8597 71.0482 77.1755C70.2843 77.4912 69.5975 77.968 69.0347 78.5733C67.8659 79.9208 67.2632 81.668 67.3527 83.4496C67.2348 85.3043 67.8584 87.13 69.0863 88.525C69.7216 89.1494 70.48 89.6346 71.3133 89.9496C72.1465 90.2646 73.0362 90.4025 73.9257 90.3545C75.202 90.3985 76.4571 90.0199 77.4962 89.2775C78.5135 88.5025 79.2597 87.4258 79.6282 86.2012H72.3544V81.9742H84.8364V87.3004C84.3745 88.8201 83.5988 90.2258 82.5593 91.4267C81.5198 92.6276 80.2397 93.5968 78.802 94.2717C77.1471 95.0532 75.335 95.4444 73.5052 95.4152C71.3372 95.4543 69.1964 94.928 67.2937 93.8881C65.5021 92.9054 64.0261 91.4345 63.0371 89.6463C62.0341 87.7308 61.5101 85.6008 61.5101 83.4385C61.5101 81.2763 62.0341 79.1462 63.0371 77.2307C64.0212 75.4425 65.4886 73.9675 67.2716 72.9741C69.1738 71.9406 71.3112 71.417 73.4757 71.4544C76.0045 71.3701 78.4955 72.0852 80.5946 73.4979C82.5229 74.854 83.8876 76.8695 84.4307 79.1635H78.0864Z" fill="white"/>
<path d="M115.319 71.72V95.2455H109.587V81.1405L104.327 95.2455H99.7012L94.4045 81.1036V95.2455H88.6725V71.72H95.4447L102.047 88.0086L108.583 71.72H115.319Z" fill="white"/>
<path d="M137.103 83.029C136.43 84.2019 135.427 85.1511 134.219 85.7585C132.72 86.4969 131.063 86.8541 129.394 86.7987H125.838V95.2454H120.106V71.7199H129.394C131.034 71.6703 132.663 72.0037 134.152 72.6937C135.384 73.2679 136.412 74.2015 137.103 75.3716C137.767 76.5715 138.103 77.9251 138.077 79.2962C138.089 80.6001 137.766 81.8854 137.14 83.029M131.437 81.4724C131.956 80.8647 132.242 80.0917 132.242 79.2925C132.242 78.4933 131.956 77.7203 131.437 77.1126C130.748 76.5626 129.874 76.2985 128.996 76.3749H125.875V82.2765H128.996C129.874 82.3567 130.75 82.0922 131.437 81.5388" fill="white"/>
<path d="M88.6651 130.043L98.3586 140.393L111.342 123.293L97.7832 132.234L88.6651 130.043Z" fill="white"/>
<path d="M100.004 156.121C86.131 156.114 72.7556 150.954 62.4721 141.642C52.1886 132.331 45.7301 119.532 44.3493 105.728C42.9686 91.9246 46.7642 78.1 54.9997 66.9364C63.2352 55.7727 75.3236 48.0659 88.92 45.3108C102.516 42.5557 116.651 44.9488 128.583 52.0259C140.515 59.103 149.393 70.3595 153.494 83.6119C157.596 96.8643 156.63 111.168 150.782 123.748C144.934 136.328 134.623 146.288 121.847 151.695C114.938 154.626 107.509 156.132 100.004 156.121M100.004 47.1174C89.5435 47.1159 79.3177 50.2164 70.6197 56.0267C61.9216 61.8371 55.1419 70.0963 51.1379 79.7598C47.1339 89.4234 46.0855 100.057 48.1253 110.317C50.1651 120.576 55.2015 130 62.5975 137.397C69.9935 144.794 79.4169 149.832 89.676 151.873C99.9351 153.914 110.569 152.868 120.233 148.865C129.897 144.862 138.158 138.084 143.969 129.386C149.781 120.689 152.883 110.464 152.883 100.004C152.867 85.9834 147.291 72.5418 137.378 62.6273C127.465 52.7128 114.024 47.135 100.004 47.1174Z" fill="white"/>
</g>
<defs>
<clipPath id="clip0_14_2405">
<rect width="200" height="246.896" fill="white"/>
</clipPath>
</defs>
</svg>
