<svg width="150" height="150" viewBox="0 0 150 150" fill="none" xmlns="http://www.w3.org/2000/svg">
<g clip-path="url(#clip0_14_2381)">
<path d="M70.52 3.05174C73.4195 4.07257 76.5806 4.07257 79.4801 3.05174L85.7119 0.468614C87.0486 -0.00669034 88.489 -0.111925 89.8806 0.16404C91.2722 0.440004 92.5633 1.08691 93.6175 2.03634L98.3988 6.81206C100.685 8.86422 103.605 10.0729 106.673 10.2376H113.423C114.838 10.3101 116.206 10.763 117.385 11.5485C118.563 12.3341 119.507 13.4232 120.118 14.7009L122.74 20.9551C124.058 23.7247 126.282 25.9609 129.045 27.293L135.277 29.8761C136.555 30.4865 137.644 31.4308 138.43 32.6092C139.216 33.7877 139.668 35.1565 139.74 36.571V43.3218C139.908 46.3901 141.118 49.3092 143.171 51.5956L147.941 56.3713C148.894 57.4246 149.544 58.7162 149.822 60.1091C150.1 61.502 149.996 62.9441 149.52 64.2825L146.937 70.5199C145.916 73.4194 145.916 76.5805 146.937 79.48L149.52 85.7174C149.995 87.0546 150.1 88.4953 149.823 89.8871C149.546 91.2788 148.898 92.5697 147.947 93.623L143.177 98.3932C141.124 100.682 139.913 103.603 139.746 106.673V113.423C139.674 114.838 139.221 116.207 138.435 117.385C137.65 118.564 136.56 119.508 135.282 120.118L129.05 122.701C126.285 124.034 124.058 126.272 122.74 129.045L120.152 135.277C119.541 136.555 118.597 137.644 117.419 138.43C116.24 139.215 114.871 139.668 113.457 139.74H106.673C103.604 139.907 100.685 141.117 98.3988 143.171L93.6175 147.941C92.5651 148.894 91.2744 149.543 89.8825 149.821C88.4906 150.099 87.0495 149.995 85.7119 149.52L79.4801 146.937C76.5806 145.916 73.4195 145.916 70.52 146.937L64.2826 149.52C62.9454 149.995 61.5047 150.1 60.1129 149.823C58.7212 149.546 57.4303 148.898 56.377 147.947L51.6012 143.177C49.3148 141.124 46.3957 139.913 43.3274 139.746H36.5767C35.1622 139.674 33.7933 139.221 32.6149 138.435C31.4364 137.65 30.4921 136.56 29.8818 135.282L27.293 129.045C25.9645 126.272 23.7284 124.035 20.9552 122.707L14.7177 120.124C13.44 119.513 12.3509 118.569 11.5653 117.39C10.7798 116.212 10.3269 114.843 10.2544 113.429V106.673C10.0888 103.603 8.88027 100.682 6.82887 98.3932L2.05315 93.623C1.1014 92.5702 0.451756 91.2799 0.172856 89.8883C-0.106045 88.4968 -0.00383681 87.0557 0.468678 85.7174L3.05181 79.48C4.07263 76.5805 4.07263 73.4194 3.05181 70.5199L0.468678 64.2825C-0.00602124 62.9457 -0.11094 61.5055 0.165001 60.114C0.440942 58.7225 1.0875 57.4314 2.03641 56.3769L6.81213 51.6012C8.86352 49.3142 10.0721 46.3951 10.2377 43.3274V36.5766C10.3101 35.1623 10.763 33.7937 11.5486 32.6153C12.3342 31.437 13.4233 30.4925 14.701 29.8817L20.9384 27.2986C23.7188 25.9717 25.9613 23.7332 27.293 20.9551L29.8762 14.7177C30.487 13.44 31.4314 12.3508 32.6098 11.5653C33.7882 10.7797 35.1568 10.3268 36.5711 10.2544H43.3218C46.3896 10.0888 49.3087 8.88019 51.5957 6.8288L56.3714 2.05308C57.4247 1.10033 58.7161 0.450087 60.1087 0.171164C61.5014 -0.10776 62.9435 -0.00498377 64.2826 0.468614L70.52 3.05174Z" fill="#A90004"/>
<path d="M75.0001 136.817C62.7739 136.817 50.8223 133.191 40.6566 126.399C30.4909 119.606 22.5678 109.952 17.889 98.6561C13.2103 87.3606 11.9861 74.9314 14.3713 62.9401C16.7565 50.9489 22.6439 39.9342 31.2892 31.289C39.9344 22.6438 50.949 16.7564 62.9403 14.3712C74.9315 11.986 87.3607 13.2101 98.6562 17.8889C109.952 22.5676 119.606 30.4908 126.399 40.6565C133.191 50.8222 136.817 62.7738 136.817 74.9999C136.799 91.3893 130.28 107.102 118.691 118.691C107.102 130.28 91.3894 136.799 75.0001 136.817M75.0001 13.7692C62.8898 13.7692 51.0514 17.3603 40.9821 24.0884C30.9127 30.8165 23.0646 40.3795 18.4302 51.5679C13.7958 62.7564 12.5832 75.0679 14.9458 86.9455C17.3084 98.8231 23.1401 109.733 31.7034 118.297C40.2667 126.86 51.1769 132.692 63.0545 135.054C74.9321 137.417 87.2436 136.204 98.4321 131.57C109.621 126.935 119.183 119.087 125.912 109.018C132.64 98.9486 136.231 87.1102 136.231 74.9999C136.213 58.766 129.756 43.202 118.277 31.7228C106.798 20.2437 91.234 13.7869 75.0001 13.7692" fill="white"/>
<path d="M28.8441 62.2684C28.8441 59.4789 28.8441 58.9656 28.805 58.363C28.7659 57.7605 28.6209 57.4425 28.0128 57.3142C27.7772 57.2716 27.538 57.2529 27.2986 57.2584C27.0978 57.2584 26.9862 57.2193 26.9862 57.091C26.9862 56.9627 27.1145 56.9292 27.3935 56.9292C28.3642 56.9292 29.5191 56.985 30.038 56.985C30.7856 56.985 31.8512 56.9292 32.6992 56.9292C34.9922 56.9292 35.8179 57.6991 36.1136 57.9725C36.6897 58.5564 37.0193 59.3394 37.0342 60.1595C37.0532 60.7555 36.9489 61.3491 36.7278 61.9029C36.5067 62.4567 36.1736 62.9589 35.7493 63.378C35.325 63.797 34.8187 64.1239 34.2622 64.3381C33.7056 64.5523 33.1109 64.6492 32.5151 64.6228C32.387 64.6339 32.2582 64.6339 32.1301 64.6228C32.0353 64.6228 31.907 64.5893 31.907 64.461C31.907 64.3327 32.0353 64.2602 32.4258 64.2602C33.4524 64.2602 34.8862 63.0997 34.8862 61.2251C34.9117 60.7131 34.8251 60.2016 34.6324 59.7265C34.4396 59.2514 34.1455 58.8242 33.7704 58.4746C33.2703 58.0134 32.6153 57.7565 31.9349 57.7549C31.6943 57.7468 31.4539 57.7731 31.2208 57.833C31.1259 57.8665 31.0701 57.9781 31.0701 58.1789V65.5266C31.0701 67.2003 31.0701 68.6676 31.165 69.432C31.2208 69.9453 31.3323 70.3525 31.8791 70.4251C32.1899 70.4665 32.5028 70.4907 32.8164 70.4976C33.0172 70.4976 33.1121 70.5534 33.1121 70.6427C33.1121 70.7319 32.9614 70.8268 32.7606 70.8268C31.5499 70.8268 30.3895 70.7766 29.9152 70.7766C29.441 70.7766 28.3364 70.8268 27.5999 70.8268C27.3656 70.8268 27.2317 70.7766 27.2317 70.6427C27.2317 70.5088 27.3098 70.4976 27.5274 70.4976C27.7506 70.496 27.973 70.4717 28.1913 70.4251C28.5595 70.3525 28.6488 69.9453 28.7492 69.4153C28.8441 68.6453 28.8441 67.1836 28.8441 65.5099V62.2684Z" fill="white"/>
<path d="M40.867 62.2684C40.867 59.4789 40.867 58.9656 40.8279 58.3631C40.7889 57.7605 40.6438 57.4425 40.0413 57.3142C39.8039 57.2716 39.5628 57.2529 39.3216 57.2584C39.1207 57.2584 39.0092 57.2193 39.0092 57.091C39.0092 56.9627 39.1375 56.9292 39.4164 56.9292C40.3872 56.9292 41.5477 56.985 41.9326 56.985C42.5575 56.985 43.9523 56.9292 44.5213 56.9292C45.7016 56.8473 46.8793 57.1214 47.9023 57.7159C48.2907 58.015 48.605 58.3996 48.8208 58.8398C49.0365 59.2801 49.1479 59.7641 49.1464 60.2544C49.1464 61.6157 48.5885 62.8654 46.7251 64.3718C48.3597 66.4249 49.6262 68.0595 50.7086 69.1977C51.2353 69.8332 51.9603 70.2734 52.7672 70.4474C52.9362 70.4824 53.108 70.5011 53.2805 70.5032C53.4256 70.5032 53.4981 70.559 53.4981 70.6483C53.4981 70.7375 53.3698 70.8324 53.1522 70.8324H51.4059C50.7321 70.8965 50.0535 70.7769 49.4421 70.4865C48.6554 70.0624 47.9525 69.1977 46.9259 67.7862C46.1951 66.7764 45.347 65.5545 45.1071 65.2533C45.0674 65.2058 45.0166 65.1687 44.9592 65.1454C44.9018 65.122 44.8396 65.1131 44.778 65.1194L43.1823 65.0859C43.0875 65.0859 43.0317 65.1194 43.0317 65.2309V65.4876C43.0317 67.2004 43.0317 68.6509 43.1265 69.393C43.1823 69.9509 43.2883 70.3302 43.8407 70.4028C44.114 70.4363 44.5213 70.4753 44.7389 70.4753C44.9565 70.4753 44.9621 70.5311 44.9621 70.6204C44.9621 70.7096 44.8337 70.8045 44.5938 70.8045C43.5282 70.8045 42.1669 70.7543 41.8936 70.7543C41.6202 70.7543 40.3872 70.8045 39.6619 70.8045C39.422 70.8045 39.2937 70.7543 39.2937 70.6204C39.2937 70.4865 39.3662 70.4753 39.5894 70.4753C39.8107 70.4738 40.0313 70.4495 40.2477 70.4028C40.6159 70.3302 40.7052 69.923 40.8056 69.393C40.9005 68.623 40.9005 67.1613 40.9005 65.4876L40.867 62.2684ZM43.0317 63.719C43.0317 63.9254 43.0708 63.998 43.1991 64.0537C43.6526 64.1826 44.1224 64.2446 44.5938 64.2379C45.0527 64.3001 45.5183 64.1886 45.8994 63.9254C46.4573 63.5182 46.9817 62.6757 46.9817 61.1693C46.9817 58.5583 45.2578 57.8219 44.1922 57.8219C43.8668 57.8064 43.5408 57.8307 43.2214 57.8944C43.0931 57.9279 43.054 58.0004 43.054 58.151L43.0317 63.719Z" fill="white"/>
<path d="M54.7256 62.2684C54.7256 59.4789 54.7256 58.9656 54.6921 58.363C54.6586 57.7605 54.508 57.4425 53.8998 57.3142C53.6643 57.2716 53.425 57.2529 53.1857 57.2584C52.9849 57.2584 52.8733 57.2193 52.8733 57.091C52.8733 56.9627 53.0016 56.9292 53.275 56.9292C53.7715 56.9292 54.3071 56.9292 54.7646 56.9292C55.2221 56.9292 55.6629 56.9683 55.9195 56.9683C56.4774 56.9683 60.1596 56.9683 60.5111 56.9683C60.8626 56.9683 61.1527 56.8902 61.3033 56.8567C61.397 56.8203 61.4942 56.7941 61.5934 56.7786C61.6883 56.7786 61.705 56.8567 61.705 56.9459C61.705 57.0352 61.6158 57.2974 61.56 58.1399C61.56 58.324 61.5042 59.133 61.4651 59.3505C61.4651 59.4454 61.4149 59.5514 61.281 59.5514C61.1471 59.5514 61.1192 59.4621 61.1192 59.2947C61.1188 59.0706 61.0811 58.8481 61.0076 58.6364C60.8793 58.3072 60.6952 58.0785 59.7747 57.9725C59.4622 57.939 57.543 57.9 57.1692 57.9C57.0744 57.9 57.0409 57.9558 57.0409 58.0841V62.7315C57.0409 62.8598 57.0409 62.9323 57.1692 62.9323C57.5709 62.9323 59.6854 62.9323 60.1094 62.8989C60.5334 62.8654 60.8235 62.804 60.9853 62.6199C61.1471 62.4358 61.1917 62.38 61.281 62.38C61.3703 62.38 61.4149 62.419 61.4149 62.5306C61.4149 62.6422 61.3368 62.9323 61.2643 63.8696C61.2643 64.2378 61.1917 64.9854 61.1917 65.097C61.1917 65.2086 61.1917 65.4485 61.0244 65.4485C60.857 65.4485 60.8626 65.376 60.8626 65.2811C60.8626 65.097 60.8626 64.8627 60.7901 64.6228C60.6952 64.2546 60.4386 63.9812 59.7579 63.9087C59.412 63.8696 57.5932 63.8529 57.1525 63.8529C57.0576 63.8529 57.0409 63.9254 57.0409 64.037V65.4876C57.0409 66.1124 57.0409 67.7973 57.0409 68.3329C57.0744 69.5994 57.3701 69.8727 59.2725 69.8727C59.8557 69.9079 60.4403 69.8341 60.9965 69.6552C61.4763 69.432 61.6939 69.047 61.8222 68.2939C61.8612 68.093 61.9003 68.0205 62.0286 68.0205C62.1569 68.0205 62.1737 68.1655 62.1737 68.3496C62.1438 69.0353 62.0636 69.7177 61.9338 70.3916C61.8055 70.8658 61.6437 70.8658 60.9407 70.8658C59.5682 70.8658 58.5528 70.8268 57.7662 70.81C56.9795 70.7933 56.4105 70.7598 55.8581 70.7598C55.6517 70.7598 55.25 70.7598 54.8092 70.7598C54.3685 70.7598 53.911 70.7933 53.5428 70.7933C53.3029 70.7933 53.1746 70.7431 53.1746 70.6092C53.1746 70.4753 53.2471 70.4641 53.4703 70.4641C53.6916 70.463 53.9123 70.4387 54.1286 70.3916C54.4968 70.3191 54.5917 69.9118 54.6865 69.3818C54.7758 68.6119 54.7758 67.1501 54.7758 65.4764L54.7256 62.2684Z" fill="white"/>
<path d="M67.0107 57.0185C67.0665 56.7061 67.1725 56.5387 67.3232 56.5387C67.4738 56.5387 67.5798 56.6336 67.8197 57.0967L72.8409 67.4571L77.8621 56.9683C78.0072 56.6782 78.0964 56.5276 78.2638 56.5276C78.4312 56.5276 78.5372 56.7117 78.593 57.0855L80.2667 68.439C80.4285 69.5939 80.6126 70.1127 81.1649 70.2913C81.5249 70.4111 81.9015 70.4732 82.2808 70.4754C82.4426 70.4754 82.5765 70.4754 82.5765 70.6037C82.5765 70.732 82.3533 70.8045 82.0967 70.8045C81.6392 70.8045 79.1007 70.7543 78.3698 70.6985C77.9458 70.6595 77.8398 70.6037 77.8398 70.4921C77.8398 70.3805 77.9123 70.347 78.0407 70.2913C78.169 70.2355 78.2024 70.0179 78.1299 69.5046L77.0141 61.4205H76.9416L72.9413 69.7891C72.5173 70.6483 72.4281 70.8157 72.2607 70.8157C72.0933 70.8157 71.9092 70.4475 71.6191 69.8951C71.1783 69.0527 69.7278 66.2408 69.5046 65.7275C69.3428 65.3426 68.2382 63.0273 67.5966 61.6492H67.5073L66.5533 68.9634C66.5165 69.2484 66.4978 69.5353 66.4975 69.8226C66.4975 70.1741 66.7374 70.3359 67.0554 70.414C67.308 70.4718 67.5662 70.5017 67.8253 70.5033C67.9704 70.5033 68.0987 70.5423 68.0987 70.6316C68.0987 70.7208 67.9369 70.8324 67.6579 70.8324C66.888 70.8324 66.0623 70.7822 65.7275 70.7822C65.3928 70.7822 64.5001 70.8324 63.9143 70.8324C63.7302 70.8324 63.5796 70.799 63.5796 70.6316C63.5796 70.4642 63.6912 70.5033 63.8753 70.5033C64.0628 70.5069 64.2501 70.4881 64.4332 70.4475C64.9465 70.3359 65.0915 69.6218 65.1864 68.9969L67.0107 57.0185Z" fill="white"/>
<path d="M85.4776 62.2684C85.4776 59.4789 85.4776 58.9656 85.4385 58.363C85.3995 57.7605 85.2209 57.4257 84.8137 57.3309C84.5983 57.2783 84.377 57.2539 84.1553 57.2584C83.9712 57.2584 83.8596 57.2193 83.8596 57.0743C83.8596 56.9292 84.0103 56.9292 84.3004 56.9292C84.9978 56.9292 86.1526 56.985 86.6882 56.985C87.2238 56.985 88.2336 56.9292 88.9199 56.9292C89.1542 56.9292 89.3048 56.9683 89.3048 57.0743C89.3048 57.1803 89.1932 57.2584 89.0091 57.2584C88.8218 57.2591 88.635 57.2778 88.4512 57.3142C87.9603 57.4034 87.8096 57.7159 87.7762 58.363C87.7427 59.0102 87.7371 59.4789 87.7371 62.2684V65.5043C87.7371 67.284 87.7371 68.7346 87.8096 69.5268C87.8654 70.0178 87.9937 70.3525 88.5461 70.4251C88.8569 70.4667 89.1698 70.4909 89.4834 70.4976C89.6842 70.4976 89.7735 70.5534 89.7735 70.6427C89.7735 70.7319 89.6284 70.8268 89.4276 70.8268C88.2169 70.8268 87.0564 70.7766 86.5599 70.7766C86.0634 70.7766 84.981 70.8268 84.2502 70.8268C84.0103 70.8268 83.8819 70.7766 83.8819 70.6427C83.8819 70.5088 83.9545 70.4976 84.172 70.4976C84.3953 70.4964 84.6178 70.4721 84.836 70.4251C85.2042 70.3525 85.3102 70.0401 85.366 69.5045C85.4608 68.7346 85.4608 67.2729 85.4608 65.5043L85.4776 62.2684Z" fill="white"/>
<path d="M92.9871 62.2684C92.9871 59.4789 92.9871 58.9656 92.9481 58.363C92.909 57.7605 92.764 57.4425 92.1614 57.3142C91.9239 57.2719 91.6829 57.2532 91.4417 57.2584C91.2409 57.2584 91.1293 57.2193 91.1293 57.091C91.1293 56.9627 91.2576 56.9292 91.531 56.9292C92.5073 56.9292 93.6622 56.985 94.2145 56.985C94.6553 56.985 95.8157 56.9292 96.4462 56.9292C96.7195 56.9292 96.8479 56.9683 96.8479 57.091C96.8479 57.2137 96.7419 57.2584 96.5578 57.2584C96.3703 57.2569 96.1833 57.2756 95.9998 57.3142C95.5033 57.4034 95.3582 57.7159 95.3192 58.363C95.2801 59.0102 95.2857 59.4789 95.2857 62.2684V64.8404C95.2857 67.5016 95.8436 68.623 96.7195 69.3595C97.3654 69.8836 98.1817 70.1517 99.0126 70.1126C99.9546 70.1276 100.865 69.7708 101.545 69.1196C102.555 68.1097 102.611 66.4583 102.611 64.567V62.2684C102.611 59.4789 102.611 58.9656 102.572 58.363C102.533 57.7605 102.394 57.4425 101.785 57.3142C101.568 57.2739 101.348 57.2552 101.127 57.2584C100.921 57.2584 100.815 57.2193 100.815 57.091C100.815 56.9627 100.943 56.9292 101.2 56.9292C102.137 56.9292 103.292 56.985 103.308 56.985C103.532 56.985 104.687 56.9292 105.406 56.9292C105.663 56.9292 105.786 56.9683 105.786 57.091C105.786 57.2137 105.68 57.2584 105.456 57.2584C105.269 57.2568 105.082 57.2755 104.899 57.3142C104.402 57.4034 104.257 57.7159 104.218 58.363C104.179 59.0102 104.179 59.4789 104.179 62.2684V64.2378C104.179 66.2742 103.978 68.4389 102.438 69.7612C101.379 70.6731 100.012 71.1461 98.6164 71.0834C97.6457 71.0834 95.8827 71.0276 94.5437 69.8169C93.6064 68.9745 92.909 67.5853 92.909 64.952L92.9871 62.2684Z" fill="white"/>
<path d="M109.803 57.0185C109.858 56.7061 109.97 56.5387 110.115 56.5387C110.26 56.5387 110.372 56.6336 110.606 57.0967L115.627 67.4571L120.648 56.9683C120.793 56.6782 120.888 56.5276 121.05 56.5276C121.212 56.5276 121.323 56.7117 121.379 57.0855L123.053 68.439C123.22 69.5939 123.399 70.1127 123.951 70.2913C124.311 70.4104 124.688 70.4725 125.067 70.4754C125.234 70.4754 125.363 70.4754 125.363 70.6037C125.363 70.732 125.14 70.8045 124.883 70.8045C124.425 70.8045 121.893 70.7543 121.156 70.6985C120.732 70.6595 120.598 70.6037 120.598 70.4921C120.598 70.3805 120.671 70.347 120.799 70.2913C120.927 70.2355 120.966 70.0179 120.888 69.5046L119.772 61.4205H119.7L115.694 69.7891C115.27 70.6483 115.181 70.8157 115.013 70.8157C114.846 70.8157 114.668 70.4475 114.372 69.8951C113.931 69.0527 112.481 66.2408 112.263 65.7275C112.096 65.3426 110.991 63.0273 110.349 61.6492H110.277L109.351 68.9578C109.314 69.2428 109.295 69.5297 109.295 69.817C109.295 70.1685 109.535 70.3303 109.853 70.4084C110.105 70.4662 110.364 70.4961 110.623 70.4977C110.773 70.4977 110.902 70.5367 110.902 70.626C110.902 70.7153 110.734 70.8269 110.455 70.8269C109.685 70.8269 108.86 70.7766 108.531 70.7766C108.201 70.7766 107.298 70.8269 106.712 70.8269C106.528 70.8269 106.383 70.7934 106.383 70.626C106.383 70.4586 106.489 70.4977 106.673 70.4977C106.86 70.5018 107.048 70.483 107.231 70.4419C107.744 70.3303 107.889 69.6162 107.984 68.9913L109.803 57.0185Z" fill="white"/>
<path d="M38.5517 91.2686C37.5442 91.6058 36.4897 91.7809 35.4274 91.7875C29.6028 91.7875 27.3376 87.4693 27.3376 83.8931C27.3376 80.6516 29.6641 76.1995 35.4887 76.1995C40.2421 76.1995 43.5394 79.0783 43.5394 83.7313C43.534 85.0203 43.2165 86.2889 42.6141 87.4285C42.0118 88.5682 41.1424 89.545 40.0803 90.2756L44.075 92.3231C48.2705 94.4711 50.915 94.6886 52.2651 94.6886C53.5985 94.696 54.922 94.4596 56.1705 93.9913C56.2667 93.9474 56.3678 93.9156 56.4718 93.8964C56.5191 93.8964 56.5645 93.9152 56.598 93.9487C56.6315 93.9822 56.6503 94.0276 56.6503 94.0749C56.6503 94.1921 56.5499 94.2535 56.4104 94.3093C54.4485 95.2766 52.2933 95.7878 50.106 95.8045C47.1044 95.8045 44.9788 95.029 41.6983 93.0986L38.5517 91.2686ZM40.7833 84.2724C40.7833 79.4577 37.7985 77.1535 35.0536 77.1535C32.4481 77.1535 30.1216 78.8272 30.1216 83.4356C30.1216 88.1667 32.9837 90.7944 36.1861 90.7944C37.7762 90.7944 40.7833 90.097 40.7833 84.2724Z" fill="white"/>
<path d="M47.1435 82.2416C47.1435 79.2178 47.1435 78.6654 47.1044 78.0294C47.0654 77.3934 46.9092 77.0308 46.2508 76.9136C45.9946 76.8711 45.735 76.8524 45.4753 76.8578C45.2578 76.8578 45.135 76.8132 45.135 76.6793C45.135 76.5454 45.2745 76.5007 45.5758 76.5007C46.6302 76.5007 47.8799 76.5565 48.4769 76.5565C48.9567 76.5565 50.2064 76.5007 50.9261 76.5007C51.2218 76.5007 51.3613 76.5398 51.3613 76.6793C51.3613 76.8187 51.2386 76.8578 51.0433 76.8578C50.856 76.8588 50.6692 76.8775 50.4854 76.9136C49.9275 77.014 49.788 77.3543 49.7489 78.0294C49.7099 78.7045 49.7099 79.2178 49.7099 82.2416V85.0312C49.7099 87.9156 50.2678 89.1263 51.2553 89.9241C51.9572 90.4908 52.8424 90.7806 53.7436 90.7386C54.7641 90.7522 55.7494 90.3657 56.4885 89.6619C57.6043 88.546 57.6434 86.783 57.6434 84.7299V82.2472C57.6434 79.2233 57.6434 78.671 57.5987 78.035C57.5541 77.399 57.4035 77.0363 56.7451 76.9192C56.5093 76.8787 56.2703 76.8601 56.031 76.8634C55.8134 76.8634 55.6907 76.8187 55.6907 76.6848C55.6907 76.5509 55.8302 76.5063 56.1091 76.5063C57.1245 76.5063 58.3798 76.5621 58.3966 76.5621C58.6365 76.5621 59.8862 76.5063 60.6617 76.5063C60.9406 76.5063 61.0801 76.5454 61.0801 76.6848C61.0801 76.8243 60.9629 76.8634 60.723 76.8634C60.5357 76.8644 60.3489 76.8831 60.1651 76.9192C59.6072 77.0196 59.4677 77.3599 59.4287 78.035C59.3896 78.7101 59.3896 79.2233 59.3896 82.2472V84.3729C59.3896 86.6045 59.1665 88.9254 57.4983 90.3593C56.3526 91.3452 54.8744 91.8579 53.3642 91.7931C52.3097 91.7931 50.4017 91.7317 48.9511 90.4206C47.9357 89.5056 47.177 88.0328 47.177 85.1484L47.1435 82.2416Z" fill="white"/>
<path d="M65.4821 86.32C65.3817 86.32 65.3426 86.3591 65.3036 86.4762L64.2324 89.3216C64.066 89.7058 63.9642 90.1149 63.9311 90.5323C63.9311 90.8949 64.1096 91.1515 64.7289 91.1515H65.0246C65.2645 91.1515 65.3259 91.1906 65.3259 91.3078C65.3259 91.4249 65.2032 91.5086 64.9856 91.5086C64.3495 91.5086 63.4959 91.4472 62.8767 91.4472C62.6591 91.4472 61.5656 91.5086 60.5334 91.5086C60.2712 91.5086 60.1541 91.4695 60.1541 91.3078C60.1541 91.146 60.2322 91.1515 60.394 91.1515C60.5557 91.1515 60.8514 91.1515 61.0077 91.1125C61.9226 90.9897 62.302 90.3147 62.6814 89.3216L67.7026 76.8355C67.9425 76.2776 68.0597 76.0377 68.2605 76.0377C68.4614 76.0377 68.5562 76.2163 68.757 76.6737C69.2313 77.7896 72.4169 85.8793 73.689 88.9032C74.4422 90.6941 75.0168 90.973 75.4352 91.0678C75.7108 91.1231 75.9911 91.1512 76.2721 91.1515C76.4283 91.1515 76.5287 91.1515 76.5287 91.3078C76.5287 91.464 76.3502 91.5086 75.6138 91.5086C74.8773 91.5086 73.4491 91.5086 71.859 91.4695C71.502 91.4695 71.2621 91.4695 71.2621 91.3078C71.2621 91.146 71.3402 91.1515 71.541 91.1292C71.585 91.1138 71.6252 91.089 71.6587 91.0566C71.6923 91.0242 71.7184 90.9849 71.7354 90.9415C71.7524 90.898 71.7597 90.8514 71.757 90.8049C71.7543 90.7583 71.7415 90.7129 71.7196 90.6717L70.1183 86.4762C70.1067 86.433 70.0802 86.3953 70.0434 86.3698C70.0066 86.3443 69.9621 86.3326 69.9175 86.3368L65.4821 86.32ZM69.5381 85.3214C69.6385 85.3214 69.6609 85.2656 69.6385 85.2042L67.8476 80.2946C67.8476 80.2109 67.8086 80.1161 67.7472 80.1161C67.6859 80.1161 67.6524 80.2109 67.6301 80.2946L65.8001 85.1875C65.8001 85.2656 65.8001 85.3214 65.8782 85.3214H69.5381Z" fill="white"/>
<path d="M81.0924 85.7398C81.0924 88.2838 81.0924 89.6451 81.5164 90.0189C81.8512 90.3146 82.3645 90.4541 83.921 90.4541C84.9699 90.4541 85.7454 90.4541 86.242 89.8962C86.5209 89.5532 86.7004 89.1402 86.7608 88.7023C86.7608 88.5237 86.8222 88.4066 86.984 88.4066C87.1458 88.4066 87.1402 88.507 87.1402 88.7469C87.0966 89.5136 86.9978 90.2762 86.8445 91.0288C86.7218 91.4695 86.6213 91.5867 85.5892 91.5867C84.1554 91.5867 83.1232 91.5532 82.2417 91.5309C81.3602 91.5086 80.6349 91.4695 79.8204 91.4695C79.6028 91.4695 79.1621 91.4695 78.7046 91.4695C78.2471 91.4695 77.7338 91.5086 77.3377 91.5086C77.0755 91.5086 76.936 91.4472 76.936 91.3077C76.936 91.1682 77.0197 91.1515 77.2596 91.1515C77.4997 91.1515 77.7392 91.1253 77.9737 91.0734C78.3698 90.9897 78.4702 90.5545 78.5316 89.9576C78.632 89.1263 78.632 87.553 78.632 85.723V82.2249C78.632 79.201 78.632 78.6487 78.593 78.0127C78.5539 77.3767 78.3921 77.014 77.7338 76.8969C77.5189 76.8544 77.3 76.8357 77.081 76.8411C76.8635 76.8411 76.7407 76.7964 76.7407 76.6625C76.7407 76.5286 76.8802 76.484 77.1815 76.484C78.1132 76.484 79.3685 76.5398 79.9041 76.5398C80.4397 76.5398 81.8345 76.484 82.61 76.484C82.8889 76.484 83.0284 76.5231 83.0284 76.6625C83.0284 76.802 82.9056 76.8411 82.6657 76.8411C82.4081 76.8408 82.1507 76.8595 81.8958 76.8969C81.3379 76.9973 81.1984 77.3376 81.1594 78.0127C81.1203 78.6878 81.1147 79.201 81.1147 82.2249L81.0924 85.7398Z" fill="white"/>
<path d="M90.6438 82.2416C90.6438 79.2177 90.6438 78.6654 90.6048 78.0294C90.5657 77.3934 90.3593 77.014 89.9241 76.9136C89.6906 76.8561 89.4504 76.8298 89.21 76.8355C89.0091 76.8355 88.892 76.7908 88.892 76.6346C88.892 76.4784 89.0482 76.4784 89.3662 76.4784C90.1249 76.4784 91.3747 76.5342 91.9549 76.5342C92.5351 76.5342 93.6286 76.4784 94.3762 76.4784C94.6385 76.4784 94.7947 76.5174 94.7947 76.6346C94.7947 76.7518 94.6775 76.8355 94.4822 76.8355C94.2801 76.8364 94.0785 76.8551 93.8797 76.8913C93.3218 76.9917 93.1879 77.332 93.1488 78.0071C93.1098 78.6821 93.1042 79.1954 93.1042 82.2193V85.7174C93.1042 87.6478 93.1042 89.2155 93.1879 90.0747C93.2437 90.6326 93.3832 90.9673 93.9801 91.051C94.3167 91.0971 94.6558 91.1232 94.9955 91.1291C95.2131 91.1291 95.3135 91.1849 95.3135 91.2854C95.3135 91.3858 95.1573 91.4862 94.9397 91.4862C93.6231 91.4862 92.3733 91.4248 91.8322 91.4248C91.3747 91.4248 90.125 91.4862 89.3271 91.4862C89.0705 91.4862 88.931 91.4248 88.931 91.2854C88.931 91.1459 89.0091 91.1291 89.249 91.1291C89.491 91.1288 89.7323 91.1026 89.9687 91.051C90.3593 90.9673 90.482 90.6326 90.5266 90.0524C90.6271 89.2155 90.6271 87.6478 90.6271 85.7174L90.6438 82.2416Z" fill="white"/>
<path d="M102.276 77.5886L99.3138 77.6668C98.1589 77.7114 97.6791 77.8062 97.3834 78.2247C97.2342 78.4359 97.1193 78.6693 97.0431 78.9165C97.0096 79.0783 96.9482 79.1564 96.8255 79.1564C96.7028 79.1564 96.647 79.0559 96.647 78.8384C96.647 78.5204 97.0264 76.7127 97.0654 76.5509C97.1268 76.2943 97.1826 76.1771 97.3053 76.1771C97.5819 76.2817 97.8677 76.3602 98.1589 76.4115C98.7168 76.4728 99.4923 76.5119 100.145 76.5119H108.023C108.482 76.514 108.941 76.4804 109.395 76.4115C109.579 76.3698 109.766 76.3382 109.953 76.3166C110.093 76.3166 110.109 76.4338 110.109 76.7295C110.109 77.1479 110.054 78.5204 110.054 79.0392C110.054 79.2345 109.992 79.3572 109.875 79.3572C109.758 79.3572 109.674 79.2568 109.652 78.9611V78.7379C109.613 78.2247 109.094 77.6668 107.309 77.6221L104.798 77.5607V85.7118C104.798 87.5418 104.798 89.1151 104.898 89.9687C104.96 90.5266 105.077 90.9618 105.674 91.0399C106.01 91.0906 106.349 91.1186 106.689 91.1236C106.907 91.1236 107.007 91.1794 107.007 91.2798C107.007 91.3802 106.851 91.4806 106.628 91.4806C105.317 91.4806 104.062 91.4193 103.509 91.4193C103.046 91.4193 101.796 91.4806 101.004 91.4806C100.748 91.4806 100.603 91.4193 100.603 91.2798C100.603 91.1403 100.686 91.1236 100.921 91.1236C101.163 91.1253 101.405 91.0972 101.64 91.0399C102.036 90.9618 102.154 90.5266 102.198 89.9241C102.299 89.0928 102.299 87.5195 102.299 85.6895L102.276 77.5886Z" fill="white"/>
<path d="M116.079 86.359C116.108 85.6357 115.951 84.9172 115.622 84.2724C115.482 83.9544 112.832 79.5748 112.123 78.5427C111.771 77.9679 111.301 77.4737 110.745 77.0921C110.491 76.9462 110.207 76.8585 109.914 76.8355C109.758 76.8355 109.618 76.7908 109.618 76.6569C109.618 76.523 109.758 76.4784 109.992 76.4784C110.349 76.4784 111.844 76.5342 112.497 76.5342C112.916 76.5342 113.73 76.4784 114.628 76.4784C114.824 76.4784 114.924 76.5342 114.924 76.6569C114.924 76.7797 114.785 76.7908 114.489 76.8745C114.408 76.8916 114.335 76.9368 114.284 77.0021C114.233 77.0674 114.207 77.1487 114.21 77.2316C114.243 77.4698 114.323 77.6993 114.444 77.9066C114.723 78.5036 117.507 83.2961 117.831 83.854C118.026 83.3742 120.531 79.0002 120.81 78.3864C120.975 78.064 121.07 77.7104 121.089 77.3487C121.096 77.2283 121.056 77.1099 120.978 77.0176C120.9 76.9254 120.79 76.8662 120.671 76.8522C120.492 76.8131 120.314 76.7741 120.314 76.6569C120.314 76.5398 120.414 76.4784 120.654 76.4784C121.307 76.4784 121.943 76.5342 122.517 76.5342C122.958 76.5342 124.269 76.4784 124.649 76.4784C124.866 76.4784 125.006 76.5174 125.006 76.6346C125.006 76.7518 124.849 76.8355 124.626 76.8355C124.323 76.8516 124.026 76.9315 123.756 77.0698C123.323 77.3027 122.953 77.6378 122.679 78.0461C121.293 80.0787 120.024 82.1893 118.88 84.3673C118.642 85.0029 118.541 85.6817 118.584 86.359V87.9881C118.584 88.3061 118.584 89.143 118.645 89.9743C118.684 90.5322 118.863 90.9897 119.46 91.0901C119.789 91.1355 120.121 91.1616 120.453 91.1682C120.671 91.1682 120.771 91.224 120.771 91.3244C120.771 91.4248 120.609 91.5253 120.353 91.5253C119.103 91.5253 117.848 91.4639 117.312 91.4639C116.776 91.4639 115.56 91.5253 114.824 91.5253C114.55 91.5253 114.389 91.4862 114.389 91.3244C114.389 91.1626 114.489 91.1682 114.707 91.1682C114.941 91.167 115.175 91.1408 115.404 91.0901C115.8 91.0064 115.962 90.5712 116.018 89.9743C116.079 89.143 116.079 88.3005 116.079 87.9881V86.359Z" fill="white"/>
<path d="M75 117.535L69.6162 120.704L70.9942 114.656L66.2966 110.556L72.5229 109.992L75 104.296L77.4716 109.992L83.7035 110.556L79.0003 114.656L80.3783 120.704L75 117.535Z" fill="white"/>
<path d="M97.0989 113.752L93.2549 116.012L94.2368 111.694L90.8782 108.77L95.3303 108.363L97.0989 104.296L98.8619 108.363L103.314 108.77L99.9554 111.694L100.943 116.012L97.0989 113.752Z" fill="white"/>
<path d="M52.9011 113.752L49.0571 116.012L50.039 111.694L46.6804 108.77L51.1326 108.363L52.9011 104.296L54.6697 108.363L59.1218 108.77L55.7576 111.694L56.7451 116.012L52.9011 113.752Z" fill="white"/>
<path d="M121.876 99.8995H28.1466C28.0697 99.8995 27.9959 99.869 27.9415 99.8146C27.8871 99.7602 27.8565 99.6864 27.8565 99.6094C27.8558 99.5708 27.8627 99.5325 27.877 99.4967C27.8912 99.4608 27.9125 99.4282 27.9395 99.4007C27.9665 99.3731 27.9987 99.3513 28.0343 99.3363C28.0699 99.3214 28.108 99.3137 28.1466 99.3137H121.876C121.914 99.3137 121.952 99.3214 121.988 99.3363C122.024 99.3513 122.056 99.3731 122.083 99.4007C122.11 99.4282 122.131 99.4608 122.145 99.4967C122.16 99.5325 122.167 99.5708 122.166 99.6094C122.166 99.6864 122.135 99.7602 122.081 99.8146C122.026 99.869 121.953 99.8995 121.876 99.8995" fill="white"/>
<path d="M121.876 50.0949H85.8402L89.4443 37.2629H89.5782C90.0661 37.2631 90.5386 37.0918 90.9131 36.7791C91.2875 36.4663 91.5402 36.0319 91.6269 35.5517C91.7136 35.0716 91.6289 34.5763 91.3875 34.1523C91.1461 33.7283 90.7633 33.4026 90.3062 33.2321C89.8491 33.0616 89.3465 33.0571 88.8864 33.2195C88.4264 33.3819 88.0379 33.7008 87.7891 34.1204C87.5402 34.5401 87.4467 35.0338 87.5249 35.5154C87.6031 35.997 87.848 36.4358 88.2169 36.7552L81.7842 40.6606C81.7268 40.6961 81.6628 40.7196 81.596 40.7296C81.5293 40.7396 81.4612 40.7358 81.3959 40.7186C81.3306 40.7014 81.2695 40.671 81.2164 40.6294C81.1633 40.5878 81.1192 40.5357 81.0868 40.4765L75.7588 30.7577C76.2103 30.5808 76.5859 30.2519 76.8208 29.8276C77.0556 29.4033 77.1349 28.9103 77.0449 28.4338C76.9549 27.9573 76.7014 27.5272 76.328 27.2177C75.9546 26.9082 75.4849 26.7389 75 26.7389C74.5151 26.7389 74.0454 26.9082 73.672 27.2177C73.2987 27.5272 73.0451 27.9573 72.9551 28.4338C72.8652 28.9103 72.9444 29.4033 73.1792 29.8276C73.4141 30.2519 73.7897 30.5808 74.2412 30.7577L68.9132 40.4765C68.8808 40.5357 68.8368 40.5878 68.7836 40.6294C68.7305 40.671 68.6694 40.7014 68.6041 40.7186C68.5388 40.7358 68.4708 40.7396 68.404 40.7296C68.3372 40.7196 68.2732 40.6961 68.2158 40.6606L61.7831 36.7552C62.152 36.4358 62.3969 35.997 62.4751 35.5154C62.5533 35.0338 62.4598 34.5401 62.2109 34.1204C61.9621 33.7008 61.5737 33.3819 61.1136 33.2195C60.6535 33.0571 60.151 33.0616 59.6938 33.2321C59.2367 33.4026 58.854 33.7283 58.6126 34.1523C58.3712 34.5763 58.2864 35.0716 58.3731 35.5517C58.4598 36.0319 58.7125 36.4663 59.087 36.7791C59.4614 37.0918 59.9339 37.2631 60.4218 37.2629H60.5557L64.1598 50.0949H28.1243C28.0459 50.0949 27.9707 50.126 27.9152 50.1815C27.8598 50.2369 27.8286 50.3121 27.8286 50.3905C27.8286 50.469 27.8598 50.5442 27.9152 50.5996C27.9707 50.6551 28.0459 50.6862 28.1243 50.6862H121.853C121.932 50.6862 122.007 50.6551 122.062 50.5996C122.118 50.5442 122.149 50.469 122.149 50.3905C122.149 50.3121 122.118 50.2369 122.062 50.1815C122.007 50.126 121.932 50.0949 121.853 50.0949" fill="white"/>
</g>
<defs>
<clipPath id="clip0_14_2381">
<rect width="150" height="150" fill="white"/>
</clipPath>
</defs>
</svg>
