<svg xmlns="http://www.w3.org/2000/svg" viewBox="0 0 150.7 88.36"><defs><style>.cls-1{fill:#e2e2e2;}</style></defs><title>Asset 1</title><g id="Layer_2" data-name="Layer 2"><g id="Layer_1-2" data-name="Layer 1"><path class="cls-1" d="M6.43,34.61a24.76,24.76,0,0,1,9.45-4.56c2.38-.43,4.88-.33,7.1-1.44,3.46-1.74,8.24-6.07,13-8.24l.41-.32a5.6,5.6,0,0,1-1-1.05,6.1,6.1,0,0,1-.26-5.91,5.21,5.21,0,0,1,9.36.07,5.65,5.65,0,0,1,.53,2.29c8.07-2.84,17.14-2.92,25.73-2.08a75.23,75.23,0,0,1,31.55,10.28,71.5,71.5,0,0,1,12.18,9.49c3.2,3,6.92,6.53,11.56,6.76.7,0,1.42,0,2.14,0l.1-.1L109.62,25.47c-4.7-3.61-9.43-7.26-13.29-11.75C95,12.2,93.84,9.85,95.19,8.37c1.11-1.23,3.1-.83,4.65-.24,13.31,5,23,16.44,32.13,27.39.18.23.36.45.55.67q-4.28-7.33-8.54-14.67c-3-5.12-6-10.29-7.85-15.91-.63-1.9-.84-4.53,1-5.39,1.49-.71,3.18.42,4.39,1.54,10.41,9.72,15.08,24,19.36,37.53L142,43h0c3,2.66,6.91,6.54,8.34,10.31,1.59,4.21-2.65,7.42-6.24,8.43a14.49,14.49,0,0,1-9.75-1,16.26,16.26,0,0,1-6.3-5,10.69,10.69,0,0,1-1.23.28l-.23,0h-.08c.08.1.17.19.25.28C131.73,62,138,66.15,144.52,69.79c1.39.78,2.83,1.55,4.24,2.32s2.24,2.35.21,3.31a6.72,6.72,0,0,1-3.85.2c-3.33-.6-7.49-3.5-10.51-5.09A102.17,102.17,0,0,1,121,62.32c.83,1.11,1.65,2.23,2.47,3.34,2.43,3.27,5.52,5.92,8.45,8.76,3.66,3.56,7.76,6.63,11.63,10,4.82,4.15-2.16,4.59-5.08,3.44-3.87-1.53-8.19-6-11.45-8.7-3.62-2.94-7.15-6-10.5-9.26a83.39,83.39,0,0,1-7.8-8.15A21.53,21.53,0,0,1,105.54,56a38.47,38.47,0,0,1-5.64-3.15C91.66,47.43,83.17,41.8,73.47,40a62.33,62.33,0,0,0-15.77-.56A119.13,119.13,0,0,0,39,45.66c-2.89,1.14-6.07,1.7-8.85,3.12-6.42,3.27-9.54,9-12.63,15.12-.34.65-.89,2-1.82,1.94-.77-.06-1.28-.68-1.62-1.54-1.58-4.07,0-9.65,2.52-13,2-2.64,4-5.34,6.85-7,3.12-1.87,6-2.53,8-5.6.55-.8,1-1.68,1.52-2.54a62.32,62.32,0,0,0-13.09-.39,24.27,24.27,0,0,0-11.1,4.7c-1.7,1.19-3.33,2.48-5,3.75s-4,3.52-3.76-.41a6,6,0,0,1,.21-1.25c.84-3.08,3.89-6.12,6.2-7.88"/></g></g></svg>