<svg xmlns="http://www.w3.org/2000/svg" xmlns:xlink="http://www.w3.org/1999/xlink" viewBox="0 0 280.24 286.87"><defs><style>.cls-1{fill:none;}.cls-2{clip-path:url(#clip-path);}.cls-3{fill:url(#radial-gradient);}.cls-4{fill:#959595;}.cls-5{fill:#fff;}</style><clipPath id="clip-path" transform="translate(0 0)"><path class="cls-1" d="M67.33,0A67.67,67.67,0,1,0,68,0Z"/></clipPath><radialGradient id="radial-gradient" cx="-679.18" cy="3734.96" r="1" gradientTransform="translate(62901.2 -345650.76) scale(92.55)" gradientUnits="userSpaceOnUse"><stop offset="0" stop-color="#ff2639"/><stop offset="0.29" stop-color="#ea1d2c"/><stop offset="0.9" stop-color="#b3040a"/><stop offset="1" stop-color="#a90004"/></radialGradient></defs><title>Asset 10</title><g id="Layer_2" data-name="Layer 2"><g id="Layer_1-2" data-name="Layer 1"><g class="cls-2"><rect class="cls-3" width="135.33" height="135.33"/></g><path class="cls-4" d="M280.24,152.9a134,134,0,1,1-134-134,134,134,0,0,1,134,134" transform="translate(0 0)"/><path class="cls-5" d="M95.17,112.51h41.21a48.38,48.38,0,0,1,11.3,1.36,35.5,35.5,0,0,1,13.68,6.46,30.57,30.57,0,0,1,9.17,11.8,40.45,40.45,0,0,1,3.12,11,62.23,62.23,0,0,1,.46,14.11,45.35,45.35,0,0,1-3.56,14.82,33.06,33.06,0,0,1-11.78,14.2,39.5,39.5,0,0,1-14.34,5.78,58.7,58.7,0,0,1-11.9,1.16c-8.83,0-17.66,0-26.49,0-1.19,0-1.2,0-1.2-1.18V146.77c0-1.28,0-1.29,1.26-1.29h14.24c1.81,0,1.56-.13,1.56,1.6v30.49c0,1,0,1,1,1,4.14,0,8.28.17,12.4-.07,6-.36,11.57-2.11,15.68-6.93a21.61,21.61,0,0,0,4.38-8.61,43.31,43.31,0,0,0,1.05-15.22,30.07,30.07,0,0,0-2.54-10.4,16.57,16.57,0,0,0-12.16-9.53,34.55,34.55,0,0,0-6.81-.66q-32.61-.08-65.21,0c-1.16,0-1.16,0-1.16,1.2v15.76c0,1.2,0,1.2,1.16,1.2H90.05c1.11,0,1.12,0,1.12,1.09V158.6c0,1.5,0,1.49-1.47,1.49H69.78c-1.22,0-1.22,0-1.22,1.24v30.49c0,1.42,0,1.42-1.38,1.42H52.85c-1.41,0-1.42,0-1.42-1.39v-78c0-1.31,0-1.32,1.34-1.32h42.4" transform="translate(0 0)"/><path class="cls-5" d="M247.7,193.15c-.41,0-.72.09-1,.09-5.2,0-10.4,0-15.61,0a1,1,0,0,1-1.19-.86c-1.65-5.08-3.35-10.15-5-15.22-1-2.9-2-5.79-2.92-8.7-1.6-4.82-3.17-9.64-4.77-14.46-.92-2.77-1.89-5.53-2.81-8.31-1.42-4.29-2.82-8.59-4.24-12.88a6,6,0,0,0-.28-.54c-3.21,9.46-6.38,18.76-9.6,28.24h1c3,0,6,0,9,0a1,1,0,0,1,1.17.88c1.14,4.1,2.32,8.19,3.49,12.28.27.92.23,1-.75,1-5.79,0-11.58,0-17.36,0a1.25,1.25,0,0,0-1.46,1c-1.57,4.72-3.25,9.4-4.88,14.1-.32.93-.63,1.86-.93,2.8a.85.85,0,0,1-.94.67h-16.8a5.91,5.91,0,0,1-.72-.12c.28-.79.52-1.51.79-2.22q3.72-9.9,7.46-19.79,3.21-8.51,6.4-17l6.39-17,7.26-19.43c.56-1.5,1.16-3,1.7-4.48a.81.81,0,0,1,.87-.63h14.88a.83.83,0,0,1,.88.64q2,5.41,4,10.84c1.16,3.11,2.35,6.21,3.52,9.32q3.06,8.19,6.11,16.37c1.6,4.26,3.23,8.51,4.82,12.76q3.69,9.83,7.35,19.65l4,10.53c.05.12.08.25.17.53" transform="translate(0 0)"/></g></g></svg>