<?xml version="1.0" encoding="utf-8"?>
<!-- Generator: Adobe Illustrator 23.1.0, SVG Export Plug-In . SVG Version: 6.00 Build 0)  -->
<svg version="1.1" id="Layer_1" xmlns="http://www.w3.org/2000/svg" xmlns:xlink="http://www.w3.org/1999/xlink" x="0px" y="0px"
	 viewBox="0 0 297.7 300.3" style="enable-background:new 0 0 297.7 300.3;" xml:space="preserve">
<style type="text/css">
	.st0{fill:#959595;}
	.st1{fill:#FFFFFF;}
	.st2{fill:#C8C8C8;}
	.st3{clip-path:url(#SVGID_2_);}
	.st4{fill:url(#SVGID_3_);}
</style>
<title>Asset 6</title>
<g>
	<g id="Layer_1-2">
		<path class="st0" d="M269,134.5c0,74.3-60.2,134.5-134.5,134.5S0,208.8,0,134.5C0,60.2,60.2,0,134.5,0C208.8,0,269,60.2,269,134.5
			C269,134.5,269,134.5,269,134.5"/>
		<path class="st1" d="M163.2,162.9c-0.8,0.9-1.5,1.9-2.3,2.8s-1.3,1.5-2,2.2s-1.5,1.7-2.3,2.5c-3.5,3.6-7.2,7-11.1,10.2
			c-2,1.6-4,3-5.9,4.4l-1.4,0.9c-1.6,1.1-3.2,2-4.8,2.9c-6.4,3.8-13.3,6.7-20.4,8.9c-15.7,4.7-22.3,1.9-22.3,1.9
			c-1.4-12.5-0.7-25.2,2-37.5c0.5-2.1,1-4.3,1.7-6.5c0.3-0.9,0.6-1.9,0.9-2.8c1-2.9,2.1-5.8,3.4-8.6c2.5-5.4,5.6-10.6,9.4-15.2
			l0.8-1c0.4-0.4,0.8-0.9,1.1-1.3l1.9-2.2c0.7-0.8,1.5-1.7,2.2-2.5c5.6-6.4,10.8-11.8,15.7-16.8l4.3-4.3c4.8-4.8,9.4-9.2,14-13.9
			c1.5-1.5,3-3,4.5-4.6c4.2-4.3,8.5-9,13-14.2c1.5-1.7,3-3.6,4.6-5.4l0.7-0.8c4.1-5.1,8.6-9.9,13.3-14.3c1.8-1.6,3.5-3.1,5.1-4.3
			c13-9.8,21.9-7.7,20.6,11.7l-0.1,0.8c-0.1,1.8-0.3,3.7-0.6,5.7c-1,6.9-2.6,13.7-4.6,20.4c-0.6,1.9-1.2,3.9-1.9,5.9
			c-2.5,7.5-5.5,15.3-9,22.9c-0.8,1.9-1.7,3.8-2.6,5.7c-3,6.3-6.2,12.5-9.5,18.5c-1,1.8-2.1,3.7-3.1,5.4c-2.5,4.3-5.1,8.4-7.7,12.3
			C168.2,156.3,165.7,159.7,163.2,162.9"/>
		<path class="st2" d="M209.1,61.5l-23.4,11.6c-0.8,0.4-1.7,0.3-2.4-0.2l-0.2-0.1c-0.6-0.5-0.9-1.3-0.9-2.1l1.8-23.1
			c1.8-1.6,3.5-3.1,5.1-4.3l-1.8,23.5l22.3-11.1C209.6,57.6,209.4,59.5,209.1,61.5"/>
		<path class="st2" d="M166.8,98.5l-1.3-30.2c1.5-1.7,3-3.6,4.6-5.4l1.4,32.1l33-13c-0.6,1.9-1.2,3.9-1.9,5.9l-32.5,12.8
			c-0.7,0.3-1.5,0.2-2.2-0.2C167.2,100,166.8,99.2,166.8,98.5"/>
		<path class="st2" d="M191.1,116.4l-37.1,10c-1.3,0.3-2.6-0.4-2.9-1.7c0-0.1-0.1-0.3-0.1-0.4L148,87c1.5-1.5,3-3,4.5-4.6l3,38.6
			l38.2-10.3C192.8,112.6,191.9,114.5,191.1,116.4"/>
		<path class="st2" d="M134.6,145.5l-4.9-40.3l4.3-4.3l5.1,41.5l42.5-7.5c-1,1.8-2.1,3.7-3.1,5.4l-41,7.3c-1.3,0.2-2.6-0.7-2.8-2
			C134.6,145.6,134.6,145.5,134.6,145.5"/>
		<path class="st2" d="M163.2,162.9c-0.8,0.9-1.5,1.9-2.3,2.8s-1.3,1.5-2,2.2l-36.3-1.1c-1.1,0-2.1-0.8-2.4-1.9L110,126.8l1.9-2.2
			c0.7-0.8,1.5-1.7,2.2-2.5l10.6,39.7L163.2,162.9z"/>
		<path class="st2" d="M145.3,129.4c-27,39.3-76.8,94.9-83,101.9c3.7-1.6,7.3-3.2,10.8-4.9c16.3-18.4,53.8-61.8,76.1-94.2
			c28.9-42,48.2-76,48.4-76.3c0.6-1,0.3-2.3-0.6-3.1l-0.3-0.2c-1.2-0.7-2.6-0.2-3.3,0.9C193.3,53.8,174.1,87.6,145.3,129.4"/>
		<g>
			<defs>
				<path id="SVGID_1_" d="M216.3,165.1c-17.9,9.9-32.7,24.7-42.7,42.6c-13.4,23.7-17.7,49-12.4,75.8c0.7,3.6,1.8,7.2,2.7,10.8
					c0.5-0.4,0.9-0.9,1.2-1.5c6.7-13.9,14.4-27.4,23.1-40.2c10.8-15.8,22.9-30.3,38.5-41.4c1.8-1.3,3.7-2.4,5.5-3.5
					c-1.3,1.3-2.7,2.5-4.2,3.6c-7.9,6.6-15.1,14.2-21.2,22.6c-14.8,20-25.6,42.2-34.6,65.3c-0.1,0.3-0.2,0.7-0.3,1.2
					c0.7-0.2,1.3-0.3,1.8-0.5c6.1-2,12.3-3.9,18.3-6.2c18-7,34.6-16.6,49.2-29.5c17.6-15.5,31.2-35.1,39.6-56.9
					c4.9-12.5,9.3-25.2,13.8-37.8c1-2.7,1.7-5.5,2.6-8.3c-0.9-0.5-1.7-0.9-2.5-1.3c-9.7-4.6-20.2-7.1-30.9-7.2h-0.9
					C246.5,152.7,230.4,157,216.3,165.1"/>
			</defs>
			<clipPath id="SVGID_2_">
				<use xlink:href="#SVGID_1_"  style="overflow:visible;"/>
			</clipPath>
			<g class="st3">
				
					<radialGradient id="SVGID_3_" cx="-1272.7506" cy="-3362.2202" r="1" gradientTransform="matrix(57.1132 -62.2627 -33.8101 -31.0138 -40770.582 -183308.4531)" gradientUnits="userSpaceOnUse">
					<stop  offset="0" style="stop-color:#FF2639"/>
					<stop  offset="0.29" style="stop-color:#EA1D2C"/>
					<stop  offset="0.9" style="stop-color:#B3040A"/>
					<stop  offset="1" style="stop-color:#A90004"/>
				</radialGradient>
				<polygon class="st4" points="82.3,232.8 220.4,82.3 370.6,220.1 232.6,370.6 				"/>
			</g>
		</g>
	</g>
</g>
</svg>
