<svg width="312" height="287" viewBox="0 0 312 287" fill="none" xmlns="http://www.w3.org/2000/svg">
<g clip-path="url(#clip0_16_2524)">
<path d="M273.36 135.58C273.36 159.116 266.381 182.123 253.305 201.693C240.229 221.262 221.644 236.515 199.899 245.522C178.155 254.528 154.228 256.885 131.144 252.293C108.06 247.702 86.8567 236.368 70.2143 219.726C53.5718 203.083 42.2382 181.879 37.6465 158.796C33.0549 135.712 35.4115 111.785 44.4183 90.0406C53.4251 68.2962 68.6777 49.711 88.2471 36.6351C107.817 23.5592 130.824 16.58 154.36 16.58C185.921 16.58 216.189 29.1174 238.506 51.4342C260.823 73.7511 273.36 104.019 273.36 135.58Z" fill="#959595"/>
<path d="M266.1 140.32C266.1 161.297 259.88 181.804 248.226 199.246C236.572 216.689 220.008 230.284 200.628 238.313C181.248 246.342 159.923 248.444 139.348 244.354C118.773 240.264 99.8731 230.165 85.0378 215.333C70.2024 200.502 60.0979 181.605 56.0018 161.032C51.9057 140.458 54.0019 119.132 62.0255 99.7496C70.0491 80.3673 83.6397 63.7993 101.079 52.1406C118.518 40.4819 139.023 34.2559 160 34.25C173.932 34.2461 187.728 36.9867 200.6 42.3155C213.473 47.6442 225.17 55.4567 235.022 65.3066C244.875 75.1565 252.691 86.8509 258.023 99.7218C263.355 112.593 266.1 126.388 266.1 140.32" fill="white"/>
<path d="M149.69 136.31L149.56 136.24" stroke="black" stroke-width="1.77" stroke-linecap="round" stroke-linejoin="round"/>
<path d="M144.59 132.89C143.72 132.22 142.87 131.53 142.04 130.8" stroke="black" stroke-width="1.77" stroke-linecap="round" stroke-linejoin="round" stroke-dasharray="0.3 5.99"/>
<path d="M139.85 128.76L139.74 128.65" stroke="black" stroke-width="1.77" stroke-linecap="round" stroke-linejoin="round"/>
<path d="M126.58 84.0001V83.8501" stroke="black" stroke-width="1.77" stroke-linecap="round" stroke-linejoin="round"/>
<path d="M128.28 78.0001C132.533 66.1252 141.236 56.3686 152.55 50.7914C163.863 45.2142 176.902 44.2531 188.911 48.1112C200.92 51.9693 210.96 60.3444 216.908 71.4673C222.857 82.5902 224.249 95.5898 220.79 107.72" stroke="black" stroke-width="1.77" stroke-linecap="round" stroke-linejoin="round" stroke-dasharray="0.3 6.06"/>
<path d="M219.86 110.63L219.81 110.77" stroke="black" stroke-width="1.77" stroke-linecap="round" stroke-linejoin="round"/>
<path d="M217.28 94.2901C217.282 102.835 214.75 111.189 210.004 118.294C205.258 125.4 198.511 130.939 190.617 134.21C182.722 137.481 174.035 138.337 165.655 136.671C157.274 135.004 149.575 130.889 143.533 124.847C137.491 118.805 133.376 111.106 131.71 102.726C130.043 94.3446 130.899 85.6577 134.17 77.7636C137.441 69.8694 142.98 63.1226 150.086 58.3764C157.191 53.6303 165.545 51.0981 174.09 51.1001C185.545 51.1001 196.53 55.6505 204.63 63.7502C212.73 71.8499 217.28 82.8354 217.28 94.2901" fill="#959595"/>
<path d="M153.23 227.31L153.1 227.4" stroke="black" stroke-width="1.77" stroke-linecap="round" stroke-linejoin="round"/>
<path d="M147.47 230.3C142.939 232.123 138.068 232.95 133.189 232.725C128.31 232.501 123.537 231.23 119.192 228.998C114.847 226.767 111.033 223.628 108.008 219.793C104.983 215.959 102.817 211.518 101.659 206.774C100.5 202.029 100.375 197.09 101.292 192.293C102.209 187.496 104.147 182.952 106.975 178.969C109.802 174.986 113.453 171.658 117.679 169.21C121.905 166.762 126.609 165.251 131.47 164.78" stroke="black" stroke-width="1.77" stroke-linecap="round" stroke-linejoin="round" stroke-dasharray="0.32 6.34"/>
<path d="M134.61 164.62H134.78" stroke="black" stroke-width="1.77" stroke-linecap="round" stroke-linejoin="round"/>
<path d="M164.12 198.69C164.12 204.495 162.398 210.17 159.173 214.997C155.947 219.824 151.363 223.586 145.999 225.807C140.636 228.028 134.734 228.609 129.04 227.475C123.347 226.342 118.117 223.546 114.013 219.44C109.909 215.334 107.114 210.104 105.983 204.41C104.851 198.716 105.434 192.814 107.657 187.451C109.88 182.089 113.643 177.505 118.471 174.282C123.299 171.058 128.975 169.338 134.78 169.34C138.634 169.339 142.451 170.097 146.012 171.572C149.573 173.046 152.808 175.208 155.533 177.934C158.258 180.66 160.419 183.896 161.892 187.458C163.366 191.019 164.123 194.836 164.12 198.69Z" fill="#959595"/>
<g style="mix-blend-mode:multiply" opacity="0.1">
<path d="M78.82 78.8201C118.34 78.8201 145.82 119.14 145.82 119.14C145.82 119.14 118.39 159.47 78.82 159.47C39.25 159.47 11.88 119.14 11.88 119.14C11.88 119.14 39.3 78.8201 78.82 78.8201Z" fill="black"/>
</g>
<g style="mix-blend-mode:multiply" opacity="0.1">
<path d="M283.4 247.52L255.46 219.58C263.696 206.141 266.714 190.147 263.944 174.631C261.173 159.114 252.805 145.154 240.427 135.395C228.049 125.637 212.521 120.76 196.787 121.688C181.052 122.615 166.205 129.284 155.06 140.43C143.914 151.575 137.245 166.422 136.318 182.157C135.39 197.891 140.267 213.419 150.025 225.797C159.784 238.175 173.744 246.543 189.261 249.314C204.777 252.084 220.771 249.066 234.21 240.83L262.61 269.22C264.091 270.707 265.867 271.867 267.825 272.624C269.782 273.381 271.876 273.72 273.972 273.617C276.068 273.514 278.119 272.973 279.993 272.027C281.867 271.082 283.522 269.755 284.85 268.13C289.85 262.08 288.95 253.07 283.4 247.52M236.56 221.93C229.441 229.043 220.373 233.885 210.503 235.845C200.632 237.805 190.402 236.795 181.106 232.942C171.809 229.089 163.864 222.566 158.274 214.198C152.684 205.831 149.701 195.993 149.701 185.93C149.701 175.867 152.684 166.029 158.274 157.662C163.864 149.294 171.809 142.771 181.106 138.918C190.402 135.065 200.632 134.055 210.503 136.015C220.373 137.975 229.441 142.817 236.56 149.93C241.289 154.657 245.04 160.269 247.6 166.446C250.159 172.623 251.477 179.244 251.477 185.93C251.477 192.616 250.159 199.237 247.6 205.414C245.04 211.591 241.289 217.203 236.56 221.93" fill="black"/>
</g>
<path d="M78.82 71.75C118.34 71.75 145.82 112.07 145.82 112.07C145.82 112.07 118.39 152.4 78.82 152.4C39.25 152.4 11.88 112.07 11.88 112.07C11.88 112.07 39.3 71.75 78.82 71.75Z" fill="white"/>
<path d="M78.82 71.75C118.34 71.75 145.82 112.07 145.82 112.07C145.82 112.07 118.39 152.4 78.82 152.4C39.25 152.4 11.88 112.07 11.88 112.07C11.88 112.07 39.3 71.75 78.82 71.75Z" stroke="black" stroke-width="1.77" stroke-linecap="round" stroke-linejoin="round"/>
<path d="M113.36 65.3701L114.91 63.8201" stroke="black" stroke-width="1.77" stroke-linecap="round" stroke-linejoin="round"/>
<path d="M121.73 57L123.28 55.45" stroke="black" stroke-width="1.77" stroke-linecap="round" stroke-linejoin="round"/>
<path d="M123.28 65.3701L121.73 63.8201" stroke="black" stroke-width="1.77" stroke-linecap="round" stroke-linejoin="round"/>
<path d="M114.91 57L113.36 55.45" stroke="black" stroke-width="1.77" stroke-linecap="round" stroke-linejoin="round"/>
<path d="M237 148C232.189 143.173 226.47 139.345 220.173 136.736C213.876 134.127 207.126 132.79 200.31 132.8" stroke="black" stroke-width="1.77" stroke-linecap="round" stroke-linejoin="round"/>
<path d="M240.1 142.89C232.981 135.777 223.913 130.935 214.043 128.975C204.172 127.015 193.942 128.025 184.646 131.878C175.349 135.731 167.404 142.254 161.814 150.622C156.224 158.989 153.241 168.827 153.241 178.89C153.241 188.953 156.224 198.791 161.814 207.158C167.404 215.526 175.349 222.049 184.646 225.902C193.942 229.755 204.172 230.765 214.043 228.805C223.913 226.845 232.981 222.003 240.1 214.89C244.829 210.163 248.58 204.551 251.14 198.374C253.699 192.197 255.017 185.576 255.017 178.89C255.017 172.204 253.699 165.583 251.14 159.406C248.58 153.229 244.829 147.617 240.1 142.89" fill="#666666"/>
<path d="M286.93 240.45L259 212.51C267.238 199.071 270.258 183.077 267.488 167.56C264.719 152.043 256.352 138.081 243.974 128.322C231.596 118.562 216.068 113.684 200.332 114.611C184.597 115.539 169.749 122.208 158.603 133.353C147.458 144.499 140.789 159.347 139.861 175.082C138.934 190.818 143.812 206.346 153.571 218.724C163.331 231.102 177.293 239.469 192.81 242.238C208.327 245.008 224.321 241.988 237.76 233.75L266.15 262.15C267.631 263.637 269.407 264.797 271.365 265.554C273.322 266.311 275.416 266.65 277.512 266.547C279.608 266.444 281.659 265.903 283.533 264.958C285.407 264.012 287.062 262.685 288.39 261.06C293.39 255.01 292.49 246 286.94 240.45M240.1 214.86C232.981 221.973 223.913 226.815 214.043 228.775C204.172 230.735 193.942 229.725 184.646 225.872C175.35 222.019 167.404 215.496 161.814 207.128C156.224 198.761 153.241 188.923 153.241 178.86C153.241 168.797 156.224 158.959 161.814 150.592C167.404 142.224 175.35 135.701 184.646 131.848C193.942 127.995 204.172 126.985 214.043 128.945C223.913 130.905 232.981 135.747 240.1 142.86C244.829 147.587 248.58 153.199 251.14 159.376C253.699 165.553 255.017 172.174 255.017 178.86C255.017 185.546 253.699 192.167 251.14 198.344C248.58 204.521 244.829 210.133 240.1 214.86" fill="white"/>
<path d="M286.93 240.45L259 212.51C267.238 199.071 270.258 183.077 267.488 167.56C264.719 152.043 256.352 138.081 243.974 128.322C231.596 118.562 216.068 113.684 200.332 114.611C184.597 115.539 169.749 122.208 158.603 133.353C147.458 144.499 140.789 159.347 139.861 175.082C138.934 190.818 143.812 206.346 153.571 218.724C163.331 231.102 177.293 239.469 192.81 242.238C208.327 245.008 224.321 241.988 237.76 233.75L266.15 262.15C267.631 263.637 269.407 264.797 271.365 265.554C273.322 266.311 275.416 266.65 277.512 266.547C279.608 266.444 281.659 265.903 283.533 264.958C285.407 264.012 287.062 262.685 288.39 261.06C293.38 255 292.48 246 286.93 240.45ZM240.1 214.86C232.981 221.973 223.913 226.815 214.043 228.775C204.172 230.735 193.942 229.725 184.646 225.872C175.35 222.019 167.404 215.496 161.814 207.128C156.224 198.761 153.241 188.923 153.241 178.86C153.241 168.797 156.224 158.959 161.814 150.592C167.404 142.224 175.35 135.701 184.646 131.848C193.942 127.995 204.172 126.985 214.043 128.945C223.913 130.905 232.981 135.747 240.1 142.86C244.829 147.587 248.58 153.199 251.14 159.376C253.699 165.553 255.017 172.174 255.017 178.86C255.017 185.546 253.699 192.167 251.14 198.344C248.58 204.521 244.829 210.133 240.1 214.86V214.86Z" stroke="black" stroke-width="1.77" stroke-linecap="round" stroke-linejoin="round"/>
<path d="M270.95 234.71L255 218.76" stroke="black" stroke-width="1.77" stroke-linecap="round" stroke-linejoin="round"/>
<path d="M121.88 151.01L121.55 150.69" stroke="black" stroke-width="1.77" stroke-linecap="round" stroke-linejoin="round"/>
<path d="M126.51 155.64L126.19 155.32" stroke="black" stroke-width="1.77" stroke-linecap="round" stroke-linejoin="round"/>
<path d="M121.88 155.32L121.55 155.64" stroke="black" stroke-width="1.77" stroke-linecap="round" stroke-linejoin="round"/>
<path d="M126.51 150.69L126.19 151.01" stroke="black" stroke-width="1.77" stroke-linecap="round" stroke-linejoin="round"/>
<g style="mix-blend-mode:multiply" opacity="0.15">
<path d="M247.75 152.7C252.579 164.579 252.746 177.843 248.218 189.839C243.689 201.836 234.798 211.681 223.324 217.405C211.849 223.129 198.637 224.31 186.329 220.712C174.021 217.114 163.525 209.003 156.94 198C159.574 204.503 163.524 210.391 168.542 215.294C173.56 220.197 179.537 224.01 186.099 226.493C192.661 228.975 199.666 230.074 206.673 229.721C213.68 229.367 220.538 227.569 226.816 224.438C233.095 221.307 238.659 216.912 243.158 211.529C247.656 206.145 250.994 199.89 252.959 193.155C254.925 186.42 255.477 179.351 254.581 172.393C253.684 165.434 251.359 158.737 247.75 152.72" fill="#FF5A00"/>
</g>
<path d="M183.91 247.32C168.298 251.172 152.048 251.677 136.226 248.803C120.405 245.929 105.371 239.741 92.1108 230.644C78.851 221.547 67.6656 209.748 59.2894 196.022C50.9132 182.295 45.5357 166.952 43.51 151" stroke="black" stroke-width="1.77" stroke-linecap="round" stroke-linejoin="round"/>
<path d="M68.23 64.8399C83.7158 45.8726 104.902 32.4008 128.647 26.4218C152.392 20.4429 177.431 22.2752 200.053 31.6471C222.675 41.019 241.674 57.4315 254.234 78.4511C266.793 99.4707 272.245 123.978 269.78 148.34" stroke="black" stroke-width="1.77" stroke-linecap="round" stroke-linejoin="round"/>
<path d="M241.2 100.59L240.86 100.24" stroke="black" stroke-width="1.77" stroke-linecap="round" stroke-linejoin="round"/>
<path d="M246.16 105.55L245.81 105.2" stroke="black" stroke-width="1.77" stroke-linecap="round" stroke-linejoin="round"/>
<path d="M241.2 105.2L240.86 105.55" stroke="black" stroke-width="1.77" stroke-linecap="round" stroke-linejoin="round"/>
<path d="M246.16 100.24L245.81 100.59" stroke="black" stroke-width="1.77" stroke-linecap="round" stroke-linejoin="round"/>
<path d="M108.08 112.06C108.08 106.433 106.411 100.933 103.285 96.2541C100.159 91.5756 95.7159 87.9291 90.5173 85.7757C85.3188 83.6224 79.5984 83.059 74.0797 84.1568C68.5609 85.2545 63.4916 87.9641 59.5128 91.9429C55.534 95.9217 52.8244 100.991 51.7267 106.51C50.6289 112.029 51.1923 117.749 53.3456 122.947C55.4989 128.146 59.1455 132.589 63.824 135.715C68.5026 138.842 74.0031 140.51 79.63 140.51C83.3661 140.51 87.0656 139.774 90.5173 138.344C93.9691 136.915 97.1054 134.819 99.7472 132.177C102.389 129.535 104.485 126.399 105.914 122.947C107.344 119.496 108.08 115.796 108.08 112.06" fill="#666666"/>
<path d="M102.72 112.07C102.72 107.501 101.365 103.034 98.8263 99.2353C96.2876 95.4363 92.6793 92.4755 88.4577 90.7274C84.2362 88.9793 79.591 88.5224 75.1098 89.4146C70.6285 90.3067 66.5125 92.5078 63.2823 95.7394C60.0521 98.9709 57.8529 103.088 56.9627 107.57C56.0725 112.051 56.5314 116.696 58.2813 120.917C60.0312 125.138 62.9935 128.745 66.7936 131.282C70.5937 133.819 75.0609 135.172 79.63 135.17C82.6631 135.17 85.6664 134.572 88.4685 133.411C91.2706 132.25 93.8164 130.549 95.9607 128.404C98.1049 126.258 99.8055 123.712 100.965 120.909C102.125 118.107 102.721 115.103 102.72 112.07" fill="black"/>
<path d="M95.37 107.83C94.4998 105.071 92.9204 102.589 90.79 100.633C88.6595 98.6759 86.0526 97.3129 83.23 96.6799" stroke="white" stroke-width="1.77" stroke-linecap="round" stroke-linejoin="round"/>
<g opacity="0.25">
<path d="M100.71 102.67C101.993 108.26 101.149 114.128 98.3413 119.13C95.5338 124.132 90.9646 127.909 85.524 129.725C80.0835 131.542 74.1615 131.267 68.9123 128.955C63.6631 126.643 59.4628 122.46 57.13 117.22C57.85 120.357 59.2183 123.309 61.1468 125.886C63.0753 128.463 65.5215 130.608 68.3283 132.183C71.135 133.758 74.2402 134.729 77.4445 135.033C80.6487 135.338 83.8812 134.968 86.9341 133.949C89.9871 132.929 92.7932 131.283 95.172 129.115C97.5509 126.947 99.4499 124.305 100.747 121.359C102.045 118.414 102.711 115.229 102.705 112.011C102.699 108.792 102.019 105.61 100.71 102.67" fill="white"/>
</g>
<path d="M300.56 128.3H294.39" stroke="white" stroke-width="1.77" stroke-linecap="round" stroke-linejoin="round"/>
<path d="M66.47 42.86L64.56 40.95" stroke="white" stroke-width="1.77" stroke-linecap="round" stroke-linejoin="round"/>
<path d="M119.88 12.24L119.1 10.33" stroke="white" stroke-width="1.77" stroke-linecap="round" stroke-linejoin="round"/>
<path d="M226.32 264.52L224.11 259.11" stroke="white" stroke-width="1.77" stroke-linecap="round" stroke-linejoin="round"/>
<path d="M32.44 193.85L30.27 194.74" stroke="white" stroke-width="1.77" stroke-linecap="round" stroke-linejoin="round"/>
<path d="M281.97 60.5701L275.91 63.0501" stroke="white" stroke-width="1.77" stroke-linecap="round" stroke-linejoin="round"/>
<path d="M115.51 257.77L114.44 260.32" stroke="white" stroke-width="1.77" stroke-linecap="round" stroke-linejoin="round"/>
<path d="M226.72 4.55005L225.18 8.23005" stroke="white" stroke-width="1.77" stroke-linecap="round" stroke-linejoin="round"/>
<path d="M139.16 7.02L137.95 0.880005" stroke="white" stroke-width="1.77" stroke-linecap="round" stroke-linejoin="round"/>
<path d="M204.35 266.09L203.73 262.94" stroke="white" stroke-width="1.77" stroke-linecap="round" stroke-linejoin="round"/>
<path d="M34.25 176.37L27.94 177.62" stroke="white" stroke-width="1.77" stroke-linecap="round" stroke-linejoin="round"/>
<path d="M57.4 53.8499L52.6 50.6399" stroke="white" stroke-width="1.77" stroke-linecap="round" stroke-linejoin="round"/>
<path d="M95.38 248.95L91.88 254.18" stroke="white" stroke-width="1.77" stroke-linecap="round" stroke-linejoin="round"/>
<path d="M247.79 10.48L243.47 16.94" stroke="white" stroke-width="1.77" stroke-linecap="round" stroke-linejoin="round"/>
<path d="M266.88 49.26L264.45 50.86" stroke="white" stroke-width="1.77" stroke-linecap="round" stroke-linejoin="round"/>
<path d="M295.24 147.89L292.34 147.3" stroke="white" stroke-width="1.77" stroke-linecap="round" stroke-linejoin="round"/>
<path d="M136.77 270.62L135.13 278.68" stroke="white" stroke-width="1.77" stroke-linecap="round" stroke-linejoin="round"/>
<path d="M97.39 21.48C97.39 22.2395 97.1648 22.9819 96.7429 23.6134C96.3209 24.2449 95.7212 24.7371 95.0195 25.0277C94.3179 25.3184 93.5458 25.3944 92.8009 25.2462C92.056 25.0981 91.3718 24.7323 90.8347 24.1953C90.2977 23.6583 89.932 22.974 89.7838 22.2292C89.6356 21.4843 89.7117 20.7122 90.0023 20.0105C90.293 19.3088 90.7852 18.7091 91.4166 18.2872C92.0481 17.8652 92.7905 17.64 93.55 17.64C94.5685 17.64 95.5452 18.0446 96.2653 18.7647C96.9855 19.4849 97.39 20.4616 97.39 21.48V21.48Z" stroke="white" stroke-width="1.77" stroke-linecap="round" stroke-linejoin="round"/>
<path d="M289.13 92.4099L297 94.4999C297.332 94.5793 297.68 94.5722 298.009 94.4793C298.338 94.3863 298.637 94.2106 298.879 93.9689C299.121 93.7272 299.296 93.4275 299.389 93.0986C299.482 92.7696 299.489 92.4224 299.41 92.0899L297.31 84.2699C297.212 83.9428 297.032 83.6462 296.787 83.4084C296.542 83.1706 296.241 82.9994 295.911 82.9112C295.581 82.823 295.234 82.8206 294.903 82.9044C294.572 82.9882 294.268 83.1554 294.02 83.3899L288.29 89.1099C288.053 89.3551 287.882 89.6571 287.794 89.9869C287.706 90.3168 287.705 90.6636 287.789 90.9944C287.873 91.3252 288.04 91.6289 288.275 91.8767C288.51 92.1245 288.804 92.308 289.13 92.4099V92.4099Z" stroke="white" stroke-width="1.77" stroke-linecap="round" stroke-linejoin="round"/>
<path d="M185.3 280.13C185.3 281.172 184.991 282.191 184.412 283.058C183.833 283.924 183.01 284.6 182.047 284.999C181.084 285.398 180.024 285.502 179.002 285.299C177.98 285.095 177.041 284.593 176.304 283.856C175.567 283.119 175.065 282.18 174.861 281.158C174.658 280.136 174.762 279.076 175.161 278.113C175.56 277.15 176.236 276.327 177.102 275.748C177.969 275.169 178.988 274.86 180.03 274.86C181.428 274.86 182.768 275.415 183.756 276.403C184.745 277.392 185.3 278.732 185.3 280.13V280.13Z" stroke="white" stroke-width="1.77" stroke-linecap="round" stroke-linejoin="round"/>
<path d="M51.53 224.54V231.18C51.5285 231.464 51.602 231.743 51.7432 231.989C51.8843 232.235 52.0881 232.44 52.3337 232.582C52.5794 232.724 52.8583 232.799 53.1422 232.799C53.426 232.798 53.7047 232.723 53.95 232.58L59.71 229.26C59.9549 229.117 60.1581 228.913 60.2993 228.667C60.4405 228.422 60.5149 228.143 60.5149 227.86C60.5149 227.577 60.4405 227.298 60.2993 227.052C60.1581 226.807 59.9549 226.603 59.71 226.46L54 223.14C53.753 222.988 53.4697 222.905 53.1797 222.899C52.8896 222.894 52.6034 222.967 52.351 223.11C52.0986 223.253 51.8893 223.461 51.7449 223.712C51.6004 223.964 51.5262 224.25 51.53 224.54V224.54Z" stroke="white" stroke-width="1.77" stroke-linecap="round" stroke-linejoin="round"/>
<path d="M95.13 173.41C95.13 174.059 94.9376 174.693 94.5772 175.232C94.2168 175.772 93.7046 176.192 93.1052 176.44C92.5059 176.688 91.8464 176.753 91.2101 176.627C90.5739 176.5 89.9894 176.188 89.5307 175.729C89.072 175.27 88.7596 174.686 88.633 174.05C88.5065 173.414 88.5714 172.754 88.8197 172.155C89.0679 171.555 89.4883 171.043 90.0277 170.683C90.5671 170.322 91.2013 170.13 91.85 170.13C92.2811 170.129 92.7082 170.213 93.1068 170.377C93.5053 170.541 93.8674 170.783 94.1723 171.088C94.4771 171.392 94.7187 171.755 94.883 172.153C95.0474 172.552 95.1313 172.979 95.13 173.41V173.41Z" stroke="white" stroke-width="1.77" stroke-linecap="round" stroke-linejoin="round"/>
<path d="M15.96 79.4L15.61 79.05" stroke="white" stroke-width="1.77" stroke-linecap="round" stroke-linejoin="round"/>
<path d="M20.91 84.36L20.57 84.01" stroke="white" stroke-width="1.77" stroke-linecap="round" stroke-linejoin="round"/>
<path d="M15.96 84.01L15.61 84.36" stroke="white" stroke-width="1.77" stroke-linecap="round" stroke-linejoin="round"/>
<path d="M20.91 79.05L20.57 79.4" stroke="white" stroke-width="1.77" stroke-linecap="round" stroke-linejoin="round"/>
<path d="M0.880005 135.66L2.15 134.39" stroke="white" stroke-width="1.77" stroke-linecap="round" stroke-linejoin="round"/>
<path d="M7.71002 128.84L8.97002 127.57" stroke="white" stroke-width="1.77" stroke-linecap="round" stroke-linejoin="round"/>
<path d="M8.97002 135.66L7.71002 134.39" stroke="white" stroke-width="1.77" stroke-linecap="round" stroke-linejoin="round"/>
<path d="M2.15 128.84L0.880005 127.57" stroke="white" stroke-width="1.77" stroke-linecap="round" stroke-linejoin="round"/>
<path d="M280.35 170.63C281.585 181.06 280.457 191.635 277.05 201.57" stroke="white" stroke-width="1.77" stroke-linecap="round" stroke-linejoin="round" stroke-dasharray="0.35 7.01"/>
<path d="M302.39 183.35L303.65 182.09" stroke="white" stroke-width="1.77" stroke-linecap="round" stroke-linejoin="round"/>
<path d="M309.21 176.53L310.47 175.27" stroke="white" stroke-width="1.77" stroke-linecap="round" stroke-linejoin="round"/>
<path d="M310.47 183.35L309.21 182.09" stroke="white" stroke-width="1.77" stroke-linecap="round" stroke-linejoin="round"/>
<path d="M303.65 176.53L302.39 175.27" stroke="white" stroke-width="1.77" stroke-linecap="round" stroke-linejoin="round"/>
<path d="M192.54 9.28003C215.487 15.5392 236.294 27.9372 252.72 45.14" stroke="white" stroke-width="1.77" stroke-linecap="round" stroke-linejoin="round" stroke-dasharray="0.35 7.01"/>
<path d="M297.12 233.35C299.944 236.175 301.952 239.711 302.931 243.584C303.91 247.457 303.823 251.522 302.68 255.35" stroke="white" stroke-width="1.77" stroke-linecap="round" stroke-linejoin="round" stroke-dasharray="0.35 7.01"/>
<path d="M291.73 137.14H285.55" stroke="black" stroke-width="1.77" stroke-linecap="round" stroke-linejoin="round"/>
<path d="M57.63 44.63L55.72 42.72" stroke="black" stroke-width="1.77" stroke-linecap="round" stroke-linejoin="round"/>
<path d="M111.04 12.24L110.26 10.33" stroke="black" stroke-width="1.77" stroke-linecap="round" stroke-linejoin="round"/>
<path d="M213.95 260.98L211.73 255.58" stroke="black" stroke-width="1.77" stroke-linecap="round" stroke-linejoin="round"/>
<path d="M34.21 185.01L32.03 185.9" stroke="black" stroke-width="1.77" stroke-linecap="round" stroke-linejoin="round"/>
<path d="M276.67 71.1699L270.61 73.6599" stroke="black" stroke-width="1.77" stroke-linecap="round" stroke-linejoin="round"/>
<path d="M104.9 256L103.83 258.55" stroke="black" stroke-width="1.77" stroke-linecap="round" stroke-linejoin="round"/>
<path d="M216.12 6.31006L214.57 10.0001" stroke="black" stroke-width="1.77" stroke-linecap="round" stroke-linejoin="round"/>
<path d="M130.33 7.02L129.11 0.880005" stroke="black" stroke-width="1.77" stroke-linecap="round" stroke-linejoin="round"/>
<path d="M195.51 262.55L194.89 259.41" stroke="black" stroke-width="1.77" stroke-linecap="round" stroke-linejoin="round"/>
<path d="M30.71 169.3L24.4 170.55" stroke="black" stroke-width="1.77" stroke-linecap="round" stroke-linejoin="round"/>
<path d="M48.56 55.6199L43.76 52.4099" stroke="black" stroke-width="1.77" stroke-linecap="round" stroke-linejoin="round"/>
<path d="M84.78 245.41L81.27 250.65" stroke="black" stroke-width="1.77" stroke-linecap="round" stroke-linejoin="round"/>
<path d="M235.41 10.48L231.09 16.94" stroke="black" stroke-width="1.77" stroke-linecap="round" stroke-linejoin="round"/>
<path d="M266.88 61.6299L264.45 63.2399" stroke="black" stroke-width="1.77" stroke-linecap="round" stroke-linejoin="round"/>
<path d="M286.4 153.19L283.5 152.61" stroke="black" stroke-width="1.77" stroke-linecap="round" stroke-linejoin="round"/>
<path d="M126.16 261.78L124.52 269.84" stroke="black" stroke-width="1.77" stroke-linecap="round" stroke-linejoin="round"/>
<path d="M83.25 23.25C83.25 24.0095 83.0248 24.7519 82.6029 25.3834C82.1809 26.0149 81.5812 26.5071 80.8795 26.7977C80.1778 27.0884 79.4057 27.1644 78.6609 27.0163C77.916 26.8681 77.2318 26.5024 76.6947 25.9653C76.1577 25.4283 75.792 24.7441 75.6438 23.9992C75.4956 23.2543 75.5717 22.4822 75.8623 21.7805C76.153 21.0789 76.6451 20.4791 77.2766 20.0572C77.9081 19.6352 78.6505 19.41 79.41 19.41C80.4284 19.41 81.4052 19.8146 82.1253 20.5347C82.8454 21.2549 83.25 22.2316 83.25 23.25V23.25Z" stroke="black" stroke-width="1.77" stroke-linecap="round" stroke-linejoin="round"/>
<path d="M284 111.74L291.82 113.84C292.153 113.92 292.502 113.913 292.832 113.82C293.162 113.726 293.462 113.55 293.704 113.307C293.946 113.064 294.122 112.762 294.214 112.432C294.306 112.102 294.312 111.753 294.23 111.42L292.13 103.6C292.032 103.273 291.852 102.976 291.607 102.738C291.362 102.501 291.061 102.329 290.731 102.241C290.401 102.153 290.054 102.151 289.723 102.235C289.392 102.318 289.088 102.485 288.84 102.72L283.11 108.45C282.876 108.699 282.709 109.003 282.626 109.335C282.542 109.667 282.546 110.014 282.635 110.344C282.724 110.674 282.897 110.975 283.136 111.22C283.375 111.464 283.672 111.643 284 111.74V111.74Z" stroke="black" stroke-width="1.77" stroke-linecap="round" stroke-linejoin="round"/>
<path d="M169.43 271.36C169.43 272.404 169.12 273.425 168.54 274.293C167.96 275.162 167.135 275.839 166.171 276.238C165.206 276.638 164.144 276.742 163.12 276.539C162.096 276.335 161.155 275.832 160.416 275.094C159.678 274.355 159.175 273.414 158.971 272.39C158.768 271.366 158.872 270.304 159.272 269.34C159.672 268.375 160.348 267.55 161.217 266.97C162.085 266.39 163.106 266.08 164.15 266.08C164.844 266.079 165.531 266.214 166.172 266.479C166.813 266.744 167.396 267.133 167.886 267.624C168.377 268.114 168.766 268.697 169.031 269.338C169.296 269.979 169.431 270.666 169.43 271.36V271.36Z" stroke="black" stroke-width="1.77" stroke-linecap="round" stroke-linejoin="round"/>
<path d="M33.25 214.73L34.6 221.23C34.6596 221.507 34.7907 221.763 34.9802 221.974C35.1697 222.184 35.411 222.341 35.6802 222.429C35.9493 222.517 36.2368 222.533 36.514 222.475C36.7912 222.418 37.0484 222.288 37.26 222.1L42.26 217.68C42.4704 217.491 42.6275 217.249 42.7155 216.98C42.8036 216.711 42.8196 216.424 42.7619 216.146C42.7042 215.869 42.5749 215.612 42.3869 215.4C42.1988 215.189 41.9585 215.03 41.69 214.94L35.37 212.86C35.0982 212.761 34.8047 212.737 34.5205 212.791C34.2363 212.845 33.9719 212.974 33.7549 213.166C33.538 213.357 33.3767 213.603 33.2878 213.879C33.1989 214.154 33.1859 214.448 33.25 214.73Z" stroke="black" stroke-width="1.77" stroke-linecap="round" stroke-linejoin="round"/>
<path d="M86.29 173.41C86.29 174.058 86.0979 174.692 85.7379 175.231C85.3779 175.77 84.8662 176.191 84.2675 176.439C83.6687 176.688 83.0097 176.753 82.3738 176.628C81.7378 176.502 81.1533 176.19 80.6942 175.733C80.2351 175.275 79.9219 174.692 79.7942 174.056C79.6665 173.42 79.7301 172.761 79.9768 172.162C80.2235 171.562 80.6424 171.049 81.1804 170.688C81.7185 170.326 82.3517 170.132 83 170.13C83.4319 170.127 83.8601 170.21 84.2598 170.374C84.6595 170.538 85.0228 170.779 85.3287 171.084C85.6346 171.389 85.8771 171.752 86.0421 172.151C86.207 172.55 86.2913 172.978 86.29 173.41V173.41Z" stroke="black" stroke-width="1.77" stroke-linecap="round" stroke-linejoin="round"/>
<path d="M24.8 68.79L24.45 68.45" stroke="black" stroke-width="1.77" stroke-linecap="round" stroke-linejoin="round"/>
<path d="M29.75 73.7499L29.41 73.3999" stroke="black" stroke-width="1.77" stroke-linecap="round" stroke-linejoin="round"/>
<path d="M24.8 73.3999L24.45 73.7499" stroke="black" stroke-width="1.77" stroke-linecap="round" stroke-linejoin="round"/>
<path d="M29.75 68.45L29.41 68.79" stroke="black" stroke-width="1.77" stroke-linecap="round" stroke-linejoin="round"/>
<path d="M6.19 153.34L7.45 152.07" stroke="black" stroke-width="1.77" stroke-linecap="round" stroke-linejoin="round"/>
<path d="M13.01 146.52L14.27 145.25" stroke="black" stroke-width="1.77" stroke-linecap="round" stroke-linejoin="round"/>
<path d="M14.27 153.34L13.01 152.07" stroke="black" stroke-width="1.77" stroke-linecap="round" stroke-linejoin="round"/>
<path d="M7.45 146.52L6.19 145.25" stroke="black" stroke-width="1.77" stroke-linecap="round" stroke-linejoin="round"/>
<path d="M274.25 170.63C275.485 181.06 274.357 191.635 270.95 201.57M291.31 236.08C294.136 238.904 296.145 242.44 297.124 246.313C298.103 250.186 298.015 254.252 296.87 258.08" stroke="black" stroke-width="1.77" stroke-linecap="round" stroke-linejoin="round" stroke-dasharray="0.35 7.01"/>
<path d="M295.32 199.26L296.58 198" stroke="black" stroke-width="1.77" stroke-linecap="round" stroke-linejoin="round"/>
<path d="M302.14 192.44L303.4 191.18" stroke="black" stroke-width="1.77" stroke-linecap="round" stroke-linejoin="round"/>
<path d="M303.4 199.26L302.14 198" stroke="black" stroke-width="1.77" stroke-linecap="round" stroke-linejoin="round"/>
<path d="M296.58 192.44L295.31 191.18" stroke="black" stroke-width="1.77" stroke-linecap="round" stroke-linejoin="round"/>
<path d="M189 14.58C211.944 20.8408 232.746 33.2387 249.17 50.44" stroke="black" stroke-width="1.77" stroke-linecap="round" stroke-linejoin="round" stroke-dasharray="0.35 7.01"/>
<path d="M194 80.4899C194 81.2494 193.775 81.9918 193.353 82.6233C192.931 83.2548 192.331 83.747 191.63 84.0376C190.928 84.3282 190.156 84.4043 189.411 84.2561C188.666 84.108 187.982 83.7422 187.445 83.2052C186.908 82.6682 186.542 81.9839 186.394 81.239C186.246 80.4942 186.322 79.7221 186.612 79.0204C186.903 78.3187 187.395 77.719 188.027 77.2971C188.658 76.8751 189.401 76.6499 190.16 76.6499C191.178 76.6499 192.155 77.0545 192.875 77.7746C193.595 78.4948 194 79.4715 194 80.4899Z" stroke="white" stroke-width="1.77" stroke-linecap="round" stroke-linejoin="round"/>
<path d="M183.43 73.4201C183.43 74.1796 183.205 74.922 182.783 75.5535C182.361 76.185 181.761 76.6771 181.06 76.9678C180.358 77.2584 179.586 77.3345 178.841 77.1863C178.096 77.0381 177.412 76.6724 176.875 76.1354C176.338 75.5983 175.972 74.9141 175.824 74.1692C175.676 73.4243 175.752 72.6522 176.042 71.9506C176.333 71.2489 176.825 70.6492 177.457 70.2272C178.088 69.8053 178.831 69.5801 179.59 69.5801C180.608 69.5801 181.585 69.9846 182.305 70.7048C183.025 71.4249 183.43 72.4016 183.43 73.4201Z" stroke="black" stroke-width="1.77" stroke-linecap="round" stroke-linejoin="round"/>
<path d="M203.32 205.87C201.989 205.87 200.688 205.475 199.581 204.736C198.474 203.996 197.612 202.945 197.102 201.715C196.593 200.486 196.46 199.132 196.719 197.827C196.979 196.521 197.62 195.322 198.561 194.381C199.502 193.44 200.702 192.799 202.007 192.539C203.313 192.28 204.666 192.413 205.895 192.922C207.125 193.432 208.176 194.294 208.916 195.401C209.655 196.508 210.05 197.809 210.05 199.14C210.05 200.925 209.341 202.637 208.079 203.899C206.817 205.161 205.105 205.87 203.32 205.87V205.87Z" stroke="black" stroke-width="1.77" stroke-linecap="round" stroke-linejoin="round"/>
<path d="M192.86 215.32C193.444 213.824 194.465 212.538 195.791 211.63C197.116 210.722 198.684 210.234 200.29 210.23H206.34C207.946 210.234 209.514 210.722 210.839 211.63C212.164 212.538 213.186 213.824 213.77 215.32" stroke="black" stroke-width="1.77" stroke-linecap="round" stroke-linejoin="round"/>
<path d="M179.58 199.06C178.248 199.062 176.946 198.669 175.838 197.931C174.73 197.192 173.866 196.142 173.355 194.912C172.844 193.683 172.71 192.329 172.968 191.023C173.227 189.717 173.867 188.517 174.808 187.575C175.748 186.633 176.948 185.991 178.253 185.73C179.559 185.47 180.913 185.602 182.143 186.111C183.373 186.621 184.425 187.483 185.165 188.59C185.905 189.697 186.3 190.999 186.3 192.33C186.3 194.113 185.592 195.824 184.332 197.085C183.072 198.347 181.363 199.057 179.58 199.06V199.06Z" stroke="black" stroke-width="1.77" stroke-linecap="round" stroke-linejoin="round"/>
<path d="M169.12 208.51C169.704 207.014 170.725 205.728 172.051 204.82C173.376 203.912 174.944 203.424 176.55 203.42H182.55C184.156 203.424 185.724 203.912 187.049 204.82C188.374 205.728 189.396 207.014 189.98 208.51" stroke="black" stroke-width="1.77" stroke-linecap="round" stroke-linejoin="round"/>
<path d="M227.06 199.68C225.729 199.68 224.427 199.285 223.32 198.545C222.213 197.805 221.35 196.753 220.841 195.523C220.332 194.293 220.2 192.939 220.46 191.633C220.721 190.328 221.363 189.128 222.305 188.188C223.247 187.247 224.447 186.607 225.753 186.348C227.059 186.09 228.413 186.224 229.642 186.735C230.872 187.246 231.922 188.11 232.661 189.218C233.399 190.326 233.792 191.628 233.79 192.96C233.79 193.843 233.616 194.718 233.278 195.534C232.939 196.35 232.443 197.091 231.818 197.715C231.193 198.339 230.451 198.834 229.635 199.171C228.818 199.508 227.943 199.681 227.06 199.68V199.68Z" stroke="black" stroke-width="1.77" stroke-linecap="round" stroke-linejoin="round"/>
<path d="M216.61 209.13C217.185 207.633 218.198 206.343 219.516 205.428C220.833 204.513 222.396 204.016 224 204H230.05C231.655 204.006 233.22 204.495 234.543 205.403C235.867 206.311 236.886 207.595 237.47 209.09" stroke="black" stroke-width="1.77" stroke-linecap="round" stroke-linejoin="round"/>
<path d="M196.34 164.09L202.01 169.77L211.28 160.5" stroke="black" stroke-width="1.77" stroke-linecap="round" stroke-linejoin="round"/>
<path d="M203.32 144.61C203.32 144.61 194.55 151.41 187.25 151.41V168.64C187.19 170.281 187.513 171.914 188.193 173.408C188.873 174.903 189.893 176.218 191.17 177.25C193.73 179.15 201.39 184.2 201.71 184.41L203.32 185.47L204.92 184.41C205.25 184.2 212.92 179.15 215.47 177.25C216.746 176.217 217.764 174.901 218.444 173.407C219.124 171.913 219.448 170.281 219.39 168.64V151.41C212.08 151.41 203.32 144.61 203.32 144.61Z" stroke="black" stroke-width="1.77" stroke-linecap="round" stroke-linejoin="round"/>
</g>
<defs>
<clipPath id="clip0_16_2524">
<rect width="311.36" height="286.29" fill="white"/>
</clipPath>
</defs>
</svg>
