<svg width="298" height="287" viewBox="0 0 298 287" fill="none" xmlns="http://www.w3.org/2000/svg">
<g clip-path="url(#clip0_16_2959)">
<path d="M262.091 140.367C262.091 163.29 255.293 185.699 242.558 204.758C229.823 223.818 211.721 238.673 190.543 247.446C169.365 256.218 146.062 258.513 123.579 254.041C101.097 249.569 80.4452 238.53 64.2362 222.321C48.0272 206.113 36.9888 185.461 32.5167 162.979C28.0447 140.496 30.3399 117.192 39.1121 96.0143C47.8844 74.8363 62.7396 56.7351 81.7993 43.9998C100.859 31.2645 123.267 24.467 146.19 24.467C176.929 24.467 206.409 36.6779 228.144 58.4135C249.88 80.1491 262.091 109.629 262.091 140.367Z" fill="#959595"/>
<path d="M246.821 146.706C246.821 167.145 240.761 187.124 229.406 204.117C218.051 221.111 201.912 234.356 183.03 242.177C164.147 249.999 143.37 252.045 123.324 248.058C103.279 244.071 84.8659 234.229 70.414 219.777C55.962 205.325 46.1201 186.912 42.1329 166.867C38.1456 146.821 40.192 126.043 48.0133 107.161C55.8347 88.2787 69.0796 72.1396 86.0733 60.7848C103.067 49.43 123.046 43.3694 143.484 43.3694C170.891 43.3694 197.175 54.2567 216.555 73.6361C235.934 93.0156 246.821 119.3 246.821 146.706" fill="white"/>
<path d="M223.091 170.189C223.091 170.246 223.091 170.303 223.043 170.361" stroke="black" stroke-width="1.8" stroke-linecap="round" stroke-linejoin="round"/>
<path d="M221.121 176.882C216.535 189.828 208.072 201.047 196.884 209.014C185.696 216.981 172.325 221.308 158.591 221.408" stroke="black" stroke-width="1.8" stroke-linecap="round" stroke-linejoin="round" stroke-dasharray="0.35 7.07"/>
<path d="M155.216 221.322H155.044" stroke="black" stroke-width="1.8" stroke-linecap="round" stroke-linejoin="round"/>
<path d="M95.975 130.453C95.975 130.395 96.0228 130.347 96.0419 130.29" stroke="black" stroke-width="1.8" stroke-linecap="round" stroke-linejoin="round"/>
<path d="M98.9963 123.807C106.634 109.228 119.359 97.9593 134.755 92.1409" stroke="black" stroke-width="1.8" stroke-linecap="round" stroke-linejoin="round" stroke-dasharray="0.37 7.45"/>
<path d="M138.13 90.9746L138.293 90.9268" stroke="black" stroke-width="1.8" stroke-linecap="round" stroke-linejoin="round"/>
<path d="M219.324 154.642C219.324 166.735 215.738 178.557 209.019 188.612C202.3 198.667 192.751 206.504 181.579 211.132C170.406 215.759 158.112 216.97 146.251 214.611C134.391 212.252 123.496 206.428 114.945 197.877C106.394 189.326 100.57 178.431 98.2111 166.571C95.8519 154.71 97.0627 142.416 101.691 131.244C106.318 120.071 114.155 110.522 124.21 103.803C134.265 97.0845 146.087 93.4985 158.18 93.4985C166.213 93.4985 174.168 95.0816 181.59 98.1574C189.011 101.233 195.754 105.741 201.432 111.424C207.11 117.107 211.613 123.853 214.683 131.277C217.753 138.7 219.33 146.656 219.324 154.69" fill="#959595"/>
<g style="mix-blend-mode:multiply" opacity="0.1">
<path d="M151.066 232.222C151.592 231.504 151.958 230.682 152.14 229.811C152.321 228.941 152.314 228.041 152.118 227.173V227.173C151.907 226.261 151.492 225.409 150.904 224.68C150.316 223.952 149.571 223.366 148.724 222.966C148.967 222.086 149.011 221.162 148.854 220.263C148.697 219.363 148.342 218.509 147.816 217.763C147.289 217.017 146.603 216.397 145.808 215.947C145.013 215.498 144.128 215.231 143.217 215.164C143.081 214.262 142.747 213.401 142.239 212.643C141.73 211.885 141.06 211.249 140.276 210.782C139.492 210.315 138.615 210.027 137.706 209.94C136.798 209.853 135.881 209.969 135.023 210.279C134.623 209.597 134.097 208.996 133.474 208.51V146.888C133.461 144.863 132.651 142.925 131.22 141.493C129.788 140.062 127.85 139.252 125.825 139.239H70.5996C70.0723 139.24 69.5668 139.449 69.1941 139.822L51.2191 157.759C51.0311 157.944 50.8818 158.164 50.78 158.407C50.6783 158.65 50.626 158.911 50.6263 159.174V244.364C50.6389 246.389 51.4488 248.327 52.8805 249.759C54.3123 251.191 56.2505 252.001 58.2753 252.013H110.049C110.416 253.203 111.137 254.253 112.114 255.025L107.458 275.151C107.415 275.339 107.423 275.535 107.481 275.719C107.54 275.902 107.646 276.067 107.789 276.196C107.933 276.325 108.108 276.413 108.297 276.451C108.486 276.489 108.681 276.476 108.863 276.413L119.008 272.837L126.542 280.486C126.643 280.589 126.764 280.671 126.897 280.726C127.03 280.782 127.172 280.811 127.316 280.811C127.412 280.826 127.508 280.826 127.603 280.811C127.789 280.76 127.958 280.659 128.091 280.52C128.224 280.38 128.317 280.206 128.359 280.018L131.036 268.669L131.791 270.973C131.852 271.157 131.962 271.322 132.108 271.449C132.254 271.577 132.432 271.664 132.623 271.7H132.814C132.975 271.698 133.134 271.661 133.279 271.592C133.424 271.522 133.553 271.422 133.656 271.298L138.178 265.686L145.177 267.397C145.363 267.443 145.557 267.438 145.74 267.383C145.924 267.327 146.089 267.224 146.219 267.084C146.348 266.943 146.438 266.77 146.479 266.583C146.519 266.396 146.509 266.202 146.448 266.02L142.509 253.945C143.674 252.889 144.393 251.429 144.517 249.862C145.397 249.729 146.239 249.408 146.984 248.921C147.73 248.435 148.362 247.794 148.839 247.041C149.337 246.249 149.648 245.352 149.748 244.421C149.847 243.49 149.732 242.548 149.412 241.668C150.207 241.216 150.891 240.594 151.416 239.846C151.941 239.098 152.294 238.244 152.45 237.343C152.605 236.443 152.559 235.519 152.315 234.638C152.071 233.758 151.635 232.942 151.038 232.25" fill="black"/>
</g>
<path d="M110.757 247.529L105.096 271.987L115.881 268.191L123.903 276.337L129.85 250.636L110.757 247.529Z" fill="black"/>
<path d="M110.757 247.529L105.096 271.987L115.881 268.191L123.903 276.337L129.85 250.636L110.757 247.529Z" stroke="black" stroke-width="1.8" stroke-linecap="round" stroke-linejoin="round"/>
<path d="M136.333 245.598L123.368 248.801L129.372 267.149L134.325 261.01L141.983 262.884L136.333 245.598Z" fill="black"/>
<path d="M136.333 245.598L123.368 248.801L129.372 267.149L134.325 261.01L141.983 262.884L136.333 245.598Z" stroke="black" stroke-width="1.8" stroke-linecap="round" stroke-linejoin="round"/>
<path d="M158.84 235.472L158.495 235.138" stroke="black" stroke-width="1.8" stroke-linecap="round" stroke-linejoin="round"/>
<path d="M163.668 240.301L163.324 239.966" stroke="black" stroke-width="1.8" stroke-linecap="round" stroke-linejoin="round"/>
<path d="M158.84 239.966L158.495 240.301" stroke="black" stroke-width="1.8" stroke-linecap="round" stroke-linejoin="round"/>
<path d="M163.668 235.138L163.324 235.472" stroke="black" stroke-width="1.8" stroke-linecap="round" stroke-linejoin="round"/>
<g style="mix-blend-mode:multiply" opacity="0.1">
<path d="M156.124 149.059C146.552 136.839 141.899 121.48 143.08 106.003C144.262 90.5252 151.192 76.0502 162.509 65.4255C173.825 54.8007 188.708 48.7953 204.229 48.5908C219.75 48.3864 234.785 53.9975 246.378 64.3205C257.97 74.6434 265.28 88.9307 266.869 104.372C268.458 119.812 264.211 135.289 254.963 147.756C245.716 160.224 232.138 168.779 216.901 171.74C201.663 174.7 185.87 171.852 172.627 163.754C164.15 168.122 154.912 170.817 145.416 171.69C145.264 171.707 145.11 171.677 144.975 171.606C144.84 171.535 144.729 171.425 144.657 171.29C144.585 171.155 144.555 171.002 144.571 170.85C144.587 170.698 144.648 170.554 144.746 170.437C147.328 167.263 153.524 158.964 156.124 149.059" fill="black"/>
</g>
<path d="M156.124 142.356C146.552 130.137 141.899 114.778 143.08 99.3003C144.262 83.8229 151.192 69.348 162.509 58.7232C173.825 48.0984 188.708 42.0931 204.229 41.8886C219.75 41.6841 234.785 47.2953 246.378 57.6182C257.97 67.9411 265.28 82.2284 266.869 97.6693C268.458 113.11 264.211 128.587 254.963 141.054C245.716 153.521 232.138 162.077 216.901 165.037C201.663 167.998 185.87 165.149 172.627 157.052C163.62 161.742 153.726 164.485 143.59 165.102C143.59 165.102 152.797 154.967 156.124 142.356" fill="white"/>
<path d="M156.124 142.356C146.552 130.137 141.899 114.778 143.08 99.3003C144.262 83.8229 151.192 69.348 162.509 58.7232C173.825 48.0984 188.708 42.0931 204.229 41.8886C219.75 41.6841 234.785 47.2953 246.378 57.6182C257.97 67.9411 265.28 82.2284 266.869 97.6693C268.458 113.11 264.211 128.587 254.963 141.054C245.716 153.521 232.138 162.077 216.901 165.037C201.663 167.998 185.87 165.149 172.627 157.052C163.62 161.742 153.726 164.485 143.59 165.102C143.59 165.102 152.797 154.967 156.124 142.356Z" stroke="black" stroke-width="1.8" stroke-linecap="round" stroke-linejoin="round"/>
<g style="mix-blend-mode:multiply" opacity="0.1">
<path d="M145.11 111.799C145.368 97.1143 150.815 82.995 160.486 71.9414C170.156 60.8877 183.426 53.6129 197.946 51.4052C212.466 49.1974 227.299 52.1992 239.818 59.8789C252.337 67.5587 261.734 79.4208 266.345 93.3648C264.807 85.0097 261.572 77.0587 256.84 70.003C252.108 62.9473 245.98 56.9366 238.834 52.3424C231.688 47.7481 223.676 44.6677 215.292 43.2916C206.909 41.9154 198.332 42.2727 190.092 44.3414C181.853 46.41 174.124 50.1461 167.385 55.3188C160.646 60.4915 155.039 66.991 150.91 74.4159C146.781 81.8407 144.219 90.0332 143.381 98.4873C142.543 106.941 143.447 115.478 146.037 123.569C145.345 119.685 145.025 115.743 145.081 111.799" fill="black"/>
</g>
<path d="M61.7078 164.901H115.48" stroke="black" stroke-width="1.8" stroke-linecap="round" stroke-linejoin="round"/>
<path d="M122.306 136.83H67.1576C66.9148 136.833 66.6823 136.929 66.5075 137.098L48.5325 155.073C48.3616 155.25 48.2658 155.486 48.2648 155.732V240.941C48.2648 242.694 48.9608 244.374 50.1998 245.613C51.4389 246.852 53.1193 247.548 54.8715 247.548H128.923V143.418C128.923 141.663 128.226 139.98 126.985 138.739C125.744 137.498 124.061 136.801 122.306 136.801" fill="white"/>
<path d="M122.306 136.83H67.1576C66.9148 136.833 66.6823 136.929 66.5075 137.098L48.5325 155.073C48.3616 155.25 48.2658 155.486 48.2648 155.732V240.941C48.2648 242.694 48.9608 244.374 50.1998 245.613C51.4389 246.852 53.1193 247.548 54.8715 247.548H128.923V143.417C128.915 141.668 128.215 139.992 126.975 138.758C125.735 137.523 124.056 136.83 122.306 136.83Z" stroke="black" stroke-width="1.8" stroke-linecap="round" stroke-linejoin="round"/>
<path d="M48.2648 155.35H62.7021C63.2416 155.351 63.776 155.246 64.2747 155.04C64.7735 154.835 65.2268 154.533 65.6087 154.152C65.9906 153.771 66.2936 153.318 66.5003 152.82C66.707 152.322 66.8134 151.788 66.8134 151.248V136.83L48.2648 155.35Z" fill="#666666"/>
<path d="M81.9966 164.557H115.48" stroke="black" stroke-width="1.8" stroke-linecap="round" stroke-linejoin="round"/>
<path d="M61.7078 164.557H75.9635" stroke="black" stroke-width="1.8" stroke-linecap="round" stroke-linejoin="round"/>
<path d="M61.7078 204.857H90.2287" stroke="black" stroke-width="1.8" stroke-linecap="round" stroke-linejoin="round"/>
<path d="M76.4797 181.088H115.48" stroke="black" stroke-width="1.8" stroke-linecap="round" stroke-linejoin="round"/>
<path d="M61.7078 181.088H70.4562" stroke="black" stroke-width="1.8" stroke-linecap="round" stroke-linejoin="round"/>
<path d="M100.383 174.549H115.48" stroke="black" stroke-width="1.8" stroke-linecap="round" stroke-linejoin="round"/>
<path d="M61.7078 172.828H94.2253" stroke="black" stroke-width="1.8" stroke-linecap="round" stroke-linejoin="round"/>
<path d="M88.5938 188.67H115.48" stroke="black" stroke-width="1.8" stroke-linecap="round" stroke-linejoin="round"/>
<path d="M61.7078 188.67H82.293" stroke="black" stroke-width="1.8" stroke-linecap="round" stroke-linejoin="round"/>
<path d="M105.096 198.662H115.48" stroke="black" stroke-width="1.8" stroke-linecap="round" stroke-linejoin="round"/>
<path d="M79.2811 196.941H98.8815" stroke="black" stroke-width="1.8" stroke-linecap="round" stroke-linejoin="round"/>
<path d="M61.7078 196.941H73.0377" stroke="black" stroke-width="1.8" stroke-linecap="round" stroke-linejoin="round"/>
<path d="M65.1498 225.902C66.2589 225.118 67.6931 223.684 68.7448 223.77C69.4523 223.827 69.3567 225.089 70.0164 225.338C70.4084 225.481 70.81 225.175 71.1159 224.888L72.6649 223.425C73.1269 222.944 73.6708 222.549 74.2711 222.259C74.5751 222.114 74.912 222.051 75.2478 222.078C75.5836 222.105 75.9063 222.22 76.1834 222.412C76.5938 222.833 76.9185 223.33 77.1395 223.875C77.4263 224.382 77.9617 224.831 78.5259 224.716C78.7791 224.627 79.0059 224.476 79.1856 224.276C81.6201 222.499 84.3039 221.091 87.15 220.098" stroke="black" stroke-width="1.8" stroke-linecap="round" stroke-linejoin="round"/>
<path d="M41.897 178.612C35.1617 158.906 34.1105 137.702 38.8639 117.426C43.6173 97.151 53.9831 78.6234 68.7749 63.9642C83.5668 49.305 102.187 39.1065 122.505 34.5361C142.822 29.9656 164.016 31.2077 183.66 38.1204" stroke="black" stroke-width="1.8" stroke-linecap="round" stroke-linejoin="round"/>
<path d="M257.396 149.269C255.733 177.175 243.584 203.422 223.385 222.749C203.186 242.076 176.428 253.055 148.475 253.486" stroke="black" stroke-width="1.8" stroke-linecap="round" stroke-linejoin="round"/>
<g opacity="0.15">
<path d="M118.979 271.336L123.903 276.337L129.85 250.636L124.152 249.709L118.979 271.336Z" fill="white"/>
</g>
<g opacity="0.15">
<path d="M136.333 245.598L132.671 246.506L137.958 261.899L141.983 262.884L136.333 245.598Z" fill="white"/>
</g>
<path d="M147.596 223.97C147.386 223.05 146.926 222.206 146.266 221.531C145.606 220.856 144.773 220.376 143.857 220.146C144.266 219.325 144.447 218.41 144.38 217.495C144.312 216.581 144 215.701 143.476 214.949C142.952 214.197 142.235 213.6 141.4 213.221C140.565 212.841 139.644 212.694 138.733 212.793C138.763 211.877 138.547 210.97 138.105 210.167C137.664 209.364 137.014 208.694 136.224 208.229C135.434 207.764 134.534 207.521 133.617 207.525C132.701 207.529 131.802 207.78 131.017 208.252C130.726 207.382 130.206 206.606 129.512 206.006C128.818 205.406 127.975 205.005 127.072 204.843C126.169 204.682 125.24 204.767 124.381 205.089C123.522 205.411 122.766 205.959 122.192 206.674C121.566 206.003 120.771 205.514 119.89 205.257C119.009 205.001 118.075 204.987 117.187 205.217C116.299 205.447 115.49 205.913 114.844 206.565C114.199 207.217 113.741 208.031 113.52 208.921C112.699 208.512 111.784 208.332 110.869 208.399C109.955 208.466 109.075 208.778 108.323 209.302C107.571 209.826 106.974 210.544 106.594 211.378C106.215 212.213 106.068 213.134 106.167 214.046C105.25 214.014 104.341 214.23 103.536 214.672C102.731 215.114 102.061 215.765 101.596 216.556C101.131 217.348 100.888 218.25 100.893 219.168C100.898 220.086 101.151 220.985 101.626 221.771C100.753 222.058 99.9747 222.575 99.3725 223.268C98.7703 223.961 98.3669 224.804 98.2052 225.708C98.0434 226.612 98.1293 227.543 98.4538 228.401C98.7782 229.26 99.3291 230.015 100.048 230.587C99.3772 231.212 98.8877 232.008 98.6313 232.889C98.3749 233.769 98.361 234.703 98.5911 235.591C98.8212 236.479 99.2867 237.289 99.9386 237.934C100.591 238.58 101.405 239.037 102.295 239.259C101.883 240.079 101.7 240.995 101.765 241.911C101.831 242.827 102.142 243.708 102.667 244.461C103.192 245.214 103.911 245.812 104.748 246.19C105.584 246.569 106.507 246.714 107.42 246.611C107.389 247.527 107.605 248.435 108.047 249.238C108.488 250.041 109.138 250.71 109.928 251.175C110.718 251.64 111.618 251.883 112.535 251.879C113.451 251.875 114.35 251.624 115.136 251.153C115.424 252.025 115.942 252.803 116.636 253.405C117.33 254.007 118.174 254.41 119.078 254.571C119.982 254.733 120.913 254.647 121.773 254.323C122.632 253.999 123.388 253.449 123.961 252.73C124.586 253.401 125.382 253.891 126.262 254.147C127.143 254.403 128.077 254.417 128.965 254.187C129.853 253.957 130.663 253.492 131.308 252.84C131.954 252.188 132.411 251.374 132.632 250.483C133.453 250.896 134.369 251.079 135.285 251.013C136.201 250.948 137.082 250.636 137.835 250.111C138.588 249.586 139.186 248.867 139.564 248.031C139.943 247.194 140.088 246.271 139.985 245.359C140.902 245.393 141.811 245.178 142.617 244.738C143.422 244.297 144.092 243.647 144.558 242.856C145.024 242.065 145.266 241.163 145.261 240.245C145.255 239.327 145.002 238.428 144.527 237.643C145.399 237.355 146.177 236.836 146.779 236.142C147.381 235.448 147.784 234.605 147.945 233.7C148.107 232.796 148.021 231.865 147.697 231.006C147.373 230.146 146.823 229.39 146.104 228.818C146.757 228.208 147.238 227.438 147.5 226.584C147.761 225.73 147.794 224.822 147.596 223.951" fill="#666666"/>
<path d="M126.618 245.645C123.474 246.367 120.187 246.14 117.172 244.994C114.157 243.847 111.549 241.832 109.679 239.204C107.809 236.575 106.76 233.451 106.665 230.227C106.571 227.002 107.434 223.822 109.146 221.088C110.859 218.355 113.343 216.19 116.286 214.868C119.229 213.546 122.497 213.127 125.678 213.662C128.859 214.198 131.81 215.665 134.157 217.878C136.505 220.09 138.144 222.949 138.866 226.093C139.346 228.181 139.41 230.343 139.055 232.456C138.699 234.569 137.93 236.591 136.793 238.406C135.656 240.222 134.172 241.796 132.426 243.038C130.68 244.28 128.707 245.166 126.618 245.645Z" fill="white"/>
<path d="M126.618 245.645C123.474 246.367 120.187 246.14 117.172 244.994C114.157 243.847 111.549 241.832 109.679 239.204C107.809 236.575 106.76 233.451 106.665 230.227C106.571 227.002 107.434 223.822 109.146 221.088C110.859 218.355 113.343 216.19 116.286 214.868C119.229 213.546 122.497 213.127 125.678 213.662C128.859 214.198 131.81 215.665 134.157 217.878C136.505 220.09 138.144 222.949 138.866 226.093C139.346 228.181 139.41 230.343 139.055 232.456C138.699 234.569 137.93 236.591 136.793 238.406C135.656 240.222 134.172 241.796 132.426 243.038C130.68 244.28 128.707 245.166 126.618 245.645Z" stroke="black" stroke-width="1.8" stroke-linecap="round" stroke-linejoin="round"/>
<g style="mix-blend-mode:multiply" opacity="0.1">
<path d="M137.031 226.513C136.312 223.38 134.561 220.578 132.059 218.559C134.666 221.269 136.103 224.896 136.062 228.657C136.021 232.417 134.504 236.011 131.838 238.664C129.173 241.317 125.572 242.817 121.811 242.841C118.05 242.864 114.43 241.41 111.732 238.79C113.779 241.332 116.628 243.105 119.813 243.818C122.998 244.532 126.331 244.145 129.267 242.72C132.203 241.295 134.57 238.917 135.98 235.973C137.39 233.03 137.761 229.695 137.031 226.513" fill="black"/>
</g>
<path d="M126.093 67.0333L125.777 66.7178" stroke="black" stroke-width="1.8" stroke-linecap="round" stroke-linejoin="round"/>
<path d="M130.606 71.5462L130.29 71.2307" stroke="black" stroke-width="1.8" stroke-linecap="round" stroke-linejoin="round"/>
<path d="M126.093 71.2307L125.777 71.5462" stroke="black" stroke-width="1.8" stroke-linecap="round" stroke-linejoin="round"/>
<path d="M130.606 66.7178L130.29 67.0333" stroke="black" stroke-width="1.8" stroke-linecap="round" stroke-linejoin="round"/>
<path d="M157.329 6.51112V0.860474" stroke="white" stroke-width="1.8" stroke-linecap="round" stroke-linejoin="round"/>
<path d="M4.45547 151.621L0.860474 151.975" stroke="white" stroke-width="1.8" stroke-linecap="round" stroke-linejoin="round"/>
<path d="M292.734 132.25H288.719" stroke="white" stroke-width="1.8" stroke-linecap="round" stroke-linejoin="round"/>
<path d="M45.5398 264.768L42.5758 268.621" stroke="white" stroke-width="1.8" stroke-linecap="round" stroke-linejoin="round"/>
<path d="M261.613 38.5123L259.27 40.8548" stroke="white" stroke-width="1.8" stroke-linecap="round" stroke-linejoin="round"/>
<path d="M95.1335 17.669L94.3687 15.8046" stroke="white" stroke-width="1.8" stroke-linecap="round" stroke-linejoin="round"/>
<path d="M208.692 262.291L207.018 258.199" stroke="white" stroke-width="1.8" stroke-linecap="round" stroke-linejoin="round"/>
<path d="M10.0966 91.8253L4.91443 91.2612" stroke="white" stroke-width="1.8" stroke-linecap="round" stroke-linejoin="round"/>
<path d="M269.969 203.337L266.068 201.712" stroke="white" stroke-width="1.8" stroke-linecap="round" stroke-linejoin="round"/>
<path d="M14.4374 170.963L8.28955 172.177" stroke="white" stroke-width="1.8" stroke-linecap="round" stroke-linejoin="round"/>
<path d="M296.865 118.061L292.046 118.472" stroke="white" stroke-width="1.8" stroke-linecap="round" stroke-linejoin="round"/>
<path d="M18.7016 75.7817L16.34 74.1946" stroke="white" stroke-width="1.8" stroke-linecap="round" stroke-linejoin="round"/>
<path d="M61.6791 271.155L59.6139 274.243" stroke="white" stroke-width="1.8" stroke-linecap="round" stroke-linejoin="round"/>
<path d="M249.202 26.8765L246.028 32.8235" stroke="white" stroke-width="1.8" stroke-linecap="round" stroke-linejoin="round"/>
<path d="M77.1299 16.5312L73.0951 10.4312" stroke="white" stroke-width="1.8" stroke-linecap="round" stroke-linejoin="round"/>
<path d="M228.493 258.305L224.477 252.233" stroke="white" stroke-width="1.8" stroke-linecap="round" stroke-linejoin="round"/>
<path d="M274.597 186.49L271.776 185.917" stroke="white" stroke-width="1.8" stroke-linecap="round" stroke-linejoin="round"/>
<path d="M176.499 6.22424L175.772 9.77144" stroke="white" stroke-width="1.8" stroke-linecap="round" stroke-linejoin="round"/>
<path d="M135.625 15.2118C135.625 15.9512 135.406 16.674 134.995 17.2888C134.584 17.9035 134 18.3827 133.317 18.6657C132.634 18.9486 131.883 19.0226 131.157 18.8784C130.432 18.7341 129.766 18.3781 129.243 17.8553C128.72 17.3324 128.364 16.6663 128.22 15.9411C128.076 15.216 128.15 14.4643 128.433 13.7812C128.716 13.0981 129.195 12.5142 129.81 12.1034C130.425 11.6926 131.147 11.4734 131.887 11.4734C132.878 11.4734 133.829 11.8673 134.53 12.5683C135.231 13.2694 135.625 14.2203 135.625 15.2118Z" stroke="white" stroke-width="1.8" stroke-linecap="round" stroke-linejoin="round"/>
<path d="M281.595 167.445L289.244 169.481C289.572 169.576 289.918 169.581 290.248 169.496C290.578 169.412 290.879 169.241 291.121 169.001C291.362 168.762 291.536 168.462 291.623 168.133C291.71 167.804 291.707 167.457 291.616 167.129L289.579 159.48C289.494 159.153 289.324 158.855 289.085 158.615C288.847 158.375 288.55 158.202 288.223 158.115C287.897 158.027 287.553 158.028 287.227 158.117C286.901 158.205 286.604 158.379 286.367 158.62L280.783 164.204C280.534 164.437 280.353 164.732 280.257 165.059C280.161 165.386 280.154 165.733 280.236 166.063C280.319 166.394 280.489 166.696 280.728 166.939C280.967 167.182 281.266 167.356 281.595 167.445Z" stroke="white" stroke-width="1.8" stroke-linecap="round" stroke-linejoin="round"/>
<path d="M186.443 277.274C186.441 278.289 186.138 279.281 185.573 280.124C185.008 280.967 184.205 281.623 183.267 282.01C182.328 282.398 181.296 282.498 180.301 282.299C179.306 282.1 178.392 281.61 177.675 280.891C176.957 280.173 176.469 279.258 176.272 278.262C176.075 277.267 176.177 276.235 176.566 275.297C176.955 274.36 177.613 273.558 178.457 272.995C179.301 272.431 180.293 272.13 181.308 272.13C181.983 272.13 182.652 272.263 183.275 272.522C183.899 272.78 184.465 273.159 184.942 273.637C185.419 274.115 185.797 274.682 186.055 275.306C186.312 275.93 186.444 276.599 186.443 277.274V277.274Z" stroke="white" stroke-width="1.8" stroke-linecap="round" stroke-linejoin="round"/>
<path d="M25.2223 200.058L26.5513 206.397C26.6088 206.667 26.736 206.917 26.9204 207.122C27.1048 207.328 27.3399 207.481 27.6022 207.567C27.8644 207.654 28.1447 207.669 28.415 207.613C28.6853 207.557 28.9361 207.431 29.1424 207.248L33.923 202.936C34.1305 202.753 34.2858 202.518 34.3733 202.255C34.4607 201.993 34.4771 201.712 34.4207 201.441C34.3644 201.17 34.2374 200.919 34.0526 200.713C33.8678 200.507 33.6317 200.353 33.3684 200.268L27.2206 198.241C26.9603 198.164 26.6844 198.155 26.4196 198.215C26.1547 198.275 25.91 198.403 25.709 198.586C25.508 198.769 25.3576 199 25.2724 199.258C25.1871 199.516 25.1699 199.791 25.2223 200.058V200.058Z" stroke="white" stroke-width="1.8" stroke-linecap="round" stroke-linejoin="round"/>
<path d="M81.3369 108.921L79.0995 114.925C79.0031 115.182 78.9761 115.46 79.0213 115.73C79.0664 116 79.1821 116.254 79.3567 116.466C79.5313 116.677 79.7586 116.839 80.0156 116.934C80.2726 117.03 80.5503 117.056 80.8206 117.01L87.1405 115.948C87.4122 115.905 87.6676 115.791 87.8809 115.617C88.0941 115.444 88.2576 115.217 88.3547 114.959C88.4519 114.702 88.4791 114.423 88.4338 114.152C88.3884 113.881 88.2721 113.626 88.0966 113.415L84.014 108.472C83.8403 108.257 83.6127 108.092 83.3545 107.994C83.0962 107.896 82.8166 107.869 82.5442 107.915C82.2719 107.96 82.0165 108.078 81.8044 108.254C81.5922 108.431 81.4309 108.661 81.3369 108.921Z" stroke="white" stroke-width="1.8" stroke-linecap="round" stroke-linejoin="round"/>
<path d="M14.8102 133.283L16.0436 132.049" stroke="white" stroke-width="1.8" stroke-linecap="round" stroke-linejoin="round"/>
<path d="M21.4552 126.628L22.6886 125.404" stroke="white" stroke-width="1.8" stroke-linecap="round" stroke-linejoin="round"/>
<path d="M22.6886 133.283L21.4552 132.049" stroke="white" stroke-width="1.8" stroke-linecap="round" stroke-linejoin="round"/>
<path d="M16.0436 126.628L14.8102 125.404" stroke="white" stroke-width="1.8" stroke-linecap="round" stroke-linejoin="round"/>
<path d="M31.3797 236.534L31.0642 236.218" stroke="white" stroke-width="1.8" stroke-linecap="round" stroke-linejoin="round"/>
<path d="M35.8925 241.046L35.577 240.731" stroke="white" stroke-width="1.8" stroke-linecap="round" stroke-linejoin="round"/>
<path d="M31.3797 240.731L31.0642 241.046" stroke="white" stroke-width="1.8" stroke-linecap="round" stroke-linejoin="round"/>
<path d="M35.8925 236.218L35.577 236.534" stroke="white" stroke-width="1.8" stroke-linecap="round" stroke-linejoin="round"/>
<path d="M261.842 55.1775C267.822 61.3455 272.519 68.6388 275.66 76.6347C278.801 84.6307 280.325 93.1705 280.142 101.759" stroke="white" stroke-width="1.8" stroke-linecap="round" stroke-linejoin="round" stroke-dasharray="0.34 6.85"/>
<path d="M89.7411 285.43L91.2518 283.919" stroke="white" stroke-width="1.8" stroke-linecap="round" stroke-linejoin="round"/>
<path d="M97.9064 277.274L99.417 275.754" stroke="white" stroke-width="1.8" stroke-linecap="round" stroke-linejoin="round"/>
<path d="M99.417 285.43L97.9064 283.919" stroke="white" stroke-width="1.8" stroke-linecap="round" stroke-linejoin="round"/>
<path d="M91.2518 277.274L89.7411 275.754" stroke="white" stroke-width="1.8" stroke-linecap="round" stroke-linejoin="round"/>
<path d="M256.564 228.263L257.798 227.03" stroke="white" stroke-width="1.8" stroke-linecap="round" stroke-linejoin="round"/>
<path d="M263.209 221.618L264.443 220.385" stroke="white" stroke-width="1.8" stroke-linecap="round" stroke-linejoin="round"/>
<path d="M264.443 228.263L263.209 227.03" stroke="white" stroke-width="1.8" stroke-linecap="round" stroke-linejoin="round"/>
<path d="M257.798 221.618L256.564 220.385" stroke="white" stroke-width="1.8" stroke-linecap="round" stroke-linejoin="round"/>
<path d="M216.006 14.007L215.69 13.6915" stroke="white" stroke-width="1.8" stroke-linecap="round" stroke-linejoin="round"/>
<path d="M220.519 18.52L220.203 18.2045" stroke="white" stroke-width="1.8" stroke-linecap="round" stroke-linejoin="round"/>
<path d="M216.006 18.2045L215.69 18.52" stroke="white" stroke-width="1.8" stroke-linecap="round" stroke-linejoin="round"/>
<path d="M220.519 13.6915L220.203 14.007" stroke="white" stroke-width="1.8" stroke-linecap="round" stroke-linejoin="round"/>
<path d="M40.7019 63.9451C48.1082 53.8462 56.9649 44.8961 66.9855 37.3842" stroke="white" stroke-width="1.8" stroke-linecap="round" stroke-linejoin="round" stroke-dasharray="0.36 7.14"/>
<path d="M148.724 9.95314V4.30249" stroke="black" stroke-width="1.8" stroke-linecap="round" stroke-linejoin="round"/>
<path d="M16.579 144.517H12.9745" stroke="black" stroke-width="1.8" stroke-linecap="round" stroke-linejoin="round"/>
<path d="M284.12 125.356H280.114" stroke="black" stroke-width="1.8" stroke-linecap="round" stroke-linejoin="round"/>
<path d="M43.4268 254.882L39.9944 258.324" stroke="black" stroke-width="1.8" stroke-linecap="round" stroke-linejoin="round"/>
<path d="M249.556 40.2334L247.214 42.5759" stroke="black" stroke-width="1.8" stroke-linecap="round" stroke-linejoin="round"/>
<path d="M86.5189 19.39L85.754 17.5352" stroke="black" stroke-width="1.8" stroke-linecap="round" stroke-linejoin="round"/>
<path d="M198.365 260.57L196.683 256.469" stroke="black" stroke-width="1.8" stroke-linecap="round" stroke-linejoin="round"/>
<path d="M23.5873 86.366L18.7781 84.3582" stroke="black" stroke-width="1.8" stroke-linecap="round" stroke-linejoin="round"/>
<path d="M266.001 193.365L262.1 191.74" stroke="black" stroke-width="1.8" stroke-linecap="round" stroke-linejoin="round"/>
<path d="M15.8524 159.203L9.70459 160.417" stroke="black" stroke-width="1.8" stroke-linecap="round" stroke-linejoin="round"/>
<path d="M291.032 110.049L286.29 110.986" stroke="black" stroke-width="1.8" stroke-linecap="round" stroke-linejoin="round"/>
<path d="M29.8212 73.688L27.4501 72.1008" stroke="black" stroke-width="1.8" stroke-linecap="round" stroke-linejoin="round"/>
<path d="M58.4187 260.427L56.3535 263.506" stroke="black" stroke-width="1.8" stroke-linecap="round" stroke-linejoin="round"/>
<path d="M237.146 28.6069L233.971 34.5444" stroke="black" stroke-width="1.8" stroke-linecap="round" stroke-linejoin="round"/>
<path d="M73.6879 26.8669L69.6531 20.7668" stroke="black" stroke-width="1.8" stroke-linecap="round" stroke-linejoin="round"/>
<path d="M216.436 256.584L212.42 250.512" stroke="black" stroke-width="1.8" stroke-linecap="round" stroke-linejoin="round"/>
<path d="M269.424 177.885L266.604 177.312" stroke="black" stroke-width="1.8" stroke-linecap="round" stroke-linejoin="round"/>
<path d="M166.164 9.66626L165.437 13.223" stroke="black" stroke-width="1.8" stroke-linecap="round" stroke-linejoin="round"/>
<path d="M120.126 11.7602C120.128 12.5022 119.91 13.2282 119.499 13.846C119.088 14.4638 118.502 14.9457 117.817 15.2306C117.132 15.5154 116.378 15.5904 115.65 15.4461C114.922 15.3018 114.253 14.9447 113.728 14.4199C113.204 13.8952 112.846 13.2265 112.702 12.4986C112.558 11.7706 112.633 11.0162 112.918 10.331C113.202 9.64576 113.684 9.06051 114.302 8.6494C114.92 8.2383 115.646 8.01985 116.388 8.02174C117.379 8.02426 118.328 8.41894 119.029 9.11949C119.729 9.82003 120.124 10.7694 120.126 11.7602V11.7602Z" stroke="black" stroke-width="1.8" stroke-linecap="round" stroke-linejoin="round"/>
<path d="M273.449 148.342L281.098 150.378C281.423 150.465 281.764 150.465 282.088 150.378C282.413 150.291 282.709 150.121 282.946 149.883C283.184 149.646 283.354 149.35 283.441 149.026C283.528 148.701 283.528 148.36 283.441 148.036L281.404 140.387C281.307 140.072 281.131 139.788 280.892 139.562C280.653 139.336 280.36 139.175 280.041 139.095C279.722 139.015 279.387 139.019 279.07 139.107C278.753 139.194 278.463 139.361 278.23 139.593L272.656 145.167C272.424 145.401 272.256 145.69 272.169 146.007C272.082 146.325 272.078 146.659 272.158 146.978C272.238 147.297 272.399 147.59 272.625 147.829C272.851 148.068 273.135 148.245 273.449 148.342Z" stroke="black" stroke-width="1.8" stroke-linecap="round" stroke-linejoin="round"/>
<path d="M169.233 272.694C169.233 273.709 168.931 274.702 168.367 275.546C167.803 276.391 167.001 277.049 166.063 277.437C165.125 277.826 164.093 277.928 163.097 277.73C162.101 277.532 161.186 277.043 160.468 276.324C159.75 275.606 159.261 274.692 159.063 273.696C158.864 272.7 158.966 271.667 159.355 270.729C159.743 269.791 160.401 268.989 161.246 268.425C162.09 267.861 163.083 267.56 164.098 267.56C164.773 267.558 165.441 267.69 166.065 267.948C166.688 268.205 167.255 268.584 167.732 269.061C168.209 269.538 168.587 270.104 168.844 270.728C169.102 271.351 169.234 272.019 169.233 272.694V272.694Z" stroke="black" stroke-width="1.8" stroke-linecap="round" stroke-linejoin="round"/>
<path d="M14.8485 187.399L16.1679 193.728C16.224 193.999 16.3504 194.25 16.5342 194.457C16.7181 194.664 16.953 194.818 17.2155 194.905C17.4779 194.992 17.7587 195.009 18.0296 194.954C18.3005 194.898 18.552 194.772 18.759 194.589L23.5874 190.267C23.7921 190.083 23.9449 189.848 24.0306 189.586C24.1163 189.324 24.1319 189.044 24.0758 188.774C24.0197 188.504 23.8939 188.254 23.7109 188.048C23.5279 187.842 23.2941 187.687 23.0328 187.6L16.8754 185.582C16.6132 185.495 16.3327 185.479 16.0622 185.535C15.7918 185.592 15.541 185.718 15.3352 185.903C15.1295 186.087 14.9761 186.323 14.8907 186.585C14.8052 186.848 14.7906 187.129 14.8485 187.399V187.399Z" stroke="black" stroke-width="1.8" stroke-linecap="round" stroke-linejoin="round"/>
<path d="M72.7222 108.921L70.4849 114.925C70.3916 115.182 70.3669 115.458 70.4133 115.728C70.4597 115.997 70.5755 116.249 70.7494 116.46C70.9233 116.67 71.1491 116.832 71.4046 116.928C71.6601 117.025 71.9363 117.053 72.2059 117.01L78.5354 115.948C78.8071 115.905 79.0626 115.791 79.2758 115.617C79.4891 115.444 79.6526 115.217 79.7497 114.959C79.8468 114.702 79.8741 114.423 79.8287 114.152C79.7834 113.881 79.6671 113.626 79.4916 113.415L75.4089 108.471C75.2357 108.254 75.0076 108.087 74.7482 107.988C74.4887 107.889 74.2075 107.86 73.9335 107.906C73.6595 107.952 73.4027 108.07 73.1897 108.249C72.9768 108.427 72.8154 108.659 72.7222 108.921V108.921Z" stroke="black" stroke-width="1.8" stroke-linecap="round" stroke-linejoin="round"/>
<path d="M11.3682 117.774L12.6016 116.551" stroke="black" stroke-width="1.8" stroke-linecap="round" stroke-linejoin="round"/>
<path d="M18.0132 111.129L19.2466 109.896" stroke="black" stroke-width="1.8" stroke-linecap="round" stroke-linejoin="round"/>
<path d="M19.2466 117.774L18.0132 116.551" stroke="black" stroke-width="1.8" stroke-linecap="round" stroke-linejoin="round"/>
<path d="M12.6016 111.129L11.3682 109.896" stroke="black" stroke-width="1.8" stroke-linecap="round" stroke-linejoin="round"/>
<path d="M24.4862 224.477L24.1707 224.162" stroke="black" stroke-width="1.8" stroke-linecap="round" stroke-linejoin="round"/>
<path d="M29.0085 228.99L28.693 228.674" stroke="black" stroke-width="1.8" stroke-linecap="round" stroke-linejoin="round"/>
<path d="M24.4862 228.674L24.1707 228.99" stroke="black" stroke-width="1.8" stroke-linecap="round" stroke-linejoin="round"/>
<path d="M29.0085 224.162L28.693 224.477" stroke="black" stroke-width="1.8" stroke-linecap="round" stroke-linejoin="round"/>
<path d="M254.164 56.6116C260.406 63.044 265.31 70.6507 268.593 78.9911C271.875 87.3316 273.47 96.2402 273.287 105.201" stroke="black" stroke-width="1.8" stroke-linecap="round" stroke-linejoin="round" stroke-dasharray="0.36 7.14"/>
<path d="M75.9634 269.931L77.474 268.42" stroke="black" stroke-width="1.8" stroke-linecap="round" stroke-linejoin="round"/>
<path d="M84.1191 261.766L85.6394 260.255" stroke="black" stroke-width="1.8" stroke-linecap="round" stroke-linejoin="round"/>
<path d="M85.6394 269.931L84.1191 268.42" stroke="black" stroke-width="1.8" stroke-linecap="round" stroke-linejoin="round"/>
<path d="M77.474 261.766L75.9634 260.255" stroke="black" stroke-width="1.8" stroke-linecap="round" stroke-linejoin="round"/>
<path d="M239.335 236.878L240.568 235.645" stroke="black" stroke-width="1.8" stroke-linecap="round" stroke-linejoin="round"/>
<path d="M245.98 230.233L247.214 229" stroke="black" stroke-width="1.8" stroke-linecap="round" stroke-linejoin="round"/>
<path d="M247.213 236.878L245.99 235.645" stroke="black" stroke-width="1.8" stroke-linecap="round" stroke-linejoin="round"/>
<path d="M240.568 230.233L239.335 229" stroke="black" stroke-width="1.8" stroke-linecap="round" stroke-linejoin="round"/>
<path d="M203.949 17.4491L203.634 17.1335" stroke="black" stroke-width="1.8" stroke-linecap="round" stroke-linejoin="round"/>
<path d="M208.462 21.962L208.147 21.6465" stroke="black" stroke-width="1.8" stroke-linecap="round" stroke-linejoin="round"/>
<path d="M203.949 21.6465L203.634 21.962" stroke="black" stroke-width="1.8" stroke-linecap="round" stroke-linejoin="round"/>
<path d="M208.462 17.1335L208.147 17.4491" stroke="black" stroke-width="1.8" stroke-linecap="round" stroke-linejoin="round"/>
<path d="M45.7788 68.6874C56.994 53.3912 71.4889 40.7976 88.2017 31.8291" stroke="black" stroke-width="1.8" stroke-linecap="round" stroke-linejoin="round" stroke-dasharray="0.36 7.14"/>
<path d="M135.29 129.133L134.946 128.798" stroke="white" stroke-width="1.8" stroke-linecap="round" stroke-linejoin="round"/>
<path d="M140.119 133.962L139.775 133.627" stroke="white" stroke-width="1.8" stroke-linecap="round" stroke-linejoin="round"/>
<path d="M135.29 133.627L134.946 133.962" stroke="white" stroke-width="1.8" stroke-linecap="round" stroke-linejoin="round"/>
<path d="M140.119 128.798L139.775 129.133" stroke="white" stroke-width="1.8" stroke-linecap="round" stroke-linejoin="round"/>
<path d="M174.329 199.962L175.839 198.452" stroke="white" stroke-width="1.8" stroke-linecap="round" stroke-linejoin="round"/>
<path d="M182.484 191.797L184.005 190.286" stroke="white" stroke-width="1.8" stroke-linecap="round" stroke-linejoin="round"/>
<path d="M184.005 199.962L182.484 198.452" stroke="white" stroke-width="1.8" stroke-linecap="round" stroke-linejoin="round"/>
<path d="M175.839 191.797L174.329 190.286" stroke="white" stroke-width="1.8" stroke-linecap="round" stroke-linejoin="round"/>
<path d="M123.234 122.249L122.89 121.914" stroke="black" stroke-width="1.8" stroke-linecap="round" stroke-linejoin="round"/>
<path d="M128.062 127.077L127.718 126.743" stroke="black" stroke-width="1.8" stroke-linecap="round" stroke-linejoin="round"/>
<path d="M123.234 126.743L122.89 127.077" stroke="black" stroke-width="1.8" stroke-linecap="round" stroke-linejoin="round"/>
<path d="M128.062 121.905L127.718 122.249" stroke="black" stroke-width="1.8" stroke-linecap="round" stroke-linejoin="round"/>
<path d="M158.83 194.79L160.341 193.279" stroke="black" stroke-width="1.8" stroke-linecap="round" stroke-linejoin="round"/>
<path d="M166.986 186.634L168.496 185.123" stroke="black" stroke-width="1.8" stroke-linecap="round" stroke-linejoin="round"/>
<path d="M168.496 194.79L166.986 193.279" stroke="black" stroke-width="1.8" stroke-linecap="round" stroke-linejoin="round"/>
<path d="M160.341 186.634L158.83 185.123" stroke="black" stroke-width="1.8" stroke-linecap="round" stroke-linejoin="round"/>
<path d="M246.028 98.1932C243.16 98.0402 237.423 95.4874 229.841 95.038C228.713 94.9519 227.575 94.9137 226.466 94.9137C221.893 94.7859 217.335 95.4889 213.013 96.9885C207.713 98.964 201.878 98.964 196.578 96.9885C192.256 95.4897 187.698 94.7867 183.125 94.9137C182.006 94.9137 180.878 94.9137 179.75 95.038C172.101 95.4874 166.422 98.0402 163.563 98.1932C162.071 98.2697 162.081 100.105 162.081 101.138V101.578C162.081 103.72 163.467 103.662 163.993 104.523C165.341 106.782 166.198 109.301 166.508 111.913C167.626 118.826 172.321 125.978 183.106 125.978C192.122 125.978 198.92 118.329 201.444 111.005C202.945 106.626 204.313 106.894 204.772 106.789C205.211 106.894 206.607 106.626 208.108 111.005C210.633 118.358 217.431 125.978 226.447 125.978C237.222 125.978 241.926 118.826 243.045 111.913C243.351 109.3 244.208 106.781 245.559 104.523C246.104 103.662 247.472 103.72 247.472 101.578V101.138C247.51 100.096 247.51 98.2697 246.028 98.1932Z" stroke="black" stroke-width="1.8" stroke-linecap="round" stroke-linejoin="round"/>
<path d="M184.196 120.471C173.134 120.471 172.273 111.301 172.273 108.49" stroke="black" stroke-width="1.8" stroke-linecap="round" stroke-linejoin="round"/>
<path d="M237.318 108.443C237.318 111.254 236.457 120.423 225.395 120.423" stroke="black" stroke-width="1.8" stroke-linecap="round" stroke-linejoin="round"/>
<path d="M165.848 93.078L180.916 78.545C181.613 77.8834 182.459 77.4006 183.383 77.138C184.307 76.8755 185.281 76.8409 186.221 77.0374C187.161 77.2339 188.04 77.6556 188.781 78.2662C189.522 78.8768 190.105 79.6582 190.478 80.5433L191.434 82.7519" stroke="black" stroke-width="1.8" stroke-linecap="round" stroke-linejoin="round"/>
<path d="M243.743 93.078L228.674 78.545C227.978 77.8834 227.132 77.4006 226.208 77.138C225.284 76.8755 224.31 76.8409 223.37 77.0374C222.43 77.2339 221.551 77.6556 220.81 78.2662C220.068 78.8768 219.486 79.6582 219.113 80.5433L218.157 82.7519" stroke="black" stroke-width="1.8" stroke-linecap="round" stroke-linejoin="round"/>
</g>
<defs>
<clipPath id="clip0_16_2959">
<rect width="297.725" height="286.29" fill="white"/>
</clipPath>
</defs>
</svg>
