<?xml version="1.0" encoding="utf-8"?>
<!-- Generator: Adobe Illustrator 23.1.0, SVG Export Plug-In . SVG Version: 6.00 Build 0)  -->
<svg version="1.1" id="Layer_1" xmlns="http://www.w3.org/2000/svg" xmlns:xlink="http://www.w3.org/1999/xlink" x="0px" y="0px"
	 viewBox="0 0 326.3 287" style="enable-background:new 0 0 326.3 287;" xml:space="preserve">
<style type="text/css">
	.st0{clip-path:url(#SVGID_2_);}
	.st1{fill:url(#SVGID_3_);}
	.st2{clip-path:url(#SVGID_5_);}
	.st3{fill:#959595;}
	.st4{fill:#FFFFFF;}
</style>
<title>Asset 11</title>
<g>
	<g id="Layer_1-2">
		<g>
			<defs>
				<path id="SVGID_1_" d="M241.9,13c-18.7,10.4-34.2,25.8-44.7,44.5c-14.1,24.7-18.5,51.1-12.9,79.2c0.8,3.8,1.9,7.5,2.8,11.3
					c0.5-0.4,1-1,1.2-1.6c7-14.6,15-28.6,24.1-42c11.3-16.5,23.9-31.6,40.2-43.3c1.9-1.3,3.8-2.5,5.7-3.7c-1.4,1.4-2.9,2.6-4.4,3.8
					c-8.3,6.9-15.7,14.9-22.1,23.6c-15.5,20.9-26.8,44.1-36.1,68.3c-0.1,0.3-0.2,0.7-0.4,1.2c0.8-0.2,1.3-0.3,1.9-0.5
					c6.4-2.1,12.8-4,19.1-6.5c18.8-7.4,36.2-17.3,51.4-30.8c18.4-16.2,32.6-36.6,41.4-59.5c5.1-13,9.7-26.3,14.4-39.5
					c1-2.8,1.8-5.7,2.7-8.7c-1-0.5-1.8-1-2.6-1.3c-10.1-4.8-21.1-7.4-32.3-7.5h-1C273.4,0.1,256.6,4.5,241.9,13"/>
			</defs>
			<clipPath id="SVGID_2_">
				<use xlink:href="#SVGID_1_"  style="overflow:visible;"/>
			</clipPath>
			<g class="st0">
				
					<radialGradient id="SVGID_3_" cx="-1046.2391" cy="-3240.5811" r="1" gradientTransform="matrix(59.6752 -65.0556 -35.3281 -32.4063 -51802.1758 -173011.1094)" gradientUnits="userSpaceOnUse">
					<stop  offset="0" style="stop-color:#FF2639"/>
					<stop  offset="0.29" style="stop-color:#EA1D2C"/>
					<stop  offset="0.9" style="stop-color:#B3040A"/>
					<stop  offset="1" style="stop-color:#A90004"/>
				</radialGradient>
				<polygon class="st1" points="101.9,83.8 246.2,-73.5 403.2,70.5 258.9,227.8 				"/>
			</g>
		</g>
		<g>
			<defs>
				<path id="SVGID_4_" d="M0,145.8C0,223.8,63.2,287,141.2,287s141.2-63.2,141.2-141.2S219.2,4.7,141.2,4.7c0,0,0,0,0,0
					C63.2,4.7,0,67.9,0,145.8C0,145.8,0,145.8,0,145.8"/>
			</defs>
			<clipPath id="SVGID_5_">
				<use xlink:href="#SVGID_4_"  style="overflow:visible;"/>
			</clipPath>
			<g class="st2">
				<path class="st3" d="M282.4,145.8c0,78-63.2,141.2-141.2,141.2S0,223.8,0,145.9S63.2,4.7,141.2,4.7c0,0,0,0,0,0
					C219.2,4.7,282.4,67.9,282.4,145.8"/>
			</g>
		</g>
		<path class="st4" d="M208.7,96.2c0.5,0.2,0.9,0.4,1.3,0.7c6.8,4.2,13.5,8.4,20.3,12.7l13.5,8.5c1.8,1.1,3.4,2.4,4.9,3.9
			c4.6,4.7,7.2,11,7.2,17.6c0,8.3,0,16.6,0,24.9c0,5-1.5,9.9-4.3,14c-2.8,4.2-5.6,8.3-8.4,12.4c-0.2,0.3-0.4,0.7-0.7,1
			c-2.3,3.6-1.8,8.4,1.3,11.4c0.4,0,0.8,0,1.2,0c1.3,0,2.5,0,3.7,0c3.9,0.1,7,3.2,7.1,7.1c0.1,1.1,0,2.2-0.1,3.4
			c-0.3,0-0.5,0.1-0.8,0.1c-0.4,0-0.7,0-1.1,0h-86.3h-1.8c-0.1-0.3-0.1-0.6-0.1-0.8c0-0.8,0-1.7,0-2.5c0.1-4,3.3-7.1,7.3-7.2h37.2
			c1.8,0,1.4,0.2,2.6-1.1l2.3-2.3c1.8-1.7,2.8-4.1,2.7-6.6c0-1.5,0-2.9,0-4.4c0.1-2-1.5-3.7-3.5-3.8c-0.1,0-0.2,0-0.3,0h-38.7
			c-0.6,0.1-1.1,0-1.6-0.1c-0.1-0.8-0.1-1.7-0.1-2.5c0-0.8,0-1.6,0-2.4s0-1.7,0-2.6c0.3-0.1,0.5-0.1,0.8-0.2c0.4,0,0.9,0,1.3,0H219
			c0.7,0,1.3,0,2-0.1c1.7-0.1,3.2-0.9,4.3-2.1c1.5-1.5,2.9-3.1,4.2-4.8c3.1-4.1,4.8-9,4.9-14.1c0.1-3.4,0.2-6.7,0.3-10.1
			c0.4-7.9-3-15.5-9.2-20.5c-5.2-4.4-10.5-8.8-15.8-13.3c-1.6-1.3-1.3-0.8-1.3-2.9c0-4,0-8,0-12C208.4,97.1,208.5,96.6,208.7,96.2
			 M243.6,159.9c-4.2-0.2-7.8,3.2-8,7.4s3.2,7.8,7.4,8c0.2,0,0.4,0,0.6,0c4.2-0.2,7.6-3.7,7.4-8
			C250.9,163.3,247.7,160.1,243.6,159.9 M215.1,102.9c-2.8,0-5.1,2.3-5.1,5.1s2.3,5.1,5.1,5.1s5.1-2.3,5.1-5.1
			S217.9,102.9,215.1,102.9"/>
		<path class="st4" d="M185.1,153c0-0.3-0.1-0.6-0.1-0.9V90.6c0-0.1,0.1-0.2,0.2-0.4c0.2,0,0.3-0.1,0.5-0.1c6,0,12,0,18.1,0
			c0.1,0,0.3,0.1,0.4,0.1c0.1,0.1,0.1,0.2,0.1,0.4c0,20.6,0,41.1,0,61.7c0,0.2,0,0.5-0.1,0.7c-0.3,0-0.5,0.1-0.8,0.1
			c-5.8,0-11.7,0-17.5,0C185.6,153,185.3,153,185.1,153"/>
		<path class="st4" d="M209,156.1c0,0.3,0.1,0.5,0.1,0.7c0.1,3,0,11.2-0.1,12.2c-1.8,0.3-3.7,0.3-5.6,0c0-0.3-0.1-0.6-0.1-0.9
			c0-1.8,0-3.6,0-5.4c0-0.4,0-0.9-0.1-1.3c-1.9-0.2-3.9-0.2-5.8,0c0,0.3-0.1,0.7-0.1,1c0,1.8,0,3.5,0,5.3c0,0.4,0,0.9,0,1.3
			c-1.9,0.3-3.8,0.3-5.6,0c-0.1-1.3-0.1-2.5-0.1-3.8c0-1.2,0-2.5,0-3.7c-1-0.2-2-0.3-3-0.2c-0.9,0-1.9,0-2.7,0
			c-0.3,0.3-0.4,0.7-0.3,1.1c0,1.8,0,3.5,0,5.3v1.3c-0.9,0.3-1.9,0.3-2.8,0.2c-0.9,0.1-1.9,0-2.8-0.1c-0.1-0.2-0.1-0.4-0.1-0.7
			c0-3.9,0-7.9,0-11.8c0-0.2,0-0.3,0.1-0.5c0.2-0.1,0.5-0.1,0.7-0.1c0.3,0,0.6,0,0.9,0h25.8C207.9,156,208.5,156,209,156.1"/>
		<path class="st4" d="M199,71c0.3,1.2,0.4,8.8,0.2,14.7c0,0.3-0.1,0.6-0.1,0.9c-0.1,0.1-0.3,0.1-0.4,0.1c-2.7,0-5.4,0-8.1,0
			c-0.2,0-0.4-0.1-0.6-0.1c-0.1-0.2-0.1-0.4-0.1-0.6c0-4.7,0-9.5,0-14.2c0-0.2,0-0.4,0.1-0.6c0-0.1,0.1-0.1,0.1-0.2c0,0,0.1,0,0.1,0
			l7.7-0.1C198.2,71,198.6,71,199,71"/>
		<path class="st4" d="M243.7,162.6c2.8,0,5,2.3,4.9,5.1s-2.3,5-5.1,4.9c-2.7,0-4.9-2.3-4.9-5C238.6,164.9,240.9,162.6,243.7,162.6
			C243.7,162.6,243.7,162.6,243.7,162.6"/>
		<path class="st4" d="M217.6,108.1c0,1.3-1,2.4-2.3,2.5c0,0,0,0-0.1,0c-1.4,0.1-2.5-1-2.6-2.4c0,0,0,0,0-0.1c0-1.4,1.2-2.5,2.6-2.5
			C216.6,105.6,217.6,106.7,217.6,108.1"/>
		<path class="st4" d="M110,169.4c1,2.4,1.9,4.7,2.9,7.1c0.4,0,0.7,0,1.1-0.1l6.4-0.9c0.4-0.1,0.8-0.1,1.3-0.1
			c0.1,0.3,0.2,0.6,0.3,0.9c0.6,3.5,0.6,7.2,0,10.7c0,0.3-0.2,0.6-0.3,1c-1.5-0.1-2.9-0.2-4.3-0.5l-4.3-0.6c-1.2,2.3-2.2,4.7-3,7.2
			c0.7,0.6,1.5,1.2,2.3,1.8s1.6,1.2,2.3,1.8l2.3,1.8c-1.2,2.6-5.6,7-8.9,9c-0.2-0.2-0.4-0.4-0.6-0.6c-1.3-1.7-2.6-3.5-3.9-5.2
			c-0.3-0.4-0.5-0.7-0.8-1.1c-0.2,0-0.4,0-0.7,0.1l-6,2.5c-0.2,0.1-0.3,0.2-0.5,0.3c0,1,0.1,1.9,0.3,2.9c0.2,1.5,0.4,3.1,0.6,4.6
			c0.1,0.4,0.1,0.8,0.1,1.2c-2.1,1-8.9,1.1-12.4,0.1c0-0.3,0-0.6,0-0.9c0.2-1.7,0.5-3.4,0.7-5.1c0.1-0.9,0.2-1.8,0.4-2.7
			c-2.3-1.2-4.7-2.2-7.1-3c-0.2,0.2-0.4,0.4-0.6,0.6c-1.3,1.8-2.7,3.5-4,5.3c-0.3,0.4-0.6,0.7-0.8,1c-2.8-1.5-7.2-5.8-8.9-8.9
			c1-1,2.3-1.8,3.4-2.7s2.3-1.8,3.5-2.7c-0.3-1.2-0.8-2.5-1.4-3.6c-0.5-1.2-0.9-2.4-1.5-3.6c-2.9,0.3-5.8,0.8-8.7,1.1
			c-1-2.5-1-9.5,0-12.6c1.4,0.1,2.9,0.3,4.3,0.5c1.4,0.2,2.9,0.4,4.3,0.6c1.2-2.3,2.2-4.7,3-7.2c-0.7-0.7-1.5-1.3-2.3-1.8
			c-0.8-0.6-1.6-1.2-2.3-1.8l-2.3-1.7c1.1-2.6,5.7-7.2,8.9-9c0.2,0.2,0.4,0.4,0.6,0.6c1.3,1.8,2.7,3.5,4,5.3
			c0.3,0.4,0.6,0.7,0.9,1.1c2.4-0.9,4.7-1.9,7.1-2.9c-0.1-1.5-0.3-2.9-0.5-4.4c-0.1-1.4-0.5-2.9-0.5-4.4c1.3-0.4,2.7-0.6,4.1-0.6
			c2.9-0.3,5.7,0,8.5,0.7c-0.1,1.4-0.3,2.9-0.5,4.3c-0.2,1.4-0.4,2.9-0.6,4.4c1.1,0.6,2.3,1.1,3.5,1.6c1.2,0.6,2.4,1,3.6,1.4
			c0.7-0.7,1.3-1.5,1.8-2.3c0.6-0.8,1.2-1.6,1.8-2.3l1.8-2.3c2.6,1.2,7.1,5.6,9,8.9c-0.2,0.2-0.4,0.4-0.6,0.6l-5.3,4
			C110.8,168.8,110.4,169.1,110,169.4 M77.3,181.7c-0.2,7.2,5.5,13.2,12.7,13.4c7.2,0.2,13.2-5.5,13.4-12.7c0-0.2,0-0.5,0-0.7
			c-0.2-7.2-6.2-12.9-13.4-12.7C83.1,169.1,77.5,174.7,77.3,181.7"/>
		<path class="st4" d="M75.2,153.3l-1.8-2.3l-1.6,0.8c0.3-0.6,0.5-1,0.7-1.4c2.4-4.6,4.8-9.2,7.2-13.8c0.4-0.8,0.6-1.6,0.6-2.5
			c0-5,0-9.9,0-14.9c0-0.4,0-0.9,0-1.3c-0.3-0.2-0.6-0.3-0.8-0.4c-1.3-0.7-2.1-1.9-2.1-3.3c-0.1-1-0.1-1.9,0-2.9
			c0.1-2.1,1.8-3.8,3.9-3.8c1,0,1.9,0,2.9,0h14.4c0.4,0,0.8,0,1.2,0c1.9,0.1,3.5,1.6,3.7,3.6c0.1,1.1,0.1,2.2,0,3.3
			c-0.1,1.2-0.7,2.4-1.8,3c-0.3,0.2-0.7,0.4-1.1,0.6c0,0.3-0.1,0.7-0.1,1c0,5.2,0,10.4,0,15.6c0,0.7,0.2,1.3,0.5,1.9
			c2.4,4.6,4.8,9.3,7.2,13.9c0.3,0.4,0.5,0.9,0.6,1.4l-1.2-0.6c-0.2,0.2-0.4,0.4-0.6,0.6c-0.4,0.6-0.8,1.1-1.4,1.8
			c-0.2-0.3-0.3-0.5-0.5-0.7c-2.7-5.2-5.4-10.4-8.1-15.6c-0.3-0.5-0.4-1.2-0.4-1.8c0-6,0-12.1,0-18.1c0-0.2,0-0.4,0-0.7
			c0.1-1,0.7-2,1.7-2.4c0.4-0.2,0.8-0.3,1.2-0.4c0.2-0.8,0.2-1.6,0.1-2.4c-0.5-0.2-1-0.2-1.5-0.2H84.4c-0.8,0-1.6,0-2.4,0
			c-0.3,0-0.6,0-0.8,0.1c-0.1,0.8-0.1,1.7,0,2.5l0.8,0.3c1.2,0.4,2.1,1.5,2.1,2.8c0,0.3,0,0.5,0,0.8c0,5.8,0,11.6,0,17.4
			c0,0.8-0.2,1.6-0.5,2.3c-2.6,4.9-5.1,9.8-7.6,14.8C75.8,152.6,75.7,153,75.2,153.3"/>
		<path class="st4" d="M29.4,161c0.2,0,0.4-0.1,0.5-0.1h32c0,0.2-0.1,0.4-0.2,0.6c-0.5,0.7-1,1.5-1.5,2.2c-0.2,0.3-0.3,0.5-0.5,0.8
			l1.2,1.1c-0.6,1.6-1.3,3.2-2.2,4.6l-0.7,0.2c-0.4,0.1-0.8,0.4-1,0.8c-0.3,0.6-0.5,1.3-0.7,2c-0.3,1.5-0.6,2.9-1.1,4.4
			c-0.1,0.1-0.1,0.3-0.2,0.4c-0.3,0-0.6,0-0.9,0c-6.4,0-12.8,0-19.1,0c-0.7,0-1.3-0.3-1.7-0.8c-3.2-3.8-4.7-8.7-4.4-13.6
			c0-0.7,0.1-1.3,0.2-2C29.3,161.4,29.3,161.2,29.4,161 M52.2,167.2c0-1.9-1.6-3.4-3.4-3.3c-1.9,0-3.4,1.6-3.3,3.4
			c0,1.8,1.5,3.3,3.4,3.3C50.7,170.6,52.2,169.1,52.2,167.2C52.2,167.2,52.2,167.2,52.2,167.2 M40.8,170.5c0-1.2-1.1-2.2-2.3-2.2
			c-1.3,0-2.3,1.1-2.2,2.3c0,1.3,1.1,2.3,2.3,2.2l0,0C39.9,172.8,40.8,171.8,40.8,170.5C40.8,170.5,40.8,170.5,40.8,170.5"/>
		<path class="st4" d="M125.6,178c-0.3-0.8-0.6-1.7-0.8-2.5c-0.1-0.7-0.3-1.5-0.4-2.2c-0.2-0.7-0.5-1.4-0.8-2.1
			c-0.2-0.4-0.5-0.7-0.9-0.8c-0.3-0.1-0.5-0.1-0.8-0.2c-0.8-1.4-1.5-2.9-2.3-4.4l1.3-1.1c-0.5-1.3-1.5-2.4-2.2-3.6
			c0.1-0.3,0.3-0.3,0.5-0.3s0.5,0,0.8,0h31.1c0.1,0.3,0.2,0.6,0.3,0.9c0.5,3,0.3,6-0.7,8.9c-0.8,2.4-2,4.7-3.6,6.6
			c-0.3,0.5-0.9,0.7-1.5,0.7c-6.5,0-13,0-19.5,0C126.1,178.1,125.8,178.1,125.6,178 M135.3,167.2c0.1-1.9-1.4-3.5-3.3-3.5
			s-3.5,1.4-3.5,3.3c0,0.1,0,0.2,0,0.4c0,1.9,1.6,3.4,3.5,3.4C133.8,170.6,135.3,169.1,135.3,167.2 M142.2,172.9
			c1.2,0,2.2-1.1,2.2-2.3c-0.1-1.2-1.1-2.2-2.3-2.2c-1.2,0-2.2,1.1-2.2,2.3C139.9,171.9,140.9,172.9,142.2,172.9
			C142.1,172.9,142.2,172.9,142.2,172.9"/>
		<path class="st4" d="M125.4,182.8c-0.1-0.9-0.1-1.8,0-2.7c0.3-0.1,0.5-0.1,0.8-0.1c0.4,0,0.8,0,1.2,0h19.4c0.4,0,0.7-0.1,0.9-0.4
			c0.3-0.3,0.6-0.6,0.8-0.9c3.4-4,5.2-9.1,5-14.4c-0.2-9.1-6.1-17.1-14.8-19.9c-0.6-0.2-1.2-0.4-1.6-0.6c-0.1-0.1-0.1-0.1-0.1-0.2
			c0,0,0-0.1,0-0.1c0-0.4,0-0.9,0-1.3V129c0.3-0.1,0.6-0.2,0.8-0.2c0.5,0,0.9,0,1.3-0.2c0.2-0.6,0.2-1.2,0-1.8
			c-1.1-0.2-8.9-0.3-12.9-0.1c-0.3,0-0.5,0.1-0.8,0.1c-0.1,0.6-0.1,1.2,0,1.7c0.6,0.4,1.3,0.1,2,0.3c0.4,0.3,0.3,0.7,0.3,1.1
			c0,3.2,0,6.5,0,9.7v3.6c-0.3,0.6-0.8,0.6-1.2,0.7c-0.9,0.3-1.9,0.6-2.8,1c-3.8,1.6-7,4.3-9.3,7.7l-0.8,1.1
			c-0.6-0.9-1.1-1.9-1.5-2.9c0.2-0.3,0.3-0.6,0.6-0.9c2.7-3.6,6.4-6.4,10.6-8l1.5-0.6c0.1-3.2,0-6.4,0-9.6c-0.3-0.2-0.6-0.3-0.8-0.5
			c-0.9-0.5-1.4-1.4-1.4-2.4c0-0.8,0-1.5,0-2.3c0.1-1.4,1.2-2.6,2.6-2.7c0.4,0,0.8-0.1,1.2-0.1h12.2c0.4,0,0.7,0,1.1,0
			c1.4,0.1,2.5,1.1,2.7,2.5c0.1,0.9,0.1,1.9,0,2.8c-0.1,0.9-0.6,1.7-1.4,2.1l-0.7,0.4c-0.1,1-0.2,2.1-0.1,3.1c0,1.1,0,2.2,0,3.3v3.1
			c0.3,0.4,0.7,0.6,1.2,0.7c12.6,5,18.8,19.3,13.7,32c-1.2,3.1-3,5.8-5.4,8.2c-0.5,0.5-1.1,0.8-1.9,0.8c-7,0-14,0-21,0
			C126.4,182.9,126,182.9,125.4,182.8"/>
		<path class="st4" d="M41.5,126.9c-0.1,0.6-0.1,1.2,0,1.8l2,0.2c0.3,0.4,0.2,0.8,0.2,1.2c0,2.8,0,5.6,0,8.4c0,1.3,0,2.7,0,4
			c0,0.4,0,0.8,0,1.2c-0.6,0.2-1.1,0.4-1.6,0.6c-7.7,2.7-12.6,8-14.4,15.9c-1.6,7,0.1,13.3,4.8,18.9c0.5,0.6,1.3,1,2.1,0.9
			c6.4,0,12.8,0,19.1,0c0.5-0.1,1.1,0,1.6,0.2c0.2,0.9,0.2,1.7,0.1,2.6c-0.5,0.2-1,0.2-1.5,0.2H41.7c-2.9,0-5.8,0-8.8,0
			c-0.6,0-1.2-0.2-1.6-0.7c-9.6-9.6-9.7-25.1-0.1-34.7c2.1-2.1,4.6-3.9,7.3-5.1c0.7-0.3,1.4-0.6,2.1-0.9c0.1-1.1,0.2-2.1,0.1-3.2
			c0-1.1,0-2.2,0-3.3v-3.2c-0.3-0.2-0.6-0.4-0.9-0.6c-0.7-0.4-1.2-1.2-1.3-2.1c-0.1-1-0.1-1.9,0-2.9c0.1-1.3,1.2-2.3,2.5-2.4
			c0.4,0,0.9-0.1,1.3-0.1h12.1c0.4,0,0.9,0,1.3,0.1c1.3,0.2,2.4,1.2,2.5,2.6c0.1,0.9,0.1,1.8,0,2.7c0,0.8-0.5,1.5-1.1,2
			c-0.3,0.2-0.7,0.4-1,0.6c-0.2,3.2-0.2,6.5,0,9.7c3.5,1.2,6.7,3.1,9.3,5.6c1.2,1.1,2.3,2.4,3.2,3.8c-0.4,1.1-0.9,2.1-1.6,3
			c-1-1.7-2.3-3.2-3.7-4.6c-1.4-1.3-3-2.5-4.7-3.4c-1.7-0.9-3.5-1.6-5.3-2.1c-0.3-0.4-0.4-0.8-0.3-1.2c0-4.2,0-8.3,0-12.5
			c0-0.3,0.1-0.7,0.1-1.1l2-0.2c0.1-0.6,0.1-1.2,0-1.8c-0.2-0.1-0.4-0.1-0.6-0.1c-4.2,0-8.4,0-12.6,0c-0.2,0-0.3,0.1-0.5,0.1"/>
		<path class="st4" d="M92,93.7c-1,0.1-2,0.1-3,0c-0.4-0.4-0.3-0.9-0.3-1.3c0-2.9,0-5.8,0-8.6c0-1,0-2,0-3c0-0.3,0-0.6,0.1-0.9
			c1-0.1,2.1-0.1,3.1,0c0,0.2,0.1,0.4,0.1,0.6C92,84.8,92,89.2,92,93.7"/>
		<path class="st4" d="M53,118.3c-0.1-1-0.1-2,0-3c0.3-0.1,0.5-0.1,0.8-0.1h12.4c0.2,0,0.3,0,0.5,0.1c0.4,0.5,0.3,1,0.3,1.5
			c0.1,0.5,0,1.1-0.2,1.6c-0.3,0-0.5,0.1-0.8,0.1C61.3,118.7,54.3,118.6,53,118.3"/>
		<path class="st4" d="M113.9,118.4c-0.2-1-0.2-2,0-3c0.2-0.1,0.5-0.1,0.8-0.1H127c0.2,0,0.5,0,0.7,0.1c0.2,1,0.2,2,0,3
			c-0.2,0.1-0.4,0.1-0.5,0.1C125.6,118.5,114.9,118.4,113.9,118.4"/>
		<path class="st4" d="M107.7,84c0.2,0,0.3,0.1,0.5,0.2c0.7,0.4,1.4,0.8,2.2,1.3c-0.4,1.1-6.3,11.3-7,12.1c-0.9-0.4-1.8-0.9-2.6-1.5
			C101.2,94.8,106.9,84.9,107.7,84"/>
		<path class="st4" d="M57.2,99.5l1.5-2.6c0.2,0.1,0.4,0.1,0.6,0.2l10.9,6.3c0.2,0.1,0.4,0.3,0.6,0.4c-0.4,1-0.9,1.9-1.5,2.7
			c-1-0.4-8.3-4.5-11.6-6.5C57.6,99.9,57.4,99.7,57.2,99.5"/>
		<path class="st4" d="M80.1,96l-2.7,1.6c-0.7-0.9-6.4-10.7-7-12.1c0.8-0.6,1.7-1.1,2.6-1.5c0.1,0.1,0.3,0.2,0.3,0.3
			C75.6,88.1,77.8,91.9,80.1,96"/>
		<path class="st4" d="M121.8,96.9c0.6,0.8,1.1,1.7,1.6,2.6c-0.1,0.1-0.2,0.3-0.3,0.4l-11.6,6.7c-0.4-0.4-0.7-0.8-0.9-1.3
			c-0.3-0.4-0.5-0.8-0.7-1.3c0.2-0.2,0.4-0.3,0.6-0.5l10.7-6.2C121.3,97.1,121.6,97.1,121.8,96.9"/>
		<path class="st4" d="M117.1,167.9c1,1.5,1.8,3.1,2.4,4.8l-3.8,0.5c-0.6-1-1.1-2-1.6-3C114.9,169.3,116,168.5,117.1,167.9"/>
		<path class="st4" d="M66.8,170c-0.5,0.9-0.9,1.7-1.3,2.5c-0.1,0.2-0.2,0.4-0.4,0.6c-1.3-0.1-2.6-0.2-3.9-0.4
			c0.6-1.7,1.5-3.4,2.5-4.9c0.2,0.1,0.4,0.2,0.5,0.3L66.8,170"/>
		<path class="st4" d="M79.4,158.3c-0.1,0-0.2,0.1-0.3,0.1c-0.1-0.1-0.2-0.1-0.2-0.2c0.1,0,0.2-0.1,0.2-0.1
			C79.2,158.1,79.3,158.2,79.4,158.3"/>
	</g>
</g>
</svg>
