<?xml version="1.0" encoding="utf-8"?>
<!-- Generator: Adobe Illustrator 23.1.0, SVG Export Plug-In . SVG Version: 6.00 Build 0)  -->
<svg version="1.1" id="Layer_1" xmlns="http://www.w3.org/2000/svg" xmlns:xlink="http://www.w3.org/1999/xlink" x="0px" y="0px"
	 viewBox="0 0 292 279" style="enable-background:new 0 0 292 279;" xml:space="preserve">
<style type="text/css">
	.st0{clip-path:url(#SVGID_2_);}
	.st1{fill:none;}
	.st2{clip-path:url(#SVGID_4_);}
	.st3{fill:url(#SVGID_5_);}
	.st4{fill:#959595;}
	.st5{fill:#FFFFFF;}
</style>
<title>Asset 8</title>
<g>
	<g id="Layer_1-2">
		<g>
			<defs>
				<path id="SVGID_1_" d="M-4.5,155.6c4.8-12.5,9.3-25.2,13.8-37.8c1-2.7,1.7-5.5,2.6-8.3c-0.9-0.5-1.7-0.9-2.5-1.3"/>
			</defs>
			<clipPath id="SVGID_2_">
				<use xlink:href="#SVGID_1_"  style="overflow:visible;"/>
			</clipPath>
			<g class="st0">
				<line class="st1" x1="-52.7" y1="319" x2="85.4" y2="168.4"/>
			</g>
		</g>
		<g>
			<defs>
				<path id="SVGID_3_" d="M197.4,47v0.6c0.2,25.9,21.1,46.8,47,47h0.6c26.1-0.2,47.2-21.5,47-47.6S270.5-0.2,244.4,0
					C218.5,0.2,197.6,21.1,197.4,47"/>
			</defs>
			<clipPath id="SVGID_4_">
				<use xlink:href="#SVGID_3_"  style="overflow:visible;"/>
			</clipPath>
			<g class="st2">
				
					<radialGradient id="SVGID_5_" cx="-1571.6951" cy="-3320.7632" r="1" gradientTransform="matrix(64.68 0 0 -64.68 101884.8203 -214774.4219)" gradientUnits="userSpaceOnUse">
					<stop  offset="0" style="stop-color:#FF2639"/>
					<stop  offset="0.29" style="stop-color:#EA1D2C"/>
					<stop  offset="0.9" style="stop-color:#B3040A"/>
					<stop  offset="1" style="stop-color:#A90004"/>
				</radialGradient>
				<rect x="197.4" class="st3" width="94.6" height="94.6"/>
			</g>
		</g>
		<path class="st4" d="M270.1,143.8c0,74.6-60.4,135.1-135,135.1C60.5,279,0,218.6,0,144C0,69.4,60.4,8.9,135,8.8c0,0,0,0,0.1,0
			C209.6,8.8,270.1,69.3,270.1,143.8"/>
		<path class="st5" d="M215,81.8l-2,3.5l-11.7-6.8c0.7-1.2,1.3-2.3,2-3.5L215,81.8"/>
		<path class="st5" d="M184.6,78.5l-11.7,6.7l-2-3.5l11.7-6.8C183.3,76.2,183.9,77.3,184.6,78.5"/>
		<path class="st5" d="M193.9,62.8c-4.5,0.2-8,4.1-7.8,8.6s4.1,8,8.6,7.8c4.4-0.2,7.8-3.9,7.8-8.2C202.4,66.4,198.6,62.7,193.9,62.8
			 M192.1,70c-0.6,2-2.1,3.2-3.3,2.8s-1.7-2.3-1.1-4.2s2.1-3.2,3.3-2.8S192.7,68.1,192.1,70"/>
		<path class="st5" d="M105.5,224.8H67.3c-0.9,0-1.9-0.1-2.8-0.3c-4-1-5.9-4.9-4.2-9.2c1.1-2.8,2.4-5.4,3.9-8.1
			c7.8-15.3,15.6-30.7,23.5-46.1c0.4-0.7,0.6-1.6,0.6-2.4c0-14.4,0-28.8,0-43.2c0.1-0.8-0.3-1.5-1-1.9c-2.8-1.8-3.5-5.6-1.7-8.3
			c1.1-1.6,2.9-2.7,4.9-2.7c10,0,19.9,0,29.9,0c3.3-0.1,6.1,2.5,6.2,5.8c0.1,2.2-1.1,4.2-2.9,5.3c-0.5,0.3-0.9,0.9-0.8,1.5
			c0,14.5,0,29.1,0,43.6c0,0.6,0.1,1.1,0.4,1.6c8.8,17.3,17.6,34.6,26.4,51.9c1.1,2.3,2.1,4.6,1.5,7.2c-0.6,2.6-2.7,4.6-5.4,4.9
			c-0.8,0.1-1.6,0.1-2.3,0.1L105.5,224.8 M105.5,220.9h37.8c0.5,0,1.1,0,1.6,0c1.3,0,2.4-1,2.5-2.3c0-0.1,0-0.3,0-0.4
			c-0.1-1-0.4-2.1-0.9-3c-9-17.6-17.9-35.3-26.9-52.9c-0.4-0.8-0.6-1.7-0.6-2.6c0-15.2,0-30.5,0-45.7c0-2.3,0-2.3,2.1-3.1
			c0.9-0.2,1.5-1.1,1.5-2c0-1-0.7-1.8-1.7-2c-0.4-0.1-0.8-0.1-1.3-0.1H91.7c-0.4,0-0.8,0-1.2,0c-1,0.1-1.8,0.9-1.9,1.9
			c-0.1,1,0.6,1.9,1.6,2.1c1.8,0.6,2.1,0.9,2.1,2.9c0,15.1,0,30.3,0,45.4c0,1.1-0.3,2.3-0.8,3.3c-8.4,16.6-16.9,33.2-25.4,49.8
			c-0.8,1.5-1.5,3-2.1,4.6c-0.8,2.6,0.3,4,3.1,4h38.5"/>
		<rect x="173.5" y="99.8" class="st5" width="3.9" height="13.5"/>
		<rect x="142.9" y="153" class="st5" width="3.9" height="13.4"/>
		<path class="st5" d="M153.3,184.4l2-3.5l11.7,6.7c-0.7,1.1-1.3,2.3-2.1,3.5L153.3,184.4"/>
		<path class="st5" d="M155.4,137.9c-0.7-1.2-1.3-2.3-2-3.5l11.7-6.7c0.7,1.2,1.3,2.3,2,3.5L155.4,137.9"/>
		<path class="st5" d="M183.7,131.7l2-3.5l11.7,6.7c-0.7,1.2-1.4,2.3-2,3.5L183.7,131.7"/>
		<path class="st5" d="M195.3,180.9c0.7,1.2,1.3,2.3,2,3.5l-11.6,6.7c-0.7-1.2-1.3-2.3-2-3.5L195.3,180.9"/>
		<path class="st5" d="M130.3,130.8l6.4,3.7l-2,3.5c-1.3-0.8-2.7-1.5-4-2.3c-0.2-0.2-0.3-0.4-0.3-0.6
			C130.3,133.6,130.3,132.3,130.3,130.8"/>
		<path class="st5" d="M102.3,152.1h-4.5c-0.9,0-1.7-0.2-1.7-1.3s0.8-1.3,1.7-1.3h8.9c0.9,0,1.7,0.2,1.7,1.3s-0.8,1.3-1.7,1.3
			C105.3,152.1,103.8,152.1,102.3,152.1L102.3,152.1z"/>
		<path class="st5" d="M102.2,136.6h-4.6c-0.9,0-1.6-0.3-1.5-1.3s0.7-1.2,1.6-1.2c3.1,0,6.1,0,9.2,0c0.9,0,1.6,0.3,1.5,1.3
			s-0.7,1.2-1.5,1.2L102.2,136.6L102.2,136.6z"/>
		<path class="st5" d="M102.2,121.2h-4.6c-0.9,0-1.4-0.3-1.4-1.3s0.6-1.2,1.5-1.2c3.1,0,6.2,0,9.3,0c0.9,0,1.6,0.3,1.6,1.3
			s-0.7,1.2-1.6,1.2L102.2,121.2"/>
		<path class="st5" d="M100.9,144.4h-3.3c-0.9,0-1.6-0.3-1.6-1.3s0.7-1.3,1.5-1.3c2.2,0,4.4,0,6.6,0c0.9,0,1.5,0.3,1.5,1.4
			s-0.7,1.2-1.5,1.2C103,144.4,102,144.4,100.9,144.4"/>
		<path class="st5" d="M100.8,126.4c1.1,0,2.2,0,3.4,0c0.9,0,1.5,0.3,1.5,1.2c0,1-0.6,1.3-1.4,1.3c-2.2,0-4.5,0-6.7,0
			c-0.9,0-1.4-0.4-1.4-1.3s0.5-1.2,1.4-1.2C98.6,126.4,99.7,126.4,100.8,126.4z"/>
		<path class="st5" d="M114.8,80.8c-4.5,0.2-8,4.1-7.8,8.6c0.2,4.5,4.1,8,8.6,7.8c4.4-0.2,7.8-3.8,7.8-8.2
			C123.3,84.4,119.5,80.7,114.8,80.8 M113,88c-0.6,2-2.1,3.2-3.3,2.8s-1.7-2.3-1.1-4.2s2.1-3.2,3.3-2.8S113.6,86,113,88"/>
		<path class="st5" d="M175.7,80.8c-4.5,0.2-8,4.1-7.8,8.6c0.2,4.5,4.1,8,8.6,7.8c4.3-0.2,7.7-3.8,7.8-8.2
			C184.2,84.4,180.4,80.7,175.7,80.8 M173.9,88c-0.6,2-2.1,3.2-3.3,2.8s-1.7-2.3-1.1-4.2s2.1-3.2,3.3-2.8S174.5,86,173.9,88"/>
		<path class="st5" d="M175.7,115.8c-4.5,0.2-8,4.1-7.8,8.6c0.2,4.5,4.1,8,8.6,7.8c4.4-0.2,7.8-3.8,7.8-8.2
			C184.2,119.4,180.4,115.7,175.7,115.8C175.7,115.8,175.7,115.8,175.7,115.8 M173.9,123c-0.6,1.9-2.1,3.2-3.3,2.8s-1.7-2.3-1.1-4.2
			s2.1-3.2,3.3-2.8S174.5,121.1,173.9,123"/>
		<path class="st5" d="M145.3,133.4c-4.5,0.2-8,4.1-7.8,8.6c0.2,4.5,4.1,8,8.6,7.8c4.4-0.2,7.8-3.8,7.8-8.2
			C153.8,137,149.9,133.3,145.3,133.4C145.3,133.4,145.3,133.4,145.3,133.4 M143.5,140.6c-0.6,1.9-2.1,3.2-3.3,2.8s-1.7-2.2-1.1-4.2
			s2.1-3.2,3.3-2.9S144.1,138.7,143.5,140.6"/>
		<path class="st5" d="M145.3,169.6c-4.5,0.2-8,4.1-7.8,8.6c0.2,4.5,4.1,8,8.6,7.8c4.4-0.2,7.8-3.8,7.8-8.2
			C153.8,173.1,149.9,169.5,145.3,169.6C145.3,169.6,145.3,169.6,145.3,169.6 M143.5,176.8c-0.6,1.9-2.1,3.2-3.3,2.9
			s-1.7-2.3-1.1-4.2s2.1-3.2,3.3-2.8S144.1,174.9,143.5,176.8"/>
		<path class="st5" d="M175.6,186.8c-4.5,0.2-8,4.1-7.8,8.6c0.2,4.5,4.1,8,8.6,7.8c4.4-0.2,7.8-3.8,7.8-8.2
			C184.1,190.3,180.2,186.6,175.6,186.8 M173.8,193.9c-0.6,2-2.1,3.2-3.3,2.9s-1.7-2.3-1.1-4.2s2.1-3.2,3.3-2.9
			S174.3,192,173.8,193.9"/>
		<polygon class="st5" points="89.4,174.1 122.1,174.1 144.9,217.9 67.9,217.9 		"/>
	</g>
</g>
</svg>
