<svg width="274" height="287" viewBox="0 0 274 287" fill="none" xmlns="http://www.w3.org/2000/svg">
<g clip-path="url(#clip0_16_2664)">
<path d="M244.231 152.402C244.231 174.142 237.784 195.394 225.706 213.47C213.628 231.546 196.461 245.634 176.376 253.954C156.291 262.273 134.19 264.45 112.868 260.209C91.5461 255.967 71.9606 245.499 56.5882 230.126C41.2158 214.754 30.7471 195.168 26.5059 173.846C22.2647 152.524 24.4414 130.423 32.7609 110.338C41.0803 90.2532 55.1689 73.0863 73.2448 61.0084C91.3208 48.9304 112.572 42.4838 134.312 42.4838C163.464 42.4861 191.42 54.0675 212.034 74.6807C232.647 95.2939 244.228 123.251 244.231 152.402Z" fill="#959595"/>
<path d="M229.748 146.982C229.75 166.367 224.003 185.317 213.235 201.436C202.467 217.554 187.16 230.118 169.252 237.537C151.343 244.956 131.637 246.899 112.624 243.118C93.6118 239.337 76.1475 230.003 62.4398 216.297C48.7322 202.591 39.3968 185.127 35.6144 166.115C31.832 147.103 33.7724 127.396 41.1902 109.487C48.608 91.5776 61.17 76.2702 77.2877 65.5005C93.4053 54.7308 112.355 48.9824 131.739 48.9824C144.61 48.9813 157.354 51.5152 169.245 56.4397C181.136 61.3641 191.94 68.5826 201.042 77.6828C210.143 86.7831 217.362 97.5869 222.288 109.477C227.213 121.368 229.748 134.112 229.748 146.982" fill="white"/>
<path d="M65.9404 138.813C65.9404 138.76 65.9404 138.707 65.9404 138.654" stroke="black" stroke-width="1.85" stroke-linecap="round" stroke-linejoin="round"/>
<path d="M65.799 132.482C65.8599 129.187 66.1376 125.9 66.6301 122.641" stroke="black" stroke-width="1.85" stroke-linecap="round" stroke-linejoin="round" stroke-dasharray="0.35 6.98"/>
<path d="M67.1959 119.6V119.441" stroke="black" stroke-width="1.85" stroke-linecap="round" stroke-linejoin="round"/>
<path d="M188.007 193.63L187.883 193.728" stroke="black" stroke-width="1.85" stroke-linecap="round" stroke-linejoin="round"/>
<path d="M182.384 197.6C170.191 205.476 155.981 209.659 141.465 209.643C138.109 209.641 134.757 209.42 131.43 208.979" stroke="black" stroke-width="1.85" stroke-linecap="round" stroke-linejoin="round" stroke-dasharray="0.38 7.63"/>
<path d="M128.088 208.458H127.929" stroke="black" stroke-width="1.85" stroke-linecap="round" stroke-linejoin="round"/>
<path d="M151.898 58.991H152.066" stroke="black" stroke-width="1.85" stroke-linecap="round" stroke-linejoin="round"/>
<path d="M158.521 60.2112C177.826 64.72 194.605 76.5963 205.275 93.3052" stroke="black" stroke-width="1.85" stroke-linecap="round" stroke-linejoin="round" stroke-dasharray="0.37 7.42"/>
<path d="M206.963 96.0813C206.963 96.0813 207.025 96.1697 207.052 96.2228" stroke="black" stroke-width="1.85" stroke-linecap="round" stroke-linejoin="round"/>
<path d="M212.251 133.959C212.251 147.959 208.099 161.644 200.321 173.285C192.543 184.926 181.488 193.998 168.554 199.356C155.619 204.714 141.387 206.115 127.655 203.384C113.924 200.653 101.312 193.911 91.4121 184.012C81.5126 174.112 74.7709 161.499 72.0396 147.768C69.3083 134.037 70.7101 119.805 76.0677 106.87C81.4253 93.9359 90.4981 82.8806 102.139 75.1026C113.779 67.3246 127.465 63.1731 141.465 63.1731C160.238 63.1754 178.241 70.6339 191.515 83.9083C204.79 97.1827 212.248 115.186 212.251 133.959Z" fill="#959595"/>
<path d="M138.141 224.638L137.813 224.32" stroke="black" stroke-width="1.85" stroke-linecap="round" stroke-linejoin="round"/>
<path d="M142.721 229.218L142.393 228.899" stroke="black" stroke-width="1.85" stroke-linecap="round" stroke-linejoin="round"/>
<path d="M138.141 228.899L137.813 229.218" stroke="black" stroke-width="1.85" stroke-linecap="round" stroke-linejoin="round"/>
<path d="M142.721 224.32L142.393 224.638" stroke="black" stroke-width="1.85" stroke-linecap="round" stroke-linejoin="round"/>
<g style="mix-blend-mode:multiply" opacity="0.1">
<path d="M135.824 107.867C143.895 97.677 147.86 84.8352 146.939 71.8685C146.019 58.9019 140.278 46.7494 130.848 37.8023C121.418 28.8551 108.98 23.7611 95.9833 23.5227C82.9862 23.2842 70.3704 27.9186 60.6184 36.5138C50.8663 45.1091 44.6841 57.0429 43.2882 69.967C41.8923 82.8911 45.3837 95.8697 53.0756 106.349C60.7674 116.828 72.1027 124.05 84.851 126.592C97.5992 129.134 110.837 126.813 121.961 120.086C129.093 123.804 136.879 126.101 144.887 126.85C144.999 126.861 145.111 126.838 145.21 126.784C145.309 126.731 145.39 126.649 145.442 126.549C145.494 126.45 145.515 126.337 145.503 126.225C145.491 126.113 145.446 126.008 145.373 125.922C143.295 123.375 137.999 116.267 135.824 107.867" fill="black"/>
</g>
<path d="M135.824 101.333C143.888 91.1495 147.849 78.3165 146.928 65.3594C146.006 52.4022 140.269 40.2589 130.845 31.3188C121.421 22.3787 108.993 17.289 96.0048 17.0511C83.0171 16.8132 70.4106 21.4444 60.6655 30.0335C50.9205 38.6225 44.7426 50.5475 43.3473 63.4623C41.952 76.377 45.4403 89.3464 53.126 99.8186C60.8116 110.291 72.1381 117.508 84.877 120.049C97.6158 122.591 110.845 120.273 121.961 113.552C129.479 117.507 137.745 119.838 146.222 120.396C146.222 120.396 138.556 111.89 135.824 101.333" fill="white"/>
<path d="M135.824 101.333C143.888 91.1495 147.849 78.3165 146.928 65.3594C146.006 52.4022 140.269 40.2589 130.845 31.3188C121.421 22.3787 108.993 17.289 96.0048 17.0511C83.0171 16.8132 70.4106 21.4444 60.6655 30.0335C50.9205 38.6225 44.7426 50.5475 43.3473 63.4623C41.952 76.377 45.4403 89.3464 53.126 99.8186C60.8116 110.291 72.1381 117.508 84.877 120.049C97.6158 122.591 110.845 120.273 121.961 113.552C129.479 117.507 137.745 119.838 146.222 120.396C146.222 120.396 138.556 111.89 135.824 101.333Z" stroke="black" stroke-width="1.85" stroke-linecap="round" stroke-linejoin="round"/>
<g style="mix-blend-mode:multiply" opacity="0.1">
<path d="M46.3121 76.2674C46.1635 64.8044 49.806 53.6134 56.6734 44.4339C63.5408 35.2545 73.2483 28.601 84.287 25.5076C95.3258 22.4141 107.077 23.0541 117.715 27.3281C128.352 31.602 137.28 39.2705 143.11 49.1414C140.379 42.5442 136.32 36.5796 131.185 31.6193C126.049 26.6589 119.948 22.8089 113.26 20.309C106.572 17.8092 99.4406 16.713 92.3106 17.0887C85.1806 17.4644 78.2043 19.304 71.8161 22.4929C65.428 25.6818 59.7647 30.1518 55.179 35.6244C50.5934 41.0971 47.1835 47.4552 45.1617 54.3029C43.14 61.1505 42.5496 68.3411 43.4275 75.4268C44.3053 82.5126 46.6326 89.3417 50.2643 95.4889C47.7348 89.395 46.3933 82.8738 46.3121 76.2762" fill="black"/>
</g>
<g style="mix-blend-mode:multiply" opacity="0.1">
<path d="M90.9532 229.2C82.2455 218.103 78.0064 204.148 79.07 190.082C80.1337 176.016 86.4231 162.858 96.7007 153.196C106.978 143.534 120.5 138.068 134.604 137.874C148.709 137.681 162.376 142.773 172.915 152.148C183.454 161.524 190.103 174.505 191.552 188.536C193.002 202.567 189.148 216.633 180.749 227.966C172.349 239.299 160.013 247.077 146.166 249.772C132.32 252.466 117.967 249.881 105.931 242.524C98.2429 246.493 89.8609 248.94 81.2451 249.73C81.1071 249.745 80.9679 249.718 80.8453 249.652C80.7227 249.587 80.6223 249.487 80.5568 249.365C80.4914 249.243 80.4639 249.103 80.4778 248.965C80.4917 248.827 80.5465 248.697 80.6351 248.59C82.9781 245.716 88.5925 238.148 90.9532 229.2" fill="black"/>
</g>
<path d="M90.9532 223.126C82.2472 212.03 78.0092 198.078 79.073 184.014C80.1368 169.951 86.4253 156.794 96.7013 147.134C106.977 137.474 120.497 132.01 134.599 131.816C148.701 131.622 162.365 136.713 172.903 146.088C183.44 155.462 190.088 168.44 191.538 182.469C192.987 196.498 189.134 210.562 180.736 221.893C172.338 233.224 160.004 241.001 146.16 243.695C132.316 246.389 117.965 243.805 105.931 236.45C97.7536 240.704 88.7742 243.192 79.5741 243.753C79.5741 243.753 87.9294 234.567 90.9443 223.126" fill="white"/>
<path d="M90.9532 223.126C82.2472 212.03 78.0092 198.078 79.073 184.014C80.1368 169.951 86.4253 156.794 96.7013 147.134C106.977 137.474 120.497 132.01 134.599 131.816C148.701 131.622 162.365 136.713 172.903 146.088C183.44 155.462 190.088 168.44 191.538 182.469C192.987 196.498 189.134 210.562 180.736 221.893C172.338 233.224 160.004 241.001 146.16 243.695C132.316 246.389 117.965 243.805 105.931 236.45C97.7536 240.704 88.7742 243.192 79.5741 243.753C79.5741 243.753 87.9382 234.567 90.9532 223.126Z" stroke="black" stroke-width="2.29" stroke-linecap="round" stroke-linejoin="round"/>
<path d="M143.41 205.054L177.203 165.125C177.971 164.206 178.367 163.033 178.313 161.837C178.259 160.64 177.759 159.507 176.912 158.661C176.065 157.815 174.931 157.317 173.735 157.264C172.538 157.212 171.366 157.61 170.448 158.379L138.079 185.885C137.794 186.17 137.407 186.329 137.005 186.329C136.602 186.329 136.215 186.17 135.93 185.885L120.245 175.947C119.062 175.205 117.651 174.915 116.27 175.129C114.89 175.343 113.633 176.047 112.73 177.113C111.826 178.178 111.337 179.534 111.352 180.93C111.367 182.327 111.884 183.672 112.81 184.718L130.855 205.195C131.646 206.089 132.619 206.801 133.709 207.285C134.8 207.769 135.981 208.013 137.174 207.999C138.367 207.986 139.543 207.716 140.622 207.207C141.701 206.699 142.658 205.965 143.428 205.054" fill="#666666"/>
<path d="M156.266 156.363C149.157 151.708 140.699 149.557 132.23 150.251C123.761 150.945 115.765 154.443 109.508 160.193C103.251 165.942 99.0911 173.615 97.6858 181.995C96.2805 190.375 97.7105 198.985 101.749 206.461C105.788 213.937 112.206 219.853 119.985 223.271C127.765 226.689 136.462 227.415 144.7 225.334C152.939 223.252 160.248 218.483 165.47 211.779C170.693 205.076 173.53 196.823 173.533 188.326C173.533 187.229 173.489 186.142 173.392 185.072" stroke="black" stroke-width="2.29" stroke-linecap="round" stroke-linejoin="round"/>
<path d="M39.3273 197.079C31.4165 181.197 27.6357 163.577 28.3342 145.847C29.0327 128.118 34.1879 110.85 43.3237 95.6394" stroke="black" stroke-width="1.84" stroke-linecap="round" stroke-linejoin="round"/>
<path d="M229.748 193.312C221.403 211.811 207.895 227.508 190.847 238.518C173.798 249.528 153.935 255.383 133.64 255.38C131.695 255.38 129.762 255.327 127.84 255.221" stroke="black" stroke-width="1.84" stroke-linecap="round" stroke-linejoin="round"/>
<path d="M148.768 45.658C164.994 48.0173 180.447 54.1257 193.9 63.4984C207.354 72.8711 218.438 85.2501 226.273 99.6534" stroke="black" stroke-width="1.84" stroke-linecap="round" stroke-linejoin="round"/>
<path d="M267.519 150.731L263.735 150.413" stroke="white" stroke-width="1.85" stroke-linecap="round" stroke-linejoin="round"/>
<path d="M30.9013 252.259L27.0552 254.805" stroke="white" stroke-width="1.85" stroke-linecap="round" stroke-linejoin="round"/>
<path d="M85.604 2.58179L84.879 0.813477" stroke="white" stroke-width="1.85" stroke-linecap="round" stroke-linejoin="round"/>
<path d="M198.741 271.984L195.248 265.035" stroke="white" stroke-width="1.85" stroke-linecap="round" stroke-linejoin="round"/>
<path d="M11.6709 188.697L9.55774 189.218" stroke="white" stroke-width="1.85" stroke-linecap="round" stroke-linejoin="round"/>
<path d="M10.212 106.7L2.39606 103.42" stroke="white" stroke-width="1.85" stroke-linecap="round" stroke-linejoin="round"/>
<path d="M256.361 192.004L252.657 190.456" stroke="white" stroke-width="1.85" stroke-linecap="round" stroke-linejoin="round"/>
<path d="M191.402 28.0543L189.97 31.4672" stroke="white" stroke-width="1.85" stroke-linecap="round" stroke-linejoin="round"/>
<path d="M129.582 10.4862L131.156 6.72852" stroke="white" stroke-width="1.85" stroke-linecap="round" stroke-linejoin="round"/>
<path d="M180.562 273.912L179.802 270.092" stroke="white" stroke-width="1.85" stroke-linecap="round" stroke-linejoin="round"/>
<path d="M7.04671 171.385L1.12286 171.889" stroke="white" stroke-width="1.85" stroke-linecap="round" stroke-linejoin="round"/>
<path d="M272.311 129.697L265.477 130.846" stroke="white" stroke-width="1.85" stroke-linecap="round" stroke-linejoin="round"/>
<path d="M255.442 207.768L250.137 204.709" stroke="white" stroke-width="1.85" stroke-linecap="round" stroke-linejoin="round"/>
<path d="M207.945 29.7607L203.604 36.2416" stroke="white" stroke-width="1.85" stroke-linecap="round" stroke-linejoin="round"/>
<path d="M52.2272 10.5481L48.2396 4.52698" stroke="white" stroke-width="1.85" stroke-linecap="round" stroke-linejoin="round"/>
<path d="M251.375 79.1675L247.502 82.2886" stroke="white" stroke-width="1.85" stroke-linecap="round" stroke-linejoin="round"/>
<path d="M8.94763 120.776L6.92291 120.369" stroke="white" stroke-width="1.85" stroke-linecap="round" stroke-linejoin="round"/>
<path d="M172.411 18.1342C172.411 18.8336 172.203 19.5174 171.815 20.099C171.426 20.6806 170.874 21.1339 170.227 21.4016C169.581 21.6693 168.87 21.7393 168.184 21.6028C167.498 21.4664 166.868 21.1295 166.373 20.6349C165.879 20.1403 165.542 19.5102 165.405 18.8241C165.269 18.1381 165.339 17.427 165.606 16.7808C165.874 16.1345 166.327 15.5822 166.909 15.1936C167.491 14.805 168.174 14.5975 168.874 14.5975C169.812 14.5975 170.711 14.9701 171.375 15.6334C172.038 16.2966 172.411 17.1962 172.411 18.1342Z" stroke="white" stroke-width="1.85" stroke-linecap="round" stroke-linejoin="round"/>
<path d="M262.082 112.129L269.305 114.065C269.614 114.15 269.94 114.152 270.249 114.07C270.559 113.988 270.841 113.826 271.067 113.599C271.294 113.373 271.456 113.09 271.538 112.781C271.62 112.471 271.618 112.146 271.533 111.837L269.597 104.614C269.513 104.306 269.351 104.026 269.125 103.801C268.899 103.576 268.618 103.415 268.31 103.332C268.002 103.25 267.678 103.25 267.371 103.332C267.063 103.414 266.782 103.575 266.556 103.8L261.251 109.105C261.028 109.332 260.869 109.612 260.789 109.92C260.709 110.227 260.711 110.55 260.795 110.856C260.879 111.163 261.043 111.441 261.268 111.665C261.494 111.888 261.775 112.048 262.082 112.129V112.129Z" stroke="white" stroke-width="1.85" stroke-linecap="round" stroke-linejoin="round"/>
<path d="M234.584 235.76C234.584 236.724 234.299 237.667 233.763 238.468C233.227 239.269 232.466 239.894 231.575 240.262C230.684 240.631 229.704 240.726 228.759 240.538C227.814 240.349 226.946 239.884 226.265 239.202C225.584 238.52 225.121 237.651 224.934 236.705C224.747 235.76 224.844 234.78 225.214 233.89C225.585 233 226.21 232.24 227.013 231.705C227.815 231.171 228.758 230.887 229.722 230.889C230.361 230.889 230.994 231.015 231.585 231.26C232.175 231.505 232.712 231.864 233.163 232.316C233.615 232.769 233.973 233.306 234.217 233.897C234.461 234.488 234.586 235.121 234.584 235.76V235.76Z" stroke="white" stroke-width="1.85" stroke-linecap="round" stroke-linejoin="round"/>
<path d="M17.5682 222.445L18.8237 228.457C18.8779 228.714 18.9986 228.951 19.1736 229.146C19.3486 229.341 19.5718 229.487 19.8207 229.568C20.0697 229.65 20.3358 229.664 20.5922 229.611C20.8486 229.557 21.0864 229.437 21.2817 229.262L25.8616 225.168C26.0559 224.993 26.2009 224.77 26.282 224.522C26.3631 224.273 26.3776 224.007 26.3239 223.751C26.2702 223.495 26.1502 223.258 25.976 223.063C25.8018 222.868 25.5794 222.722 25.3311 222.64L19.5045 220.721C19.255 220.638 18.9879 220.621 18.7302 220.674C18.4725 220.727 18.2334 220.847 18.0369 221.022C17.8404 221.197 17.6936 221.421 17.6113 221.671C17.529 221.92 17.5141 222.188 17.5682 222.445V222.445Z" stroke="white" stroke-width="1.85" stroke-linecap="round" stroke-linejoin="round"/>
<path d="M11.7593 72.3859L9.63732 78.0799C9.54715 78.3238 9.5226 78.5871 9.56611 78.8435C9.60962 79.0999 9.71967 79.3403 9.88527 79.5408C10.0509 79.7413 10.2662 79.8948 10.5097 79.986C10.7533 80.0772 11.0165 80.1029 11.273 80.0604L17.2676 79.0436C17.5224 78.9993 17.761 78.8887 17.9597 78.7232C18.1583 78.5576 18.31 78.3427 18.3995 78.1001C18.489 77.8575 18.5133 77.5957 18.4698 77.3407C18.4263 77.0858 18.3166 76.8468 18.1518 76.6476L14.2791 71.9615C14.114 71.7622 13.8994 71.6098 13.6568 71.5196C13.4142 71.4294 13.1521 71.4045 12.8969 71.4475C12.6417 71.4905 12.4022 71.5998 12.2026 71.7645C12.0029 71.9292 11.85 72.1435 11.7593 72.3859V72.3859Z" stroke="white" stroke-width="1.85" stroke-linecap="round" stroke-linejoin="round"/>
<path d="M5.72046 145.108L6.88755 143.941" stroke="white" stroke-width="1.85" stroke-linecap="round" stroke-linejoin="round"/>
<path d="M12.0245 138.804L13.1916 137.637" stroke="white" stroke-width="1.85" stroke-linecap="round" stroke-linejoin="round"/>
<path d="M13.1916 145.108L12.0245 143.941" stroke="white" stroke-width="1.85" stroke-linecap="round" stroke-linejoin="round"/>
<path d="M6.88755 138.804L5.72046 137.637" stroke="white" stroke-width="1.85" stroke-linecap="round" stroke-linejoin="round"/>
<path d="M36.6837 281.127L36.3831 280.817" stroke="white" stroke-width="1.85" stroke-linecap="round" stroke-linejoin="round"/>
<path d="M40.8922 285.468L40.6005 285.167" stroke="white" stroke-width="1.85" stroke-linecap="round" stroke-linejoin="round"/>
<path d="M36.6218 285.105L36.3123 285.397" stroke="white" stroke-width="1.85" stroke-linecap="round" stroke-linejoin="round"/>
<path d="M40.963 280.888L40.6624 281.189" stroke="white" stroke-width="1.85" stroke-linecap="round" stroke-linejoin="round"/>
<path d="M84.1364 277.272L85.5775 275.839" stroke="white" stroke-width="1.85" stroke-linecap="round" stroke-linejoin="round"/>
<path d="M91.8816 269.535L93.3139 268.103" stroke="white" stroke-width="1.85" stroke-linecap="round" stroke-linejoin="round"/>
<path d="M93.3139 277.272L91.8816 275.839" stroke="white" stroke-width="1.85" stroke-linecap="round" stroke-linejoin="round"/>
<path d="M85.5775 269.535L84.1364 268.103" stroke="white" stroke-width="1.85" stroke-linecap="round" stroke-linejoin="round"/>
<path d="M30.7952 66.5417C30.674 58.9583 32.058 51.4262 34.8672 44.3812C37.6763 37.3363 41.8549 30.9184 47.1609 25.4991" stroke="white" stroke-width="1.85" stroke-linecap="round" stroke-linejoin="round" stroke-dasharray="0.37 7.32"/>
<path d="M198.935 46.0646C210.725 52.8923 221.138 61.8575 229.642 72.5009" stroke="white" stroke-width="1.85" stroke-linecap="round" stroke-linejoin="round" stroke-dasharray="0.29 5.91"/>
<path d="M262.63 140.767H258.828" stroke="black" stroke-width="1.85" stroke-linecap="round" stroke-linejoin="round"/>
<path d="M30.9013 242.454L27.0552 245" stroke="black" stroke-width="1.85" stroke-linecap="round" stroke-linejoin="round"/>
<path d="M79.0702 7.48005L78.3452 5.72058" stroke="black" stroke-width="1.85" stroke-linecap="round" stroke-linejoin="round"/>
<path d="M188.661 268.837L185.717 261.649" stroke="black" stroke-width="1.85" stroke-linecap="round" stroke-linejoin="round"/>
<path d="M21.6795 193.179L19.6725 194.002" stroke="black" stroke-width="1.85" stroke-linecap="round" stroke-linejoin="round"/>
<path d="M20.0615 117.407L12.2544 114.127" stroke="black" stroke-width="1.85" stroke-linecap="round" stroke-linejoin="round"/>
<path d="M248.192 196.902L244.496 195.354" stroke="black" stroke-width="1.85" stroke-linecap="round" stroke-linejoin="round"/>
<path d="M181.606 32.9526L180.173 36.3655" stroke="black" stroke-width="1.85" stroke-linecap="round" stroke-linejoin="round"/>
<path d="M119.777 12.1218L121.351 8.36414" stroke="black" stroke-width="1.85" stroke-linecap="round" stroke-linejoin="round"/>
<path d="M172.393 269.014L171.641 265.185" stroke="black" stroke-width="1.85" stroke-linecap="round" stroke-linejoin="round"/>
<path d="M16.8166 178.662L10.9901 179.82" stroke="black" stroke-width="1.85" stroke-linecap="round" stroke-linejoin="round"/>
<path d="M262.63 122.695L255.99 124.702" stroke="black" stroke-width="1.85" stroke-linecap="round" stroke-linejoin="round"/>
<path d="M243.895 211.207L238.811 207.803" stroke="black" stroke-width="1.85" stroke-linecap="round" stroke-linejoin="round"/>
<path d="M196.513 34.6591L192.172 41.1488" stroke="black" stroke-width="1.85" stroke-linecap="round" stroke-linejoin="round"/>
<path d="M66.9218 12.1838L62.9343 6.15381" stroke="black" stroke-width="1.85" stroke-linecap="round" stroke-linejoin="round"/>
<path d="M238.307 79.1675L234.434 82.2886" stroke="black" stroke-width="1.85" stroke-linecap="round" stroke-linejoin="round"/>
<path d="M16.6663 128.044L14.6505 127.628" stroke="black" stroke-width="1.85" stroke-linecap="round" stroke-linejoin="round"/>
<path d="M157.734 21.3966C157.734 22.0961 157.526 22.7799 157.138 23.3615C156.749 23.9431 156.197 24.3964 155.55 24.664C154.904 24.9317 154.193 25.0017 153.507 24.8653C152.821 24.7288 152.191 24.392 151.696 23.8974C151.202 23.4028 150.865 22.7726 150.728 22.0866C150.592 21.4005 150.662 20.6894 150.929 20.0432C151.197 19.397 151.65 18.8446 152.232 18.456C152.814 18.0674 153.497 17.86 154.197 17.86C155.135 17.86 156.034 18.2326 156.698 18.8958C157.361 19.5591 157.734 20.4586 157.734 21.3966Z" stroke="black" stroke-width="1.85" stroke-linecap="round" stroke-linejoin="round"/>
<path d="M249.544 96.5322L256.777 98.4774C257.086 98.56 257.412 98.5597 257.721 98.4765C258.03 98.3932 258.312 98.23 258.538 98.0031C258.764 97.7763 258.926 97.4939 259.008 97.1845C259.09 96.875 259.089 96.5494 259.005 96.2405L257.069 89.0169C256.985 88.7094 256.822 88.4293 256.596 88.2045C256.37 87.9796 256.09 87.818 255.782 87.7357C255.474 87.6533 255.15 87.6532 254.842 87.7353C254.534 87.8174 254.253 87.9788 254.027 88.2035L248.722 93.5084C248.499 93.7342 248.34 94.0146 248.259 94.3214C248.179 94.6282 248.18 94.9507 248.264 95.2568C248.347 95.5629 248.509 95.8418 248.734 96.0656C248.958 96.2894 249.238 96.4503 249.544 96.5322V96.5322Z" stroke="black" stroke-width="1.85" stroke-linecap="round" stroke-linejoin="round"/>
<path d="M224.788 250.455C224.788 251.419 224.502 252.361 223.967 253.162C223.432 253.963 222.671 254.587 221.781 254.956C220.891 255.325 219.911 255.421 218.966 255.233C218.021 255.045 217.153 254.581 216.472 253.9C215.79 253.219 215.326 252.351 215.138 251.406C214.95 250.461 215.047 249.481 215.416 248.591C215.784 247.701 216.409 246.94 217.21 246.405C218.011 245.869 218.953 245.583 219.916 245.583C221.208 245.583 222.448 246.097 223.361 247.01C224.275 247.924 224.788 249.163 224.788 250.455V250.455Z" stroke="black" stroke-width="1.85" stroke-linecap="round" stroke-linejoin="round"/>
<path d="M9.93791 210.474L11.1934 216.477C11.2464 216.734 11.3662 216.973 11.5407 217.169C11.7152 217.365 11.9382 217.511 12.1874 217.594C12.4366 217.676 12.7031 217.692 12.9601 217.638C13.2171 217.585 13.4555 217.465 13.6514 217.291L18.2225 213.197C18.4169 213.022 18.5623 212.8 18.644 212.552C18.7257 212.304 18.7409 212.039 18.6882 211.783C18.6354 211.527 18.5164 211.289 18.3432 211.094C18.1699 210.898 17.9484 210.751 17.7008 210.668L11.8654 208.75C11.6164 208.668 11.3504 208.654 11.094 208.707C10.8377 208.761 10.5999 208.881 10.4047 209.056C10.2095 209.231 10.0636 209.454 9.98164 209.702C9.89972 209.951 9.88463 210.217 9.93791 210.474V210.474Z" stroke="black" stroke-width="1.85" stroke-linecap="round" stroke-linejoin="round"/>
<path d="M16.6575 88.849L14.5355 94.543C14.4431 94.7861 14.4165 95.0494 14.4585 95.3061C14.5005 95.5628 14.6096 95.8039 14.7747 96.0049C14.9398 96.2059 15.1551 96.3598 15.3988 96.4508C15.6425 96.5419 15.9059 96.5669 16.1624 96.5235L22.157 95.489C22.4117 95.4447 22.6504 95.3342 22.849 95.1686C23.0477 95.003 23.1993 94.7882 23.2889 94.5455C23.3784 94.3029 23.4026 94.0411 23.3591 93.7861C23.3157 93.5312 23.206 93.2922 23.0411 93.093L19.1774 88.4158C19.013 88.2141 18.798 88.0597 18.5544 87.9685C18.3108 87.8772 18.0473 87.8524 17.7909 87.8965C17.5345 87.9405 17.2945 88.052 17.0953 88.2194C16.8961 88.3867 16.7451 88.604 16.6575 88.849V88.849Z" stroke="black" stroke-width="1.85" stroke-linecap="round" stroke-linejoin="round"/>
<path d="M0.813416 159.811L1.9805 158.644" stroke="black" stroke-width="1.85" stroke-linecap="round" stroke-linejoin="round"/>
<path d="M7.11743 153.507L8.29336 152.34" stroke="black" stroke-width="1.85" stroke-linecap="round" stroke-linejoin="round"/>
<path d="M8.28452 159.811L7.11743 158.644" stroke="black" stroke-width="1.85" stroke-linecap="round" stroke-linejoin="round"/>
<path d="M1.98934 153.507L0.813416 152.34" stroke="black" stroke-width="1.85" stroke-linecap="round" stroke-linejoin="round"/>
<path d="M28.4787 271.357L28.1869 271.056" stroke="black" stroke-width="1.85" stroke-linecap="round" stroke-linejoin="round"/>
<path d="M32.7669 275.636L32.4662 275.335" stroke="black" stroke-width="1.85" stroke-linecap="round" stroke-linejoin="round"/>
<path d="M28.4787 275.335L28.1869 275.636" stroke="black" stroke-width="1.85" stroke-linecap="round" stroke-linejoin="round"/>
<path d="M32.7669 271.056L32.4662 271.357" stroke="black" stroke-width="1.85" stroke-linecap="round" stroke-linejoin="round"/>
<path d="M64.5435 274.009L65.9758 272.577" stroke="black" stroke-width="1.85" stroke-linecap="round" stroke-linejoin="round"/>
<path d="M72.2798 266.273L73.7121 264.832" stroke="black" stroke-width="1.85" stroke-linecap="round" stroke-linejoin="round"/>
<path d="M73.7121 274.009L72.2798 272.577" stroke="black" stroke-width="1.85" stroke-linecap="round" stroke-linejoin="round"/>
<path d="M65.9758 266.273L64.5435 264.832" stroke="black" stroke-width="1.85" stroke-linecap="round" stroke-linejoin="round"/>
<path d="M37.3291 69.8484C37.2022 62.259 38.5835 54.7199 41.3929 47.6684C44.2022 40.6169 48.3837 34.1934 53.6949 28.7705" stroke="black" stroke-width="1.85" stroke-linecap="round" stroke-linejoin="round" stroke-dasharray="0.37 7.32"/>
<path d="M185.045 47.1079C198.674 53.8359 210.929 63.0472 221.181 74.2692" stroke="black" stroke-width="1.85" stroke-linecap="round" stroke-linejoin="round" stroke-dasharray="0.33 6.6"/>
<path d="M141.465 148.22L142.632 147.053" stroke="white" stroke-width="1.85" stroke-linecap="round" stroke-linejoin="round"/>
<path d="M147.769 141.916L148.936 140.749" stroke="white" stroke-width="1.85" stroke-linecap="round" stroke-linejoin="round"/>
<path d="M148.936 148.22L147.769 147.053" stroke="white" stroke-width="1.85" stroke-linecap="round" stroke-linejoin="round"/>
<path d="M142.632 141.916L141.465 140.749" stroke="white" stroke-width="1.85" stroke-linecap="round" stroke-linejoin="round"/>
<path d="M124.259 65.7372L123.976 65.4631" stroke="black" stroke-width="1.85" stroke-linecap="round" stroke-linejoin="round"/>
<path d="M128.212 69.6894L127.938 69.4153" stroke="black" stroke-width="1.85" stroke-linecap="round" stroke-linejoin="round"/>
<path d="M124.259 69.4153L123.976 69.6894" stroke="black" stroke-width="1.85" stroke-linecap="round" stroke-linejoin="round"/>
<path d="M128.212 65.4541L127.938 65.737" stroke="black" stroke-width="1.85" stroke-linecap="round" stroke-linejoin="round"/>
<path d="M111.908 46.5863L112.783 45.7109" stroke="black" stroke-width="1.85" stroke-linecap="round" stroke-linejoin="round"/>
<path d="M116.638 41.8649L117.513 40.9896" stroke="black" stroke-width="1.85" stroke-linecap="round" stroke-linejoin="round"/>
<path d="M117.504 46.5863L116.629 45.7109" stroke="black" stroke-width="1.85" stroke-linecap="round" stroke-linejoin="round"/>
<path d="M112.783 41.8649L111.908 40.9896" stroke="black" stroke-width="1.85" stroke-linecap="round" stroke-linejoin="round"/>
<path d="M65.5425 58.5048L65.2684 58.2307" stroke="black" stroke-width="1.85" stroke-linecap="round" stroke-linejoin="round"/>
<path d="M69.4947 62.4569L69.2206 62.1829" stroke="black" stroke-width="1.85" stroke-linecap="round" stroke-linejoin="round"/>
<path d="M65.5425 62.1829L65.2684 62.4658" stroke="black" stroke-width="1.85" stroke-linecap="round" stroke-linejoin="round"/>
<path d="M69.4947 58.2307L69.2206 58.5048" stroke="black" stroke-width="1.85" stroke-linecap="round" stroke-linejoin="round"/>
<path d="M106.603 57.3642C106.603 65.4542 101.298 69.9369 94.6666 69.9369C88.0355 69.9369 82.7305 65.4277 82.7305 57.3642C82.7305 46.4537 94.6666 35.2603 94.6666 35.2603C94.6666 35.2603 106.603 46.4537 106.603 57.3642Z" stroke="black" stroke-width="1.85" stroke-linecap="round" stroke-linejoin="round"/>
<path d="M94.6667 43.7834V75.9049" stroke="black" stroke-width="1.85" stroke-linecap="round" stroke-linejoin="round"/>
<path d="M94.6667 64.2342L101.784 57.1167" stroke="black" stroke-width="1.85" stroke-linecap="round" stroke-linejoin="round"/>
<path d="M94.6667 53.8276L98.442 50.0522" stroke="black" stroke-width="1.85" stroke-linecap="round" stroke-linejoin="round"/>
<path d="M94.6667 64.2342L87.5492 57.1167" stroke="black" stroke-width="1.85" stroke-linecap="round" stroke-linejoin="round"/>
<path d="M94.6667 53.8276L90.8914 50.0522" stroke="black" stroke-width="1.85" stroke-linecap="round" stroke-linejoin="round"/>
<path d="M72.5981 74.8617C79.6095 70.8123 86.1522 73.1995 89.4501 78.9112C92.748 84.6228 91.5456 91.4927 84.5342 95.5422C75.0826 100.997 59.3888 96.276 59.3888 96.276C59.3888 96.276 63.1465 80.317 72.5981 74.8617Z" stroke="black" stroke-width="1.85" stroke-linecap="round" stroke-linejoin="round"/>
<path d="M66.8069 91.9878L94.6667 75.905" stroke="black" stroke-width="1.85" stroke-linecap="round" stroke-linejoin="round"/>
<path d="M84.5166 81.767L74.7908 79.1587" stroke="black" stroke-width="1.85" stroke-linecap="round" stroke-linejoin="round"/>
<path d="M75.4981 86.9657L70.3435 85.5864" stroke="black" stroke-width="1.85" stroke-linecap="round" stroke-linejoin="round"/>
<path d="M84.5165 81.7668L81.9083 91.4837" stroke="black" stroke-width="1.85" stroke-linecap="round" stroke-linejoin="round"/>
<path d="M75.4982 86.9658L74.1189 92.1205" stroke="black" stroke-width="1.85" stroke-linecap="round" stroke-linejoin="round"/>
<path d="M116.709 74.8617C109.697 70.8123 103.146 73.1995 99.8567 78.9112C96.5676 84.6228 97.7613 91.4927 104.773 95.5422C114.224 100.997 129.918 96.276 129.918 96.276C129.918 96.276 126.187 80.317 116.709 74.8617Z" stroke="black" stroke-width="1.85" stroke-linecap="round" stroke-linejoin="round"/>
<path d="M122.526 91.9878L94.6667 75.905" stroke="black" stroke-width="1.85" stroke-linecap="round" stroke-linejoin="round"/>
<path d="M104.817 81.767L114.542 79.1587" stroke="black" stroke-width="1.85" stroke-linecap="round" stroke-linejoin="round"/>
<path d="M113.835 86.9657L118.981 85.5864" stroke="black" stroke-width="1.85" stroke-linecap="round" stroke-linejoin="round"/>
<path d="M104.817 81.7668L107.425 91.4837" stroke="black" stroke-width="1.85" stroke-linecap="round" stroke-linejoin="round"/>
<path d="M113.835 86.9658L115.214 92.1205" stroke="black" stroke-width="1.85" stroke-linecap="round" stroke-linejoin="round"/>
</g>
<defs>
<clipPath id="clip0_16_2664">
<rect width="273.125" height="286.29" fill="white"/>
</clipPath>
</defs>
</svg>
