<svg width="273" height="287" viewBox="0 0 273 287" fill="none" xmlns="http://www.w3.org/2000/svg">
<g clip-path="url(#clip0_16_2811)">
<path d="M237.243 130.01C237.251 151.671 230.836 172.848 218.809 190.863C206.781 208.878 189.681 222.921 169.671 231.216C149.661 239.512 127.641 241.687 106.395 237.466C85.1494 233.246 65.6324 222.82 50.3126 207.506C34.9928 192.193 24.5586 172.68 20.3295 151.436C16.1004 130.191 18.2664 108.17 26.5537 88.1573C34.8409 68.1443 48.8771 51.0385 66.887 39.0034C84.8968 26.9682 106.071 20.5444 127.732 20.5444C142.113 20.5444 156.354 23.377 169.64 28.8804C182.926 34.3838 194.999 42.4503 205.168 52.6193C215.337 62.7882 223.403 74.8606 228.907 88.147C234.41 101.433 237.243 115.674 237.243 130.055" fill="#959595"/>
<path d="M225.372 137.62C225.372 156.932 219.645 175.809 208.916 191.866C198.188 207.923 182.938 220.437 165.097 227.827C147.256 235.217 127.624 237.151 108.684 233.384C89.7437 229.616 72.346 220.317 58.6909 206.662C45.0358 193.007 35.7366 175.609 31.9692 156.669C28.2017 137.729 30.1353 118.097 37.5254 100.255C44.9155 82.4142 57.4302 67.165 73.4869 56.4363C89.5435 45.7075 108.421 39.9811 127.732 39.9811C153.628 39.9811 178.463 50.268 196.774 68.579C215.085 86.8899 225.372 111.725 225.372 137.62" fill="white"/>
<path d="M55.443 176.762L55.3536 176.628" stroke="black" stroke-width="1.82" stroke-linecap="round" stroke-linejoin="round"/>
<path d="M51.9325 171.09C43.769 156.484 40.7044 139.575 43.223 123.034C45.7416 106.492 53.6997 91.2617 65.8401 79.7478" stroke="black" stroke-width="1.82" stroke-linecap="round" stroke-linejoin="round" stroke-dasharray="0.37 7.3"/>
<path d="M68.2609 77.5505L68.377 77.4434" stroke="black" stroke-width="1.82" stroke-linecap="round" stroke-linejoin="round"/>
<path d="M183.604 97.6482L183.684 97.7911" stroke="black" stroke-width="1.82" stroke-linecap="round" stroke-linejoin="round"/>
<path d="M186.686 103.785C190.76 112.961 192.96 122.858 193.156 132.896C193.352 142.934 191.541 152.91 187.829 162.238" stroke="black" stroke-width="1.82" stroke-linecap="round" stroke-linejoin="round" stroke-dasharray="0.38 7.51"/>
<path d="M186.516 165.32C186.516 165.373 186.471 165.418 186.453 165.471" stroke="black" stroke-width="1.82" stroke-linecap="round" stroke-linejoin="round"/>
<path d="M188.284 134.369C188.284 148.317 184.148 161.952 176.399 173.549C168.65 185.147 157.635 194.185 144.749 199.523C131.862 204.86 117.683 206.256 104.003 203.534C90.3227 200.812 77.7571 194.095 67.895 184.232C58.0328 174.368 51.3171 161.802 48.597 148.122C45.877 134.441 47.2748 120.262 52.6137 107.376C57.9526 94.49 66.9928 83.4768 78.5911 75.7289C90.1893 67.9811 103.825 63.8466 117.773 63.8484C127.037 63.8496 136.21 65.676 144.767 69.2233C153.325 72.7706 161.1 77.9693 167.648 84.5224C174.197 91.0754 179.389 98.8545 182.93 107.415C186.471 115.976 188.29 125.15 188.284 134.414" fill="#959595"/>
<path d="M203.72 157.209L205.149 155.78" stroke="black" stroke-width="1.82" stroke-linecap="round" stroke-linejoin="round"/>
<path d="M211.428 149.5L212.857 148.071" stroke="black" stroke-width="1.82" stroke-linecap="round" stroke-linejoin="round"/>
<path d="M212.857 157.209L211.428 155.78" stroke="black" stroke-width="1.82" stroke-linecap="round" stroke-linejoin="round"/>
<path d="M205.149 149.5L203.72 148.071" stroke="black" stroke-width="1.82" stroke-linecap="round" stroke-linejoin="round"/>
<g opacity="0.1">
<path d="M126.446 28.1369C98.4075 28.7533 75.1834 50.0658 73.8078 76.5055C72.8342 95.1651 82.5168 111.761 97.6035 121.355L98.3003 135.182C98.3127 135.298 98.3549 135.409 98.423 135.505C98.491 135.6 98.5825 135.676 98.6885 135.725C98.7946 135.775 98.9116 135.796 99.0282 135.787C99.1449 135.778 99.2572 135.739 99.3543 135.673L111.395 127.634C118.63 129.785 126.218 130.49 133.726 129.706C159.63 127.027 180.103 106.759 181.657 82.1864C183.541 52.2274 157.986 27.4402 126.473 28.128" fill="black"/>
</g>
<path d="M127.732 21.6163C116.163 21.6176 104.9 25.335 95.6024 32.2206C86.3051 39.1063 79.4652 48.7961 76.0906 59.8625C72.716 70.9288 72.985 82.7865 76.8581 93.6884C80.7312 104.59 88.0035 113.96 97.6036 120.417L98.3539 136.29L111.395 127.08C118.819 129.436 126.665 130.157 134.395 129.194C142.124 128.232 149.554 125.609 156.174 121.505C162.794 117.401 168.447 111.913 172.747 105.418C177.047 98.9233 179.89 91.5752 181.082 83.8781C182.275 76.1809 181.788 68.3169 179.655 60.8256C177.522 53.3344 173.793 46.3933 168.725 40.4787C163.657 34.564 157.369 29.8159 150.294 26.56C143.218 23.3042 135.521 21.6177 127.732 21.6163" fill="white"/>
<path d="M127.732 21.6163C116.163 21.6176 104.9 25.335 95.6024 32.2206C86.3051 39.1063 79.4652 48.7961 76.0906 59.8625C72.716 70.9288 72.985 82.7865 76.8581 93.6884C80.7312 104.59 88.0035 113.96 97.6036 120.417L98.3539 136.29L111.395 127.08C118.819 129.436 126.665 130.157 134.395 129.194C142.124 128.232 149.554 125.609 156.174 121.505C162.794 117.401 168.447 111.913 172.747 105.418C177.047 98.9233 179.89 91.5752 181.082 83.8781C182.275 76.1809 181.788 68.3169 179.655 60.8256C177.522 53.3344 173.793 46.3933 168.725 40.4787C163.657 34.564 157.369 29.8159 150.294 26.56C143.218 23.3042 135.521 21.6177 127.732 21.6163V21.6163Z" stroke="black" stroke-width="1.82" stroke-linecap="round" stroke-linejoin="round"/>
<g style="mix-blend-mode:multiply" opacity="0.1">
<path d="M75.371 82.115C75.3962 69.2528 80.0119 56.8221 88.3873 47.0605C96.7627 37.2989 108.348 30.8476 121.056 28.868C133.765 26.8885 146.764 29.5106 157.711 36.2624C168.659 43.0142 176.837 53.4522 180.772 65.6974C179.426 58.4451 176.608 51.5456 172.492 45.4247C168.376 39.3038 163.049 34.0914 156.84 30.109C150.631 26.1266 143.672 23.4587 136.392 22.2701C129.113 21.0814 121.666 21.3971 114.513 23.1978C107.36 24.9984 100.652 28.2458 94.8028 32.7394C88.9534 37.2331 84.087 42.8778 80.5037 49.3252C76.9204 55.7725 74.6964 62.8858 73.9688 70.226C73.2411 77.5662 74.0254 84.9777 76.2732 92.0031C75.6782 88.7617 75.3792 85.473 75.38 82.1775" fill="black"/>
</g>
<g style="mix-blend-mode:multiply" opacity="0.1">
<path d="M206.73 229.757L205.229 223.809L198.753 199.825L193.885 182.121C193.678 181.358 193.318 180.645 192.828 180.025C192.338 179.405 191.727 178.89 191.033 178.512C190.338 178.134 189.575 177.901 188.788 177.826C188.001 177.75 187.207 177.835 186.453 178.075L175.02 181.541C173.644 181.992 172.486 182.938 171.769 184.196C171.053 185.454 170.83 186.934 171.143 188.347C165.561 187.257 158.263 185.007 148.509 181.987L142.256 180.049C129.376 176.092 120.738 174.145 106.25 183.47C104.285 184.739 102.356 185.918 100.551 187.043C98.7469 188.169 96.8532 189.303 95.2722 190.348C90.5202 189.535 86.3399 188.856 84.3212 188.562C84.6816 187.127 84.4847 185.61 83.7702 184.315C83.0557 183.021 81.8768 182.045 80.4714 181.585V181.585L69.0916 178.138C68.3413 177.891 67.549 177.799 66.7622 177.867C65.9755 177.935 65.2106 178.161 64.5137 178.533C63.8168 178.904 63.2024 179.413 62.7073 180.028C62.2122 180.643 61.8468 181.352 61.6331 182.112L56.756 199.825L50.2801 223.826L48.7795 229.749C48.375 231.215 48.5572 232.78 49.2875 234.114C50.0179 235.448 51.2389 236.445 52.6918 236.894L64.152 240.28C64.7306 240.458 65.3329 240.549 65.9385 240.548C66.9154 240.546 67.8765 240.301 68.7343 239.833C69.6509 239.302 70.4047 238.529 70.9138 237.6C72.0571 238.368 73.915 239.61 75.8891 240.914C75.8265 240.968 75.7462 241.021 75.6836 241.084C74.7222 242.036 74.0647 243.252 73.7945 244.578C73.5242 245.904 73.6532 247.281 74.1651 248.533C74.7779 250.174 75.8518 251.602 77.2574 252.646C78.6631 253.691 80.3406 254.306 82.0881 254.42C82.306 254.446 82.5065 254.552 82.6515 254.716C82.7965 254.881 82.8757 255.093 82.8741 255.313C82.9837 256.678 83.3917 258.002 84.0693 259.192C84.7468 260.382 85.6775 261.409 86.7954 262.2C87.706 262.883 88.7569 263.355 89.8723 263.582C90.9876 263.809 92.1395 263.785 93.2446 263.513C93.5502 263.408 93.8838 263.42 94.1809 263.547C94.4779 263.674 94.7172 263.907 94.8524 264.201C95.3949 265.609 96.2289 266.888 97.2999 267.952C99.399 270.141 102.838 270.56 104.714 270.632C104.877 270.636 105.038 270.678 105.182 270.756C105.327 270.834 105.451 270.944 105.544 271.078C107.849 274.321 111.797 275.455 115.477 275.455C117.775 275.488 120.052 275.019 122.15 274.08C122.768 273.793 123.316 273.375 123.757 272.856C126.461 274.09 129.381 274.779 132.35 274.884C133.833 274.896 135.306 274.645 136.7 274.142C138.724 273.415 140.453 272.043 141.622 270.239C143.873 269.908 151.18 268.256 153.172 260.654C156.782 260.624 160.253 259.252 162.908 256.805C164.765 255.119 165.922 252.799 166.15 250.302C168.43 250.143 170.628 249.392 172.528 248.123C174.429 246.854 175.965 245.111 176.985 243.067C177.781 241.362 178.049 239.458 177.753 237.6C178.348 237.811 178.972 237.925 179.602 237.939C180.084 237.937 180.564 237.877 181.031 237.761C182.076 237.487 183.105 237.156 184.113 236.769C184.601 238.048 185.525 239.114 186.721 239.78C187.409 240.16 188.166 240.396 188.948 240.474C189.729 240.552 190.519 240.471 191.268 240.235L202.817 236.832C204.254 236.381 205.461 235.392 206.185 234.072C206.909 232.752 207.095 231.202 206.703 229.749" fill="black"/>
</g>
<path d="M187.695 228.846L175.118 181.835C175.08 181.684 174.997 181.547 174.881 181.442C174.765 181.337 174.621 181.269 174.466 181.246C168.446 180.281 160.344 177.771 149.125 174.305L142.622 172.296C129.394 168.231 120.533 166.222 105.687 175.788C103.642 177.11 101.641 178.325 99.7652 179.477C97.7286 180.728 95.8439 181.88 94.1825 182.979C87.2153 181.791 81.3557 180.862 81.3557 180.862C81.1604 180.833 80.9614 180.878 80.7967 180.986C80.632 181.095 80.513 181.26 80.4624 181.451L67.5909 229.489C67.5451 229.654 67.5523 229.829 67.6117 229.989C67.671 230.15 67.7794 230.287 67.9214 230.383C67.9214 230.383 71.2353 232.642 74.7457 234.938C74.5251 235.082 74.3187 235.246 74.1294 235.429C73.1867 236.36 72.5423 237.55 72.2782 238.848C72.0141 240.146 72.1424 241.493 72.6466 242.718C73.2526 244.344 74.3167 245.759 75.7101 246.792C77.1036 247.826 78.7666 248.434 80.4982 248.542C80.8168 248.576 81.1123 248.724 81.3306 248.959C81.5488 249.194 81.6751 249.499 81.6862 249.819C81.7942 251.173 82.1992 252.486 82.8723 253.666C83.5454 254.845 84.4701 255.862 85.5806 256.644C86.4698 257.324 87.5013 257.795 88.5979 258.02C89.6945 258.246 90.828 258.221 91.9137 257.948C92.3284 257.819 92.7757 257.847 93.1719 258.024C93.5681 258.202 93.886 258.517 94.0664 258.912C94.6121 260.317 95.4458 261.592 96.5138 262.655C98.5861 264.817 102.034 265.236 103.901 265.29C104.135 265.298 104.364 265.361 104.57 265.472C104.776 265.584 104.954 265.742 105.089 265.933V265.933C107.384 269.167 111.341 270.301 115.022 270.301C117.347 270.334 119.652 269.858 121.774 268.908C122.464 268.611 123.056 268.125 123.481 267.505C126.312 268.839 129.384 269.586 132.511 269.703C134 269.717 135.48 269.463 136.879 268.952C138.954 268.213 140.715 266.789 141.872 264.915C143.882 264.656 151.814 263.128 153.761 254.964C157.516 255.017 161.149 253.633 163.917 251.097C165.859 249.336 167.027 246.88 167.169 244.263C169.52 244.163 171.801 243.435 173.775 242.155C175.75 240.875 177.346 239.089 178.396 236.984C179.277 235.082 179.491 232.939 179.004 230.901C179.775 231.263 180.617 231.452 181.469 231.454C181.936 231.455 182.401 231.398 182.854 231.285C184.349 230.911 185.813 230.418 187.231 229.811C187.412 229.737 187.56 229.598 187.646 229.422C187.732 229.246 187.749 229.044 187.695 228.855" fill="white"/>
<path d="M208.347 223.683L206.792 217.538L200.093 192.706L195.046 174.368C194.876 173.736 194.579 173.145 194.173 172.631C193.767 172.117 193.261 171.692 192.685 171.38C192.109 171.068 191.476 170.877 190.824 170.818C190.172 170.759 189.514 170.833 188.892 171.036L177.075 174.609C175.903 174.992 174.923 175.809 174.335 176.892C173.747 177.975 173.596 179.242 173.912 180.433L187.088 229.686C187.256 230.316 187.551 230.905 187.954 231.418C188.356 231.931 188.858 232.357 189.43 232.671C190.002 232.985 190.631 233.18 191.28 233.244C191.929 233.308 192.584 233.24 193.206 233.044L205.14 229.561C206.328 229.185 207.325 228.364 207.922 227.271C208.52 226.177 208.672 224.895 208.347 223.692" fill="#666666"/>
<path d="M186.909 229.052C185.529 229.643 184.104 230.124 182.648 230.49C181.715 230.715 180.737 230.666 179.83 230.349C178.924 230.032 178.129 229.461 177.539 228.703C175.752 226.461 172.724 222.665 169.214 218.369C149.045 193.733 136.477 187.909 120.854 190.196C114.021 191.197 111.225 193.501 104.955 195.966C98.8451 198.369 88.1352 198.307 87.8494 191.322C87.6707 186.855 96.3351 182.764 106.125 176.458C120.828 166.99 129.349 169.044 142.381 173.055C157.048 177.521 167.151 180.88 174.332 182.032" stroke="black" stroke-width="1.82" stroke-linecap="round" stroke-linejoin="round"/>
<path d="M122.909 266.371C137.317 273.079 141.363 264.147 141.363 264.147C141.363 264.147 151.331 263.557 153.109 254.098C159.21 254.634 166.633 250.23 166.356 243.46C174.913 243.611 182.827 234.375 175.717 226.435" stroke="black" stroke-width="1.82" stroke-linecap="round" stroke-linejoin="round"/>
<path d="M68.377 229.704C68.377 229.704 72.4412 232.473 76.416 235.063" stroke="black" stroke-width="1.82" stroke-linecap="round" stroke-linejoin="round"/>
<path d="M94.3611 183.836C87.2688 182.622 81.2306 181.666 81.2306 181.666" stroke="black" stroke-width="1.82" stroke-linecap="round" stroke-linejoin="round"/>
<path d="M105.75 265.451C105.547 265.162 105.28 264.923 104.971 264.752C104.661 264.582 104.316 264.485 103.963 264.468C102.222 264.415 99.0149 264.04 97.1391 262.083C96.1479 261.1 95.3748 259.919 94.8703 258.618C94.6268 258.025 94.1693 257.545 93.5885 257.273C93.0077 257.002 92.3461 256.959 91.7351 257.153C87.3939 258.323 82.8027 254.348 82.5348 249.757C82.5092 249.24 82.2982 248.75 81.9406 248.376C81.583 248.002 81.1027 247.769 80.5875 247.72C74.2366 247.291 70.6994 239.931 74.7279 236.001C77.1396 233.652 83.6156 234.545 85.545 239.109C85.6391 239.332 85.7787 239.532 85.9548 239.697C86.1309 239.863 86.3396 239.989 86.5675 240.069C86.7955 240.149 87.0376 240.181 87.2783 240.161C87.5191 240.142 87.7532 240.073 87.9656 239.958C91.8333 237.859 96.228 240.235 97.6036 244.326C97.7573 244.759 98.0551 245.125 98.4471 245.364C98.839 245.603 99.3013 245.7 99.7563 245.639C106.134 244.907 108.939 248.765 109.501 254.017C109.574 254.624 109.864 255.184 110.317 255.595C110.77 256.005 111.356 256.238 111.967 256.251C116.174 256.143 118.88 258.234 119.318 260.601C120.113 264.924 122.945 266.371 122.945 266.371C123.713 268.863 110.573 272.239 105.75 265.451Z" stroke="black" stroke-width="1.82" stroke-linecap="round" stroke-linejoin="round"/>
<path d="M166.356 243.451L156.235 231.883" stroke="black" stroke-width="1.82" stroke-linecap="round" stroke-linejoin="round"/>
<path d="M153.109 254.098L145.454 245.264" stroke="black" stroke-width="1.82" stroke-linecap="round" stroke-linejoin="round"/>
<path d="M141.363 264.147L136.173 257.751" stroke="black" stroke-width="1.82" stroke-linecap="round" stroke-linejoin="round"/>
<path d="M78.3901 174.609L66.5727 171.036C65.9496 170.833 65.2917 170.758 64.639 170.817C63.9863 170.876 63.3525 171.068 62.7759 171.379C62.1994 171.691 61.6923 172.117 61.2855 172.63C60.8786 173.144 60.5806 173.735 60.4094 174.368L55.3805 192.706L48.6901 217.538L47.1359 223.683C46.8072 224.885 46.9554 226.167 47.5496 227.263C48.1438 228.358 49.138 229.181 50.3248 229.561L62.2583 233.071C62.8804 233.267 63.5356 233.335 64.1846 233.271C64.8336 233.207 65.4629 233.012 66.0346 232.698C66.6062 232.384 67.1085 231.958 67.5111 231.445C67.9136 230.932 68.2082 230.343 68.377 229.713L81.5522 180.433C81.874 179.239 81.7254 177.968 81.137 176.881C80.5486 175.794 79.5653 174.974 78.3901 174.591" fill="#666666"/>
<path d="M199.968 218.663C199.968 219.271 199.788 219.865 199.45 220.37C199.112 220.876 198.633 221.27 198.071 221.502C197.51 221.735 196.892 221.796 196.296 221.677C195.7 221.558 195.152 221.266 194.722 220.836C194.293 220.406 194 219.859 193.882 219.263C193.763 218.667 193.824 218.049 194.056 217.487C194.289 216.926 194.683 216.446 195.188 216.108C195.693 215.771 196.288 215.591 196.895 215.591C197.71 215.591 198.492 215.914 199.068 216.491C199.644 217.067 199.968 217.848 199.968 218.663" fill="black"/>
<path d="M199.968 218.663C199.968 219.271 199.788 219.865 199.45 220.37C199.112 220.876 198.633 221.27 198.071 221.502C197.51 221.735 196.892 221.796 196.296 221.677C195.7 221.558 195.152 221.266 194.722 220.836C194.293 220.406 194 219.859 193.882 219.263C193.763 218.667 193.824 218.049 194.056 217.487C194.289 216.926 194.683 216.446 195.188 216.108C195.693 215.771 196.288 215.591 196.895 215.591C197.71 215.591 198.492 215.914 199.068 216.491C199.644 217.067 199.968 217.848 199.968 218.663V218.663Z" stroke="black" stroke-width="1.82" stroke-linecap="round" stroke-linejoin="round"/>
<path d="M61.6331 218.663C61.6331 219.271 61.4529 219.865 61.1153 220.37C60.7776 220.876 60.2977 221.27 59.7363 221.502C59.1748 221.735 58.557 221.796 57.9609 221.677C57.3649 221.558 56.8174 221.266 56.3876 220.836C55.9579 220.406 55.6653 219.859 55.5467 219.263C55.4282 218.667 55.489 218.049 55.7216 217.487C55.9541 216.926 56.348 216.446 56.8533 216.108C57.3586 215.771 57.9527 215.591 58.5604 215.591C59.3753 215.591 60.1569 215.914 60.7331 216.491C61.3094 217.067 61.6331 217.848 61.6331 218.663Z" fill="black"/>
<path d="M61.6331 218.663C61.6331 219.271 61.4529 219.865 61.1153 220.37C60.7776 220.876 60.2977 221.27 59.7363 221.502C59.1748 221.735 58.557 221.796 57.9609 221.677C57.3649 221.558 56.8174 221.266 56.3876 220.836C55.9579 220.406 55.6653 219.859 55.5467 219.263C55.4282 218.667 55.489 218.049 55.7216 217.487C55.9541 216.926 56.348 216.446 56.8533 216.108C57.3586 215.771 57.9527 215.591 58.5604 215.591C59.3753 215.591 60.1569 215.914 60.7331 216.491C61.3094 217.067 61.6331 217.848 61.6331 218.663Z" stroke="black" stroke-width="1.82" stroke-linecap="round" stroke-linejoin="round"/>
<g style="mix-blend-mode:multiply" opacity="0.1">
<path d="M78.7385 188.999C78.7385 188.999 82.5169 189.562 87.6709 190.375C90.6089 190.837 93.6163 190.269 96.1834 188.767L98.1842 187.615C100.158 186.462 102.266 185.248 104.437 183.926C120.131 174.359 129.492 176.369 143.471 180.433L150.34 182.434C162.193 185.909 170.759 188.419 177.137 189.374L175.109 181.818C175.072 181.665 174.99 181.528 174.873 181.423C174.757 181.318 174.612 181.25 174.457 181.228C168.446 180.263 160.335 177.753 149.116 174.288L142.614 172.278C129.385 168.214 120.524 166.204 105.678 175.77C103.633 177.092 101.632 178.307 99.7563 179.459C97.7197 180.701 95.835 181.853 94.1736 182.961C87.2153 181.773 81.3468 180.844 81.3468 180.844C81.1515 180.815 80.9525 180.86 80.7878 180.968C80.6231 181.077 80.5041 181.243 80.4535 181.433L78.4259 189.008C78.5293 188.99 78.6351 188.99 78.7385 189.008" fill="black"/>
</g>
<g style="mix-blend-mode:multiply" opacity="0.15">
<path d="M208.347 223.683L206.792 217.538L200.093 192.706L195.046 174.368C194.76 173.284 194.105 172.335 193.193 171.682C192.282 171.03 191.171 170.716 190.053 170.795C190.097 170.891 190.136 170.99 190.169 171.09L195.216 189.419L201.915 214.26L203.469 220.405C203.792 221.608 203.637 222.889 203.038 223.981C202.439 225.072 201.442 225.891 200.254 226.265L188.32 229.775C187.958 229.89 187.583 229.959 187.204 229.981C187.606 231.174 188.46 232.161 189.582 232.732C190.704 233.303 192.005 233.412 193.206 233.036L205.14 229.561C206.328 229.185 207.325 228.364 207.922 227.271C208.52 226.177 208.672 224.895 208.347 223.692" fill="#FF5A00"/>
</g>
<g style="mix-blend-mode:multiply" opacity="0.15">
<path d="M78.3901 174.609H78.2561C78.5023 175.467 78.5023 176.377 78.2561 177.235L65.1256 226.452C64.9557 227.082 64.6605 227.67 64.2576 228.182C63.8548 228.695 63.3526 229.121 62.7813 229.434C62.2099 229.748 61.5811 229.943 60.9326 230.008C60.284 230.072 59.6291 230.005 59.007 229.811L47.1627 226.318C47.3834 227.077 47.7872 227.769 48.3387 228.335C48.8901 228.9 49.5722 229.321 50.3248 229.561L62.2583 233.071C62.8804 233.267 63.5356 233.335 64.1846 233.271C64.8336 233.207 65.4629 233.012 66.0346 232.698C66.6062 232.384 67.1085 231.958 67.5111 231.445C67.9136 230.932 68.2082 230.343 68.377 229.713L81.5522 180.433C81.874 179.24 81.7254 177.968 81.137 176.881C80.5486 175.794 79.5653 174.974 78.3901 174.591" fill="#FF5A00"/>
</g>
<path d="M176.932 40.0793C190.517 47.2997 202.348 57.4194 211.587 69.7215C220.826 82.0235 227.246 96.2069 230.393 111.267C233.539 126.326 233.336 141.894 229.796 156.866C226.256 171.838 219.467 185.849 209.91 197.905" stroke="black" stroke-width="1.82" stroke-linecap="round" stroke-linejoin="round"/>
<path d="M45.3852 197.717C35.8497 185.63 29.0912 171.593 25.5893 156.601C22.0874 141.61 21.928 126.031 25.1223 110.971C28.3166 95.9103 34.7864 81.7376 44.0725 69.4582C53.3587 57.1789 65.2336 47.0938 78.8546 39.9186" stroke="black" stroke-width="1.82" stroke-linecap="round" stroke-linejoin="round"/>
<path d="M132.44 285.477V281.94" stroke="white" stroke-width="1.82" stroke-linecap="round" stroke-linejoin="round"/>
<path d="M229.864 235.045L225.246 230.436" stroke="white" stroke-width="1.82" stroke-linecap="round" stroke-linejoin="round"/>
<path d="M38.2661 205.756L35.0148 209.007" stroke="white" stroke-width="1.82" stroke-linecap="round" stroke-linejoin="round"/>
<path d="M81.8022 22.6434L81.0876 20.8927" stroke="white" stroke-width="1.82" stroke-linecap="round" stroke-linejoin="round"/>
<path d="M253.214 90.1628L248.229 92.1994" stroke="white" stroke-width="1.82" stroke-linecap="round" stroke-linejoin="round"/>
<path d="M11.094 88.3049L6.5564 86.4023" stroke="white" stroke-width="1.82" stroke-linecap="round" stroke-linejoin="round"/>
<path d="M254.92 175.493L247.702 172.474" stroke="white" stroke-width="1.82" stroke-linecap="round" stroke-linejoin="round"/>
<path d="M172.028 15.5602L170.607 18.9545" stroke="white" stroke-width="1.82" stroke-linecap="round" stroke-linejoin="round"/>
<path d="M68.0554 29.7179L65.7955 26.3058" stroke="white" stroke-width="1.82" stroke-linecap="round" stroke-linejoin="round"/>
<path d="M213.661 245.585L211.526 242.361" stroke="white" stroke-width="1.82" stroke-linecap="round" stroke-linejoin="round"/>
<path d="M30.102 196.127L28.5835 197.128" stroke="white" stroke-width="1.82" stroke-linecap="round" stroke-linejoin="round"/>
<path d="M243.165 71.3694L240.932 72.8432" stroke="white" stroke-width="1.82" stroke-linecap="round" stroke-linejoin="round"/>
<path d="M6.08291 100.533L4.06421 100.123" stroke="white" stroke-width="1.82" stroke-linecap="round" stroke-linejoin="round"/>
<path d="M252.999 154.029L250.337 153.493" stroke="white" stroke-width="1.82" stroke-linecap="round" stroke-linejoin="round"/>
<path d="M111.993 278.403L110.832 284.111" stroke="white" stroke-width="1.82" stroke-linecap="round" stroke-linejoin="round"/>
<path d="M155.878 7.99451L154.744 13.5593" stroke="white" stroke-width="1.82" stroke-linecap="round" stroke-linejoin="round"/>
<path d="M231.633 44.3491C231.633 45.0557 231.424 45.7465 231.031 46.3341C230.638 46.9216 230.08 47.3796 229.428 47.65C228.775 47.9204 228.056 47.9912 227.363 47.8533C226.67 47.7155 226.033 47.3752 225.534 46.8755C225.034 46.3758 224.694 45.7392 224.556 45.0461C224.418 44.353 224.489 43.6346 224.759 42.9818C225.03 42.3289 225.488 41.7709 226.075 41.3783C226.663 40.9857 227.354 40.7761 228.06 40.7761C229.008 40.7761 229.917 41.1526 230.587 41.8226C231.257 42.4927 231.633 43.4015 231.633 44.3491Z" stroke="white" stroke-width="1.82" stroke-linecap="round" stroke-linejoin="round"/>
<path d="M263.066 137.138L270.265 135.218C270.58 135.144 270.868 134.987 271.1 134.763C271.332 134.539 271.499 134.256 271.583 133.945C271.668 133.633 271.666 133.305 271.579 132.994C271.491 132.684 271.321 132.402 271.087 132.181L265.808 126.911C265.587 126.679 265.307 126.511 264.998 126.424C264.689 126.338 264.363 126.336 264.053 126.419C263.743 126.502 263.462 126.667 263.238 126.897C263.014 127.126 262.856 127.412 262.78 127.723L260.824 134.923C260.732 135.233 260.726 135.562 260.806 135.876C260.886 136.189 261.051 136.475 261.281 136.703C261.511 136.93 261.799 137.091 262.113 137.167C262.428 137.244 262.757 137.234 263.066 137.138Z" stroke="white" stroke-width="1.82" stroke-linecap="round" stroke-linejoin="round"/>
<path d="M250.275 203.782C250.275 204.741 249.99 205.679 249.457 206.477C248.924 207.274 248.167 207.896 247.281 208.263C246.394 208.63 245.419 208.726 244.478 208.539C243.537 208.352 242.673 207.89 241.995 207.212C241.317 206.533 240.855 205.669 240.668 204.728C240.48 203.788 240.576 202.812 240.944 201.926C241.311 201.04 241.932 200.282 242.73 199.749C243.528 199.216 244.465 198.932 245.425 198.932C246.062 198.932 246.692 199.057 247.281 199.301C247.869 199.545 248.404 199.902 248.854 200.352C249.305 200.803 249.662 201.338 249.906 201.926C250.149 202.514 250.275 203.145 250.275 203.782Z" stroke="white" stroke-width="1.82" stroke-linecap="round" stroke-linejoin="round"/>
<path d="M12.7017 172.394L13.9523 178.379C14.0069 178.633 14.1274 178.869 14.3016 179.063C14.4758 179.257 14.6977 179.402 14.9453 179.483C15.1928 179.564 15.4574 179.579 15.7126 179.527C15.9677 179.474 16.2047 179.355 16.3997 179.183L20.9641 175.074C21.1565 174.898 21.2998 174.675 21.3799 174.427C21.46 174.179 21.4741 173.915 21.421 173.66C21.3678 173.405 21.2491 173.168 21.0766 172.972C20.9041 172.777 20.6837 172.63 20.4371 172.546L14.6222 170.608C14.3676 170.522 14.0946 170.506 13.8319 170.563C13.5693 170.62 13.3268 170.746 13.1301 170.929C12.9334 171.112 12.7898 171.345 12.7144 171.603C12.639 171.86 12.6346 172.134 12.7017 172.394V172.394Z" stroke="white" stroke-width="1.82" stroke-linecap="round" stroke-linejoin="round"/>
<path d="M113.262 1.78654L111.154 7.45857C111.061 7.70086 111.035 7.96339 111.077 8.21934C111.119 8.47528 111.228 8.71546 111.394 8.91532C111.559 9.11518 111.774 9.26755 112.018 9.35687C112.261 9.44619 112.524 9.46924 112.78 9.42368L118.746 8.42326C119.002 8.38073 119.242 8.27157 119.442 8.10678C119.642 7.942 119.795 7.72741 119.885 7.48465C119.976 7.24189 120.001 6.97955 119.958 6.72405C119.915 6.46856 119.805 6.22896 119.64 6.0294L115.781 1.35779C115.616 1.15804 115.401 1.00533 115.158 0.91507C114.915 0.824806 114.653 0.800172 114.397 0.843652C114.142 0.887131 113.902 0.997188 113.703 1.16273C113.504 1.32826 113.352 1.54343 113.262 1.78654V1.78654Z" stroke="white" stroke-width="1.82" stroke-linecap="round" stroke-linejoin="round"/>
<path d="M68.0465 269.176L69.2166 268.014" stroke="white" stroke-width="1.82" stroke-linecap="round" stroke-linejoin="round"/>
<path d="M74.3259 262.896L75.4961 261.735" stroke="white" stroke-width="1.82" stroke-linecap="round" stroke-linejoin="round"/>
<path d="M75.4961 269.176L74.3259 268.014" stroke="white" stroke-width="1.82" stroke-linecap="round" stroke-linejoin="round"/>
<path d="M69.2166 262.896L68.0465 261.735" stroke="white" stroke-width="1.82" stroke-linecap="round" stroke-linejoin="round"/>
<path d="M169.982 256.849L169.678 256.545" stroke="white" stroke-width="1.82" stroke-linecap="round" stroke-linejoin="round"/>
<path d="M174.243 261.11L173.948 260.815" stroke="white" stroke-width="1.82" stroke-linecap="round" stroke-linejoin="round"/>
<path d="M169.982 260.815L169.678 261.11" stroke="white" stroke-width="1.82" stroke-linecap="round" stroke-linejoin="round"/>
<path d="M174.243 256.545L173.948 256.849" stroke="white" stroke-width="1.82" stroke-linecap="round" stroke-linejoin="round"/>
<path d="M40.9012 39.2308L40.5796 38.9182" stroke="white" stroke-width="1.82" stroke-linecap="round" stroke-linejoin="round"/>
<path d="M45.4656 43.7953L45.144 43.4827" stroke="white" stroke-width="1.82" stroke-linecap="round" stroke-linejoin="round"/>
<path d="M40.9012 43.4827L40.5796 43.7953" stroke="white" stroke-width="1.82" stroke-linecap="round" stroke-linejoin="round"/>
<path d="M45.4656 38.9182L45.144 39.2308" stroke="white" stroke-width="1.82" stroke-linecap="round" stroke-linejoin="round"/>
<path d="M15.1849 133.36C15.1625 116.451 18.7881 99.7366 25.8144 84.3569" stroke="white" stroke-width="1.82" stroke-linecap="round" stroke-linejoin="round" stroke-dasharray="0.36 7.22"/>
<path d="M124.302 285.477V281.94" stroke="black" stroke-width="1.82" stroke-linecap="round" stroke-linejoin="round"/>
<path d="M221.727 235.045L217.109 230.436" stroke="black" stroke-width="1.82" stroke-linecap="round" stroke-linejoin="round"/>
<path d="M30.1288 205.756L26.8774 209.007" stroke="black" stroke-width="1.82" stroke-linecap="round" stroke-linejoin="round"/>
<path d="M73.6649 22.6434L72.9503 20.8927" stroke="black" stroke-width="1.82" stroke-linecap="round" stroke-linejoin="round"/>
<path d="M246.711 85.2769L241.718 87.3224" stroke="black" stroke-width="1.82" stroke-linecap="round" stroke-linejoin="round"/>
<path d="M6.20803 93.182L1.67041 91.2883" stroke="black" stroke-width="1.82" stroke-linecap="round" stroke-linejoin="round"/>
<path d="M245.157 178.754L237.939 175.726" stroke="black" stroke-width="1.82" stroke-linecap="round" stroke-linejoin="round"/>
<path d="M163.89 15.5602L162.47 18.9545" stroke="black" stroke-width="1.82" stroke-linecap="round" stroke-linejoin="round"/>
<path d="M59.9181 29.7179L57.6582 26.3058" stroke="black" stroke-width="1.82" stroke-linecap="round" stroke-linejoin="round"/>
<path d="M205.524 245.585L203.389 242.361" stroke="black" stroke-width="1.82" stroke-linecap="round" stroke-linejoin="round"/>
<path d="M21.9647 196.127L20.4462 197.128" stroke="black" stroke-width="1.82" stroke-linecap="round" stroke-linejoin="round"/>
<path d="M235.027 69.7437L232.794 71.2175" stroke="black" stroke-width="1.82" stroke-linecap="round" stroke-linejoin="round"/>
<path d="M2.82264 105.41L0.812866 105" stroke="black" stroke-width="1.82" stroke-linecap="round" stroke-linejoin="round"/>
<path d="M246.488 157.29L243.826 156.745" stroke="black" stroke-width="1.82" stroke-linecap="round" stroke-linejoin="round"/>
<path d="M103.865 278.403L102.695 284.111" stroke="black" stroke-width="1.82" stroke-linecap="round" stroke-linejoin="round"/>
<path d="M147.741 7.99451L146.606 13.5593" stroke="black" stroke-width="1.82" stroke-linecap="round" stroke-linejoin="round"/>
<path d="M218.619 39.472C218.619 40.1786 218.409 40.8694 218.017 41.457C217.624 42.0446 217.066 42.5025 216.413 42.7729C215.76 43.0434 215.042 43.1141 214.349 42.9763C213.656 42.8384 213.019 42.4981 212.519 41.9984C212.02 41.4987 211.679 40.8621 211.542 40.169C211.404 39.4759 211.474 38.7575 211.745 38.1047C212.015 37.4518 212.473 36.8938 213.061 36.5012C213.648 36.1086 214.339 35.899 215.046 35.899C215.993 35.899 216.902 36.2755 217.572 36.9455C218.242 37.6156 218.619 38.5244 218.619 39.472Z" stroke="black" stroke-width="1.82" stroke-linecap="round" stroke-linejoin="round"/>
<path d="M256.563 122.498L263.763 120.569C264.076 120.494 264.364 120.336 264.595 120.111C264.826 119.887 264.992 119.604 265.075 119.293C265.158 118.981 265.156 118.653 265.068 118.343C264.98 118.033 264.81 117.753 264.576 117.532L259.305 112.262C259.084 112.027 258.804 111.857 258.494 111.769C258.184 111.681 257.856 111.679 257.545 111.762C257.233 111.845 256.95 112.011 256.726 112.242C256.501 112.473 256.343 112.761 256.269 113.074L254.339 120.274C254.247 120.583 254.239 120.911 254.318 121.224C254.397 121.536 254.559 121.822 254.787 122.05C255.015 122.278 255.301 122.44 255.613 122.519C255.926 122.598 256.254 122.591 256.563 122.498Z" stroke="black" stroke-width="1.82" stroke-linecap="round" stroke-linejoin="round"/>
<path d="M235.626 208.668C235.624 209.627 235.338 210.564 234.804 211.36C234.27 212.157 233.512 212.777 232.625 213.143C231.739 213.508 230.764 213.603 229.824 213.415C228.884 213.227 228.02 212.764 227.343 212.086C226.665 211.407 226.204 210.543 226.018 209.602C225.831 208.661 225.928 207.687 226.295 206.801C226.663 205.915 227.284 205.158 228.082 204.626C228.879 204.093 229.817 203.809 230.776 203.809C231.413 203.809 232.045 203.935 232.634 204.179C233.223 204.423 233.758 204.781 234.208 205.233C234.659 205.684 235.016 206.22 235.259 206.809C235.502 207.399 235.627 208.03 235.626 208.668Z" stroke="black" stroke-width="1.82" stroke-linecap="round" stroke-linejoin="round"/>
<path d="M1.31314 164.221L2.56366 170.205C2.61587 170.462 2.73497 170.7 2.90889 170.895C3.0828 171.091 3.30533 171.237 3.55389 171.318C3.80245 171.4 4.06818 171.414 4.32411 171.36C4.58005 171.306 4.81707 171.185 5.01112 171.009L9.5666 166.936C9.76151 166.762 9.90711 166.539 9.9888 166.291C10.0705 166.042 10.0854 165.776 10.032 165.52C9.97859 165.264 9.8588 165.027 9.68462 164.832C9.51043 164.636 9.28799 164.49 9.0396 164.408L3.23359 162.497C2.98499 162.416 2.71958 162.402 2.46392 162.457C2.20826 162.511 1.97133 162.631 1.77685 162.806C1.58237 162.98 1.43717 163.203 1.35579 163.451C1.2744 163.7 1.2597 163.965 1.31314 164.221V164.221Z" stroke="black" stroke-width="1.82" stroke-linecap="round" stroke-linejoin="round"/>
<path d="M96.9872 1.78651L94.8792 7.45853C94.7896 7.70079 94.7652 7.96235 94.8084 8.21701C94.8517 8.47167 94.9612 8.71049 95.1258 8.90952C95.2905 9.10855 95.5046 9.26081 95.7466 9.35105C95.9886 9.44128 96.2501 9.46632 96.5049 9.42365L102.472 8.42323C102.727 8.3807 102.967 8.27154 103.167 8.10675C103.367 7.94196 103.52 7.72738 103.611 7.48462C103.701 7.24186 103.726 6.97951 103.683 6.72402C103.64 6.46853 103.53 6.22893 103.365 6.02936L99.5062 1.34882C99.3405 1.14928 99.125 0.996989 98.8816 0.907347C98.6382 0.817705 98.3755 0.793883 98.12 0.838286C97.8644 0.88269 97.6251 0.993746 97.4262 1.16024C97.2273 1.32673 97.0759 1.54276 96.9872 1.78651V1.78651Z" stroke="black" stroke-width="1.82" stroke-linecap="round" stroke-linejoin="round"/>
<path d="M55.0321 264.29L56.1933 263.128" stroke="black" stroke-width="1.82" stroke-linecap="round" stroke-linejoin="round"/>
<path d="M61.3115 258.01L62.4727 256.849" stroke="black" stroke-width="1.82" stroke-linecap="round" stroke-linejoin="round"/>
<path d="M62.4727 264.29L61.3115 263.128" stroke="black" stroke-width="1.82" stroke-linecap="round" stroke-linejoin="round"/>
<path d="M56.1933 258.01L55.0321 256.849" stroke="black" stroke-width="1.82" stroke-linecap="round" stroke-linejoin="round"/>
<path d="M181.371 256.849L181.076 256.545" stroke="black" stroke-width="1.82" stroke-linecap="round" stroke-linejoin="round"/>
<path d="M185.632 261.11L185.337 260.815" stroke="black" stroke-width="1.82" stroke-linecap="round" stroke-linejoin="round"/>
<path d="M181.371 260.815L181.076 261.11" stroke="black" stroke-width="1.82" stroke-linecap="round" stroke-linejoin="round"/>
<path d="M185.632 256.545L185.337 256.849" stroke="black" stroke-width="1.82" stroke-linecap="round" stroke-linejoin="round"/>
<path d="M29.5125 45.7425L29.1909 45.4209" stroke="black" stroke-width="1.82" stroke-linecap="round" stroke-linejoin="round"/>
<path d="M34.0679 50.3069L33.7552 49.9854" stroke="black" stroke-width="1.82" stroke-linecap="round" stroke-linejoin="round"/>
<path d="M29.5125 49.9854L29.1909 50.3069" stroke="black" stroke-width="1.82" stroke-linecap="round" stroke-linejoin="round"/>
<path d="M34.0679 45.4209L33.7552 45.7425" stroke="black" stroke-width="1.82" stroke-linecap="round" stroke-linejoin="round"/>
<path d="M10.3169 133.36C10.2944 116.451 13.9201 99.7366 20.9463 84.3569" stroke="black" stroke-width="1.82" stroke-linecap="round" stroke-linejoin="round" stroke-dasharray="0.36 7.22"/>
<path d="M84.8393 143.685L84.5177 143.364" stroke="white" stroke-width="1.82" stroke-linecap="round" stroke-linejoin="round"/>
<path d="M89.4037 148.241L89.0822 147.928" stroke="white" stroke-width="1.82" stroke-linecap="round" stroke-linejoin="round"/>
<path d="M84.8393 147.928L84.5177 148.241" stroke="white" stroke-width="1.82" stroke-linecap="round" stroke-linejoin="round"/>
<path d="M89.4037 143.364L89.0822 143.685" stroke="white" stroke-width="1.82" stroke-linecap="round" stroke-linejoin="round"/>
<path d="M159.737 160.21C159.737 160.917 159.527 161.608 159.135 162.195C158.742 162.783 158.184 163.241 157.531 163.511C156.878 163.782 156.16 163.852 155.467 163.714C154.774 163.577 154.137 163.236 153.637 162.737C153.138 162.237 152.797 161.6 152.66 160.907C152.522 160.214 152.592 159.496 152.863 158.843C153.133 158.19 153.591 157.632 154.179 157.239C154.766 156.847 155.457 156.637 156.164 156.637C157.111 156.637 158.02 157.014 158.69 157.684C159.36 158.354 159.737 159.263 159.737 160.21Z" stroke="white" stroke-width="1.82" stroke-linecap="round" stroke-linejoin="round"/>
<path d="M73.4506 137.174L73.129 136.852" stroke="black" stroke-width="1.82" stroke-linecap="round" stroke-linejoin="round"/>
<path d="M78.0149 141.738L77.6934 141.417" stroke="black" stroke-width="1.82" stroke-linecap="round" stroke-linejoin="round"/>
<path d="M73.4506 141.417L73.129 141.738" stroke="black" stroke-width="1.82" stroke-linecap="round" stroke-linejoin="round"/>
<path d="M78.0149 136.852L77.6934 137.174" stroke="black" stroke-width="1.82" stroke-linecap="round" stroke-linejoin="round"/>
<path d="M148.339 153.699C148.339 154.407 148.128 155.1 147.734 155.688C147.339 156.277 146.779 156.735 146.123 157.004C145.468 157.273 144.747 157.341 144.053 157.199C143.358 157.058 142.722 156.713 142.224 156.209C141.726 155.705 141.389 155.064 141.257 154.368C141.124 153.672 141.201 152.952 141.478 152.3C141.756 151.648 142.221 151.093 142.814 150.706C143.407 150.319 144.102 150.117 144.811 150.126C145.751 150.138 146.648 150.519 147.309 151.188C147.969 151.857 148.339 152.759 148.339 153.699Z" stroke="black" stroke-width="1.82" stroke-linecap="round" stroke-linejoin="round"/>
<path d="M155.762 94.1111C155.367 96.2978 154.501 98.3725 153.223 100.191C151.946 102.01 150.289 103.528 148.366 104.642" stroke="black" stroke-width="1.82" stroke-linecap="round" stroke-linejoin="round"/>
<path d="M155.824 89.0733L155.753 87.519" stroke="black" stroke-width="1.82" stroke-linecap="round" stroke-linejoin="round"/>
<path d="M134.217 54.0852C136.072 52.037 138.056 50.1096 140.157 48.3149C140.157 48.3149 162.836 66.8674 162.836 91.0025C162.835 95.7914 161.319 100.457 158.503 104.331C155.688 108.205 151.718 111.088 147.164 112.568C142.609 114.047 137.703 114.047 133.149 112.567C128.594 111.087 124.625 108.204 121.81 104.33" stroke="black" stroke-width="1.82" stroke-linecap="round" stroke-linejoin="round"/>
<path d="M106.473 102.302C106.009 69.7169 117.603 50.9411 126.464 40.7761" stroke="black" stroke-width="1.82" stroke-linecap="round" stroke-linejoin="round"/>
<path d="M118.603 49.5477C114.609 48.5546 110.405 48.8207 106.567 50.3093C102.73 51.798 99.4459 54.4366 97.1659 57.8637C92.0923 65.215 91.4313 74.6654 93.0123 83.2225C95.0221 94.1111 100.248 104.839 106.884 113.682C110.019 108.251 114.923 103.963 119.148 99.3901C124.186 94.0307 128.876 88.1353 131.502 81.1502C136.155 68.8683 132.922 53.1563 118.603 49.5477Z" stroke="black" stroke-width="1.82" stroke-linecap="round" stroke-linejoin="round"/>
<path d="M113.351 61.9189C109.993 62.9462 104.106 63.5536 98.9344 71.5391" stroke="black" stroke-width="1.82" stroke-linecap="round" stroke-linejoin="round"/>
<path d="M108.251 79.864C108.251 79.864 102.382 83.0528 99.9617 88.0728" stroke="black" stroke-width="1.82" stroke-linecap="round" stroke-linejoin="round"/>
<path d="M110.582 70.0652C110.582 70.0652 116.201 73.915 119.586 86.5989" stroke="black" stroke-width="1.82" stroke-linecap="round" stroke-linejoin="round"/>
<path d="M107.099 88.3496C109.376 90.3564 111.153 92.8676 112.288 95.683" stroke="black" stroke-width="1.82" stroke-linecap="round" stroke-linejoin="round"/>
<path d="M116.201 55.97C120.452 59.5988 123.601 64.3454 125.294 69.6722" stroke="black" stroke-width="1.82" stroke-linecap="round" stroke-linejoin="round"/>
</g>
<defs>
<clipPath id="clip0_16_2811">
<rect width="272.427" height="286.29" fill="white"/>
</clipPath>
</defs>
</svg>
