<?xml version="1.0" encoding="utf-8"?>
<!-- Generator: Adobe Illustrator 23.1.0, SVG Export Plug-In . SVG Version: 6.00 Build 0)  -->
<svg version="1.1" id="Layer_1" xmlns="http://www.w3.org/2000/svg" xmlns:xlink="http://www.w3.org/1999/xlink" x="0px" y="0px"
	 viewBox="0 0 295.5 277.1" style="enable-background:new 0 0 295.5 277.1;" xml:space="preserve">
<style type="text/css">
	.st0{fill:#818181;}
	.st1{fill:#FFFFFF;}
	.st2{clip-path:url(#SVGID_2_);}
	.st3{fill:url(#SVGID_3_);}
</style>
<title>Asset 5</title>
<g>
	<g id="Layer_1-2">
		<path class="st0" d="M277.1,138.6c0,76.5-62,138.6-138.6,138.6S0,215.1,0,138.6S62,0,138.5,0c0,0,0,0,0,0
			C215.1,0,277.1,62,277.1,138.6"/>
		<path class="st1" d="M268.4,138.6c0,71.7-58.1,129.8-129.8,129.9c-71.7,0-129.8-58.1-129.8-129.8S66.8,8.7,138.6,8.7c0,0,0,0,0,0
			C210.3,8.7,268.4,66.9,268.4,138.6"/>
		<g>
			<defs>
				<path id="SVGID_1_" d="M248.1,11.3c-10.5,5.8-19.2,14.5-25,25c-7.8,13.4-10.4,29.2-7.2,44.4c0.4,2.1,1.1,4.2,1.6,6.3
					c0.3-0.2,0.5-0.5,0.7-0.9c3.9-8.2,8.4-16,13.5-23.5c6.3-9.2,13.4-17.7,22.6-24.3c1-0.7,2.1-1.4,3.2-2.1
					c-0.8,0.8-1.6,1.5-2.5,2.1c-4.7,3.9-8.8,8.3-12.4,13.2c-8.7,11.7-15,24.7-20.3,38.3c-0.1,0.2-0.1,0.4-0.2,0.7
					c0.4-0.1,0.7-0.2,1-0.3c3.6-1.2,7.2-2.3,10.7-3.6c10.6-4,20.3-9.9,28.9-17.3C273,60.3,281,48.8,285.9,36
					c2.9-7.3,5.4-14.7,8.1-22.1c0.6-1.6,1-3.2,1.5-4.9c-0.5-0.3-1-0.5-1.5-0.8c-5.7-2.7-11.8-4.2-18.1-4.2h-0.5
					C265.8,4,256.4,6.6,248.1,11.3"/>
			</defs>
			<clipPath id="SVGID_2_">
				<use xlink:href="#SVGID_1_"  style="overflow:visible;"/>
			</clipPath>
			<g class="st2">
				
					<radialGradient id="SVGID_3_" cx="-1014.6935" cy="-1240.8258" r="0.67" gradientTransform="matrix(50.002 -54.5102 29.6022 27.154 87719.4375 -21573.4648)" gradientUnits="userSpaceOnUse">
					<stop  offset="0" style="stop-color:#EE3541"/>
					<stop  offset="0.36" style="stop-color:#D92E38"/>
					<stop  offset="1" style="stop-color:#AA1E23"/>
				</radialGradient>
				<polygon class="st3" points="169.6,51 250.5,-37.2 338.6,43.6 257.7,131.8 				"/>
			</g>
		</g>
		<path class="st0" d="M197.9,165.6c-0.1,2.6,0,5.3-0.3,7.9c-0.3,1.7-0.8,3.4-1.4,5c-0.3,0.8-1.2,1.3-2,1c-0.6-0.2-1.1-0.8-1.1-1.4
			c-0.1-0.9,0.1-1.8,0.5-2.6c0.4-1.1,0.6-2.3,0.5-3.5c0.1-2.4,0-4.8,0.2-7.2c0.1-2.3,0.1-4.4,0-6.7h3.4c0,0.1,0,0.2,0,0.3
			C198,160.8,198,163.2,197.9,165.6z"/>
		<path class="st0" d="M193.2,184.5c-0.2-0.2-0.5-0.3-0.8-0.2c-0.6-0.1-1.2,0.3-1.4,0.9c-0.3,0.8-0.9,1.3-1.2,2.1
			c-0.4,1.1-0.8,2.2-1.1,3.3c-0.7,2-2.2,3.3-3.4,5c-1.2,1.6-2.7,2.9-4.5,3.8c-0.6,0.4-1.1,0.8-1.6,1.4c-0.9,0.9-1.9,1.6-2.9,2.2
			c-1.7,1-3.3,2.3-4.6,3.8c-0.5,0.8-1.1,1.6-1.7,2.4c-0.9,0.8-1.9,1.5-3,2c-1.7,1-3.4,1.9-5.2,2.7s-3.5,1-4.8,2.4
			c-0.5,0.6-0.4,1.4,0.2,1.8c0.4,0.3,0.9,0.4,1.4,0.2c0.5-0.2,1.1-0.3,1.6-0.4c0.9-0.2,1.8-0.6,2.7-1c2-0.9,3.9-1.9,5.8-3
			s3.9-2.2,5.3-3.8c1.6-1.9,3.5-3.5,5.6-4.7c0.9-0.6,1.7-1.2,2.4-2c0.7-0.7,1.5-1.3,2.3-1.8c1-0.7,1.9-1.4,2.8-2.2
			c0.7-0.9,1.4-1.8,2-2.8c1.3-1.5,2.3-3.3,2.9-5.2c0.5-1.6,1.5-3.5,1.6-5.3c0.2-0.3,0.2-0.6,0.2-0.9
			C193.5,184.9,193.3,184.7,193.2,184.5z"/>
		<path class="st0" d="M189.2,158.1c0,0.3,0,0.6,0,0.9c-0.1,1.2-1.1,2.1-2.4,2.1c-1.1-0.1-2-1-2.1-2.1c0-0.3,0-0.6,0-0.9H189.2z"/>
		<path class="st0" d="M167.2,203c1.2-0.9,2.4-1.7,3.6-2.7c4.8-4,6.8-10.6,9.8-15.9c1.4-2.5,2.9-5,4.4-7.4c0.8-1.3,1.4-2.7,1.8-4.1
			c0.2-0.6,0.4-1.2,0.6-1.9c0.1-0.4-0.1-1.2,0-1.5c0.4-0.7,0.1-1.6-0.6-2c-0.5-0.3-1.2-0.2-1.7,0.2c-0.7,0.6-1.1,1.4-1.1,2.2
			c-0.2,1.4-0.8,2.8-1.6,4c-1.4,2.5-2.9,5-4.6,7.4c-3.7,4.8-5.1,11.1-9.7,15.3c-2,1.8-4.2,3-6,5c-2.1,2.4-5.5,3.9-8.2,5.5
			c-2.5,1.4-4.3,3.7-6.7,5.2c-1.2,0.7-2.4,1.3-3.6,2c-1,0.7-2.1,1.2-3.2,1.7c-2.9,0.7-1.7,5.1,1.2,4.5c2.3-0.5,4.6-2.2,6.7-3.2
			c3-1.5,4.8-3.8,7.4-5.7s5.5-3.5,8.2-5.3C165.1,205.6,165.9,204,167.2,203z"/>
		<path class="st0" d="M177,158.1c-0.1,3.1-0.5,6.1-1.3,9.1c-1.1,5.1-3.2,10-6.1,14.3c-3.2,4.7-6.9,8.9-11,12.8
			c-1.2,1.1-2.4,2.1-3.6,3.1c-0.8,0.6-1.8,0.7-2.6,1.3c-2,1.5-3.7,3.4-5.9,4.7s-4.6,2.9-6.9,4.4c-2,1.3-4.3,2.1-6.4,3.3
			c-1.2,0.7-2.4,1.2-3.6,1.6c-1.1,0.2-2.2,0.7-3.1,1.3c-1.3,1.1-2.8,2-4.4,2.4c-0.8,0.9-2.2,0.9-3.1,0.1c-0.4-0.4-0.7-1-0.7-1.5
			c0-0.1,0-0.3,0-0.4c0-1,0.7-1.8,1.6-2.1c0.8-0.2,1.6-0.5,2.3-0.9c0.7-0.7,1.5-1.4,2.4-2c2-1,4.3-1.5,6.2-2.6s4-1.7,5.8-2.8
			s3.8-2.4,5.8-3.5c2.1-1.1,4.1-2.5,5.9-4.1c1.5-1.4,3.3-2,4.8-3.3c2-1.7,4.1-3.4,5.9-5.2c1.6-1.6,2.9-3.5,4.3-5.2
			c1.8-2,3.4-4.3,4.7-6.6c1-2.2,1.9-4.5,2.7-6.8c0.9-2.2,1.4-4.6,1.6-7c0.1-1.5,0.4-3,0.6-4.4L177,158.1z"/>
		<path class="st0" d="M173.6,49.2c-0.2,1.5-0.9,2.8-2,3.8c-0.5,0.5-1.1,1-1.7,1.4c-0.2,0.1-0.3,0.2-0.5,0.3c0.2,0,0.4,0.2,0.5,0.3
			c1.7,2.2,2.4,5.6,0.3,7.8c-1.8,1.9-4.4,3.5-6.9,3c-0.4,2-1.8,3.7-3.7,4.4c-1.4,0.6-2.9,0.8-4.4,0.6c-0.9-0.2-2.6-1.8-3.6-2.1
			c-0.8,1.3-2,2.2-3.4,2.7c-1,0.2-2.1,0.1-3-0.4c0,1.5,0.1,3,0.1,4.5s0.4,2.9,0.5,4.3c0,1.6,0.2,3.2,0.6,4.7c0.1,1.4,0.1,2.7,0,4.1
			c0,1.3,0.4,2.1,0.4,3.3c0.1,1.7,0.5,3.4,1,5.1c0.3,1.7,1.1,3.3,2.1,4.7c0.8,0.7,1.6,1.3,2.5,1.8c0.1-0.1,0.3-0.1,0.4-0.1
			c0.5-0.1,1,0,1.3,0.3c0.9,0.7,1.9,1.1,3,1.3l1.3,0.3h-16.2c-1.8,0-3.7,0-5.5,0h-1.8h-0.2h-15.1c0.2-0.1,0.4-0.1,0.6-0.2
			c0.4-0.1,0.9-0.2,1.4-0.2s0.9-0.2,1.4-0.4c0.5-0.2,1-0.3,1.6-0.4l0.6-0.1c0.1-0.4,0.5-0.8,1-0.8c1.5-0.2,2.5-3.6,2.9-4.8
			s0.1-2.9,0.4-4.3c0.2-1.4,0.2-2.9,0.1-4.3c0.1-1.6,0.4-3.2,0.4-4.8c0-1.2,0-2.5,0.2-3.7c0.6-3.5-0.1-6.7-0.1-10.2
			c0-0.3,0.1-0.6,0.4-0.8c-0.3,0.2-0.6,0.3-0.9,0.3c-1.5,0.3-3.1,0.4-4.7,0.2c-1.4-0.2-2.7-0.8-3.8-1.7c-0.1-0.1-0.2-0.2-0.3-0.3
			l-0.2,0.1c-0.8,0.5-2.1,0.2-2.9,0.2c-2,0-4.1,0.3-5.9-0.7c-2.5-1.3-4.3-3.6-4.1-6.1c-2.1-0.3-3.9-1.8-4.5-3.9
			c-0.8-2-0.4-4.2,0.9-5.8c-0.4,0-0.7-0.1-1.1-0.3c-0.9-0.4-1.8-0.9-2.6-1.6c-1.6-1.4-0.7-4.7-0.7-6.5c0-1.7,1.8-3.5,2.1-4.5
			c0.2-0.6,0.7-1.2,1.2-1.5c-0.2-0.3-0.3-0.5-0.5-0.8c-0.8-1.6-0.2-3.7,0.2-5.3c0.5-1.8,1.6-3.3,3.2-4.3c1.8-1.1,3.3-0.9,5.1-0.7
			c1.3-6,8.7-7.5,14.3-6.5c0.9-3.3,4-5.1,7.4-6.1c3.8-1.2,6,1.5,8.2,4c0.6-0.5,1.2-1.1,1.6-1.4c0.9-0.4,1.8-0.5,2.7-0.2
			c1.8,0.6,3.8,0.4,5.7,1c1.8,0.5,3.4,1.5,4.7,2.8c0.5,0.5,0.7,1.2,0.8,1.9c2-0.2,4.1,0.3,5.8,1.4c2.9,1.7,3.9,4.1,3.3,7
			c2.5-0.1,4.7,1.3,5.9,3.5c0.7,1.8,0.9,3.8,0.6,5.7c-0.1,0.7-0.4,1.3-0.7,1.9c1,0.2,1.8,0.9,2.1,1.8
			C174.1,45.9,173.7,47.6,173.6,49.2z"/>
		<path class="st0" d="M117.8,158.1h4.2l-0.6,0.4c-0.5,0.3-1,0.6-1.6,0.9c-0.2,0.1-0.3,0.1-0.3,0s0,0,0,0c-0.3,0.4-0.8,0.6-1.2,0.3
			c-0.1-0.1-0.2-0.2-0.3-0.3l-0.2-0.4C117.7,158.7,117.7,158.4,117.8,158.1z"/>
		<path class="st0" d="M163.8,167c-0.8,3.1-2.4,5-4.4,7.4c-1.8,2.2-4.8-0.9-3.1-3.1s3-3.9,3.4-6.7c0.4-2.2,0.5-4.4,0.2-6.5h4.5
			C164.7,161.1,164.5,164.1,163.8,167z"/>
		<path class="st0" d="M130.4,158.1h5.6c-2.8,1.8-5.3,4.2-7.9,6.2c-3.2,2.5-6.5,4.9-10,7.1c-3.4,2.1-6.3,4.6-9.4,7.1
			c-3.3,2.6-6.8,4.8-10.5,6.7c-3,1.5-6.4,3.1-9.8,3.4c-1.8,0.1-1.8-2.6,0-2.8c2.5-0.4,4.8-1.3,7-2.5c2.3-1.1,4.5-2.3,6.6-3.6
			c2.1-1.4,4-3,6-4.5c1.8-1.4,3.3-3,5.2-4.3c4.1-2.8,8.2-5.3,12.1-8.4C126.9,161.1,128.6,159.6,130.4,158.1z"/>
		<path class="st0" d="M153.1,162.4c0.1,4.7-1.1,8.3-4.4,11.7c-1.6,1.6-3.3,2.9-5.2,4.1c-1.1,0.7-1.9,1.6-3.1,1.8
			c-0.5,0.3-1,0.4-1.5,0.1c-0.7-0.3-1.1-1.1-0.8-1.8c0,0,0,0,0,0c0.1-0.6,0.6-1.1,1.2-1.3c1.5-0.5,3-2,4.2-2.9
			c1.5-1.1,2.8-2.4,4-3.9c2.2-2.8,3.2-8.2,1.2-11.4c-0.2-0.3-0.4-0.5-0.6-0.8h4C152.7,159.4,153,160.9,153.1,162.4z"/>
		<path class="st0" d="M127.4,202.2c2.3-1.3,4.3-3.1,6.6-4.4c1.8-1.1,3.8-2,5.6-3.1c2-1.2,3.5-3.1,5.5-4.2s3.2-2.9,4.6-4.6
			c1.1-1.3,2.1-2.7,3-4.1c0.3-0.5,0.1-1.2-0.4-1.5c-0.2-0.1-0.5-0.2-0.8-0.1c-1.8,0.5-3.3,1.6-4.5,3c-0.8,0.9-1.6,1.8-2.3,2.7
			s-2,1.2-2.9,1.8c-1.9,1.3-3.6,2.9-5.7,4s-4.3,2.2-6.4,3.5c-2.3,1.4-4.4,3.1-6.8,4.3s-4.9,2.7-7.4,3.8c-1.1,0.4-2.2,0.9-3.3,1.4
			c-0.6,0.5-1.3,0.9-2,1.3c-1.2,0.4-3,1.1-3.5,2.3c-1.3,2.7,2.7,5.1,4.1,2.4c-0.3,0.7,0.2,0.1,0.7-0.1c0.8-0.2,1.5-0.6,2.1-1
			c2-1.5,4.4-2.2,6.6-3.4C122.6,204.9,125,203.5,127.4,202.2z"/>
		<path class="st0" d="M106.6,158.1c-3.1,1.9-6.6,2.9-9.6,4.9c-1.4,0.9-2.8,1.7-4.3,2.3c-1.8,0.7-3.4,1.7-5.1,2.5
			c-2.3,1.1-5.2,2.2-7.8,1.7c-0.5-0.2-0.7-0.8-0.5-1.3c0.1-0.2,0.3-0.4,0.5-0.5c3.4-0.9,6.3-2.7,9.4-4.4c1.6-0.9,3.3-1.3,4.8-2.3
			s3.1-1.9,4.7-2.7l0.3-0.1L106.6,158.1z"/>
		<path class="st0" d="M106,192.1c4.3-2.8,8.8-5.4,13.4-7.7c4.3-2,8.1-5.3,11.5-8.6c1.9-1.8,3.9-3.6,5.8-5.5
			c1.6-1.6,3.4-2.9,4.8-4.8c1.1-1.6-1.3-3.4-2.6-2c-1.5,1.5-3.2,2.8-4.9,4.1c-2.1,1.7-4.1,3.4-6.1,5.2c-3.5,3.1-7.3,5.7-11.5,7.8
			c-4.4,2.1-8.8,4.5-12.9,7.1c-2.1,1.2-4.1,2.5-6.1,3.9c-1.6,1.1-3.5,1.8-5.1,3.1c-2.2,1.9,0.7,5.5,3,3.9c1.5-0.9,3.2-1.6,4.6-2.6
			C101.9,194.6,103.9,193.3,106,192.1z"/>
		<path class="st0" d="M116.5,197c1.6-0.9,3.1-1.8,4.6-2.9c1.5-0.9,2.9-1.9,4.2-3c1.2-1.2,2.7-2,4-3.1c1.6-1.3,2.9-2.9,4.6-4.1
			c0.7-0.5,0.3-1.7-0.6-1.4c-1.3,0.3-2.5,0.7-3.7,1.2c-1.5,0.8-3,1.8-4.3,2.8c-3,1.9-5.8,4.1-8.9,5.9s-6.6,2.8-9.7,4.5
			c-1.3,0.7-2.3,1.8-3.7,2.5c-1.1,0.6-2.4,1-3.6,1.2c-2.5,0.6-2,4.8,0.6,4.5c2.7-0.4,5.2-1.4,7.4-2.9
			C110.3,200.3,113.3,198.5,116.5,197z"/>
		<path class="st0" d="M111.8,165.2c0.8-0.5,1-1.6,0.4-2.4s-1.6-1-2.4-0.4c0,0-0.1,0.1-0.1,0.1c-4.1,3.5-8.6,6.5-13.5,8.8
			c-4.7,2.2-9.7,3.6-14.2,6.1c-1.4,0.8-0.2,2.8,1.3,2.2c4.7-2.1,9.7-3.6,14.4-5.7C102.9,171.7,107.3,168.5,111.8,165.2z"/>
		<path class="st0" d="M81.1,158.1c-0.4,0.2-0.8,0.2-1.2,0H81.1z"/>
	</g>
</g>
</svg>
