<?xml version="1.0" encoding="utf-8"?>
<!-- Generator: Adobe Illustrator 23.1.0, SVG Export Plug-In . SVG Version: 6.00 Build 0)  -->
<svg version="1.1" id="Layer_1" xmlns="http://www.w3.org/2000/svg" xmlns:xlink="http://www.w3.org/1999/xlink" x="0px" y="0px"
	 viewBox="0 0 277.1 290.5" style="enable-background:new 0 0 277.1 290.5;" xml:space="preserve">
<style type="text/css">
	.st0{fill:#818181;}
	.st1{fill:#FFFFFF;}
	.st2{clip-path:url(#SVGID_2_);}
	.st3{fill:#393945;}
	.st4{clip-path:url(#SVGID_4_);}
	.st5{fill:url(#SVGID_5_);}
</style>
<title>Asset 6</title>
<g>
	<g id="Layer_1-2">
		<path class="st0" d="M277.1,138.6c0,76.5-62,138.6-138.6,138.6S0,215.1,0,138.6S62,0,138.6,0c0,0,0,0,0,0
			C215.1,0,277.1,62,277.1,138.6"/>
		<path class="st1" d="M268.1,138.6c0,71.7-58.1,129.8-129.8,129.9c-71.7,0-129.8-58.1-129.8-129.8S66.5,8.7,138.2,8.7c0,0,0,0,0,0
			C209.9,8.7,268.1,66.9,268.1,138.6"/>
		<g>
			<defs>
				<path id="SVGID_1_" d="M268.1,138.6c0,71.7-58.1,129.8-129.8,129.9c-71.7,0-129.8-58.1-129.8-129.8S66.5,8.7,138.2,8.7
					c0,0,0,0,0,0C209.9,8.7,268.1,66.9,268.1,138.6"/>
			</defs>
			<clipPath id="SVGID_2_">
				<use xlink:href="#SVGID_1_"  style="overflow:visible;"/>
			</clipPath>
			<g class="st2">
				<path class="st3" d="M155.3,203c0.4,1.1,1.2,2,1.6,3.1c0.5,1.7,0.4,3.6-0.4,5.2c0.5-1.3,0.6-2.7,0.4-4.1
					C156.7,205.6,155.7,204.5,155.3,203z"/>
				<path class="st3" d="M159.4,202.4c0.6,1.5,1,3,1.2,4.6c0.1,1.5-0.4,2.8-0.5,4.3c-0.1-1.4,0.4-2.7,0.3-4.1
					C160.2,205.6,159.9,204,159.4,202.4z"/>
				<path class="st3" d="M120.3,202.9c-1.6,1.1-2,4.5-2.5,6.2C118,207.4,118.4,203.7,120.3,202.9z"/>
				<path class="st3" d="M117.8,202c-1.1,1.3-1.9,2.7-2.3,4.3c-0.7,1.5-1.2,3.1-1.6,4.7c0.2-1.6,0.6-3.2,1.3-4.6
					C115.7,204.7,116.3,203.1,117.8,202z"/>
				<path class="st3" d="M114.1,203.3c-0.7,1.1-1.2,2.2-1.5,3.5C112.5,206.1,113.4,203.8,114.1,203.3z"/>
				<path class="st3" d="M81.4,181.3c0.7,1.2,1.6,2.3,2.6,3.2c1,0.8,1.8,1.9,2.3,3.1c-0.7-1.1-1.6-2.1-2.6-3
					C82.7,183.7,81.9,182.5,81.4,181.3z"/>
				<path class="st3" d="M94.7,133.6c-0.3,1.6-0.3,3.2-0.1,4.8C93.8,137.1,94.2,134.9,94.7,133.6z"/>
				<path class="st3" d="M98.7,133.7c0.2,1.4,0.2,2.7,0,4.1C98.4,136.4,98.4,135,98.7,133.7z"/>
				<path class="st3" d="M116.7,143.7c0-0.8,0-1.7,0.2-2.5C117.1,142,117,142.9,116.7,143.7z"/>
				<path class="st3" d="M98.3,143.4c0.1,0.9,0.2,1.9,0.4,2.8C98.1,145.3,98,144.3,98.3,143.4z"/>
				<path class="st3" d="M127.2,143.5c0.2,0.9,0.2,1.8,0,2.7C127,145.3,127,144.4,127.2,143.5z"/>
				<path class="st3" d="M123.4,142.8c0,0.9,0.8,1.9,1,2.8C123.9,145,123,143.6,123.4,142.8z"/>
				<path class="st3" d="M91.9,126.1c-0.7,2.7-1.6,4.9-1,7.7C89.8,131.1,90.8,128.5,91.9,126.1z"/>
				<path class="st3" d="M92.1,130.3c0.2,0.8,0.4,1.5,0.7,2.2C92.2,132,91.9,131.1,92.1,130.3z"/>
				<path class="st3" d="M97.8,131c-1-0.4-1.6-1.4-1.4-2.5C96.6,129.5,97,130.4,97.8,131z"/>
				<path class="st3" d="M111.7,124.3c-0.6,1.7-1.7,3.2-1.9,5C109.6,127.5,110.8,125.7,111.7,124.3z"/>
				<path class="st3" d="M114.1,126.7c-0.1,0.7-0.2,1.3-0.4,2C113.4,128,113.6,127.2,114.1,126.7z"/>
				<path class="st3" d="M97.3,114.2c0.1,0.4,0.3,0.8,0.5,1.2c0.1,0.2,0.7,0.5,0.6,0.7c-0.1-0.3-0.7-0.3-0.8-0.6
					C97.3,115.2,97.2,114.7,97.3,114.2z"/>
				<path class="st3" d="M88,119.2c0.5,0.6,0.7,1.4,0.4,2.2C88.3,120.6,88,119.9,88,119.2z"/>
				<path class="st3" d="M83.3,121.9c0.7,0.4,1.3,0.9,1.7,1.5C84.3,123.2,83.7,122.6,83.3,121.9z"/>
				<path class="st3" d="M76.1,124.2c0.7,0.3,1.2,0.9,1.3,1.7C77,125.4,76.6,124.8,76.1,124.2z"/>
				<path class="st3" d="M73.9,127.1c0.6,0.2,1.2,0.6,1.6,1.1C74.9,128,74.3,127.6,73.9,127.1z"/>
				<path class="st3" d="M85.8,129.7c-0.5,5.1-4.9,8.6-6.8,13C80.6,138,84.8,134.6,85.8,129.7z"/>
				<path class="st3" d="M55.7,182c-1.7,2.5-2.7,5.3-4.5,7.8s-4,4.5-5,7.3c0.7-2.9,3.1-5.1,4.8-7.5S53.8,184.3,55.7,182z"/>
				<path class="st3" d="M192.9,176.8c0,4.1-1,8.2-2.9,11.9c-2,3.5-5,6.2-8.7,7.9c3.4-2,6.6-4.5,8.4-8
					C191.7,185,192.7,180.9,192.9,176.8z"/>
				<path class="st3" d="M188.6,198.2c0.7,1.2,1.8,2.1,2.6,3.2c0.6,1.1,0.9,2.4,0.9,3.7c-0.2-1.3-0.6-2.6-1.2-3.7
					C190.1,200.3,189.1,199.5,188.6,198.2z"/>
				<path class="st3" d="M199.6,158.9c4.1,2.9,7,7.3,7.9,12.2C206.2,166.3,203.5,162,199.6,158.9z"/>
				<path class="st3" d="M174.3,147.8c0.9-0.4,1.5-1.2,1.8-2.2C176.3,146.5,175.2,147.9,174.3,147.8z"/>
				<path class="st3" d="M179.3,134.2c-0.9,1.1-0.8,2.6-0.9,4C178.1,136.8,178,135,179.3,134.2z"/>
				<path class="st3" d="M182.8,137.8c-0.3,0.6-0.9,1-1.6,1.1C181.7,138.5,182.2,138.1,182.8,137.8z"/>
				<path class="st3" d="M176.4,134.1c-0.2,0.8-0.3,1.7-0.1,2.6C175.7,135.9,175.8,134.9,176.4,134.1z"/>
				<path class="st3" d="M157.7,143.7c-0.4-0.7,0.2-1.6,0-2.4C158.3,141.9,157.7,143,157.7,143.7z"/>
				<path class="st3" d="M165.4,145.8c1-0.6,1-1.8,1.1-2.8C166.8,143.9,166.6,145.5,165.4,145.8z"/>
				<path class="st3" d="M148.9,143.2c0.2,0.7,0.2,1.4,0,2.1c-0.1,0.5-0.8,1.5-0.4,2c-0.5-0.4,0-1.5,0.1-1.9
					C148.7,144.7,148.8,143.9,148.9,143.2z"/>
				<path class="st3" d="M157.4,126.9c-0.6-1.3-0.5-2.8,0.4-3.9C157.3,124.2,157.2,125.5,157.4,126.9z"/>
				<path class="st3" d="M186.3,122.4c-0.6,0.7-1.1,1.5-1.6,2.3c-0.3,0.7-0.4,1.4-0.4,2.1C183.8,124.8,185,123.7,186.3,122.4z"/>
				<path class="st3" d="M186.4,126.1c0.2-0.8,0.7-1.4,1.4-1.8C187.4,124.9,186.9,125.5,186.4,126.1z"/>
				<path class="st3" d="M186.8,127.9c1-0.4,2.2,0,3.2-0.6C189.3,128.3,187.8,127.8,186.8,127.9z"/>
				<path class="st3" d="M174.5,113.3c-0.4,0.8-0.7,1.7-0.9,2.6C173.3,115.1,173.9,113.9,174.5,113.3z"/>
				<path class="st3" d="M199,125.5c0.1,0.3-0.4,0.6-0.5,0.8c-0.3,0.4-0.4,1-0.4,1.5c-0.2-0.5-0.1-1.1,0.1-1.5
					C198.4,126,199,125.8,199,125.5z"/>
				<path class="st3" d="M199,128.2c0.3-0.4,0.6-0.8,1.1-1C199.9,127.7,199.5,128.1,199,128.2z"/>
				<path class="st3" d="M199.1,129.2c0.6-0.1,1.2-0.1,1.8-0.1C200.4,129.4,199.7,129.5,199.1,129.2z"/>
				<path class="st3" d="M208,154c1.6,1.4,2.5,3.4,2.5,5.6c-0.2-1-0.5-2-0.9-3C209.2,155.7,208.6,154.8,208,154z"/>
				<path class="st3" d="M183.6,162.3c0.8-0.5,1.6-1.1,2.3-1.8C185.5,161.4,184.6,162.1,183.6,162.3z"/>
				<path class="st3" d="M191,169.8c-0.9,0.5-1.4,1.4-2.5,1.4C189.1,170.9,190.3,169.8,191,169.8z"/>
				<path class="st3" d="M247,222.1c-0.5,1.9-1.7,3.6-3.3,4.8C245,225.4,246.1,223.8,247,222.1z"/>
				<path class="st3" d="M31.6,224.3c1.2,1.7,3.3,2.9,5,4.2c1.7,1.4,3.6,2.4,5.7,3c-2.1-0.4-4-1.3-5.7-2.6
					C34.9,227.6,32.7,226.1,31.6,224.3z"/>
				<path class="st3" d="M253,219.1c-4-5-8.1-9.9-12.6-14.5c-2.1-2.1-3.9-4.5-5.2-7.1c-1.3-2.7-2.8-5.3-4.3-7.8
					c-1.6-2.7-3.4-5.4-5-8.2s-3-5.6-4.6-8.4c-1.7-2.8-3.2-5.7-4.6-8.7c-1.1-2.7-2.5-5.4-4.1-7.8c-1.8-2.5-3.8-4.9-4.9-7.9
					s-1.7-6.1-2.5-9.1c-0.9-3.2-1.8-6.4-2.8-9.5c-0.9-2.8-2-5-4.4-6.8c-4.7-3.4-10.1-6.8-15.6-8.6c-1.7-0.5-3.4-0.9-5-1.4
					s-3.3-1.4-5-1.9c-3.5-1.1-7.1-1.6-10.6-2.8c-1.3-0.5-2.6-0.7-3.9-1.1c-1.1-0.4-2.3-0.4-2.4,0.6c-0.2,1.6-0.9,3-0.7,4.7
					c0.1,1.4,0.7,2.7,1.7,3.8c-2.1,0.7-4.2,1.2-6.3,1.8c-2.3,0.5-4.5,0.8-6.8,1c-1.1,0.2-2.1,0.4-3.2,0.8c-1,0.2-2,0.5-3,0.9
					c-0.8,0.4-0.7,0.8-0.5,1.5c0.2,0.9,0.2,1.8,0.4,2.7c0.8,3.3,5.7,5.1,8.7,4.9c0.9-0.1,1.7-0.2,2.6-0.4c1.2-0.2,2.3-0.2,3.5-0.4
					c2.1-0.2,4.3-1.3,6.4-1.1c1.1,0.2,2.2,0.6,3.1,1.2c1.1,0.5,2.3,1,3.5,1.4c2.4,0.8,4.8,1.5,7.2,2.1c-2.7,0.3-5.3,0.5-8,0.6
					c-2.7-0.1-5.5,0-8.2,0.4c-2.5,0.4-5,1.2-7.3,2.3c-1,0.5-1.9,1.1-2.8,1.8c-1,0.5-2.1,1-3.3,1.3c-1.1,0.4-2.1,0.9-3.1,1.5
					c-0.5,0.3-0.9,0.6-1.4,0.9c-0.2,0.2-0.4,0.4-0.6,0.5c-0.1,0-0.8-0.5-0.8-0.6c-0.9-0.5-1.6-0.9-2.5-1.4c-1.1-0.6-2.2-1.1-3.4-1.6
					c-2.2-0.7-4.2-2-6.5-2.6c-2.6-0.8-5.2-1.5-7.8-2.1c-2.8-0.6-5.7-0.9-8.6-1c-1.5,0-2.9,0.1-4.4,0c-1.5-0.2-2.9-0.5-4.3-0.9
					c4.1-1.1,8.3-0.5,12.3-2.2c1.9-0.8,3,0.8,4.6,1.6c1.8,0.9,3.8,1.7,5.6,2.5s3.7,1.5,5.7,1c1.6-0.4,3.6-1.3,4.5-2.8
					c0.2-0.4,0.2-1.1,0.6-1.4s1.6,0,1.3-1.1c-0.1-0.6-1.1-1.1-1.5-1.5c-0.9-0.7-1.9-1.3-2.9-1.9c-2.1-1.2-4.3-2.2-6.5-3.3
					s-4.5-2.5-6.8-3.6c2.2-1.6,4.4-4,4.2-7c0-0.6-0.3-1.2-0.3-1.8s0.3-1.3-0.2-1.8c-0.8-0.9-2.8-0.3-3.8-0.1
					c-3.2,0.5-6.4,1.5-9.6,2.3s-6.5,1.7-9.7,2.7c-3.1,0.8-6.1,1.9-9,3.3c-2.7,1.4-5.3,3-8,4.5c-2.4,1.3-5.1,2.7-6.3,5.4
					c-1.3,2.8-2.3,5.8-3.4,8.7c-1.3,3.1-2.1,6.3-3.3,9.4s-2.1,6.3-3.9,9.1c-1.7,2.6-3.5,5.1-5.1,7.8c-1.8,2.9-3,6-4.6,8.9
					s-3.3,5.9-5,8.9s-3.2,5.9-5,8.7c-3.5,5.8-7.4,11.4-11.1,17s-7.4,11-11.3,16.4c-2.8,4.2-5.4,8.6-7.6,13.2v1
					c1.9-3.6,3.8-7.1,6-10.5c3.6-5.6,7.6-11,11.3-16.6c3.8-5.8,7.7-11.7,11.5-17.5c3.6-5.5,6.6-11.2,9.8-16.9c1.7-3,3.1-6,4.6-9
					c1.6-3,3.4-5.9,5.3-8.6c1.8-2.5,3.2-5.2,4.2-8c1.1-3.1,2.2-6.3,3.2-9.5s2.4-6.3,3.7-9.4c0.4-1.3,0.9-2.5,1.5-3.7
					c0.9-1.3,2-2.3,3.4-3c2.7-1.6,5.5-3.1,8.2-4.6c2.7-1.5,5.6-2.7,8.6-3.7c3.3-1,6.6-1.8,9.9-2.7l2.3-0.6l0.5-0.1
					c0.3-0.2,0.5-0.2,0.6,0.1c0.1,0.1,0.3,0.3,0.4,0.4c1,0.7,2.2,1.1,3.5,1.1c2.8,0.2,5.5-0.4,8-1.7c0.9,2.8-0.8,5.3-3,7
					c-0.2,0.2-0.5,0.4-0.8,0.6l-0.1,0.2L115,119c-0.7-0.3-1.4-0.5-2.1-0.8c-1.5-0.4-3.1-0.7-4.7-0.8c-3.5-0.1-7,0.1-10.4,0.7
					c-3.3,0.4-6.7,0.5-10,0.5c-1.3-0.1-2.5,0.4-3.4,1.3c-1.1,1.1-2.1,2.4-2.9,3.8c-1.8,2.6-3.6,5-5.2,7.8c-1.7,3-3.1,6-4.7,9
					c-0.4,0.8-1,2.6-0.6,2c0.4-0.8,1.4-2.7,1.9-3.6c1.5-2.9,3-5.7,4.6-8.5c1.6-2.6,3.3-5.1,5.2-7.5c0.8-1.2,1.8-2.3,3-3.2
					c1.1-0.7,2.6-0.5,3.8-0.5c3.4-0.1,6.8-0.3,10.1-0.7c3.3-0.5,6.7-0.6,10.1-0.3c3.2,0.4,6.2,1.5,9,3.1c1.3,0.7,2.5,1.4,3.8,2.1
					c0.8,0.3,1.5,0.7,2.3,1.1c0.4,0.3,0.6,1,1,1.4c0.7,0.6,1.4,1.2,2.1,1.7c1.2,1,2.4,1.9,3.7,2.8c0.4,0.3,0.5,0.1,0.5,0.6
					c-0.1,0.4-0.3,0.8-0.6,1.1c-0.4,0.5-0.9,1-1.4,1.3c-1.3,0.8-2.8,1.3-4.3,1.2c-1.7-0.3-3.3-0.8-4.8-1.6c-1.6-0.7-3.3-1.3-4.8-2.1
					c-1.2-0.6-2.4-2.3-3.9-1.9c-0.7,0.2-1.4,0.7-2.1,1c-0.7,0.3-1.5,0.5-2.3,0.6c-1.6,0.2-3.2,0.2-4.8,0.3c-0.4,0-3.9,0.4-4.6,0.8
					c-0.2,0.1-0.4,0.2-0.6,0.2c-2.8-0.1-5.2,1.5-7.3,3.2c-2.5,2.2-4.8,4.6-7,7.1c-2.3,2.6-11,11.2-10.8,11.6s11.2-11.6,16-16.3
					c2-2,4.6-4.4,7.5-5c1.5-0.1,3,0,4.4,0.5c1.6,0.4,3.3,0.6,5,0.6c3.9,0,7.9,0.4,11.7,1.2c3.6,0.8,7.5,1.7,10.7,3.5
					c-0.3,0,0.1,1.2,0.3,1.4c0.4,0.5,0.9,1,1.5,1.3c1.3,0.8,2.7,1.5,4.1,2.1c0.5,0.2,1.5,0.4,1.8,0.9s-0.2,1.5-0.6,2.1
					c-1,1.4-2.9,1.6-4.5,1.6c-3.8,0-7.5-1.1-11.2-2c-0.7-0.2-1.4-0.5-2.1-0.9c-0.5-0.5-1.3-0.5-1.9,0c-1.5,0.9-3.2,1.4-5,1.4
					c-2.2,0.1-4.3,0.6-6.5,0.6c-1,0-2.2-0.5-3.2-0.2s-1,0.7-1.7,0.4c-0.1,0-0.1,0-0.2,0c0,0,0,0.1,0,0.1c0.4,1.6-0.4,2.8-1.3,4
					c-1.2,1.5-2.6,2.9-3.9,4.3c-1.2,1.2-2.5,2.3-3.7,3.5s-1.4,2.9-2.1,4.4c-0.7,1.8-1.5,3.6-2.4,5.3c-1,1.6-2,3.2-2.8,4.9
					c-0.9,1.5-0.8,3.5,0.2,4.9c1,1.9,2,3.7,3,5.6c1.8,3.3,3.2,6.5,6.5,8.6c3.1,2.1,6.7,3.2,10.4,3.3c7.9,0.1,16.1,0.1,23.1,4.3
					c3.5,2.2,6.6,4.9,9.1,8.1c0.8,0.8,1.5,1.6,2.1,2.5c0.5,0.7,0.1,2.1,0.3,3c0.3,1.9,1.4,4.4,0.1,6.2c0.2-3.2-1.9-5.5-4.5-7
					c-1.4-0.8-3.1-1.9-4.8-1.5c-1.4,0.4-2.2,1.8-1.9,3.2c0,0.1,0,0.1,0.1,0.2c-1.7-0.9-3.5-1.5-5.4-1.9c-0.8-0.2-1.7-0.3-2.5-0.3
					c-1-0.1-1.8-0.4-2.8-0.6c-0.9-0.1-1.7-0.1-2.6,0c-1,0-2-0.1-3.1-0.3c-1.9-0.3-3.8-0.3-5.7,0c-3.9,0.8-7.4,2.9-11.1,4.1
					s-7.4,2.4-10.8,4.5c-3.2,2.1-6.7,3.7-10.3,4.8c-3.7,1.1-7.4,1.7-11.1,2.6c-3.7,0.8-5.3,3.6-7.5,6.5c-1.2,1.6-2.4,3.1-3.5,4.8
					s-1.9,3.5-2.9,5.2c-1.6,2.8-3.2,5.6-4.5,8.4h0.5c0.5-1.1,1-2.2,1.6-3.3c0.9-1.7,1.9-3.3,2.8-4.9s1.9-3.5,3-5.2s2.2-3.1,3.2-4.6
					c0.9-1.4,1.8-2.7,2.9-4c2.3-2.7,6-2.8,9.3-3.5c3.7-0.7,7.4-1.8,10.9-3.2c3.5-1.5,6.5-3.8,10-5.4c3.6-1.6,7.5-2.4,11.2-4.1
					s7.1-2.8,11.2-2.4c1,0.1,1.9,0.3,2.9,0.3s1.8-0.1,2.8-0.1c0.8,0.1,1.6,0.4,2.3,0.6c0.9,0.2,1.8,0.3,2.7,0.4
					c3.8,0.4,6.7,2.1,9.7,4.3c1.8,1.3,3.6,3.1,5.7,3.8c1.1,0.1,2.1-0.5,2.6-1.5c0.2-0.3,0.4-0.7,0.4-1.1c0.2,0.1,0.4,0.3,0.6,0.3
					l0,0c0.1,0.3,0.3,0.6,0.6,0.8l0,0c0.4,0.2,0.8,0.2,1.2,0.1c0.4-0.2,0.8-0.4,1.2-0.6l4.9-3.4c1.3-1.1,2.8-2,4.4-2.8
					c0.9-0.2,1.8-0.4,2.7-0.5c0.8-0.4,1.6-0.5,2.5-0.6c0.7,0.1,1.2,0.8,2,0.6s1.2-0.5,2.1-0.2c1.8,0.5,3.6,0.8,5.4,0.9
					c1.9,0.3,3.7,0.9,5.4,1.7l5.4,2.2c3.8,1.5,7.6,2.9,11.3,4.6c1.7,0.8,3.2,1.8,4.8,2.6c1.7,0.8,3.4,1.4,5.3,1.8
					c3.6,1,7.4,1.7,11.1,2c1.9,0.1,3.8,0.3,5.7,0.7c1.6,0.4,3.1,1.4,4.1,2.7c1.2,1.4,2.7,2.5,3.9,3.8c1.2,1.4,2.3,2.8,3.2,4.3
					c2.2,3.2,4.3,6.4,6.5,9.6c0.7,1,1.5,2,2.2,3h0.4c-0.4-0.7-0.9-1.4-1.3-2.1c-1-1.5-2.1-3-3.1-4.5c-2.2-3.2-4.2-6.6-6.6-9.6
					c-1.1-1.4-2.5-2.5-3.8-3.8s-2.2-2.6-3.8-3.4c-3.2-1.5-7-1.1-10.4-1.6c-3.9-0.5-7.8-1.4-11.6-2.8c-1.7-0.7-3.3-1.6-4.8-2.6
					c-1.6-0.9-3.4-1.6-5.1-2.3c-3.7-1.6-7.5-3-11.2-4.5c-1.8-0.8-3.7-1.5-5.5-2.1c-1.8-0.5-3.7-0.4-5.5-0.7
					c-0.8-0.1-1.4-0.5-2.1-0.7s-1.1,0.2-1.9,0.3s-1.2-0.4-1.9-0.6c-0.9-0.1-1.7,0.1-2.5,0.5c-1.8,0.3-3.6,0.9-5.3,1.7
					c0.2-1.5-0.1-3.2-1.8-3.6c-1.8-0.5-3.5,0.7-4.9,1.7c-1.4,0.8-2.5,1.9-3.1,3.4c-0.4,1-0.6,2.1-0.4,3.2c-0.1-0.1-0.2-0.2-0.3-0.3
					c0.1-1.6-0.5-3.4-0.7-4.9c-0.3-2.6,0.5-5.2,2.3-7.2c1.7-2,3.7-3.7,5.9-5.2c2.2-1.6,4.7-2.7,7.4-3.4c2.6-0.7,5.3-1.1,8-0.9
					c2.8,0,5.5,0.4,8.2,0.6c5.2,0.3,10.2-1.6,13.9-5.3c1.6-1.9,3-4,3.9-6.3c0.6-1.2,1.1-2.4,1.6-3.6c0.6-1.1,1-2.3,1.1-3.6
					c0-2.5-2-5.1-3.2-7.1s-2.8-4.4-3.6-6.8c-0.3-0.9,0-1.9-0.8-2.5c-1-0.8-1.8-1.7-2.5-2.8c-1.7-2.3-3.4-4.6-5.2-6.9
					c-0.8-0.8-1.3-1.9-1.4-3c0-1,0.2-1.8-1.1-2s-2.2,0.4-3.4,0.2c-1.4-0.4-2.7-0.9-4-1.5c-1.1-0.4-2.1,0.1-3.2-0.3
					c-0.7-0.3-1.4-0.5-2.1-0.8s-0.9-0.8-1.4-1c-0.9-0.4-2.1,1-2.9,1.4c-1.4,0.6-2.9,1-4.4,1.5c-2.6,0.9-5,1.6-7.8,1.3
					c-2.2-0.3-4.5-1.2-5.4-3.4c1.6,0.5,3.9-1.5,5.2-2.3c1.1-0.7,3.4-2.4,1.4-3.6c2-0.9,3.8-2.3,5.8-3.1c2.4-0.9,4.9-1.5,7.4-1.8
					c2.7-0.2,5.4,0,8.1-0.2s5.1-0.5,7.7-0.8c1-0.2,2.1-0.3,3.1-0.3c1.1,0.1,2.1,0.6,2.9,1.3c1.9,1.6,3.8,3.2,5.6,4.9
					c3.7,3.5,6.9,7.5,10.4,11.3c1.7,1.9,6.4,6.6,6.6,6.4c0.4-0.3-2.1-2.5-3-3.4c-3.7-3.7-6.9-7.8-10.4-11.6
					c-1.7-1.8-3.6-3.6-5.4-5.3c-0.9-0.8-1.7-1.5-2.6-2.3c-0.8-0.9-1.7-1.6-2.8-2c-1-0.2-1.9-0.2-2.9,0c-0.5,0.1-1.1,0.2-1.6,0.2
					c-0.7,0-1.5-0.2-2.2-0.4c-2.5-0.7-5.1-1.4-7.5-2.3c-2.7-1-4.8-2.7-7.8-2.1c-1.3,0.2-2.5,0.6-3.7,0.8s-2.9,0.2-4.3,0.4
					c-1.2,0.3-2.5,0.5-3.7,0.5c-1.2-0.2-2.3-0.5-3.4-1c-2.2-1-3.7-2.5-3.8-5c1.6,1.2,4.1-0.2,5.6-0.8c1.3-0.6,4-1.1,3.5-3.1
					c2.5-0.2,5-1.1,7.4-1.8c1.1-0.5,2.3-0.8,3.5-0.9c0.9,0.1,1.8,0.2,2.7,0.2c2.4,0,4.8-0.5,7.2-0.1s4.9,1,7.3,1.6s4.8,1,7.1,1.6
					c2.1,0.4,4,1.2,5.8,2.3c1.7,1.4,3.2,3.1,4.3,5c1.3,2.1,2.6,4.2,3.9,6.2c2.7,4.2,9.9,15.2,10.2,14.7s-4.4-6.7-5.8-8.8
					c-2.8-4.3-5.5-8.6-8.3-13c-1.1-1.9-2.6-3.6-4.3-4.9c-1.8-1.1-3.8-1.8-5.9-2.2c-2.9-0.7-5.8-1.3-8.7-1.9
					c-2.7-0.7-5.4-1.1-8.2-1.2c-1.3,0.1-2.6,0.2-4,0.2c-1.2,0.1-2.4-0.1-3.5-0.4c-2.3-1.1-2.1-4.8-1.4-6.8c1,2.3,4.1,2.6,6.3,3
					c1.1,0.2,6.1,1.2,4.6-1.8c2.8,0.5,5.6,1.3,8.3,2.4c2.6,1.1,5.2,1.6,7.8,2.5c5.2,1.7,9.8,4.8,14.4,7.9c1.1,0.6,2,1.4,2.9,2.4
					c0.8,1.1,1.3,2.3,1.7,3.5c0.9,2.7,1.8,5.5,2.6,8.3c1.4,4.8,2,10,4.6,14.4c1.4,2.4,3.2,4.5,4.8,6.8c1.4,2.2,2.5,4.6,3.3,7.1
					c1.1,2.5,2.4,5,3.9,7.4c1.4,2.4,2.7,4.9,4.1,7.4c2.8,5.1,6.1,9.9,8.9,15c1.2,2.2,2.2,4.6,3.8,6.6c1.8,2.2,3.9,4,5.8,6.1
					c4.3,4.7,8.2,9.8,12.1,14.9c2,2.6,4.2,5.3,6.2,7.9l0.5,0.7v-0.9C259.1,226.9,256,222.9,253,219.1z M119.1,110.9
					c-0.6,0.3-1.2,0.6-1.9,0.8c-1.6,0.6-3.4,0.9-5.1,0.8c-0.8,0-1.6-0.1-2.4-0.3c-0.7-0.3-1.3-0.6-1.8-1.1c2.9-0.9,6-1.6,9-2.1
					c0.7-0.1,2.1-0.4,2.5,0.4C119.6,109.9,119.4,110.4,119.1,110.9z M131.5,129.6c-1.2-0.7-2.3-1.5-3.3-2.4
					c-0.9-0.7-2.3-1.4-2.8-2.5c1.5,0.7,2.9,1.4,4.3,2.3c1.1,0.6,2.2,1.3,3.1,2.1c0.3,0.3,0.7,0.4,0.3,0.7S131.9,129.8,131.5,129.6z
					 M135.7,221.2c-1.2-0.3-2.4-1.5-3.4-2.2c-1.2-0.9-2.4-1.8-3.6-2.7c-0.5-0.3-1-0.6-1.4-1c-0.2-0.5-0.3-1.1-0.3-1.6
					c0.2-1.1,1.3-1.9,2.5-1.8c2.2,0.1,5.1,2,6.4,3.7C136.7,216.7,138.6,221.8,135.7,221.2z M141.7,213.4c1.4-1.1,3.4-2.8,5.3-2.6
					c1,0.1,1.8,0.9,1.8,1.9c0.1,0.5,0.1,1-0.1,1.5c-0.2,0.5-1,0.8-1.5,1.2c-2,1.5-4.1,2.9-6.2,4.3c-0.3,0.2-0.6,0.1-0.9-0.1
					c-0.2-0.2-0.3-0.4-0.5-0.6C138.9,217.1,140.2,214.6,141.7,213.4L141.7,213.4z M135.4,143c-0.5-0.3-1-0.4-1.5-0.7
					c-1.2-0.6-2.4-1.2-3.6-1.9c-0.5-0.2-0.9-0.5-1.3-0.8c-0.3-0.4-0.5-0.8-0.6-1.3c1.1,0.5,2.4,0.9,3.5,1.3c1.2,0.5,2.4,1.1,3.4,1.8
					c0.6,0.4,2.1,0.9,1.3,1.8C136.1,143.8,135.9,143.3,135.4,143z M138.9,146.8c3.9,3,8.6,1.9,12.9,0.5c1-0.3,2-0.6,2.9-1
					c0.5-0.2,1-0.3,1.4-0.6s1.1-0.8,1.6-1c0.8-0.3,1,0.4,1.8,0.7c0.5,0.2,1,0.2,1.5,0.4c0.4,0.2,0.9,0.5,1.3,0.7
					c0.9,0.3,1.8-0.2,2.8,0.1c1.2,0.4,2.3,1,3.4,1.3c1,0.2,2,0.2,3,0.1c0.6-0.1,1.6-0.2,1.6,0.6c0,0.4-0.2,0.7-0.2,1.1
					c0.1,0.5,0.3,1,0.5,1.5c0.6,1,1.3,1.9,2.1,2.8c1.6,2,3,4.2,4.5,6.2c0.6,0.9,1.4,1.6,2.2,2.3c0.7,0.6,0.5,1.4,0.8,2.3
					c0.7,2.4,2.3,4.6,3.5,6.8c1.1,2,2.7,4.1,3.2,6.3c0.1,1-0.1,2.1-0.7,3c-0.6,1.3-1.2,2.5-1.8,3.8c-2,4.3-4.3,8.1-8.6,10.2
					c-2,1-4.3,1.7-6.6,1.9c-2.7,0.2-5.3-0.4-7.9-0.6c-2.8-0.1-6-0.4-8.8,0.3c-2.7,0.6-5.3,1.6-7.6,2.9c-2.2,1.3-4.3,2.9-6.1,4.7
					c-2,1.7-3.5,3.9-4.2,6.4c-3.4-3.7-6.5-7.6-10.8-10.3s-8.8-3.6-13.8-4.1c-2.7-0.3-5.4-0.5-8.1-0.5c-2.5,0.1-4.9-0.1-7.3-0.8
					c-2.3-0.8-4.4-1.9-6.2-3.4c-1.9-1.5-2.9-3.5-4-5.6s-2.3-4.4-3.6-6.5c-0.6-0.9-1.1-1.8-1.3-2.8c-0.1-1.1,0.1-2.2,0.7-3.1
					c1.1-2.2,2.6-4.2,3.7-6.4c0.9-1.9,1.4-4.1,2.2-6.1s3.2-3.5,4.7-5.1s3.7-3.6,4.9-5.6c0.4-0.8,0.5-1.9,1-2.6
					c0.7-0.6,1.7-0.8,2.6-0.6c2.5,0.4,4.9-0.3,7.4-0.5c1.4,0,2.7-0.2,4-0.6c0.9-0.3,2-1.4,2.9-1.2c0.6,0.3,1.2,0.6,1.8,0.9
					c0.6,0.2,1.3,0.4,1.9,0.6c1.2,0.3,2.5,0.6,3.7,0.9c2.5,0.7,5.2,1,7.8,0.7c1.2-0.1,2.4-0.6,3.3-1.4c0.8-0.8,0.9-2,1.7-2.7
					c0.2,0.4,0.6,0.5,0.8,0.9c0,0.1,0,0.6,0.1,0.8C138,145.9,138.4,146.4,138.9,146.8L138.9,146.8z M144.7,139.6
					c1.1,1.4-2.3,2.9-3.1,3.4c-1.2,0.7-2.8,2.2-4.1,0.9c-1.1-1.1,1.5-2.5,2.3-2.9S143.8,138.4,144.7,139.6L144.7,139.6z
					 M145.4,120.8c-0.7,0.5-1.5,0.8-2.3,1.1c-0.9,0.3-1.8,0.8-2.7,1.1c-0.9,0.4-1.9,0.5-2.8,0.1c-0.4-0.2-0.9-0.9-0.6-1.4
					s1.4-0.6,1.9-0.7c1-0.3,1.9-0.6,2.9-0.8c1-0.3,2-0.4,3.1-0.5c0.4,0,0.8-0.2,1,0.2C145.9,120.2,145.8,120.6,145.4,120.8
					L145.4,120.8z M165.9,112c-1.1,0.3-2.2,0.3-3.3-0.1c-1.1-0.3-2.3-0.4-3.5-0.7c-1.1-0.2-2.2-0.8-2.8-1.8
					c-0.3-0.5-0.9-1.5-0.1-1.8c0.6-0.2,3.6,0.9,4.4,1.2c1.3,0.5,2.7,0.8,4,1.2c0.5,0.1,1,0.4,1.3,0.8
					C166.3,111.3,166.5,111.7,165.9,112z"/>
			</g>
		</g>
		<g>
			<defs>
				<path id="SVGID_3_" d="M54.5,212.6c-10.3,5.7-18.8,14.2-24.6,24.5c-7.7,13.2-10.2,28.7-7.1,43.6c0.4,2.1,1,4.1,1.6,6.2
					c0.3-0.2,0.5-0.5,0.7-0.9c3.8-8,8.3-15.8,13.3-23.2c6.2-9.1,13.2-17.4,22.2-23.9c1-0.7,2.1-1.4,3.2-2c-0.8,0.7-1.6,1.4-2.4,2.1
					c-4.6,3.8-8.7,8.2-12.2,13c-8.5,11.5-14.8,24.3-19.9,37.6c-0.1,0.2-0.1,0.4-0.2,0.7c0.4-0.1,0.7-0.1,1-0.3
					c3.5-1.2,7.1-2.2,10.5-3.6c10.4-4,20-9.7,28.4-17c10.1-8.9,17.9-20.2,22.8-32.8c2.8-7.2,5.3-14.5,7.9-21.8
					c0.6-1.6,1-3.2,1.5-4.8c-0.5-0.3-1-0.5-1.4-0.7c-5.6-2.7-11.6-4.1-17.8-4.1h-0.5C71.8,205.5,62.6,208,54.5,212.6"/>
			</defs>
			<clipPath id="SVGID_4_">
				<use xlink:href="#SVGID_3_"  style="overflow:visible;"/>
			</clipPath>
			<g class="st4">
				
					<radialGradient id="SVGID_5_" cx="-1407.7111" cy="-1188.2087" r="0.6602" gradientTransform="matrix(50.002 -54.5102 29.6022 27.154 105619.375 -44224.7734)" gradientUnits="userSpaceOnUse">
					<stop  offset="0" style="stop-color:#EE3541"/>
					<stop  offset="0.36" style="stop-color:#D92E38"/>
					<stop  offset="1" style="stop-color:#AA1E23"/>
				</radialGradient>
				<polygon class="st5" points="-22.6,251.7 56.9,165 143.4,244.3 63.9,331 				"/>
			</g>
		</g>
	</g>
</g>
</svg>
