<?xml version="1.0" encoding="utf-8"?>
<!-- Generator: Adobe Illustrator 23.1.0, SVG Export Plug-In . SVG Version: 6.00 Build 0)  -->
<svg version="1.1" id="Layer_1" xmlns="http://www.w3.org/2000/svg" xmlns:xlink="http://www.w3.org/1999/xlink" x="0px" y="0px"
	 viewBox="0 0 277.1 282.4" style="enable-background:new 0 0 277.1 282.4;" xml:space="preserve">
<style type="text/css">
	.st0{fill:#818181;}
	.st1{fill:#FFFFFF;}
	.st2{clip-path:url(#SVGID_2_);}
	.st3{fill:url(#SVGID_3_);}
</style>
<title>Asset 2</title>
<g>
	<g id="Layer_1-2">
		<path class="st0" d="M277.1,138.6c0,76.5-62,138.6-138.6,138.6S0,215.1,0,138.6S62,0,138.5,0c0,0,0,0,0,0
			C215.1,0,277.1,62,277.1,138.6"/>
		<path class="st1" d="M268.4,138.6c0,71.7-58.1,129.8-129.8,129.9c-71.7,0-129.8-58.1-129.8-129.8S66.8,8.7,138.6,8.7c0,0,0,0,0,0
			C210.3,8.7,268.4,66.9,268.4,138.6"/>
		<g>
			<defs>
				<path id="SVGID_1_" d="M220.3,197.4c-11.3,6.3-20.6,15.5-26.9,26.8c-8.4,14.4-11.2,31.4-7.8,47.7c0.4,2.3,1.1,4.5,1.7,6.8
					c0.3-0.2,0.6-0.6,0.7-1c4.2-8.8,9.1-17.2,14.5-25.3c6.8-9.9,14.4-19,24.2-26.1c1.1-0.8,2.3-1.5,3.4-2.2
					c-0.8,0.8-1.7,1.6-2.7,2.3c-5,4.2-9.5,8.9-13.3,14.2c-9.3,12.6-16.1,26.5-21.7,41.1c-0.1,0.2-0.1,0.4-0.2,0.8
					c0.4-0.1,0.8-0.2,1.1-0.3c3.8-1.3,7.7-2.4,11.5-3.9c11.3-4.3,21.8-10.6,31-18.5c11.1-9.8,19.6-22,24.9-35.8
					c3.1-7.9,5.8-15.8,8.7-23.8c0.6-1.7,1.1-3.4,1.6-5.2c-0.6-0.3-1.1-0.6-1.6-0.8c-6.1-2.9-12.7-4.4-19.4-4.5h-0.6
					C239.3,189.6,229.2,192.3,220.3,197.4"/>
			</defs>
			<clipPath id="SVGID_2_">
				<use xlink:href="#SVGID_1_"  style="overflow:visible;"/>
			</clipPath>
			<g class="st2">
				
					<radialGradient id="SVGID_3_" cx="-679.1423" cy="-1201.3534" r="0.72" gradientTransform="matrix(50.002 -54.5102 29.6022 27.154 69745.2734 -4166.0576)" gradientUnits="userSpaceOnUse">
					<stop  offset="0" style="stop-color:#EE3541"/>
					<stop  offset="0.36" style="stop-color:#D92E38"/>
					<stop  offset="1" style="stop-color:#AA1E23"/>
				</radialGradient>
				<polygon class="st3" points="136,240 222.9,145.3 317.4,232 230.5,326.6 				"/>
			</g>
		</g>
		<path class="st0" d="M184.8,155.5c-6.1-18.8-14.6,11-3.8,14.7C188.1,172.7,186.5,160.8,184.8,155.5z"/>
		<path class="st0" d="M204.8,175.2c-1.4-12-10.8-12.1-15.1-2.4c-8-4.7-9.4,9.5-5.7,14.7c3.2,4.5,8.9-0.8,11.5,0
			c1.9,0.3,5.4,3.4,6.8,3.5C209.3,191.2,215.2,173.5,204.8,175.2z"/>
		<path class="st0" d="M180.4,145.2c-0.2-1.4-2.4-1.4-2.7,0C177.3,147,180.8,147.2,180.4,145.2z"/>
		<path class="st0" d="M214,148.4c-6.4-6.5-12.7,12.1-10.5,15.7C208.4,172.4,218.4,152.9,214,148.4z"/>
		<path class="st0" d="M193.9,163.2c4.6,0.4,5.2-6.9,4.7-11.1C195.2,127,180.6,161.9,193.9,163.2z"/>
		<path class="st0" d="M211.3,173c3.3,8.6,17-8.3,14.1-13C221.6,153.9,209.5,168.4,211.3,173z"/>
		<path class="st0" d="M194.6,140.6c0.7-0.1,1.2-0.8,1.1-1.5c-0.1-0.6-0.6-1.1-1.3-1.1C192.2,137.7,192.9,141.1,194.6,140.6z"/>
		<path class="st0" d="M227.5,156.2c-1.5-1.7-3.6,0.9-1.4,1.7C227.1,158.2,228.1,157,227.5,156.2z"/>
		<path class="st0" d="M215.2,143.9c0.3-1.5-2.3-1.7-2.6-0.3C212.5,145,215,145.6,215.2,143.9z"/>
		<path class="st0" d="M114.5,133.6c-13.2-14.8-8.9,15.9,2.5,15C124.4,148,118.2,137.7,114.5,133.6z"/>
		<path class="st0" d="M126.6,163.2c4.7,2.8,7.8-4.3,10.5-4.6c1.9-0.5,6.3,1,7.6,0.4c6.5-2.5,4.8-21.2-4.1-15.4
			c-6.1-10.4-14.7-6.7-14.8,3.9C116.7,146.4,121.1,159.9,126.6,163.2z"/>
		<path class="st0" d="M106.2,125.9c-0.7-1.2-2.7-0.3-2.5,1.1C104.2,128.8,107.4,127.6,106.2,125.9z"/>
		<path class="st0" d="M135,133.9c7.9,5.6,9.2-16.3,3.3-18.6C129.9,111.9,131.6,131.5,135,133.9z"/>
		<path class="st0" d="M125.8,137c4.4-1.4,2-8.4-0.2-12C112.5,103.3,113.2,141.1,125.8,137z"/>
		<path class="st0" d="M153.4,121.4c-6-4.1-11.1,14-7.7,17.5C152.3,145.4,158,124.5,153.4,121.4z"/>
		<path class="st0" d="M117.5,116c0.6-0.4,0.8-1.3,0.4-1.9c-0.3-0.5-1-0.7-1.6-0.5C114.1,114.3,116.1,117.2,117.5,116z"/>
		<path class="st0" d="M153.3,119.2c0.9-0.2,1.3-1.6,0.6-2.1C151.8,116.1,151,119.3,153.3,119.2z"/>
		<path class="st0" d="M137.6,110.7c-0.3-1.5-2.8-0.6-2.5,0.8C135.6,112.8,138.1,112.3,137.6,110.7z"/>
		<path class="st0" d="M61.3,183.2c-15.8-11.8-5.5,17.4,5.4,14.2C74,195.3,65.8,186.5,61.3,183.2z"/>
		<path class="st0" d="M89,187.7c-8.1-9-15.8-3.6-13.7,6.7c-9.2,0.8-2.2,13.2,3.8,15.3c5.2,1.8,6.8-5.8,9.4-6.7
			c1.8-0.9,6.4-0.3,7.6-1.1C101.9,198.2,96.6,180.3,89,187.7z"/>
		<path class="st0" d="M49.5,178.9c0.8,1.7,3.7-0.1,2.2-1.6C50.8,176.3,49,177.6,49.5,178.9z"/>
		<path class="st0" d="M81.5,179.4c8.8,3.9,5.7-17.8-0.4-18.9C72.1,158.8,77.7,177.7,81.5,179.4z"/>
		<path class="st0" d="M70.6,172.5c-17.2-18.6-9,18.4,2.6,11.8C77.2,182,73.5,175.6,70.6,172.5z"/>
		<path class="st0" d="M97.1,163.5c-6.7-2.8-8.1,16-4,18.7C100.8,187.2,102.2,165.6,97.1,163.5z"/>
		<path class="st0" d="M60.8,165.4c0.5-0.5,0.5-1.4,0-1.9c-0.4-0.4-1.2-0.5-1.7-0.2C57.1,164.3,59.7,166.8,60.8,165.4z"/>
		<path class="st0" d="M96.5,161.3c0.9-0.4,1-1.9,0.1-2.2C94.4,158.6,94.3,161.9,96.5,161.3z"/>
		<path class="st0" d="M79.5,156.1c-0.6-1.4-2.8,0-2.3,1.3C77.9,158.6,80.3,157.6,79.5,156.1z"/>
		<path class="st0" d="M126.2,199.3c-10.3-16.8-11.5,14.1-0.2,15.2C133.4,215.2,129.1,204,126.2,199.3z"/>
		<path class="st0" d="M150.2,213.7c-4.2-11.3-13.3-9.2-15.2,1.2c-8.9-2.7-6.9,11.4-2.1,15.6c4.2,3.6,8.4-2.9,11.2-2.7
			c2-0.2,6,2.1,7.4,1.8C158.3,228.2,160,209.5,150.2,213.7z"/>
		<path class="st0" d="M119.4,190.2c-0.5-1.3-2.6-0.8-2.6,0.6C116.9,192.7,120.3,192.1,119.4,190.2z"/>
		<path class="st0" d="M146.3,203.2c6.8,6.9,11.9-14.4,6.6-17.7C145.2,180.6,143.4,200.2,146.3,203.2z"/>
		<path class="st0" d="M136.8,204.6c4.6-0.6,3.5-7.9,1.9-11.9C129.6,169.1,123.6,206.4,136.8,204.6z"/>
		<path class="st0" d="M156,210c5.3,7.5,14.6-12,10.6-15.9C161.5,189.1,153.2,206,156,210z"/>
		<path class="st0" d="M132.2,182.5c0.7-0.3,1-1.1,0.6-1.8c-0.3-0.5-0.8-0.8-1.4-0.7C129.2,180.1,130.6,183.4,132.2,182.5z"/>
		<path class="st0" d="M166.9,191.9c1,0,1.6-1.4,0.9-2C166,188.6,164.6,191.6,166.9,191.9z"/>
		<path class="st0" d="M153,180.8c0-1.5-2.6-1.1-2.6,0.3C150.6,182.5,153.2,182.5,153,180.8z"/>
	</g>
</g>
</svg>
