<?xml version="1.0" encoding="utf-8"?>
<!-- Generator: Adobe Illustrator 23.1.0, SVG Export Plug-In . SVG Version: 6.00 Build 0)  -->
<svg version="1.1" id="Layer_1" xmlns="http://www.w3.org/2000/svg" xmlns:xlink="http://www.w3.org/1999/xlink" x="0px" y="0px"
	 viewBox="0 0 277.1 277.1" style="enable-background:new 0 0 277.1 277.1;" xml:space="preserve">
<style type="text/css">
	.st0{fill:#818181;}
	.st1{fill:#FFFFFF;}
	.st2{clip-path:url(#SVGID_2_);}
	.st3{fill:url(#SVGID_3_);}
</style>
<title>Asset 8</title>
<g>
	<g id="Layer_1-2">
		<path class="st0" d="M277.1,138.6c0,76.5-62,138.6-138.6,138.6S0,215.1,0,138.6S62,0,138.6,0c0,0,0,0,0,0
			C215.1,0,277.1,62,277.1,138.6"/>
		<path class="st1" d="M268.4,138.6c0,71.7-58.1,129.8-129.8,129.9c-71.7,0-129.8-58.1-129.8-129.8S66.9,8.7,138.6,8.7c0,0,0,0,0,0
			C210.3,8.7,268.4,66.9,268.4,138.6"/>
		<g>
			<defs>
				<path id="SVGID_1_" d="M31.9,201.9c-10,5.5-18.2,13.7-23.8,23.7c-7.4,12.7-9.9,27.7-6.9,42.2c0.4,2,1,4,1.5,6
					c0.3-0.2,0.5-0.5,0.6-0.8c3.7-7.8,8-15.2,12.8-22.4c6-8.8,12.8-16.8,21.4-23.1c1-0.7,2-1.3,3-2c-0.7,0.7-1.5,1.4-2.3,2
					c-4.4,3.7-8.4,7.9-11.8,12.6c-8.2,11.1-14.3,23.5-19.2,36.4c-0.1,0.2-0.1,0.4-0.2,0.7c0.4-0.1,0.7-0.1,1-0.3
					c3.4-1.1,6.8-2.1,10.2-3.4c10-3.8,19.3-9.4,27.5-16.4c9.8-8.6,17.3-19.5,22-31.7c2.7-6.9,5.2-14,7.7-21c0.6-1.5,1-3,1.4-4.6
					c-0.5-0.3-0.9-0.5-1.4-0.7c-5.4-2.6-11.2-3.9-17.2-4h-0.5C48.7,195,39.8,197.4,31.9,201.9"/>
			</defs>
			<clipPath id="SVGID_2_">
				<use xlink:href="#SVGID_1_"  style="overflow:visible;"/>
			</clipPath>
			<g class="st2">
				
					<radialGradient id="SVGID_3_" cx="-2116.0947" cy="-1183.9476" r="0.64" gradientTransform="matrix(50.002 -54.5102 29.6022 27.154 140891.3594 -82966.7266)" gradientUnits="userSpaceOnUse">
					<stop  offset="0" style="stop-color:#EE3541"/>
					<stop  offset="0.36" style="stop-color:#D92E38"/>
					<stop  offset="1" style="stop-color:#AA1E23"/>
				</radialGradient>
				<polygon class="st3" points="-42.6,239.6 34.2,155.8 117.8,232.5 41,316.3 				"/>
			</g>
		</g>
		<path class="st0" d="M176.7,119.2L176.7,119.2c-25.3-3.9-51-3.9-76.3-0.1v0.1c0,14.5-9.9,26.4-22.2,26.6
			c5.1,50,15.4,87,60.3,104.4c44.9-17.4,55.2-54.4,60.3-104.4C186.6,145.5,176.7,133.7,176.7,119.2z"/>
		<path class="st1" d="M138.6,244.5l-0.7-0.3c-18.5-7.7-31.1-19.3-39.6-36.3c-8.7-17.4-12-39.1-14-56l-0.2-1.5l1.4-0.4
			c10.3-3.3,17.8-12.8,19.8-24.9l0.2-1.3l1.3-0.2c21.1-2.7,42.4-2.7,63.4,0l1.3,0.2l0.2,1.3c1.9,12,9.5,21.6,19.8,24.9l1.4,0.4
			l-0.2,1.5c-2,16.9-5.3,38.6-14,56c-8.5,17-21.1,28.6-39.6,36.3L138.6,244.5z M88,152.9c1.9,16.4,5.3,36.9,13.5,53.4
			c8,16,19.8,26.9,37.1,34.3c17.3-7.4,29.1-18.3,37.1-34.3c8.2-16.4,11.6-37,13.5-53.4c-10.5-4-18.2-13.7-20.6-25.9
			c-19.9-2.5-40-2.5-59.9,0C106.2,139.2,98.5,149,88,152.9z"/>
		<polygon class="st1" points="130,198.7 111.2,179.9 115.4,175.6 130,190.2 164.8,155.4 169,159.6 		"/>
	</g>
</g>
</svg>
