<?xml version="1.0" encoding="utf-8"?>
<!-- Generator: Adobe Illustrator 23.1.0, SVG Export Plug-In . SVG Version: 6.00 Build 0)  -->
<svg version="1.1" id="Layer_1" xmlns="http://www.w3.org/2000/svg" xmlns:xlink="http://www.w3.org/1999/xlink" x="0px" y="0px"
	 viewBox="0 0 277.1 277.1" style="enable-background:new 0 0 277.1 277.1;" xml:space="preserve">
<style type="text/css">
	.st0{fill:#818181;}
	.st1{fill:#FFFFFF;}
	.st2{clip-path:url(#SVGID_2_);}
	.st3{fill:url(#SVGID_3_);}
	.st4{fill:#606161;}
	.st5{clip-path:url(#SVGID_5_);}
</style>
<title>Asset 7</title>
<g>
	<g id="Layer_1-2">
		<path class="st0" d="M277.1,138.6c0,76.5-62,138.6-138.6,138.6S0,215.1,0,138.6S62,0,138.5,0c0,0,0,0,0,0
			C215.1,0,277.1,62,277.1,138.6"/>
		<path class="st1" d="M268.4,138.6c0,71.7-58.1,129.8-129.8,129.9c-71.7,0-129.8-58.1-129.8-129.8S66.8,8.7,138.6,8.7c0,0,0,0,0,0
			C210.3,8.7,268.4,66.9,268.4,138.6z"/>
		<g>
			<defs>
				<path id="SVGID_1_" d="M221.6,11.1C211,17,202.3,25.7,196.4,36.2c-7.9,13.5-10.5,29.4-7.3,44.6c0.4,2.2,1.1,4.3,1.6,6.4
					c0.3-0.2,0.5-0.5,0.7-0.9c3.9-8.2,8.5-16.1,13.6-23.7c6.4-9.3,13.5-17.8,22.7-24.4c1-0.8,2.2-1.4,3.2-2.1
					c-0.8,0.8-1.6,1.5-2.5,2.1c-4.7,3.9-8.8,8.4-12.4,13.3c-8.7,11.8-15.1,24.8-20.4,38.5c-0.1,0.2-0.1,0.5-0.2,0.7
					c0.4-0.1,0.8-0.2,1.1-0.3c3.6-1.2,7.2-2.3,10.8-3.7c10.6-4,20.4-9.9,29-17.4c10.4-9.1,18.4-20.6,23.3-33.5
					c2.9-7.4,5.5-14.8,8.1-22.3c0.6-1.6,1-3.2,1.5-4.9c-0.5-0.3-1-0.5-1.5-0.8c-5.7-2.7-11.9-4.2-18.2-4.3H249
					C239.4,3.8,229.9,6.4,221.6,11.1"/>
			</defs>
			<clipPath id="SVGID_2_">
				<use xlink:href="#SVGID_1_"  style="overflow:visible;"/>
			</clipPath>
			<g class="st2">
				
					<radialGradient id="SVGID_3_" cx="-1723.1947" cy="-1228.7074" r="0.67" gradientTransform="matrix(50.002 -54.5102 29.6022 27.154 122760.8906 -60523.2109)" gradientUnits="userSpaceOnUse">
					<stop  offset="0" style="stop-color:#EE3541"/>
					<stop  offset="0.36" style="stop-color:#D92E38"/>
					<stop  offset="1" style="stop-color:#AA1E23"/>
				</radialGradient>
				<polygon class="st3" points="142.6,51 224,-37.7 312.6,43.6 231.2,132.3 				"/>
			</g>
		</g>
		<path class="st4" d="M72.5,123.3c-0.9-0.6-1.7-1.3-2.4-2c-0.9-0.8-1.6-1.6-2.3-2.6c-0.7-1-1.3-2.1-1.7-3.3
			c-0.5-1.3-0.7-2.6-0.7-3.9c0-2.1,0.5-4.2,1.4-6c0.9-1.6,2.1-3.1,3.6-4.3c1.4-1.1,3-1.9,4.7-2.5c1.5-0.5,3.1-0.8,4.8-0.8
			c1.2,0,2.3,0.2,3.4,0.7c2.1,0.8,3.7,2.4,4.6,4.5c0.5,1.1,0.7,2.3,0.7,3.5c0,1.1-0.2,2.1-0.6,3.1c-0.3,0.9-0.8,1.8-1.5,2.6
			c-0.6,0.7-1.3,1.3-2.2,1.7c-0.8,0.4-1.7,0.6-2.6,0.7c-0.9,0-1.7-0.2-2.4-0.7c-0.6-0.4-1-1.1-0.9-1.8c0-1.2,0.8-1.8,2.4-1.8
			c1,0,2.1-0.3,2.9-1c0.7-0.7,1.2-1.6,1.1-2.6c0-0.7-0.1-1.4-0.4-2c-0.3-0.6-0.6-1.2-1.1-1.7c-0.5-0.5-1-0.9-1.7-1.2
			c-0.6-0.3-1.3-0.5-2.1-0.4c-1,0-2.1,0.2-3,0.7c-1.1,0.4-2.1,1.1-3,1.9c-0.9,0.8-1.7,1.9-2.3,3c-0.6,1.3-0.9,2.7-0.9,4.1
			c0,1.7,0.4,3.5,1.3,5c0.8,1.4,1.7,2.7,2.8,3.9c0.9,1,1.8,1.9,2.8,2.8c0.8,0.7,1.3,1.3,1.3,1.7c0,0.5-0.2,1-0.6,1.3
			c-0.4,0.3-0.8,0.5-1.3,0.7c-0.5,0.2-1,0.2-1.5,0.3c-0.4,0-0.8,0.1-1.2,0.2c-1.4,0.3-2.7,0.7-3.9,1.4c-1.2,0.7-2.3,1.5-3.3,2.5
			c-1,1-1.7,2.2-2.3,3.5c-0.6,1.4-0.9,2.8-0.8,4.3c0,0.9,0.2,1.9,0.5,2.8c0.3,0.9,0.8,1.7,1.4,2.4c0.6,0.7,1.2,1.2,2,1.6
			c0.7,0.4,1.5,0.6,2.3,0.6c1.7,0,3.4-0.5,4.8-1.4c1.7-1,3.3-2.3,4.8-3.6c1.6-1.5,3.1-3.1,4.5-4.7c1.4-1.7,2.7-3.3,3.8-4.8
			s2.1-2.8,2.8-3.8c0.4-0.6,0.9-1.3,1.3-1.8c0.2-0.2,0.5-0.4,0.8-0.4c0.5,0,0.7,0.3,0.7,1c0,0.2-0.1,0.5-0.3,0.7
			c-0.2,0.3-0.4,0.7-0.6,1.1c-0.2,0.4-0.4,0.8-0.7,1.1s-0.3,0.6-0.4,0.8c-1.1,1.9-2.5,4-4,6.2c-1.5,2.2-3.3,4.3-5.2,6.1
			c-1.9,1.9-4,3.4-6.3,4.7c-2.2,1.2-4.7,1.9-7.3,1.9c-1.4,0-2.7-0.3-4-0.9c-2.5-1.1-4.4-3.1-5.5-5.6c-0.6-1.3-0.8-2.7-0.8-4.1
			c0-1.8,0.4-3.6,1.1-5.3c0.7-1.6,1.7-3.1,3-4.3c1.3-1.3,2.8-2.4,4.4-3.2C68.9,124.4,70.6,123.7,72.5,123.3z"/>
		<path class="st4" d="M100.7,151.7c-0.8,0.3-1.6,0.4-2.4,0.4H98C98.9,151.8,99.8,151.7,100.7,151.7z"/>
		<path class="st4" d="M98.3,149.2c-1,0-2-0.4-2.8-1.2c-0.9-0.9-1.6-2-2.1-3.3c-0.6-1.7-1.1-3.4-1.3-5.2c-0.3-2.3-0.5-4.7-0.4-7
			c0-2.9,0.2-5.8,0.6-8.6c0.3-2.7,0.9-5.5,1.5-8.2c0.6-2.4,1.4-4.8,2.3-7.2c0.8-2,1.7-3.9,2.9-5.7c0.9-1.4,2-2.7,3.3-3.8
			c1-0.8,2.2-1.3,3.5-1.4c1.1,0,2.2,0.4,3,1.1c0.8,0.7,1.2,2,1.2,4c0,1.1-0.2,2.2-0.4,3.3c-0.3,1.2-0.8,2.4-1.4,3.6
			c-0.7,1.4-1.6,2.8-2.4,4.1c-1,1.5-2.2,3.1-3.6,4.9c-1.3,1.6-2.4,3-3.2,4c-0.8,1-1.6,1.9-2.3,2.8l-0.6,6c0.8,0,1.6-0.2,2.3-0.5
			c0.9-0.4,1.8-0.8,2.6-1.3c0.9-0.5,1.8-1.1,2.7-1.7l2.4-1.7c0.8-0.5,1.4-1,2-1.3c0.4-0.3,0.8-0.4,1.2-0.5c0.3,0,0.4,0.2,0.4,0.6
			c-0.1,0.6-0.3,1.1-0.7,1.5c-0.5,0.7-1.1,1.3-1.7,1.8c-0.7,0.7-1.5,1.3-2.3,1.9c-0.9,0.6-1.8,1.2-2.7,1.6c-0.8,0.5-1.7,0.8-2.6,1.2
			c-0.7,0.3-1.4,0.4-2.2,0.4c0.8,1.2,1.5,2.4,2.2,3.6s1.2,2.3,1.7,3.3c0.4,0.9,0.8,1.9,1.1,2.8c0.2,0.7,0.3,1.4,0.4,2.1
			c0,0.5-0.1,1-0.3,1.5c-0.2,0.5-0.6,0.9-0.9,1.3c-0.4,0.4-0.9,0.7-1.4,0.9C99.4,149.1,98.8,149.2,98.3,149.2z M99.1,144.6
			c0-0.7-0.2-1.4-0.4-2.1c-0.3-0.8-0.6-1.7-1-2.6s-0.8-1.7-1.2-2.6s-0.7-1.5-0.9-2c0,0.1,0,0.3,0,0.4c0,0.1,0,0.2,0,0.4v0.4
			c0,1.1,0.1,2.3,0.3,3.4c0.1,1,0.3,2.1,0.6,3.1c0.2,0.8,0.5,1.5,0.8,2.2c0.3,0.6,0.6,0.9,0.9,0.9s0.4-0.1,0.6-0.4
			C99,145.4,99.1,145,99.1,144.6z M96.9,120.9c1.3-1.5,2.5-3.1,3.7-4.8c1.2-1.7,2.2-3.4,3-5c0.8-1.5,1.5-3,2.1-4.5
			c0.5-1.1,0.7-2.2,0.8-3.4c0-0.9-0.3-1.4-1-1.4c-0.9,0.1-1.8,0.7-2.3,1.5c-1,1.3-1.7,2.6-2.3,4.1c-0.9,2-1.6,4-2.2,6.1
			C97.8,115.8,97.3,118.3,96.9,120.9z"/>
		<path class="st4" d="M114.6,149.2c-1,0-2-0.4-2.8-1.1c-0.9-0.9-1.6-2-2.1-3.3c-0.6-1.7-1.1-3.4-1.3-5.2c-0.3-2.3-0.5-4.7-0.4-7
			c0-2.9,0.2-5.8,0.6-8.6c0.3-2.7,0.9-5.5,1.5-8.2c0.6-2.4,1.4-4.8,2.3-7.2c0.8-2,1.7-3.9,2.9-5.7c0.9-1.4,2-2.7,3.3-3.8
			c1-0.8,2.2-1.3,3.5-1.4c1.1,0,2.2,0.4,3,1.1c0.8,0.7,1.2,2,1.2,4c0,1.1-0.2,2.2-0.4,3.3c-0.3,1.2-0.8,2.4-1.4,3.6
			c-0.7,1.4-1.6,2.8-2.4,4.1c-1,1.5-2.2,3.1-3.6,4.9c-1.3,1.6-2.4,3-3.2,4c-0.8,1-1.6,1.9-2.3,2.8l-0.6,6c0.8,0,1.6-0.2,2.3-0.5
			c0.9-0.4,1.8-0.8,2.6-1.3c0.9-0.5,1.8-1.1,2.7-1.7l2.4-1.7c0.8-0.5,1.4-1,2-1.3c0.4-0.3,0.8-0.4,1.2-0.5c0.3,0,0.4,0.2,0.4,0.6
			c-0.1,0.6-0.3,1.1-0.7,1.5c-0.5,0.7-1.1,1.3-1.7,1.8c-0.7,0.7-1.5,1.3-2.3,1.9c-0.9,0.6-1.8,1.2-2.7,1.6c-0.8,0.5-1.7,0.8-2.6,1.2
			c-0.7,0.3-1.4,0.4-2.2,0.4c0.8,1.2,1.5,2.4,2.2,3.6s1.2,2.3,1.7,3.3c0.4,0.9,0.8,1.9,1.1,2.8c0.2,0.7,0.3,1.4,0.4,2.1
			c0,0.5-0.1,1-0.3,1.5c-0.2,0.5-0.6,0.9-1,1.3c-0.4,0.4-0.9,0.7-1.4,0.9C115.6,149.1,115.1,149.2,114.6,149.2z M115.4,144.6
			c0-0.7-0.2-1.4-0.4-2.1c-0.3-0.8-0.6-1.7-1-2.6s-0.8-1.7-1.2-2.6s-0.7-1.5-0.9-2c0,0.1,0,0.3,0,0.4c0,0.1,0,0.2,0,0.4v0.4
			c0,1.1,0.1,2.3,0.3,3.4c0.1,1,0.3,2.1,0.6,3.1c0.2,0.8,0.5,1.5,0.8,2.2c0.3,0.6,0.6,0.9,0.9,0.9s0.4-0.1,0.6-0.4
			C115.3,145.4,115.4,145,115.4,144.6z M113.2,120.9c1.3-1.5,2.5-3.1,3.7-4.8c1.2-1.7,2.2-3.4,3-5c0.8-1.5,1.5-3,2.1-4.5
			c0.5-1.1,0.7-2.2,0.8-3.4c0-0.9-0.3-1.4-1-1.4c-0.9,0.1-1.8,0.7-2.3,1.5c-1,1.3-1.7,2.6-2.3,4.1c-0.9,2-1.6,4-2.2,6.1
			C114.1,115.8,113.6,118.3,113.2,120.9z"/>
		<path class="st4" d="M128.9,135.2c-0.7,0-1.5-0.2-2.1-0.6c-0.6-0.4-1.2-0.9-1.6-1.4c-0.4-0.6-0.8-1.2-1-1.9
			c-0.2-0.6-0.4-1.3-0.4-2c0-1.3,0.2-2.5,0.5-3.7c0.3-1.3,0.9-2.5,1.6-3.7c0.7-1.1,1.5-2.1,2.6-2.8c1-0.8,2.3-1.2,3.6-1.2
			c1.5-0.2,2.8,0.8,3,2.3c0,0.2,0,0.5,0,0.7c0,0.9-0.2,1.8-0.6,2.6c-0.4,0.9-0.9,1.8-1.5,2.5c-0.6,0.8-1.4,1.4-2.2,1.9
			c-0.8,0.5-1.6,0.8-2.5,0.9v0.3c0,0.3,0,0.7,0.1,1c0.1,0.4,0.2,0.7,0.4,1.1c0.2,0.3,0.4,0.6,0.7,0.8c0.3,0.2,0.6,0.3,1,0.3
			c0.8-0.1,1.6-0.4,2.3-1c0.9-0.7,1.7-1.4,2.4-2.3c0.8-0.9,1.5-1.8,2.1-2.7c0.6-0.9,1.1-1.6,1.4-2.1c0.4,0,0.8,0.2,1,0.5
			c0,0.1,0,0.3,0,0.4c0,1.1-0.4,2.3-1,3.2c-0.7,1.2-1.5,2.3-2.5,3.2c-1,1-2.2,1.8-3.5,2.5C131.5,134.8,130.2,135.1,128.9,135.2z
			 M132.6,121.5c0-0.2,0-0.5-0.1-0.7c0-0.2-0.2-0.4-0.5-0.4c0,0,0,0,0,0c-0.5,0.1-1,0.4-1.3,0.8c-0.4,0.6-0.8,1.2-1.1,1.9
			c-0.3,0.7-0.6,1.4-0.8,2.2c-0.2,0.5-0.3,1-0.4,1.6c0.5-0.1,1-0.3,1.3-0.7c0.5-0.5,0.9-1,1.3-1.5c0.4-0.6,0.7-1.1,1-1.8
			C132.3,122.4,132.5,122,132.6,121.5z"/>
		<path class="st4" d="M142.4,138.4c-1.4,0-2.8-0.7-3.5-2c-0.9-1.6-1.4-3.5-1.3-5.4c0-1.5,0.2-3,0.5-4.4c0.3-1.6,0.9-3.1,1.6-4.5
			c0.7-1.3,1.6-2.5,2.8-3.5c1.1-0.9,2.5-1.4,4-1.4c1.1,0,2.2,0.4,3,1.2c0.8,0.8,1.3,1.9,1.2,3c0,0.5-0.1,0.9-0.2,1.4
			c-0.1,0.5-0.3,1-0.5,1.4c-0.2,0.4-0.4,0.8-0.8,1.1c-0.3,0.3-0.7,0.4-1.1,0.4c-0.4,0-0.7-0.1-0.8-0.4c-0.1-0.3-0.2-0.7-0.1-1
			c0-0.4,0.1-0.9,0.2-1.3c0.1-0.4,0.2-0.9,0.2-1.3c0-0.4-0.1-0.8-0.3-1.1c-0.1-0.2-0.4-0.4-0.7-0.4c-0.6,0-1.3,0.5-1.9,1.5
			c-0.7,1.1-1.3,2.3-1.7,3.5c-0.5,1.3-0.9,2.7-1.2,4.1c-0.3,1.1-0.4,2.2-0.4,3.3c0,0.8,0.2,1.6,0.6,2.4c0.3,0.5,0.8,0.9,1.4,0.9
			c0.7,0,1.3-0.3,1.8-0.7c0.7-0.5,1.4-1.1,1.9-1.8c0.7-0.7,1.3-1.5,2-2.4l1.9-2.6l1.8-2.3c0.4-0.6,0.9-1.1,1.5-1.6
			c0.3,0,0.5,0.1,0.7,0.3c0.2,0.2,0.3,0.4,0.3,0.7c0,0.3-0.1,0.5-0.3,0.8c-0.2,0.4-0.4,0.8-0.6,1.3s-0.5,0.9-0.7,1.3l-0.5,0.9
			c-0.6,1-1.2,2-1.9,2.9c-0.8,1-1.6,2-2.6,2.8c-0.9,0.8-1.9,1.6-3,2.1C144.8,138.1,143.7,138.4,142.4,138.4z"/>
		<path class="st4" d="M162.4,105.8c0.4,0,0.7,0.1,1,0.4c0.3,0.2,0.5,0.6,0.5,1c0,0.5-0.2,1-0.5,1.4c-0.3,0.6-0.6,1.1-0.8,1.7
			s-0.6,1.4-0.9,2.2s-0.6,1.6-0.9,2.5h2.8h2.8c0.3,0,0.7,0.1,0.9,0.4c0.2,0.3,0.3,0.6,0.3,0.9c0,0.3-0.2,0.6-0.5,0.7
			c-0.4,0.1-0.8,0.2-1.2,0.3c-0.4,0.1-0.9,0.1-1.3,0.1h-3.3H160c-0.8,2.5-1.4,5.1-1.9,7.7c-0.4,2.4-0.7,4.8-0.7,7.2
			c0,0.3,0,0.7,0,1.3c0,0.6,0.1,1.2,0.2,1.8c0.1,0.5,0.3,1.1,0.6,1.6c0.2,0.4,0.7,0.7,1.2,0.6c0.7-0.1,1.2-0.5,1.6-1
			c0.7-0.8,1.3-1.6,1.8-2.4c0.6-1,1.3-2,1.9-3.1s1.2-2.1,1.8-3.1s1-1.8,1.4-2.4s0.8-1,1-1c0.3,0,0.5,0.1,0.7,0.3
			c0.2,0.2,0.3,0.4,0.2,0.7c-0.1,0.8-0.4,1.6-0.7,2.3c-0.4,1-0.9,2-1.5,3.2s-1.3,2.3-2.1,3.4c-0.7,1.1-1.5,2.1-2.4,3.1
			c-0.7,0.8-1.5,1.6-2.3,2.3c-0.6,0.5-1.3,0.8-2.1,0.9c-1,0-2.1-0.3-2.9-1c-0.7-0.7-1.3-1.5-1.7-2.4c-0.4-1-0.7-2-0.8-3.1
			c-0.1-1-0.2-1.9-0.2-2.9c0-2.3,0.2-4.6,0.7-6.8c0.5-2.3,1.1-4.6,1.8-6.9h-1.3c-0.4,0-0.7-0.1-1.1-0.3c-0.3-0.2-0.5-0.5-0.5-0.9
			c0-0.2,0.1-0.5,0.3-0.6c0.2-0.1,0.4-0.3,0.6-0.3c0.2-0.1,0.5-0.1,0.8-0.2h0.6h1.4c0.3-0.8,0.6-1.7,0.9-2.4s0.6-1.6,0.9-2.3
			s0.5-1.3,0.8-1.8c0.2-0.5,0.5-1,0.9-1.4c0.3-0.4,0.7-0.7,1.1-0.9C161.4,105.8,161.9,105.7,162.4,105.8z"/>
		<path class="st4" d="M171.7,135.9c-0.7,0-1.3-0.2-1.7-0.7c-0.5-0.5-0.8-1.1-1-1.8c-0.2-0.7-0.4-1.4-0.5-2.1
			c-0.1-0.6-0.1-1.3-0.1-1.9c0-1.2,0.1-2.3,0.3-3.5c0.2-1.2,0.5-2.4,0.9-3.5c0.3-1,0.8-1.9,1.4-2.7c0.4-0.6,1-1,1.8-1.1
			c0.5,0,1,0.1,1.4,0.3c0.4,0.2,0.5,0.6,0.5,1.3c0,0.6-0.1,1.2-0.4,1.7c-0.3,0.6-0.5,1.3-0.8,2.1c-0.3,0.9-0.6,1.9-0.8,2.8
			c-0.3,1.3-0.4,2.6-0.4,3.9c0,0.3,0.1,0.7,0.1,1c0.1,0.4,0.3,0.6,0.7,0.6s0.5-0.2,0.9-0.6c0.4-0.5,0.8-1,1.2-1.5
			c0.4-0.6,0.9-1.2,1.4-1.9c0.5-0.7,0.9-1.3,1.4-1.9c0.4-0.5,0.8-1,1.3-1.5c0.3-0.3,0.7-0.5,1.1-0.6c0.3,0,0.4,0.1,0.5,0.2
			c0.1,0.2,0.1,0.4,0.1,0.6c0,0.6-0.2,1.1-0.4,1.7c-0.3,0.8-0.7,1.5-1.2,2.3c-0.5,0.8-1.1,1.6-1.7,2.4c-0.6,0.8-1.3,1.5-2,2.2
			c-0.6,0.6-1.3,1.1-2,1.6C172.9,135.6,172.3,135.8,171.7,135.9z M173.7,115.9c-0.6,0-1.1-0.3-1.4-0.8c-0.3-0.5-0.5-1-0.5-1.6
			c0-0.4,0.1-0.8,0.1-1.2c0.1-0.4,0.3-0.7,0.5-1.1c0.2-0.3,0.5-0.6,0.9-0.8c0.4-0.2,0.8-0.3,1.3-0.3c0.5-0.1,1.1,0.3,1.3,0.8
			c0.2,0.5,0.3,1,0.3,1.5c0,0.4-0.1,0.8-0.1,1.2c-0.1,0.4-0.3,0.8-0.5,1.1c-0.2,0.3-0.5,0.6-0.8,0.8
			C174.5,115.8,174.1,115.9,173.7,115.9L173.7,115.9z"/>
		<path class="st4" d="M179.1,127.5c0-0.4,0-1.2,0.1-2.3c0.1-1.1,0.2-2.3,0.4-3.4c0.2-1.1,0.5-2.1,0.8-3.1c0.4-0.9,0.8-1.3,1.4-1.3
			c0.5,0,0.9,0.1,1.2,0.5c0.3,0.3,0.4,0.8,0.5,1.2c0.1,0.5,0.1,1,0.1,1.4c0,0.5,0,0.9,0,1.3v1.5l-0.1,2.9v3c0,0.8,0,1.6,0.1,2.5
			c0,0.8,0.1,1.6,0.3,2.3c0.1,0.7,0.4,1,0.6,1s0.6-0.3,1-0.8c0.4-0.6,0.8-1.2,1.2-1.9c0.4-0.8,0.8-1.6,1.3-2.5s0.8-1.8,1.1-2.7
			s0.6-1.6,0.9-2.3c0.2-0.5,0.3-1,0.4-1.5c0.1-0.5,0.1-1.1,0.1-1.6v-1.2l0.1-2.2c0-0.5,0-1,0-1.6c0-0.6,0.1-1.2,0.3-1.7
			c0.2-0.5,0.4-1,0.8-1.3c0.4-0.4,1-0.6,1.6-0.6c0.4,0,0.8,0.1,1.1,0.3c0.3,0.2,0.5,0.4,0.7,0.7c0.2,0.3,0.3,0.6,0.3,1
			c0,0.4,0.1,0.8,0.1,1.2c0,0.6-0.1,1.1-0.2,1.7c-0.1,0.6-0.2,1.1-0.4,1.7s-0.3,1.1-0.4,1.7c-0.1,0.5-0.2,1.1-0.2,1.6
			c0,0.5,0.1,0.9,0.4,1.4c0.2,0.4,0.5,0.8,0.9,1.2c0.4,0.4,0.8,0.6,1.3,0.8c0.5,0.2,1,0.3,1.5,0.3c0.4,0,0.8-0.1,1.3-0.2
			c0.5-0.1,0.9-0.3,1.4-0.5c0.4-0.2,0.9-0.4,1.3-0.7c0.3-0.2,0.6-0.5,0.9-0.8c0.1-0.2,0.3-0.3,0.6-0.3c0.2,0,0.3,0,0.4,0.2
			c0.1,0.1,0.2,0.3,0.2,0.5c-0.1,0.6-0.3,1.2-0.8,1.6c-0.6,0.6-1.2,1.1-1.9,1.6c-0.7,0.5-1.5,0.9-2.3,1.2c-0.6,0.3-1.2,0.4-1.9,0.5
			c-0.5,0-1-0.1-1.5-0.2c-0.5-0.1-1-0.3-1.5-0.6c-0.5-0.2-0.9-0.5-1.4-0.9c-0.4-0.3-0.7-0.6-1-1.1c-0.3,0.8-0.7,1.9-1.3,3.1
			c-0.6,1.2-1.2,2.4-1.9,3.6c-0.7,1.1-1.5,2-2.4,2.9c-0.6,0.7-1.6,1.2-2.6,1.2c-1,0.1-2.1-0.4-2.8-1.1c-0.7-0.8-1.2-1.8-1.5-2.8
			c-0.3-1.1-0.5-2.3-0.6-3.5C179.1,129.4,179.1,128.3,179.1,127.5z"/>
		<path class="st4" d="M207.6,135.2c-0.7,0-1.5-0.2-2.1-0.6c-0.6-0.4-1.2-0.9-1.6-1.4c-0.4-0.6-0.8-1.2-1-1.9
			c-0.2-0.6-0.4-1.3-0.4-2c0-1.3,0.2-2.5,0.5-3.7c0.3-1.3,0.9-2.5,1.6-3.7c0.6-1.1,1.5-2.1,2.5-2.9c1-0.8,2.3-1.2,3.6-1.2
			c2,0,3,1,3,3c0,0.9-0.2,1.8-0.6,2.6c-0.4,0.9-0.9,1.8-1.5,2.5c-0.6,0.8-1.3,1.4-2.2,1.9c-0.8,0.5-1.6,0.8-2.5,0.9v0.3
			c0,0.3,0,0.7,0.1,1c0.1,0.4,0.2,0.7,0.4,1.1c0.2,0.3,0.4,0.6,0.7,0.8c0.3,0.2,0.6,0.3,1,0.3c0.8-0.1,1.7-0.4,2.3-1
			c0.9-0.7,1.7-1.4,2.4-2.3c0.7-0.9,1.4-1.7,2.1-2.7c0.6-0.9,1.1-1.6,1.4-2.1c0.4,0,0.7,0.2,0.9,0.5c0,0.1,0.1,0.3,0.1,0.4
			c0,1.1-0.4,2.3-1,3.2c-0.7,1.2-1.5,2.3-2.5,3.2c-1,1-2.2,1.8-3.5,2.5C210.1,134.7,208.9,135.1,207.6,135.2z M211.2,121.5
			c0-0.2,0-0.5-0.1-0.7c0-0.2-0.2-0.4-0.5-0.4c0,0,0,0,0,0c-0.5,0.1-1,0.4-1.3,0.8c-0.4,0.6-0.8,1.2-1.1,1.9
			c-0.3,0.7-0.6,1.4-0.8,2.2c-0.2,0.5-0.3,1-0.4,1.6c0.5-0.1,1-0.3,1.3-0.7c0.5-0.5,0.9-1,1.3-1.5c0.4-0.6,0.8-1.2,1.1-1.8
			C211,122.4,211.2,122,211.2,121.5z"/>
		<g>
			<defs>
				<path id="SVGID_4_" d="M268.4,138.6c0,71.7-58.1,129.8-129.8,129.9c-71.7,0-129.8-58.1-129.8-129.8S66.8,8.7,138.6,8.7
					c0,0,0,0,0,0C210.3,8.7,268.4,66.9,268.4,138.6z"/>
			</defs>
			<clipPath id="SVGID_5_">
				<use xlink:href="#SVGID_4_"  style="overflow:visible;"/>
			</clipPath>
			<g class="st5">
				<path class="st0" d="M93.9,150.6c-0.7,0.6-1.3,1.3-1.8,2c-1.8,2.5-3.5,5-5.3,7.5l-3.8,5.4l-3.4-1.6c0.1-0.3,0.1-0.6,0.2-0.8
					c2.2-7,4.4-14,6.6-21l0,0c0.9-1,1.7-2,2.5-3c0,0.3,0.1,0.5,0.1,0.8c0.3,2,0.8,4,1.5,5.9c0.6,1.6,1.6,3.1,2.8,4.4
					C93.6,150.4,93.8,150.5,93.9,150.6z"/>
				<path class="st0" d="M106.3,118.8c-0.3,1.3-0.5,2.6-0.7,4c-0.4,0.3-0.9,0.6-1.4,0.9l-2.4,1.7c-0.8,0.6-1.6,1.1-2.4,1.5v-0.4
					c0.5-0.7,1-1.3,1.7-2c0.9-1,2-2.4,3.3-4l1.1-1.4L106.3,118.8z"/>
				<path class="st0" d="M182.9,170.9c-1.8,0.2-3.6-0.2-5.2-1.1l-31.8-18.6l-3.8-2.2l-0.8,1l0.9,0.6l31.1,18.1
					c0.3,0.2,0.6,0.4,1,0.6c3.5,2.1,4.6,6.5,2.5,10c-2,3.4-6.4,4.6-9.9,2.6c-3-1.7-6-3.5-9-5.2l-25-14.6l-0.7-0.4l-0.7,0.9
					c0.3,0.2,0.6,0.4,0.9,0.6l29.5,17.2c0.4,0.2,0.8,0.5,1.2,0.8c3.4,2.2,4.3,6.7,2.1,10.1c-1.2,1.7-3,2.9-5.1,3.2
					c-1.5,0.3-3.1,0-4.5-0.8c-3-1.7-5.9-3.4-8.8-5.1c-0.1-0.1-0.1-0.1-0.2-0.2c0.9-2.9,0.4-6.1-1.6-8.5c-1.9-2.4-4.9-3.7-8-3.4
					c0-5.9-4.8-10.6-10.7-10.6c-0.4,0-0.7,0-1.1,0.1c-0.1-5.9-5-10.5-10.9-10.4c-1.4,0-2.8,0.3-4.1,0.9c-0.1-0.3-0.2-0.5-0.3-0.8
					c-0.8-2.9-2.9-5.3-5.7-6.4c0.3-0.4,0.5-0.7,0.7-1.1c0.4-0.9,0.7-1.8,0.7-2.8c0-1-0.2-2-0.5-2.9c0-0.1,0-0.2-0.1-0.3l0.9,0.6
					c0.2,1.1,0.6,2.3,1,3.3c0.6,1.6,1.6,3.1,2.8,4.4c1.3,1.2,3,1.9,4.8,1.9c1,0,1.9-0.2,2.8-0.6c0.8-0.3,1.6-0.8,2.2-1.4
					c0.7-0.6,1.2-1.4,1.6-2.2c0.4-0.9,0.7-1.8,0.7-2.8c0-0.1,0-0.3,0-0.5c3.1-1.3,5.7-3.4,7.6-6.1c0.1-0.1,0.2-0.3,0.3-0.4
					c1.5-0.1,3-0.6,4.3-1.3c0.5-0.2,1-0.5,1.4-0.8c0.2,0.7,0.5,1.3,0.9,1.9c1.3,2.1,3.6,3.4,6.1,3.4c1.7,0,3.3-0.4,4.8-1.2
					c1.3-0.7,2.6-1.6,3.7-2.6l0.2-0.2l0,0c0.1,0.3,0.2,0.6,0.3,0.8c0.5,1.3,1.4,2.5,2.5,3.5c1.3,1.2,3.1,1.8,4.9,1.8
					c0.7,0,1.4-0.1,2.1-0.4c8.1,4.7,16.2,9.4,24.3,14.1c3.6,1.9,5,6.3,3.1,9.9C187.1,169.2,185.1,170.6,182.9,170.9L182.9,170.9z"/>
				<path class="st0" d="M77,117.9c0.8,0.8,1.6,1.6,2.4,2.3c1.1,0.9,2.3,2.2,2.3,4c0,1.4-0.6,2.8-1.8,3.6c-0.7,0.5-1.5,0.9-2.3,1.2
					c-0.7,0.2-1.5,0.4-2.2,0.4c-0.2,0-0.4,0-0.6,0.1h-0.2c-2.1,0.4-4.1,1.4-5.6,3c-0.7,0.8-1.3,1.6-1.7,2.6c-0.4,1-0.6,2-0.6,3.1
					c0,0.6,0.1,1.2,0.3,1.7c0.2,0.5,0.5,1,0.8,1.5c0.3,0.4,0.7,0.7,1.1,0.9c0.3,0.2,0.6,0.2,0.9,0.2c1.2,0,2.3-0.4,3.3-1
					c1.6-0.9,3-2,4.3-3.3c1.5-1.4,2.9-2.9,4.3-4.4c1-1.2,2-2.4,2.8-3.5l2.9-9.2L77,117.9z M77.7,149.3c-2.7,1.5-5.7,2.2-8.7,2.3
					c-1.8,0-3.6-0.4-5.3-1.1c-3.1-1.4-5.6-4-7-7.1c-0.7-1.7-1.1-3.4-1.1-5.2c0-2.2,0.4-4.5,1.3-6.5c0.9-1.9,2.1-3.7,3.6-5.2
					c1.5-1.5,3.3-2.8,5.2-3.8l0.9-0.4c-0.5-0.6-0.9-1.1-1.4-1.7c-0.8-1.2-1.5-2.5-2-3.9c-0.4-1-0.6-2.1-0.8-3.2l-18.1-5.7l-42-16.8
					l-2.4,63l44.3,15.1L70,177c3-9.4,6-18.9,8.9-28.3C78.5,148.9,78.1,149.1,77.7,149.3L77.7,149.3z M62,168.6
					c-1.8,0.1-3.3-1.3-3.4-3.1c-0.1-1.8,1.3-3.3,3.1-3.4c0.1,0,0.2,0,0.4,0c1.8-0.1,3.3,1.3,3.4,3.1s-1.3,3.3-3.1,3.4
					C62.2,168.6,62.1,168.6,62,168.6z"/>
				<path class="st0" d="M125.3,137.2L125.3,137.2c-1.2,1.4-2.7,2.6-4.4,3.5c-0.2-0.5-0.4-1.1-0.7-1.6c-0.5-1.1-1.1-2.3-1.8-3.5
					l-0.2-0.4c0.5-0.2,1.1-0.5,1.6-0.8s1.3-0.7,2-1.1C122.6,134.9,123.8,136.2,125.3,137.2L125.3,137.2z"/>
				<path class="st0" d="M145.5,127.7c0.5,0.5,1.1,0.8,1.8,0.9l-0.4,0.5c-0.1,0.1-0.2,0.3-0.3,0.4c-0.5-0.2-1-0.3-1.5-0.3
					C145.2,128.7,145.3,128.2,145.5,127.7z"/>
				<path class="st0" d="M147.1,108.3l7.7,2.3c-0.1,0.3-0.2,0.5-0.3,0.8l-0.2,0.5h-0.1c-0.5,0-1.1,0.1-1.6,0.3
					c-0.5,0.2-1,0.5-1.5,0.8c-0.6,0.5-1.1,1.2-1.3,2c-1.1-0.5-2.2-0.8-3.4-0.8c-2.2,0-4.2,0.7-5.9,2.1c-1,0.9-1.9,1.9-2.7,3
					c-0.6-2.8-2.8-4.5-5.9-4.5c-1.9,0-3.8,0.6-5.3,1.7c-1.4,1-2.5,2.3-3.4,3.7c-0.4,0.7-0.8,1.5-1.2,2.3l-1.6,1.1l-2.4,1.7
					c-0.8,0.6-1.6,1.1-2.4,1.5v-0.4c0.5-0.7,1-1.3,1.7-2c0.9-1,2-2.4,3.3-4c1.4-1.8,2.7-3.6,3.7-5.1c0.8-1.2,1.5-2.3,2.1-3.3l0,0
					c5.5-1.3,11-2.6,16.4-3.9C144.2,107.8,145.7,107.9,147.1,108.3z"/>
				<path class="st0" d="M166.7,121.3c-0.1,0.4-0.2,0.8-0.4,1.1c-0.4,0.4-0.7,0.8-1,1.2c-0.4,0.7-1,1.5-1.5,2.6s-1.1,2-1.8,3.2
					c-0.5,0.9-1.1,1.8-1.6,2.7c0-2.2,0.2-4.5,0.6-6.7c0.3-1.8,0.7-3.6,1.2-5.3h2.2c0.6,0,1.2,0,1.8-0.1c0.4,0,0.8-0.1,1.1-0.2
					C167.1,120.3,166.9,120.8,166.7,121.3z"/>
				<path class="st0" d="M177.3,118.3c-0.1-0.2-0.2-0.5-0.3-0.7c0.1-0.1,0.3-0.2,0.4-0.3l0.3,0.1c0,0.1,0,0.1-0.1,0.2
					C177.5,117.8,177.4,118.1,177.3,118.3z"/>
				<path class="st0" d="M198.5,164.9c-1.9,0.1-3.7,0.2-5.6,0.1c0.2-1.3,0.1-2.7-0.2-4c-0.5-1.8-1.3-3.5-2.5-5
					c-0.2-0.3-0.5-0.5-0.9-0.7c-5.5-3.4-11.1-6.7-16.6-10.1l-8.2-5c0.3-0.3,0.6-0.6,0.9-1c0.7-0.8,1.3-1.6,2-2.5
					c0.1,0.1,0.2,0.3,0.3,0.4c1,1.1,2.4,1.7,3.9,1.7c1.2,0,2.4-0.4,3.3-1.1c0.8-0.5,1.6-1.1,2.3-1.8c0.4,1.1,1,2.1,1.8,2.9
					c1.3,1.4,3.1,2.2,5,2.2c1.8,0,3.4-0.8,4.6-2.1c0.4-0.4,0.8-0.8,1.1-1.2c2.8,8.8,5.5,17.5,8.3,26.3
					C198.3,164.2,198.4,164.5,198.5,164.9z"/>
				<path class="st0" d="M113.8,158.9c-2.1,0.2-3.9,1.4-5.1,3.1l-7.9,11.3c-0.4,0.6-0.8,1.1-1.2,1.7c-1.4,2.2-1.5,5-0.2,7.2
					c1.1,2.1,3.2,3.5,5.6,3.7c2.6,0.2,5-1,6.5-3.1c3-4.2,5.9-8.4,8.8-12.6c2.3-3.2,1.6-7.7-1.7-10
					C117.4,159.1,115.6,158.7,113.8,158.9z M119.2,167.6c-1,1.5-2,3-3.1,4.5l-7.4-5.2c0.2-0.3,0.3-0.5,0.4-0.7
					c0.8-1.1,1.5-2.3,2.4-3.4c1.4-2,4.3-2.5,6.3-1c1,0.7,1.6,1.8,1.8,2.9C119.8,165.8,119.7,166.7,119.2,167.6z"/>
				<path class="st0" d="M133.6,175.4c0-0.2,0-0.3-0.1-0.5c-0.8-3.9-4.6-6.4-8.5-5.6c-1.8,0.4-3.3,1.4-4.4,2.9
					c-0.5,0.7-1,1.4-1.5,2.1c-2.4,3.5-4.9,7-7.4,10.5c-1.2,1.6-1.6,3.6-1.3,5.5c0.4,2.8,2.6,5.1,5.4,5.7c2.8,0.8,5.8-0.3,7.4-2.7
					c3.1-4.3,6.1-8.7,9.2-13c0.8-1.2,1.2-2.6,1.2-4C133.6,176.1,133.6,175.8,133.6,175.4z M130.9,178.2c-0.9,1.4-1.9,2.8-3,4.3
					l-7.3-5.1c0.1-0.2,0.2-0.4,0.3-0.6c0.8-1.2,1.6-2.4,2.5-3.5c1.5-2,4.3-2.4,6.3-1c0.3,0.2,0.5,0.4,0.7,0.7
					C131.7,174.4,131.9,176.5,130.9,178.2L130.9,178.2z"/>
				<path class="st0" d="M104.2,152.9c-1-0.7-2.2-1.1-3.5-1.2l0,0c-0.9-0.1-1.8,0.1-2.7,0.4l0,0c-1.2,0.5-2.3,1.3-3,2.3
					c-2.8,4-5.6,8-8.4,12c-0.7,1.1-1.1,2.3-1.2,3.6c-0.1,2.9,1.7,5.4,4.4,6.4c2.7,1,5.8,0.1,7.6-2.3c2.9-4,5.7-8,8.5-12.1
					C107.9,159.1,107.1,155,104.2,152.9z M104.6,159.7c-0.8,1.5-1.9,2.9-2.9,4.4l-6.9-4.8c1-1.4,1.8-2.6,2.7-3.9
					c1.3-1.7,3.7-2.1,5.5-1C104.9,155.4,105.6,157.8,104.6,159.7z"/>
				<path class="st0" d="M141.2,180.8c-2.5-1.8-6.1-1.3-7.9,1.3c-2.5,3.4-4.9,7-7.3,10.4c-0.6,0.9-1,2-0.9,3.1
					c0,3.2,2.6,5.7,5.7,5.7c1.7,0,3.4-0.8,4.5-2.1c0.6-0.8,1.2-1.7,1.8-2.5c1.9-2.7,3.8-5.4,5.6-8.1
					C144.4,186.1,143.8,182.6,141.2,180.8z M141.4,187c-0.7,1.1-1.5,2.2-2.2,3.2c-2.1-1.2-4.1-2.6-5.9-4.1c0.8-1.2,1.6-2.4,2.6-3.5
					c1.2-1.3,3.3-1.5,4.8-0.4C142,183.4,142.4,185.4,141.4,187z"/>
				<path class="st0" d="M146.1,189.6l-7.7,11c1.3,0.8,2.7,1.5,4.1,2.2c2.9,1.2,6.3,0.1,8-2.6c1.7-2.7,1.3-6.2-1-8.4
					C148.5,190.9,147.3,190.2,146.1,189.6z"/>
				<path class="st0" d="M273.5,86.2L232.8,105l-34.2,10.8c0,0.2,0,0.4,0,0.7c0,0.8-0.1,1.5-0.2,2.3c-0.1,0.6-0.3,1.2-0.4,1.8
					s-0.3,1.1-0.4,1.6c-0.1,0.3-0.1,0.7-0.1,1c0.1,0.1,0.2,0.3,0.3,0.4c0.1,0.1,0.3,0.2,0.4,0.3c0.1,0,0.2,0.1,0.3,0.1
					c0.1,0,0.3,0,0.4-0.1c0.3-0.1,0.6-0.2,0.9-0.3c0.3-0.1,0.6-0.3,0.9-0.5l0,0c0.3-0.9,0.8-1.8,1.3-2.6c0.9-1.4,2-2.7,3.4-3.7
					c1.5-1.2,3.4-1.8,5.3-1.7c3.1-0.2,5.8,2.1,6,5.3c0,0.2,0,0.5,0,0.7c0,0.2,0,0.3,0,0.4h0.6c1.3,0,2.5,0.6,3.3,1.7l0.3,0.4
					l0.2,0.5c0.1,0.4,0.2,0.9,0.2,1.3c0,1.7-0.5,3.3-1.4,4.7c-0.8,1.4-1.9,2.8-3.1,3.9c-1.2,1.2-2.6,2.2-4.2,3
					c-1.6,0.9-3.3,1.3-5.1,1.3c-1.3,0-2.6-0.3-3.7-1c-0.9-0.6-1.7-1.3-2.4-2.2c-0.6-0.8-1.1-1.7-1.4-2.6c-0.8,0.3-1.6,0.5-2.4,0.5
					c-0.8,0-1.5-0.1-2.2-0.3c-0.5-0.1-1.1-0.3-1.6-0.6c4.5,14.1,8.9,28.3,13.4,42.4l25.6-8.1l42.7-14.6L273.5,86.2z M215.1,166
					c-1.8,0-3.2-1.4-3.3-3.2c0,0,0-0.1,0-0.1c0-1.8,1.4-3.2,3.1-3.2c0,0,0,0,0,0c1.8,0,3.2,1.4,3.3,3.2
					C218.4,164.5,216.9,166,215.1,166L215.1,166L215.1,166z"/>
			</g>
		</g>
	</g>
</g>
</svg>
