<svg xmlns="http://www.w3.org/2000/svg" xmlns:xlink="http://www.w3.org/1999/xlink" viewBox="0 0 428.78 589.17"><defs><style>.cls-1{fill:none;}.cls-2{fill:#f5f5f5;}.cls-3{clip-path:url(#clip-path);}.cls-4{fill:url(#radial-gradient);}.cls-5{clip-path:url(#clip-path-2);}.cls-6{fill:url(#radial-gradient-2);}.cls-7{clip-path:url(#clip-path-3);}.cls-8{fill:url(#radial-gradient-3);}.cls-9{clip-path:url(#clip-path-4);}.cls-10{fill:url(#radial-gradient-4);}.cls-11{clip-path:url(#clip-path-5);}.cls-12{fill:url(#radial-gradient-5);}.cls-13{clip-path:url(#clip-path-6);}.cls-14{fill:url(#radial-gradient-6);}.cls-15{clip-path:url(#clip-path-7);}.cls-16{fill:url(#radial-gradient-7);}.cls-17{clip-path:url(#clip-path-8);}.cls-18{fill:url(#radial-gradient-8);}.cls-19{clip-path:url(#clip-path-9);}.cls-20{fill:url(#radial-gradient-9);}.cls-21{clip-path:url(#clip-path-10);}.cls-22{clip-path:url(#clip-path-11);}.cls-23{clip-path:url(#clip-path-12);}.cls-24{fill:url(#radial-gradient-10);}.cls-25{clip-path:url(#clip-path-13);}.cls-26{fill:url(#radial-gradient-11);}.cls-27{clip-path:url(#clip-path-14);}.cls-28{fill:url(#radial-gradient-12);}.cls-29{clip-path:url(#clip-path-15);}.cls-30{fill:url(#radial-gradient-13);}.cls-31{clip-path:url(#clip-path-16);}.cls-32{fill:url(#radial-gradient-14);}.cls-33{clip-path:url(#clip-path-17);}.cls-34{fill:url(#radial-gradient-15);}</style><clipPath id="clip-path"><path class="cls-1" d="M301.4,230.36a3,3,0,0,1-1.6-1.56,3,3,0,0,1,0-2.25,2.93,2.93,0,1,1,3.88,3.79,2.9,2.9,0,0,1-1.16.24,2.83,2.83,0,0,1-1.09-.22m-35.18-8.85-13.33-10.77,5.4-13.47,13,10.49a1.42,1.42,0,0,0,.79.32l16.63,1.38-5.39,13.47Zm24.69-14.8-18.16-1.5-14.17-11.45L247.75,185l32,2.65,25,20.2Zm-49.12-24.09a1.46,1.46,0,0,0,.44,1.68l13.68,11-6.13,15.31a1.44,1.44,0,0,0,0,1.06l0,.1a1.42,1.42,0,0,0,.4.51l14.52,11.73a1.41,1.41,0,0,0,.8.32l18.6,1.55a1.47,1.47,0,0,0,1.48-.92l6.13-15.3L307.58,211l-4.34,10.84a5.84,5.84,0,0,0-2.92,11.21,5.85,5.85,0,0,0,7.61-3.25,5.81,5.81,0,0,0-2-6.87l5.05-12.6a1.46,1.46,0,0,0-.81-1.9h0l-28.88-23.34a1.38,1.38,0,0,0-.8-.32l-37.2-3.09h-.12a1.47,1.47,0,0,0-1.36.92"/></clipPath><radialGradient id="radial-gradient" cx="-494.56" cy="3611" r="1" gradientTransform="matrix(0, -32.37, 32.37, 0, -116592.61, -15800.45)" gradientUnits="userSpaceOnUse"><stop offset="0" stop-color="#ff2639"/><stop offset="0.29" stop-color="#ea1d2c"/><stop offset="0.9" stop-color="#b3040a"/><stop offset="1" stop-color="#a90004"/></radialGradient><clipPath id="clip-path-2"><path class="cls-1" d="M122.81,219.53l15.72-5.59a1.35,1.35,0,0,0,.69-.51L149.09,200l8.66,11.64-10.13,13.82-16.15,5.74Zm48.56-18.93a2.93,2.93,0,0,1-2.47-3.32,2.93,2.93,0,0,1,3.33-2.48,2.89,2.89,0,0,1,1.92,1.15,2.93,2.93,0,0,1-2.34,4.68,3.25,3.25,0,0,1-.44,0m-45.53-4.42,30.29-10.76-19,25.92L120,217.44h0l-13.12,4.66Zm33.61-15.06,0,0-35,12.44a1.58,1.58,0,0,0-.69.51L101.69,224.2a1.65,1.65,0,0,0-.27.66,1.47,1.47,0,0,0,.28,1.08,1.45,1.45,0,0,0,1.66.5l16.57-5.88,9.84,13.22a1.46,1.46,0,0,0,1.66.5L149,228a1.35,1.35,0,0,0,.69-.51l11-15.06a1.46,1.46,0,0,0,0-1.73l-9.85-13.23,9.4-12.82,7,9.37a5.83,5.83,0,0,0,3.69,9.44,5.87,5.87,0,0,0,6.63-4.87l0-.15a5.86,5.86,0,0,0-4.95-6.56,5.86,5.86,0,0,0-3.05.39l-8.1-10.88a1.47,1.47,0,0,0-2.05-.3"/></clipPath><radialGradient id="radial-gradient-2" cx="-556.68" cy="3657.65" gradientTransform="matrix(-32.4, 0, 0, -32.4, -17897.67, 118726.49)" xlink:href="#radial-gradient"/><clipPath id="clip-path-3"><path class="cls-1" d="M101.36,125.84,116.11,118a1.47,1.47,0,0,0,.61-.6l7.81-14.75,10.26,10.26-8,15.14-15.15,8ZM144.6,99.21a2.92,2.92,0,0,1,0-4.14,2.88,2.88,0,0,1,2.07-.86,3,3,0,0,1,2.08.86,2.93,2.93,0,0,1-2.08,5,2.88,2.88,0,0,1-2.07-.86M101,102.3l28.4-15-6.51,12.3h0l-8.52,16.1-28.41,15Zm31.08-19.78,0,0L99.22,99.92a1.56,1.56,0,0,0-.61.61l-17.47,33a1.46,1.46,0,0,0,1.29,2.14,1.53,1.53,0,0,0,.69-.17l15.54-8.23,11.66,11.66a1.45,1.45,0,0,0,1,.43,1.49,1.49,0,0,0,.68-.17l16.5-8.74a1.41,1.41,0,0,0,.61-.6l8.73-16.5a1.46,1.46,0,0,0-.26-1.72L126,100l7.43-14,8.26,8.25a5.77,5.77,0,0,0-.83,3,5.85,5.85,0,0,0,11.7.1V97a5.83,5.83,0,0,0-8.81-4.92l-9.59-9.6a1.46,1.46,0,0,0-1-.42,1.44,1.44,0,0,0-1,.42"/></clipPath><radialGradient id="radial-gradient-3" cx="-560.37" cy="3596.76" gradientTransform="translate(18293.45 -116557.55) scale(32.44)" xlink:href="#radial-gradient"/><clipPath id="clip-path-4"><path class="cls-1" d="M312.37,146.76a2.92,2.92,0,0,1,0-4.14,2.92,2.92,0,0,1,4.14,0,2.93,2.93,0,1,1-4.14,4.14m-28.87-22-8-15.14,10.26-10.26,7.81,14.74a1.49,1.49,0,0,0,.61.61l14.75,7.81L298.65,132.8Zm12.42-12.42-8.52-16.1h0L280.88,84l28.41,15,15,28.4ZM276.34,79.42a1.46,1.46,0,0,0-.26,1.71l8.23,15.54-11.66,11.66a1.47,1.47,0,0,0-.25,1.72l8.73,16.5a1.49,1.49,0,0,0,.61.61l16.49,8.73a1.53,1.53,0,0,0,.69.17,1.47,1.47,0,0,0,1-.43L311.61,124l14.05,7.44-8.26,8.26a5.84,5.84,0,1,0-3.06,10.87h.2a5.83,5.83,0,0,0,4.93-8.81l9.59-9.59a1.47,1.47,0,0,0,0-2.07l0,0L311.66,97.23a1.41,1.41,0,0,0-.61-.6l-33-17.47a1.41,1.41,0,0,0-.69-.17,1.47,1.47,0,0,0-1,.43"/></clipPath><radialGradient id="radial-gradient-4" cx="-560.41" cy="3596.73" gradientTransform="translate(18456.43 -116409.1) scale(32.4)" xlink:href="#radial-gradient"/><clipPath id="clip-path-5"><path class="cls-1" d="M375.94,238.42a2.93,2.93,0,1,1,2.93,2.93,2.93,2.93,0,0,1-2.93-2.93m-4.87-35.95,5-16.38h14.51L385.71,202a1.57,1.57,0,0,0,0,.86l4.91,15.95H376.11Zm17.56,0,9.46-30.72,9.45,30.72-9.45,30.71Zm8.06-36.11-5.17,16.81H375a1.46,1.46,0,0,0-1.4,1L368.15,202a1.4,1.4,0,0,0,0,.86l5.48,17.84a1.47,1.47,0,0,0,1.4,1h16.49L396.19,237H384.52a5.85,5.85,0,1,0,0,2.92h13.57a1.45,1.45,0,0,0,1.45-1.46v0l10.92-35.49a1.4,1.4,0,0,0,0-.86l-11-35.68a1.46,1.46,0,0,0-2.79,0"/></clipPath><radialGradient id="radial-gradient-5" cx="-561.03" cy="3596.09" gradientTransform="translate(18172.57 -113782.84) scale(31.7)" xlink:href="#radial-gradient"/><clipPath id="clip-path-6"><path class="cls-1" d="M10.9,238.42a2.94,2.94,0,1,1,2.93,2.93,2.93,2.93,0,0,1-2.93-2.93M6,202.47l5-16.38H25.58L20.67,202a1.57,1.57,0,0,0,0,.86l4.91,15.95H11.07Zm17.57,0,9.45-30.72,9.45,30.72-9.45,30.71Zm8-36.11-5.17,16.81H10a1.44,1.44,0,0,0-1.39,1L3.11,202a1.4,1.4,0,0,0,0,.86L8.6,220.74a1.45,1.45,0,0,0,1.39,1H26.48L31.15,237H19.48a5.85,5.85,0,1,0,0,2.92H33.05a1.46,1.46,0,0,0,1.46-1.46s0,0,0,0L45.42,202.9a1.4,1.4,0,0,0,0-.86l-11-35.68a1.44,1.44,0,0,0-1.39-1,1.46,1.46,0,0,0-1.4,1"/></clipPath><radialGradient id="radial-gradient-6" cx="-561.03" cy="3596.09" gradientTransform="translate(17807.43 -113782.19) scale(31.7)" xlink:href="#radial-gradient"/><clipPath id="clip-path-7"><path class="cls-1" d="M193.42,55.9a2.93,2.93,0,1,1,2.93,2.93,2.93,2.93,0,0,1-2.93-2.93M188.55,20l5-16.38H208.1l-4.91,16a1.4,1.4,0,0,0,0,.86l4.91,16H193.59ZM211.35,0l-2.16,0L209,.65H195.29c-1.24.09-2.46.2-3.69.31a1.51,1.51,0,0,0-.48.72l-5.49,17.84a1.4,1.4,0,0,0,0,.86l5.49,17.84a1.45,1.45,0,0,0,1.39,1H209l4.67,15.19H202a5.85,5.85,0,1,0,0,2.92h13.57A1.46,1.46,0,0,0,217,55.9s0,0,0,0l10.92-35.49a1.4,1.4,0,0,0,0-.86L222,.09,218.89,0,225,20l-9.45,30.71L206.12,20,212.25,0Z"/></clipPath><radialGradient id="radial-gradient-7" cx="-561.03" cy="3596.08" gradientTransform="translate(17986.31 -113939.9) scale(31.69)" xlink:href="#radial-gradient"/><clipPath id="clip-path-8"><path class="cls-1" d="M420,408.32a2.94,2.94,0,1,1,2.93,2.93,2.94,2.94,0,0,1-2.93-2.93m-32.59-6.84,16-4.9v14.51l-16.38,5-16.38-5V396.58l16,4.9a1.25,1.25,0,0,0,.43.07,1.29,1.29,0,0,0,.43-.07m-17.84-8.28-13.31-4.09L387,379.66l30.72,9.45-13.31,4.09L387,398.56Zm17.36-16.53a1.22,1.22,0,0,0-.38.07l-35.68,11a1.47,1.47,0,0,0-1,1.4,1.45,1.45,0,0,0,1,1.39l16.81,5.18v16.48a1.47,1.47,0,0,0,1,1.4l17.84,5.49a1.21,1.21,0,0,0,.38.06h.1a1.26,1.26,0,0,0,.38-.06l17.84-5.49a1.47,1.47,0,0,0,1-1.4V395.68L421.46,391v11.68a5.84,5.84,0,1,0,6.27,9V405a5.86,5.86,0,0,0-3.34-2.32V389.11a1.46,1.46,0,0,0-1.47-1.46h0L387.4,376.74a1.27,1.27,0,0,0-.38-.07Z"/></clipPath><radialGradient id="radial-gradient-8" cx="-561.03" cy="3596.08" gradientTransform="translate(18168.85 -113564.44) scale(31.69)" xlink:href="#radial-gradient"/><clipPath id="clip-path-9"><path class="cls-1" d="M55,408.32a2.93,2.93,0,1,1,2.93,2.93A2.93,2.93,0,0,1,55,408.32m-32.6-6.84,16-4.9v14.51l-16.38,5-16.38-5V396.58l16,4.9a1.29,1.29,0,0,0,.43.07,1.25,1.25,0,0,0,.43-.07m-.48-24.81a1.27,1.27,0,0,0-.38.07L0,383.35v3.06l21.93-6.75,30.72,9.45L39.34,393.2l-17.41,5.36L4.52,393.2,0,391.81v3.06l2.63.81v16.48a1.47,1.47,0,0,0,1,1.4l17.84,5.49a1.26,1.26,0,0,0,.38.06H22a1.26,1.26,0,0,0,.38-.06l17.84-5.49a1.47,1.47,0,0,0,1-1.4V395.68L56.43,391v11.68a5.85,5.85,0,1,0,2.92,0V389.11a1.46,1.46,0,0,0-1.46-1.46h0L22.36,376.74a1.27,1.27,0,0,0-.38-.07Z"/></clipPath><radialGradient id="radial-gradient-9" cx="-561.03" cy="3596.08" gradientTransform="translate(17803.57 -113562.82) scale(31.69)" xlink:href="#radial-gradient"/><clipPath id="clip-path-10"><path class="cls-1" d="M212,0C94.89,0,0,94.89,0,212V589.17H427.73V212C427.73,94.89,332.84,0,215.78,0Z"/></clipPath><clipPath id="clip-path-11"><path class="cls-1" d="M350.86,14.89l16.81,5.17V36.55a1.47,1.47,0,0,0,1,1.4l17.84,5.49a1.57,1.57,0,0,0,.86,0L405.24,38a1.47,1.47,0,0,0,1-1.4V20.06l15.19-4.67V27.06a5.86,5.86,0,1,0,2.93,0V13.5A1.46,1.46,0,0,0,422.92,12h0L387.4,1.12a1.57,1.57,0,0,0-.86,0l-35.68,11a1.46,1.46,0,0,0,0,2.79m52.49,20.58-16.38,5-16.38-5V21l16,4.91a1.57,1.57,0,0,0,.86,0l16-4.91Zm22.51-2.76a2.94,2.94,0,1,1-2.94-2.93,2.94,2.94,0,0,1,2.94,2.93M387,4.05l30.72,9.45-13.31,4.09L387,23l-17.41-5.36L356.25,13.5Z"/></clipPath><clipPath id="clip-path-12"><rect class="cls-1" x="349.83" y="1.04" width="78.95" height="42.47"/></clipPath><radialGradient id="radial-gradient-10" cx="-561.03" cy="3596.09" gradientTransform="translate(18170.57 -113951.74) scale(31.69)" xlink:href="#radial-gradient"/><clipPath id="clip-path-13"><path class="cls-1" d="M103.16,477.9l14.74-7.81a1.44,1.44,0,0,0,.61-.61l7.81-14.75L136.58,465l-8,15.15-15.14,8Zm43.23-26.63a2.93,2.93,0,1,1,2.08.86,3,3,0,0,1-2.08-.86m-43.62,3.08,28.41-15-6.51,12.3h0l-8.52,16.1-28.4,15Zm31.08-19.77,0,0L101,452a1.41,1.41,0,0,0-.6.61l-17.47,33a1.47,1.47,0,0,0,1.29,2.15,1.52,1.52,0,0,0,.68-.17l15.55-8.23L112.12,491a1.42,1.42,0,0,0,1,.43h.1a1.45,1.45,0,0,0,.63-.17l16.49-8.73a1.44,1.44,0,0,0,.61-.61l8.74-16.49a1.47,1.47,0,0,0-.26-1.72L127.75,452l7.44-14,8.25,8.26a5.84,5.84,0,1,0,10.88,3.05v-.19a5.83,5.83,0,0,0-8.81-4.93l-9.6-9.59a1.41,1.41,0,0,0-1-.43,1.43,1.43,0,0,0-1,.43"/></clipPath><radialGradient id="radial-gradient-11" cx="-560.37" cy="3596.76" gradientTransform="translate(18295.07 -116204.27) scale(32.44)" xlink:href="#radial-gradient"/><clipPath id="clip-path-14"><path class="cls-1" d="M314.17,498.82a2.93,2.93,0,0,1,4.14-4.15,2.93,2.93,0,1,1-4.14,4.15m-28.88-22-8-15.15,10.26-10.26,7.8,14.75a1.49,1.49,0,0,0,.61.61l14.75,7.81-10.26,10.26Zm12.43-12.42-8.53-16.1h0L282.68,436l28.4,15,15,28.4Zm-19.58-32.95a1.46,1.46,0,0,0-.26,1.72l8.23,15.54-11.66,11.66a1.47,1.47,0,0,0-.26,1.72l8.73,16.49a1.49,1.49,0,0,0,.61.61l16.5,8.73a1.37,1.37,0,0,0,.68.17,1.48,1.48,0,0,0,1-.42L313.4,476l14.05,7.44-8.25,8.25a5.87,5.87,0,1,0,2.06,2.07l9.59-9.6a1.44,1.44,0,0,0,0-2.06l0,0-17.38-32.82a1.47,1.47,0,0,0-.6-.61l-33-17.47a1.48,1.48,0,0,0-.68-.16,1.44,1.44,0,0,0-1,.42"/></clipPath><radialGradient id="radial-gradient-12" cx="-560.4" cy="3596.73" gradientTransform="translate(18458.59 -116059.48) scale(32.4)" xlink:href="#radial-gradient"/><clipPath id="clip-path-15"><path class="cls-1" d="M372.86,554.52l5-16.38h14.52l-4.91,16a1.4,1.4,0,0,0,0,.86l4.91,15.95H377.9Zm17.57,0,9.45-30.71,9.45,30.71-9.45,30.72Zm9.4-37.14a1.46,1.46,0,0,0-1.34,1l-5.18,16.81H376.82a1.46,1.46,0,0,0-1.39,1l-5.49,17.84a1.4,1.4,0,0,0,0,.86l5.49,17.84a1.46,1.46,0,0,0,1.39,1h16.49L398,589H386.31a5.84,5.84,0,0,0-11.35.15h3.09a2.93,2.93,0,0,1,5.24,0h18.44L412.26,555a1.57,1.57,0,0,0,0-.86l-11-35.68a1.48,1.48,0,0,0-1.35-1Z"/></clipPath><radialGradient id="radial-gradient-13" cx="-561.03" cy="3596.09" gradientTransform="translate(18174.31 -113430.44) scale(31.7)" xlink:href="#radial-gradient"/><clipPath id="clip-path-16"><path class="cls-1" d="M7.82,554.52l5-16.38H27.38l-4.91,16a1.4,1.4,0,0,0,0,.86l4.91,15.95H12.87Zm17.57,0,9.45-30.71,9.45,30.71-9.45,30.72Zm9.4-37.14a1.46,1.46,0,0,0-1.34,1l-5.18,16.81H11.79a1.47,1.47,0,0,0-1.4,1L4.9,554.09a1.57,1.57,0,0,0,0,.86l5.49,17.84a1.47,1.47,0,0,0,1.4,1H28.27L33,589H21.27a5.83,5.83,0,0,0-11.34.15H13a2.93,2.93,0,0,1,5.24,0H36.69L47.22,555a1.57,1.57,0,0,0,0-.86l-11-35.68a1.48,1.48,0,0,0-1.35-1Z"/></clipPath><radialGradient id="radial-gradient-14" cx="-561.03" cy="3596.09" gradientTransform="translate(17809.28 -113430.51) scale(31.7)" xlink:href="#radial-gradient"/><clipPath id="clip-path-17"><path class="cls-1" d="M239.27,567.29a2.93,2.93,0,1,1,2.93,2.93,2.94,2.94,0,0,1-2.93-2.93m-32.59-6.84,15.95-4.91v14.51l-16.38,5-16.38-5V555.54l15.95,4.91a1.54,1.54,0,0,0,.43.06,1.65,1.65,0,0,0,.43-.06m-17.85-8.28-13.3-4.1,30.72-9.45L237,548.07l-13.31,4.1-17.4,5.35Zm17.35-16.54a1.44,1.44,0,0,0-.36.07l-35.69,11a1.46,1.46,0,0,0,0,2.79l16.81,5.17v16.49a1.46,1.46,0,0,0,1,1.39L205.82,578a1.59,1.59,0,0,0,.38.07h.1a1.8,1.8,0,0,0,.38-.07l17.84-5.49a1.46,1.46,0,0,0,1-1.39V554.64L240.74,550v11.67a5.85,5.85,0,1,0,2.92,0V548.07a1.46,1.46,0,0,0-1.46-1.46h0L206.68,535.7a1.51,1.51,0,0,0-.37-.07Z"/></clipPath><radialGradient id="radial-gradient-15" cx="-561.03" cy="3596.08" gradientTransform="translate(17988.13 -113405.52) scale(31.69)" xlink:href="#radial-gradient"/></defs><title>Asset 4</title><g id="Layer_2" data-name="Layer 2"><g id="Layer_1-2" data-name="Layer 1"><path class="cls-2" d="M215.78,0H212C94.89,0,0,94.89,0,212V589.17H427.73V212C427.73,94.89,332.84,0,215.78,0"/><g class="cls-3"><rect class="cls-4" x="234.14" y="170.11" width="84.42" height="75.14" transform="translate(-59.41 125.43) rotate(-23.16)"/></g><g class="cls-5"><rect class="cls-6" x="107.49" y="165.96" width="64.18" height="83.4" transform="translate(-86.12 315.67) rotate(-81.67)"/></g><g class="cls-7"><rect class="cls-8" x="80.84" y="82.1" width="71.68" height="57.26"/></g><g class="cls-9"><rect class="cls-10" x="272.1" y="78.99" width="57.53" height="71.55"/></g><g class="cls-11"><rect class="cls-12" x="368.06" y="165.33" width="42.49" height="78.95"/></g><g class="cls-13"><rect class="cls-14" x="3.02" y="165.33" width="42.49" height="78.95"/></g><g class="cls-15"><rect class="cls-16" x="185.54" width="42.49" height="61.75"/></g><g class="cls-17"><rect class="cls-18" x="349.83" y="376.67" width="77.9" height="42.44"/></g><g class="cls-19"><rect class="cls-20" y="376.67" width="63.74" height="42.44"/></g><g class="cls-21"><g class="cls-22"><g class="cls-23"><rect class="cls-24" x="349.83" y="1.04" width="78.95" height="42.46"/></g></g></g><path class="cls-1" d="M212,0C94.89,0,0,94.89,0,212V589.17H427.73V212C427.73,94.89,332.84,0,215.78,0Z"/><path class="cls-1" d="M212,0C94.89,0,0,94.89,0,212V589.17H427.73V212C427.73,94.89,332.84,0,215.78,0Z"/><path class="cls-1" d="M212,0C94.89,0,0,94.89,0,212V589.17H427.73V212C427.73,94.89,332.84,0,215.78,0Z"/><g class="cls-25"><rect class="cls-26" x="82.64" y="434.15" width="71.68" height="57.26"/></g><g class="cls-27"><rect class="cls-28" x="273.89" y="431.05" width="57.54" height="71.55"/></g><path class="cls-1" d="M212,0C94.89,0,0,94.89,0,212V589.17H427.73V212C427.73,94.89,332.84,0,215.78,0Z"/><g class="cls-29"><rect class="cls-30" x="369.85" y="517.38" width="42.49" height="71.79"/></g><g class="cls-31"><rect class="cls-32" x="4.82" y="517.38" width="42.49" height="71.78"/></g><path class="cls-1" d="M212,0C94.89,0,0,94.89,0,212V589.17H427.73V212C427.73,94.89,332.84,0,215.78,0Z"/><path class="cls-1" d="M212,0C94.89,0,0,94.89,0,212V589.17H427.73V212C427.73,94.89,332.84,0,215.78,0Z"/><g class="cls-33"><rect class="cls-34" x="169.1" y="535.63" width="78.95" height="42.44"/></g></g></g></svg>