<?xml version="1.0" encoding="utf-8"?>
<!-- Generator: Adobe Illustrator 23.1.0, SVG Export Plug-In . SVG Version: 6.00 Build 0)  -->
<svg version="1.1" id="Layer_1" xmlns="http://www.w3.org/2000/svg" xmlns:xlink="http://www.w3.org/1999/xlink" x="0px" y="0px"
	 viewBox="0 0 422.4 585.5" style="enable-background:new 0 0 422.4 585.5;" xml:space="preserve">
<style type="text/css">
	.st0{clip-path:url(#SVGID_2_);}
	.st1{fill:#F3F3F3;}
	.st2{clip-path:url(#SVGID_4_);}
	.st3{fill:url(#SVGID_5_);}
	.st4{clip-path:url(#SVGID_7_);}
	.st5{fill:url(#SVGID_8_);}
	.st6{clip-path:url(#SVGID_10_);}
	.st7{fill:url(#SVGID_11_);}
	.st8{clip-path:url(#SVGID_13_);}
	.st9{fill:url(#SVGID_14_);}
	.st10{clip-path:url(#SVGID_16_);}
	.st11{fill:url(#SVGID_17_);}
	.st12{clip-path:url(#SVGID_19_);}
	.st13{fill:url(#SVGID_20_);}
	.st14{clip-path:url(#SVGID_22_);}
	.st15{fill:url(#SVGID_23_);}
	.st16{clip-path:url(#SVGID_25_);}
	.st17{fill:url(#SVGID_26_);}
	.st18{clip-path:url(#SVGID_28_);}
	.st19{fill:url(#SVGID_29_);}
	.st20{clip-path:url(#SVGID_31_);}
	.st21{fill:url(#SVGID_32_);}
	.st22{clip-path:url(#SVGID_34_);}
	.st23{fill:url(#SVGID_35_);}
	.st24{clip-path:url(#SVGID_37_);}
	.st25{fill:url(#SVGID_38_);}
	.st26{clip-path:url(#SVGID_40_);}
	.st27{fill:url(#SVGID_41_);}
	.st28{clip-path:url(#SVGID_43_);}
	.st29{fill:url(#SVGID_44_);}
	.st30{clip-path:url(#SVGID_47_);}
	.st31{clip-path:url(#SVGID_48_);}
	.st32{clip-path:url(#SVGID_50_);}
	.st33{fill:url(#SVGID_51_);}
	.st34{clip-path:url(#SVGID_53_);}
	.st35{clip-path:url(#SVGID_55_);}
	.st36{fill:none;}
	.st37{clip-path:url(#SVGID_57_);}
	.st38{clip-path:url(#SVGID_59_);}
	.st39{clip-path:url(#SVGID_62_);}
	.st40{clip-path:url(#SVGID_63_);}
	.st41{clip-path:url(#SVGID_65_);}
	.st42{fill:url(#SVGID_66_);}
	.st43{clip-path:url(#SVGID_69_);}
	.st44{clip-path:url(#SVGID_70_);}
	.st45{clip-path:url(#SVGID_72_);}
	.st46{fill:url(#SVGID_73_);}
	.st47{clip-path:url(#SVGID_76_);}
	.st48{clip-path:url(#SVGID_77_);}
	.st49{clip-path:url(#SVGID_79_);}
	.st50{fill:url(#SVGID_80_);}
	.st51{clip-path:url(#SVGID_82_);}
	.st52{clip-path:url(#SVGID_84_);}
	.st53{clip-path:url(#SVGID_86_);}
	.st54{clip-path:url(#SVGID_88_);}
	.st55{clip-path:url(#SVGID_90_);}
	.st56{clip-path:url(#SVGID_92_);}
	.st57{fill:url(#SVGID_93_);}
</style>
<title>Asset 6</title>
<g>
	<g id="Layer_1-2">
		<g>
			<defs>
				<path id="SVGID_1_" d="M0,211.1v374.4c0,1.9,1.5,0,3.4,0h415.4c1.9,0,3.4,1.9,3.4,0V211.1C422.3,94.5,327.8,0,211.2,0
					S0,94.5,0,211.1"/>
			</defs>
			<clipPath id="SVGID_2_">
				<use xlink:href="#SVGID_1_"  style="overflow:visible;"/>
			</clipPath>
			<g class="st0">
				<path class="st1" d="M211.2,0L211.2,0C94.6,0,0.1,94.5,0.1,211.1v374.4c0,1.9,1.5,0,3.4,0h415.4c1.9,0,3.4,1.9,3.4,0V211.1
					C422.3,94.5,327.8,0,211.2,0"/>
			</g>
		</g>
		<g>
			<defs>
				<path id="SVGID_3_" d="M158.6,50.8c0.6-1,1-3.2,1.8-5.2c1.4-0.1,3.4-0.7,4.5-0.8c0.6,2.8,0,6.8-3.3,6.8
					C160.5,51.6,159.5,51.3,158.6,50.8 M191.8,52.9c1.4-4.4,1.6-19.1,7.5-17.9c1.6,0.4,2.8,1.7,3.1,3.3c0.7,3,0.9,6,0.7,9
					c-1.1,1.8-1.8,3.9-2.1,6c-0.4,3.2,0.3,5.9-3.3,5.3c-0.1,0-0.2,0-0.3,0l0,0C195.5,58.5,191,55.5,191.8,52.9 M166.6,36.6
					c-1-2,0.4-3.4,1.8-3.4c2,0,9.8,0.8,6.6,4.1c-0.7,0.6-1.7,0.9-2.6,0.8l0,0C170.3,38,168.3,37.5,166.6,36.6 M179.7,51.1
					c1.8-5.8,1.6-33.5,12.4-25.1c4.9,5.6,0.6,11.3-2.8,28.4c-1,1.6-2.8,2.6-4.7,2.5C182,56.9,179.4,55.1,179.7,51.1 M153.4,26.1
					c0.6-1.3,1.5-2.5,2.6-3.5c1.2-1.3,2.9-2,4.7-1.8c4.4,0.6,4,3.4,3.1,8.9c-3.2,0-6.4,0.3-9.5,1C152.9,30.4,153,27.4,153.4,26.1
					 M167.8,51.5c-0.7-1-0.6-4-0.4-5.4c1.1-1.8,2.6-3.3,4.4-4.4c0.7-0.7,1.5-1.2,2.4-1.6c1.2-0.6,2.2-1.6,2.8-2.8
					c1.4-3.5-2.2-5.1-5.3-5.6c-2.6-0.4-4.9,0.2-4.1-3.2c0.3-2.8,1.4-5.4,3.2-7.5c1.3-0.4,2.7-0.5,4-0.3c0.7,0.1,1.5,0.1,2.2,0.1
					c4.4,0,3.1,4.2,3.6,8c-1.4,3.1-0.6,25.6-7.1,25.1c-0.2,0-0.4,0-0.5,0C171.1,54.1,169.6,52.2,167.8,51.5 M166.9,21.3
					c-3.1-1.9-6.1-7.3-14.6,1.3c-2.3,3.2-1.1,7-1.6,10.5c-5.7,8.3-14.1,19-8.9,29.5c3.9,8.2,7.8,16,12.3,23.7
					c2.6,4.3,6.3,7.5,7.1,12.9c0.6,10.2-0.4,20.2-0.3,30.4c0.4,1.4-1.6,13.1,1.8,11.3c0.5-0.5,0.7-1.2,0.5-1.8
					c-0.9-11.4,1.2-22.7,0.4-34.2c0.1-2.3-0.8-5.4-0.1-7.5c0.6-0.2,1.3-0.3,2-0.1c0.6,0.1,1.2,0.1,1.9,0c1.3-0.9-1.9-1.8-2.4-2.5
					c-8.3-5.6-12.6-16.7-18.3-27.4c-2.1-4.6-5.6-9.4-4.4-14.8c2.5-7.8,6.4-15.2,12.8-19.9c1.5-0.5,11.3-2.4,9.5,2.7
					c-0.7,4.4,2.7,3.1,6.1,4.3c-2.1,2.1-8.4,3.3-12.4,2.8c-0.6-0.1-1.2-0.4-1.8-0.7c-1-0.5-2-1.1-2.4-0.5c-0.1,2,2.8,2.4,2.8,4.3
					c-1.8,5.3-6.7,9.6-7.1,15.1c2.1-1.3,2.4-4.4,4.3-5.9c0.6,2-0.8,6.4,1.9,6.7c0.9-1.6-0.5-7.5,1.6-7.5c3.8,0.6,4,0.7,8-1.1
					c6.9,1.8,9.4,13.2,10.1,20.9c0.4,1.7-0.7,3.5,0.7,4.5c0.8-8.1,1.5-10.8-2.3-21.2c-1-1.5,3.6-2.3,4.4-1.8c3.5,4,5,2.2,11.3,11.6
					c3.3,0.4-1.3-4.6-2-5.7c-2-2.3-0.7-3.9,2.4-4.3c1.8,3.1,4.2,3.4,7.7,3.9c0.7-0.1,1.7,0,2.5-0.2c-2.8,11.2-6.5,23.7-7.5,31.2
					c-1.2,4.4-4.5,3.3-6.3,5.7c1.2,0.6,2.6,0.8,3.9,0.5c2.5-0.7,0-1.3-0.2,35.3c0,2.7-0.3,5.2,0.3,7.8c1.6,1.8,1.8,0.7,2.1-1
					c-0.4-10.4,0.3-23.5,0.4-24.8c-0.6-21.7,5.2-40.3,8.8-50.7c0.7-2.7,3.5-13.7,3.6-18.5s-1.5-16-9.1-14.5c-1-8-6-11.7-13.1-7.7
					c-1.7-1.7-0.6-3.8-4.9-5.9c-0.9-0.4-2-0.6-3-0.5C172.7,17.7,168.7,18.7,166.9,21.3"/>
			</defs>
			<clipPath id="SVGID_4_">
				<use xlink:href="#SVGID_3_"  style="overflow:visible;"/>
			</clipPath>
			<g class="st2">
				
					<radialGradient id="SVGID_5_" cx="-913.3699" cy="-2816.8735" r="1" gradientTransform="matrix(48.4934 16.3953 16.3953 -48.4934 90640.2813 -121529.5)" gradientUnits="userSpaceOnUse">
					<stop  offset="0" style="stop-color:#FF2639"/>
					<stop  offset="0.29" style="stop-color:#EA1D2C"/>
					<stop  offset="0.9" style="stop-color:#B3040A"/>
					<stop  offset="1" style="stop-color:#A90004"/>
				</radialGradient>
				<polygon class="st3" points="97.5,129.8 143.7,-6.9 244.9,27.3 198.6,164 				"/>
			</g>
		</g>
		<g>
			<defs>
				<path id="SVGID_6_" d="M305.2,50.8c0.6-1,1-3.2,1.8-5.2c1.4-0.1,3.4-0.7,4.5-0.8c0.6,2.8,0,6.8-3.3,6.8
					C307.1,51.6,306.1,51.3,305.2,50.8 M313.1,36.6c-1-2,0.4-3.4,1.8-3.4c2,0,9.8,0.8,6.6,4.1c-0.7,0.6-1.7,0.9-2.6,0.8l0,0
					C316.8,38,314.9,37.5,313.1,36.6 M298.8,22.7c-2.4,3.2-1.1,7-1.5,10.5c-5.6,8.3-14.1,18.9-8.9,29.5c3.9,8.2,7.8,16,12.3,23.7
					c2.6,4.3,6.3,7.5,7.1,12.9c0.6,10.2-0.4,20.2-0.3,30.4c0.4,1.4-1.6,13.1,1.8,11.3c0.5-0.5,0.7-1.2,0.5-1.8
					c-0.9-11.4,1.3-22.7,0.4-34.2c0.1-2.3-0.8-5.4-0.1-7.5c0.6-0.2,1.3-0.3,2-0.1c0.6,0.1,1.2,0.1,1.9,0c1.3-0.9-1.9-1.8-2.4-2.5
					c-8.3-5.6-12.6-16.7-18.3-27.4c-2.1-4.6-5.6-9.4-4.4-14.8c2.5-7.8,6.4-15.2,12.8-19.9c1.5-0.5,11.3-2.4,9.5,2.7
					c-0.7,4.4,2.7,3.1,6.1,4.3c-2.1,2.1-8.4,3.3-12.4,2.8c-0.6-0.1-1.2-0.4-1.8-0.7c-1-0.5-2-1.1-2.4-0.5c-0.1,2,2.8,2.4,2.8,4.3
					c-1.8,5.3-6.7,9.6-7.1,15.1c2.1-1.3,2.4-4.4,4.3-5.9c0.6,2-0.8,6.4,1.9,6.7c0.9-1.6-0.5-7.5,1.6-7.5c3.8,0.6,4,0.7,8-1.1
					c6.9,1.8,9.4,13.2,10.1,20.9c0.4,1.7-0.7,3.5,0.7,4.5c0.8-8.1,1.5-10.8-2.3-21.2c-1-1.5,3.6-2.3,4.5-1.8c3.5,4,5,2.2,11.3,11.6
					c3.3,0.4-1.3-4.6-2-5.7c-2-2.3-0.7-3.9,2.4-4.3c1.8,3.1,4.2,3.4,7.7,3.9c0.7-0.1,1.7,0,2.5-0.2c-2.8,11.2-6.5,23.7-7.5,31.2
					c-1.2,4.4-4.5,3.3-6.3,5.7c1.2,0.6,2.6,0.8,3.9,0.5c2.5-0.7,0-1.3-0.2,35.3c0,2.7-0.3,5.2,0.3,7.8c1.6,1.8,1.8,0.7,2.1-1
					c-0.4-10.4,0.3-23.5,0.4-24.8c-0.6-21.7,5.2-40.3,8.8-50.7c0.4-1.7,1.8-6.9,2.7-11.6c-1-0.9-2.1-1.9-3.2-2.8
					c-0.3,0.9-0.5,1.8-0.6,2.7c-0.4,3.2,0.3,5.9-3.3,5.3c-1.6,0.3-6.7-2.8-5.8-5.7c0.6-1.8,1-5.5,1.7-9l-1.4-1.1
					c-0.9,3.2-1.8,7-2.8,11.6c-2,3.8-10.2,3.7-9.6-3.3c0.8-2.5,1.2-9.4,2.3-15.5l-2.1-1.4c-0.7,7.6-1.5,20.2-6.3,19.9
					c-2.1,0.4-3.8-1.8-5.8-2.6c-0.7-1-0.6-4-0.4-5.4c1.1-1.8,2.6-3.3,4.4-4.4c0.7-0.6,1.5-1.2,2.4-1.6c1.2-0.6,2.2-1.6,2.8-2.8
					c1.5-3.5-2.2-5.1-5.3-5.6c-2.6-0.4-4.9,0.2-4.1-3.2c0.1-0.5,0.2-1,0.3-1.6c-1.2-0.7-2.4-1.3-3.6-2c-0.1,1.6-0.3,3.2-0.6,4.7
					c-3.2,0-6.4,0.3-9.5,1c-1.3-0.3-1.2-3.3-0.8-4.6c0.6-1.3,1.5-2.5,2.6-3.5c0.4-0.4,0.9-0.8,1.5-1.1c-0.8-0.4-1.7-0.8-2.5-1.2
					C300.6,21,299.6,21.8,298.8,22.7"/>
			</defs>
			<clipPath id="SVGID_7_">
				<use xlink:href="#SVGID_6_"  style="overflow:visible;"/>
			</clipPath>
			<g class="st4">
				
					<radialGradient id="SVGID_8_" cx="-913.3699" cy="-2816.8735" r="1" gradientTransform="matrix(48.4934 16.3953 16.3953 -48.4934 90786.9141 -121529.4922)" gradientUnits="userSpaceOnUse">
					<stop  offset="0" style="stop-color:#FF2639"/>
					<stop  offset="0.29" style="stop-color:#EA1D2C"/>
					<stop  offset="0.9" style="stop-color:#B3040A"/>
					<stop  offset="1" style="stop-color:#A90004"/>
				</radialGradient>
				<polygon class="st5" points="245.9,130.5 290.2,-0.4 388.7,32.8 344.4,163.8 				"/>
			</g>
		</g>
		<g>
			<defs>
				<path id="SVGID_9_" d="M0,225.5c0.3,0.5,0.6,1,0.9,1.5c2.6,4.3,6.3,7.5,7.1,12.9c0.6,10.2-0.4,20.2-0.3,30.4
					c0.4,1.4-1.6,13.1,1.8,11.3c0.6-0.3,0.6-1.1,0.5-1.8c-0.9-11.4,1.2-22.7,0.4-34.2c0-2.3-0.8-5.4-0.1-7.5c0.6-0.2,1.3-0.3,2-0.1
					c0.6,0.1,1.2,0.1,1.8,0c1.3-0.9-1.9-1.8-2.4-2.5c-5-3.4-8.5-8.7-11.7-14.7L0,225.5z M5.4,191.5c0.6-1,1-3.2,1.8-5.2
					c1.4-0.1,3.4-0.7,4.5-0.8c0.6,2.8-0.1,6.8-3.3,6.8C7.3,192.3,6.3,192,5.4,191.5 M38.6,193.6c1.4-4.4,1.7-19.1,7.5-17.9
					c1.6,0.4,2.8,1.7,3.1,3.3c0.6,3,0.9,6,0.7,9c-1.1,1.8-1.9,3.8-2.2,5.9c-0.4,3.2,0.3,5.9-3.3,5.4c-0.1,0-0.2,0-0.3,0
					C42.3,199.2,37.8,196.2,38.6,193.6 M13.3,177.2c-1-2,0.4-3.4,1.8-3.4c2,0.1,9.8,0.8,6.6,4.1c-0.7,0.6-1.7,0.9-2.6,0.8
					C17,178.6,15.1,178.1,13.3,177.2 M26.4,191.7c1.8-5.8,1.6-33.5,12.5-25.1c4.9,5.6,0.5,11.3-2.8,28.4c-1,1.6-2.8,2.6-4.7,2.5
					C28.8,197.5,26.1,195.8,26.4,191.7 M14.6,192.1c-0.7-1-0.6-4.1-0.3-5.4c1.1-1.8,2.6-3.3,4.4-4.4c0.7-0.6,1.5-1.2,2.4-1.6
					c1.2-0.6,2.2-1.6,2.8-2.8c1.5-3.5-2.2-5.1-5.3-5.6c-2.6-0.4-4.9,0.2-4.1-3.2c0.3-2.7,1.4-5.3,3.2-7.4c1.3-0.4,2.7-0.5,4-0.3
					c0.7,0.1,1.5,0.2,2.2,0.1c4.4,0,3.1,4.2,3.6,8c-1.4,3.2-0.6,25.7-7.1,25.2c-0.2,0-0.3,0.1-0.5,0.1
					C17.9,194.8,16.3,192.9,14.6,192.1 M13.6,162c-1.9-1.2-3.8-3.7-7-3.4c-0.2,0.9-0.5,1.9-0.7,2.8c0.5-0.1,1-0.1,1.5,0
					c4.4,0.6,4,3.4,3.1,8.9c-2.2,0-4.4,0.1-6.6,0.4c-0.2,0.8-0.3,1.6-0.4,2.3c3.2-0.6,9.4-1,7.9,3.1c-0.7,4.4,2.7,3.1,6.1,4.3
					c-2.1,2.1-8.4,3.3-12.3,2.8c-0.6-0.1-1.2-0.4-1.8-0.7c-0.4-0.2-0.8-0.5-1.3-0.6c-0.1,0.6-0.2,1.3-0.3,1.9c0.8,0.8,2,1.4,2,2.6
					c-0.7,2-1.7,3.8-2.9,5.6c-0.1,1.3-0.2,2.7-0.3,4c0.1-0.1,0.3-0.3,0.5-0.4c0.6,2-0.8,6.4,1.9,6.7c0.9-1.6-0.5-7.5,1.6-7.4
					c3.8,0.6,4,0.7,8-1.1c6.9,1.8,9.4,13.3,10.1,20.9c0.4,1.7-0.7,3.5,0.7,4.5c0.8-8.1,1.5-10.8-2.3-21.2c-1-1.5,3.6-2.3,4.5-1.8
					c3.5,4,5,2.2,11.3,11.6c3.3,0.4-1.3-4.6-2-5.7c-2-2.3-0.7-3.9,2.4-4.3c1.8,3.1,4.2,3.4,7.7,3.9c0.7-0.1,1.7,0,2.5-0.2
					c-2.7,11.3-6.4,23.7-7.4,31.2c-1.2,4.4-4.5,3.3-6.3,5.7c1.2,0.6,2.6,0.8,3.9,0.5c2.5-0.6,0-1.3-0.2,35.3c0,2.7-0.3,5.2,0.3,7.8
					c1.6,1.8,1.8,0.7,2.2-1c-0.4-10.4,0.3-23.5,0.3-24.8c-0.6-21.7,5.2-40.3,8.8-50.7c0.7-2.7,3.5-13.7,3.6-18.5s-1.5-16-9-14.6
					c-1-8-6-11.7-13.2-7.7c-1.7-1.7-0.7-3.8-4.9-5.9c-0.9-0.4-2-0.6-3-0.5c-2.9,0-6.8,1-8.7,3.6"/>
			</defs>
			<clipPath id="SVGID_10_">
				<use xlink:href="#SVGID_9_"  style="overflow:visible;"/>
			</clipPath>
			<g class="st6">
				
					<radialGradient id="SVGID_11_" cx="-913.3699" cy="-2816.8735" r="1" gradientTransform="matrix(48.4934 16.3953 16.3953 -48.4934 90486.9609 -121388.9141)" gradientUnits="userSpaceOnUse">
					<stop  offset="0" style="stop-color:#FF2639"/>
					<stop  offset="0.29" style="stop-color:#EA1D2C"/>
					<stop  offset="0.9" style="stop-color:#B3040A"/>
					<stop  offset="1" style="stop-color:#A90004"/>
				</radialGradient>
				<polygon class="st7" points="-38,270.8 5.4,142.4 90.6,171.2 47.1,299.6 				"/>
			</g>
		</g>
		<g>
			<defs>
				<path id="SVGID_12_" d="M419,232.7c-1.2,4.4-4.5,3.3-6.3,5.7c1.2,0.6,2.6,0.8,3.9,0.5c2.5-0.6,0-1.3-0.2,35.3
					c0,2.7-0.3,5.2,0.3,7.8c1.6,1.8,1.8,0.7,2.1-1c-0.4-10.4,0.3-23.5,0.4-24.8c-0.2-10.4,0.8-20.8,3.1-30.9v-7.8
					C420.9,222.5,419.8,227.6,419,232.7 M384.5,191.4c0.6-1,1-3.2,1.8-5.2c1.4-0.1,3.4-0.7,4.5-0.8c0.6,2.8-0.1,6.8-3.3,6.8
					C386.4,192.2,385.4,191.9,384.5,191.4 M392.4,177.2c-1-2,0.4-3.4,1.8-3.4c2,0.1,9.8,0.8,6.6,4.1c-0.7,0.6-1.7,0.9-2.6,0.8
					C396.1,178.6,394.2,178.1,392.4,177.2 M379.2,166.7c0.6-1.3,1.5-2.5,2.6-3.5c1.2-1.3,2.9-2,4.7-1.8c4.4,0.6,4,3.4,3.1,8.9
					c-3.2,0-6.4,0.3-9.5,1C378.8,171,378.9,168,379.2,166.7 M393.7,192.1c-0.7-1-0.6-4.1-0.4-5.4c1.1-1.8,2.6-3.3,4.4-4.4
					c0.7-0.7,1.5-1.2,2.4-1.6c1.2-0.6,2.2-1.6,2.8-2.8c1.5-3.5-2.2-5.1-5.3-5.6c-2.6-0.4-4.9,0.2-4.1-3.2c0.3-2.8,1.4-5.4,3.2-7.4
					c1.3-0.4,2.7-0.5,4-0.3c0.7,0.1,1.5,0.2,2.2,0.1c4.4,0,3.1,4.2,3.6,8c-1.4,3.2-0.6,25.7-7.1,25.2c-0.2,0-0.4,0.1-0.5,0.1
					C397,194.8,395.5,192.9,393.7,192.1 M392.8,162c-3.1-1.9-6.1-7.3-14.6,1.3c-2.4,3.2-1.1,7-1.5,10.5c-5.6,8.3-14.1,18.9-8.9,29.5
					c3.9,8.2,7.8,16,12.3,23.7c2.6,4.3,6.3,7.5,7.1,12.9c0.6,10.2-0.4,20.2-0.3,30.4c0.4,1.4-1.6,13.1,1.8,11.3
					c0.6-0.3,0.6-1.1,0.5-1.8c-0.9-11.4,1.3-22.7,0.4-34.2c0.1-2.3-0.8-5.4-0.1-7.5c0.6-0.2,1.3-0.3,2-0.1c0.6,0.1,1.2,0.1,1.9,0
					c1.3-0.9-1.9-1.8-2.4-2.5c-8.3-5.6-12.6-16.7-18.3-27.4c-2.1-4.6-5.6-9.4-4.4-14.8c2.5-7.8,6.4-15.2,12.8-19.9
					c1.5-0.5,11.3-2.4,9.5,2.7c-0.7,4.4,2.7,3.1,6.1,4.3c-2.1,2.1-8.4,3.3-12.4,2.8c-0.6-0.1-1.2-0.4-1.8-0.7c-1-0.6-2-1.1-2.4-0.5
					c-0.1,2,2.8,2.4,2.8,4.3c-1.8,5.3-6.7,9.6-7.1,15.1c2.1-1.2,2.4-4.4,4.3-5.9c0.6,2-0.8,6.4,1.9,6.7c0.9-1.6-0.5-7.5,1.6-7.4
					c3.8,0.6,4,0.7,8-1.1c6.9,1.8,9.4,13.3,10.1,20.9c0.4,1.7-0.7,3.5,0.7,4.5c0.8-8.1,1.5-10.8-2.3-21.2c-1-1.5,3.6-2.3,4.5-1.8
					c3.5,4,5,2.2,11.3,11.6c3.3,0.4-1.3-4.6-2-5.7c-2-2.3-0.7-3.9,2.4-4.3c1.5,2.5,3.4,3.2,5.9,3.6c0-0.8-0.1-1.7-0.1-2.5
					c-2.1-0.8-4.9-3.2-4.2-5.4c0.8-2.5,1.2-8.1,2.5-12.5c-0.2-1.3-0.4-2.6-0.6-3.9c-1,4.2-2.8,9.7-4.4,17.8c-2,3.8-10.2,3.7-9.6-3.3
					c1.8-5.7,1.6-32.6,11.9-25.5c-0.2-0.9-0.4-1.8-0.6-2.7c-2.1-0.7-4.6-0.4-7.5,1.3c-1.7-1.7-0.6-3.8-4.9-5.9c-0.9-0.4-2-0.6-3-0.5
					C398.6,158.4,394.7,159.4,392.8,162"/>
			</defs>
			<clipPath id="SVGID_13_">
				<use xlink:href="#SVGID_12_"  style="overflow:visible;"/>
			</clipPath>
			<g class="st8">
				
					<radialGradient id="SVGID_14_" cx="-913.3782" cy="-2816.8948" r="1" gradientTransform="matrix(48.5408 16.4113 16.4113 -48.5408 90964.1484 -121526.6641)" gradientUnits="userSpaceOnUse">
					<stop  offset="0" style="stop-color:#FF2639"/>
					<stop  offset="0.29" style="stop-color:#EA1D2C"/>
					<stop  offset="0.9" style="stop-color:#B3040A"/>
					<stop  offset="1" style="stop-color:#A90004"/>
				</radialGradient>
				<polygon class="st9" points="323.4,270.5 368.6,136.6 461.5,167.9 416.2,301.9 				"/>
			</g>
		</g>
		<g>
			<defs>
				<path id="SVGID_15_" d="M80.7,83c1.4-6.8,9.1-9,15.2-8.6c6.6,1.9,10.8,9.6,7.7,16.1c-2.2,5.3-6.4,7.5-10.6,7.5
					C85.6,98.1,78,91.4,80.7,83 M82.4,71.3c-10.2,6.9-8.8,18.7-7.1,21.5c2.5,4,4.4,6.5,8.2,8.8c2.2,1.3,5.2,0.7,4.6,4.1
					c-0.1,2-0.7,1.8-2.8,1.8c-7.4-0.5-5.1,6.2-3.9,7.3c1.1,0.3,2.2,0.4,3.4,0.3c1.5,0,2.9-0.1,3.2,0.7c0.3,4.7-1.1,8.9,4.2,8.2
					c5.5,0.7,2-7,4.4-9c0.7,0,1.3,0,2,0.1c1.4,0.2,2.8,0.4,4-0.5c0.8-0.6,1.2-1.5,1.2-2.5c0.4-4.8-2.7-4.8-5.1-4.7
					c-2,0-3.6,0-2.7-2.5c0.4-1.1,1.2-2,2.3-2.4c9.6-4.1,12.5-9.7,12.1-18.6c0.5-9.9-8.6-15.6-17.6-15.6
					C89.2,68.3,85.5,69.4,82.4,71.3"/>
			</defs>
			<clipPath id="SVGID_16_">
				<use xlink:href="#SVGID_15_"  style="overflow:visible;"/>
			</clipPath>
			<g class="st10">
				
					<radialGradient id="SVGID_17_" cx="-887.9105" cy="-2804.2798" r="1" gradientTransform="matrix(23.53 0 0 -23.53 20984.8496 -65888.6797)" gradientUnits="userSpaceOnUse">
					<stop  offset="0" style="stop-color:#FF2639"/>
					<stop  offset="0.29" style="stop-color:#EA1D2C"/>
					<stop  offset="0.9" style="stop-color:#B3040A"/>
					<stop  offset="1" style="stop-color:#A90004"/>
				</radialGradient>
				<rect x="72.2" y="68.3" class="st11" width="38.7" height="56.4"/>
			</g>
		</g>
		<g>
			<defs>
				<path id="SVGID_18_" d="M235,83c1.4-6.8,9.1-9,15.2-8.6c6.6,1.9,10.8,9.6,7.8,16.1c-2.2,5.3-6.4,7.5-10.6,7.5
					C239.9,98.1,232.4,91.4,235,83 M236.8,71.3c-10.3,6.9-8.8,18.7-7.1,21.5c2.5,4,4.4,6.5,8.2,8.8c2.2,1.3,5.2,0.7,4.6,4.1
					c-0.1,2-0.7,1.8-2.8,1.8c-7.4-0.5-5.1,6.2-3.9,7.3c1.1,0.3,2.2,0.4,3.4,0.3c1.5,0,2.9-0.1,3.2,0.7c0.3,4.7-1.1,8.9,4.2,8.2
					c5.5,0.7,2-7,4.3-9c0.7,0,1.3,0,2,0.1c1.4,0.2,2.8,0.4,4-0.5c0.8-0.6,1.2-1.5,1.2-2.5c0.4-4.8-2.7-4.8-5.1-4.7
					c-2,0-3.6,0-2.7-2.5c0.4-1.1,1.2-2,2.3-2.4c9.6-4.1,12.5-9.7,12.2-18.6c0.5-9.9-8.6-15.6-17.6-15.6
					C243.5,68.3,239.9,69.3,236.8,71.3"/>
			</defs>
			<clipPath id="SVGID_19_">
				<use xlink:href="#SVGID_18_"  style="overflow:visible;"/>
			</clipPath>
			<g class="st12">
				
					<radialGradient id="SVGID_20_" cx="-887.9105" cy="-2804.2798" r="1" gradientTransform="matrix(23.53 0 0 -23.53 21139.1699 -65888.6797)" gradientUnits="userSpaceOnUse">
					<stop  offset="0" style="stop-color:#FF2639"/>
					<stop  offset="0.29" style="stop-color:#EA1D2C"/>
					<stop  offset="0.9" style="stop-color:#B3040A"/>
					<stop  offset="1" style="stop-color:#A90004"/>
				</radialGradient>
				<rect x="226.5" y="68.3" class="st13" width="38.7" height="56.4"/>
			</g>
		</g>
		<g>
			<defs>
				<path id="SVGID_21_" d="M98.5,498.9c0.6-1,1-3.2,1.8-5.2c1.4-0.1,3.4-0.7,4.5-0.8c0.6,2.8-0.1,6.8-3.3,6.8
					C100.4,499.7,99.4,499.4,98.5,498.9 M131.7,501c1.4-4.4,1.6-19.1,7.5-17.9c1.6,0.4,2.8,1.7,3.1,3.3c0.6,3,0.9,6,0.7,9
					c-1.1,1.8-1.9,3.8-2.1,5.9c-0.4,3.2,0.3,5.9-3.3,5.3c-0.1,0-0.2,0-0.3,0C135.4,506.6,130.9,503.6,131.7,501 M106.4,484.6
					c-1-2,0.4-3.4,1.8-3.4c2,0,9.8,0.7,6.6,4.1c-0.7,0.6-1.7,0.9-2.6,0.8C110.2,486,108.2,485.5,106.4,484.6 M119.6,499.1
					c1.8-5.8,1.6-33.5,12.5-25.1c4.9,5.6,0.5,11.3-2.8,28.4c-1,1.6-2.8,2.6-4.7,2.5C121.9,504.9,119.3,503.1,119.6,499.1
					 M93.3,474.1c0.6-1.3,1.5-2.5,2.6-3.5c1.2-1.3,2.9-2,4.7-1.8c4.4,0.6,4,3.4,3.1,8.9c-3.2,0-6.4,0.3-9.5,1
					C92.9,478.4,92.9,475.4,93.3,474.1 M107.7,499.5c-0.6-1-0.6-4-0.4-5.4c1.1-1.8,2.6-3.3,4.4-4.4c0.7-0.7,1.6-1.2,2.4-1.6
					c1.2-0.6,2.2-1.6,2.8-2.8c1.4-3.5-2.2-5.1-5.3-5.6c-2.6-0.4-4.9,0.2-4.1-3.2c0.3-2.8,1.4-5.4,3.2-7.4c1.3-0.4,2.7-0.5,4-0.3
					c0.7,0.1,1.5,0.2,2.2,0.1c4.4,0,3.1,4.2,3.6,8c-1.4,3.2-0.6,25.7-7.1,25.2c-0.2,0-0.3,0-0.5,0
					C111,502.2,109.5,500.4,107.7,499.5 M106.7,469.4c-3.1-1.9-6.1-7.3-14.6,1.3c-2.3,3.2-1.1,7-1.5,10.5
					c-5.7,8.3-14.1,18.9-8.9,29.5c3.9,8.2,7.8,16,12.3,23.7c2.6,4.3,6.3,7.5,7.1,12.9c0.6,10.2-0.4,20.2-0.3,30.4
					c0.2,0.8-0.3,4.7-0.2,7.8h2.4c-0.5-10.8,1.3-21.6,0.5-32.4c0.1-2.3-0.8-5.4-0.1-7.5c0.6-0.2,1.3-0.3,2-0.1
					c0.6,0.1,1.2,0.1,1.9,0c1.3-0.9-1.9-1.8-2.4-2.5c-8.3-5.6-12.6-16.7-18.3-27.4c-2.1-4.6-5.6-9.4-4.4-14.8
					c2.5-7.8,6.4-15.2,12.8-19.9c1.5-0.5,11.3-2.4,9.5,2.7c-0.7,4.4,2.7,3.1,6.1,4.3c-2.1,2.1-8.4,3.3-12.3,2.8
					c-0.6-0.1-1.2-0.4-1.8-0.7c-1-0.5-2-1.1-2.4-0.5c-0.1,2,2.8,2.4,2.8,4.3c-1.8,5.3-6.7,9.6-7.1,15.1c2-1.3,2.4-4.4,4.3-5.9
					c0.6,2-0.8,6.4,1.9,6.7c0.9-1.6-0.5-7.5,1.6-7.5c3.8,0.6,4,0.7,8-1.1c6.9,1.8,9.4,13.2,10.1,20.9c0.4,1.7-0.7,3.5,0.7,4.5
					c0.8-8.1,1.5-10.8-2.3-21.2c-1-1.5,3.6-2.3,4.4-1.8c3.5,4,5,2.2,11.3,11.6c3.3,0.4-1.3-4.6-2-5.7c-2-2.3-0.7-3.9,2.4-4.3
					c1.8,3.1,4.2,3.4,7.7,3.9c0.7-0.1,1.7,0,2.5-0.2c-2.7,11.3-6.4,23.7-7.4,31.2c-1.2,4.4-4.5,3.3-6.3,5.7c1.2,0.6,2.6,0.8,3.9,0.5
					c2.5-0.7,0-1.3-0.2,35.3c0,1.3,0,2.6-0.1,3.9h2.4c-0.2-9.8,0.4-20.7,0.4-21.9c-0.6-21.7,5.2-40.3,8.8-50.7
					c0.7-2.7,3.5-13.7,3.6-18.5s-1.5-16-9.1-14.5c-1-8-6-11.7-13.2-7.7c-1.7-1.7-0.6-3.8-4.9-5.9c-0.9-0.4-2-0.6-3-0.5
					C112.6,465.8,108.7,466.8,106.7,469.4"/>
			</defs>
			<clipPath id="SVGID_22_">
				<use xlink:href="#SVGID_21_"  style="overflow:visible;"/>
			</clipPath>
			<g class="st14">
				
					<radialGradient id="SVGID_23_" cx="-913.3699" cy="-2816.8735" r="1" gradientTransform="matrix(48.4934 16.3953 16.3953 -48.4934 90580.3516 -121081.3672)" gradientUnits="userSpaceOnUse">
					<stop  offset="0" style="stop-color:#FF2639"/>
					<stop  offset="0.29" style="stop-color:#EA1D2C"/>
					<stop  offset="0.9" style="stop-color:#B3040A"/>
					<stop  offset="1" style="stop-color:#A90004"/>
				</radialGradient>
				<polygon class="st15" points="39.1,572.9 83.6,441.2 183.1,474.8 138.5,606.5 				"/>
			</g>
		</g>
		<g>
			<defs>
				<path id="SVGID_24_" d="M420.4,545.8c0.6,0.3,1.2,0.5,1.9,0.6v-2C421.6,544.7,420.9,545.2,420.4,545.8 M392.3,498.8
					c0.6-1,1-3.2,1.8-5.2c1.4-0.1,3.4-0.7,4.5-0.8c0.6,2.8-0.1,6.8-3.3,6.8C394.2,499.6,393.1,499.3,392.3,498.8 M400.2,484.6
					c-1-2,0.4-3.4,1.8-3.4c2,0,9.8,0.7,6.6,4.1c-0.7,0.6-1.7,0.9-2.6,0.8C403.9,486,401.9,485.5,400.2,484.6 M387,474.1
					c0.6-1.3,1.5-2.5,2.6-3.5c1.2-1.3,2.9-2,4.7-1.8c4.4,0.6,4,3.4,3.1,8.9c-3.2,0-6.4,0.3-9.5,1C386.6,478.4,386.6,475.4,387,474.1
					 M401.4,499.5c-0.7-1-0.6-4-0.4-5.4c1.1-1.8,2.6-3.3,4.4-4.4c0.7-0.6,1.6-1.2,2.4-1.6c1.2-0.6,2.2-1.6,2.8-2.8
					c1.5-3.5-2.2-5.1-5.3-5.6c-2.6-0.4-4.9,0.2-4.1-3.2c0.3-2.8,1.4-5.4,3.2-7.4c1.3-0.4,2.7-0.5,4-0.3c0.7,0.1,1.5,0.2,2.2,0.1
					c4.4,0,3.1,4.2,3.6,8c-1.4,3.2-0.6,25.7-7.1,25.2c-0.2,0-0.4,0-0.5,0C404.8,502.2,403.2,500.4,401.4,499.5 M400.5,469.4
					c-3.1-1.9-6.1-7.3-14.6,1.3c-2.4,3.2-1.1,7-1.5,10.5c-5.6,8.3-14.1,18.9-8.9,29.5c3.9,8.2,7.8,16,12.3,23.7
					c2.6,4.3,6.3,7.5,7.1,12.9c0.6,10.2-0.4,20.2-0.3,30.4c0.2,0.8-0.3,4.7-0.2,7.8h2.4c-0.5-10.8,1.3-21.6,0.5-32.4
					c0.1-2.3-0.8-5.4-0.1-7.5c0.6-0.2,1.3-0.3,2-0.1c0.6,0.1,1.2,0.1,1.9,0c1.3-0.9-1.9-1.8-2.4-2.5c-8.3-5.6-12.6-16.7-18.3-27.4
					c-2.1-4.6-5.6-9.4-4.4-14.8c2.5-7.8,6.4-15.2,12.8-19.9c1.5-0.5,11.3-2.4,9.5,2.7c-0.7,4.4,2.7,3.1,6.1,4.3
					c-2.1,2.1-8.4,3.3-12.4,2.8c-0.6-0.1-1.2-0.4-1.8-0.7c-1-0.5-2-1.1-2.4-0.5c-0.1,2,2.8,2.4,2.8,4.3c-1.8,5.3-6.7,9.6-7.1,15.1
					c2.1-1.3,2.4-4.4,4.3-5.9c0.6,2-0.8,6.4,1.9,6.7c0.9-1.6-0.5-7.5,1.6-7.5c3.8,0.6,4,0.7,8-1.1c6.9,1.8,9.4,13.2,10.1,20.9
					c0.4,1.7-0.7,3.5,0.7,4.5c0.8-8.1,1.5-10.8-2.3-21.2c-1-1.5,3.6-2.3,4.5-1.8c3.3,3.7,4.8,2.4,10,9.8v-2.8
					c-0.3-0.4-0.6-0.8-0.8-1c-1.6-1.8-1.1-3.2,0.8-3.9v-2.3c-2.7,2.8-9.5,2.2-9-4.2c1.6-5.1,1.6-27.1,9-26.7v-1.9
					c-1.8,0.1-3.6,0.7-5.2,1.6c-1.7-1.7-0.6-3.8-4.9-5.9c-0.9-0.4-2-0.6-3-0.5C406.3,465.8,402.4,466.8,400.5,469.4"/>
			</defs>
			<clipPath id="SVGID_25_">
				<use xlink:href="#SVGID_24_"  style="overflow:visible;"/>
			</clipPath>
			<g class="st16">
				
					<radialGradient id="SVGID_26_" cx="-913.3699" cy="-2816.8735" r="1" gradientTransform="matrix(48.4934 16.3953 16.3953 -48.4934 90873.7422 -121081.5234)" gradientUnits="userSpaceOnUse">
					<stop  offset="0" style="stop-color:#FF2639"/>
					<stop  offset="0.29" style="stop-color:#EA1D2C"/>
					<stop  offset="0.9" style="stop-color:#B3040A"/>
					<stop  offset="1" style="stop-color:#A90004"/>
				</radialGradient>
				<polygon class="st17" points="332.8,572.9 375.6,446.4 459.8,474.8 417,601.3 				"/>
			</g>
		</g>
		<g>
			<defs>
				<path id="SVGID_27_" d="M0,386.6c2.1,0.6,3.6,1.6,1.8,3.4c-0.5,0.5-1.2,0.7-1.8,0.8v2.7c0.4-0.3,0.8-0.5,1.2-0.6
					c1.2-0.5,2.2-1.5,2.8-2.7c1.2-3-1.3-4.6-4-5.3L0,386.6z M18.8,405.7c1.4-4.4,1.7-19.1,7.5-17.9c1.6,0.4,2.8,1.7,3.1,3.3
					c0.7,3,0.9,6,0.7,9c-1.1,1.8-1.8,3.8-2.1,5.9c-0.4,3.1,0.3,5.9-3.3,5.4h-0.3l0,0C22.5,411.4,18,408.4,18.8,405.7 M6.7,403.9
					c1.8-5.8,1.6-33.5,12.5-25.1c4.9,5.6,0.5,11.3-2.8,28.4c-1,1.6-2.8,2.6-4.7,2.5C9,409.7,6.4,407.9,6.7,403.9 M0.1,370.8v2.7
					c0.6,0,1.2,0.1,1.8,0.1c0.7,0.1,1.5,0.1,2.2,0.1c4.4,0,3.1,4.2,3.6,8c-1.4,3.2-0.6,25.7-7.1,25.2c-0.2,0-0.3,0.1-0.5,0.1v7.1
					c1.5,4.1,2.4,8.4,2.7,12.7c0.4,1.7-0.7,3.5,0.7,4.5c0.8-8.1,1.5-10.8-2.3-21.2c-1-1.5,3.6-2.3,4.5-1.8c3.5,4,5,2.2,11.3,11.6
					c3.3,0.4-1.3-4.6-2-5.7c-2-2.3-0.7-3.9,2.4-4.3c1.8,3.1,4.2,3.4,7.7,3.9c0.7-0.1,1.7,0,2.5-0.2c-2.7,11.3-6.4,23.7-7.4,31.2
					c-1.2,4.4-4.5,3.3-6.3,5.7c1.2,0.6,2.6,0.8,3.9,0.5c2.5-0.6,0-1.3-0.2,35.3c0,2.7-0.3,5.2,0.3,7.8c1.6,1.8,1.8,0.7,2.1-1
					c-0.4-10.4,0.3-23.5,0.3-24.7c-0.6-21.7,5.2-40.3,8.8-50.7c0.7-2.7,3.5-13.7,3.6-18.5s-1.5-16-9-14.6c-1-8-6-11.7-13.2-7.7
					c-1.7-1.7-0.7-3.8-4.9-5.9c-0.9-0.4-2-0.6-3-0.5l0,0C1.8,370.6,1,370.6,0.1,370.8"/>
			</defs>
			<clipPath id="SVGID_28_">
				<use xlink:href="#SVGID_27_"  style="overflow:visible;"/>
			</clipPath>
			<g class="st18">
				
					<radialGradient id="SVGID_29_" cx="-913.3699" cy="-2816.8735" r="1" gradientTransform="matrix(48.4934 16.3953 16.3953 -48.4934 90467.0859 -121176.7813)" gradientUnits="userSpaceOnUse">
					<stop  offset="0" style="stop-color:#FF2639"/>
					<stop  offset="0.29" style="stop-color:#EA1D2C"/>
					<stop  offset="0.9" style="stop-color:#B3040A"/>
					<stop  offset="1" style="stop-color:#A90004"/>
				</radialGradient>
				<polygon class="st19" points="-38,483 3.4,360.5 70.8,383.3 29.4,505.8 				"/>
			</g>
		</g>
		<g>
			<defs>
				<path id="SVGID_30_" d="M245.1,498.9c0.6-1,1-3.2,1.8-5.2c1.4-0.1,3.4-0.7,4.5-0.8c0.5,2.8-0.1,6.8-3.3,6.8
					C247,499.7,246,499.4,245.1,498.9 M278.3,501c1.4-4.4,1.6-19.1,7.5-17.9c1.6,0.4,2.8,1.7,3.1,3.3c0.6,3,0.9,6,0.7,9
					c-1.1,1.8-1.9,3.8-2.1,5.9c-0.4,3.2,0.3,5.9-3.3,5.3c-0.1,0-0.2,0-0.3,0C282,506.6,277.5,503.6,278.3,501 M253,484.6
					c-1-2,0.4-3.4,1.8-3.4c2,0,9.8,0.7,6.6,4.1c-0.7,0.6-1.7,0.9-2.6,0.8C256.8,486,254.8,485.5,253,484.6 M266.2,499.2
					c1.8-5.8,1.5-33.5,12.5-25.1c4.9,5.6,0.5,11.3-2.8,28.4c-1,1.6-2.8,2.6-4.7,2.5C268.5,505,265.9,503.2,266.2,499.2 M239.9,474.1
					c0.6-1.3,1.5-2.5,2.6-3.5c1.2-1.3,2.9-2,4.7-1.8c4.4,0.6,4,3.4,3.1,8.9c-3.2,0-6.4,0.3-9.5,1
					C239.5,478.4,239.5,475.4,239.9,474.1 M254.3,499.5c-0.7-1-0.6-4-0.4-5.4c1.1-1.8,2.6-3.3,4.4-4.4c0.7-0.7,1.5-1.2,2.4-1.6
					c1.2-0.6,2.2-1.6,2.8-2.8c1.5-3.5-2.2-5.1-5.3-5.6c-2.6-0.4-4.9,0.2-4.1-3.2c0.3-2.7,1.4-5.3,3.2-7.4c1.3-0.4,2.7-0.5,4-0.3
					c0.7,0.1,1.5,0.2,2.2,0.1c4.4,0,3.1,4.2,3.6,8c-1.4,3.2-0.6,25.7-7.1,25.2c-0.2,0-0.4,0-0.5,0
					C257.6,502.2,256.1,500.4,254.3,499.5 M253.3,469.4c-3.1-1.9-6.1-7.3-14.6,1.3c-2.3,3.2-1.1,7-1.5,10.5
					c-5.6,8.3-14.1,18.9-8.9,29.5c3.9,8.2,7.8,16,12.3,23.7c2.6,4.3,6.3,7.5,7.1,12.9c0.6,10.2-0.4,20.2-0.3,30.4
					c0.2,0.8-0.3,4.7-0.2,7.8h2.5c-0.5-10.8,1.3-21.6,0.5-32.4c0-2.3-0.8-5.4-0.1-7.5c0.6-0.2,1.3-0.3,2-0.1c0.6,0.1,1.2,0.1,1.9,0
					c1.3-0.9-1.9-1.8-2.4-2.5c-8.3-5.6-12.6-16.7-18.3-27.4c-2.1-4.6-5.6-9.4-4.4-14.8c2.5-7.8,6.4-15.2,12.8-19.9
					c1.5-0.5,11.3-2.4,9.5,2.7c-0.7,4.4,2.7,3.1,6.1,4.3c-2.1,2.1-8.4,3.3-12.3,2.8c-0.6-0.1-1.2-0.4-1.8-0.7c-1-0.5-2-1.1-2.4-0.5
					c-0.1,2,2.8,2.4,2.8,4.3c-1.8,5.3-6.7,9.6-7.1,15.1c2.1-1.3,2.4-4.4,4.3-5.9c0.6,2-0.8,6.4,1.9,6.7c0.9-1.6-0.5-7.5,1.6-7.5
					c3.8,0.6,4,0.7,8-1.1c6.9,1.8,9.4,13.2,10.1,20.9c0.4,1.7-0.7,3.5,0.7,4.5c0.8-8.1,1.5-10.8-2.3-21.2c-1-1.5,3.6-2.3,4.5-1.8
					c3.5,4,5,2.2,11.3,11.6c3.3,0.4-1.3-4.6-2-5.7c-2-2.3-0.7-3.9,2.4-4.3c1.8,3.1,4.2,3.4,7.7,3.9c0.7-0.1,1.7,0,2.5-0.2
					c-2.7,11.3-6.4,23.7-7.4,31.2c-1.2,4.4-4.5,3.3-6.3,5.7c1.2,0.6,2.6,0.8,3.9,0.5c2.5-0.7,0-1.3-0.2,35.3c0,1.3,0,2.6-0.1,3.9
					h2.4c-0.2-9.8,0.4-20.7,0.4-21.9c-0.6-21.7,5.2-40.3,8.8-50.7c0.6-2.7,3.5-13.7,3.6-18.5s-1.5-16-9-14.5c-1-8-6-11.7-13.2-7.7
					c-1.7-1.7-0.6-3.8-4.9-5.9c-0.9-0.4-2-0.6-3-0.5C259.2,465.8,255.3,466.8,253.3,469.4"/>
			</defs>
			<clipPath id="SVGID_31_">
				<use xlink:href="#SVGID_30_"  style="overflow:visible;"/>
			</clipPath>
			<g class="st20">
				
					<radialGradient id="SVGID_32_" cx="-913.371" cy="-2816.8735" r="1.0003" gradientTransform="matrix(48.4934 16.3953 16.3953 -48.4934 90726.8516 -121081.3984)" gradientUnits="userSpaceOnUse">
					<stop  offset="0" style="stop-color:#FF2639"/>
					<stop  offset="0.29" style="stop-color:#EA1D2C"/>
					<stop  offset="0.9" style="stop-color:#B3040A"/>
					<stop  offset="1" style="stop-color:#A90004"/>
				</radialGradient>
				<polygon class="st21" points="185.7,572.9 230.2,441.2 329.7,474.8 285.1,606.5 				"/>
			</g>
		</g>
		<g>
			<defs>
				<path id="SVGID_33_" d="M20.6,531.1c1.4-6.8,9.1-9,15.2-8.6c6.6,1.9,10.8,9.6,7.7,16.1c-2.2,5.3-6.4,7.5-10.6,7.5
					C25.5,546.1,17.9,539.4,20.6,531.1 M22.4,519.4c-10.2,6.9-8.8,18.7-7.1,21.5c2.5,4,4.4,6.5,8.2,8.8c2.2,1.3,5.2,0.7,4.6,4.1
					c-0.1,2-0.7,1.8-2.8,1.8c-7.4-0.5-5.1,6.2-3.9,7.3c1.1,0.3,2.2,0.4,3.4,0.3c1.5,0,2.9-0.1,3.2,0.7c0.3,4.7-1.1,8.9,4.2,8.2
					c5.5,0.7,2-7,4.3-9c0.7,0,1.3,0,2,0.1c1.4,0.2,2.8,0.4,4-0.5c0.8-0.6,1.2-1.5,1.2-2.5c0.4-4.8-2.7-4.8-5.1-4.7
					c-2,0-3.6,0-2.7-2.5c0.4-1.1,1.2-2,2.3-2.4c9.6-4.1,12.5-9.7,12.2-18.6c0.5-9.9-8.6-15.6-17.6-15.6
					C29.1,516.4,25.5,517.4,22.4,519.4"/>
			</defs>
			<clipPath id="SVGID_34_">
				<use xlink:href="#SVGID_33_"  style="overflow:visible;"/>
			</clipPath>
			<g class="st22">
				
					<radialGradient id="SVGID_35_" cx="-887.9105" cy="-2804.2798" r="1" gradientTransform="matrix(23.53 0 0 -23.53 20924.7695 -65440.6016)" gradientUnits="userSpaceOnUse">
					<stop  offset="0" style="stop-color:#FF2639"/>
					<stop  offset="0.29" style="stop-color:#EA1D2C"/>
					<stop  offset="0.9" style="stop-color:#B3040A"/>
					<stop  offset="1" style="stop-color:#A90004"/>
				</radialGradient>
				<rect x="12.1" y="516.4" class="st23" width="38.7" height="56.4"/>
			</g>
		</g>
		<g>
			<defs>
				<path id="SVGID_36_" d="M396,391.7c1.4-6.8,9.1-9,15.2-8.6c6.6,1.9,10.8,9.6,7.7,16.1c-2.2,5.3-6.4,7.5-10.6,7.5l0,0
					C400.9,406.8,393.3,400,396,391.7 M397.8,380c-10.2,6.9-8.8,18.7-7.1,21.5c2.5,4,4.4,6.5,8.2,8.8c2.1,1.3,5.1,0.6,4.6,4.1
					c-0.1,2-0.7,1.8-2.8,1.8c-7.4-0.5-5.1,6.2-3.9,7.3c1.1,0.3,2.2,0.4,3.4,0.3c1.5,0,2.9-0.1,3.2,0.8c0.3,4.7-1.1,8.9,4.2,8.2
					c5.5,0.7,2-7,4.3-9c0.7,0,1.3,0,2,0.1c1.4,0.2,2.8,0.4,4-0.5c0.8-0.6,1.2-1.5,1.2-2.5c0.4-4.8-2.7-4.8-5.1-4.7
					c-2,0-3.6,0-2.7-2.5c0.4-1.1,1.2-2,2.3-2.4c3.4-1.3,6.4-3.3,8.7-6v-22.4c-3.4-3.8-8.8-5.8-14.2-5.8
					C404.5,377,400.9,378,397.8,380"/>
			</defs>
			<clipPath id="SVGID_37_">
				<use xlink:href="#SVGID_36_"  style="overflow:visible;"/>
			</clipPath>
			<g class="st24">
				
					<radialGradient id="SVGID_38_" cx="-887.9105" cy="-2804.2798" r="1" gradientTransform="matrix(23.53 0 0 -23.53 21300.1309 -65579.9922)" gradientUnits="userSpaceOnUse">
					<stop  offset="0" style="stop-color:#FF2639"/>
					<stop  offset="0.29" style="stop-color:#EA1D2C"/>
					<stop  offset="0.9" style="stop-color:#B3040A"/>
					<stop  offset="1" style="stop-color:#A90004"/>
				</radialGradient>
				<rect x="387.5" y="377" class="st25" width="34.8" height="56.4"/>
			</g>
		</g>
		<g>
			<defs>
				<path id="SVGID_39_" d="M174.9,531.1c1.4-6.8,9.1-9,15.2-8.6c6.6,1.9,10.8,9.6,7.7,16.1c-2.2,5.3-6.4,7.5-10.6,7.5
					C179.8,546.1,172.2,539.4,174.9,531.1 M176.7,519.4c-10.2,6.9-8.8,18.7-7.1,21.5c2.5,4,4.4,6.5,8.2,8.8c2.1,1.3,5.1,0.7,4.6,4.1
					c-0.1,2-0.7,1.8-2.8,1.8c-7.4-0.5-5.1,6.2-3.9,7.3c1.1,0.3,2.2,0.4,3.4,0.3c1.5,0,2.9-0.1,3.2,0.7c0.3,4.7-1.1,8.9,4.2,8.2
					c5.5,0.7,2-7,4.4-9c0.7,0,1.3,0,2,0.1c1.4,0.2,2.9,0.4,4-0.5c0.8-0.6,1.2-1.5,1.2-2.5c0.4-4.8-2.7-4.8-5.1-4.7
					c-2,0-3.6,0-2.7-2.5c0.4-1.1,1.2-2,2.3-2.4c9.6-4.1,12.5-9.7,12.1-18.6c0.5-9.9-8.6-15.6-17.6-15.6
					C183.4,516.4,179.8,517.4,176.7,519.4"/>
			</defs>
			<clipPath id="SVGID_40_">
				<use xlink:href="#SVGID_39_"  style="overflow:visible;"/>
			</clipPath>
			<g class="st26">
				
					<radialGradient id="SVGID_41_" cx="-887.9105" cy="-2804.2798" r="1" gradientTransform="matrix(23.53 0 0 -23.53 21079.0801 -65440.6016)" gradientUnits="userSpaceOnUse">
					<stop  offset="0" style="stop-color:#FF2639"/>
					<stop  offset="0.29" style="stop-color:#EA1D2C"/>
					<stop  offset="0.9" style="stop-color:#B3040A"/>
					<stop  offset="1" style="stop-color:#A90004"/>
				</radialGradient>
				<rect x="166.4" y="516.4" class="st27" width="38.7" height="56.4"/>
			</g>
		</g>
		<g>
			<defs>
				<path id="SVGID_42_" d="M322,531.1c1.4-6.8,9.1-9,15.2-8.6c6.6,1.9,10.8,9.6,7.7,16.1c-2.2,5.3-6.4,7.5-10.6,7.5
					C326.9,546.1,319.3,539.4,322,531.1 M323.8,519.4c-10.2,6.9-8.8,18.7-7.1,21.5c2.5,4,4.4,6.5,8.2,8.8c2.1,1.3,5.2,0.7,4.6,4.1
					c-0.1,2-0.7,1.8-2.8,1.8c-7.4-0.5-5.1,6.2-3.9,7.3c1.1,0.3,2.2,0.4,3.4,0.3c1.5,0,2.9-0.1,3.2,0.7c0.3,4.7-1.1,8.9,4.2,8.2
					c5.5,0.7,2-7,4.3-9c0.7,0,1.3,0,2,0.1c1.4,0.2,2.8,0.4,4-0.5c0.8-0.6,1.2-1.5,1.2-2.5c0.4-4.8-2.7-4.8-5.1-4.7
					c-2,0-3.6,0-2.7-2.5c0.4-1.1,1.2-2,2.3-2.4c9.6-4.1,12.5-9.7,12.2-18.6c0.5-9.9-8.6-15.6-17.6-15.6
					C330.4,516.4,326.8,517.4,323.8,519.4"/>
			</defs>
			<clipPath id="SVGID_43_">
				<use xlink:href="#SVGID_42_"  style="overflow:visible;"/>
			</clipPath>
			<g class="st28">
				
					<radialGradient id="SVGID_44_" cx="-887.9105" cy="-2804.2798" r="1" gradientTransform="matrix(23.53 0 0 -23.53 21226.1406 -65440.6016)" gradientUnits="userSpaceOnUse">
					<stop  offset="0" style="stop-color:#FF2639"/>
					<stop  offset="0.29" style="stop-color:#EA1D2C"/>
					<stop  offset="0.9" style="stop-color:#B3040A"/>
					<stop  offset="1" style="stop-color:#A90004"/>
				</radialGradient>
				<rect x="313.5" y="516.4" class="st29" width="38.7" height="56.4"/>
			</g>
		</g>
		<g>
			<defs>
				<path id="SVGID_45_" d="M349.6,210.5c0.6-0.1,1.2,0.3,1.3,0.9c0.1,0.4-0.1,0.9-0.5,1.1l-34.2,13.6c-0.2,0.1-0.3,0.1-0.5,0.1"/>
			</defs>
			<defs>
				<path id="SVGID_46_" d="M315.7,226.2c-0.3,0-0.6-0.2-0.8-0.4c-0.3-0.4-0.3-0.9-0.1-1.3l17-29.8c0.3-0.5,1-0.7,1.5-0.4
					c0.5,0.3,0.7,0.9,0.4,1.5l-15.4,27"/>
			</defs>
			<clipPath id="SVGID_47_">
				<use xlink:href="#SVGID_45_"  style="overflow:visible;"/>
			</clipPath>
			<clipPath id="SVGID_48_" class="st30">
				<use xlink:href="#SVGID_46_"  style="overflow:visible;"/>
			</clipPath>
			<g class="st31">
				<g>
					<defs>
						<rect id="SVGID_49_" x="314.6" y="194.1" width="36.6" height="32.1"/>
					</defs>
					<clipPath id="SVGID_50_">
						<use xlink:href="#SVGID_49_"  style="overflow:visible;"/>
					</clipPath>
					<g class="st32">
						
							<radialGradient id="SVGID_51_" cx="-874.1016" cy="-2792.3018" r="1" gradientTransform="matrix(17.11 0 0 -17.11 15287.1504 -47552.1484)" gradientUnits="userSpaceOnUse">
							<stop  offset="0" style="stop-color:#FF2639"/>
							<stop  offset="0.29" style="stop-color:#EA1D2C"/>
							<stop  offset="0.9" style="stop-color:#B3040A"/>
							<stop  offset="1" style="stop-color:#A90004"/>
						</radialGradient>
						<rect x="314.6" y="194.1" class="st33" width="36.6" height="32.1"/>
					</g>
				</g>
			</g>
		</g>
		<g>
			<defs>
				<path id="SVGID_52_" d="M341.6,182.7c-0.1,0-0.1,0-0.2,0 M360,155l-16.3,25.3"/>
			</defs>
			<clipPath id="SVGID_53_">
				<use xlink:href="#SVGID_52_"  style="overflow:visible;"/>
			</clipPath>
			<g class="st34">
				<g>
					<defs>
						<line id="SVGID_54_" x1="340.4" y1="182.7" x2="340.4" y2="152.6"/>
					</defs>
					<clipPath id="SVGID_55_">
						<use xlink:href="#SVGID_54_"  style="overflow:visible;"/>
					</clipPath>
					<g class="st35">
						<line class="st36" x1="340.4" y1="152.6" x2="340.4" y2="182.7"/>
					</g>
				</g>
			</g>
		</g>
		<g>
			<defs>
				<path id="SVGID_56_" d="M354.9,216.7c-0.2,0.1-0.3,0.1-0.5,0.1 M340.5,182c-0.1-0.3-0.1-0.7,0.1-1 M354.4,216.8
					c-0.1,0-0.2,0-0.3-0.1c-0.3-0.1-0.5-0.3-0.6-0.6"/>
			</defs>
			<clipPath id="SVGID_57_">
				<use xlink:href="#SVGID_56_"  style="overflow:visible;"/>
			</clipPath>
			<g class="st37">
				<g>
					<defs>
						<line id="SVGID_58_" x1="340.4" y1="216.8" x2="340.4" y2="170.8"/>
					</defs>
					<clipPath id="SVGID_59_">
						<use xlink:href="#SVGID_58_"  style="overflow:visible;"/>
					</clipPath>
					<g class="st38">
						<line class="st36" x1="340.4" y1="170.8" x2="340.4" y2="216.8"/>
					</g>
				</g>
			</g>
		</g>
		<g>
			<defs>
				<path id="SVGID_60_" d="M317.7,42.8c0.1-0.5,0.6-0.7,1.1-0.6c0.5,0.1,0.7,0.6,0.6,1.1l0,0l-11.9,39.5c-0.1,0.4-0.4,0.6-0.8,0.6"
					/>
			</defs>
			<defs>
				<path id="SVGID_61_" d="M306.6,83.4c-0.1,0-0.2,0-0.3,0c-0.5-0.1-0.7-0.6-0.6-1.1"/>
			</defs>
			<clipPath id="SVGID_62_">
				<use xlink:href="#SVGID_60_"  style="overflow:visible;"/>
			</clipPath>
			<clipPath id="SVGID_63_" class="st39">
				<use xlink:href="#SVGID_61_"  style="overflow:visible;"/>
			</clipPath>
			<g class="st40">
				<g>
					<defs>
						<rect id="SVGID_64_" x="305.6" y="42.1" width="13.8" height="41.3"/>
					</defs>
					<clipPath id="SVGID_65_">
						<use xlink:href="#SVGID_64_"  style="overflow:visible;"/>
					</clipPath>
					<g class="st41">
						
							<radialGradient id="SVGID_66_" cx="-868.3067" cy="-2787.271" r="1" gradientTransform="matrix(15.35 0 0 -15.35 13638.96 -42705.1289)" gradientUnits="userSpaceOnUse">
							<stop  offset="0" style="stop-color:#FF2639"/>
							<stop  offset="0.29" style="stop-color:#EA1D2C"/>
							<stop  offset="0.9" style="stop-color:#B3040A"/>
							<stop  offset="1" style="stop-color:#A90004"/>
						</radialGradient>
						<rect x="305.6" y="42.1" class="st42" width="13.8" height="41.3"/>
					</g>
				</g>
			</g>
		</g>
		<g>
			<defs>
				<path id="SVGID_67_" d="M372.6,86.3c0.5,0,0.8,0.4,0.8,0.9c0,0,0,0,0,0c0,0.5-0.4,0.8-0.9,0.8"/>
			</defs>
			<defs>
				<path id="SVGID_68_" d="M372.5,88l-66-4.6c-0.5,0-0.8-0.4-0.8-0.9c0-0.2,0.1-0.5,0.3-0.6l31-24c0.3-0.4,0.9-0.4,1.2-0.1
					s0.4,0.9,0.1,1.2c-0.1,0.1-0.2,0.2-0.3,0.2l-29.1,22.6"/>
			</defs>
			<clipPath id="SVGID_69_">
				<use xlink:href="#SVGID_67_"  style="overflow:visible;"/>
			</clipPath>
			<clipPath id="SVGID_70_" class="st43">
				<use xlink:href="#SVGID_68_"  style="overflow:visible;"/>
			</clipPath>
			<g class="st44">
				<g>
					<defs>
						<rect id="SVGID_71_" x="305.6" y="57.6" width="67.8" height="30.4"/>
					</defs>
					<clipPath id="SVGID_72_">
						<use xlink:href="#SVGID_71_"  style="overflow:visible;"/>
					</clipPath>
					<g class="st45">
						
							<radialGradient id="SVGID_73_" cx="-891.684" cy="-2807.5486" r="1" gradientTransform="matrix(26.22 0 0 -26.22 23718.3496 -73532.8281)" gradientUnits="userSpaceOnUse">
							<stop  offset="0" style="stop-color:#FF2639"/>
							<stop  offset="0.29" style="stop-color:#EA1D2C"/>
							<stop  offset="0.9" style="stop-color:#B3040A"/>
							<stop  offset="1" style="stop-color:#A90004"/>
						</radialGradient>
						<rect x="305.6" y="57.6" class="st46" width="67.8" height="30.4"/>
					</g>
				</g>
			</g>
		</g>
		<g>
			<defs>
				<path id="SVGID_74_" d="M328.4,489l30-2.6c0.6,0,1.1,0.4,1.1,1c0,0.6-0.4,1.1-1,1.1l-34.2,3c-0.1,0-0.2,0-0.3,0"/>
			</defs>
			<defs>
				<path id="SVGID_75_" d="M324.2,491.5c-0.4-0.1-0.7-0.3-0.8-0.7c-0.2-0.5,0-1,0.4-1.3l23.9-16.5c0.5-0.4,1.2-0.3,1.5,0.1
					c0.4,0.5,0.3,1.2-0.1,1.5c0,0-0.1,0.1-0.2,0.1"/>
			</defs>
			<clipPath id="SVGID_76_">
				<use xlink:href="#SVGID_74_"  style="overflow:visible;"/>
			</clipPath>
			<clipPath id="SVGID_77_" class="st47">
				<use xlink:href="#SVGID_75_"  style="overflow:visible;"/>
			</clipPath>
			<g class="st48">
				<g>
					<defs>
						<rect id="SVGID_78_" x="323.2" y="472.7" width="36.5" height="18.8"/>
					</defs>
					<clipPath id="SVGID_79_">
						<use xlink:href="#SVGID_78_"  style="overflow:visible;"/>
					</clipPath>
					<g class="st49">
						
							<radialGradient id="SVGID_80_" cx="-864.9357" cy="-2784.3586" r="1" gradientTransform="matrix(14.48 0 0 -14.48 12866.5498 -39842.6797)" gradientUnits="userSpaceOnUse">
							<stop  offset="0" style="stop-color:#FF2639"/>
							<stop  offset="0.29" style="stop-color:#EA1D2C"/>
							<stop  offset="0.9" style="stop-color:#B3040A"/>
							<stop  offset="1" style="stop-color:#A90004"/>
						</radialGradient>
						<rect x="323.2" y="472.7" class="st50" width="36.5" height="18.8"/>
					</g>
				</g>
			</g>
		</g>
		<g>
			<defs>
				<path id="SVGID_81_" d="M374.8,509.5c-0.2,0.1-0.4,0.1-0.6,0 M374.2,509.5c-0.3-0.1-0.5-0.2-0.7-0.4l-26.1-34.5
					c-0.3-0.3-0.3-0.8-0.1-1.2c0.2-0.4,0.6-0.6,1-0.6 M350.6,475.1l24.2,32"/>
			</defs>
			<clipPath id="SVGID_82_">
				<use xlink:href="#SVGID_81_"  style="overflow:visible;"/>
			</clipPath>
			<g class="st51">
				<g>
					<defs>
						<line id="SVGID_83_" x1="347.1" y1="509.6" x2="347.1" y2="472.8"/>
					</defs>
					<clipPath id="SVGID_84_">
						<use xlink:href="#SVGID_83_"  style="overflow:visible;"/>
					</clipPath>
					<g class="st52">
						<line class="st36" x1="347.1" y1="472.8" x2="347.1" y2="509.6"/>
					</g>
				</g>
			</g>
		</g>
		<g>
			<defs>
				<path id="SVGID_85_" d="M337,459.8c-0.3-0.1-0.5-0.2-0.7-0.4L317,432.7c-0.4-0.5-0.2-1.2,0.3-1.5c0.3-0.2,0.7-0.3,1-0.1
					 M320.8,434.2l17.1,23.5"/>
			</defs>
			<clipPath id="SVGID_86_">
				<use xlink:href="#SVGID_85_"  style="overflow:visible;"/>
			</clipPath>
			<g class="st53">
				<g>
					<defs>
						<line id="SVGID_87_" x1="316.7" y1="480.4" x2="316.7" y2="430.9"/>
					</defs>
					<clipPath id="SVGID_88_">
						<use xlink:href="#SVGID_87_"  style="overflow:visible;"/>
					</clipPath>
					<g class="st54">
						<line class="st36" x1="316.7" y1="430.9" x2="316.7" y2="480.4"/>
					</g>
				</g>
			</g>
		</g>
		<g>
			<defs>
				<path id="SVGID_89_" d="M388,288.1c-0.2,0-0.4,0-0.5-0.1c-0.8-0.3-1.1-1.2-0.8-1.9c0.5-1.3,1-2.6,1.6-3.9
					c0.3-0.8,1.1-1.2,1.9-0.9c0.8,0.3,1.2,1.1,0.9,1.9c0,0.1,0,0.1-0.1,0.2c-0.5,1.3-1.1,2.5-1.6,3.8
					C389.2,287.7,388.6,288.1,388,288.1"/>
			</defs>
			<clipPath id="SVGID_90_">
				<use xlink:href="#SVGID_89_"  style="overflow:visible;"/>
			</clipPath>
			<g class="st55">
				<g>
					<defs>
						<rect id="SVGID_91_" x="386.3" y="281.1" width="4.9" height="7"/>
					</defs>
					<clipPath id="SVGID_92_">
						<use xlink:href="#SVGID_91_"  style="overflow:visible;"/>
					</clipPath>
					<g class="st56">
						
							<radialGradient id="SVGID_93_" cx="-626.1345" cy="-2577.0569" r="1" gradientTransform="matrix(2.9 0 0 -2.9 2203.49 -7177.5386)" gradientUnits="userSpaceOnUse">
							<stop  offset="0" style="stop-color:#FF2639"/>
							<stop  offset="0.29" style="stop-color:#EA1D2C"/>
							<stop  offset="0.9" style="stop-color:#B3040A"/>
							<stop  offset="1" style="stop-color:#A90004"/>
						</radialGradient>
						<rect x="386.3" y="281.1" class="st57" width="4.9" height="7"/>
					</g>
				</g>
			</g>
		</g>
	</g>
</g>
</svg>
