<?xml version="1.0" encoding="utf-8"?>
<!-- Generator: Adobe Illustrator 23.1.0, SVG Export Plug-In . SVG Version: 6.00 Build 0)  -->
<svg version="1.1" id="Layer_1" xmlns="http://www.w3.org/2000/svg" xmlns:xlink="http://www.w3.org/1999/xlink" x="0px" y="0px"
	 viewBox="0 0 422.3 585.5" style="enable-background:new 0 0 422.3 585.5;" xml:space="preserve">
<style type="text/css">
	.st0{clip-path:url(#SVGID_2_);}
	.st1{fill:url(#SVGID_3_);}
	.st2{clip-path:url(#SVGID_5_);}
	.st3{fill:url(#SVGID_6_);}
	.st4{clip-path:url(#SVGID_8_);}
	.st5{fill:url(#SVGID_9_);}
	.st6{clip-path:url(#SVGID_11_);}
	.st7{fill:#F3F3F3;}
	.st8{fill:none;}
	.st9{clip-path:url(#SVGID_13_);}
	.st10{fill:url(#SVGID_14_);}
	.st11{clip-path:url(#SVGID_16_);}
	.st12{fill:url(#SVGID_17_);}
	.st13{clip-path:url(#SVGID_19_);}
	.st14{fill:url(#SVGID_20_);}
	.st15{clip-path:url(#SVGID_22_);}
	.st16{fill:url(#SVGID_23_);}
	.st17{clip-path:url(#SVGID_25_);}
	.st18{fill:url(#SVGID_26_);}
	.st19{clip-path:url(#SVGID_28_);}
	.st20{fill:url(#SVGID_29_);}
	.st21{clip-path:url(#SVGID_31_);}
	.st22{fill:url(#SVGID_32_);}
	.st23{clip-path:url(#SVGID_34_);}
	.st24{fill:url(#SVGID_35_);}
	.st25{clip-path:url(#SVGID_37_);}
	.st26{fill:url(#SVGID_38_);}
	.st27{clip-path:url(#SVGID_40_);}
	.st28{clip-path:url(#SVGID_42_);}
	.st29{clip-path:url(#SVGID_44_);}
	.st30{fill:url(#SVGID_45_);}
	.st31{clip-path:url(#SVGID_47_);}
	.st32{fill:url(#SVGID_48_);}
	.st33{clip-path:url(#SVGID_50_);}
	.st34{fill:url(#SVGID_51_);}
	.st35{clip-path:url(#SVGID_53_);}
	.st36{fill:url(#SVGID_54_);}
	.st37{clip-path:url(#SVGID_56_);}
	.st38{fill:url(#SVGID_57_);}
	.st39{clip-path:url(#SVGID_59_);}
	.st40{fill:url(#SVGID_60_);}
	.st41{clip-path:url(#SVGID_62_);}
	.st42{fill:url(#SVGID_63_);}
	.st43{clip-path:url(#SVGID_65_);}
	.st44{fill:url(#SVGID_66_);}
	.st45{clip-path:url(#SVGID_68_);}
	.st46{fill:url(#SVGID_69_);}
	.st47{clip-path:url(#SVGID_71_);}
	.st48{fill:url(#SVGID_72_);}
	.st49{clip-path:url(#SVGID_74_);}
	.st50{fill:url(#SVGID_75_);}
	.st51{clip-path:url(#SVGID_77_);}
	.st52{fill:url(#SVGID_78_);}
	.st53{clip-path:url(#SVGID_80_);}
	.st54{fill:url(#SVGID_81_);}
	.st55{clip-path:url(#SVGID_83_);}
	.st56{fill:url(#SVGID_84_);}
	.st57{clip-path:url(#SVGID_86_);}
	.st58{fill:url(#SVGID_87_);}
	.st59{clip-path:url(#SVGID_89_);}
	.st60{fill:url(#SVGID_90_);}
	.st61{clip-path:url(#SVGID_92_);}
	.st62{fill:url(#SVGID_93_);}
	.st63{clip-path:url(#SVGID_95_);}
	.st64{fill:url(#SVGID_96_);}
	.st65{clip-path:url(#SVGID_98_);}
	.st66{fill:url(#SVGID_99_);}
	.st67{clip-path:url(#SVGID_101_);}
	.st68{fill:url(#SVGID_102_);}
	.st69{clip-path:url(#SVGID_104_);}
	.st70{clip-path:url(#SVGID_106_);}
	.st71{clip-path:url(#SVGID_108_);}
	.st72{fill:url(#SVGID_109_);}
	.st73{clip-path:url(#SVGID_111_);}
	.st74{fill:url(#SVGID_112_);}
	.st75{clip-path:url(#SVGID_114_);}
	.st76{fill:url(#SVGID_115_);}
	.st77{clip-path:url(#SVGID_117_);}
	.st78{fill:url(#SVGID_118_);}
	.st79{clip-path:url(#SVGID_120_);}
	.st80{fill:url(#SVGID_121_);}
	.st81{clip-path:url(#SVGID_123_);}
	.st82{fill:url(#SVGID_124_);}
	.st83{clip-path:url(#SVGID_126_);}
	.st84{clip-path:url(#SVGID_128_);}
	.st85{clip-path:url(#SVGID_130_);}
	.st86{fill:url(#SVGID_131_);}
	.st87{clip-path:url(#SVGID_133_);}
	.st88{fill:url(#SVGID_134_);}
	.st89{clip-path:url(#SVGID_136_);}
	.st90{fill:url(#SVGID_137_);}
	.st91{clip-path:url(#SVGID_139_);}
	.st92{fill:url(#SVGID_140_);}
	.st93{clip-path:url(#SVGID_142_);}
	.st94{fill:url(#SVGID_143_);}
	.st95{clip-path:url(#SVGID_145_);}
	.st96{fill:url(#SVGID_146_);}
	.st97{clip-path:url(#SVGID_148_);}
	.st98{clip-path:url(#SVGID_150_);}
	.st99{clip-path:url(#SVGID_152_);}
	.st100{fill:url(#SVGID_153_);}
	.st101{clip-path:url(#SVGID_155_);}
	.st102{fill:url(#SVGID_156_);}
	.st103{clip-path:url(#SVGID_158_);}
	.st104{clip-path:url(#SVGID_160_);}
	.st105{clip-path:url(#SVGID_162_);}
	.st106{fill:url(#SVGID_163_);}
</style>
<title>Asset 5</title>
<g>
	<g id="Layer_1-2">
		<g>
			<defs>
				<path id="SVGID_1_" d="M399.8,117.1L399.8,117.1c0.5,1.3,1,2.6,1.5,3.8c0.1,0.3,0.4,0.6,0.7,0.8
					C401.3,120.2,400.6,118.6,399.8,117.1z"/>
			</defs>
			<clipPath id="SVGID_2_">
				<use xlink:href="#SVGID_1_"  style="overflow:visible;"/>
			</clipPath>
			<g class="st0">
				
					<radialGradient id="SVGID_3_" cx="-807.2007" cy="-2609.5674" r="1" gradientTransform="matrix(2.89 0 0 -2.89 2737.0938 -7439.2598)" gradientUnits="userSpaceOnUse">
					<stop  offset="0" style="stop-color:#FF2639"/>
					<stop  offset="0.29" style="stop-color:#EA1D2C"/>
					<stop  offset="0.9" style="stop-color:#B3040A"/>
					<stop  offset="1" style="stop-color:#A90004"/>
				</radialGradient>
				<rect x="399.8" y="117.1" class="st1" width="2.3" height="4.6"/>
			</g>
		</g>
		<g>
			<defs>
				<path id="SVGID_4_" d="M420.9,342.8c-0.3,0.8,0.1,1.6,0.8,1.9c0,0,0,0,0,0l0.4,0.2v-3C421.6,341.9,421.1,342.3,420.9,342.8"/>
			</defs>
			<clipPath id="SVGID_5_">
				<use xlink:href="#SVGID_4_"  style="overflow:visible;"/>
			</clipPath>
			<g class="st2">
				
					<radialGradient id="SVGID_6_" cx="-807.7217" cy="-2610.4026" r="1" gradientTransform="matrix(2.9 0 0 -2.9 2768.238 -7237.4194)" gradientUnits="userSpaceOnUse">
					<stop  offset="0" style="stop-color:#FF2639"/>
					<stop  offset="0.29" style="stop-color:#EA1D2C"/>
					<stop  offset="0.9" style="stop-color:#B3040A"/>
					<stop  offset="1" style="stop-color:#A90004"/>
				</radialGradient>
				<rect x="420.6" y="341.8" class="st3" width="1.5" height="3"/>
			</g>
		</g>
		<g>
			<defs>
				<path id="SVGID_7_" d="M411.6,461.8c-0.4,0.7-0.2,1.6,0.5,2c2.2,1.4,3.6,2.1,3.7,2.1c0.2,0.1,0.4,0.2,0.7,0.2
					c0.8,0,1.5-0.7,1.5-1.5c0-0.6-0.3-1.1-0.8-1.3c0,0-1.4-0.7-3.5-2C412.9,460.9,412,461.1,411.6,461.8"/>
			</defs>
			<clipPath id="SVGID_8_">
				<use xlink:href="#SVGID_7_"  style="overflow:visible;"/>
			</clipPath>
			<g class="st4">
				
					<radialGradient id="SVGID_9_" cx="-809.2729" cy="-2612.8323" r="1" gradientTransform="matrix(2.93 0 0 -2.93 2785.1406 -7187.4199)" gradientUnits="userSpaceOnUse">
					<stop  offset="0" style="stop-color:#FF2639"/>
					<stop  offset="0.29" style="stop-color:#EA1D2C"/>
					<stop  offset="0.9" style="stop-color:#B3040A"/>
					<stop  offset="1" style="stop-color:#A90004"/>
				</radialGradient>
				<rect x="411.2" y="461.1" class="st5" width="7" height="5"/>
			</g>
		</g>
		<g>
			<defs>
				<path id="SVGID_10_" d="M0,211.1v374.4c0,1.9,1.5,0,3.4,0h415.4c1.9,0,3.4,1.9,3.4,0V211.1C422.3,94.5,327.8,0,211.1,0
					S0,94.5,0,211.1"/>
			</defs>
			<clipPath id="SVGID_11_">
				<use xlink:href="#SVGID_10_"  style="overflow:visible;"/>
			</clipPath>
			<g class="st6">
				<path class="st7" d="M211.1,0L211.1,0C94.6,0,0,94.5,0,211.1v374.4c0,1.9,1.5,0,3.4,0h415.4c1.9,0,3.4,1.9,3.4,0V211.1
					C422.3,94.5,327.8,0,211.1,0"/>
			</g>
		</g>
		<path class="st8" d="M0,211.1v374.4h420.5c0.9,0,1.6,0.9,1.6,0V211.9C422.1,95,327.5,0.3,210.7,0C94.3,0.3,0,94.7,0,211.1"/>
		<path class="st8" d="M0,211.1v374.4h420.5c0.9,0,1.6,0.9,1.6,0V211.9C422.1,95,327.5,0.3,210.7,0C94.3,0.3,0,94.7,0,211.1"/>
		<path class="st8" d="M0,211.1v374.4h420.5c0.9,0,1.6,0.9,1.6,0V211.9C422.1,95,327.5,0.3,210.7,0C94.3,0.3,0,94.7,0,211.1"/>
		<path class="st8" d="M0,211.1v374.4h420.5c0.9,0,1.6,0.9,1.6,0V211.9C422.1,95,327.5,0.3,210.7,0C94.3,0.3,0,94.7,0,211.1"/>
		<path class="st8" d="M0,211.1v374.4h420.5c0.9,0,1.6,0.9,1.6,0V211.9C422.1,95,327.5,0.3,210.7,0C94.3,0.3,0,94.7,0,211.1"/>
		<path class="st8" d="M0,211.1v374.4h420.5c0.9,0,1.6,0.9,1.6,0V211.9C422.1,95,327.5,0.3,210.7,0C94.3,0.3,0,94.7,0,211.1"/>
		<path class="st8" d="M0,211.1v374.4h420.5c0.9,0,1.6,0.9,1.6,0V211.9C422.1,95,327.5,0.3,210.7,0C94.3,0.3,0,94.7,0,211.1"/>
		<path class="st8" d="M0,211.1v374.4h420.5c0.9,0,1.6,0.9,1.6,0V211.9C422.1,95,327.5,0.3,210.7,0C94.3,0.3,0,94.7,0,211.1"/>
		<g>
			<defs>
				<path id="SVGID_12_" d="M88,39.6l17.7,18.7l-45.6,5.2c-0.8,0.9-1.7,1.7-2.5,2.6l50.6-5.8c0.6-0.1,1.1-0.6,1-1.3
					c0-0.2-0.1-0.5-0.3-0.7L89.9,38.2L88,39.6"/>
			</defs>
			<clipPath id="SVGID_13_">
				<use xlink:href="#SVGID_12_"  style="overflow:visible;"/>
			</clipPath>
			<g class="st9">
				
					<radialGradient id="SVGID_14_" cx="-951.3823" cy="-2884.8596" r="1" gradientTransform="matrix(61.23 0 0 -61.23 58293.957 -176605.1094)" gradientUnits="userSpaceOnUse">
					<stop  offset="0" style="stop-color:#FF2639"/>
					<stop  offset="0.29" style="stop-color:#EA1D2C"/>
					<stop  offset="0.9" style="stop-color:#B3040A"/>
					<stop  offset="1" style="stop-color:#A90004"/>
				</radialGradient>
				<rect x="57.7" y="38.2" class="st10" width="51.7" height="27.9"/>
			</g>
		</g>
		<g>
			<defs>
				<path id="SVGID_15_" d="M79.2,46.3l5.6,2.7l-6.2-2.3l-2,1.7l31.1,11.9c0.6,0.2,1.3-0.1,1.4-0.7c0.2-0.5-0.1-1.1-0.5-1.4
					L81.2,44.7L79.2,46.3"/>
			</defs>
			<clipPath id="SVGID_16_">
				<use xlink:href="#SVGID_15_"  style="overflow:visible;"/>
			</clipPath>
			<g class="st11">
				
					<radialGradient id="SVGID_17_" cx="-949.6701" cy="-2881.5774" r="1" gradientTransform="matrix(49.39 0 0 -49.39 46948.7539 -142284.7188)" gradientUnits="userSpaceOnUse">
					<stop  offset="0" style="stop-color:#FF2639"/>
					<stop  offset="0.29" style="stop-color:#EA1D2C"/>
					<stop  offset="0.9" style="stop-color:#B3040A"/>
					<stop  offset="1" style="stop-color:#A90004"/>
				</radialGradient>
				<rect x="76.7" y="44.7" class="st12" width="32.8" height="15.8"/>
			</g>
		</g>
		<g>
			<defs>
				<path id="SVGID_18_" d="M73.1,51.3l34.7,9c0.6,0.1,1.2-0.3,1.3-0.9c0.1-0.6-0.2-1.1-0.8-1.3l-33.2-8.5L73.1,51.3"/>
			</defs>
			<clipPath id="SVGID_19_">
				<use xlink:href="#SVGID_18_"  style="overflow:visible;"/>
			</clipPath>
			<g class="st13">
				
					<radialGradient id="SVGID_20_" cx="-949.6021" cy="-2881.4585" r="1" gradientTransform="matrix(49.02 0 0 -49.02 46596.8398 -141231.4063)" gradientUnits="userSpaceOnUse">
					<stop  offset="0" style="stop-color:#FF2639"/>
					<stop  offset="0.29" style="stop-color:#EA1D2C"/>
					<stop  offset="0.9" style="stop-color:#B3040A"/>
					<stop  offset="1" style="stop-color:#A90004"/>
				</radialGradient>
				<rect x="73.1" y="49.5" class="st14" width="36.3" height="10.9"/>
			</g>
		</g>
		<g>
			<defs>
				<path id="SVGID_21_" d="M30.3,577.6l-3.2,7.9h2.5l2.8-7c0.2-0.6-0.1-1.3-0.6-1.5c-0.1-0.1-0.3-0.1-0.4-0.1
					C30.9,576.9,30.5,577.2,30.3,577.6 M56.7,513.3c-0.4,0.1-0.7,0.3-0.8,0.7l-16.8,41.6c-0.2,0.6,0,1.3,0.6,1.5
					c0.6,0.2,1.3,0,1.5-0.6l0,0l16.1-40l65.3,69h3.1l-68-71.9c-0.2-0.2-0.5-0.3-0.8-0.3C56.8,513.2,56.8,513.2,56.7,513.3"/>
			</defs>
			<clipPath id="SVGID_22_">
				<use xlink:href="#SVGID_21_"  style="overflow:visible;"/>
			</clipPath>
			<g class="st15">
				
					<radialGradient id="SVGID_23_" cx="-951.3823" cy="-2884.8596" r="1" gradientTransform="matrix(61.23 0 0 -61.23 58330.5977 -176057.2031)" gradientUnits="userSpaceOnUse">
					<stop  offset="0" style="stop-color:#FF2639"/>
					<stop  offset="0.29" style="stop-color:#EA1D2C"/>
					<stop  offset="0.9" style="stop-color:#B3040A"/>
					<stop  offset="1" style="stop-color:#A90004"/>
				</radialGradient>
				<rect x="27.1" y="513.3" class="st16" width="98.7" height="72.3"/>
			</g>
		</g>
		<g>
			<defs>
				<path id="SVGID_24_" d="M40,554.9l-22.1,2.8c-0.5,0.1-0.9,0.5-1,1c-0.1,0.5,0.2,1,0.7,1.2l67,25.6H91l-68.3-26.1l17.3-2.2
					l57.7,28.3h5.2L40.7,555c-0.2-0.1-0.3-0.1-0.5-0.1L40,554.9"/>
			</defs>
			<clipPath id="SVGID_25_">
				<use xlink:href="#SVGID_24_"  style="overflow:visible;"/>
			</clipPath>
			<g class="st17">
				
					<radialGradient id="SVGID_26_" cx="-949.6701" cy="-2881.5774" r="1" gradientTransform="matrix(49.39 0 0 -49.39 46985.3945 -141736.7656)" gradientUnits="userSpaceOnUse">
					<stop  offset="0" style="stop-color:#FF2639"/>
					<stop  offset="0.29" style="stop-color:#EA1D2C"/>
					<stop  offset="0.9" style="stop-color:#B3040A"/>
					<stop  offset="1" style="stop-color:#A90004"/>
				</radialGradient>
				<rect x="16.8" y="554.9" class="st18" width="86.1" height="30.6"/>
			</g>
		</g>
		<g>
			<defs>
				<path id="SVGID_27_" d="M17.4,557.9c-0.5,0.4-0.7,1.1-0.3,1.6l13.3,19.3c0.1,0.1,0.2,0.2,0.3,0.3c0.1,0.1,0.2,0.1,0.3,0.1
					l24.6,6.3h9.2L32,577.1L19,558.2C18.6,557.6,17.9,557.5,17.4,557.9C17.4,557.9,17.4,557.9,17.4,557.9"/>
			</defs>
			<clipPath id="SVGID_28_">
				<use xlink:href="#SVGID_27_"  style="overflow:visible;"/>
			</clipPath>
			<g class="st19">
				
					<radialGradient id="SVGID_29_" cx="-949.6021" cy="-2881.4585" r="1" gradientTransform="matrix(49.02 0 0 -49.02 46633.4609 -140683.4063)" gradientUnits="userSpaceOnUse">
					<stop  offset="0" style="stop-color:#FF2639"/>
					<stop  offset="0.29" style="stop-color:#EA1D2C"/>
					<stop  offset="0.9" style="stop-color:#B3040A"/>
					<stop  offset="1" style="stop-color:#A90004"/>
				</radialGradient>
				<rect x="16.7" y="557.7" class="st20" width="48.1" height="27.8"/>
			</g>
		</g>
		<g>
			<defs>
				<path id="SVGID_30_" d="M360.8,284c-0.2,0.3-0.3,0.7-0.1,1l43.5,101.3c0.1,0.2,0.2,0.4,0.4,0.5c0.1,0.1,0.2,0.1,0.3,0.1
					c0.3,0,0.7-0.1,0.9-0.4l16.4-20.8v-3.1l-16.9,21.4L363.2,286l59.1,14.3v-2l-60.5-14.6h-0.2C361.3,283.7,361,283.8,360.8,284"/>
			</defs>
			<clipPath id="SVGID_31_">
				<use xlink:href="#SVGID_30_"  style="overflow:visible;"/>
			</clipPath>
			<g class="st21">
				
					<radialGradient id="SVGID_32_" cx="-950.16" cy="-2882.4993" r="1" gradientTransform="matrix(52.23 0 0 -52.23 50039.2461 -150211.8594)" gradientUnits="userSpaceOnUse">
					<stop  offset="0" style="stop-color:#FF2639"/>
					<stop  offset="0.29" style="stop-color:#EA1D2C"/>
					<stop  offset="0.9" style="stop-color:#B3040A"/>
					<stop  offset="1" style="stop-color:#A90004"/>
				</radialGradient>
				<rect x="360.6" y="283.7" class="st22" width="61.7" height="103.3"/>
			</g>
		</g>
		<g>
			<defs>
				<path id="SVGID_33_" d="M360.8,284c-0.3,0.4-0.2,1,0.2,1.3l61.3,50.1V333l-43.7-35.7l43.7,29.6v-2.3l-60.2-40.7
					c-0.2-0.1-0.3-0.2-0.5-0.2C361.3,283.7,361,283.8,360.8,284"/>
			</defs>
			<clipPath id="SVGID_34_">
				<use xlink:href="#SVGID_33_"  style="overflow:visible;"/>
			</clipPath>
			<g class="st23">
				
					<radialGradient id="SVGID_35_" cx="-947.869" cy="-2878.1211" r="1" gradientTransform="matrix(41.01 0 0 -41.01 39279.6016 -117728.2656)" gradientUnits="userSpaceOnUse">
					<stop  offset="0" style="stop-color:#FF2639"/>
					<stop  offset="0.29" style="stop-color:#EA1D2C"/>
					<stop  offset="0.9" style="stop-color:#B3040A"/>
					<stop  offset="1" style="stop-color:#A90004"/>
				</radialGradient>
				<rect x="360.5" y="283.7" class="st24" width="61.8" height="51.8"/>
			</g>
		</g>
		<g>
			<defs>
				<path id="SVGID_36_" d="M360.9,283.9c-0.3,0.4-0.3,1,0,1.4l61.4,63v-2.7l-60-61.6C361.9,283.6,361.3,283.6,360.9,283.9"/>
			</defs>
			<clipPath id="SVGID_37_">
				<use xlink:href="#SVGID_36_"  style="overflow:visible;"/>
			</clipPath>
			<g class="st25">
				
					<radialGradient id="SVGID_38_" cx="-947.8769" cy="-2878.1399" r="1" gradientTransform="matrix(41.04 0 0 -41.04 39306.7266 -117803.0859)" gradientUnits="userSpaceOnUse">
					<stop  offset="0" style="stop-color:#FF2639"/>
					<stop  offset="0.29" style="stop-color:#EA1D2C"/>
					<stop  offset="0.9" style="stop-color:#B3040A"/>
					<stop  offset="1" style="stop-color:#A90004"/>
				</radialGradient>
				<rect x="360.5" y="283.7" class="st26" width="61.8" height="64.6"/>
			</g>
		</g>
		<g>
			<defs>
				<path id="SVGID_39_" d="M0,211.1v374.4h420.5c0.9,0,1.6,0.9,1.6,0V211.9C422.1,95,327.5,0.3,210.7,0C94.3,0.3,0,94.7,0,211.1"/>
			</defs>
			<clipPath id="SVGID_40_">
				<use xlink:href="#SVGID_39_"  style="overflow:visible;"/>
			</clipPath>
			<g class="st27">
				<g>
					<defs>
						<path id="SVGID_41_" d="M426.4,83.4h-0.3c-0.5-0.1-0.7-0.6-0.6-1.1l11.9-39.5c0.1-0.5,0.6-0.7,1.1-0.6
							c0.5,0.1,0.7,0.6,0.6,1.1l0,0l-11.9,39.5C427.1,83.2,426.7,83.4,426.4,83.4"/>
					</defs>
					<clipPath id="SVGID_42_">
						<use xlink:href="#SVGID_41_"  style="overflow:visible;"/>
					</clipPath>
					<g class="st28">
						<g>
							<defs>
								<rect id="SVGID_43_" x="425.4" y="42.1" width="13.8" height="41.3"/>
							</defs>
							<clipPath id="SVGID_44_">
								<use xlink:href="#SVGID_43_"  style="overflow:visible;"/>
							</clipPath>
							<g class="st29">
								
									<radialGradient id="SVGID_45_" cx="-930.0397" cy="-2843.9956" r="1" gradientTransform="matrix(15.35 0 0 -15.35 14706.167 -43576.1016)" gradientUnits="userSpaceOnUse">
									<stop  offset="0" style="stop-color:#FF2639"/>
									<stop  offset="0.29" style="stop-color:#EA1D2C"/>
									<stop  offset="0.9" style="stop-color:#B3040A"/>
									<stop  offset="1" style="stop-color:#A90004"/>
								</radialGradient>
								<rect x="425.4" y="42.1" class="st30" width="13.8" height="41.3"/>
							</g>
						</g>
					</g>
				</g>
			</g>
		</g>
		<path class="st8" d="M0,211.1v374.4h420.5c0.9,0,1.6,0.9,1.6,0V211.9C422.1,95,327.5,0.3,210.7,0C94.3,0.3,0,94.7,0,211.1"/>
		<path class="st8" d="M0,211.1v374.4h420.5c0.9,0,1.6,0.9,1.6,0V211.9C422.1,95,327.5,0.3,210.7,0C94.3,0.3,0,94.7,0,211.1"/>
		<path class="st8" d="M0,211.1v374.4h420.5c0.9,0,1.6,0.9,1.6,0V211.9C422.1,95,327.5,0.3,210.7,0C94.3,0.3,0,94.7,0,211.1"/>
		<path class="st8" d="M0,211.1v374.4h420.5c0.9,0,1.6,0.9,1.6,0V211.9C422.1,95,327.5,0.3,210.7,0C94.3,0.3,0,94.7,0,211.1"/>
		<path class="st8" d="M0,211.1v374.4h420.5c0.9,0,1.6,0.9,1.6,0V211.9C422.1,95,327.5,0.3,210.7,0C94.3,0.3,0,94.7,0,211.1"/>
		<path class="st8" d="M0,211.1v374.4h420.5c0.9,0,1.6,0.9,1.6,0V211.9C422.1,95,327.5,0.3,210.7,0C94.3,0.3,0,94.7,0,211.1"/>
		<path class="st8" d="M0,211.1v374.4h420.5c0.9,0,1.6,0.9,1.6,0V211.9C422.1,95,327.5,0.3,210.7,0C94.3,0.3,0,94.7,0,211.1"/>
		<path class="st8" d="M0,211.1v374.4h420.5c0.9,0,1.6,0.9,1.6,0V211.9C422.1,95,327.5,0.3,210.7,0C94.3,0.3,0,94.7,0,211.1"/>
		<path class="st8" d="M0,211.1v374.4h420.5c0.9,0,1.6,0.9,1.6,0V211.9C422.1,95,327.5,0.3,210.7,0C94.3,0.3,0,94.7,0,211.1"/>
		<path class="st8" d="M0,211.1v374.4h420.5c0.9,0,1.6,0.9,1.6,0V211.9C422.1,95,327.5,0.3,210.7,0C94.3,0.3,0,94.7,0,211.1"/>
		<path class="st8" d="M0,211.1v374.4h420.5c0.9,0,1.6,0.9,1.6,0V211.9C422.1,95,327.5,0.3,210.7,0C94.3,0.3,0,94.7,0,211.1"/>
		<g>
			<defs>
				<path id="SVGID_46_" d="M14.4,278.8L0,279v2.2l13.3-0.2l-0.1,36.3c0,0.6,0.5,1.1,1.1,1.1c0.6,0,1.1-0.5,1.1-1.1l0.1-37.5
					c0-0.3-0.1-0.6-0.3-0.8l-0.1-0.1l0,0C14.9,278.9,14.7,278.8,14.4,278.8L14.4,278.8"/>
			</defs>
			<clipPath id="SVGID_47_">
				<use xlink:href="#SVGID_46_"  style="overflow:visible;"/>
			</clipPath>
			<g class="st31">
				
					<radialGradient id="SVGID_48_" cx="-961.8615" cy="-2877.739" r="1" gradientTransform="matrix(35.963 26.8157 26.8157 -35.963 111724.7891 -77405.9688)" gradientUnits="userSpaceOnUse">
					<stop  offset="0" style="stop-color:#FF2639"/>
					<stop  offset="0.29" style="stop-color:#EA1D2C"/>
					<stop  offset="0.9" style="stop-color:#B3040A"/>
					<stop  offset="1" style="stop-color:#A90004"/>
				</radialGradient>
				<polygon class="st32" points="-19,304.3 5.5,271.3 34.5,292.9 10,325.9 				"/>
			</g>
		</g>
		<g>
			<defs>
				<path id="SVGID_49_" d="M12.8,332.6l-3.5,29.9L0,354.8v2.9l9.5,7.8c0.5,0.4,1.2,0.3,1.5-0.2c0.1-0.2,0.2-0.4,0.2-0.6l3.8-31.9
					c0-0.4-0.1-0.8-0.4-1c-0.2-0.1-0.3-0.2-0.5-0.2h-0.1C13.3,331.6,12.9,332,12.8,332.6"/>
			</defs>
			<clipPath id="SVGID_50_">
				<use xlink:href="#SVGID_49_"  style="overflow:visible;"/>
			</clipPath>
			<g class="st33">
				
					<radialGradient id="SVGID_51_" cx="-961.625" cy="-2879.1958" r="1" gradientTransform="matrix(38.6726 28.8362 28.8362 -38.6726 120172.7969 -83294.8672)" gradientUnits="userSpaceOnUse">
					<stop  offset="0" style="stop-color:#FF2639"/>
					<stop  offset="0.29" style="stop-color:#EA1D2C"/>
					<stop  offset="0.9" style="stop-color:#B3040A"/>
					<stop  offset="1" style="stop-color:#A90004"/>
				</radialGradient>
				<polygon class="st34" points="-16.4,353.5 5.4,324.4 31.4,343.8 9.7,373 				"/>
			</g>
		</g>
		<g>
			<defs>
				<path id="SVGID_52_" d="M3.8,327.7c-0.3,0.5,0,1.2,0.5,1.5l6.8,3.4L0,336.7v2.3l14.3-5.3c0.4-0.2,0.7-0.6,0.7-1
					c0-0.4-0.1-0.7-0.4-0.9l-0.2-0.1l-9.2-4.5c-0.2-0.1-0.3-0.1-0.5-0.1C4.3,327.1,3.9,327.3,3.8,327.7"/>
			</defs>
			<clipPath id="SVGID_53_">
				<use xlink:href="#SVGID_52_"  style="overflow:visible;"/>
			</clipPath>
			<g class="st35">
				
					<radialGradient id="SVGID_54_" cx="-976.2709" cy="-2787.8376" r="1" gradientTransform="matrix(6.7501 5.0332 5.0332 -6.7501 20630.2383 -13572.2168)" gradientUnits="userSpaceOnUse">
					<stop  offset="0" style="stop-color:#FF2639"/>
					<stop  offset="0.29" style="stop-color:#EA1D2C"/>
					<stop  offset="0.9" style="stop-color:#B3040A"/>
					<stop  offset="1" style="stop-color:#A90004"/>
				</radialGradient>
				<polygon class="st36" points="-5.7,334.7 5.4,319.9 20.7,331.4 9.6,346.2 				"/>
			</g>
		</g>
		<g>
			<defs>
				<path id="SVGID_55_" d="M0,313.6l12.5,4.3L0,331.9v3.3l15.2-17.2c0.4-0.4,0.4-1.1-0.1-1.5c0,0,0,0-0.1-0.1l-0.1,0
					c-0.1-0.1-0.2-0.1-0.3-0.1l-14.7-5L0,313.6z"/>
			</defs>
			<clipPath id="SVGID_56_">
				<use xlink:href="#SVGID_55_"  style="overflow:visible;"/>
			</clipPath>
			<g class="st37">
				
					<radialGradient id="SVGID_57_" cx="-962.2345" cy="-2875.417" r="1" gradientTransform="matrix(32.3394 24.1138 24.1138 -32.3394 100423.7813 -69492.6641)" gradientUnits="userSpaceOnUse">
					<stop  offset="0" style="stop-color:#FF2639"/>
					<stop  offset="0.29" style="stop-color:#EA1D2C"/>
					<stop  offset="0.9" style="stop-color:#B3040A"/>
					<stop  offset="1" style="stop-color:#A90004"/>
				</radialGradient>
				<polygon class="st38" points="-11.5,326.7 5.5,303.8 27,319.8 10,342.7 				"/>
			</g>
		</g>
		<g>
			<defs>
				<path id="SVGID_58_" d="M223.7,41.5c-0.5,0.4-0.5,1.1-0.1,1.6c0,0,0,0,0,0l5.8,7.1c0.4,0.5,1.1,0.6,1.6,0.2c0,0,0,0,0,0l0.1-0.1
					c0.4-0.4,0.5-1.1,0.1-1.5l-5.8-7.1c-0.2-0.3-0.5-0.4-0.9-0.4C224.2,41.2,223.9,41.3,223.7,41.5"/>
			</defs>
			<clipPath id="SVGID_59_">
				<use xlink:href="#SVGID_58_"  style="overflow:visible;"/>
			</clipPath>
			<g class="st39">
				
					<radialGradient id="SVGID_60_" cx="-858.9132" cy="-2707.7131" r="1" gradientTransform="matrix(4.39 0 0 -4.39 3995.6135 -11824.5195)" gradientUnits="userSpaceOnUse">
					<stop  offset="0" style="stop-color:#FF2639"/>
					<stop  offset="0.29" style="stop-color:#EA1D2C"/>
					<stop  offset="0.9" style="stop-color:#B3040A"/>
					<stop  offset="1" style="stop-color:#A90004"/>
				</radialGradient>
				<rect x="223.1" y="41.2" class="st40" width="8.4" height="9.5"/>
			</g>
		</g>
		<g>
			<defs>
				<path id="SVGID_61_" d="M251.9,76l-11.4-8.3c-0.5-0.3-1.3-0.1-1.6,0.4c-0.3,0.5-0.2,1.1,0.2,1.5l12.1,8.9
					c0.4,0.3,1.1,0.3,1.5-0.1l52.4-55.9l-2.1-1.1L251.9,76z"/>
			</defs>
			<clipPath id="SVGID_62_">
				<use xlink:href="#SVGID_61_"  style="overflow:visible;"/>
			</clipPath>
			<g class="st41">
				
					<radialGradient id="SVGID_63_" cx="-949.1875" cy="-2880.656" r="1" gradientTransform="matrix(46.83 0 0 -46.83 44736.4492 -134857.4219)" gradientUnits="userSpaceOnUse">
					<stop  offset="0" style="stop-color:#FF2639"/>
					<stop  offset="0.29" style="stop-color:#EA1D2C"/>
					<stop  offset="0.9" style="stop-color:#B3040A"/>
					<stop  offset="1" style="stop-color:#A90004"/>
				</radialGradient>
				<rect x="238.6" y="21.4" class="st42" width="66.6" height="57.4"/>
			</g>
		</g>
		<g>
			<defs>
				<path id="SVGID_64_" d="M220.4,53.8c-0.3,0.2-0.5,0.4-0.5,0.7L209.4,93c-0.2,0.6,0.2,1.2,0.8,1.4c0.4,0.1,0.8,0,1-0.2L300,19.9
					l-2.3-1.1l-85.1,71.2l9.4-34.5l69-39.6l-2.7-1.1L220.4,53.8z"/>
			</defs>
			<clipPath id="SVGID_65_">
				<use xlink:href="#SVGID_64_"  style="overflow:visible;"/>
			</clipPath>
			<g class="st43">
				
					<radialGradient id="SVGID_66_" cx="-951.0297" cy="-2884.1775" r="1" gradientTransform="matrix(58.32 0 0 -58.32 55735.8828 -168158.5)" gradientUnits="userSpaceOnUse">
					<stop  offset="0" style="stop-color:#FF2639"/>
					<stop  offset="0.29" style="stop-color:#EA1D2C"/>
					<stop  offset="0.9" style="stop-color:#B3040A"/>
					<stop  offset="1" style="stop-color:#A90004"/>
				</radialGradient>
				<rect x="209.3" y="14.8" class="st44" width="90.7" height="79.7"/>
			</g>
		</g>
		<g>
			<defs>
				<path id="SVGID_67_" d="M232,13.8c-0.4,0.1-0.7,0.4-0.8,0.8l-7.8,27.5c-0.2,0.6,0.2,1.2,0.8,1.4c0.3,0.1,0.6,0.1,0.8-0.1
					L286.2,14c-1-0.4-2-0.8-3-1.1l-57,27.3l7-24.4l33.4-8.3c-1.5-0.4-3.1-0.8-4.6-1.2L232,13.8z"/>
			</defs>
			<clipPath id="SVGID_68_">
				<use xlink:href="#SVGID_67_"  style="overflow:visible;"/>
			</clipPath>
			<g class="st45">
				
					<radialGradient id="SVGID_69_" cx="-948.648" cy="-2879.6238" r="1" gradientTransform="matrix(44.27 0 0 -44.27 42278.4727 -127481.9531)" gradientUnits="userSpaceOnUse">
					<stop  offset="0" style="stop-color:#FF2639"/>
					<stop  offset="0.29" style="stop-color:#EA1D2C"/>
					<stop  offset="0.9" style="stop-color:#B3040A"/>
					<stop  offset="1" style="stop-color:#A90004"/>
				</radialGradient>
				<rect x="223.2" y="6.4" class="st46" width="63" height="37.2"/>
			</g>
		</g>
		<g>
			<defs>
				<path id="SVGID_70_" d="M271.2,529.3c-0.4,0.5-0.4,1.2,0.1,1.6l6.8,6.2c0.5,0.4,1.2,0.4,1.6-0.1c0,0,0,0,0,0l0.1-0.1
					c0.4-0.5,0.3-1.1-0.1-1.5l-6.8-6.2C272.3,528.8,271.6,528.9,271.2,529.3"/>
			</defs>
			<clipPath id="SVGID_71_">
				<use xlink:href="#SVGID_70_"  style="overflow:visible;"/>
			</clipPath>
			<g class="st47">
				
					<radialGradient id="SVGID_72_" cx="-832.6523" cy="-2724.1567" r="1" gradientTransform="matrix(4.3448 -0.6284 -0.6284 -4.3448 2181.0557 -11824.749)" gradientUnits="userSpaceOnUse">
					<stop  offset="0" style="stop-color:#FF2639"/>
					<stop  offset="0.29" style="stop-color:#EA1D2C"/>
					<stop  offset="0.9" style="stop-color:#B3040A"/>
					<stop  offset="1" style="stop-color:#A90004"/>
				</radialGradient>
				<polygon class="st48" points="269.5,529.1 279.9,527.7 281.3,537.4 271,538.9 				"/>
			</g>
		</g>
		<g>
			<defs>
				<path id="SVGID_73_" d="M372.6,461.4l-68.5,98.1l-12.4-6.6c-0.6-0.2-1.3,0.1-1.5,0.7c-0.2,0.5,0,1,0.4,1.3l13.3,7
					c0.5,0.3,1.1,0.1,1.4-0.3l69.1-99c0.4-0.5,0.2-1.2-0.3-1.6c-0.2-0.1-0.4-0.2-0.6-0.2C373.1,460.8,372.7,461,372.6,461.4"/>
			</defs>
			<clipPath id="SVGID_74_">
				<use xlink:href="#SVGID_73_"  style="overflow:visible;"/>
			</clipPath>
			<g class="st49">
				
					<radialGradient id="SVGID_75_" cx="-946.7324" cy="-2882.1809" r="1" gradientTransform="matrix(46.3477 -6.7036 -6.7036 -46.3477 24890.8242 -139406.2031)" gradientUnits="userSpaceOnUse">
					<stop  offset="0" style="stop-color:#FF2639"/>
					<stop  offset="0.29" style="stop-color:#EA1D2C"/>
					<stop  offset="0.9" style="stop-color:#B3040A"/>
					<stop  offset="1" style="stop-color:#A90004"/>
				</radialGradient>
				<polygon class="st50" points="275.5,463 373,448.9 389.1,560.2 291.6,574.3 				"/>
			</g>
		</g>
		<g>
			<defs>
				<path id="SVGID_76_" d="M271.5,543.5l92.4-72.5l-96.8,108L271.5,543.5z M372.7,461.2l-103,80.8c-0.2,0.2-0.4,0.5-0.4,0.8
					l-4.8,39.6c-0.1,0.5,0.2,1,0.7,1.2c0.5,0.2,1,0.1,1.3-0.3l107.9-120.4c0,0,0,0,0-0.1c0.4-0.5,0.3-1.2-0.2-1.6c0,0,0,0,0,0
					C373.7,460.8,373.1,460.8,372.7,461.2"/>
			</defs>
			<clipPath id="SVGID_77_">
				<use xlink:href="#SVGID_76_"  style="overflow:visible;"/>
			</clipPath>
			<g class="st51">
				
					<radialGradient id="SVGID_78_" cx="-949.0538" cy="-2885.3967" r="1" gradientTransform="matrix(57.7293 -8.3498 -8.3498 -57.7293 31015.4668 -173968.6406)" gradientUnits="userSpaceOnUse">
					<stop  offset="0" style="stop-color:#FF2639"/>
					<stop  offset="0.29" style="stop-color:#EA1D2C"/>
					<stop  offset="0.9" style="stop-color:#B3040A"/>
					<stop  offset="1" style="stop-color:#A90004"/>
				</radialGradient>
				<polygon class="st52" points="247,463.4 372.5,445.3 392.2,581.2 266.6,599.4 				"/>
			</g>
		</g>
		<g>
			<defs>
				<path id="SVGID_79_" d="M276.9,502.6l86.7-35.3l-90.1,60.4L276.9,502.6z M372.9,461.1l-97.5,39.7c-0.4,0.2-0.6,0.5-0.7,0.9
					l-3.8,28.4c-0.1,0.6,0.3,1.2,1,1.3c0.3,0,0.6,0,0.8-0.2l101.4-68c0.1-0.1,0.2-0.2,0.3-0.3c0.4-0.5,0.3-1.2-0.2-1.6c0,0,0,0,0,0
					c-0.2-0.2-0.4-0.2-0.7-0.2C373.3,461,373.1,461,372.9,461.1"/>
			</defs>
			<clipPath id="SVGID_80_">
				<use xlink:href="#SVGID_79_"  style="overflow:visible;"/>
			</clipPath>
			<g class="st53">
				
					<radialGradient id="SVGID_81_" cx="-946.0411" cy="-2881.2261" r="1" gradientTransform="matrix(43.8141 -6.3371 -6.3371 -43.8141 23514.334 -131727.4219)" gradientUnits="userSpaceOnUse">
					<stop  offset="0" style="stop-color:#FF2639"/>
					<stop  offset="0.29" style="stop-color:#EA1D2C"/>
					<stop  offset="0.9" style="stop-color:#B3040A"/>
					<stop  offset="1" style="stop-color:#A90004"/>
				</radialGradient>
				<polygon class="st54" points="260.9,462.3 372.6,446.2 384.7,529.9 273,546 				"/>
			</g>
		</g>
		<g>
			<defs>
				<path id="SVGID_82_" d="M60.2,208.1l3.9-13.9c0.1-0.5-0.1-1-0.5-1.2L49,183.7l-13.2-33.8l115,4.8l-72.1,87.7L60.2,208.1z
					 M33.2,148.1c-0.2,0.3-0.2,0.7-0.1,1l14,35.7c0.1,0.2,0.2,0.4,0.4,0.5l14.2,9L57.9,208c-0.1,0.3,0,0.6,0.1,0.8l19.5,36
					c0.2,0.3,0.5,0.5,0.9,0.6h0.2c0.3,0,0.6-0.1,0.9-0.4l74.5-90.6c0.4-0.5,0.3-1.2-0.1-1.5c-0.2-0.2-0.4-0.2-0.7-0.3l-119-4.9l0,0
					C33.8,147.6,33.5,147.8,33.2,148.1"/>
			</defs>
			<clipPath id="SVGID_83_">
				<use xlink:href="#SVGID_82_"  style="overflow:visible;"/>
			</clipPath>
			<g class="st55">
				
					<radialGradient id="SVGID_84_" cx="-950.5894" cy="-2883.3293" r="1" gradientTransform="matrix(55.07 0 0 -55.07 52440.1875 -158571.7813)" gradientUnits="userSpaceOnUse">
					<stop  offset="0" style="stop-color:#FF2639"/>
					<stop  offset="0.29" style="stop-color:#EA1D2C"/>
					<stop  offset="0.9" style="stop-color:#B3040A"/>
					<stop  offset="1" style="stop-color:#A90004"/>
				</radialGradient>
				<rect x="33" y="147.6" class="st56" width="121.2" height="97.8"/>
			</g>
		</g>
		<g>
			<defs>
				<path id="SVGID_85_" d="M152.6,152.7l-90,40.3c-0.5,0.3-0.7,1-0.4,1.5c0.3,0.5,0.8,0.7,1.3,0.5l71.1-31.8l-76.1,44.2
					c-0.5,0.3-0.6,1-0.3,1.5c0.2,0.3,0.5,0.4,0.8,0.5c0.2,0,0.4-0.1,0.6-0.1l94.1-54.6c0.5-0.3,0.7-1,0.4-1.5
					c-0.2-0.3-0.6-0.5-1-0.5C152.9,152.6,152.7,152.6,152.6,152.7"/>
			</defs>
			<clipPath id="SVGID_86_">
				<use xlink:href="#SVGID_85_"  style="overflow:visible;"/>
			</clipPath>
			<g class="st57">
				
					<radialGradient id="SVGID_87_" cx="-947.4598" cy="-2877.3567" r="1" gradientTransform="matrix(39.52 0 0 -39.52 37550.957 -113541.3594)" gradientUnits="userSpaceOnUse">
					<stop  offset="0" style="stop-color:#FF2639"/>
					<stop  offset="0.29" style="stop-color:#EA1D2C"/>
					<stop  offset="0.9" style="stop-color:#B3040A"/>
					<stop  offset="1" style="stop-color:#A90004"/>
				</radialGradient>
				<rect x="57.7" y="152.6" class="st58" width="96.6" height="56.8"/>
			</g>
		</g>
		<g>
			<defs>
				<path id="SVGID_88_" d="M152.7,152.6L47.8,183.4c-0.6,0.2-0.9,0.8-0.7,1.4c0.2,0.6,0.8,0.9,1.3,0.7l105-30.8
					c0.6-0.2,0.9-0.8,0.8-1.4c-0.1-0.5-0.6-0.8-1.1-0.8C153,152.6,152.9,152.6,152.7,152.6"/>
			</defs>
			<clipPath id="SVGID_89_">
				<use xlink:href="#SVGID_88_"  style="overflow:visible;"/>
			</clipPath>
			<g class="st59">
				
					<radialGradient id="SVGID_90_" cx="-947.494" cy="-2877.4209" r="1" gradientTransform="matrix(39.64 0 0 -39.64 37659.6484 -113894.375)" gradientUnits="userSpaceOnUse">
					<stop  offset="0" style="stop-color:#FF2639"/>
					<stop  offset="0.29" style="stop-color:#EA1D2C"/>
					<stop  offset="0.9" style="stop-color:#B3040A"/>
					<stop  offset="1" style="stop-color:#A90004"/>
				</radialGradient>
				<rect x="46.9" y="152.6" class="st60" width="107.4" height="33"/>
			</g>
		</g>
		<path class="st8" d="M0,211.1v374.4h420.5c0.9,0,1.6,0.9,1.6,0V211.9C422.1,95,327.5,0.3,210.7,0C94.3,0.3,0,94.7,0,211.1"/>
		<path class="st8" d="M0,211.1v374.4h420.5c0.9,0,1.6,0.9,1.6,0V211.9C422.1,95,327.5,0.3,210.7,0C94.3,0.3,0,94.7,0,211.1"/>
		<path class="st8" d="M0,211.1v374.4h420.5c0.9,0,1.6,0.9,1.6,0V211.9C422.1,95,327.5,0.3,210.7,0C94.3,0.3,0,94.7,0,211.1"/>
		<path class="st8" d="M0,211.1v374.4h420.5c0.9,0,1.6,0.9,1.6,0V211.9C422.1,95,327.5,0.3,210.7,0C94.3,0.3,0,94.7,0,211.1"/>
		<path class="st8" d="M0,211.1v374.4h420.5c0.9,0,1.6,0.9,1.6,0V211.9C422.1,95,327.5,0.3,210.7,0C94.3,0.3,0,94.7,0,211.1"/>
		<path class="st8" d="M0,211.1v374.4h420.5c0.9,0,1.6,0.9,1.6,0V211.9C422.1,95,327.5,0.3,210.7,0C94.3,0.3,0,94.7,0,211.1"/>
		<path class="st8" d="M0,211.1v374.4h420.5c0.9,0,1.6,0.9,1.6,0V211.9C422.1,95,327.5,0.3,210.7,0C94.3,0.3,0,94.7,0,211.1"/>
		<path class="st8" d="M0,211.1v374.4h420.5c0.9,0,1.6,0.9,1.6,0V211.9C422.1,95,327.5,0.3,210.7,0C94.3,0.3,0,94.7,0,211.1"/>
		<g>
			<defs>
				<path id="SVGID_91_" d="M31.4,499.4c0,0-1,1.1-2.8,2.9c-0.6,0.6-0.6,1.5,0,2.1c0.3,0.3,0.6,0.4,1,0.5c0.4,0,0.7-0.2,1-0.4
					c1.9-1.9,2.9-3,3-3c0.6-0.6,0.5-1.5-0.1-2.1C32.8,498.7,31.9,498.8,31.4,499.4C31.3,499.4,31.3,499.4,31.4,499.4"/>
			</defs>
			<clipPath id="SVGID_92_">
				<use xlink:href="#SVGID_91_"  style="overflow:visible;"/>
			</clipPath>
			<g class="st61">
				
					<radialGradient id="SVGID_93_" cx="-810.2825" cy="-2615.0178" r="1" gradientTransform="matrix(2.95 0 0 -2.95 2421.7891 -7215.5503)" gradientUnits="userSpaceOnUse">
					<stop  offset="0" style="stop-color:#FF2639"/>
					<stop  offset="0.29" style="stop-color:#EA1D2C"/>
					<stop  offset="0.9" style="stop-color:#B3040A"/>
					<stop  offset="1" style="stop-color:#A90004"/>
				</radialGradient>
				<rect x="27.9" y="498.9" class="st62" width="6.2" height="5.9"/>
			</g>
		</g>
		<g>
			<defs>
				<path id="SVGID_94_" d="M11,516.3c-2.3,1.5-4.5,2.9-6.8,4.3c-0.7,0.4-0.9,1.3-0.5,2c0.3,0.4,0.7,0.7,1.3,0.7
					c0.3,0,0.5-0.1,0.7-0.2c2.3-1.3,4.7-2.8,7-4.4c0.7-0.5,0.9-1.4,0.4-2.1c-0.3-0.4-0.7-0.6-1.2-0.6C11.5,516,11.2,516.1,11,516.3
					 M23.2,507.1c-2,1.7-4.2,3.4-6.3,5c-0.7,0.5-0.8,1.4-0.3,2.1c0.5,0.7,1.4,0.8,2.1,0.3c2.2-1.7,4.3-3.4,6.4-5.1
					c0.6-0.5,0.7-1.5,0.2-2.1c0,0,0,0,0,0C24.7,506.6,23.8,506.5,23.2,507.1"/>
			</defs>
			<clipPath id="SVGID_95_">
				<use xlink:href="#SVGID_94_"  style="overflow:visible;"/>
			</clipPath>
			<g class="st63">
				
					<radialGradient id="SVGID_96_" cx="-951.3165" cy="-2884.7302" r="1" gradientTransform="matrix(60.68 0 0 -60.68 57677.1445 -174491.5938)" gradientUnits="userSpaceOnUse">
					<stop  offset="0" style="stop-color:#FF2639"/>
					<stop  offset="0.29" style="stop-color:#EA1D2C"/>
					<stop  offset="0.9" style="stop-color:#B3040A"/>
					<stop  offset="1" style="stop-color:#A90004"/>
				</radialGradient>
				<rect x="3.2" y="506.7" class="st64" width="22.6" height="16.6"/>
			</g>
		</g>
		<path class="st8" d="M0,211.1v374.4h420.5c0.9,0,1.6,0.9,1.6,0V211.9C422.1,95,327.5,0.3,210.7,0C94.3,0.3,0,94.7,0,211.1"/>
		<path class="st8" d="M0,211.1v374.4h420.5c0.9,0,1.6,0.9,1.6,0V211.9C422.1,95,327.5,0.3,210.7,0C94.3,0.3,0,94.7,0,211.1"/>
		<path class="st8" d="M0,211.1v374.4h420.5c0.9,0,1.6,0.9,1.6,0V211.9C422.1,95,327.5,0.3,210.7,0C94.3,0.3,0,94.7,0,211.1"/>
		<path class="st8" d="M0,211.1v374.4h420.5c0.9,0,1.6,0.9,1.6,0V211.9C422.1,95,327.5,0.3,210.7,0C94.3,0.3,0,94.7,0,211.1"/>
		<g>
			<defs>
				<path id="SVGID_97_" d="M225.8,134.6c-1.4,0.5-2.7,1-4,1.7c-0.7,0.4-1,1.3-0.7,2c0.3,0.5,0.8,0.8,1.3,0.8c0.2,0,0.5-0.1,0.7-0.2
					c1.2-0.6,2.4-1.1,3.6-1.5c0.8-0.3,1.2-1.1,0.9-1.9c-0.2-0.6-0.8-1-1.4-1C226.2,134.5,226,134.5,225.8,134.6"/>
			</defs>
			<clipPath id="SVGID_98_">
				<use xlink:href="#SVGID_97_"  style="overflow:visible;"/>
			</clipPath>
			<g class="st65">
				
					<radialGradient id="SVGID_99_" cx="-807.7217" cy="-2610.1826" r="1" gradientTransform="matrix(2.9 0 0 -2.9 2567.5081 -7437.3394)" gradientUnits="userSpaceOnUse">
					<stop  offset="0" style="stop-color:#FF2639"/>
					<stop  offset="0.29" style="stop-color:#EA1D2C"/>
					<stop  offset="0.9" style="stop-color:#B3040A"/>
					<stop  offset="1" style="stop-color:#A90004"/>
				</radialGradient>
				<rect x="220.8" y="134.5" class="st66" width="7.2" height="4.6"/>
			</g>
		</g>
		<g>
			<defs>
				<path id="SVGID_100_" d="M278.5,145.3c-0.2,0.8,0.3,1.6,1.1,1.8c0,0,0,0,0,0c2.8,0.6,5.7,1.1,8.5,1.3h0.1c0.8,0,1.5-0.6,1.6-1.4
					c0-0.8-0.6-1.5-1.5-1.6l0,0c-2.7-0.2-5.4-0.6-8.1-1.2c-0.1,0-0.2,0-0.3,0C279.3,144.1,278.7,144.6,278.5,145.3 M303.5,143.3
					c-2.5,0.9-5.2,1.5-7.8,1.8c-0.8,0-1.5,0.8-1.4,1.6c0,0.8,0.8,1.5,1.6,1.4h0.2c2.9-0.4,5.7-1,8.5-2c0.8-0.2,1.3-1,1-1.8
					s-1-1.3-1.8-1C303.6,143.3,303.6,143.4,303.5,143.3 M263.3,140.5c-0.3,0.8,0.1,1.6,0.9,1.9c0,0,0,0,0,0c3,1,5.5,1.9,8,2.7
					c0.1,0,0.3,0.1,0.4,0.1c0.6,0,1.2-0.4,1.4-1c0.2-0.8-0.2-1.6-1-1.8c0,0,0,0,0,0c-2.5-0.8-5-1.6-7.9-2.7
					c-0.2-0.1-0.3-0.1-0.5-0.1C264,139.6,263.5,140,263.3,140.5 M316.7,135.7c-0.7,0.6-1.4,1.2-2.2,1.8c-1.4,1-2.9,2-4.4,2.9
					c-0.7,0.4-1,1.3-0.5,2c0.3,0.5,0.8,0.7,1.3,0.7c0.3,0,0.5-0.1,0.7-0.2c1.6-0.9,3.2-2,4.7-3.1c0.8-0.6,1.7-1.3,2.4-2
					c0.6-0.5,0.7-1.5,0.1-2.1c0,0,0,0,0,0c-0.3-0.3-0.7-0.5-1.1-0.5C317.3,135.3,316.9,135.4,316.7,135.7 M248.1,135.7
					c-0.2,0.8,0.3,1.6,1.1,1.8c2.3,0.6,4.8,1.4,7.9,2.4c0.2,0.1,0.3,0.1,0.5,0.1c0.8,0,1.5-0.6,1.5-1.4c0-0.7-0.4-1.2-1-1.4
					c-3.2-1.1-5.8-1.9-8.2-2.5C249.1,134.4,248.3,134.9,248.1,135.7C248.1,135.7,248.1,135.7,248.1,135.7 M233.6,132.9
					c-0.8,0.1-1.4,0.8-1.4,1.6c0.1,0.8,0.8,1.4,1.6,1.3c0,0,0,0,0,0c2.7-0.2,5.4-0.2,8,0.2h0.2c0.8,0,1.5-0.6,1.6-1.4
					s-0.6-1.5-1.4-1.6c-1.7-0.2-3.5-0.3-5.3-0.3C235.8,132.7,234.7,132.7,233.6,132.9 M324.7,123c-0.7,2.6-1.9,5-3.3,7.2
					c-0.5,0.7-0.3,1.6,0.4,2.1c0.2,0.2,0.5,0.2,0.8,0.2c0.5,0,1-0.2,1.2-0.7c1.6-2.5,2.9-5.2,3.7-8c0.2-0.8-0.2-1.6-1-1.8
					c-0.1,0-0.3-0.1-0.4-0.1C325.5,121.9,324.9,122.4,324.7,123 M300.6,120.2c-0.2,0.8,0.4,1.6,1.2,1.8c1.9,0.4,3.9,0.6,5.8,0.6
					c1,0,2-0.1,3-0.1c0.8-0.1,1.4-0.8,1.3-1.6c0,0,0,0,0,0c-0.1-0.8-0.8-1.4-1.6-1.3c0,0,0,0-0.1,0c-2.6,0.3-5.3,0.1-7.9-0.4
					c-0.1,0-0.2,0-0.3,0C301.4,119.1,300.7,119.5,300.6,120.2 M288.3,110.9c-0.7,0.4-0.9,1.3-0.5,2c1.6,2.6,3.9,4.8,6.5,6.3
					c0.2,0.1,0.5,0.2,0.8,0.2c0.5,0,1-0.3,1.3-0.7c0.4-0.7,0.2-1.6-0.5-2c-2.2-1.2-4.1-3-5.5-5.2c-0.3-0.5-0.8-0.7-1.3-0.7
					C288.7,110.7,288.5,110.7,288.3,110.9 M326.4,106.2c-0.8,0.2-1.3,0.9-1.1,1.7c0,0,0,0,0,0c0.4,2.1,0.7,4.1,0.7,6.3
					c-0.5-0.2-1.1-0.2-1.5,0.1c-2.2,1.5-4.6,2.7-7.1,3.6c-0.8,0.3-1.2,1.1-0.9,1.9c0.2,0.6,0.8,1,1.4,1c0.2,0,0.3,0,0.5-0.1
					c2.8-1,5.4-2.3,7.8-4c0.4,0.7,1.3,1,2,0.5c0.4-0.3,0.7-0.7,0.7-1.2c0-0.4,0-0.8,0-1.2c0-2.5-0.3-5-0.8-7.5
					c-0.1-0.7-0.8-1.2-1.5-1.2C326.5,106.1,326.4,106.1,326.4,106.2 M334.9,103c-0.6,0.8-1.2,1.7-1.8,2.5c-1,1.4-2.1,2.7-3.3,4
					c-0.6,0.6-0.5,1.5,0.1,2.1c0,0,0,0,0,0c0.3,0.3,0.6,0.4,1,0.4c0.4,0,0.8-0.2,1.1-0.5c1.3-1.4,2.4-2.8,3.5-4.4
					c0.6-0.8,1.1-1.6,1.7-2.4c0.5-0.7,0.3-1.6-0.4-2.1c-0.2-0.2-0.5-0.3-0.9-0.3C335.6,102.3,335.1,102.6,334.9,103 M287.8,96.1
					c-1.4,2.7-2.1,5.7-2.2,8.8c0,0.8,0.7,1.5,1.5,1.5s1.5-0.7,1.5-1.5c0.1-2.6,0.7-5.1,1.9-7.4c0.4-0.7,0.1-1.6-0.7-2c0,0,0,0,0,0
					C289.1,95.1,288.2,95.4,287.8,96.1C287.8,96.1,287.8,96.1,287.8,96.1 M319.2,92c-0.7,0.5-0.8,1.4-0.3,2.1c0,0,0,0,0,0
					c1.6,2.1,2.9,4.5,4,6.9c0.2,0.5,0.8,0.9,1.4,0.9c0.2,0,0.4,0,0.6-0.1c0.8-0.3,1.1-1.2,0.8-2c0,0,0,0,0,0
					c-1.2-2.7-2.6-5.2-4.4-7.6c-0.3-0.4-0.7-0.6-1.2-0.6C319.7,91.6,319.4,91.8,319.2,92 M345.1,90.6c-1.9,1.9-3.8,4-5.7,6.4
					c-0.5,0.6-0.4,1.6,0.2,2.1c0,0,0,0,0,0c0.3,0.2,0.6,0.3,0.9,0.3c0.4,0,0.9-0.2,1.1-0.5c1.9-2.3,3.7-4.3,5.5-6.1
					c0.6-0.6,0.6-1.5,0-2.1C346.7,90,345.7,90,345.1,90.6L345.1,90.6 M299.1,84c-2.8,1.3-5.2,3.2-7.1,5.5c-0.5,0.6-0.5,1.6,0.2,2.1
					c0.3,0.2,0.6,0.4,1,0.3c0.4,0,0.9-0.2,1.1-0.5c1.6-2,3.7-3.6,6-4.7c0.8-0.3,1.1-1.2,0.8-2c-0.2-0.5-0.8-0.9-1.4-0.9
					C299.5,83.9,299.3,83.9,299.1,84 M305.7,84.2c-0.1,0.8,0.4,1.6,1.2,1.7c0,0,0,0,0,0c2.6,0.4,5,1.5,7,3.1
					c0.3,0.2,0.6,0.3,0.9,0.3c0.8,0,1.5-0.7,1.5-1.5c0-0.5-0.2-0.9-0.6-1.2c-2.4-1.9-5.3-3.1-8.3-3.6h-0.2
					C306.4,83,305.8,83.5,305.7,84.2 M358.1,80.6c-2.5,1.5-4.9,3.1-7.1,4.9c-0.6,0.5-0.7,1.5-0.2,2.1c0.3,0.3,0.7,0.6,1.2,0.6
					c0.3,0,0.7-0.1,0.9-0.3c2.1-1.7,4.4-3.3,6.8-4.7c0.7-0.4,0.9-1.3,0.5-2c-0.3-0.4-0.7-0.7-1.3-0.7
					C358.6,80.3,358.3,80.4,358.1,80.6 M365.1,77.1c-0.8,0.3-1.1,1.2-0.8,1.9c0.2,0.6,0.7,0.9,1.3,0.9c0.2,0,0.4,0,0.5-0.1
					c2.5-1,5.1-1.8,7.8-2.4h0c-0.7-0.9-1.4-1.7-2.1-2.5C369.5,75.5,367.2,76.3,365.1,77.1"/>
			</defs>
			<clipPath id="SVGID_101_">
				<use xlink:href="#SVGID_100_"  style="overflow:visible;"/>
			</clipPath>
			<g class="st67">
				
					<radialGradient id="SVGID_102_" cx="-952.017" cy="-2886.0667" r="1" gradientTransform="matrix(67.19 0 0 -67.19 64287.9727 -193821.5156)" gradientUnits="userSpaceOnUse">
					<stop  offset="0" style="stop-color:#FF2639"/>
					<stop  offset="0.29" style="stop-color:#EA1D2C"/>
					<stop  offset="0.9" style="stop-color:#B3040A"/>
					<stop  offset="1" style="stop-color:#A90004"/>
				</radialGradient>
				<rect x="232.2" y="74.9" class="st68" width="141.8" height="73.4"/>
			</g>
		</g>
		<g>
			<defs>
				<path id="SVGID_103_" d="M0,211.1v374.4h420.5c0.9,0,1.6,0.9,1.6,0V211.9C422.1,95,327.5,0.3,210.7,0C94.3,0.3,0,94.7,0,211.1"
					/>
			</defs>
			<clipPath id="SVGID_104_">
				<use xlink:href="#SVGID_103_"  style="overflow:visible;"/>
			</clipPath>
			<g class="st69">
				<g>
					<defs>
						<path id="SVGID_105_" d="M416.7,81.4c-0.2,0-0.3,0-0.5-0.1c-1.3-0.4-2.6-0.8-3.9-1.2c-0.8-0.3-1.2-1.1-0.9-1.9
							c0.3-0.7,1-1.1,1.7-0.9c1.3,0.4,2.6,0.8,4,1.3c0.8,0.3,1.2,1.1,0.9,1.9C417.9,81,417.3,81.4,416.7,81.4"/>
					</defs>
					<clipPath id="SVGID_106_">
						<use xlink:href="#SVGID_105_"  style="overflow:visible;"/>
					</clipPath>
					<g class="st70">
						<g>
							<defs>
								<rect id="SVGID_107_" x="411.1" y="77" width="7.3" height="4.4"/>
							</defs>
							<clipPath id="SVGID_108_">
								<use xlink:href="#SVGID_107_"  style="overflow:visible;"/>
							</clipPath>
							<g class="st71">
								
									<radialGradient id="SVGID_109_" cx="-806.1577" cy="-2606.8088" r="1" gradientTransform="matrix(2.87 0 0 -2.87 2727.4854 -7395.9897)" gradientUnits="userSpaceOnUse">
									<stop  offset="0" style="stop-color:#FF2639"/>
									<stop  offset="0.29" style="stop-color:#EA1D2C"/>
									<stop  offset="0.9" style="stop-color:#B3040A"/>
									<stop  offset="1" style="stop-color:#A90004"/>
								</radialGradient>
								<rect x="411.1" y="77" class="st72" width="7.3" height="4.4"/>
							</g>
						</g>
					</g>
				</g>
			</g>
		</g>
		<g>
			<defs>
				<path id="SVGID_110_" d="M412.7,256.6c-0.2,0.8,0.2,1.6,1,1.9c0,0,0,0,0,0c2.7,0.8,5.6,1.3,8.4,1.3v-3c-2.6,0-5.1-0.4-7.5-1.2
					c-0.1,0-0.3-0.1-0.5-0.1C413.5,255.6,412.9,256,412.7,256.6 M401.3,246.4c-0.7,0.5-0.8,1.4-0.4,2.1c0,0,0,0,0,0
					c0.5,0.8,1.1,1.6,1.8,2.4c1.1,1.5,2.5,2.9,4,4c0.3,0.2,0.6,0.3,0.9,0.3c0.8,0,1.5-0.7,1.5-1.5c0-0.5-0.2-0.9-0.6-1.2
					c-1.3-1-2.4-2.1-3.4-3.4c-0.6-0.8-1.2-1.6-1.7-2.3c-0.3-0.4-0.7-0.6-1.2-0.6C401.9,246.2,401.6,246.2,401.3,246.4 M395.9,232
					c-0.8,0.1-1.4,0.8-1.3,1.6c0,0,0,0,0,0c0.4,2.9,1.2,5.7,2.5,8.3c0.2,0.5,0.8,0.9,1.4,0.9c0.2,0,0.4-0.1,0.6-0.1
					c0.7-0.3,1.1-1.2,0.7-2c0,0,0,0,0,0c-1.1-2.3-1.9-4.8-2.3-7.4c-0.1-0.7-0.7-1.3-1.5-1.3L395.9,232 M398.1,218
					c-1.3,2.5-2.4,5.2-3.1,7.9c-0.2,0.8,0.3,1.6,1.1,1.8c0.1,0,0.2,0,0.4,0c0.7,0,1.3-0.5,1.4-1.1c0.7-2.5,1.6-5,2.9-7.3
					c0.4-0.7,0.1-1.6-0.7-2c-0.2-0.1-0.4-0.2-0.7-0.2C398.9,217.1,398.4,217.5,398.1,218 M405.2,204.2c-1.1,2.7-2.5,5.1-3.6,7.2
					c-0.3,0.8,0,1.6,0.7,2c0.7,0.3,1.5,0.1,1.9-0.5c1.2-2.1,2.5-4.7,3.7-7.4c0.3-0.7,0-1.6-0.7-2c0,0,0,0,0,0
					c-0.2-0.1-0.4-0.1-0.6-0.1C406,203.3,405.5,203.6,405.2,204.2 M360.2,195.3c-0.4,0.7-0.3,1.6,0.4,2.1c2.5,1.6,5.4,2.6,8.3,2.9
					h0.1c0.8,0,1.5-0.6,1.6-1.4c0-0.8-0.6-1.5-1.4-1.6c-2.5-0.2-4.9-1-7-2.4c-0.2-0.2-0.5-0.3-0.8-0.3
					C361,194.6,360.5,194.9,360.2,195.3 M383.6,194.3c-2.3,1.2-4.8,2-7.4,2.6c-0.8,0.1-1.4,0.8-1.4,1.6c0.1,0.8,0.8,1.4,1.6,1.4h0.3
					c2.8-0.6,5.5-1.5,8.1-2.8c0.7-0.5,0.8-1.4,0.3-2.1c-0.4-0.5-1-0.7-1.6-0.5 M409,189.7c-0.2,2.6-0.7,5.2-1.4,7.8
					c-0.2,0.8,0.2,1.6,1,1.8c0.1,0,0.3,0.1,0.4,0.1c0.7,0,1.3-0.4,1.4-1.1c0.7-2.7,1.2-5.5,1.5-8.3c0.1-0.8-0.5-1.5-1.4-1.6h-0.1
					C409.7,188.4,409.1,189,409,189.7 M395.3,185.3c-1.8,2-3.7,3.8-5.8,5.4c-0.7,0.5-0.8,1.4-0.3,2.1c0,0,0,0,0,0
					c0.3,0.4,0.7,0.6,1.2,0.6c0.3,0,0.6-0.1,0.9-0.3c2.2-1.7,4.3-3.6,6.2-5.8c0.5-0.6,0.5-1.5-0.1-2.1c0,0,0,0,0,0
					c-0.3-0.3-0.6-0.4-1-0.4C396,184.8,395.6,185,395.3,185.3 M354.1,181.5c-0.8,0.1-1.4,0.8-1.3,1.6c0.2,1.8,0.6,3.6,1.2,5.4
					c0.3,1,0.8,2,1.3,3c0.3,0.5,0.8,0.8,1.3,0.8c0.8,0,1.5-0.7,1.5-1.5c0-0.2-0.1-0.5-0.2-0.7c-0.4-0.8-0.8-1.7-1.1-2.5
					c-0.5-1.5-0.8-3.1-1-4.8c-0.1-0.8-0.7-1.3-1.5-1.3L354.1,181.5 M407.5,173.5c-0.7,0.4-0.9,1.3-0.5,2c1.3,2.1,2,4.6,2.2,7.1
					c0.1,0.8,0.7,1.4,1.5,1.4h0.1c0.8-0.1,1.4-0.8,1.4-1.6c-0.2-3-1.1-5.8-2.6-8.4c-0.3-0.4-0.8-0.7-1.3-0.7
					C408,173.2,407.7,173.3,407.5,173.5 M403.3,172.5c-1,2.4-2.2,4.8-3.6,7c-0.4,0.7-0.2,1.6,0.5,2c0.2,0.1,0.5,0.2,0.8,0.2
					c0.5,0,1-0.3,1.3-0.7c1.5-2.4,2.8-4.9,3.9-7.5c0.3-0.8,0-1.6-0.8-1.9c0,0,0,0,0,0c-0.2-0.1-0.4-0.1-0.6-0.1
					C404.1,171.5,403.5,171.9,403.3,172.5 M358.6,167.9c-2.3,2-4,4.5-5,7.3c-0.3,0.8,0.2,1.6,0.9,1.9c0.2,0.1,0.3,0.1,0.5,0.1
					c0.6,0,1.2-0.4,1.4-1c0.8-2.3,2.2-4.4,4.1-6.1c0.6-0.5,0.7-1.5,0.1-2.1c-0.3-0.3-0.7-0.5-1.1-0.5
					C359.2,167.5,358.8,167.6,358.6,167.9 M394.8,164.7c-0.3,0.8,0.1,1.6,0.8,1.9c2.4,1,4.7,2.2,6.7,3.8c0.3,0.2,0.6,0.3,0.9,0.3
					c0.8,0,1.5-0.7,1.5-1.5c0-0.4-0.2-0.9-0.6-1.1c-2.3-1.8-4.8-3.2-7.5-4.3c-0.2-0.1-0.4-0.1-0.6-0.1
					C395.6,163.8,395,164.1,394.8,164.7 M373.4,161.4c-2.8,0.4-5.6,1.2-8.2,2.3c-0.8,0.3-1.1,1.2-0.8,2c0.2,0.5,0.8,0.9,1.3,0.9
					c0.2,0,0.4,0,0.6-0.1c2.4-1,4.9-1.7,7.5-2.1c0.8-0.2,1.3-0.9,1.2-1.8c-0.1-0.7-0.7-1.2-1.4-1.2
					C373.6,161.4,373.5,161.4,373.4,161.4 M379.5,162.3c0,0.8,0.7,1.5,1.5,1.5c2.6,0,5.3,0.3,7.9,0.8h0.3c0.8,0.1,1.6-0.5,1.6-1.4
					c0.1-0.8-0.5-1.6-1.4-1.6c-2.8-0.5-5.6-0.8-8.4-0.9C380.2,160.8,379.5,161.5,379.5,162.3 M407,158c-0.3,2.6-0.7,5.2-1.4,7.8
					c-0.2,0.8,0.3,1.6,1,1.8c0,0,0,0,0,0c0.8,0.2,1.6-0.3,1.8-1c0,0,0,0,0,0c0.7-2.7,1.2-5.5,1.5-8.3c0.1-0.8-0.5-1.5-1.3-1.6
					c0,0,0,0,0,0h-0.2C407.7,156.6,407.1,157.2,407,158 M408.3,141.1h-0.2c-0.8,0.1-1.4,0.8-1.3,1.6c0,0,0,0,0,0
					c0.3,2.7,0.5,5.3,0.5,8c0,0.8,0.7,1.5,1.5,1.5s1.5-0.7,1.5-1.5c0-2.8-0.2-5.6-0.5-8.3C409.7,141.7,409.1,141.2,408.3,141.1
					L408.3,141.1 M403.7,127.9c0.8,2.6,1.5,5.3,2,7.8c0.2,0.7,0.8,1.2,1.5,1.2c0.1,0,0.2,0,0.3,0c0.3-0.1,0.6-0.2,0.8-0.5
					c-1.3-3.4-2.7-6.7-4.1-10C403.7,126.8,403.5,127.4,403.7,127.9"/>
			</defs>
			<clipPath id="SVGID_111_">
				<use xlink:href="#SVGID_110_"  style="overflow:visible;"/>
			</clipPath>
			<g class="st73">
				
					<radialGradient id="SVGID_112_" cx="-951.3918" cy="-2884.8779" r="1" gradientTransform="matrix(61.31 0 0 -61.31 58737.9922 -176678.9688)" gradientUnits="userSpaceOnUse">
					<stop  offset="0" style="stop-color:#FF2639"/>
					<stop  offset="0.29" style="stop-color:#EA1D2C"/>
					<stop  offset="0.9" style="stop-color:#B3040A"/>
					<stop  offset="1" style="stop-color:#A90004"/>
				</radialGradient>
				<rect x="352.8" y="126.3" class="st74" width="69.3" height="133.6"/>
			</g>
		</g>
		<path class="st8" d="M0,211.1v374.4h420.5c0.9,0,1.6,0.9,1.6,0V211.9C422.1,95,327.5,0.3,210.7,0C94.3,0.3,0,94.7,0,211.1"/>
		<g>
			<defs>
				<path id="SVGID_113_" d="M38.3,199.9c-0.4,0.7-0.1,1.6,0.7,2c0,0,0,0,0,0c1.1,0.5,2.2,1.2,3.1,2.1c0.5,0.6,1.5,0.7,2.1,0.2
					c0.6-0.5,0.7-1.5,0.2-2.1c-0.1-0.1-0.2-0.2-0.3-0.3c-1.1-1-2.4-1.9-3.8-2.6c-0.2-0.1-0.4-0.2-0.7-0.2
					C39,199.1,38.5,199.4,38.3,199.9"/>
			</defs>
			<clipPath id="SVGID_114_">
				<use xlink:href="#SVGID_113_"  style="overflow:visible;"/>
			</clipPath>
			<g class="st75">
				
					<radialGradient id="SVGID_115_" cx="-809.7795" cy="-2613.5198" r="1" gradientTransform="matrix(2.94 0 0 -2.94 2420.1047 -7468.3696)" gradientUnits="userSpaceOnUse">
					<stop  offset="0" style="stop-color:#FF2639"/>
					<stop  offset="0.29" style="stop-color:#EA1D2C"/>
					<stop  offset="0.9" style="stop-color:#B3040A"/>
					<stop  offset="1" style="stop-color:#A90004"/>
				</radialGradient>
				<rect x="37.9" y="199.1" class="st76" width="6.8" height="5.3"/>
			</g>
		</g>
		<g>
			<defs>
				<path id="SVGID_116_" d="M6.6,242.4c-1.9,1.9-4.1,3.4-6.5,4.6L0,247.1v2.5c0.2,0.2,0.5,0.2,0.8,0.2c0.2,0,0.5-0.1,0.7-0.2
					c2.7-1.3,5.1-3.1,7.2-5.1c0.6-0.6,0.6-1.5,0-2.1c-0.3-0.3-0.6-0.4-1-0.4C7.3,242,6.9,242.1,6.6,242.4 M13.3,227.6
					c-0.8,0.1-1.4,0.9-1.3,1.7c0.1,0.4,0.1,0.9,0.1,1.3c0,0.6,0,1.2-0.1,1.8c-0.3,1.5-0.7,2.9-1.4,4.3c-0.4,0.7,0,1.6,0.7,2
					c0,0,0,0,0.1,0c0.2,0.1,0.4,0.1,0.6,0.1c0.6,0,1.1-0.3,1.4-0.9c0.7-1.6,1.2-3.3,1.5-5c0.1-0.7,0.2-1.5,0.2-2.2
					c0-0.6,0-1.2-0.1-1.8C14.7,228.2,14.1,227.7,13.3,227.6l-0.1,0.1 M0.6,219.1c-0.1,0.8,0.4,1.6,1.2,1.7c0,0,0,0,0,0
					c2.5,0.4,5,1.4,7,3c0.6,0.5,1.6,0.4,2.1-0.2s0.4-1.6-0.2-2.1l0,0c-2.4-1.9-5.3-3.1-8.4-3.6c-0.1,0-0.2,0-0.3,0
					C1.3,217.9,0.7,218.4,0.6,219.1 M0.4,198.3c-0.1,1-0.1,2.1-0.2,3.1l0.9-0.3c0.8-0.2,1.2-1.1,1-1.8c-0.2-0.6-0.8-1.1-1.4-1.1
					C0.6,198.3,0.5,198.3,0.4,198.3 M16.4,195.6c-2.9,0.2-5.7,0.5-8.6,1c-0.8,0.2-1.3,0.9-1.2,1.8c0.1,0.7,0.7,1.2,1.4,1.2h0.3
					c2.7-0.5,5.5-0.8,8.2-1c0.8,0,1.4-0.8,1.4-1.6C17.9,196.1,17.3,195.5,16.4,195.6L16.4,195.6 M22.6,197c0,0.8,0.6,1.5,1.4,1.6
					c2.7,0.1,5.5,0.5,8.1,1.1c0.1,0,0.2,0,0.3,0c0.8,0,1.5-0.7,1.5-1.5c0-0.7-0.5-1.3-1.1-1.4c-2.8-0.6-5.7-1-8.6-1.1h-0.1
					C23.3,195.6,22.6,196.2,22.6,197"/>
			</defs>
			<clipPath id="SVGID_117_">
				<use xlink:href="#SVGID_116_"  style="overflow:visible;"/>
			</clipPath>
			<g class="st77">
				
					<radialGradient id="SVGID_118_" cx="-949.1956" cy="-2880.6748" r="1" gradientTransform="matrix(46.87 0 0 -46.87 44472.6445 -134796.2969)" gradientUnits="userSpaceOnUse">
					<stop  offset="0" style="stop-color:#FF2639"/>
					<stop  offset="0.29" style="stop-color:#EA1D2C"/>
					<stop  offset="0.9" style="stop-color:#B3040A"/>
					<stop  offset="1" style="stop-color:#A90004"/>
				</radialGradient>
				<rect x="0" y="195.6" class="st78" width="34.1" height="54.3"/>
			</g>
		</g>
		<path class="st8" d="M0,211.1v374.4h420.5c0.9,0,1.6,0.9,1.6,0V211.9C422.1,95,327.5,0.3,210.7,0C94.3,0.3,0,94.7,0,211.1"/>
		<g>
			<defs>
				<path id="SVGID_119_" d="M250.5,536c-0.3,0.8,0.2,1.6,0.9,1.9c0,0,0,0,0,0c1.2,0.4,2.3,0.9,3.4,1.6c0.3,0.2,0.7,0.3,1.1,0.3
					c0.4-0.1,0.8-0.3,1-0.6c0.5-0.7,0.3-1.6-0.4-2.1c-1.3-0.9-2.7-1.5-4.1-2c-0.2,0-0.3-0.1-0.5-0.1
					C251.3,535,250.7,535.4,250.5,536"/>
			</defs>
			<clipPath id="SVGID_120_">
				<use xlink:href="#SVGID_119_"  style="overflow:visible;"/>
			</clipPath>
			<g class="st79">
				
					<radialGradient id="SVGID_121_" cx="-769.8" cy="-2637.0361" r="1" gradientTransform="matrix(2.9007 -0.4102 -0.4102 -2.9007 1403.3207 -7432.9551)" gradientUnits="userSpaceOnUse">
					<stop  offset="0" style="stop-color:#FF2639"/>
					<stop  offset="0.29" style="stop-color:#EA1D2C"/>
					<stop  offset="0.9" style="stop-color:#B3040A"/>
					<stop  offset="1" style="stop-color:#A90004"/>
				</radialGradient>
				<polygon class="st80" points="248,536.1 255.6,535 256.4,540.7 248.8,541.8 				"/>
			</g>
		</g>
		<g>
			<defs>
				<path id="SVGID_122_" d="M225.2,582.6c-0.8,1-1.7,2-2.6,2.9h4.1c0.3-0.4,0.6-0.8,0.9-1.1c0.5-0.7,0.4-1.6-0.3-2.1c0,0,0,0,0,0
					c-0.3-0.2-0.6-0.3-0.9-0.3C225.9,582,225.5,582.2,225.2,582.6 M183.7,576.5c-0.6-0.5-1.4-0.5-2,0.1c-2,2-3.9,4.1-5.8,6.4
					c-0.5,0.6-0.4,1.6,0.2,2.1c0.6,0.5,1.6,0.4,2.1-0.2c1.7-2,3.4-4,5.2-5.8c0,1.2,0.1,2.4,0.2,3.6c0.1,1,0.3,1.9,0.6,2.8h3.1
					c0-0.1,0-0.3-0.1-0.4c-0.3-0.9-0.5-1.9-0.7-2.8c-0.2-1.6-0.2-3.2-0.1-4.9c0.1-0.8-0.5-1.5-1.3-1.6c0,0,0,0,0,0H185
					C184.5,575.8,184,576.1,183.7,576.5 M229.6,567c-0.8,0.2-1.2,1.1-1,1.8c0,0,0,0,0,0c0.1,0.4,0.2,0.9,0.3,1.3
					c0.1,0.6,0.1,1.2,0.1,1.8c0,1.5-0.2,3-0.6,4.4c-0.2,0.8,0.2,1.6,1,1.8c0.2,0,0.4,0,0.6,0c0.6-0.1,1.1-0.5,1.2-1.1
					c0.5-1.7,0.7-3.4,0.7-5.2c0-0.7,0-1.5-0.1-2.2c-0.1-0.6-0.2-1.2-0.4-1.7c-0.2-0.6-0.8-1.1-1.4-1.1
					C229.8,566.9,229.7,566.9,229.6,567 M194.4,566.3c-2.4,1.5-4.8,3.2-7,5c-0.7,0.4-0.9,1.4-0.4,2.1c0.4,0.5,1,0.8,1.6,0.6
					c0.3,0,0.5-0.1,0.7-0.3c2.1-1.8,4.4-3.4,6.7-4.8c0.7-0.4,1-1.3,0.6-2c-0.4-0.7-1.3-1-2-0.6C194.5,566.3,194.5,566.3,194.4,566.3
					 M188.2,561.3c-1.4,2.6-2.5,5.3-3.3,8.1c-0.2,0.8,0.2,1.6,1,1.8c0.2,0,0.4,0,0.6,0c0.6-0.1,1.1-0.5,1.2-1.1
					c0.7-2.6,1.8-5.1,3.1-7.5c0.4-0.7,0.1-1.6-0.6-2c-0.2-0.1-0.5-0.2-0.7-0.2C188.9,560.5,188.4,560.8,188.2,561.3 M209.6,559.8
					c-2.8,0.7-5.6,1.6-8.2,2.8c-0.8,0.3-1.1,1.2-0.8,1.9c0.3,0.6,0.9,1,1.6,0.9c0.1,0,0.3-0.1,0.4-0.1c2.5-1.1,5.1-2,7.7-2.7
					c0.8-0.2,1.3-0.9,1.2-1.7c-0.1-0.7-0.8-1.2-1.5-1.2L209.6,559.8 M217.5,558.9c-0.8,0-1.5,0.6-1.5,1.5c0,0.8,0.6,1.5,1.5,1.5
					c2.6,0,5.1,0.7,7.3,1.9c0.3,0.2,0.7,0.3,1,0.2c0.4-0.1,0.8-0.3,1.1-0.7c0.4-0.7,0.2-1.6-0.5-2c0,0,0,0,0,0
					C223.6,559.7,220.6,558.9,217.5,558.9L217.5,558.9z M198.8,548.5c-2.2,1.9-4.3,4-6.1,6.2c-0.5,0.6-0.4,1.6,0.2,2.1c0,0,0,0,0,0
					c0.3,0.3,0.7,0.4,1.1,0.3c0.4-0.1,0.7-0.3,0.9-0.5c1.7-2.1,3.6-4.1,5.7-5.8c0.6-0.5,0.7-1.5,0.2-2.1c-0.3-0.3-0.7-0.5-1.2-0.5
					C199.3,548.2,199,548.3,198.8,548.5 M212.6,539.9c-2.6,1.2-5.2,2.6-7.6,4.1c-0.7,0.4-1,1.3-0.6,2s1.3,1,2,0.6
					c0.1,0,0.1-0.1,0.2-0.1c2.3-1.5,4.8-2.8,7.3-3.9c0.8-0.3,1.1-1.2,0.8-1.9c-0.3-0.8-1.2-1.1-1.9-0.8
					C212.7,539.8,212.6,539.8,212.6,539.9 M228.2,534.9c-2.8,0.6-5.6,1.3-8.3,2.2c-0.8,0.2-1.3,1-1.1,1.8c0.2,0.8,1,1.2,1.7,1.1
					l0.3,0c2.6-0.9,5.3-1.6,8-2.1c0.8-0.2,1.3-0.9,1.2-1.7c0,0,0,0,0,0c-0.1-0.7-0.7-1.2-1.4-1.2
					C228.4,534.8,228.3,534.8,228.2,534.9 M235.8,533.7c-0.8,0.1-1.4,0.8-1.4,1.6s0.8,1.4,1.6,1.4l0,0c2.7-0.3,5.5-0.3,8.2-0.1
					c0.1,0,0.2,0,0.3,0c0.7-0.1,1.2-0.7,1.3-1.4c0.1-0.8-0.6-1.5-1.4-1.6c-1.1-0.1-2.3-0.1-3.4-0.1
					C239.4,533.5,237.6,533.6,235.8,533.7"/>
			</defs>
			<clipPath id="SVGID_123_">
				<use xlink:href="#SVGID_122_"  style="overflow:visible;"/>
			</clipPath>
			<g class="st81">
				
					<radialGradient id="SVGID_124_" cx="-946.7403" cy="-2882.1885" r="1" gradientTransform="matrix(46.3873 -6.7093 -6.7093 -46.3873 24778.8535 -139484.5625)" gradientUnits="userSpaceOnUse">
					<stop  offset="0" style="stop-color:#FF2639"/>
					<stop  offset="0.29" style="stop-color:#EA1D2C"/>
					<stop  offset="0.9" style="stop-color:#B3040A"/>
					<stop  offset="1" style="stop-color:#A90004"/>
				</radialGradient>
				<polygon class="st82" points="168,534.5 244.5,523.5 253.4,584.5 176.8,595.5 				"/>
			</g>
		</g>
		<path class="st8" d="M0,211.1v374.4h420.5c0.9,0,1.6,0.9,1.6,0V211.9C422.1,95,327.5,0.3,210.7,0C94.3,0.3,0,94.7,0,211.1"/>
		<g>
			<defs>
				<path id="SVGID_125_" d="M0,211.1v374.4h420.5c0.9,0,1.6,0.9,1.6,0V211.9C422.1,95,327.5,0.3,210.7,0C94.3,0.3,0,94.7,0,211.1"
					/>
			</defs>
			<clipPath id="SVGID_126_">
				<use xlink:href="#SVGID_125_"  style="overflow:visible;"/>
			</clipPath>
			<g class="st83">
				<g>
					<defs>
						<path id="SVGID_127_" d="M-32.8,137.1c-0.4,0-0.8-0.2-1.1-0.5c-0.5-0.6-0.5-1.5,0.1-2.1c0,0,1.1-1,3.2-2.7
							c0.7-0.5,1.6-0.3,2.1,0.4c0.4,0.6,0.3,1.4-0.2,1.9c-2,1.6-3.1,2.6-3.1,2.6C-32,137-32.4,137.1-32.8,137.1"/>
					</defs>
					<clipPath id="SVGID_128_">
						<use xlink:href="#SVGID_127_"  style="overflow:visible;"/>
					</clipPath>
					<g class="st84">
						<g>
							<defs>
								<rect id="SVGID_129_" x="-34.4" y="131.3" width="6.5" height="5.8"/>
							</defs>
							<clipPath id="SVGID_130_">
								<use xlink:href="#SVGID_129_"  style="overflow:visible;"/>
							</clipPath>
							<g class="st85">
								
									<radialGradient id="SVGID_131_" cx="-810.2825" cy="-2614.9878" r="1" gradientTransform="matrix(2.95 0 0 -2.95 2359.469 -7582.1304)" gradientUnits="userSpaceOnUse">
									<stop  offset="0" style="stop-color:#FF2639"/>
									<stop  offset="0.29" style="stop-color:#EA1D2C"/>
									<stop  offset="0.9" style="stop-color:#B3040A"/>
									<stop  offset="1" style="stop-color:#A90004"/>
								</radialGradient>
								<rect x="-34.4" y="131.3" class="st86" width="6.5" height="5.8"/>
							</g>
						</g>
					</g>
				</g>
			</g>
		</g>
		<g>
			<defs>
				<path id="SVGID_132_" d="M203.4,109.5c-2.6,0.5-5.2,0.7-7.9,0.8c-0.8,0-1.5,0.7-1.4,1.6c0,0.8,0.7,1.4,1.5,1.4
					c2.8-0.1,5.6-0.4,8.3-0.9c0.8-0.2,1.3-0.9,1.2-1.8c-0.1-0.7-0.7-1.2-1.4-1.2C203.6,109.4,203.5,109.4,203.4,109.5 M178.8,110.4
					c-0.1,0.8,0.4,1.6,1.2,1.7c2.9,0.5,5.5,0.8,8.2,1h0.1c0.8,0,1.5-0.6,1.6-1.4c0-0.8-0.6-1.5-1.4-1.6c-2.6-0.2-5.3-0.5-7.9-1
					c-0.1,0-0.2,0-0.3,0C179.6,109.1,178.9,109.6,178.8,110.4 M163.9,106.5c-0.2,0.8,0.2,1.6,1,1.8c2.9,0.8,5.4,1.5,7.9,2.1
					c0.1,0,0.2,0,0.4,0c0.8,0,1.5-0.7,1.5-1.5c0-0.7-0.5-1.3-1.1-1.5c-2.4-0.6-4.9-1.3-7.8-2.1c-0.1,0-0.3-0.1-0.4-0.1
					C164.6,105.4,164.1,105.9,163.9,106.5 M217.7,105c-2.4,1.1-4.9,2-7.4,2.8c-0.8,0.2-1.2,1.1-1,1.9c0.2,0.6,0.8,1,1.4,1
					c0.1,0,0.3,0,0.4-0.1c2.6-0.8,5.2-1.8,7.7-3c0.7-0.3,1.1-1.2,0.7-2c-0.2-0.5-0.8-0.9-1.3-0.9C218.1,104.8,217.9,104.9,217.7,105
					 M149.2,102c-0.3,0.8,0.2,1.6,0.9,1.9l0.2,0.1c2.6,0.8,5,1.7,7.5,2.4c0.1,0,0.3,0.1,0.4,0.1c0.6,0,1.2-0.4,1.4-1
					c0.2-0.8-0.2-1.6-1-1.9c0,0,0,0,0,0c-2.5-0.8-4.9-1.6-7.5-2.4l-0.2-0.1c-0.2,0-0.3-0.1-0.5-0.1C150,101,149.4,101.4,149.2,102
					 M230.7,97.4c-2.2,1.6-4.5,3-6.7,4.3c-0.7,0.4-0.9,1.3-0.5,2c0.3,0.4,0.7,0.7,1.3,0.7c0.3,0,0.5-0.1,0.8-0.2
					c2.3-1.3,4.6-2.8,6.9-4.5c0.7-0.5,0.8-1.4,0.4-2.1c-0.3-0.4-0.7-0.6-1.2-0.6C231.2,97.1,230.9,97.2,230.7,97.4 M134.6,97.3
					c-0.2,0.8,0.2,1.6,1,1.8c2.6,0.8,5.2,1.6,7.7,2.4c0.1,0,0.3,0.1,0.4,0.1c0.8,0,1.5-0.7,1.5-1.5c0-0.6-0.4-1.2-1-1.4
					c-2.5-0.8-5.1-1.6-7.8-2.4c-0.1,0-0.3-0.1-0.4-0.1C135.3,96.2,134.8,96.7,134.6,97.3 M37.5,95.4c-1.2,0.4-2.5,0.8-3.7,1.2
					c-0.9,1.3-1.7,2.7-2.5,4c2.3-0.8,4.7-1.6,7.1-2.3c0.8-0.2,1.2-1.1,1-1.9c-0.2-0.6-0.8-1-1.4-1C37.7,95.3,37.6,95.3,37.5,95.4
					 M119.7,93.4c-0.2,0.8,0.3,1.6,1.1,1.8c0,0,0,0,0,0c2.5,0.6,5.1,1.2,7.8,2c0.1,0,0.3,0,0.4,0c0.8,0,1.5-0.7,1.5-1.5
					c0-0.7-0.4-1.2-1.1-1.4c-2.7-0.7-5.4-1.4-7.9-2c-0.1,0-0.2,0-0.3,0C120.4,92.2,119.8,92.7,119.7,93.4 M52.5,91.5
					c-2.6,0.6-5.3,1.2-8,1.9c-0.8,0.2-1.3,1-1.1,1.8c0.2,0.6,0.8,1.1,1.4,1.1c0.1,0,0.3,0,0.4-0.1c2.6-0.7,5.2-1.3,7.8-1.8
					c0.8-0.2,1.3-1,1.1-1.8c-0.2-0.7-0.7-1.1-1.4-1.1C52.6,91.4,52.5,91.4,52.5,91.5 M104.4,90.7c-0.1,0.8,0.5,1.6,1.3,1.7
					c2.6,0.4,5.3,0.8,7.9,1.3c0.1,0,0.2,0,0.3,0c0.8,0,1.5-0.7,1.5-1.5c0-0.7-0.5-1.3-1.2-1.4c-2.7-0.5-5.4-1-8.1-1.3h-0.2
					C105.2,89.4,104.5,90,104.4,90.7 M67.8,89c-1.4,0.2-2.9,0.3-4.4,0.5c-1.3,0.2-2.5,0.4-3.7,0.6c-0.8,0.1-1.4,0.8-1.4,1.6
					c0.1,0.8,0.8,1.4,1.6,1.4h0.3c1.2-0.2,2.4-0.4,3.7-0.6c1.4-0.2,2.9-0.4,4.3-0.5c0.8,0,1.5-0.8,1.4-1.6c0-0.8-0.8-1.5-1.6-1.4
					L67.8,89 M89.2,89.6c0,0.8,0.6,1.5,1.4,1.5c2.7,0.1,5.4,0.3,8,0.5h0.1c0.8,0,1.5-0.6,1.6-1.4s-0.6-1.5-1.4-1.6
					c-2.7-0.2-5.4-0.4-8.2-0.5h-0.1C89.8,88.1,89.2,88.7,89.2,89.6 M83.3,88c-2.7,0-5.5,0.2-8.2,0.3c-0.8,0-1.5,0.7-1.4,1.5
					c0,0.8,0.7,1.5,1.6,1.5h0.1c2.7-0.2,5.4-0.3,8-0.3c0.8,0,1.5-0.7,1.5-1.5S84.2,88,83.3,88L83.3,88z"/>
			</defs>
			<clipPath id="SVGID_133_">
				<use xlink:href="#SVGID_132_"  style="overflow:visible;"/>
			</clipPath>
			<g class="st87">
				
					<radialGradient id="SVGID_134_" cx="-953.8018" cy="-2889.4771" r="1" gradientTransform="matrix(92.55 0 0 -92.55 88376.9688 -267302.4375)" gradientUnits="userSpaceOnUse">
					<stop  offset="0" style="stop-color:#FF2639"/>
					<stop  offset="0.29" style="stop-color:#EA1D2C"/>
					<stop  offset="0.9" style="stop-color:#B3040A"/>
					<stop  offset="1" style="stop-color:#A90004"/>
				</radialGradient>
				<rect x="31.2" y="88" class="st88" width="202" height="25.2"/>
			</g>
		</g>
		<g>
			<defs>
				<path id="SVGID_135_" d="M239.6,90.3c-1,0.9-2.1,1.8-3.1,2.7c-0.6,0.5-0.7,1.4-0.2,2.1c0.3,0.3,0.7,0.6,1.2,0.5
					c0.3,0,0.7-0.1,0.9-0.3c1.1-0.9,2.1-1.8,3.2-2.7c0.6-0.5,0.7-1.5,0.2-2.1c-0.3-0.3-0.7-0.5-1.2-0.5
					C240.2,89.9,239.8,90.1,239.6,90.3"/>
			</defs>
			<clipPath id="SVGID_136_">
				<use xlink:href="#SVGID_135_"  style="overflow:visible;"/>
			</clipPath>
			<g class="st89">
				
					<radialGradient id="SVGID_137_" cx="-810.7922" cy="-2615.3965" r="1" gradientTransform="matrix(2.96 0 0 -2.96 2636.6831 -7633.5596)" gradientUnits="userSpaceOnUse">
					<stop  offset="0" style="stop-color:#FF2639"/>
					<stop  offset="0.29" style="stop-color:#EA1D2C"/>
					<stop  offset="0.9" style="stop-color:#B3040A"/>
					<stop  offset="1" style="stop-color:#A90004"/>
				</radialGradient>
				<rect x="235.7" y="89.9" class="st90" width="6.5" height="5.7"/>
			</g>
		</g>
		<g>
			<defs>
				<path id="SVGID_138_" d="M398.7,451.4c-0.6,0.6-0.6,1.5,0,2.1c2.1,2.1,4.4,4,6.7,5.8c0.3,0.2,0.6,0.3,0.9,0.3
					c0.8,0,1.5-0.7,1.5-1.5c0-0.5-0.2-0.9-0.6-1.2c-2.3-1.7-4.4-3.5-6.4-5.5c-0.3-0.3-0.6-0.4-1-0.4
					C399.3,451,398.9,451.1,398.7,451.4 M389.6,437.8c-0.8,0.3-1.1,1.2-0.8,1.9c0,0,0,0,0,0c1.2,2.8,2.7,5.4,4.5,7.8
					c0.5,0.6,1.5,0.7,2.1,0.1c0.5-0.5,0.7-1.3,0.3-1.9c-1.7-2.2-3.1-4.6-4.2-7.1c-0.2-0.5-0.8-0.9-1.4-0.9
					C390,437.7,389.8,437.7,389.6,437.8 M387.7,422.7c-0.6,1.9-0.9,3.9-1,5.8c0,0.4,0,0.8,0,1.1c0,0.7,0,1.4,0.1,2.1
					c0.1,0.8,0.7,1.4,1.5,1.4h0.1c0.8-0.1,1.4-0.8,1.4-1.6c-0.1-0.6-0.1-1.2-0.1-1.9c0-0.3,0-0.7,0-1c0.1-1.7,0.4-3.4,0.9-5
					c0.2-0.8-0.2-1.6-1-1.9c-0.1,0-0.3-0.1-0.4-0.1C388.5,421.7,388,422.1,387.7,422.7 M399.3,410.1c-2.7,1.4-5.2,3.2-7.3,5.4
					c-0.6,0.6-0.5,1.5,0.1,2.1c0.3,0.3,0.6,0.4,1,0.4c0.4,0,0.8-0.2,1.1-0.5c1.9-2,4.1-3.6,6.5-4.8c0.7-0.4,1-1.3,0.6-2
					c-0.3-0.5-0.8-0.8-1.3-0.8C399.7,410,399.5,410,399.3,410.1 M415.1,404.6c-3.4,0.9-6,1.6-8.4,2.5c-0.8,0.2-1.2,1.1-1,1.9
					c0.2,0.6,0.8,1,1.4,1c0.2,0,0.3,0,0.5-0.1c2.3-0.8,4.9-1.5,8.2-2.4c0.8-0.2,1.3-1,1.1-1.8c-0.2-0.7-0.8-1.1-1.5-1.1
					C415.3,404.5,415.2,404.5,415.1,404.6 M421.6,404.5c0.1,0.3,0.3,0.6,0.5,0.8V403C421.6,403.4,421.4,404,421.6,404.5"/>
			</defs>
			<clipPath id="SVGID_139_">
				<use xlink:href="#SVGID_138_"  style="overflow:visible;"/>
			</clipPath>
			<g class="st91">
				
					<radialGradient id="SVGID_140_" cx="-949.3804" cy="-2881.0154" r="1" gradientTransform="matrix(47.8 0 0 -47.8 45802.9531 -137298.3906)" gradientUnits="userSpaceOnUse">
					<stop  offset="0" style="stop-color:#FF2639"/>
					<stop  offset="0.29" style="stop-color:#EA1D2C"/>
					<stop  offset="0.9" style="stop-color:#B3040A"/>
					<stop  offset="1" style="stop-color:#A90004"/>
				</radialGradient>
				<rect x="386.7" y="403" class="st92" width="35.4" height="56.5"/>
			</g>
		</g>
		<path class="st8" d="M0,211.1v374.4h420.5c0.9,0,1.6,0.9,1.6,0V211.9C422.1,95,327.5,0.3,210.7,0C94.3,0.3,0,94.7,0,211.1"/>
		<g>
			<defs>
				<path id="SVGID_141_" d="M83,471.1c-0.4,0-0.7,0.1-1,0.4c-0.6,0.6-0.6,1.5-0.1,2.1c0,0,0,0,0,0c0.9,1,1.9,2,2.8,3
					c0.6,0.6,1.5,0.7,2.1,0.1c0.6-0.6,0.7-1.5,0.1-2.1c-0.9-1-1.9-2.1-2.8-3.1C83.8,471.2,83.5,471.1,83,471.1L83,471.1z"/>
			</defs>
			<clipPath id="SVGID_142_">
				<use xlink:href="#SVGID_141_"  style="overflow:visible;"/>
			</clipPath>
			<g class="st93">
				
					<radialGradient id="SVGID_143_" cx="-810.2825" cy="-2614.9778" r="1" gradientTransform="matrix(2.95 0 0 -2.95 2475.0491 -7241.7905)" gradientUnits="userSpaceOnUse">
					<stop  offset="0" style="stop-color:#FF2639"/>
					<stop  offset="0.29" style="stop-color:#EA1D2C"/>
					<stop  offset="0.9" style="stop-color:#B3040A"/>
					<stop  offset="1" style="stop-color:#A90004"/>
				</radialGradient>
				<rect x="81.4" y="471.1" class="st94" width="6.1" height="6"/>
			</g>
		</g>
		<g>
			<defs>
				<path id="SVGID_144_" d="M34.4,466.1c-1.7,0.3-3.5,0.5-5.3,0.7c-1,0.1-1.9,0.1-2.9,0.2c-0.8,0-1.5,0.7-1.5,1.5s0.7,1.5,1.5,1.5
					h0.1c1,0,2-0.1,3-0.2c1.8-0.1,3.7-0.4,5.5-0.7c0.8-0.2,1.3-0.9,1.2-1.8c-0.1-0.7-0.7-1.2-1.4-1.2L34.4,466.1 M9,467.2
					c-0.2,0.8,0.3,1.6,1.1,1.8c0,0,0,0,0,0c2.8,0.5,5.7,0.9,8.5,1h0.1c0.8,0,1.5-0.6,1.5-1.5s-0.6-1.5-1.5-1.5
					c-2.7-0.1-5.4-0.5-8.1-1c-0.1,0-0.2,0-0.3,0C9.8,466,9.1,466.5,9,467.2 M0,465.7c0.9,0.4,1.8,0.8,2.7,1.1
					c0.2,0.1,0.3,0.1,0.5,0.1c0.8,0,1.5-0.7,1.5-1.5c0-0.6-0.4-1.2-1-1.4c-1.3-0.5-2.5-1-3.7-1.6V465.7z M49.4,461.7
					c-2.5,1-5.1,2-7.8,2.7c-0.8,0.2-1.2,1.1-1,1.8c0.2,0.6,0.8,1.1,1.4,1.1c0.1,0,0.3,0,0.4-0.1c2.7-0.8,5.4-1.7,8-2.8
					c0.8-0.3,1.1-1.2,0.8-1.9c-0.2-0.6-0.8-1-1.4-0.9C49.6,461.6,49.4,461.7,49.4,461.7 M70.6,460.5c-0.5,0.6-0.5,1.6,0.1,2.1
					c2,1.8,4.1,3.7,6.1,5.7c0.3,0.3,0.6,0.4,1,0.4c0.4,0,0.8-0.2,1.1-0.5c0.6-0.6,0.6-1.5,0-2.1c0,0,0,0,0,0c-2-2-4.1-3.9-6.2-5.8
					c-0.3-0.2-0.6-0.4-1-0.4C71.2,459.9,70.8,460.1,70.6,460.5 M58.1,450.6c-0.5,0.7-0.3,1.6,0.3,2.1c0,0,0,0,0,0
					c1.2,0.9,2.4,1.8,3.6,2.7c-2.1,1.2-4,2.3-6,3.3c-0.7,0.4-1,1.3-0.7,2c0.3,0.5,0.8,0.8,1.3,0.8c0.2,0,0.5-0.1,0.7-0.2
					c2.3-1.2,4.6-2.5,7.1-3.9l0.4,0.4c0.7,0.5,1.6,0.4,2.1-0.3c0.5-0.6,0.4-1.5-0.2-2c-2.2-1.8-4.5-3.5-6.7-5.2
					c-0.3-0.2-0.6-0.3-0.9-0.3C58.7,449.9,58.3,450.2,58.1,450.6 M76.7,446.1c-2.4,1.6-4.7,3.1-7,4.6c-0.7,0.4-0.9,1.4-0.4,2.1
					c0.3,0.4,0.7,0.7,1.2,0.7c0.3,0,0.6-0.1,0.8-0.2c2.3-1.5,4.7-3,7-4.6c0.7-0.5,0.9-1.4,0.4-2.1c-0.3-0.4-0.7-0.7-1.2-0.7
					C77.2,445.9,76.9,446,76.7,446.1 M44.5,442.1c-0.4,0.7-0.1,1.6,0.6,2c2.3,1.3,4.8,2.8,7.1,4.3c0.2,0.1,0.5,0.2,0.8,0.2
					c0.5,0,1-0.3,1.3-0.7c0.4-0.7,0.2-1.6-0.4-2c0,0,0,0,0,0c-2.4-1.6-4.9-3-7.3-4.4c-0.2-0.1-0.5-0.2-0.7-0.2
					C45.2,441.3,44.7,441.6,44.5,442.1 M90.1,437.5c-2.2,1.3-4.5,2.7-7.1,4.5c-0.7,0.5-0.8,1.4-0.3,2.1c0.4,0.6,1.3,0.8,1.9,0.4
					c2.7-1.7,4.9-3.1,7.1-4.4c0.7-0.4,0.9-1.3,0.5-2c-0.3-0.4-0.7-0.7-1.3-0.7C90.6,437.3,90.4,437.4,90.1,437.5 M30,435.5
					c-0.3,0.8,0.1,1.6,0.9,1.9c2.5,1,5.1,2,7.6,3.2c0.2,0.1,0.4,0.1,0.6,0.1c0.6,0,1.2-0.3,1.4-0.8c0.4-0.7,0.1-1.6-0.7-2
					c0,0,0,0,0,0c-2.6-1.2-5.2-2.4-7.8-3.3c-0.2-0.1-0.3-0.1-0.5-0.1C30.8,434.6,30.2,435,30,435.5 M14.6,431.6
					c-0.1,0.8,0.4,1.6,1.2,1.7c2.2,0.4,4.3,0.8,6.5,1.4l1.5,0.4c0.1,0,0.3,0.1,0.4,0.1c0.8,0,1.5-0.7,1.5-1.5c0-0.7-0.4-1.2-1.1-1.4
					l-1.6-0.4c-2.2-0.6-4.5-1.1-6.8-1.5h-0.2C15.3,430.4,14.7,430.9,14.6,431.6 M0,430.7v2.9c0.1,0,0.2,0,0.3,0c0.1,0,0.2,0,0.4,0
					c2.5-0.6,5.2-0.9,7.8-0.9h0.2c0.8,0,1.4-0.7,1.4-1.5c0,0,0,0,0,0c0-0.8-0.7-1.5-1.5-1.5C5.6,429.7,2.8,430.1,0,430.7
					 M104.3,429.9c-2.5,1.2-4.9,2.5-7.5,3.9c-0.7,0.4-1,1.3-0.6,2c0.3,0.5,0.8,0.8,1.3,0.8c0.2,0,0.5-0.1,0.7-0.2
					c2.5-1.4,4.9-2.6,7.4-3.8c0.7-0.4,1.1-1.2,0.7-2c0,0,0,0,0,0c-0.2-0.5-0.8-0.8-1.3-0.9C104.7,429.7,104.5,429.8,104.3,429.9
					 M119.3,423.9c-2.6,0.8-5.3,1.8-8,2.9c-0.8,0.3-1.1,1.2-0.8,1.9c0.2,0.6,0.8,0.9,1.4,0.9c0.2,0,0.4,0,0.6-0.1
					c2.6-1,5.2-2,7.8-2.8c0.8-0.2,1.2-1.1,1-1.9c-0.2-0.6-0.8-1-1.4-1C119.6,423.8,119.5,423.8,119.3,423.9"/>
			</defs>
			<clipPath id="SVGID_145_">
				<use xlink:href="#SVGID_144_"  style="overflow:visible;"/>
			</clipPath>
			<g class="st95">
				
					<radialGradient id="SVGID_146_" cx="-949.8977" cy="-2882.0112" r="1" gradientTransform="matrix(50.67 0 0 -50.67 48184.7813 -145585.2656)" gradientUnits="userSpaceOnUse">
					<stop  offset="0" style="stop-color:#FF2639"/>
					<stop  offset="0.29" style="stop-color:#EA1D2C"/>
					<stop  offset="0.9" style="stop-color:#B3040A"/>
					<stop  offset="1" style="stop-color:#A90004"/>
				</radialGradient>
				<rect x="0" y="423.8" class="st96" width="121.4" height="46.1"/>
			</g>
		</g>
		<g>
			<defs>
				<path id="SVGID_147_" d="M0,211.1v374.4h420.5c0.9,0,1.6,0.9,1.6,0V211.9C422.1,95,327.5,0.3,210.7,0C94.3,0.3,0,94.7,0,211.1"
					/>
			</defs>
			<clipPath id="SVGID_148_">
				<use xlink:href="#SVGID_147_"  style="overflow:visible;"/>
			</clipPath>
			<g class="st97">
				<g>
					<defs>
						<path id="SVGID_149_" d="M355.2,624.4c-0.8,0-1.5-0.7-1.5-1.5c0,0,0,0,0,0c0-0.1,0-1.6,0.3-4.2c0.1-0.8,0.8-1.4,1.6-1.4
							s1.4,0.8,1.4,1.6c-0.3,2.6-0.3,4-0.3,4C356.7,623.7,356.1,624.3,355.2,624.4"/>
					</defs>
					<clipPath id="SVGID_150_">
						<use xlink:href="#SVGID_149_"  style="overflow:visible;"/>
					</clipPath>
					<g class="st98">
						<g>
							<defs>
								<rect id="SVGID_151_" x="353.7" y="617.2" width="3.4" height="7.2"/>
							</defs>
							<clipPath id="SVGID_152_">
								<use xlink:href="#SVGID_151_"  style="overflow:visible;"/>
							</clipPath>
							<g class="st99">
								
									<radialGradient id="SVGID_153_" cx="-800.6502" cy="-2596.0718" r="1" gradientTransform="matrix(2.77 0 0 -2.77 2571.4834 -6558.6704)" gradientUnits="userSpaceOnUse">
									<stop  offset="0" style="stop-color:#FF2639"/>
									<stop  offset="0.29" style="stop-color:#EA1D2C"/>
									<stop  offset="0.9" style="stop-color:#B3040A"/>
									<stop  offset="1" style="stop-color:#A90004"/>
								</radialGradient>
								<rect x="353.7" y="617.2" class="st100" width="3.4" height="7.2"/>
							</g>
						</g>
					</g>
				</g>
			</g>
		</g>
		<g>
			<defs>
				<path id="SVGID_154_" d="M365.6,573.6c-1,2.5-2,5.1-2.9,7.6c-0.3,0.8,0.1,1.6,0.9,1.9c0.2,0.1,0.3,0.1,0.5,0.1
					c0.6,0,1.2-0.4,1.4-1c0.9-2.5,1.9-5,2.9-7.5c0.3-0.8-0.1-1.6-0.8-1.9c-0.2-0.1-0.4-0.1-0.6-0.1
					C366.4,572.7,365.8,573,365.6,573.6 M372.1,559.5c-1.3,2.4-2.5,4.9-3.6,7.3c-0.4,0.7-0.1,1.6,0.7,2c0,0,0,0,0,0
					c0.2,0.1,0.4,0.1,0.6,0.1c0.6,0,1.1-0.3,1.4-0.9c1.1-2.4,2.3-4.8,3.5-7.2c0.4-0.7,0.1-1.6-0.6-2c-0.2-0.1-0.4-0.2-0.7-0.2
					C372.9,558.8,372.4,559.1,372.1,559.5 M380,546.2c-1.5,2.3-2.9,4.6-4.3,7c-0.4,0.7-0.1,1.6,0.5,2c0.7,0.4,1.6,0.1,2-0.5
					c1.3-2.3,2.8-4.6,4.2-6.8c0.5-0.7,0.4-1.6-0.3-2.1c-0.7-0.5-1.6-0.4-2.1,0.3C380,546,380,546.1,380,546.2 M389.1,533.6
					c-1.7,2.1-3.4,4.3-4.9,6.5c-0.5,0.7-0.3,1.6,0.3,2.1c0,0,0,0,0,0c0.7,0.5,1.6,0.3,2.1-0.3c1.5-2.2,3.2-4.3,4.9-6.4
					c0.6-0.6,0.5-1.5-0.1-2.1c-0.6-0.6-1.5-0.5-2.1,0.1C389.1,533.5,389.1,533.5,389.1,533.6 M399.4,522c-1.9,1.9-3.8,4-5.6,6
					c-0.5,0.6-0.5,1.5,0.1,2.1c0,0,0,0,0,0c0.3,0.2,0.6,0.4,1,0.4c0.4,0,0.8-0.2,1.1-0.5c1.8-2,3.6-4,5.5-5.9c0.6-0.6,0.6-1.5,0-2.1
					c0,0,0,0,0,0c-0.3-0.3-0.6-0.4-1-0.4C400.1,521.5,399.7,521.7,399.4,522 M410.8,511.4c-2.1,1.8-4.1,3.6-6.1,5.4
					c-0.6,0.6-0.6,1.5-0.1,2.1c0.3,0.3,0.7,0.5,1.1,0.5c0.4,0,0.7-0.1,1-0.4c2-1.8,4-3.6,6-5.3c0.6-0.5,0.7-1.5,0.2-2.1
					c-0.3-0.3-0.7-0.5-1.2-0.5c-0.4,0-0.7,0.1-1,0.4 M416.4,506.8c-0.7,0.5-0.8,1.4-0.3,2.1c0,0,0,0,0,0c0.5,0.7,1.4,0.8,2.1,0.3
					c0,0,0,0,0,0c1.3-1,2.5-1.9,3.8-2.8v-3.6C420.2,504,418.3,505.4,416.4,506.8"/>
			</defs>
			<clipPath id="SVGID_155_">
				<use xlink:href="#SVGID_154_"  style="overflow:visible;"/>
			</clipPath>
			<g class="st101">
				
					<radialGradient id="SVGID_156_" cx="-949.1345" cy="-2880.5547" r="1" gradientTransform="matrix(46.57 0 0 -46.57 44592.3789 -133596.6719)" gradientUnits="userSpaceOnUse">
					<stop  offset="0" style="stop-color:#FF2639"/>
					<stop  offset="0.29" style="stop-color:#EA1D2C"/>
					<stop  offset="0.9" style="stop-color:#B3040A"/>
					<stop  offset="1" style="stop-color:#A90004"/>
				</radialGradient>
				<rect x="362.4" y="502.7" class="st102" width="59.8" height="80.6"/>
			</g>
		</g>
		<g>
			<defs>
				<path id="SVGID_157_" d="M0,211.1v374.4h420.5c0.9,0,1.6,0.9,1.6,0V211.9C422.1,95,327.5,0.3,210.7,0C94.3,0.3,0,94.7,0,211.1"
					/>
			</defs>
			<clipPath id="SVGID_158_">
				<use xlink:href="#SVGID_157_"  style="overflow:visible;"/>
			</clipPath>
			<g class="st103">
				<g>
					<defs>
						<path id="SVGID_159_" d="M430,500.7c-0.8,0-1.5-0.7-1.5-1.5c0-0.5,0.3-1,0.7-1.3c1.2-0.7,2.4-1.5,3.6-2.2
							c0.7-0.4,1.6-0.2,2,0.5s0.2,1.6-0.5,2c-1.2,0.7-2.4,1.4-3.5,2.1C430.6,500.6,430.3,500.7,430,500.7"/>
					</defs>
					<clipPath id="SVGID_160_">
						<use xlink:href="#SVGID_159_"  style="overflow:visible;"/>
					</clipPath>
					<g class="st104">
						<g>
							<defs>
								<rect id="SVGID_161_" x="428.3" y="495.3" width="6.9" height="5.4"/>
							</defs>
							<clipPath id="SVGID_162_">
								<use xlink:href="#SVGID_161_"  style="overflow:visible;"/>
							</clipPath>
							<g class="st105">
								
									<radialGradient id="SVGID_163_" cx="-809.2629" cy="-2613.4421" r="1" gradientTransform="matrix(2.93 0 0 -2.93 2805.0205 -7173.3799)" gradientUnits="userSpaceOnUse">
									<stop  offset="0" style="stop-color:#FF2639"/>
									<stop  offset="0.29" style="stop-color:#EA1D2C"/>
									<stop  offset="0.9" style="stop-color:#B3040A"/>
									<stop  offset="1" style="stop-color:#A90004"/>
								</radialGradient>
								<rect x="428.3" y="495.3" class="st106" width="6.9" height="5.4"/>
							</g>
						</g>
					</g>
				</g>
			</g>
		</g>
	</g>
</g>
</svg>
