<svg xmlns="http://www.w3.org/2000/svg" xmlns:xlink="http://www.w3.org/1999/xlink" viewBox="0 0 424.41 586.36"><defs><style>.cls-1{fill:none;}.cls-2{fill:#f3f3f3;}.cls-3{clip-path:url(#clip-path);}.cls-4{fill:url(#radial-gradient);}.cls-5{clip-path:url(#clip-path-2);}.cls-6{fill:url(#radial-gradient-2);}.cls-7{clip-path:url(#clip-path-3);}.cls-8{fill:url(#radial-gradient-3);}.cls-9{clip-path:url(#clip-path-4);}.cls-10{fill:url(#radial-gradient-4);}.cls-11{clip-path:url(#clip-path-5);}.cls-12{fill:url(#radial-gradient-5);}.cls-13{clip-path:url(#clip-path-6);}.cls-14{fill:url(#radial-gradient-6);}.cls-15{clip-path:url(#clip-path-7);}.cls-16{fill:url(#radial-gradient-7);}.cls-17{clip-path:url(#clip-path-8);}.cls-18{fill:url(#radial-gradient-8);}.cls-19{clip-path:url(#clip-path-9);}.cls-20{fill:url(#radial-gradient-9);}.cls-21{clip-path:url(#clip-path-10);}.cls-22{fill:url(#radial-gradient-10);}.cls-23{clip-path:url(#clip-path-11);}.cls-24{fill:url(#radial-gradient-11);}.cls-25{clip-path:url(#clip-path-12);}.cls-26{fill:url(#radial-gradient-12);}.cls-27{clip-path:url(#clip-path-13);}.cls-28{fill:url(#radial-gradient-13);}.cls-29{clip-path:url(#clip-path-14);}.cls-30{fill:url(#radial-gradient-14);}.cls-31{clip-path:url(#clip-path-15);}.cls-32{fill:url(#radial-gradient-15);}</style><clipPath id="clip-path"><path class="cls-1" d="M251.51,530.18l.05-.15-.05-.15a14.86,14.86,0,0,1-.5-4,17.57,17.57,0,0,1,.53-4.29c1.14-4.62,11.4-22.53,15.32-27.86,2-2.82,3.45-3.7,4-3.65s.82.47,1.05,1.51v.11c.05,3-8.94,26.46-9,26.48l-.93,2.4,1.76-1.88s16.11-17.1,18.31-17.29a3.88,3.88,0,0,1,.61-.06c.55.09.36,0,.44.3,0,.78-1,3.05-2.74,6.9-2.9,6.43-14.67,21-14.69,21l-.29.36.33.31a29.15,29.15,0,0,1,6.84,11.06,15.4,15.4,0,0,1,1,3.92,2.7,2.7,0,0,1-1.45,2.4,11.48,11.48,0,0,1-6.54,1.8,19.25,19.25,0,0,1-5.68-.89l-.64-.23,0,.69a11.86,11.86,0,0,1-.77,3.56l-.24.58.63.1c5,.81,15.87,2,19.79,2.37a5.14,5.14,0,0,1,3.06,1.4,2.42,2.42,0,0,1,.49.64.87.87,0,0,1,.09.4c0,1.17-2.26,3.19-4.46,3.19a4.46,4.46,0,0,1-.63-.05c-2.68-.39-3.46-3-6.22-3.2h0c-1.27,0-3.91,1-7.13,2.06l-1.58.51,1.59.45c5.36,1.49,13.25,3.46,16.44,4.25a5.14,5.14,0,0,1,2.84,1.8,2.62,2.62,0,0,1,.4.7.84.84,0,0,1,0,.27c0,1-2.14,2.72-4.29,2.73a3.94,3.94,0,0,1-1.19-.18c-2.6-.75-3-3.5-5.73-4a3.19,3.19,0,0,0-.45,0c-2.58,0-10,2-15.57,2a13.41,13.41,0,0,1-3.36-.36,14.29,14.29,0,0,1-7.82-4.84l-.23-.34-.38.17a27.43,27.43,0,0,1-10.17,1.66,47.09,47.09,0,0,1-20.24-4.94c-16.72-7.94-27-23.63-27-23.66l-.35-.54-.44.47a37.71,37.71,0,0,1-4.9,4.24c-2.95,2.13-6.88,4.26-10.8,4.24a10.34,10.34,0,0,1-2.86-.4c-7.36-2.11-10.68-11-10.69-11l-.2-.57-.52.31s-2.34,1.39-5,2.77-5.68,2.81-6.94,2.78a.74.74,0,0,1-.33-.06.89.89,0,0,1-.42-.75c-.21-1.77,5.89-5.3,6.28-5.51h0l-.45-.89h0c-.16.07-2.09,1-4.43,2s-5.35,2-7.12,2a2.22,2.22,0,0,1-1.1-.22c-.47-.29-.56-.51-.57-.8-.13-1.15,2.82-3.53,4.4-4.13,11.53-4.9,21.3-15.66,24.51-18.45.16-.14.25-.16.31-.16,1.06-.17,2.67,6.88,2.67,6.91l.17,1,.69-.74s6.58-7.07,13.64-9.32l.6-.19-.33-.54a6.43,6.43,0,0,1-.94-3.22,4,4,0,0,1,.73-2.41,3.71,3.71,0,0,1,3.09-1.46,6.54,6.54,0,0,1,4.14,1.65,7,7,0,0,1,2.63,5.2,4.52,4.52,0,0,1-.26,1.54l-.15.39.36.21c8.26,4.87,13.82,13.75,33.57,22.48,6,2.64,10.58,3.6,14.15,3.6h0c9.1,0,11.23-6.34,11.23-6.43m14.55-37c-4,5.51-14.2,23.19-15.49,28.21a18.62,18.62,0,0,0-.56,4.53,16,16,0,0,0,.5,4.14c-.34.83-2.43,5.59-10.26,5.6-3.38,0-7.87-.92-13.75-3.52-19.32-8.53-24.77-17.1-33.12-22.21a5.3,5.3,0,0,0,.2-1.49,8.06,8.06,0,0,0-3-6,7.53,7.53,0,0,0-4.79-1.89,4.74,4.74,0,0,0-3.9,1.87,5.07,5.07,0,0,0-.92,3,7.12,7.12,0,0,0,.79,3.19c-5.83,2.08-11.06,6.95-12.84,8.73-.38-2-1.27-6.47-3.45-6.82a1.5,1.5,0,0,0-1,.4c-3.3,2.89-13,13.51-24.25,18.29-1.77.83-4.88,2.85-5,5a1.92,1.92,0,0,0,1.06,1.66,3.09,3.09,0,0,0,1.61.36,22,22,0,0,0,6.77-1.74,5.31,5.31,0,0,0-2.06,3.21,1.9,1.9,0,0,0,.79,1.53,1.59,1.59,0,0,0,1,.28c2.81-.06,10-4.25,11.93-5.4.87,2,4.3,9,11.12,11.07a11.28,11.28,0,0,0,3.14.44c7.35,0,14.23-6.57,16-8.35,1.95,2.78,11.87,16.25,27.1,23.5a48,48,0,0,0,20.67,5,29.65,29.65,0,0,0,10.21-1.6,16,16,0,0,0,8.14,4.92,14.37,14.37,0,0,0,3.61.39c5.7,0,13.32-2.07,15.57-2a1.37,1.37,0,0,1,.31,0c1.86.15,2.43,2.89,5.57,4a4.73,4.73,0,0,0,1.49.23c2.56,0,5.19-1.68,5.29-3.73a1.81,1.81,0,0,0-.08-.56l-.48.15.48-.15a3.55,3.55,0,0,0-.57-1,6.11,6.11,0,0,0-3.39-2.16c-2.88-.71-9.61-2.39-14.81-3.81A29.21,29.21,0,0,1,271,559H271c1.83-.06,2.79,2.53,6,3.18a4.25,4.25,0,0,0,.8.07c2.71-.06,5.37-2.09,5.46-4.19a2,2,0,0,0-.18-.82,3.24,3.24,0,0,0-.71-.94,6.14,6.14,0,0,0-3.65-1.67c-3.76-.39-13.92-1.48-19.13-2.27a12,12,0,0,0,.57-2.68,20.27,20.27,0,0,0,5.39.76,12.47,12.47,0,0,0,7.1-2,3.72,3.72,0,0,0,1.89-3.23,15.62,15.62,0,0,0-1-4.22,30,30,0,0,0-6.77-11.16c1.8-2.25,11.77-14.79,14.54-20.88,1.74-3.89,2.8-6,2.83-7.31a1.37,1.37,0,0,0-1.44-1.3,5.24,5.24,0,0,0-.76.07c-2.61.53-13,11.42-17.18,15.8,2.26-6,8.12-21.62,8.15-24.52a1.84,1.84,0,0,0,0-.33c-.24-1.1-.78-2.26-2-2.29s-2.7,1.2-4.82,4.06"/></clipPath><radialGradient id="radial-gradient" cx="-1011.31" cy="3543.46" r="1" gradientTransform="translate(61937.07 -215751.83) scale(61.04)" gradientUnits="userSpaceOnUse"><stop offset="0" stop-color="#ff2639"/><stop offset="0.29" stop-color="#ea1d2c"/><stop offset="0.9" stop-color="#b3040a"/><stop offset="1" stop-color="#a90004"/></radialGradient><clipPath id="clip-path-2"><path class="cls-1" d="M265.11,412.27c9-1.72,9.84-8.36,9.83-8.45l0-.16-.08-.14a14.74,14.74,0,0,1-1.26-3.84,17.87,17.87,0,0,1-.29-4.3c.24-4.77,6.9-24.3,9.73-30.28,1.47-3.15,2.69-4.29,3.25-4.35s.89.32,1.32,1.28l0,.11c.61,2.91-3.74,27.68-3.76,27.7l-.45,2.54,1.37-2.18s12.56-19.86,14.68-20.47a4.8,4.8,0,0,1,.59-.17c.56,0,.35-.1.5.22.18.76-.39,3.18-1.39,7.29-1.62,6.87-10.4,23.41-10.42,23.43l-.21.41.39.24a29.26,29.26,0,0,1,8.81,9.55,15,15,0,0,1,1.69,3.68,2.7,2.7,0,0,1-1,2.63,11.41,11.41,0,0,1-6.07,3,19,19,0,0,1-5.74.21l-.68-.1.11.68a11.77,11.77,0,0,1-.07,3.64l-.13.62.63,0c5.11-.17,16-1.1,19.88-1.44a5.11,5.11,0,0,1,3.27.79,2.24,2.24,0,0,1,.61.53.93.93,0,0,1,.16.38c.22,1.14-1.61,3.56-3.77,4a3.26,3.26,0,0,1-.62.06,5.7,5.7,0,0,1-3.21-1,5.34,5.34,0,0,0-3.52-1h0c-1.24.28-3.64,1.75-6.6,3.38l-1.46.8,1.66.13c5.54.45,13.66.88,16.94,1.05A5.15,5.15,0,0,1,313,434a2.3,2.3,0,0,1,.53.62h0a.67.67,0,0,1,.09.26c.2,1-1.58,3.08-3.69,3.49a3.75,3.75,0,0,1-1.2,0c-2.7-.24-3.63-2.86-6.4-2.86l-.44.06c-2.53.51-9.47,3.93-14.9,5a13.75,13.75,0,0,1-3.36.29,14.28,14.28,0,0,1-8.6-3.27l-.3-.28-.33.23a27.57,27.57,0,0,1-9.67,3.57,47.13,47.13,0,0,1-20.81-1c-17.92-4.61-31-18.05-31-18.08l-.45-.46-.34.55s-6.11,9.86-13.8,11.31a10.25,10.25,0,0,1-2.88.15c-7.63-.67-12.58-8.74-12.59-8.77l-.31-.51-.45.4s-8.16,7.3-10.65,7.71a.54.54,0,0,1-.33,0,.94.94,0,0,1-.56-.65c-.54-1.72,4.88-6.41,5.14-6.61h0l-.61-.79s-7.13,5.42-10.6,6.07a2.19,2.19,0,0,1-1.13,0c-.51-.19-.63-.4-.7-.68-.35-1.1,2.1-4,3.54-4.89,10.38-7,17.92-19.43,20.54-22.78.13-.16.22-.2.28-.21,1-.37,3.92,6.24,3.93,6.28l.36.94.53-.86s5.12-8.19,11.62-11.74l.55-.3-.42-.47a6.34,6.34,0,0,1-1.54-3,4,4,0,0,1,.26-2.51,3.71,3.71,0,0,1,2.76-2,6.55,6.55,0,0,1,4.37.83,7.06,7.06,0,0,1,3.57,4.61,4.33,4.33,0,0,1,0,1.56l-.07.41.39.14c9,3.21,16.19,10.87,37.23,15.67a44.61,44.61,0,0,0,9.9,1.26,24.24,24.24,0,0,0,4.69-.42m21-52.5c-1.27.3-2.42,1.69-4,4.91-2.9,6.18-9.52,25.46-9.83,30.64a18.89,18.89,0,0,0,.31,4.56,16.14,16.14,0,0,0,1.28,4c-.17.88-1.32,6-9,7.45-3.33.65-7.91.6-14.17-.83-20.6-4.7-27.58-12.08-36.74-15.5a5.82,5.82,0,0,0-.09-1.5,8.12,8.12,0,0,0-4.07-5.29,7.56,7.56,0,0,0-5-.94,4.71,4.71,0,0,0-3.48,2.58,5.12,5.12,0,0,0-.34,3.12,7.37,7.37,0,0,0,1.39,3c-5.32,3.15-9.53,8.93-11,11-.74-1.87-2.47-6.11-4.67-6a1.47,1.47,0,0,0-.88.57c-2.69,3.46-10.17,15.73-20.32,22.58-1.58,1.15-4.24,3.72-4,5.9a1.93,1.93,0,0,0,1.35,1.44,3.26,3.26,0,0,0,1.65,0,22.09,22.09,0,0,0,6.32-3A5.31,5.31,0,0,0,169.5,432a2,2,0,0,0,1.07,1.35,1.57,1.57,0,0,0,1,.09c2.74-.59,9-6.07,10.68-7.57,1.24,1.81,5.94,8.05,13,8.74a10.8,10.8,0,0,0,3.17-.16c7.21-1.44,12.72-9.15,14.12-11.25,2.44,2.37,14.75,13.7,31.08,17.92a48.05,48.05,0,0,0,21.25,1,29.86,29.86,0,0,0,9.72-3.51,16,16,0,0,0,8.92,3.27,14.07,14.07,0,0,0,3.62-.3c5.6-1.09,12.69-4.56,14.9-5l.3,0c1.86-.21,2.94,2.38,6.23,2.86a4.78,4.78,0,0,0,1.51-.07c2.5-.54,4.77-2.63,4.48-4.66a1.72,1.72,0,0,0-.18-.54l-.45.24.44-.24a3.18,3.18,0,0,0-.75-.89,6.14,6.14,0,0,0-3.74-1.48c-3-.15-9.88-.52-15.26-.91a28.74,28.74,0,0,1,4.89-2.47l.05,0c1.79-.4,3.22,2,6.51,2a4.26,4.26,0,0,0,.8-.08c2.65-.57,4.87-3.07,4.57-5.15a2.09,2.09,0,0,0-.34-.78,3.43,3.43,0,0,0-.87-.78,6.13,6.13,0,0,0-3.91-.95c-3.76.33-13.94,1.2-19.21,1.41a12.17,12.17,0,0,0,.05-2.73,20.79,20.79,0,0,0,5.44-.28,12.51,12.51,0,0,0,6.59-3.29,3.71,3.71,0,0,0,1.24-3.52,15.35,15.35,0,0,0-1.79-4,29.93,29.93,0,0,0-8.77-9.66c1.34-2.56,8.74-16.77,10.3-23.27,1-4.16,1.61-6.41,1.39-7.72a1.37,1.37,0,0,0-1.67-1,7.14,7.14,0,0,0-.74.21c-2.45,1-10.61,13.69-13.85,18.78,1.09-6.3,3.85-22.77,3.34-25.62a1.6,1.6,0,0,0-.1-.31c-.4-.95-1.06-1.89-2.12-1.89a1.62,1.62,0,0,0-.31,0"/></clipPath><radialGradient id="radial-gradient-2" cx="-1008.6" cy="3543.81" r="1" gradientTransform="matrix(61.04, 0, 0, 61.04, 61794.3, -215892.78)" xlink:href="#radial-gradient"/><clipPath id="clip-path-3"><path class="cls-1" d="M106.5,516.74c-.87,0-1.72-.16-2.6-.17a3.73,3.73,0,0,0-2.13.59c-2.11,1.48-8.16,11.54-13.06,14A15.54,15.54,0,0,1,81.63,533a9.12,9.12,0,0,1-1.83-.15l-.4-.1-.17.38c-.07,0-5.23,12-24.38,17.72a64.06,64.06,0,0,1-18.25,2.5,75,75,0,0,1-17.17-1.9l-.62-.16v.64s-.19,14.38-8.22,18.17a13.19,13.19,0,0,1-5.84,1.26A19.32,19.32,0,0,1,0,570.74v1a21,21,0,0,0,4.75.58A14.21,14.21,0,0,0,11,571c7.73-3.84,8.62-15.59,8.75-18.44a78.67,78.67,0,0,0,16.82,1.79,64.47,64.47,0,0,0,18.53-2.55C72.74,546.5,78.91,535.94,80,533.88a11.84,11.84,0,0,0,1.66.11,16.52,16.52,0,0,0,7.54-1.9c5.29-2.75,11.48-13.05,13.15-14.1a2.78,2.78,0,0,1,1.58-.42c.74,0,1.61.17,2.6.17a5.94,5.94,0,0,0,2.53-.52l-.21-.45-.2-.46a4.93,4.93,0,0,1-2.12.43m-18,.5a2.32,2.32,0,0,1,.92-.18,9.94,9.94,0,0,1,2.44.56c-2.07,1-3.81,1.88-4.73,2.24a3.56,3.56,0,0,1-1.32.25A3.31,3.31,0,0,1,85,520a22.46,22.46,0,0,1,3.52-2.77m-.38-.92a25.29,25.29,0,0,0-4.42,3.49l-.55.48.65.34a4.44,4.44,0,0,0,2,.48,4.69,4.69,0,0,0,1.69-.32c1.18-.47,3.46-1.58,6.1-2.93l-.23-.44.23.44,1.51-.77-1.69-.17c-1.38-.12-2.57-.84-4-.86h0a3.34,3.34,0,0,0-1.29.26m-56.7-39.16a3.14,3.14,0,0,0,.26,1.07c1.2,2.72,17.77,13.19,23.34,16.69-5.81-.6-21.93-2.21-28.59-2.21a7.14,7.14,0,0,0-3.06.36,2.08,2.08,0,0,0-1.14,1.68c.11,1.54,1.82,2.74,5.66,5a48.73,48.73,0,0,0,25.07,7,53.93,53.93,0,0,0,8.93-.76,8.16,8.16,0,0,1,.15,1.53c0,3.54-2.11,10-16.59,14.8C25.72,528.87,16.08,526.21,6.6,528A7.36,7.36,0,0,0,0,524.4v1c2.74,0,5.12,1.49,5.84,3.35l.16.39.41-.08c9.25-1.91,19.19.9,39.39-5.79,14.7-4.83,17.29-11.73,17.28-15.75a9.42,9.42,0,0,0-.27-2.22l-.12-.45-.45.08a54,54,0,0,1-9.24.82,47.63,47.63,0,0,1-24.57-6.84c-3.84-2.17-5.28-3.65-5.16-4.16,0-.21.14-.49.69-.85a9.22,9.22,0,0,1,2.51-.19c8.06,0,30.58,2.43,30.61,2.43l2.19.24-1.87-1.16s-24-15-24.75-17.36a2.07,2.07,0,0,1-.19-.7c0-.17-.12-.12.54-.2,1.21,0,4,.77,7.91,1.34,15.47,2.23,22.35,14.55,27.47,17.78l.21.13.22-.08a17,17,0,0,1,5.61-1c3.48,0,7,1.14,10.84,3.39,2.58,1.5,4,2.26,4,3.92a4.45,4.45,0,0,1-.13,1c-1.34,5.73-8.3,8.73-8.32,8.74l-.63.27.44.52a10.78,10.78,0,0,1,1.07,1.55l.2.34.37-.11c4.6-1.32,9.63-2.84,12-3.56a5.17,5.17,0,0,1,1.55-.24,4.82,4.82,0,0,1,1.76.33,2.23,2.23,0,0,1,.7.39,1.16,1.16,0,0,1,.33.91,4,4,0,0,1-.67,2l-1,1.56,1.63-.85c3.32-1.75,6.48-3.44,8.17-4.35a5.27,5.27,0,0,1,2.44-.63,5.67,5.67,0,0,1,.82.07,2.4,2.4,0,0,1,.76.25,1.5,1.5,0,0,1,.56,1.35,5.11,5.11,0,0,1-2.67,4.29l.2.46.21.45a6.05,6.05,0,0,0,3.26-5.2,2.44,2.44,0,0,0-1.05-2.21,3.2,3.2,0,0,0-1.09-.37,5.72,5.72,0,0,0-1-.09,6.22,6.22,0,0,0-2.92.75c-1.46.79-4,2.17-6.86,3.66a3.87,3.87,0,0,0,.18-1.14,2.19,2.19,0,0,0-.66-1.66,3.42,3.42,0,0,0-1-.57,5.83,5.83,0,0,0-2.13-.4,6.41,6.41,0,0,0-1.84.28c-2.3.7-7.12,2.16-11.6,3.46-.21-.35-.42-.64-.58-.87,1.76-.87,7-3.84,8.32-9.14a5.3,5.3,0,0,0,.16-1.26c0-2.41-2-3.34-4.45-4.78-4-2.31-7.64-3.53-11.35-3.53a18,18,0,0,0-5.71,1C64,492,56.76,479.57,41.06,477.31,37.17,476.75,34.52,476,33,476c-.71,0-1.53.36-1.54,1.2"/></clipPath><radialGradient id="radial-gradient-3" cx="-1011.31" cy="3543.55" r="1" gradientTransform="translate(62168.29 -217141.45) scale(61.43)" xlink:href="#radial-gradient"/><clipPath id="clip-path-4"><path class="cls-1" d="M389.57,552.16l.61,0c.05.5.07,1,.07,1.46a14.16,14.16,0,0,1-.16,2.12l-.08.51-5.3.36a18.65,18.65,0,0,0,.7-4.36c0-.21,0-.42,0-.62a29.92,29.92,0,0,0,4.19.55m-11.78-44.52-1.31-.91s-1.82-1.28-3.35-2.52c-1.09-.84-1.47-1.5-1.43-1.55s.21-.21,1.62-.21c.36,0,.76,0,1.21,0,1.63.07,20.46,1.84,26.72,8.6,6.51,6.93,6.73,10.47,6.73,10.48l0,.5.5,0s.19,0,.56,0a16.56,16.56,0,0,1,4.47.65c5.06,1.35,9.33,13,9.79,14.38-.9,4.23-6.76,5.3-11.72,5.28a44,44,0,0,1-6.48-.5.63.63,0,0,0-.19,0,2.61,2.61,0,0,0-1.25.57l-.16.11,0,.18,0,.16a43.22,43.22,0,0,1-6.2,13.56,26.22,26.22,0,0,0-6.11-1,16.1,16.1,0,0,0,.1-1.73,18.28,18.28,0,0,0-.12-2.05l-.06-.49-.49.05c-.35,0-.69,0-1,0a38.32,38.32,0,0,1-4.21-.55,1,1,0,0,0-1,.91v.15c0,.18,0,.37,0,.56a19.74,19.74,0,0,1-.85,4.75l-.22.7,7.05-.47c.39,0,9.27.47,10.55,3.93a3.2,3.2,0,0,1,.3,1.28c.13,2-3,2.6-3.45,2.67-.2,0-2.89-.08-6.22-3a5,5,0,0,0-3.4-1.07c-4.2,0-10.63,2.65-19.25,3.92a15.75,15.75,0,0,1-2.38.2c-3.2-.08-3.73-1.15-3.79-2.55,0-2,1.77-4.71,1.79-4.71l.32-.47-.5-.26a40.12,40.12,0,0,1-10.43-8.76l-.32-.37-.37.3a4.59,4.59,0,0,1-2.89,1,4.65,4.65,0,0,1,0-9.3,4.3,4.3,0,0,1,.61,0l.52.06,0-.51a21.76,21.76,0,0,1,7.83-14.27,15.47,15.47,0,0,1,10-3.31c7.95,0,16.4,4.5,20.8,6.56a9.2,9.2,0,0,0,3.9.95c4.08-.06,6.19-3.29,6.23-4.93v-.22c-1-2.39-23.48-3.76-31.07-7.93-6.06-3.18-7.37-6.61-7.35-7.9,0-.3,0-.41.06-.41,0-.32,14.2-.53,14.26-.49Zm-7.09-5c.06.82.69,1.39,1.8,2.33.74.6,1.54,1.2,2.18,1.67-3.6,0-12.4,0-13.45.76a1.59,1.59,0,0,0-.35,1.12c0,1.85,1.63,5.48,7.88,8.79,7.3,3.83,28.06,5.9,30.51,7.27l0-.08v.07c0,.91-1.78,3.92-5.24,3.93a8.18,8.18,0,0,1-3.48-.86c-4.36-2-12.92-6.64-21.22-6.65a16.44,16.44,0,0,0-10.65,3.54A22.85,22.85,0,0,0,350.58,539h-.23a5.65,5.65,0,1,0,3.12,10.36,41.88,41.88,0,0,0,9.95,8.38,10.53,10.53,0,0,0-1.67,4.82c0,1.88,1.34,3.54,4.79,3.55a17.54,17.54,0,0,0,2.53-.21c8.71-1.3,15.28-3.92,19.1-3.91a4,4,0,0,1,2.74.82c3.67,3.27,6.81,3.3,6.89,3.3h.06s4.24-.37,4.38-3.67a4.37,4.37,0,0,0-.37-1.67,7,7,0,0,0-4.16-3.27l.17-.24a44.69,44.69,0,0,0,6.55-14.16,2,2,0,0,1,.48-.28h0a44.75,44.75,0,0,0,6.7.52c4.95,0,11.34-.9,12.66-5.94v-.65c-.48-1.32-4.5-13.17-10.45-15a17.35,17.35,0,0,0-4.75-.69h-.19c-.28-1.24-1.54-4.89-6.91-10.61-6.86-7.22-25.63-8.77-27.39-8.91-.46,0-.89,0-1.27,0-1.34,0-2.45.05-2.62,1.21"/></clipPath><radialGradient id="radial-gradient-4" cx="-1010.99" cy="3534.21" r="1" gradientTransform="translate(37818.4 -130327.4) scale(37.03)" xlink:href="#radial-gradient"/><clipPath id="clip-path-5"><path class="cls-1" d="M97.55,361.07c-.87,0-1.72-.17-2.59-.17a3.66,3.66,0,0,0-2.14.59c-2.11,1.48-8.15,11.54-13.06,14a15.53,15.53,0,0,1-7.07,1.79,8.62,8.62,0,0,1-1.84-.16l-.4-.09-.17.38c-.07,0-5.22,11.95-24.38,17.71a63.73,63.73,0,0,1-18.25,2.51,75.37,75.37,0,0,1-17.16-1.9l-.62-.16v.64s-.18,14.38-8.21,18.17a12.53,12.53,0,0,1-1.65.65v1.05a12.9,12.9,0,0,0,2.08-.8c7.74-3.84,8.63-15.6,8.76-18.44a78.45,78.45,0,0,0,16.81,1.79,64.93,64.93,0,0,0,18.54-2.55C63.79,390.83,70,380.27,71,378.21a11.84,11.84,0,0,0,1.66.11,16.55,16.55,0,0,0,7.53-1.91c5.29-2.74,11.48-13,13.16-14.09A2.7,2.7,0,0,1,95,361.9c.73,0,1.6.17,2.59.17a5.94,5.94,0,0,0,2.53-.52l-.2-.46-.21-.45a5.06,5.06,0,0,1-2.12.43m-18,.5a2.35,2.35,0,0,1,.92-.18A10,10,0,0,1,83,362c-2.08,1-3.82,1.87-4.73,2.23a3.62,3.62,0,0,1-1.33.26,3.75,3.75,0,0,1-.82-.1,22.08,22.08,0,0,1,3.51-2.77m-.38-.93a27.18,27.18,0,0,0-4.42,3.49l-.55.49.65.33a4.32,4.32,0,0,0,2,.49,4.46,4.46,0,0,0,1.69-.33c1.19-.46,3.46-1.57,6.1-2.92l-.22-.45.22.45,1.52-.77-1.69-.17c-1.38-.13-2.58-.84-4-.86a3.41,3.41,0,0,0-1.3.25M22.52,321.49a2.89,2.89,0,0,0,.25,1.07c1.2,2.72,17.77,13.19,23.34,16.69-5.81-.6-21.93-2.22-28.59-2.22a7.47,7.47,0,0,0-3.06.36,2.13,2.13,0,0,0-1.14,1.68c.11,1.55,1.83,2.75,5.66,5a48.73,48.73,0,0,0,25.08,7,53.93,53.93,0,0,0,8.93-.76,8.15,8.15,0,0,1,.14,1.53c0,3.54-2.1,10-16.59,14.8C18.4,372.66,8.79,370.91,0,372v1c8.6-1.06,18.49.71,36.86-5.37,14.69-4.83,17.29-11.74,17.27-15.75a9,9,0,0,0-.27-2.23l-.11-.45-.46.08a53,53,0,0,1-9.23.83,47.76,47.76,0,0,1-24.58-6.84c-3.84-2.17-5.28-3.65-5.16-4.17,0-.2.15-.48.69-.84a9.58,9.58,0,0,1,2.51-.2c8.06,0,30.59,2.44,30.62,2.44l2.18.24-1.87-1.16s-24-15-24.75-17.36a2.3,2.3,0,0,1-.18-.7c0-.17-.12-.12.53-.2,1.22,0,4,.76,7.92,1.33,15.47,2.24,22.34,14.56,27.47,17.79l.2.13.22-.08a17,17,0,0,1,5.61-1c3.49,0,7,1.14,10.85,3.39,2.57,1.5,4,2.26,4,3.92a4.58,4.58,0,0,1-.14,1c-1.33,5.73-8.29,8.73-8.32,8.74l-.63.26.45.52a12.13,12.13,0,0,1,1.07,1.56l.19.34.38-.11c4.6-1.32,9.62-2.85,12-3.57a5.39,5.39,0,0,1,1.55-.23,4.86,4.86,0,0,1,1.76.33,2.29,2.29,0,0,1,.69.38,1.24,1.24,0,0,1,.34.92,4.11,4.11,0,0,1-.67,2l-1,1.55,1.62-.85c3.32-1.74,6.49-3.43,8.17-4.34a5.15,5.15,0,0,1,2.44-.63,4.65,4.65,0,0,1,.83.07,2.75,2.75,0,0,1,.75.24,1.47,1.47,0,0,1,.56,1.35,5.1,5.1,0,0,1-2.67,4.3l.21.45.2.46a6.07,6.07,0,0,0,3.26-5.21,2.44,2.44,0,0,0-1-2.21,3.33,3.33,0,0,0-1.09-.36,5.55,5.55,0,0,0-1-.09,6.15,6.15,0,0,0-2.91.75c-1.47.79-4,2.17-6.87,3.66a4.25,4.25,0,0,0,.19-1.14,2.15,2.15,0,0,0-.67-1.66,3.44,3.44,0,0,0-1-.58,5.94,5.94,0,0,0-2.12-.39,6.1,6.1,0,0,0-1.85.28c-2.29.7-7.11,2.16-11.6,3.45-.21-.34-.41-.63-.58-.86,1.77-.87,7-3.84,8.32-9.15a5.22,5.22,0,0,0,.16-1.25c0-2.41-2-3.35-4.45-4.78-3.95-2.31-7.64-3.53-11.35-3.53a17.63,17.63,0,0,0-5.7,1c-4.7-3.07-12-15.54-27.66-17.81-3.89-.55-6.54-1.33-8.06-1.34-.71,0-1.53.36-1.53,1.2"/></clipPath><radialGradient id="radial-gradient-5" cx="-1011.31" cy="3543.55" r="1" gradientTransform="translate(62163.74 -217312.61) scale(61.43)" xlink:href="#radial-gradient"/><clipPath id="clip-path-6"><path class="cls-1" d="M396.28,337.37l.61,0c0,.5.06,1,.06,1.45a13,13,0,0,1-.16,2.13l-.08.51-5.29.35a19,19,0,0,0,.7-4.35q0-.31,0-.63a28.93,28.93,0,0,0,4.19.56m-18.88-49.5c.07.81.69,1.39,1.8,2.33.74.6,1.54,1.2,2.18,1.67-3.59,0-12.4,0-13.45.76a1.59,1.59,0,0,0-.35,1.12c0,1.85,1.63,5.48,7.89,8.78,7.3,3.84,28.06,5.91,30.51,7.27l0-.07v.06c0,.92-1.78,3.93-5.23,3.93a8.3,8.3,0,0,1-3.48-.85c-4.37-2-12.92-6.65-21.23-6.66a16.52,16.52,0,0,0-10.65,3.54,22.86,22.86,0,0,0-8.14,14.45h-.24a5.65,5.65,0,1,0,3.13,10.36,42.2,42.2,0,0,0,9.95,8.38,10.41,10.41,0,0,0-1.68,4.82c0,1.88,1.35,3.54,4.8,3.54a16.19,16.19,0,0,0,2.52-.21c8.71-1.29,15.29-3.92,19.1-3.9a4,4,0,0,1,2.74.82c3.68,3.26,6.81,3.29,6.9,3.29h.06s4.23-.37,4.38-3.67a4.21,4.21,0,0,0-.38-1.67,6.93,6.93,0,0,0-4.16-3.27l.17-.24a44.53,44.53,0,0,0,6.55-14.17,2.42,2.42,0,0,1,.49-.28h0a42.1,42.1,0,0,0,6.69.53,27.69,27.69,0,0,0,6-.59v-1a25.19,25.19,0,0,1-6,.62,44,44,0,0,1-6.48-.5l-.18,0a2.43,2.43,0,0,0-1.25.56l-.16.11-.05.19,0,.15a43.57,43.57,0,0,1-6.2,13.56,26.84,26.84,0,0,0-6.12-1,13.76,13.76,0,0,0,.1-1.73,18.1,18.1,0,0,0-.12-2l-.06-.49-.49.05c-.35,0-.68.05-1,.05a37.41,37.41,0,0,1-4.21-.56,1,1,0,0,0-1,.92v.15a5,5,0,0,1,0,.56,19.66,19.66,0,0,1-.86,4.75l-.21.7,7-.47c.29,0,9.27.44,10.56,3.92a3.46,3.46,0,0,1,.3,1.29c.12,2-3,2.59-3.45,2.67-.19-.05-2.89-.08-6.23-3a4.94,4.94,0,0,0-3.4-1.07c-4.2,0-10.63,2.65-19.24,3.91a16,16,0,0,1-2.38.2c-3.21-.07-3.73-1.15-3.8-2.54,0-2,1.78-4.71,1.79-4.71l.32-.47-.5-.26a40.12,40.12,0,0,1-10.43-8.76l-.31-.37-.38.3a4.65,4.65,0,1,1-2.89-8.29c.2,0,.41,0,.62,0l.51.07.05-.52a21.76,21.76,0,0,1,7.83-14.26,15.48,15.48,0,0,1,10-3.32c7.95,0,16.41,4.5,20.8,6.56a9.24,9.24,0,0,0,3.91,1c4.07-.05,6.19-3.29,6.23-4.93v-.21c-1-2.39-23.48-3.76-31.08-7.93-6.05-3.19-7.36-6.61-7.35-7.9,0-.31.05-.41.06-.41,0-.32,14.21-.53,14.26-.49h1.59l-1.3-.91s-1.83-1.28-3.36-2.52c-1.09-.84-1.46-1.5-1.42-1.55s.21-.22,1.61-.22c.36,0,.77,0,1.22,0,1.62.07,20.45,1.84,26.72,8.6,6.51,6.94,6.72,10.47,6.72,10.48l0,.5.5,0h.57a16.21,16.21,0,0,1,4.47.65,8.39,8.39,0,0,1,4,3.15v-1.53a8.91,8.91,0,0,0-3.74-2.58,17.35,17.35,0,0,0-4.75-.69h-.19c-.29-1.25-1.54-4.9-6.92-10.61-6.86-7.22-25.63-8.77-27.38-8.91-.47,0-.89-.05-1.28-.05-1.33,0-2.44.06-2.62,1.22"/></clipPath><radialGradient id="radial-gradient-6" cx="-1010.99" cy="3534.22" r="1" gradientTransform="translate(37825.85 -130544.81) scale(37.03)" xlink:href="#radial-gradient"/><clipPath id="clip-path-7"><path class="cls-1" d="M395.13,348.45a3.1,3.1,0,0,1,2.1,1c-.51.49-.79.72-1.48,1.3-3.05,2.59-5.22,3.33-6.61,3.33a2.41,2.41,0,0,1-2.38-1.29,2,2,0,0,1-.12-.7c0-.84.41-1.93,2.3-2.67,2.51-.53,4.26-.78,5.9-1a1.46,1.46,0,0,1,.29,0m0-1-.41,0,.06.5-.06-.5c-1.67.2-3.47.46-6,1h0l0,0c-2.23.81-3,2.38-3,3.61a3,3,0,0,0,.18,1,3.39,3.39,0,0,0,3.32,2c1.75,0,4.11-.9,7.26-3.57a25.4,25.4,0,0,0,1.92-1.73l.52-.51-.66-.3c0,.05-.34-.36-.89-.77a3.52,3.52,0,0,0-2.13-.77h0"/></clipPath><radialGradient id="radial-gradient-7" cx="-1007.05" cy="3419" r="1" gradientTransform="translate(6707.71 -21089.17) scale(6.27)" xlink:href="#radial-gradient"/><clipPath id="clip-path-8"><path class="cls-1" d="M392.44,137.4l-.92,2.41,1.76-1.89s7.07-7.49,12.48-12.61l-.46-1c-3.93,3.66-8.58,8.54-11,11.13,1.63-4.31,5.12-13.63,7-19.59l-.65-1.27c-2.23,7.45-8.11,22.81-8.13,22.82m3.08-25c-4,5.51-14.2,23.18-15.48,28.21a18.57,18.57,0,0,0-.56,4.53,16,16,0,0,0,.5,4.13c-.34.83-2.43,5.59-10.26,5.6-3.39,0-7.87-.91-13.75-3.51-19.32-8.54-24.77-17.11-33.12-22.22a5.19,5.19,0,0,0,.2-1.48,8.11,8.11,0,0,0-3-6,7.53,7.53,0,0,0-4.78-1.88,4.66,4.66,0,0,0-3.9,1.87,5,5,0,0,0-.93,3,7.21,7.21,0,0,0,.8,3.2c-5.83,2.07-11.06,6.95-12.85,8.73-.37-2-1.27-6.47-3.44-6.82a1.42,1.42,0,0,0-1,.4c-3.3,2.88-13,13.5-24.24,18.29-1.78.82-4.88,2.85-5,5a1.9,1.9,0,0,0,1.05,1.66,3.05,3.05,0,0,0,1.62.36,22,22,0,0,0,6.77-1.74,5.26,5.26,0,0,0-2.06,3.22,1.9,1.9,0,0,0,.79,1.52,1.52,1.52,0,0,0,1,.28c2.81-.05,10-4.24,11.93-5.4.87,2,4.29,9,11.11,11.07a11,11,0,0,0,3.14.44c7.36,0,14.24-6.56,16-8.35,1.94,2.79,11.87,16.26,27.1,23.5a48,48,0,0,0,20.67,5,29.44,29.44,0,0,0,10.21-1.6,15.91,15.91,0,0,0,8.13,4.92,14.51,14.51,0,0,0,3.62.39c5.69,0,13.32-2.06,15.57-2l.3,0c1.87.15,2.44,2.89,5.57,4a5.07,5.07,0,0,0,1.49.22c2.57-.05,5.19-1.68,5.3-3.72a2.1,2.1,0,0,0-.08-.56l-.48.14.47-.15a3.14,3.14,0,0,0-.56-1A6.16,6.16,0,0,0,410,183.5c-2.88-.71-9.61-2.39-14.82-3.8a30.5,30.5,0,0,1,5.27-1.5h0c1.87-.1,2.81,2.53,6.07,3.19a5.29,5.29,0,0,0,.8.06c2.7,0,5.36-2.09,5.46-4.19a2,2,0,0,0-.18-.82,3.34,3.34,0,0,0-.71-.93,6.15,6.15,0,0,0-3.65-1.68c-3.76-.39-13.92-1.47-19.13-2.27a13.3,13.3,0,0,0,.57-2.67,20.77,20.77,0,0,0,5.38.75,12.48,12.48,0,0,0,7.11-2,3.7,3.7,0,0,0,1.88-3.22,15.62,15.62,0,0,0-1-4.23,29.85,29.85,0,0,0-6.78-11.15c1.48-1.85,8.4-10.55,12.4-17-.16-.39-.31-.76-.48-1.14-4.29,7.11-13,17.83-13,17.85l-.3.36.34.32a29.11,29.11,0,0,1,6.83,11.05,14.56,14.56,0,0,1,1,3.93,2.69,2.69,0,0,1-1.45,2.4,11.51,11.51,0,0,1-6.54,1.79,18.85,18.85,0,0,1-5.67-.89l-.65-.22v.68a11.86,11.86,0,0,1-.77,3.56l-.24.59.63.1c5,.8,15.86,2,19.78,2.37a5.13,5.13,0,0,1,3.06,1.39,2.44,2.44,0,0,1,.5.64.93.93,0,0,1,.09.4c0,1.17-2.27,3.19-4.46,3.19a3.35,3.35,0,0,1-.63,0c-2.68-.39-3.47-3.05-6.23-3.2h-.05c-1.28,0-3.91,1-7.12,2l-1.58.51,1.6.45c5.36,1.5,13.25,3.46,16.44,4.25a5.13,5.13,0,0,1,2.83,1.81,2.55,2.55,0,0,1,.41.7.84.84,0,0,1,0,.27c0,1-2.15,2.72-4.3,2.72a3.83,3.83,0,0,1-1.18-.17c-2.6-.76-3-3.5-5.73-4a3.19,3.19,0,0,0-.45,0c-2.58,0-10,2.06-15.57,2a13.41,13.41,0,0,1-3.36-.36,14.23,14.23,0,0,1-7.82-4.84l-.24-.33-.37.17a27.9,27.9,0,0,1-10.17,1.65,47.09,47.09,0,0,1-20.24-4.94c-16.72-7.94-27-23.63-27-23.66l-.35-.54-.43.48a38.26,38.26,0,0,1-4.91,4.24c-2.94,2.12-6.87,4.25-10.8,4.23a10,10,0,0,1-2.85-.4c-7.36-2.11-10.68-11-10.69-11l-.21-.57-.52.32s-2.33,1.38-5,2.77-5.67,2.8-6.93,2.77a.7.7,0,0,1-.34-.06.88.88,0,0,1-.41-.74c-.21-1.77,5.83-5.27,6.28-5.51h0l-.46-.89h0c-.16.08-2.09,1-4.42,2s-5.35,2-7.12,2a2.08,2.08,0,0,1-1.11-.22c-.46-.29-.55-.51-.56-.8-.13-1.14,2.82-3.52,4.4-4.12,11.53-4.9,21.3-15.67,24.51-18.46a.54.54,0,0,1,.31-.16c1.05-.17,2.66,6.88,2.67,6.92l.17,1,.69-.74s6.58-7.07,13.63-9.31l.6-.2-.32-.54a6.42,6.42,0,0,1-.95-3.22,4,4,0,0,1,.74-2.4,3.68,3.68,0,0,1,3.09-1.46,6.49,6.49,0,0,1,4.14,1.65,7.1,7.1,0,0,1,2.63,5.2,4.28,4.28,0,0,1-.27,1.53l-.14.39.36.22c8.26,4.86,13.82,13.75,33.56,22.47,6,2.64,10.59,3.6,14.16,3.6,9.13,0,11.26-6.34,11.26-6.42l0-.15,0-.16a14.83,14.83,0,0,1-.5-4,17.46,17.46,0,0,1,.53-4.29c1.14-4.63,11.4-22.53,15.32-27.86a19.58,19.58,0,0,1,2.06-2.46l-.5-.91a21.71,21.71,0,0,0-2.37,2.78"/></clipPath><radialGradient id="radial-gradient-8" cx="-1011.31" cy="3543.46" r="1" gradientTransform="translate(62070.07 -216145) scale(61.04)" xlink:href="#radial-gradient"/><clipPath id="clip-path-9"><path class="cls-1" d="M15.53,134.32c-.52.72-1.16,1.65-1.86,2.74-.57,1.49-1.12,3-1.65,4.51,1.7-2.8,3.25-5.2,4.32-6.66,2-2.82,3.45-3.7,4-3.65s.82.48,1.06,1.51v.11c0,3-8.94,26.46-9,26.48l-.92,2.4,1.76-1.88s16.1-17.1,18.31-17.29a3.77,3.77,0,0,1,.6-.06c.55.1.37,0,.45.31,0,.78-1,3-2.74,6.89-2.91,6.43-14.67,21-14.69,21l-.3.36.34.31a29.19,29.19,0,0,1,6.83,11.06,15,15,0,0,1,1,3.93,2.71,2.71,0,0,1-1.46,2.39,11.43,11.43,0,0,1-6.53,1.8,19.25,19.25,0,0,1-5.68-.89l-.64-.23,0,.69A11.86,11.86,0,0,1,8,193.73l-.24.58.62.1c5.05.81,15.87,2,19.79,2.37a5.14,5.14,0,0,1,3.06,1.4,2.29,2.29,0,0,1,.5.64.9.9,0,0,1,.09.4c0,1.17-2.27,3.19-4.46,3.19a4.34,4.34,0,0,1-.63,0c-2.68-.39-3.47-3.05-6.23-3.2h0c-1.27,0-3.91,1-7.13,2.06l-1.58.51,1.6.45c5.36,1.49,13.25,3.46,16.44,4.25a5.11,5.11,0,0,1,2.83,1.8,2.58,2.58,0,0,1,.41.71h0a.78.78,0,0,1,0,.26c0,1-2.14,2.73-4.3,2.73a3.93,3.93,0,0,1-1.18-.18c-2.6-.75-3-3.5-5.73-4h0a3.19,3.19,0,0,0-.45,0c-2.58,0-10,2.05-15.57,2.05a13.41,13.41,0,0,1-3.36-.36A17,17,0,0,1,0,208.56c0,.35,0,.71,0,1.07a19,19,0,0,0,2.17.73,14.51,14.51,0,0,0,3.62.39c5.7,0,13.32-2.07,15.57-2.05l.31,0h0c1.87.15,2.44,2.89,5.57,4a4.78,4.78,0,0,0,1.49.23c2.57-.05,5.19-1.68,5.3-3.73a2.23,2.23,0,0,0-.08-.56l-.48.15.47-.15a3.3,3.3,0,0,0-.56-1A6.2,6.2,0,0,0,30,205.46c-2.88-.71-9.61-2.39-14.81-3.81a29.19,29.19,0,0,1,5.26-1.49h0c1.87-.11,2.82,2.53,6.07,3.18a4.25,4.25,0,0,0,.8.07c2.7-.06,5.36-2.09,5.46-4.19a2,2,0,0,0-.18-.82,3.2,3.2,0,0,0-.71-.93,6.09,6.09,0,0,0-3.65-1.68c-3.76-.39-13.92-1.48-19.13-2.27a13.23,13.23,0,0,0,.57-2.68,20.2,20.2,0,0,0,5.39.76,12.47,12.47,0,0,0,7.1-2,3.74,3.74,0,0,0,1.89-3.22,15.59,15.59,0,0,0-1-4.23A30.17,30.17,0,0,0,16.28,171c1.8-2.25,11.77-14.79,14.54-20.88,1.74-3.89,2.8-6,2.83-7.3a1.37,1.37,0,0,0-1.45-1.31,5.5,5.5,0,0,0-.76.07c-2.6.53-13,11.42-17.17,15.8,2.26-6,8.11-21.62,8.15-24.52a1.84,1.84,0,0,0,0-.33c-.24-1.1-.78-2.26-2-2.29s-2.69,1.2-4.82,4.06"/></clipPath><radialGradient id="radial-gradient-9" cx="-1011.31" cy="3543.46" r="1" gradientTransform="translate(61689.9 -216122.4) scale(61.04)" xlink:href="#radial-gradient"/><clipPath id="clip-path-10"><path class="cls-1" d="M145.79,159.63l.61,0c0,.5.06,1,.06,1.46a13,13,0,0,1-.16,2.12l-.08.51-5.29.36a19.19,19.19,0,0,0,.7-4.36c0-.21,0-.42,0-.62a29.68,29.68,0,0,0,4.19.55M134,115.11l-1.3-.91s-1.83-1.28-3.36-2.52c-1.09-.84-1.46-1.5-1.43-1.55s.22-.22,1.63-.22c.35,0,.76,0,1.21,0,1.62.06,20.45,1.83,26.72,8.59,6.51,6.94,6.72,10.48,6.72,10.49l0,.49.5,0s.19,0,.57,0a16.61,16.61,0,0,1,4.47.65c5.06,1.35,9.32,13,9.79,14.38-.91,4.23-6.76,5.3-11.73,5.28a44,44,0,0,1-6.48-.5l-.18,0a2.48,2.48,0,0,0-1.25.57l-.16.11,0,.18,0,.16a43.62,43.62,0,0,1-6.2,13.55,27.41,27.41,0,0,0-6.12-1,13.6,13.6,0,0,0,.1-1.72,18.28,18.28,0,0,0-.12-2l-.06-.49-.49.05c-.35,0-.68,0-1,0a38,38,0,0,1-4.21-.55,1,1,0,0,0-1,.91v.15a5,5,0,0,1,0,.56,19.54,19.54,0,0,1-.86,4.75l-.21.7,7.05-.47c.38,0,9.26.46,10.55,3.93a3.34,3.34,0,0,1,.29,1.28c.13,2-3,2.6-3.44,2.67-.22,0-2.9-.09-6.23-3a4.94,4.94,0,0,0-3.4-1.07c-4.2,0-10.63,2.65-19.24,3.92a17.23,17.23,0,0,1-2.38.19c-3.21-.07-3.73-1.14-3.8-2.54,0-2,1.78-4.71,1.79-4.71l.32-.47-.5-.26a40.12,40.12,0,0,1-10.43-8.76l-.31-.37-.38.3a4.65,4.65,0,1,1-2.89-8.29,4.44,4.44,0,0,1,.62,0l.51.06,0-.51a21.76,21.76,0,0,1,7.83-14.27,15.47,15.47,0,0,1,10-3.31c7.95,0,16.41,4.5,20.8,6.55a9.27,9.27,0,0,0,3.91,1c4.07-.06,6.19-3.3,6.23-4.94v-.21c-1-2.39-23.48-3.76-31.07-7.93-6.07-3.19-7.37-6.61-7.36-7.9,0-.3,0-.41.06-.41,0-.32,14.21-.53,14.26-.49Zm-7.09-5c.07.82.69,1.39,1.8,2.33.74.6,1.54,1.2,2.18,1.67-3.6,0-12.4,0-13.45.76a1.59,1.59,0,0,0-.35,1.12c0,1.85,1.63,5.48,7.89,8.79,7.3,3.83,28.06,5.9,30.51,7.26l0-.07v.06c0,.92-1.78,3.93-5.23,3.94a8.3,8.3,0,0,1-3.48-.86c-4.37-2-12.92-6.64-21.23-6.65A16.41,16.41,0,0,0,114.94,132a22.83,22.83,0,0,0-8.14,14.45h-.24a5.65,5.65,0,1,0,3.13,10.36,41.73,41.73,0,0,0,10,8.38A10.41,10.41,0,0,0,118,170c0,1.88,1.35,3.54,4.8,3.54a17.38,17.38,0,0,0,2.52-.2c8.71-1.3,15.29-3.93,19.1-3.91a4,4,0,0,1,2.74.82c3.67,3.27,6.81,3.3,6.9,3.29h.06s4.23-.37,4.37-3.67a4.37,4.37,0,0,0-.37-1.67,7,7,0,0,0-4.16-3.27l.17-.24a44.48,44.48,0,0,0,6.55-14.16,2.81,2.81,0,0,1,.49-.29h0a44.36,44.36,0,0,0,6.69.52c5,0,11.57-.93,12.73-6.21l0-.13,0-.13c-.08,0-4.21-13.18-10.51-15.15a17.25,17.25,0,0,0-4.74-.69h-.19c-.29-1.25-1.54-4.9-6.91-10.61-6.87-7.22-25.64-8.77-27.39-8.91-.47,0-.89,0-1.27,0-1.34,0-2.45.06-2.63,1.22"/></clipPath><radialGradient id="radial-gradient-10" cx="-1010.99" cy="3534.21" r="1" gradientTransform="translate(37571.78 -130709.94) scale(37.02)" xlink:href="#radial-gradient"/><clipPath id="clip-path-11"><path class="cls-1" d="M144.64,170.71a3.1,3.1,0,0,1,2.1,1c-.51.49-.79.72-1.48,1.3-3,2.59-5.22,3.33-6.61,3.33a2.41,2.41,0,0,1-2.38-1.29,2,2,0,0,1-.12-.7c0-.84.41-1.93,2.3-2.66,2.51-.53,4.26-.78,5.9-1h0l.29,0m0-1-.41,0,.06.5-.06-.5c-1.67.21-3.47.46-6,1h0l0,0c-2.23.81-3,2.39-3,3.61a3,3,0,0,0,.18,1,3.37,3.37,0,0,0,3.32,2c1.75,0,4.11-.89,7.26-3.57a25.23,25.23,0,0,0,1.92-1.72l.52-.51-.67-.3s-.33-.37-.88-.78a3.59,3.59,0,0,0-2.13-.77h0"/></clipPath><radialGradient id="radial-gradient-11" cx="-1007.05" cy="3419" r="1" gradientTransform="translate(6457.21 -21266.91) scale(6.27)" xlink:href="#radial-gradient"/><clipPath id="clip-path-12"><path class="cls-1" d="M253.91,54.64l.05-.15-.05-.15a14.86,14.86,0,0,1-.5-4,18,18,0,0,1,.52-4.29c1.15-4.62,11.4-22.53,15.33-27.86,2-2.82,3.45-3.7,4-3.65s.82.48,1.06,1.51v.11c0,3-8.94,26.46-9,26.48l-.92,2.4,1.75-1.88s16.11-17.1,18.31-17.29a4,4,0,0,1,.61-.06c.55.09.37,0,.45.3,0,.79-1,3-2.75,6.9-2.9,6.43-14.67,21-14.69,21l-.29.36.34.31A29.19,29.19,0,0,1,275,65.75a15,15,0,0,1,1,3.93,2.7,2.7,0,0,1-1.45,2.39,11.46,11.46,0,0,1-6.54,1.8,19.14,19.14,0,0,1-5.67-.89l-.65-.23,0,.69a11.67,11.67,0,0,1-.76,3.56l-.24.58.62.1c5,.81,15.87,2,19.79,2.37a5.14,5.14,0,0,1,3.06,1.4,2.49,2.49,0,0,1,.5.64.87.87,0,0,1,.08.4c0,1.17-2.26,3.19-4.46,3.19a4.21,4.21,0,0,1-.62-.05c-2.68-.39-3.47-3-6.23-3.2h-.05c-1.28,0-3.91,1-7.12,2.06l-1.58.51,1.6.45c5.36,1.49,13.24,3.46,16.43,4.25a5.14,5.14,0,0,1,2.84,1.8,2.58,2.58,0,0,1,.41.71,1.09,1.09,0,0,1,0,.26c0,1-2.15,2.73-4.3,2.73a3.83,3.83,0,0,1-1.18-.18c-2.61-.75-3-3.5-5.74-4a2.94,2.94,0,0,0-.44,0c-2.59,0-10.05,2-15.58,2a13.38,13.38,0,0,1-3.35-.36,14.23,14.23,0,0,1-7.82-4.84l-.24-.34-.38.17a27.4,27.4,0,0,1-10.16,1.66,47,47,0,0,1-20.24-4.94c-16.72-7.94-27-23.63-27.05-23.66l-.35-.54-.44.47a37.71,37.71,0,0,1-4.9,4.24c-2.95,2.13-6.87,4.26-10.8,4.24a10.45,10.45,0,0,1-2.86-.4c-7.35-2.11-10.67-11-10.68-11l-.21-.57-.52.31s-2.33,1.39-5,2.77S148.05,63,146.79,63a.6.6,0,0,1-.33-.06,1,1,0,0,1-.42-.75c-.2-1.78,5.94-5.33,6.29-5.51h0l-.46-.89h0c-.16.07-2.09,1-4.43,2s-5.35,2-7.11,2a2.26,2.26,0,0,1-1.11-.22c-.46-.29-.55-.51-.56-.8-.13-1.15,2.82-3.53,4.4-4.13,11.53-4.9,21.29-15.66,24.51-18.45.16-.14.25-.16.31-.16,1.05-.17,2.66,6.88,2.66,6.91l.18,1,.68-.74s6.59-7.07,13.64-9.32l.6-.19-.32-.54a6.35,6.35,0,0,1-1-3.22,4,4,0,0,1,.73-2.41,3.72,3.72,0,0,1,3.1-1.46,6.54,6.54,0,0,1,4.13,1.65,7.1,7.1,0,0,1,2.64,5.2,4.3,4.3,0,0,1-.27,1.54l-.15.39.36.21c8.26,4.87,13.83,13.75,33.57,22.48,6,2.64,10.59,3.6,14.16,3.6h0c9.09,0,11.23-6.34,11.23-6.43m14.54-37c-4,5.51-14.2,23.19-15.48,28.21a18.14,18.14,0,0,0-.56,4.53,16.79,16.79,0,0,0,.49,4.14c-.33.83-2.43,5.59-10.25,5.6-3.39,0-7.88-.92-13.76-3.52C209.57,48,204.13,39.44,195.78,34.34a5.7,5.7,0,0,0,.2-1.49,8.1,8.1,0,0,0-3-6A7.53,7.53,0,0,0,188.21,25a4.75,4.75,0,0,0-3.91,1.87,5.07,5.07,0,0,0-.92,3,7.26,7.26,0,0,0,.79,3.19c-5.82,2.08-11,6.95-12.84,8.73-.37-2-1.27-6.47-3.44-6.82a1.52,1.52,0,0,0-1,.4c-3.3,2.89-13,13.51-24.24,18.29-1.78.83-4.88,2.85-5,5.05a1.91,1.91,0,0,0,1.05,1.66,3.15,3.15,0,0,0,1.62.36A22.17,22.17,0,0,0,147.11,59,5.33,5.33,0,0,0,145,62.2a1.91,1.91,0,0,0,.8,1.53,1.54,1.54,0,0,0,.95.28c2.81-.06,10-4.25,11.94-5.4.87,2,4.29,9,11.11,11.07a11.39,11.39,0,0,0,3.14.44c7.36,0,14.24-6.57,16-8.35,1.94,2.78,11.87,16.26,27.1,23.5a48,48,0,0,0,20.67,5A29.76,29.76,0,0,0,247,88.71a15.86,15.86,0,0,0,8.13,4.92,14.37,14.37,0,0,0,3.61.39c5.7,0,13.33-2.07,15.58-2a1.28,1.28,0,0,1,.3,0c1.86.15,2.44,2.89,5.57,4a4.78,4.78,0,0,0,1.49.23c2.57,0,5.19-1.68,5.3-3.73a1.82,1.82,0,0,0-.09-.56l-.48.15.48-.15a3.55,3.55,0,0,0-.57-1,6.11,6.11,0,0,0-3.39-2.16c-2.88-.71-9.6-2.39-14.81-3.81a29.21,29.21,0,0,1,5.27-1.49h0c1.84-.08,2.8,2.53,6,3.18a4.4,4.4,0,0,0,.8.07c2.71-.06,5.37-2.09,5.46-4.19a1.69,1.69,0,0,0-.18-.82,3.34,3.34,0,0,0-.7-.94,6.11,6.11,0,0,0-3.66-1.67c-3.75-.39-13.92-1.48-19.13-2.27a12,12,0,0,0,.57-2.68,20.34,20.34,0,0,0,5.39.76,12.5,12.5,0,0,0,7.11-2A3.72,3.72,0,0,0,277,69.68a15.59,15.59,0,0,0-1-4.23,29.9,29.9,0,0,0-6.77-11.16C271,52,281,39.5,283.73,33.41c1.75-3.89,2.81-6,2.84-7.31a1.37,1.37,0,0,0-1.45-1.3,5.5,5.5,0,0,0-.76.07c-2.61.53-13,11.42-17.18,15.8,2.27-6,8.12-21.62,8.16-24.52a1.24,1.24,0,0,0,0-.33c-.24-1.1-.77-2.26-2-2.29s-2.69,1.2-4.82,4.06"/></clipPath><radialGradient id="radial-gradient-12" cx="-1011.31" cy="3543.46" r="1" gradientTransform="translate(61943.43 -216241.29) scale(61.04)" xlink:href="#radial-gradient"/><clipPath id="clip-path-13"><path class="cls-1" d="M90.93,41.7a2.35,2.35,0,0,1,.92-.18,10,10,0,0,1,2.45.56c-2.08,1-3.82,1.88-4.73,2.24a3.61,3.61,0,0,1-1.33.25,3.18,3.18,0,0,1-.82-.1,22.08,22.08,0,0,1,3.51-2.77m-.38-.92a26.07,26.07,0,0,0-4.42,3.49l-.55.48.65.34a4.44,4.44,0,0,0,2,.48,4.65,4.65,0,0,0,1.69-.32c1.19-.47,3.46-1.58,6.1-2.93l-.23-.44.23.44,1.52-.77-1.69-.17c-1.38-.12-2.58-.84-4-.86h0a3.38,3.38,0,0,0-1.29.26m21-7a6.18,6.18,0,0,0-2.91.75c-1.47.79-4,2.17-6.87,3.66a4.25,4.25,0,0,0,.19-1.14,2.17,2.17,0,0,0-.67-1.66,3.29,3.29,0,0,0-1-.57,5.74,5.74,0,0,0-2.12-.4,6.43,6.43,0,0,0-1.85.28l-1,.3c-.94.63-1.89,1.26-2.82,1.9l4.11-1.24a5.12,5.12,0,0,1,1.55-.24,4.86,4.86,0,0,1,1.76.33,2.16,2.16,0,0,1,.69.39,1.19,1.19,0,0,1,.34.91,4.11,4.11,0,0,1-.67,2l-1,1.56,1.62-.85c3.32-1.74,6.48-3.44,8.17-4.35a5.15,5.15,0,0,1,2.44-.63,5.81,5.81,0,0,1,.83.07,2.42,2.42,0,0,1,.75.25,1.46,1.46,0,0,1,.56,1.35A5.08,5.08,0,0,1,111,40.77l.21.46-.21-.46a4.88,4.88,0,0,1-2.12.43c-.87,0-1.72-.16-2.59-.16a3.65,3.65,0,0,0-2.14.58c-2.11,1.48-8.15,11.54-13.06,14A15.53,15.53,0,0,1,84,57.45a9.17,9.17,0,0,1-1.84-.15l-.4-.09-.17.37c-.07,0-5.22,12-24.38,17.72a57.68,57.68,0,0,1-8.78,1.88c-.31.37-.62.75-.92,1.13a60.38,60.38,0,0,0,10-2.06C75.13,71,81.31,60.41,82.37,58.34a11.84,11.84,0,0,0,1.66.11,16.51,16.51,0,0,0,7.53-1.9c5.29-2.75,11.48-13,13.16-14.1A2.78,2.78,0,0,1,106.3,42c.73,0,1.6.17,2.59.17a5.91,5.91,0,0,0,2.53-.52h0a6.05,6.05,0,0,0,3.26-5.2,2.45,2.45,0,0,0-1-2.21,3.25,3.25,0,0,0-1.1-.37,5.41,5.41,0,0,0-1-.09h0"/></clipPath><radialGradient id="radial-gradient-13" cx="-1011.31" cy="3543.55" r="1" gradientTransform="translate(62168.65 -217609.85) scale(61.43)" xlink:href="#radial-gradient"/><clipPath id="clip-path-14"><path class="cls-1" d="M353,63.46h-.24a5.65,5.65,0,1,0,3.13,10.36,41.7,41.7,0,0,0,9.94,8.38A10.53,10.53,0,0,0,364.14,87c0,1.87,1.35,3.53,4.8,3.54a17.52,17.52,0,0,0,2.52-.21,122,122,0,0,0,12.46-2.72l-.64-.87a115.15,115.15,0,0,1-12,2.6,17.41,17.41,0,0,1-2.38.2c-3.21-.08-3.73-1.15-3.8-2.54,0-2,1.78-4.72,1.79-4.72l.32-.47-.5-.26a40.12,40.12,0,0,1-10.43-8.76l-.31-.36-.38.29a4.55,4.55,0,0,1-2.89,1,4.65,4.65,0,0,1,0-9.3,4.44,4.44,0,0,1,.62,0l.51.06.05-.51a20.29,20.29,0,0,1,2.36-7.57l-.76-.7A21.4,21.4,0,0,0,353,63.46"/></clipPath><radialGradient id="radial-gradient-14" cx="-1010.99" cy="3534.21" r="1" gradientTransform="translate(37818.71 -130795.58) scale(37.02)" xlink:href="#radial-gradient"/><clipPath id="clip-path-15"><path class="cls-1" d="M381.33,91.36a3,3,0,0,0,.18,1,3.37,3.37,0,0,0,3.32,1.95,7.58,7.58,0,0,0,3.21-.83l-.57-.84a6.51,6.51,0,0,1-2.64.67,2.41,2.41,0,0,1-2.38-1.29,2,2,0,0,1-.12-.7c0-.84.41-1.92,2.29-2.66h.06l-.61-.85a3.88,3.88,0,0,0-2.74,3.52"/></clipPath><radialGradient id="radial-gradient-15" cx="-1007.05" cy="3419.01" r="1" gradientTransform="translate(6703.98 -21351.97) scale(6.27)" xlink:href="#radial-gradient"/></defs><title>qwe_1</title><g id="Layer_2" data-name="Layer 2"><g id="Layer_1-2" data-name="Layer 1"><path class="cls-2" d="M213.27,0h0C96.66,0,2.13,94.53,2.13,211.14V585.52c0,1.89,1.54,0,3.43,0H421c1.89,0,3.42,1.89,3.42,0V211.14C424.41,94.53,329.88,0,213.27,0"/><g class="cls-3"><rect class="cls-4" x="135.26" y="489.07" width="149.29" height="82.67"/></g><g class="cls-5"><rect class="cls-6" x="154.75" y="345.89" width="166.67" height="111.34" transform="translate(-72.1 52.68) rotate(-10.98)"/></g><g class="cls-7"><rect class="cls-8" y="475.96" width="112.29" height="96.39"/></g><g class="cls-9"><rect class="cls-10" x="344.7" y="501.45" width="79.59" height="64.65"/></g><g class="cls-11"><rect class="cls-12" y="320.29" width="103.34" height="95.83"/></g><g class="cls-13"><rect class="cls-14" x="351.4" y="286.65" width="72.88" height="64.65"/></g><g class="cls-15"><rect class="cls-16" x="385.62" y="347.45" width="13.21" height="7.65"/></g><g class="cls-17"><rect class="cls-18" x="264.73" y="109.59" width="149.29" height="81.38"/></g><g class="cls-19"><rect class="cls-20" x="0.01" y="130.26" width="34.02" height="82.67"/></g><g class="cls-21"><rect class="cls-22" x="100.91" y="108.91" width="79.68" height="64.65"/></g><g class="cls-23"><rect class="cls-24" x="135.13" y="169.71" width="13.21" height="7.65"/></g><g class="cls-25"><rect class="cls-26" x="137.65" y="13.53" width="149.29" height="82.67"/></g><g class="cls-27"><rect class="cls-28" x="47.54" y="33.81" width="67.15" height="44.49"/></g><g class="cls-29"><rect class="cls-30" x="347.09" y="55.78" width="36.83" height="34.77"/></g><g class="cls-31"><rect class="cls-32" x="381.31" y="87.84" width="6.73" height="6.51"/></g></g></g></svg>