<svg xmlns="http://www.w3.org/2000/svg" viewBox="0 0 454.84 89.16"><defs><style>.cls-1{fill:#a00000;}</style></defs><title>urdu</title><g id="Layer_2" data-name="Layer 2"><g id="Layer_1-2" data-name="Layer 1"><path class="cls-1" d="M340.39,63.44c6-.22,15.2-1,16.55-8.27.71-3.85.12-8.16-.26-12a111.4,111.4,0,0,0-1.9-12.34c-.65-3.12-5.42-1.8-4.77,1.31a102,102,0,0,1,2.14,17.32c.08,2.12.61,5.15-1.15,6.71s-4.71,1.77-6.83,2a36.34,36.34,0,0,1-19.63-2.7,18.26,18.26,0,0,0,8.37-12.41A14.06,14.06,0,0,0,309.55,30.7c-5,4.54-4.17,11.41-1.07,16.79a29,29,0,0,0,5.35,6.71,46,46,0,0,1-10.22.16,79.13,79.13,0,0,1-18.87-3.93c-3-1-4.29,3.72-1.31,4.77,2.47.87,5.75,2.34,6.77,5,1.12,2.94-1.76,5.2-4,6.45a34.57,34.57,0,0,1-22,3.66c-6.27-1.16-12.32-4.65-15.55-10.28s-3-13,1.18-17.91c2.06-2.4-1.42-5.91-3.5-3.49a20.51,20.51,0,0,0-4.14,18.53c1.66,6.55,6.54,11.93,12.45,15,6.63,3.48,14.17,4.13,21.48,2.89,6.21-1,14.87-3.36,18.17-9.36a7.83,7.83,0,0,0,.34-7.59,84.28,84.28,0,0,0,9.76,1.25,40.1,40.1,0,0,0,14.55-1.3,38.85,38.85,0,0,0,21.46,5.38M316.51,49.9c-3-3-6.6-7.95-5.53-12.46,1.11-4.67,7.27-6.39,11.32-4.83a9.29,9.29,0,0,1,5.75,9.74c-.59,4.42-4.05,8.07-7.93,10l-.54.24a26.51,26.51,0,0,1-3.07-2.65"/><path class="cls-1" d="M200.44,2.39q-1,29.68-.1,59.39c.09,3.17,5,3.19,4.95,0q-.85-29.7.1-59.39c.1-3.19-4.85-3.18-4.95,0"/><path class="cls-1" d="M180.33,3q.46,19,.36,38.09c0,3,.07,6-.09,8.91-.08,1.56-.78,1.79-2.12,2.45a23.84,23.84,0,0,1-4.9,1.81c-5.39,1.28-9.71-1.07-13-5.26-4.15-5.33-10.27-23.3-19.83-17.45-4.18,2.55-5.8,8.06-7.69,12.27-1.11,2.48-2.1,5.07-3.39,7.46-1.6,2.93-4.2,3.06-7.25,3.08-5.67,0-11.33,0-17,.06a23.36,23.36,0,0,0,4.22-7.54,29.25,29.25,0,0,0,1.41-14.33c-.95-4.89-5.88-7.09-10.4-5.44-4.92,1.79-7.39,7.36-9.6,11.71a57.29,57.29,0,0,0-5.56,15.6h-.42c-3.25,0-6.5.07-9.75,0-1.21,0-2,0-2.8-1a16.36,16.36,0,0,1-1.91-4.68c-1.46-4.79-2.65-10-6.76-13.26C59.46,31.91,54,33,49.4,35.48c-4.24,2.3-8.67,5.42-10.82,9.88a11.66,11.66,0,0,0,.89,12A9.36,9.36,0,0,0,45,60.7c.75.19,1.92.23,2.48.82.78.82.06,2.29-.42,3.09-2.69,4.41-9,5.81-13.73,6.2-5.85.48-12.26.4-17.9-1.29C10.51,68.05,5.48,64.39,5,58.89c-.26-2.89.71-5.74,1.6-8.44A49.49,49.49,0,0,0,9,41.26a2.49,2.49,0,0,0-2.48-2.47A2.53,2.53,0,0,0,4,41.26c-.73,5.6-3.88,10.6-4,16.32a16.06,16.06,0,0,0,6.68,13C11.09,74,16.56,75.2,22,75.66a57.36,57.36,0,0,0,16.29-.59c4.64-.95,9.45-3.14,12.36-7,3.1-4.13,2.74-10-2.69-11.71-2-.64-4-.64-5.06-2.78a7,7,0,0,1-.06-5.7,14.21,14.21,0,0,1,4.9-5.51,23.17,23.17,0,0,1,7.72-4.06c6.43-1.55,8.6,5.52,10,10.31a28.26,28.26,0,0,0,2.82,7.28c1.68,2.65,4,3.45,7.07,3.5q4.81.07,9.62.07a27.64,27.64,0,0,0,1.73,10.87,23.89,23.89,0,0,0,9.6,11.73c3.72,2.4,9.8,6,13.91,2.65s3.45-9.9,1.74-14.36a39.11,39.11,0,0,0-6.85-11l10,0c5.28,0,12.8,1.27,16.93-2.9a9.28,9.28,0,0,0,1.1-1.32,14.28,14.28,0,0,0,10.14,6.39,24.59,24.59,0,0,0,11.09-1.13c2.39-.78,5.41-1.7,7.43-3.48a16,16,0,0,0,11.65,2.44,24.81,24.81,0,0,0,9.21-3.53c2.73-1.8,2.86-4.41,2.89-7.41q.27-22.68-.3-45.38c-.07-3.18-5-3.19-4.94,0M92.73,47a71.57,71.57,0,0,1,5.79-11.5,8.87,8.87,0,0,1,3.59-3.69c1.18-.51,3-.61,3.75.6,1,1.5.56,4.24.46,5.93a28.28,28.28,0,0,1-1,5.79A17.09,17.09,0,0,1,99,53.7a2.58,2.58,0,0,0-.69.71H90.52A44.42,44.42,0,0,1,92.73,47m13,21.67c1.67,2.92,3.41,6.94,2.41,10.36-.37,1.26-1,2.28-2.42,2a19.16,19.16,0,0,1-5.78-2.6,19.4,19.4,0,0,1-8-8.31,22.35,22.35,0,0,1-2-10.71l8.65,0a52.74,52.74,0,0,1,7.15,9.28M152.37,55.8a19.16,19.16,0,0,1-8.33.82A9.45,9.45,0,0,1,136,49.36c0-.07.07-.15.11-.22,1.26-2.84,2.49-5.69,3.8-8.5.78-1.68,1.92-4.36,3.81-5.08,2.17-.82,4.4,2.73,5.4,4.18,3,4.31,5,9.18,8.4,13.23.18.22.36.42.55.63-1.56,1.13-4.21,1.76-5.68,2.2"/><path class="cls-1" d="M60.07,22.74c6.11,0,6.12-9.49,0-9.49s-6.11,9.49,0,9.49"/><path class="cls-1" d="M34.47,79.68c-6.11,0-6.12,9.48,0,9.48s6.11-9.48,0-9.48"/><path class="cls-1" d="M19.15,79.37c-6.11,0-6.12,9.49,0,9.49s6.11-9.49,0-9.49"/><path class="cls-1" d="M274.76,79.68c-6.1,0-6.11,9.48,0,9.48s6.12-9.48,0-9.48"/><path class="cls-1" d="M259.45,79.37c-6.11,0-6.12,9.49,0,9.49s6.11-9.49,0-9.49"/><path class="cls-1" d="M354.69,73.55c-6.1,0-6.11,9.49,0,9.49s6.12-9.49,0-9.49"/><path class="cls-1" d="M339.38,73.25c-6.11,0-6.12,9.48,0,9.48s6.11-9.48,0-9.48"/><path class="cls-1" d="M328.67,20c6.11,0,6.12-9.48,0-9.48s-6.11,9.48,0,9.48"/><path class="cls-1" d="M313.36,19.67c6.1,0,6.11-9.48,0-9.48s-6.12,9.48,0,9.48"/><path class="cls-1" d="M454.56,46.59c-.73-4.28-3.12-9.18-6.89-11.58s-9-1.55-12.93-.49a28.77,28.77,0,0,0-13.8,8.5,183.89,183.89,0,0,0-1.49-40.86C419-1,414.21.36,414.68,3.48a175.9,175.9,0,0,1,.21,50.2,2.66,2.66,0,0,0,1,2.55c-2.66-.15-5.31-.32-8-.54s-5.36-.48-8-.78a27.63,27.63,0,0,1-6.46-1.09A6.55,6.55,0,0,1,391,52.27c-1.1-2.7-2.34-5.37-3.44-8-1.19-2.87-5.52-1.88-4.77,1.32s1.75,6.7,3.87,9.33l.54,1.36c1.25,3.21,2.4,6.81.06,9.82-2,2.62-5.44,4.23-8.32,5.68a65,65,0,0,1-10.66,4.18c-3,.91-1.75,5.69,1.32,4.78a72.36,72.36,0,0,0,12.51-5c3.48-1.8,7.09-3.86,9.42-7.1a12,12,0,0,0,1.7-9.64c3.2.87,6.76,1,9.89,1.27a292.64,292.64,0,0,0,34.65,1.36c4.27-.09,9.17.1,12.84-2.44,4.06-2.81,4.72-8,3.95-12.53m-7.84,9c-3.4,1.43-7.78,1-11.37,1q-8.31.09-16.61-.28a2.51,2.51,0,0,0,.92-1.37,23.56,23.56,0,0,1,13.11-14.57,21.7,21.7,0,0,1,9.66-1.86c4,.19,6.23,4.5,7.09,8,.78,3.23.75,7.57-2.8,9"/></g></g></svg>